<?xml version="1.0" encoding="UTF-8" standalone="no"?>
<!-- Created with Inkscape (http://www.inkscape.org/) -->

<svg
   width="100"
   height="100"
   id="svg2"
   sodipodi:version="0.32"
   inkscape:version="1.3 (0e150ed6c4, 2023-07-21)"
   version="1.0"
   sodipodi:docname="ba.svg"
   inkscape:output_extension="org.inkscape.output.svg.inkscape"
   xmlns:inkscape="http://www.inkscape.org/namespaces/inkscape"
   xmlns:sodipodi="http://sodipodi.sourceforge.net/DTD/sodipodi-0.dtd"
   xmlns:xlink="http://www.w3.org/1999/xlink"
   xmlns="http://www.w3.org/2000/svg"
   xmlns:svg="http://www.w3.org/2000/svg"
   xmlns:rdf="http://www.w3.org/1999/02/22-rdf-syntax-ns#"
   xmlns:cc="http://creativecommons.org/ns#"
   xmlns:dc="http://purl.org/dc/elements/1.1/">
  <defs
     id="defs4">
    <linearGradient
       id="linearGradient3214">
      <stop
         style="stop-color:#c6c600;stop-opacity:1;"
         offset="0"
         id="stop3216" />
      <stop
         style="stop-color:#ffff00;stop-opacity:1;"
         offset="1"
         id="stop3218" />
    </linearGradient>
    <linearGradient
       id="linearGradient3202">
      <stop
         style="stop-color:#ff0000;stop-opacity:1;"
         offset="0"
         id="stop3204" />
      <stop
         style="stop-color:#bd0000;stop-opacity:1;"
         offset="1"
         id="stop3206" />
    </linearGradient>
    <linearGradient
       id="linearGradient3194">
      <stop
         style="stop-color:#dedede;stop-opacity:1;"
         offset="0"
         id="stop3196" />
      <stop
         style="stop-color:#989898;stop-opacity:1;"
         offset="1"
         id="stop3198" />
    </linearGradient>
    <inkscape:perspective
       sodipodi:type="inkscape:persp3d"
       inkscape:vp_x="0 : 556.18109 : 1"
       inkscape:vp_y="0 : 1000 : 0"
       inkscape:vp_z="744.09448 : 556.18109 : 1"
       inkscape:persp3d-origin="372.04724 : 380.78739 : 1"
       id="perspective10" />
    <linearGradient
       inkscape:collect="always"
       xlink:href="#linearGradient3202"
       id="linearGradient3208"
       x1="42.241379"
       y1="32.741379"
       x2="115.51724"
       y2="62.051723"
       gradientUnits="userSpaceOnUse"
       gradientTransform="translate(-32.758621,-3.8793108)" />
  </defs>
  <sodipodi:namedview
     id="base"
     pagecolor="#ffffff"
     bordercolor="#666666"
     borderopacity="1.0"
     gridtolerance="10000"
     guidetolerance="10"
     objecttolerance="10"
     inkscape:pageopacity="0.0"
     inkscape:pageshadow="2"
     inkscape:zoom="2.8410986"
     inkscape:cx="72.85914"
     inkscape:cy="43.821077"
     inkscape:document-units="px"
     inkscape:current-layer="layer1"
     showgrid="false"
     inkscape:window-width="1366"
     inkscape:window-height="715"
     inkscape:window-x="144"
     inkscape:window-y="892"
     inkscape:showpageshadow="2"
     inkscape:pagecheckerboard="0"
     inkscape:deskcolor="#d1d1d1"
     inkscape:window-maximized="1" />
  <metadata
     id="metadata7">
    <rdf:RDF>
      <cc:Work
         rdf:about="">
        <dc:format>image/svg+xml</dc:format>
        <dc:type
           rdf:resource="http://purl.org/dc/dcmitype/StillImage" />
      </cc:Work>
    </rdf:RDF>
  </metadata>
  <g
     inkscape:label="Layer 1"
     inkscape:groupmode="layer"
     id="layer1">
    <g
       stroke-width="2"
       fill="none"
       stroke-linecap="butt"
       id="g2"
       transform="matrix(1.6277727,0,0,1.6374396,-1.9712161,-2.2997313)">
      <path
         stroke="#1a1a1a"
         vector-effect="non-scaling-stroke"
         d="M 58.87,31.61 C 59.13152,18.702065 48.807507,6.7053443 36.004766,5.0401157 18.149097,1.6221711 1.0055822,19.973804 5.803687,37.589137 9.2321522,56.327473 34.389528,65.13042 48.753171,52.617812 55.085099,47.628729 58.917271,39.671143 58.87,31.61 Z"
         id="path1" />
      <path
         stroke="#5a5a5a"
         vector-effect="non-scaling-stroke"
         d="m 28.28,30.56 c 0.544881,3.711177 1.158758,8.645503 -2.44832,11.045781 -2.134057,2.127824 -5.470368,-1.336971 -6.891055,1.407344 -1.29812,2.115335 -5.339723,2.806568 -4.610859,5.776484 1.777985,1.983163 5.177099,0.444934 7.674589,0.732237 6.730365,-0.500986 13.494039,-0.956088 20.225972,-0.177263 2.201429,0.560176 5.141469,0.604921 3.915142,-2.582552 C 45.112902,44.105396 42.690072,38.665297 39.426172,41.67543 36.965425,42.716531 32.597573,41.45952 33.716773,38.166913 34.270644,35.376051 34.532781,32.4975 35.2725,29.7625 40.752723,27.312773 46.938945,26.524828 52.92,26.8 54.69247,24.132073 50.087926,22.845292 47.996641,22.406133 44.489392,20.480677 42.112389,24.492464 38.598848,24.234199 33.436928,24.764205 34.58508,18.932928 35.692857,15.83613 35.928954,12.219073 32.092219,10.346362 29.1895,9.3603925 27.485061,8.2987975 26.031519,9.1211608 27.620938,10.83875 c 1.981206,3.904967 1.972581,8.9758 -0.473171,12.661732 C 24.466499,26.75156 19.511634,26.275546 16.205,24.35 c -1.126322,2.857258 -5.560981,4.183668 -5.507686,6.930807 3.259755,0.163046 6.594257,-1.128265 9.943311,-1.116041 C 23.051716,30.271541 26.29202,29.381703 28.28,30.56 Z"
         id="path2" />
    </g>
    <path
       fill="#333333"
       d="M 100.38313,49.44336 C 101.80625,84.094235 62.16132,110.74145 30.88169,96.158531 -1.4871542,84.22082 -10.789169,37.178708 14.574348,13.689118 36.078504,-9.7805626 77.695203,-4.1369468 93.06543,23.171048 c 4.769363,7.864762 7.33046,17.059708 7.3177,26.272312 z m -6.527369,0.01638 C 94.281456,28.323771 77.47631,8.6798646 56.636358,5.9531544 27.571388,0.35647572 -0.33435741,30.406167 7.4758671,59.250211 13.056628,89.933105 54.007117,104.3474 77.387863,83.85876 87.694803,75.689437 93.932708,62.659371 93.855761,49.459735 Z"
       id="path3"
       style="stroke-width:1.6326" />
    <path
       fill="#000000"
       d="M 93.855761,49.459735 C 95.202199,80.622557 58.46697,103.84191 31.140193,89.100565 2.6450214,76.799827 -2.2125713,33.431474 22.847155,15.060712 44.496285,-3.9351586 81.420644,6.7167071 90.8323,33.385461 c 1.994603,5.105438 3.025972,10.588715 3.023461,16.074274 z M 44.062195,47.740423 c 0.886943,6.076829 1.886194,14.156489 -3.985308,18.086801 -3.47376,3.484183 -8.904516,-2.189211 -11.217071,2.30444 -2.113045,3.463733 -8.691856,4.595585 -7.50543,9.458644 2.894155,3.247309 8.427139,0.728552 12.492486,1.198994 10.955504,-0.820334 21.965227,-1.565537 32.923284,-0.290258 3.583426,0.917254 8.369143,0.990522 6.372961,-4.228773 -1.680785,-4.350079 -5.624601,-13.257913 -10.937488,-8.329001 -4.005536,1.70474 -11.115407,-0.35354 -9.293603,-5.744986 0.901575,-4.569868 1.328275,-9.283321 2.53237,-13.761718 8.920557,-4.011281 18.99032,-5.301492 28.726118,-4.850915 2.885178,-4.36857 -4.609973,-6.475596 -8.014109,-7.194692 -5.709004,-3.152818 -9.578226,3.416241 -15.297472,2.993347 -8.402432,0.867853 -6.533501,-8.68051 -4.730292,-13.751331 0.384312,-5.922713 -5.86102,-8.989163 -10.585986,-10.60363 -2.77444,-1.738297 -5.140476,-0.391726 -2.553265,2.420722 3.224955,6.394148 3.210916,14.697331 -0.770213,20.732822 -4.364494,5.323444 -12.429889,4.543999 -17.812337,1.391034 -1.833396,4.678589 -9.052013,6.850504 -8.965261,11.348779 5.03826,0.421356 10.189191,-1.823253 15.362662,-1.765247 4.202877,0.118729 9.738112,-1.363477 13.257954,0.584968 z"
       id="path4"
       style="stroke-width:1.6326" />
    <path
       fill="#b3b3b3"
       d="m 43.199475,46.954452 c -8.819371,-0.419243 -17.692654,0.369688 -26.304806,2.325165 -5.055033,-2.718139 4.091186,-5.524615 5.37165,-8.887204 2.104482,-5.775708 7.165011,1.093895 11.429209,-0.322133 5.291576,0.138396 10.120198,-3.892503 10.873151,-9.184867 1.619321,-5.984488 0.529053,-12.584052 -2.883032,-17.744089 2.465851,-2.175623 8.293379,1.821778 11.270454,3.744508 4.576799,3.058164 2.993937,8.738063 1.739519,13.071998 -2.568387,8.112936 8.309843,8.982071 13.028583,5.492014 3.626774,-3.822458 8.826177,-0.701739 13.026461,0.365158 4.013466,-0.110417 6.338521,7.59915 0.705842,5.673808 -8.844669,-0.05124 -17.932595,1.276697 -26.01211,4.945756 -1.295139,5.043743 -1.82612,10.318538 -2.820117,15.453336 0.95029,6.365872 9.597833,5.140246 13.449472,2.075455 3.76732,3.390122 9.751579,10.30862 6.100079,15.052164 -11.67284,-1.404594 -23.459811,-1.590425 -35.159,-0.412111 -4.645826,0.293213 -9.297287,0.496083 -13.950903,0.608603 -5.558331,-3.853179 2.417887,-7.443315 4.991412,-10.236813 2.220555,-5.199168 6.982852,-0.495377 10.881089,-2.554405 6.243151,-2.780278 6.26511,-10.719855 5.421501,-16.55816 -0.367902,-0.861965 0.227185,-2.78757 -1.158454,-2.908183 z"
       id="path5"
       style="stroke-width:1.6326" />
  </g>
</svg>
