<?xml version="1.0" encoding="UTF-8" standalone="no"?>
<!-- Created with Inkscape (http://www.inkscape.org/) -->

<svg
   width="100"
   height="100"
   id="svg2"
   sodipodi:version="0.32"
   inkscape:version="1.3 (0e150ed6c4, 2023-07-21)"
   version="1.0"
   sodipodi:docname="bb.svg"
   inkscape:output_extension="org.inkscape.output.svg.inkscape"
   xmlns:inkscape="http://www.inkscape.org/namespaces/inkscape"
   xmlns:sodipodi="http://sodipodi.sourceforge.net/DTD/sodipodi-0.dtd"
   xmlns:xlink="http://www.w3.org/1999/xlink"
   xmlns="http://www.w3.org/2000/svg"
   xmlns:svg="http://www.w3.org/2000/svg"
   xmlns:rdf="http://www.w3.org/1999/02/22-rdf-syntax-ns#"
   xmlns:cc="http://creativecommons.org/ns#"
   xmlns:dc="http://purl.org/dc/elements/1.1/">
  <defs
     id="defs4">
    <linearGradient
       id="linearGradient3214">
      <stop
         style="stop-color:#c6c600;stop-opacity:1;"
         offset="0"
         id="stop3216" />
      <stop
         style="stop-color:#ffff00;stop-opacity:1;"
         offset="1"
         id="stop3218" />
    </linearGradient>
    <linearGradient
       id="linearGradient3202">
      <stop
         style="stop-color:#ff0000;stop-opacity:1;"
         offset="0"
         id="stop3204" />
      <stop
         style="stop-color:#bd0000;stop-opacity:1;"
         offset="1"
         id="stop3206" />
    </linearGradient>
    <linearGradient
       id="linearGradient3194">
      <stop
         style="stop-color:#dedede;stop-opacity:1;"
         offset="0"
         id="stop3196" />
      <stop
         style="stop-color:#989898;stop-opacity:1;"
         offset="1"
         id="stop3198" />
    </linearGradient>
    <inkscape:perspective
       sodipodi:type="inkscape:persp3d"
       inkscape:vp_x="0 : 556.18109 : 1"
       inkscape:vp_y="0 : 1000 : 0"
       inkscape:vp_z="744.09448 : 556.18109 : 1"
       inkscape:persp3d-origin="372.04724 : 380.78739 : 1"
       id="perspective10" />
    <linearGradient
       inkscape:collect="always"
       xlink:href="#linearGradient3202"
       id="linearGradient3208"
       x1="42.241379"
       y1="32.741379"
       x2="115.51724"
       y2="62.051723"
       gradientUnits="userSpaceOnUse"
       gradientTransform="translate(-32.758621,-3.8793108)" />
  </defs>
  <sodipodi:namedview
     id="base"
     pagecolor="#ffffff"
     bordercolor="#666666"
     borderopacity="1.0"
     gridtolerance="10000"
     guidetolerance="10"
     objecttolerance="10"
     inkscape:pageopacity="0.0"
     inkscape:pageshadow="2"
     inkscape:zoom="2.32"
     inkscape:cx="25"
     inkscape:cy="81.681034"
     inkscape:document-units="px"
     inkscape:current-layer="layer1"
     showgrid="false"
     inkscape:window-width="973"
     inkscape:window-height="995"
     inkscape:window-x="13"
     inkscape:window-y="8"
     inkscape:showpageshadow="2"
     inkscape:pagecheckerboard="0"
     inkscape:deskcolor="#d1d1d1"
     inkscape:window-maximized="0" />
  <metadata
     id="metadata7">
    <rdf:RDF>
      <cc:Work
         rdf:about="">
        <dc:format>image/svg+xml</dc:format>
        <dc:type
           rdf:resource="http://purl.org/dc/dcmitype/StillImage" />
      </cc:Work>
    </rdf:RDF>
  </metadata>
  <g
     inkscape:label="Layer 1"
     inkscape:groupmode="layer"
     id="layer1">
    <g
       stroke-width="2"
       fill="none"
       stroke-linecap="butt"
       id="g6"
       transform="matrix(1.6080331,0,0,1.6063713,-1.3325596,-1.5929642)">
      <path
         stroke="#985a5a"
         vector-effect="non-scaling-stroke"
         d="m 11.91,50.01 c -0.754841,1.018289 0.930566,1.188628 1.45,0.69"
         id="path1"
         style="display:inline" />
      <path
         stroke="#690000"
         vector-effect="non-scaling-stroke"
         d="m 13.36,50.7 c 5.363037,7.279238 15.413853,9.246067 23.8928,7.661716 C 48.501289,56.254544 57.832291,46.286362 58.754163,34.804116 60.000384,23.825796 53.786843,12.367992 43.612172,7.860248 34.679053,3.473604 23.484079,4.7867142 15.657798,10.872019 6.117175,17.72095 2.215999,31.338997 6.9289551,42.129531 8.149759,45.003632 9.8844847,47.640932 11.91,50.01"
         id="path2"
         style="display:inline" />
      <path
         stroke="#aa5a5a"
         vector-effect="non-scaling-stroke"
         d="m 13.36,50.7 c 6.219768,-1.963186 12.082897,-5.064275 17.17,-9.15 2.33312,2.076352 1.430728,8.652775 -1.99,9.89 -1.606667,-0.66 -3.213333,-1.32 -4.82,-1.98 -2.280214,1.358769 2.244787,3.333162 3.573867,4.254609 2.142658,1.377958 5.270711,2.428617 5.59086,-1.075625 C 34.146118,49.338069 34.654966,45.763496 34.43,42.24 c 2.470881,0.419942 3.77649,6.476265 7.763198,6.163381 3.423127,0.145905 7.269701,-0.144491 10.137799,-2.10448 C 50.505768,44.011175 46.24696,43.701278 43.773125,41.564922 41.59398,39.77683 37.70223,38.186312 37.28375,35.415625 39.262198,34.085055 41.656782,33.393379 43.544873,31.947109 44.218745,30.138461 41.89432,29.780818 40.809803,28.97692 39.023982,27.674036 39.821811,29.166489 39.54,30.35 38.07094,31.381152 36.671199,32.523014 35.156875,33.481875 34.187162,33.185383 33.240213,31.414457 33.425,30.4675 c 2.411313,-0.301691 4.384167,-1.760171 6.145,-3.3075 1.425679,-0.809054 3.110791,-1.312436 4.365,-2.325 -1.252305,-3.457231 -5.253436,-2.316636 -8.043633,-2.987852 -2.02928,0.03699 -5.242956,-1.732923 -2.327136,-3.000121 1.697501,-1.19826 3.555846,-2.216213 5.149567,-3.530812 C 38.362769,14.150676 37.100027,12.741469 35.83,12.51 c -1.983333,0.88 -3.966667,1.76 -5.95,2.64 -0.91076,-0.70052 1.105371,-1.866411 1.562013,-2.745212 C 33.709644,10.587593 29.850618,8.6771044 28.384063,7.8560938 25.525164,6.9037981 28.044341,11.634602 25.492461,12.569687 21.829298,16.782818 17.643862,20.539312 13.07,23.74 c -1.905384,2.722721 2.709652,1.840395 2.991094,4.225 1.580497,1.224739 3.099385,2.398878 3.025259,4.571031 -0.08996,1.76631 1.71052,0.780043 2.718037,0.50038 0.866898,-0.473118 3.293129,-0.924014 1.787045,0.513143 C 22.097624,35.01637 20.603812,36.483185 19.11,37.95 c -1.174152,3.104566 2.836172,1.977904 3.473125,0.08563 1.10243,-1.318747 4.680663,-3.543829 2.313438,-0.613457 C 22.451756,40.617316 18.920835,42.675172 15.79,45.11 c 0.426258,2.071287 3.972258,-0.760018 5.538281,-1.330156 2.811585,-1.50353 5.143157,-3.789507 7.399219,-5.932344 -0.503957,3.173183 -4.64599,5.417314 -7.116211,7.549092 C 18.648492,47.435798 15.354293,48.980797 11.91,50.01"
         id="path3"
         style="display:inline" />
      <path
         stroke="#aa5a5a"
         vector-effect="non-scaling-stroke"
         d="m 16.65,25.32 c 5.121626,-0.564101 10.358612,-3.027685 13.03,-7.5825 -4.661561,0.03705 -8.291449,3.263607 -11.937188,5.749609 C 17.412474,23.902732 15.2089,24.815465 16.65,25.32 Z"
         id="path4"
         style="display:inline" />
      <path
         stroke="#aa5a5a"
         vector-effect="non-scaling-stroke"
         d="m 36.14,24.14 c -1.763333,-0.496667 -3.526667,-0.993333 -5.29,-1.49 -1.955368,3.840337 5.059213,5.633239 5.29,1.49 z"
         id="path5"
         style="display:inline" />
      <path
         stroke="#aa5a5a"
         vector-effect="non-scaling-stroke"
         d="m 27.1,24.85 c -0.515507,-1.391249 -2.060713,0.543941 -3.032703,0.830868 -2.294951,0.400681 -2.106558,3.369572 0.450086,2.612198 C 25.806671,27.566568 26.462725,26.116371 27.1,24.85 Z"
         id="path6"
         style="display:inline" />
    </g>
    <path
       fill="#570000"
       d="M 99.780569,50.019744 C 101.18644,84.013162 62.022262,110.15478 31.121951,95.848551 -0.85436756,84.13735 -10.043579,37.987799 15.012364,14.943889 36.255745,-8.0804792 77.36777,-2.543944 92.551607,24.245919 c 4.711521,7.715529 7.241569,16.736011 7.228962,25.773825 z M 17.819117,78.741663 c -0.885082,2.836095 3.548758,0.03181 3.887347,3.061486 9.797485,10.873366 26.196366,13.146478 39.84767,9.67694 C 78.313647,86.981062 91.730691,71.731554 93.146081,54.315374 95.150045,36.680116 85.158465,18.274619 68.797262,11.033515 54.432509,3.9869333 36.430619,6.0962691 23.845701,15.871536 8.5040611,26.87346 2.2308414,48.749105 9.8094305,66.082701 c 1.9630935,4.616872 4.7525905,8.853355 8.0096865,12.658962 z"
       id="path7"
       style="display:inline;fill:#333333;stroke-width:1.60719" />
    <path
       fill="#7b0000"
       d="m 20.150765,79.850058 c 10.001593,-3.153612 19.429699,-8.135098 27.60993,-14.698297 3.751735,3.335389 2.300658,13.899562 -3.199986,15.887012 -2.583574,-1.060205 -5.167147,-2.120411 -7.750721,-3.180615 -3.833672,2.238928 3.704086,5.322518 5.746898,6.834483 3.445465,2.213516 8.475477,3.901265 8.990288,-1.727861 2.028359,-5.302487 2.846603,-11.044573 2.484851,-16.704623 3.973258,0.67458 6.07272,10.403295 12.48348,9.900677 5.504493,0.234385 11.689921,-0.232105 16.301921,-3.380577 -2.93503,-3.674927 -9.783338,-4.172742 -13.761347,-7.604528 -3.504136,-2.872337 -9.762201,-5.427303 -10.43513,-9.878059 3.18141,-2.13739 7.031981,-3.248469 10.068094,-5.571715 1.0836,-2.905364 -2.654144,-3.479866 -4.398083,-4.771228 -2.87166,-2.092909 -1.588725,0.30452 -2.041886,2.205676 -2.362297,1.65641 -4.613128,3.490661 -7.048211,5.030963 -1.55933,-0.476289 -3.082056,-3.321045 -2.784912,-4.842214 3.877471,-0.484626 7.049886,-2.827486 9.881364,-5.313073 2.292539,-1.299635 5.002255,-2.108265 7.019065,-3.734814 -2.013748,-5.553594 -8.447699,-3.721383 -12.93443,-4.799595 -3.263148,0.05943 -8.430846,-2.783713 -3.742111,-4.819307 2.729638,-1.92485 5.717919,-3.560073 8.280675,-5.671808 -0.564467,-1.872273 -2.594998,-4.135988 -4.637244,-4.507815 -3.189265,1.413607 -6.378532,2.827214 -9.567797,4.24082 -1.464532,-1.125295 1.777473,-2.998147 2.511769,-4.409826 3.646426,-2.919098 -2.559016,-5.988054 -4.917287,-7.306901 -4.597203,-1.5297314 -0.546283,6.06969 -4.649791,7.571791 -5.890487,6.767851 -12.620807,12.802169 -19.975729,17.943665 -3.063921,4.373699 4.35721,2.956366 4.809779,6.786919 2.541491,1.967387 4.983914,3.853491 4.864717,7.342771 -0.144659,2.837349 2.750573,1.253034 4.370693,0.803796 1.394001,-0.760007 5.295461,-1.484303 2.873628,0.824293 -2.402098,2.356257 -4.804198,4.7125 -7.206297,7.068757 -1.66564,5.515652 4.962594,2.475723 6.182134,-0.429447 1.96277,-2.160859 6.669166,-4.680372 3.12285,-0.418444 -3.931329,5.132596 -9.609168,8.438268 -14.643653,12.349509 0.685436,3.32726 6.387521,-1.220874 8.905739,-2.136731 4.521122,-2.415228 8.270368,-6.087344 11.89819,-9.529541 -0.81038,5.097306 -7.470906,8.702211 -11.443103,12.126642 C 28.554333,73.916959 21.863034,79.45555 16.89043,77.628495 8.4794356,67.778756 4.6093713,54.11604 7.5371456,41.402623 11.660475,19.054271 35.717252,3.0763426 57.945986,7.5443645 73.61446,10.229928 87.300076,22.139002 91.561123,37.51628 96.677289,54.00695 90.801891,73.320947 76.870952,83.707791 63.506968,94.481627 43.454396,96.102134 28.585846,87.529236 25.308795,85.552435 22.392755,82.956989 20.150765,79.850058 Z"
       id="path8"
       style="display:inline;fill:#000000;stroke-width:1.60719" />
    <path
       fill="#d8b3b3"
       d="m 20.150765,79.850058 c -3.903685,1.587577 -2.384092,-2.40077 0.629709,-2.080829 9.493281,-3.407322 18.184043,-9.405625 24.355107,-17.392406 -0.738972,-2.962438 -4.190556,3.760981 -6.162474,4.237752 -4.182082,3.40623 -8.992303,6.022671 -14.094724,7.765856 -2.406147,-2.385524 4.483337,-4.569563 6.255104,-6.726807 3.503725,-2.776951 7.364899,-5.698185 9.141813,-9.919215 -4.322838,0.555724 -7.806445,10.389351 -11.446657,4.978098 1.209561,-2.749643 4.029061,-4.405747 5.979844,-6.65192 1.047858,-0.891504 4.357289,-3.903563 1.195719,-3.280387 -2.048974,0.495839 -4.031359,1.50321 -6.124841,1.657133 -1.232547,-2.44668 -0.07779,-6.226874 -3.426116,-7.300958 -2.56397,-1.960207 -3.528042,-5.207598 -7.062611,-5.370002 -0.738206,-5.257155 7.255432,-7.00659 10.182133,-11.007451 4.289652,-3.946645 8.6648,-7.969432 12.028402,-12.74029 0.432904,-2.634418 -0.18489,-7.2817778 3.717321,-4.488555 2.735995,1.399085 7.383856,4.67099 3.482872,7.300266 -0.645409,1.135191 -3.972418,3.479963 -1.829135,3.799406 3.10368,-1.375665 6.20736,-2.751345 9.311039,-4.127009 2.041821,0.372229 4.073174,2.635188 4.637244,4.507815 -3.186013,2.526517 -6.799704,4.574078 -10.152797,6.913485 -0.05464,4.16969 7.764547,3.602785 11.333368,4.190364 2.707534,-1.172314 10.066145,3.709802 5.432753,5.344959 -2.907946,1.475404 -6.036971,2.625614 -8.300832,5.071603 -1.388873,2.555512 -8.234825,1.289901 -6.539508,4.608278 0.699457,1.930906 2.292767,4.266296 4.161851,1.94946 1.913977,-1.612925 4.376588,-2.712615 5.885547,-4.704435 -1.821298,-2.943049 0.63991,-2.338363 2.46612,-0.920853 2.364174,0.746465 5.724359,3.781527 1.967253,5.339466 -2.832559,1.529025 -5.834727,2.776757 -8.55332,4.494788 0.859837,4.659425 7.377035,7.358465 11.15372,10.319939 3.782415,3.213915 10.370769,3.577325 13.042757,7.162648 -4.612,3.148472 -10.797428,3.614962 -16.301921,3.380577 -6.41076,0.502618 -8.510222,-9.226097 -12.48348,-9.900677 0.371857,7.138698 -0.819709,14.701574 -4.550734,20.846684 -5.167326,-1.179511 -11.937068,-3.812256 -14.038146,-8.79808 2.06812,-1.015837 4.029327,0.974747 6.04376,1.468641 3.589694,2.725465 6.928015,-0.639963 7.667502,-4.512024 C 50.409036,72.26736 50.198741,61.454424 45.42501,66.954175 37.809027,72.640086 29.212852,76.98797 20.150765,79.850058 Z m 5.290429,-40.769703 c 8.235744,-0.906153 16.656992,-4.863577 20.952673,-12.18031 -7.495946,0.05959 -13.332925,5.24257 -19.195394,9.236009 -0.483822,0.643111 -4.144136,2.179685 -1.757279,2.944301 z M 56.78176,37.184837 c -2.835497,-0.797836 -5.670997,-1.595656 -8.506494,-2.393493 -3.144298,6.169012 8.135381,9.049075 8.506494,2.393493 z m -14.536619,1.140525 c -0.911924,-2.154433 -3.474215,0.951887 -5.119169,1.476334 -4.169707,0.708828 -2.151324,5.990464 1.506535,3.732019 1.710117,-1.312148 2.684559,-3.318073 3.612634,-5.208353 z"
       id="path9"
       style="display:inline;fill:#b3b3b3;stroke-width:1.60719" />
    <path
       fill="#7b0000"
       d="m 46.233063,27.385973 c -4.626382,6.937291 -12.647605,10.832805 -20.791869,11.694382 -0.760291,-3.072698 6.299012,-5.383286 8.844182,-7.808971 3.162947,-2.337913 9.05485,-5.060263 11.947687,-3.885411 z"
       id="path10"
       style="display:inline;fill:#000000;stroke-width:1.60719" />
    <path
       fill="#7b0000"
       d="m 56.78176,37.184837 c 0.0026,6.61772 -11.949758,3.579429 -8.506494,-2.393493 2.835497,0.797837 5.670997,1.595657 8.506494,2.393493 z"
       id="path11"
       style="display:inline;fill:#000000;stroke-width:1.60719" />
    <path
       fill="#7b0000"
       d="m 42.245141,38.325362 c -0.814958,3.289061 -5.791849,8.755172 -7.985901,3.543172 1.88988,-1.962182 4.713276,-2.925475 6.98892,-4.474868 l 0.832616,0.09253 z"
       id="path12"
       style="display:inline;fill:#000000;stroke-width:1.60719" />
  </g>
</svg>
