<?xml version="1.0" encoding="UTF-8" standalone="no"?>
<!-- Created with Inkscape (http://www.inkscape.org/) -->

<svg
   width="100"
   height="100"
   id="svg2"
   sodipodi:version="0.32"
   inkscape:version="1.3 (0e150ed6c4, 2023-07-21)"
   version="1.0"
   sodipodi:docname="bc.svg"
   inkscape:output_extension="org.inkscape.output.svg.inkscape"
   xmlns:inkscape="http://www.inkscape.org/namespaces/inkscape"
   xmlns:sodipodi="http://sodipodi.sourceforge.net/DTD/sodipodi-0.dtd"
   xmlns:xlink="http://www.w3.org/1999/xlink"
   xmlns="http://www.w3.org/2000/svg"
   xmlns:svg="http://www.w3.org/2000/svg"
   xmlns:rdf="http://www.w3.org/1999/02/22-rdf-syntax-ns#"
   xmlns:cc="http://creativecommons.org/ns#"
   xmlns:dc="http://purl.org/dc/elements/1.1/">
  <defs
     id="defs4">
    <linearGradient
       id="linearGradient3214">
      <stop
         style="stop-color:#c6c600;stop-opacity:1;"
         offset="0"
         id="stop3216" />
      <stop
         style="stop-color:#ffff00;stop-opacity:1;"
         offset="1"
         id="stop3218" />
    </linearGradient>
    <linearGradient
       id="linearGradient3202">
      <stop
         style="stop-color:#ff0000;stop-opacity:1;"
         offset="0"
         id="stop3204" />
      <stop
         style="stop-color:#bd0000;stop-opacity:1;"
         offset="1"
         id="stop3206" />
    </linearGradient>
    <linearGradient
       id="linearGradient3194">
      <stop
         style="stop-color:#dedede;stop-opacity:1;"
         offset="0"
         id="stop3196" />
      <stop
         style="stop-color:#989898;stop-opacity:1;"
         offset="1"
         id="stop3198" />
    </linearGradient>
    <inkscape:perspective
       sodipodi:type="inkscape:persp3d"
       inkscape:vp_x="0 : 556.18109 : 1"
       inkscape:vp_y="0 : 1000 : 0"
       inkscape:vp_z="744.09448 : 556.18109 : 1"
       inkscape:persp3d-origin="372.04724 : 380.78739 : 1"
       id="perspective10" />
    <linearGradient
       inkscape:collect="always"
       xlink:href="#linearGradient3202"
       id="linearGradient3208"
       x1="42.241379"
       y1="32.741379"
       x2="115.51724"
       y2="62.051723"
       gradientUnits="userSpaceOnUse"
       gradientTransform="translate(-32.758621,-3.8793108)" />
  </defs>
  <sodipodi:namedview
     id="base"
     pagecolor="#ffffff"
     bordercolor="#666666"
     borderopacity="1.0"
     gridtolerance="10000"
     guidetolerance="10"
     objecttolerance="10"
     inkscape:pageopacity="0.0"
     inkscape:pageshadow="2"
     inkscape:zoom="2.8410986"
     inkscape:cx="17.422838"
     inkscape:cy="64.939668"
     inkscape:document-units="px"
     inkscape:current-layer="layer1"
     showgrid="false"
     inkscape:window-width="1366"
     inkscape:window-height="715"
     inkscape:window-x="144"
     inkscape:window-y="892"
     inkscape:showpageshadow="2"
     inkscape:pagecheckerboard="0"
     inkscape:deskcolor="#d1d1d1"
     inkscape:window-maximized="1" />
  <metadata
     id="metadata7">
    <rdf:RDF>
      <cc:Work
         rdf:about="">
        <dc:format>image/svg+xml</dc:format>
        <dc:type
           rdf:resource="http://purl.org/dc/dcmitype/StillImage" />
      </cc:Work>
    </rdf:RDF>
  </metadata>
  <g
     inkscape:label="Layer 1"
     inkscape:groupmode="layer"
     id="layer1">
    <g
       stroke-width="2"
       fill="none"
       stroke-linecap="butt"
       id="g9"
       transform="matrix(1.6163586,0,0,1.6089825,-1.3806358,-2.6600091)">
      <path
         stroke="#737373"
         vector-effect="non-scaling-stroke"
         d="m 9.67,48.65 c -1.7815313,1.049683 -1.9430576,2.670184 0.7,0.93"
         id="path1" />
      <path
         stroke="#1a1a1a"
         vector-effect="non-scaling-stroke"
         d="m 10.37,49.58 c 2.774699,1.3475 4.484397,4.316163 7.345921,5.672257 9.179642,5.971683 22.131058,5.605102 30.597702,-1.511102 C 49.056118,53.139432 49.765788,52.497319 50.44,51.82"
         id="path2" />
      <path
         stroke="#737373"
         vector-effect="non-scaling-stroke"
         d="m 50.44,51.82 c 3.216257,-1.04412 6.098265,-3.753044 5.93,-7.37"
         id="path3" />
      <path
         stroke="#1a1a1a"
         vector-effect="non-scaling-stroke"
         d="M 56.37,44.45 C 60.399559,35.578252 59.619722,24.555012 53.583494,16.76319 46.737457,7.3448634 33.440271,2.8517169 22.502147,7.3620706 12.275682,11.401934 4.6729364,21.869588 5.016022,33.010188 4.9556181,37.734848 6.7913161,42.139961 8.7706641,46.329336 9.0872172,47.096248 9.387409,47.869929 9.67,48.65"
         id="path4" />
      <path
         stroke="#5a5a5a"
         vector-effect="non-scaling-stroke"
         d="m 56.37,44.45 c -0.208628,-1.555495 -2.214787,-5.314698 -3.22,-4.64 1.056859,2.804524 1.227654,6.954326 -2.424365,7.854873 -5.586527,2.993006 -12.970424,2.949148 -18.147156,-0.851035 -1.869857,-1.765753 -2.29944,-6.569769 0.548026,-7.388986 2.094209,-0.453751 4.148533,-1.214019 6.268495,-1.469852 1.736565,1.364901 3.163739,3.121472 4.775,4.645 2.272092,-0.293938 2.755346,-4.041665 3.679659,-6.052164 C 49.056995,32.505278 49.290749,28.225252 50.79,24.26 50.615015,23.053065 49.001296,22.639359 48.16461,21.808518 46.969465,21.205991 45.928293,19.410031 44.457031,20.291367 41.331342,21.196457 36.644354,22.932295 33.97,21.45 33.729103,18.099808 38.53994,16.012833 37.072187,13.112812 35.868997,11.074291 32.118464,7.4125509 30.53,8.22 c 3.335877,1.5893681 2.408887,5.794755 1.82584,8.67292 -1.16158,6.074558 -4.209873,11.679593 -8.35834,16.22958 2.252935,1.118763 4.605463,-4.863116 6.1775,-0.65875 1.388081,2.813877 -0.659226,5.79543 -0.722891,8.71832 -0.697554,3.600395 -0.835357,8.056233 3.378445,9.453553 C 38.198469,53.471899 44.706604,53.355299 50.44,51.82"
         id="path5" />
      <path
         stroke="#5a5a5a"
         vector-effect="non-scaling-stroke"
         d="m 10.37,49.58 c 3.41004,-2.036185 6.2255,-4.936777 8.46125,-8.193125 1.119893,0.12777 1.38781,1.882103 2.102862,2.735548 0.955507,1.364567 1.412363,3.164368 2.814476,4.139129 C 26.450282,47.306385 26.778489,42.256249 25.1625,39.9475 23.728321,39.247407 22.030746,39.163524 20.64,38.39 c 0.02697,-3.608451 0.957031,-7.496397 3.7075,-10.05875 1.249475,-1.377517 3.943377,-4.135165 0.55871,-3.998534 C 22.343618,24.585727 22.778087,21.547766 23.98,20.12 25.032338,16.981164 20.136754,16.126608 18.890312,13.668672 17.995041,12.01588 16.163551,11.858041 17.61875,13.92 18.842293,16.565889 21.173035,18.746006 20.33,21.935342 20.3222,29.205874 20.25712,37.099244 15.716797,43.200391 14.114994,45.417872 12.027326,47.268311 9.67,48.65"
         id="path6" />
      <path
         stroke="#5a5a5a"
         vector-effect="non-scaling-stroke"
         d="m 16.38,25.71 c -1.08878,-0.960384 -1.745652,-5.657049 -3.24,-4.27 0.671419,3.723258 -3.3146477,6.254618 -3.423986,9.56585 0.851329,2.201383 1.702657,4.402767 2.553986,6.60415 2.321467,3.157892 4.053312,-0.771901 4.261812,-2.930501 C 17.257295,31.66176 18.112002,28.668451 18.754375,25.635 18.283737,24.668178 17.004159,26.727008 16.38,25.71 Z"
         id="path7" />
      <path
         stroke="#5a5a5a"
         vector-effect="non-scaling-stroke"
         d="m 45.45,29.61 c -1.38449,1.384299 -2.947773,2.613911 -4.2175,4.0975 0.01159,1.677657 -0.312298,3.588471 0.778323,5.020493 3.897344,0.687736 4.194807,-4.867406 5.238827,-7.689757 0.692623,-2.745039 0.531034,-6.495445 -2.251974,-7.990365 C 40.973207,23.476387 36.97491,24.322902 32.96,24.91 c -0.982768,0.693088 -3.204347,2.59234 -2.09,3.63 3.721771,0.580295 6.263915,-3.614146 9.504955,-3.06252 1.711745,1.22016 3.580846,2.269671 5.193891,3.596867 l 0.02258,0.286021 z"
         id="path8" />
      <path
         stroke="#5a5a5a"
         vector-effect="non-scaling-stroke"
         d="m 33.7,33.76 c 2.163693,0.511821 4.402925,-4.305449 1.335513,-2.559472 C 33.882849,31.584909 30.543211,32.651302 33.7,33.76 Z"
         id="path9" />
    </g>
    <path
       fill="#333333"
       d="M 100.256,49.79282 C 101.66915,83.841496 62.302199,110.02561 31.241904,95.696125 -0.899968,83.965886 -10.136757,37.741315 15.04891,14.659952 36.402277,-8.4018488 77.727157,-2.8563129 92.989607,23.977095 97.725527,31.705175 100.26866,40.74032 100.256,49.79282 Z M 14.249552,75.616989 c -3.671934,1.929042 -1.329893,3.743717 1.057688,1.5346 4.27516,1.717717 6.752336,6.445615 11.019583,8.494316 14.74376,10.065666 35.953672,9.900263 49.939671,-1.483207 2.911498,-3.356338 7.232917,-4.432136 10.418339,-7.42552 3.517341,-3.629735 2.820178,-8.97204 5.037042,-13.280348 C 96.870279,47.995072 92.377757,29.934536 80.363269,18.828358 68.026059,6.6800554 47.99849,2.5209565 32.263342,10.372933 17.120897,17.556449 6.2091735,33.538439 6.7270547,50.452809 c -0.097627,7.601895 2.8695111,14.68964 6.0688483,21.430278 0.511663,1.233946 0.99688,2.478784 1.453649,3.733902 z"
       id="path10"
       style="stroke-width:1.61266" />
    <path
       fill="#000000"
       d="m 89.733499,68.859262 c -0.337217,-2.502756 -3.579889,-8.551259 -5.204675,-7.465678 1.708264,4.512424 1.98433,11.189396 -3.918643,12.638348 -9.02983,4.8157 -20.964856,4.745131 -29.332312,-1.369292 -3.022359,-2.841078 -3.716719,-10.570645 0.885808,-11.888755 3.384992,-0.730076 6.705516,-1.953337 10.132136,-2.364964 2.80691,2.196101 5.113736,5.02239 7.718111,7.473724 3.672516,-0.472945 4.453628,-6.50296 5.947649,-9.737819 1.951487,-6.504408 2.329318,-13.390899 4.752645,-19.770919 -0.282838,-1.941938 -2.891186,-2.607583 -4.243572,-3.944393 -1.931782,-0.969455 -3.61469,-3.859123 -5.992777,-2.441069 -5.052234,1.456275 -12.628088,4.249208 -16.950803,1.86422 -0.389376,-5.3904 7.386663,-8.748306 5.014249,-13.414387 -1.944788,-3.279947 -8.006995,-9.1716222 -10.574522,-7.872451 5.391973,2.557265 3.893625,9.32366 2.951212,13.954576 -1.87753,9.773858 -6.804665,18.792261 -13.510075,26.11311 3.641551,1.800066 7.44408,-7.824667 9.985055,-1.059916 2.243638,4.527483 -1.065545,9.324744 -1.168451,14.027623 -1.127497,5.792964 -1.350236,12.962334 5.46078,15.210597 8.703827,4.55799 19.16655,4.383142 28.463179,1.905646 C 68.521804,92.786345 49.391748,96.315438 34.035015,89.710646 27.665884,87.161985 22.061746,83.000433 17.381247,78.045539 c -4.24325,-1.537496 4.124741,-3.962216 5.350147,-6.575702 2.812028,-1.9674 4.331973,-6.286102 7.101876,-7.514946 2.10164,3.269822 3.922674,6.726013 5.913852,10.069206 5.055202,2.829717 5.258978,-6.37495 4.849382,-9.843209 -0.388079,-3.505811 -4.34124,-3.333345 -6.895933,-4.345668 -4.088643,-1.798182 -0.173075,-8.792236 0.694618,-12.150424 1.026686,-3.630911 8.541665,-7.759772 6.699603,-10.768714 -1.703921,-0.638113 -4.293485,-0.101977 -5.283016,-1.732822 -0.315912,-3.906435 4.804739,-8.514654 -1.001639,-10.681758 -3.251257,-1.587887 -5.797948,-6.996132 -8.696512,-7.129678 0.948525,4.187129 4.892109,7.196106 5.370351,11.345761 -0.111177,12.643763 0.698275,26.453211 -6.9183,37.363834 -2.563643,3.51648 -6.921096,8.504646 -10.512045,9.002531 C 11.263346,67.768759 7.0645183,60.785646 6.8333425,52.74585 5.4990805,37.199268 13.908836,21.813362 26.919913,13.413033 40.462847,3.9630713 59.47499,4.2199438 73.172646,13.210285 c 14.668457,8.952799 23.189992,26.946681 20.044165,43.895473 -0.662362,4.042827 -1.865133,7.990111 -3.483312,11.753504 z M 25.095319,38.706931 c -1.75986,-1.545241 -2.8216,-9.102093 -5.237002,-6.870355 1.085254,5.990656 -5.357661,10.06357 -5.53439,15.391285 1.376053,3.541982 2.752105,7.08398 4.128157,10.625961 3.752323,5.08099 6.551606,-1.241974 6.888617,-4.715122 1.172641,-4.855491 2.554154,-9.671673 3.592458,-14.552442 -0.760719,-1.555601 -2.828976,1.757021 -3.83784,0.120672 z"
       id="path11"
       style="stroke-width:1.61266" />
    <path
       fill="#b3b3b3"
       d="m 89.733499,68.859262 c 0.323964,7.442591 -7.135007,12.132453 -13.802218,12.822175 -10.103108,1.756929 -21.851103,0.79421 -29.451538,-6.804579 -1.760195,-4.75884 -0.319309,-10.105649 0.377823,-15.014817 1.277095,-4.457605 2.80362,-10.661423 -2.39019,-13.218804 -0.80584,2.636221 -10.398051,6.863453 -5.210357,1.81432 7.67635,-9.07096 12.604463,-20.836435 12.507503,-32.769274 1.000034,-2.594882 -7.472946,-7.294777 -1.612108,-4.997258 4.092594,2.492424 12.679415,8.479589 7.081165,13.12779 -2.05659,2.563978 -6.964054,10.981754 0.339687,8.856128 5.500989,0.922271 11.246139,-4.079669 16.087122,-2.270748 2.325977,1.816811 4.974047,3.300493 7.09424,5.330141 -1.679566,5.479308 -2.763332,11.162107 -3.850246,16.806449 -0.996849,4.615768 -2.729803,9.069448 -5.177117,13.116603 -2.139334,1.253058 -3.454251,-2.05694 -5.091831,-3.168811 -1.725472,-1.321731 -2.872796,-3.890889 -5.155884,-4.071611 -3.561375,0.90103 -7.122754,1.80206 -10.68413,2.70309 -3.976949,4.541643 -1.364299,12.775403 4.786001,14.050119 9.355259,4.092334 20.8975,2.590381 28.900555,-3.647917 2.990698,-2.706405 -0.7886,-9.23807 0.628738,-10.51483 2.412707,1.981752 3.914856,4.8571 4.622785,7.851834 z M 72.082864,44.981963 c -2.237832,2.227314 -4.764659,4.205734 -6.816993,6.592805 0.01873,2.699326 -0.504785,5.773786 1.258049,8.07788 6.299505,1.106562 6.780313,-7.831561 8.467823,-12.372673 1.119527,-4.416725 0.858341,-10.451064 -3.639997,-12.856363 -6.504985,0.689475 -12.967667,2.051503 -19.457202,2.996133 -1.588506,1.115166 -5.179374,4.17103 -3.37819,5.840606 6.015717,0.933677 10.124734,-5.815097 15.363417,-4.92754 2.766794,1.963215 5.787931,3.65186 8.395191,5.787301 l 0.03649,0.4602 z M 53.090649,51.65924 c 3.497305,0.823509 7.116707,-6.927393 2.158668,-4.118143 -1.863118,0.618461 -7.26117,2.334264 -2.158668,4.118143 z"
       id="path12"
       style="stroke-width:1.61266" />
    <path
       fill="#b3b3b3"
       d="m 15.381002,77.113343 c -1.616154,1.522242 -4.934101,1.58768 -1.968926,-0.961367 10.822173,-5.72706 16.900485,-17.679837 17.607197,-29.566051 0.418856,-6.53528 0.629602,-13.12153 0.331353,-19.652723 -1.769956,-2.998789 -4.974135,-6.861866 -4.929893,-9.899266 3.733338,2.698875 6.706347,6.806788 10.809458,9.300441 2.479624,2.871784 -4.818107,8.665525 0.466468,9.930321 1.42234,0.532336 5.872579,0.139869 3.484459,2.569444 -3.687933,4.800909 -8.544286,9.296262 -8.804862,15.778836 -1.681855,3.592182 0.348594,5.606193 3.739928,5.930612 3.381151,0.21562 5.288307,3.331962 4.672358,6.597924 0.421404,3.506857 -2.560116,11.218984 -5.745603,5.664567 -1.758034,-2.936136 -3.340538,-5.988842 -5.209669,-8.85119 -2.769903,1.228844 -4.289848,5.547546 -7.101876,7.514946 -2.232242,2.142343 -4.707057,4.031161 -7.350392,5.643506 z"
       id="path13"
       style="stroke-width:1.61266" />
    <path
       fill="#b3b3b3"
       d="m 26.453059,39.012637 c 2.56653,-2.043045 2.713916,0.695028 1.772308,2.710584 -1.328906,5.258868 -2.657813,10.517747 -3.986719,15.776625 -2.961217,5.406584 -6.633907,-0.196199 -7.314192,-3.578167 -0.934737,-2.406041 -1.869475,-4.812065 -2.804213,-7.218105 1.473085,-5.208966 6.607213,-9.568196 5.895668,-15.526681 3.570712,-0.01305 2.773434,7.814918 6.437148,7.835744 z"
       id="path14"
       style="stroke-width:1.61266" />
    <path
       fill="#000000"
       d="m 71.985882,43.759136 c -2.780137,-1.861058 -5.560274,-3.722113 -8.34041,-5.583169 -5.27394,-0.47918 -9.950938,6.877772 -15.917228,4.634948 0.58669,-2.230869 2.448722,-4.78032 4.751157,-5.485698 6.294536,-0.913488 12.56229,-2.243659 18.872345,-2.901605 4.739759,2.574169 4.739111,8.95176 3.487056,13.543287 -1.70102,4.319893 -2.185555,12.945052 -8.314882,11.685749 -1.724073,-2.310257 -1.267125,-5.374724 -1.258049,-8.07788 2.096728,-2.545216 4.947389,-4.465087 7.045588,-6.994456 l -0.03649,-0.4602 z"
       id="path15"
       style="stroke-width:1.61266" />
    <path
       fill="#000000"
       d="m 57.923561,47.459795 c 0.635258,4.488515 -9.673742,5.43294 -5.451983,1.121446 1.76768,-0.519364 3.479852,-1.595741 5.286307,-1.748949 l 0.144454,0.233303 z"
       id="path16"
       style="stroke-width:1.61266" />
  </g>
</svg>
