<?xml version="1.0" encoding="UTF-8" standalone="no"?>
<!-- Created with Inkscape (http://www.inkscape.org/) -->

<svg
   width="100"
   height="100"
   id="svg2"
   sodipodi:version="0.32"
   inkscape:version="1.3 (0e150ed6c4, 2023-07-21)"
   version="1.0"
   sodipodi:docname="bk.svg"
   inkscape:output_extension="org.inkscape.output.svg.inkscape"
   xmlns:inkscape="http://www.inkscape.org/namespaces/inkscape"
   xmlns:sodipodi="http://sodipodi.sourceforge.net/DTD/sodipodi-0.dtd"
   xmlns:xlink="http://www.w3.org/1999/xlink"
   xmlns="http://www.w3.org/2000/svg"
   xmlns:svg="http://www.w3.org/2000/svg"
   xmlns:rdf="http://www.w3.org/1999/02/22-rdf-syntax-ns#"
   xmlns:cc="http://creativecommons.org/ns#"
   xmlns:dc="http://purl.org/dc/elements/1.1/">
  <defs
     id="defs4">
    <linearGradient
       id="linearGradient3214">
      <stop
         style="stop-color:#c6c600;stop-opacity:1;"
         offset="0"
         id="stop3216" />
      <stop
         style="stop-color:#ffff00;stop-opacity:1;"
         offset="1"
         id="stop3218" />
    </linearGradient>
    <linearGradient
       id="linearGradient3202">
      <stop
         style="stop-color:#ff0000;stop-opacity:1;"
         offset="0"
         id="stop3204" />
      <stop
         style="stop-color:#bd0000;stop-opacity:1;"
         offset="1"
         id="stop3206" />
    </linearGradient>
    <linearGradient
       id="linearGradient3194">
      <stop
         style="stop-color:#dedede;stop-opacity:1;"
         offset="0"
         id="stop3196" />
      <stop
         style="stop-color:#989898;stop-opacity:1;"
         offset="1"
         id="stop3198" />
    </linearGradient>
    <inkscape:perspective
       sodipodi:type="inkscape:persp3d"
       inkscape:vp_x="0 : 556.18109 : 1"
       inkscape:vp_y="0 : 1000 : 0"
       inkscape:vp_z="744.09448 : 556.18109 : 1"
       inkscape:persp3d-origin="372.04724 : 380.78739 : 1"
       id="perspective10" />
    <linearGradient
       inkscape:collect="always"
       xlink:href="#linearGradient3202"
       id="linearGradient3208"
       x1="42.241379"
       y1="32.741379"
       x2="115.51724"
       y2="62.051723"
       gradientUnits="userSpaceOnUse"
       gradientTransform="translate(-32.758621,-3.8793108)" />
  </defs>
  <sodipodi:namedview
     id="base"
     pagecolor="#ffffff"
     bordercolor="#666666"
     borderopacity="1.0"
     gridtolerance="10000"
     guidetolerance="10"
     objecttolerance="10"
     inkscape:pageopacity="0.0"
     inkscape:pageshadow="2"
     inkscape:zoom="2.32"
     inkscape:cx="52.155172"
     inkscape:cy="83.405172"
     inkscape:document-units="px"
     inkscape:current-layer="layer1"
     showgrid="false"
     inkscape:window-width="932"
     inkscape:window-height="995"
     inkscape:window-x="-1"
     inkscape:window-y="15"
     inkscape:showpageshadow="2"
     inkscape:pagecheckerboard="0"
     inkscape:deskcolor="#d1d1d1"
     inkscape:window-maximized="0" />
  <metadata
     id="metadata7">
    <rdf:RDF>
      <cc:Work
         rdf:about="">
        <dc:format>image/svg+xml</dc:format>
        <dc:type
           rdf:resource="http://purl.org/dc/dcmitype/StillImage" />
      </cc:Work>
    </rdf:RDF>
  </metadata>
  <g
     inkscape:label="Layer 1"
     inkscape:groupmode="layer"
     id="layer1">
    <g
       stroke-width="2"
       fill="none"
       stroke-linecap="butt"
       id="g7"
       transform="matrix(1.6080332,0,0,1.5924316,-1.6601448,-1.2471862)"
       style="display:inline">
      <path
         stroke="#985a5a"
         vector-effect="non-scaling-stroke"
         d="m 10.92,48.71 c -2.8697067,0.710374 -1.4423279,1.32893 0.457498,0.717113 l 0.1725,-0.02754 0.06,-0.0096"
         id="path1"
         style="display:inline" />
      <path
         stroke="#690000"
         vector-effect="non-scaling-stroke"
         d="m 11.61,49.39 c 4.952529,6.114843 12.682268,10.007155 20.619424,9.600459 8.983807,-0.0022 17.538715,-4.994929 22.41709,-12.462647 C 60.339615,38.395963 60.33288,27.06367 55.18501,18.675114 49.924366,9.4514961 38.901909,3.6251206 28.300197,5.5249049 17.627806,7.1256747 8.1551209,15.385747 5.7441926,25.999747 3.7877771,33.85841 5.8700862,42.424835 10.92,48.71"
         id="path2"
         style="display:inline" />
      <path
         stroke="#aa5a5a"
         vector-effect="non-scaling-stroke"
         d="m 11.61,49.39 c 4.491838,-2.052875 6.721625,-6.639557 8.777972,-10.830748 1.732055,-2.020274 3.030974,2.279848 1.895973,3.675396 C 21.817414,45.21863 21.822832,48.265603 22.19,51.26 c 1.723262,1.844362 1.542441,-1.621447 1.61834,-2.83045 0.17722,-3.123183 0.35444,-6.246367 0.53166,-9.36955 0.573726,-1.405782 2.457278,-1.028891 3.703592,-1.474139 2.112971,-0.335392 4.211818,-0.994526 6.333908,-1.120861 1.112057,2.315399 1.741154,4.888027 2.6625,7.305 2.262967,0.05724 2.381636,-4.878421 2.604844,-7.015625 -0.736301,-2.156452 1.553439,-1.53671 2.785676,-1.573538 1.725636,-0.241924 1.102051,1.809567 1.138853,2.853816 -0.169655,3.643914 -0.22199,7.300968 -0.465623,10.936597 C 40.273604,50.456637 38.826931,46.299781 37.3,44.62 c -1.357736,0.120548 0.663494,4.181897 1.505508,5.444014 1.365455,1.635428 3.661179,4.838779 5.794492,3.655986 1.359521,-3.464616 1.594716,-7.17217 1.64583,-10.851748 0.199617,-2.984058 0.107737,-6.023423 0.47667,-8.973252 2.919124,-0.723758 5.98869,-0.93457 8.945,-1.55375 -0.919487,-2.992209 -5.107805,-1.719351 -7.468906,-1.185156 -2.563819,0.343192 -1.539952,-2.23162 -1.248299,-3.66004 -0.14651,-1.340075 -1.641476,-2.065476 -2.426599,-3.106145 -1.836388,-1.054184 -0.804261,1.681077 -0.42237,2.62414 0.848956,2.75268 -1.828905,5.46702 -4.247068,6.393959 C 38.023792,34.532686 36.296692,33.27539 34.68,32.47 33.24885,32.192731 34.442704,35.566194 32.471104,34.593155 31.757403,34.472104 31.043701,34.351052 30.33,34.23"
         id="path3"
         style="display:inline" />
      <path
         stroke="#aa5a5a"
         vector-effect="non-scaling-stroke"
         d="m 30.33,34.23 c 6.616798,-3.812743 12.36137,-9.103619 16.75,-15.35 0.575455,-0.743856 3.469809,-1.867141 1.262071,-2.339242 C 46.141333,15.922151 43.832733,15.554048 41.7,14.7775 c 1.521382,-2.264165 -0.34836,-4.627796 -2.375937,-5.946875 -2.49611,-1.6709225 1.103903,2.771208 -0.818907,3.73832 -2.150582,4.626117 -5.862591,8.260434 -9.672656,11.527305 -0.952181,2.639824 1.345294,2.076483 2.603919,0.947912 1.963592,-1.699011 3.825859,1.986476 2.957514,3.692706 -1.417034,2.550958 -4.365236,3.759172 -6.844089,5.063132 -3.160302,1.75966 1.992204,1.070267 2.780156,0.43 z"
         id="path4"
         style="display:inline" />
      <path
         stroke="#aa5a5a"
         vector-effect="non-scaling-stroke"
         d="m 30.33,34.23 c -1.438185,1.050932 -4.757301,4.008156 -5.788916,2.382528 C 24.828197,30.07725 23.962146,23.115269 27.03,17.08 c -1.210111,-2.502735 -4.256812,-4.462496 -6.1175,-6.7725 -1.479616,1.072454 2.274206,3.598491 2.037344,5.65125 0.769228,3.039766 -0.236345,6.242346 -1.939844,8.78125 -3.42698,1.437507 -1.260025,-4.215129 -3.505,-5.71375 -0.845071,-1.807312 -2.977068,-1.304057 -1.446558,0.521172 1.710939,3.50338 -0.08234,7.377656 0.409928,11.011293 1.124511,0.918697 2.383972,-0.634457 3.533882,-0.98328 1.195828,-1.073418 2.983532,-0.847208 2.526299,1.037321 0.496152,1.992129 -1.01367,3.325293 -2.899762,3.671267 -1.969507,1.015174 -3.8816,0.102676 -5.258789,-0.644023 -1.546667,1.636667 -3.093333,3.273333 -4.64,4.91 0.1228085,1.462079 2.248625,0.113444 3.330707,0.113951 1.553735,-0.225364 3.119138,-0.925552 4.664838,-0.823897 0.122741,2.589854 -1.254705,5.187206 -2.789764,7.254067 C 13.815387,46.516976 12.431115,47.718235 10.92,48.71"
         id="path5"
         style="display:inline" />
      <path
         stroke="#aa5a5a"
         vector-effect="non-scaling-stroke"
         d="m 42.29,17.83 c -1.583264,-1.171557 -5.188289,1.679711 -2.575364,2.967522 1.332127,1.493428 3.022063,0.154194 3.280225,-1.507017 C 43.136124,18.673222 42.652621,18.243499 42.29,17.83 Z"
         id="path6"
         style="display:inline" />
      <path
         stroke="#aa5a5a"
         vector-effect="non-scaling-stroke"
         d="m 38.93,24.44 c 0.04589,-3.499285 -6.014855,-1.512172 -3.397142,1.407142 L 36.94,26.43 v 0 l 1.407142,-0.582858 z"
         id="path7"
         style="display:inline" />
    </g>
    <path
       fill="#570000"
       d="M 99.452983,49.917643 C 100.85886,83.616076 61.694676,109.53084 30.794364,95.348762 -1.1819532,83.739186 -10.371165,37.990107 14.684778,15.146165 c 21.24338,-22.8245781 62.355407,-17.3360867 77.539244,9.22131 4.711527,7.648576 7.241568,16.59078 7.228961,25.550168 z M 15.899578,76.320159 c -3.970396,0.823605 -2.994466,2.254565 0.180901,1.229644 2.917928,0.487444 4.578315,4.715525 7.411142,6.203127 15.663153,13.200509 41.019813,11.416381 55.55742,-2.595171 C 90.201302,71.27508 95.838835,55.419366 92.125539,40.902154 87.897878,22.110299 70.056931,6.7340816 50.310599,7.0281075 31.384052,7.0096039 13.088551,20.142483 8.0559986,38.355729 4.1569957,51.33669 7.3606848,65.818471 15.899578,76.320159 Z"
       id="path8"
       style="display:inline;fill:#333333;stroke-width:1.60021" />
    <path
       fill="#7b0000"
       d="m 17.00912,77.403013 c 7.223025,-3.269071 10.808596,-10.573046 14.11527,-17.247229 2.785203,-3.217142 4.873908,3.630505 3.048788,5.852822 -0.750197,4.751785 -0.741485,9.603876 -0.151058,14.372254 2.771062,2.937018 2.480296,-2.582048 2.602344,-4.507298 0.284976,-4.973451 0.569951,-9.946918 0.854927,-14.920368 0.92257,-2.238609 3.951384,-1.638438 5.955499,-2.347467 3.397728,-0.534086 6.772743,-1.583705 10.185134,-1.784893 1.788225,3.687116 2.799833,7.783854 4.281389,11.632713 3.638927,0.09109 3.829749,-7.768551 4.188675,-11.171912 -1.183996,-3.433998 2.497983,-2.447105 4.47946,-2.505738 2.77488,-0.385257 1.772135,2.881601 1.831314,4.544497 -0.272811,5.802694 -0.356968,11.626295 -0.748738,17.415788 -4.550969,2.365382 -6.877267,-4.254133 -9.332623,-6.929068 -2.183284,0.191967 1.06692,6.65939 2.420907,8.669214 2.195698,2.60431 5.887298,7.705425 9.317736,5.821914 2.186155,-5.517171 2.564356,-11.42119 2.646549,-17.280671 0.320991,-4.75191 0.173245,-9.591884 0.766502,-14.289286 4.694048,-1.152539 9.630012,-1.48824 14.383857,-2.474241 -1.478566,-4.76489 -8.21352,-2.737947 -12.010249,-1.887287 -4.122707,0.546523 -2.476294,-3.553702 -2.007307,-5.828363 -0.235593,-2.13397 -2.639548,-3.28912 -3.902051,-4.946316 -2.952973,-1.678709 -1.293279,2.677005 -0.679186,4.178764 1.365149,4.383454 -2.940939,8.705855 -6.829426,10.181944 -2.94345,1.790977 -5.720684,-0.211188 -8.320378,-1.493717 -2.301337,-0.441533 -0.381581,4.930472 -3.551978,3.380987 -2.572703,-0.274853 -4.635731,-0.603244 -0.962313,-2.057899 9.60666,-5.918209 17.947038,-13.80479 24.453902,-22.964233 0.92535,-1.184547 5.579568,-2.973293 2.029453,-3.72508 -3.538861,-0.985095 -7.251165,-1.571269 -10.680672,-2.807872 2.446433,-3.60552 -0.560174,-7.369455 -3.820586,-9.469984 -4.013826,-2.660841 1.775113,4.412947 -1.316829,5.95302 -3.458207,7.366763 -9.42724,13.154169 -15.553952,18.356437 -1.531139,4.203733 2.163277,3.306652 4.187189,1.509481 3.157521,-2.705557 6.152108,3.163335 4.75578,5.880389 -2.278638,4.062229 -7.019445,5.986221 -11.005523,8.062689 -5.125182,2.939246 4.808525,1.049746 4.001741,1.092121 -2.127964,1.398872 -8.322027,6.752914 -8.824038,2.804526 0.413956,-10.215193 -0.866201,-21.098333 3.986364,-30.522105 -1.945899,-3.985441 -6.845095,-7.106226 -9.837144,-10.784743 -2.379272,1.707804 3.656999,5.730349 3.276117,8.999229 1.236945,4.840626 -0.380051,9.940516 -3.119333,13.983541 -5.510698,2.289137 -2.026162,-6.712307 -5.636156,-9.098757 -1.358904,-2.878017 -4.787225,-2.076626 -2.326115,0.829928 2.751248,5.578893 -0.132404,11.74842 0.659179,17.534727 1.80825,1.462966 3.833505,-1.010318 5.682599,-1.565806 1.922931,-1.709332 4.797619,-1.349108 4.062373,1.651877 0.797829,3.17233 -1.630015,5.295296 -4.662913,5.84623 -3.167033,1.616605 -6.241742,0.163511 -8.456308,-1.025558 -2.487092,2.606285 -4.974182,5.212555 -7.461274,7.81884 0.197479,2.328263 3.615863,0.180646 5.355887,0.181457 2.498458,-0.35887 5.015677,-1.473875 7.501215,-1.312004 0.197371,4.124175 -2.017607,8.260277 -4.486034,11.55161 -2.507954,2.868034 -6.981977,8.500687 -8.953507,2.301558 C 4.2103319,59.376145 4.114911,40.596981 13.257344,27.062538 24.406054,9.6352364 49.12377,1.629669 68.054404,11.02863 86.676146,19.678911 97.822875,42.365568 91.442826,62.046064 86.025853,79.254199 69.127515,92.498373 50.755888,92.673588 37.712334,93.474135 25.169743,87.344277 17.00912,77.403013 Z"
       id="path9"
       style="display:inline;fill:#000000;stroke-width:1.60021" />
    <path
       fill="#d8b3b3"
       d="m 47.111502,53.261749 c -2.187513,1.776326 -9.239464,1.105817 -3.791505,-0.994283 3.834664,-2.158621 8.801271,-4.005156 10.519522,-8.352702 0.934971,-3.012578 -2.339491,-8.028626 -5.359325,-5.046049 -2.270344,2.557986 -5.832522,1.029252 -3.234011,-2.375271 6.645549,-5.348118 12.926277,-11.856258 15.846162,-19.966116 0.03647,-2.317592 -2.826248,-6.6474454 1.321603,-3.088313 4.022798,2.034586 3.930893,6.225484 3.415061,9.120652 3.875022,1.073888 7.946869,1.732757 11.698826,3.066132 -0.98831,2.050876 -4.288738,2.961684 -5.209648,5.531884 -6.799861,8.940883 -15.415762,16.508946 -25.206685,22.104066 z M 66.34358,27.14587 c -2.545943,-1.865629 -8.342942,2.674824 -4.141272,4.725572 1.972299,2.200566 4.705651,0.572097 5.154333,-2.002514 0.52492,-1.077806 -0.312378,-1.998979 -1.013061,-2.723058 z m -5.402993,10.525974 c 0.07379,-5.572381 -9.672086,-2.408029 -5.462717,2.240773 1.820904,2.037565 5.630029,0.47507 5.462717,-2.240773 z"
       id="path10"
       style="display:inline;fill:#b3b3b3;stroke-width:1.60021" />
    <path
       fill="#d8b3b3"
       d="m 47.111502,53.261749 c 1.768008,-0.04172 4.191425,1.489178 5.451233,0.127395 -0.09518,-2.121391 0.981037,-4.029553 3.048689,-2.178781 2.984642,2.246443 6.913078,1.387183 9.722422,-0.821647 2.936693,-2.218449 5.47363,-6.239498 3.526235,-9.81551 -1.670768,-2.321049 0.236069,-4.810799 2.040854,-2.001575 1.220866,1.482968 3.726412,2.734842 2.720476,4.982208 -1.837844,3.472633 1.060772,6.204513 4.82557,4.409284 2.61024,-1.902748 9.966695,-0.619869 8.977913,2.416325 -4.635107,0.834688 -9.399997,1.253036 -13.953708,2.348837 -0.881667,8.165368 -0.425828,16.53186 -1.486158,24.710924 -0.485361,3.970442 -2.44887,10.571627 -6.874359,5.622095 -4.249385,-3.246124 -7.390332,-8.422529 -7.587152,-13.723958 3.459496,2.182539 4.275468,8.695506 9.549707,7.940263 1.312894,-1.337228 0.497711,-3.690206 0.842211,-5.468601 0.148389,-5.423106 0.5475,-10.862295 0.537897,-16.275273 -1.227538,-1.449718 -3.559856,-0.488781 -5.277306,-0.818287 -2.570972,2.38704 -0.397962,8.80121 -3.051766,12.264096 -1.350806,4.311382 -3.064716,-0.188942 -3.507956,-2.206601 -1.055817,-2.620601 -1.632502,-5.493937 -2.996287,-7.952109 -4.650657,0.443571 -9.26402,1.733664 -13.900023,2.509831 -2.841364,0.05892 -2.246221,3.269246 -2.447486,5.232954 -0.300889,5.251187 -0.60178,10.502357 -0.902668,15.753544 -3.273518,3.036575 -2.601573,-4.436451 -2.776622,-6.734251 -1.328225,-4.645281 4.297221,-12.198138 -1.633409,-14.548598 -3.570519,5.448281 -5.666108,12.297075 -11.378733,16.156238 -2.154325,1.910759 -5.007687,2.811359 -7.833244,2.718058 3.445759,-1.912973 7.201927,-3.919723 9.609254,-7.346493 2.468427,-3.291333 4.683405,-7.427435 4.486034,-11.55161 -2.671839,-0.124369 -5.375565,1.036291 -8.060347,1.433428 -1.529833,0.170071 -5.767544,2.009011 -4.410891,-0.707232 2.358469,-2.471501 4.71694,-4.942987 7.07541,-7.414489 2.400714,1.653757 6.233895,2.427869 9.584444,0.632928 3.27003,-0.531553 3.949211,-3.407597 3.529617,-6.184384 0.483789,-3.247174 -2.999304,-1.793635 -4.610281,-0.637657 -1.675606,0.755657 -5.19429,3.526281 -5.317712,0.03137 1.1e-5,-6.001795 2.349507,-12.636598 -1.433311,-18.047282 1.932875,-2.943547 5.663946,3.862904 5.49093,6.627127 -1.21867,4.125226 3.696197,5.491946 4.716043,1.250552 3.788273,-6.258129 2.533383,-14.524187 -2.424093,-19.789068 1.656979,-2.759684 4.837195,3.994901 7.04419,5.152758 2.963567,2.104797 5.082865,4.64103 2.287365,7.95582 -3.15545,9.107579 -2.105581,18.871208 -2.529575,28.326493 2.500814,1.169529 7.019183,-2.630776 9.326593,-4.379187 z"
       id="path11"
       style="display:inline;fill:#b3b3b3;stroke-width:1.60021" />
    <path
       fill="#7b0000"
       d="m 66.34358,27.14587 c 2.214221,1.600012 0.54193,4.709791 -1.156229,5.955232 -3.060514,0.158607 -6.661094,-4.286014 -2.488352,-5.645695 1.098062,-0.565663 2.549646,-1.586731 3.644581,-0.309537 z"
       id="path12"
       style="display:inline;fill:#000000;stroke-width:1.60021" />
    <ellipse
       fill="#7b0000"
       cx="57.740601"
       cy="37.671848"
       id="circle12"
       rx="3.199986"
       ry="3.1689391"
       style="display:inline;fill:#000000;stroke-width:1.60021" />
  </g>
</svg>
