<?xml version="1.0" encoding="UTF-8" standalone="no"?>
<!-- Created with Inkscape (http://www.inkscape.org/) -->

<svg
   width="100"
   height="100"
   id="svg2"
   sodipodi:version="0.32"
   inkscape:version="1.3 (0e150ed6c4, 2023-07-21)"
   version="1.0"
   sodipodi:docname="bn.svg"
   inkscape:output_extension="org.inkscape.output.svg.inkscape"
   xmlns:inkscape="http://www.inkscape.org/namespaces/inkscape"
   xmlns:sodipodi="http://sodipodi.sourceforge.net/DTD/sodipodi-0.dtd"
   xmlns:xlink="http://www.w3.org/1999/xlink"
   xmlns="http://www.w3.org/2000/svg"
   xmlns:svg="http://www.w3.org/2000/svg"
   xmlns:rdf="http://www.w3.org/1999/02/22-rdf-syntax-ns#"
   xmlns:cc="http://creativecommons.org/ns#"
   xmlns:dc="http://purl.org/dc/elements/1.1/">
  <defs
     id="defs4">
    <linearGradient
       id="linearGradient3214">
      <stop
         style="stop-color:#c6c600;stop-opacity:1;"
         offset="0"
         id="stop3216" />
      <stop
         style="stop-color:#ffff00;stop-opacity:1;"
         offset="1"
         id="stop3218" />
    </linearGradient>
    <linearGradient
       id="linearGradient3202">
      <stop
         style="stop-color:#ff0000;stop-opacity:1;"
         offset="0"
         id="stop3204" />
      <stop
         style="stop-color:#bd0000;stop-opacity:1;"
         offset="1"
         id="stop3206" />
    </linearGradient>
    <linearGradient
       id="linearGradient3194">
      <stop
         style="stop-color:#dedede;stop-opacity:1;"
         offset="0"
         id="stop3196" />
      <stop
         style="stop-color:#989898;stop-opacity:1;"
         offset="1"
         id="stop3198" />
    </linearGradient>
    <inkscape:perspective
       sodipodi:type="inkscape:persp3d"
       inkscape:vp_x="0 : 556.18109 : 1"
       inkscape:vp_y="0 : 1000 : 0"
       inkscape:vp_z="744.09448 : 556.18109 : 1"
       inkscape:persp3d-origin="372.04724 : 380.78739 : 1"
       id="perspective10" />
    <linearGradient
       inkscape:collect="always"
       xlink:href="#linearGradient3202"
       id="linearGradient3208"
       x1="42.241379"
       y1="32.741379"
       x2="115.51724"
       y2="62.051723"
       gradientUnits="userSpaceOnUse"
       gradientTransform="translate(-32.758621,-3.8793108)" />
  </defs>
  <sodipodi:namedview
     id="base"
     pagecolor="#ffffff"
     bordercolor="#666666"
     borderopacity="1.0"
     gridtolerance="10000"
     guidetolerance="10"
     objecttolerance="10"
     inkscape:pageopacity="0.0"
     inkscape:pageshadow="2"
     inkscape:zoom="4.0179202"
     inkscape:cx="37.45719"
     inkscape:cy="56.123564"
     inkscape:document-units="px"
     inkscape:current-layer="layer1"
     showgrid="false"
     inkscape:window-width="1366"
     inkscape:window-height="715"
     inkscape:window-x="144"
     inkscape:window-y="892"
     inkscape:showpageshadow="2"
     inkscape:pagecheckerboard="0"
     inkscape:deskcolor="#d1d1d1"
     inkscape:window-maximized="1" />
  <metadata
     id="metadata7">
    <rdf:RDF>
      <cc:Work
         rdf:about="">
        <dc:format>image/svg+xml</dc:format>
        <dc:type
           rdf:resource="http://purl.org/dc/dcmitype/StillImage" />
      </cc:Work>
    </rdf:RDF>
  </metadata>
  <g
     inkscape:label="Layer 1"
     inkscape:groupmode="layer"
     id="layer1">
    <g
       stroke-width="2"
       fill="none"
       stroke-linecap="butt"
       id="g7"
       transform="matrix(1.6093568,0,0,1.6157402,-3.1836605,-1.2997047)">
      <path
         stroke="#1a1a1a"
         vector-effect="non-scaling-stroke"
         d="M 59.87,31.6 C 60.13152,18.692065 49.807507,6.6953443 37.004766,5.0301157 19.149097,1.6121711 2.0055822,19.963804 6.803687,37.579137 10.232152,56.317473 35.389528,65.12042 49.753171,52.607812 56.085099,47.618729 59.917271,39.661143 59.87,31.6 Z"
         id="path1" />
      <path
         stroke="#5a5a5a"
         vector-effect="non-scaling-stroke"
         d="m 35.88,30.22 c -2.64039,-1.206146 0.236687,-3.063471 1.427481,-4.082597 1.062473,-1.048868 2.492643,-1.825697 3.307341,-3.05788 -1.364137,-0.293207 -7.551775,-0.02206 -4.405045,-2.834939 0.987039,-0.965131 2.373821,-1.609187 3.053213,-2.821422 -0.737663,-1.71583 -5.578323,0.913365 -3.780528,-2.717731 1.906382,-1.998165 3.949285,-3.899934 5.771314,-5.9576589 C 40.562971,7.9208776 39.175075,7.7317381 38.207732,7.1606493 36.41456,5.7163174 34.943124,7.0290421 33.571445,8.4177344 30.517907,10.741648 26.240983,10.522412 22.98,8.76 c -3.100711,0.9988912 1.770259,4.432695 3.784375,4.3625 3.428142,-0.979337 5.037487,2.824589 1.629041,3.838479 C 27.504275,17.678652 25.078863,17.978095 26.03,19.43 c 1.564204,1.005245 6.396857,-0.142586 4.18125,2.961406 -1.856869,2.276564 -5.665933,1.866768 -5.166875,-1.579531 C 24.788491,18.86916 20.822097,16.171421 20,17.5 c 3.227787,4.418061 4.63397,11.413144 0.360681,15.651123 -2.835414,1.473779 -0.433148,4.346895 1.894221,2.757949 6.230769,-1.636901 12.520928,-3.296507 18.943191,-3.921281 3.541376,-0.48317 6.996354,2.530835 6.173081,6.233171 C 46.990393,41.636696 45.414562,44.833414 43.36,47.55 c -2.497187,1.327946 -5.117598,-2.579755 -6.65,-2.26 1.386985,2.794113 4.254568,7.391852 7.560859,6.470742 2.202151,-2.021667 2.921371,-4.905973 3.804024,-7.638515 C 49.258796,40.477464 51.021441,37.023435 52.395,33.4825 50.652097,31.71348 48.490185,30.340792 46.58,28.73 c -3.372885,0.52105 -6.98664,2.214337 -10.7,1.49 z"
         id="path2" />
      <path
         stroke="#5a5a5a"
         vector-effect="non-scaling-stroke"
         d="m 16.72,36.89 c -0.980219,-1.882138 1.141168,-4.964032 0.15,-6.01 -2.559807,1.630601 -2.722744,5.475451 -3.015957,8.288838 0.02254,2.870298 0.647917,5.975421 2.293457,8.313662 1.544467,-2.78542 2.207244,-6.327506 1.8125,-9.52 -0.324471,-0.470441 -1.146092,-0.405193 -1.24,-1.0725 z"
         id="path3" />
      <path
         stroke="#5a5a5a"
         vector-effect="non-scaling-stroke"
         d="m 36.01,34.41 c 1.087006,3.256899 2.098266,6.55794 3.232353,9.787401 C 43.450662,42.468342 40.2883,33.094493 36.01,34.41 Z"
         id="path4" />
      <path
         stroke="#5a5a5a"
         vector-effect="non-scaling-stroke"
         d="m 30.79,35.68 c 0.351026,2.74312 0.605077,5.520679 1.015923,8.242556 C 34.342805,42.932078 33.455486,35.784815 30.79,35.68 Z"
         id="path5" />
      <path
         stroke="#5a5a5a"
         vector-effect="non-scaling-stroke"
         d="m 25.5584,44.2961 c 1.927966,-1.904138 1.729776,-6.443332 -0.3568,-8.1722 -1.918882,1.672697 -1.704108,6.671123 0.3568,8.1722 z"
         id="path6" />
      <path
         stroke="#5a5a5a"
         vector-effect="non-scaling-stroke"
         d="M 30.44,27.66 C 29.868906,25.851947 27.446656,27.013205 26.196725,27.504636 24.77139,30.334473 28.400172,33.395049 30.17,29.8375 30.528252,29.175977 30.581414,28.388215 30.44,27.66 Z"
         id="path7" />
    </g>
    <path
       fill="#333333"
       d="M 99.622053,49.757684 C 101.02908,83.949361 61.832665,110.24345 30.90692,95.85378 -1.0957184,84.074269 -10.292493,37.655562 14.784073,14.477259 36.04494,-8.6813994 77.190806,-3.1125732 92.38714,23.833532 c 4.7154,7.760538 7.24753,16.833633 7.234913,25.924152 z m -6.453522,0 C 93.58941,28.901815 76.974395,9.5182313 56.370219,6.8276555 27.634069,1.3051446 0.04403596,30.956615 7.7658998,59.418416 13.283523,89.694697 53.770717,103.91797 76.886942,83.700848 87.077277,75.639787 93.244606,62.782396 93.168531,49.757684 Z"
       id="path8"
       style="stroke-width:1.61254" />
    <path
       fill="#000000"
       d="M 93.168531,49.757684 C 94.499743,80.507532 58.180117,103.41918 31.162498,88.87319 2.989708,76.735463 -1.8129275,33.941829 22.963284,15.814518 44.367486,-2.9296165 80.874092,7.5810897 90.17928,33.896425 c 1.972042,5.037782 2.99173,10.448395 2.989251,15.861259 z M 54.560062,47.527962 c -4.24933,-1.948818 0.380914,-4.949772 2.297325,-6.596417 1.709893,-1.694697 4.011547,-2.949852 5.32269,-4.940739 -1.941609,-1.00373 -11.619559,0.612584 -7.523692,-4.222144 1.7274,-1.683618 4.118357,-2.832149 5.348115,-4.917065 -1.187159,-2.772335 -8.977512,1.475761 -6.084219,-4.391149 3.068042,-3.228513 6.355814,-6.301278 9.28811,-9.626026 -1.11176,-1.336046 -3.345369,-1.641647 -4.902181,-2.564379 -2.88585,-2.333665 -5.253916,-0.212642 -7.461437,2.031123 -4.914232,3.754841 -11.797328,3.400612 -17.045414,0.553013 -5.017294,1.399034 2.348855,6.728879 5.30327,6.907037 3.138756,-0.176143 9.925155,0.913385 5.640356,5.146384 -2.02779,1.087932 -4.055578,2.175863 -6.083368,3.263796 -1.762938,5.067785 11.434678,0.443942 6.777403,6.707593 -2.988364,3.678334 -9.118508,3.01621 -8.315345,-2.552112 -0.411809,-3.138925 -6.795151,-7.497768 -8.1182,-5.351129 5.194662,7.138438 7.457712,18.440673 0.580466,25.288148 -4.563194,2.381243 -0.697091,7.023452 3.048477,4.456129 10.02753,-2.644808 20.15064,-5.326301 30.486348,-6.335772 5.699344,-0.780677 11.25964,4.089172 9.934688,10.071185 -0.61281,5.518938 -3.148883,10.684004 -6.455403,15.0733 -4.01887,2.145617 -8.236044,-4.168212 -10.702223,-3.651572 2.232162,4.514561 6.847121,11.943312 12.168122,10.455038 3.544045,-3.266489 4.701526,-7.926778 6.122025,-12.341855 1.90535,-5.88899 4.742066,-11.469804 6.952615,-17.191034 -2.804949,-2.858277 -6.284248,-5.076186 -9.358411,-7.678805 -5.428167,0.84188 -11.243996,3.577791 -17.220117,2.407452 z M 23.724785,58.304949 c -1.577521,-3.041047 1.836547,-8.020588 0.241404,-9.710598 -4.119643,2.634627 -4.381866,8.846905 -4.853751,13.392608 0.03627,4.637656 1.04273,9.654728 3.69099,13.432717 2.4856,-4.500515 3.552244,-10.223605 2.91696,-15.381846 -0.52219,-0.76011 -1.844471,-0.654687 -1.995603,-1.732881 z m 31.044493,-4.007035 c 1.749388,5.262301 3.376865,10.595926 5.202004,15.813896 6.784019,-2.645818 1.641803,-18.076638 -5.202004,-15.813896 z m -8.400843,2.05199 c 0.564927,4.432168 0.973786,8.919982 1.634983,13.317828 4.088476,-1.362816 2.611988,-13.381517 -1.634983,-13.317828 z m -8.41951,13.921378 c 3.176807,-3.079836 2.857844,-10.413993 -0.574219,-13.204151 -3.149045,2.667731 -2.796555,10.813305 0.574219,13.204151 z"
       id="path9"
       style="stroke-width:1.61254" />
    <path
       fill="#b3b3b3"
       d="m 54.560062,47.527962 c 5.983541,1.387747 12.051234,-2.0072 17.441034,-2.232901 2.996124,2.548616 6.412338,4.698312 9.137494,7.504254 -2.774435,6.873629 -6.028602,13.679888 -8.182565,20.840017 -1.057815,3.935808 -4.544921,12.122647 -9.296305,7.936062 -2.932732,-2.172209 -8.428025,-7.52568 -6.910932,-10.247579 2.577368,2.572569 8.020422,6.853008 10.855368,2.829736 3.525554,-5.410806 6.732101,-12.112722 4.939229,-18.689424 -2.230214,-5.879311 -9.643845,-5.550038 -14.699141,-4.480067 -9.375054,1.664996 -18.669418,3.802495 -27.81078,6.476704 -6.681097,-1.740186 2.027764,-6.228577 2.65217,-9.803503 2.890361,-7.09006 0.238198,-15.112954 -3.910486,-21.108635 4.494214,-0.925567 9.374256,4.61927 9.079791,9.471267 3.174721,5.035578 13.647295,-5.345875 5.044327,-4.948205 -3.741332,0.693339 -6.206886,-3.021549 -2.008142,-4.101522 2.439423,-1.296229 7.416334,-3.18491 4.101886,-6.566374 -4.564559,-0.01519 -13.990093,-1.721058 -12.411269,-7.573824 4.296497,1.029616 8.860013,3.330624 13.459606,1.768617 4.22642,-0.113699 6.545469,-5.9468859 10.286931,-5.2170366 2.257992,1.0760826 4.647662,1.9462446 6.824221,3.1496476 -0.536834,1.664017 -2.514218,2.765002 -3.626461,4.200393 -1.934286,1.975378 -3.868556,3.950754 -5.802842,5.926132 -2.962856,6.309576 7.338217,0.428002 5.841966,5.057267 -1.92587,1.588811 -3.851723,3.177621 -5.777591,4.766433 -2.449068,5.9593 11.59585,0.456529 7.057287,5.035352 -2.470444,2.113153 -4.940902,4.226306 -7.411345,6.33946 -1.417383,1.058569 -0.638492,3.594414 1.126549,3.667729 z m -8.754901,-4.136295 c -0.919094,-2.921345 -4.817359,-1.045053 -6.828944,-0.251028 -2.293872,4.572282 3.546132,9.517377 6.394418,3.769303 0.576554,-1.068849 0.662112,-2.341668 0.434526,-3.518275 z"
       id="path10"
       style="stroke-width:1.61254" />
    <path
       fill="#000000"
       d="m 45.805161,43.391667 c 2.013139,5.746233 -8.360564,8.963396 -7.173652,1.942346 -0.578926,-2.753856 2.448834,-3.037989 4.426201,-3.445034 1.21215,-0.466379 2.651555,0.02942 2.747451,1.502688 z"
       id="path11"
       style="stroke-width:1.61254" />
    <path
       fill="#b3b3b3"
       d="m 24.448996,59.225921 c 3.495721,3.220866 0.43408,9.70964 -0.476772,13.876936 -1.999753,5.963105 -4.242313,-5.062836 -4.621368,-7.296582 -0.699901,-5.660791 0.246426,-11.826391 3.388199,-16.61814 4.433697,-2.130791 -0.828964,5.338554 0.763564,7.412335 0.170213,0.881474 -0.04859,2.166484 0.946377,2.625451 z"
       id="path12"
       style="stroke-width:1.61254" />
    <path
       fill="#b3b3b3"
       d="m 54.769278,54.297914 c 7.4379,-2.338382 11.697836,14.071823 5.030416,15.452872 -1.676806,-5.150957 -3.35361,-10.301916 -5.030416,-15.452872 z"
       id="path13"
       style="stroke-width:1.61254" />
    <path
       fill="#b3b3b3"
       d="m 46.368435,56.349904 c 5.142778,-0.565829 4.95763,14.140278 1.494787,12.640046 -0.498261,-4.213348 -0.996524,-8.426697 -1.494787,-12.640046 z"
       id="path14"
       style="stroke-width:1.61254" />
    <ellipse
       fill="#b3b3b3"
       cx="65.257416"
       cy="-34.859989"
       transform="matrix(0.04344739,0.99905572,-0.99904067,0.04379206,0,0)"
       rx="6.6083279"
       ry="2.2853038"
       id="ellipse14"
       style="stroke-width:1.61254" />
  </g>
</svg>
