<?xml version="1.0" encoding="UTF-8" standalone="no"?>
<!-- Created with Inkscape (http://www.inkscape.org/) -->

<svg
   width="100"
   height="100"
   id="svg2"
   sodipodi:version="0.32"
   inkscape:version="1.3 (0e150ed6c4, 2023-07-21)"
   version="1.0"
   sodipodi:docname="bp.svg"
   inkscape:output_extension="org.inkscape.output.svg.inkscape"
   xmlns:inkscape="http://www.inkscape.org/namespaces/inkscape"
   xmlns:sodipodi="http://sodipodi.sourceforge.net/DTD/sodipodi-0.dtd"
   xmlns:xlink="http://www.w3.org/1999/xlink"
   xmlns="http://www.w3.org/2000/svg"
   xmlns:svg="http://www.w3.org/2000/svg"
   xmlns:rdf="http://www.w3.org/1999/02/22-rdf-syntax-ns#"
   xmlns:cc="http://creativecommons.org/ns#"
   xmlns:dc="http://purl.org/dc/elements/1.1/">
  <defs
     id="defs4">
    <linearGradient
       id="linearGradient3214">
      <stop
         style="stop-color:#c6c600;stop-opacity:1;"
         offset="0"
         id="stop3216" />
      <stop
         style="stop-color:#ffff00;stop-opacity:1;"
         offset="1"
         id="stop3218" />
    </linearGradient>
    <linearGradient
       id="linearGradient3202">
      <stop
         style="stop-color:#ff0000;stop-opacity:1;"
         offset="0"
         id="stop3204" />
      <stop
         style="stop-color:#bd0000;stop-opacity:1;"
         offset="1"
         id="stop3206" />
    </linearGradient>
    <linearGradient
       id="linearGradient3194">
      <stop
         style="stop-color:#dedede;stop-opacity:1;"
         offset="0"
         id="stop3196" />
      <stop
         style="stop-color:#989898;stop-opacity:1;"
         offset="1"
         id="stop3198" />
    </linearGradient>
    <inkscape:perspective
       sodipodi:type="inkscape:persp3d"
       inkscape:vp_x="0 : 556.18109 : 1"
       inkscape:vp_y="0 : 1000 : 0"
       inkscape:vp_z="744.09448 : 556.18109 : 1"
       inkscape:persp3d-origin="372.04724 : 380.78739 : 1"
       id="perspective10" />
    <linearGradient
       inkscape:collect="always"
       xlink:href="#linearGradient3202"
       id="linearGradient3208"
       x1="42.241379"
       y1="32.741379"
       x2="115.51724"
       y2="62.051723"
       gradientUnits="userSpaceOnUse"
       gradientTransform="translate(-32.758621,-3.8793108)" />
  </defs>
  <sodipodi:namedview
     id="base"
     pagecolor="#ffffff"
     bordercolor="#666666"
     borderopacity="1.0"
     gridtolerance="10000"
     guidetolerance="10"
     objecttolerance="10"
     inkscape:pageopacity="0.0"
     inkscape:pageshadow="2"
     inkscape:zoom="2.0089601"
     inkscape:cx="27.626233"
     inkscape:cy="96.318488"
     inkscape:document-units="px"
     inkscape:current-layer="layer1"
     showgrid="false"
     inkscape:window-width="1366"
     inkscape:window-height="715"
     inkscape:window-x="144"
     inkscape:window-y="892"
     inkscape:showpageshadow="2"
     inkscape:pagecheckerboard="0"
     inkscape:deskcolor="#d1d1d1"
     inkscape:window-maximized="1" />
  <metadata
     id="metadata7">
    <rdf:RDF>
      <cc:Work
         rdf:about="">
        <dc:format>image/svg+xml</dc:format>
        <dc:type
           rdf:resource="http://purl.org/dc/dcmitype/StillImage" />
      </cc:Work>
    </rdf:RDF>
  </metadata>
  <g
     inkscape:label="Layer 1"
     inkscape:groupmode="layer"
     id="layer1">
    <g
       stroke-width="2"
       fill="none"
       stroke-linecap="butt"
       id="g3"
       transform="matrix(1.6053214,0,0,1.595618,-1.6585459,-0.98938708)">
      <path
         stroke="#737373"
         vector-effect="non-scaling-stroke"
         d="m 33.51,58.72 c 0.09667,-0.07083 0.483333,-0.3575 0.58,-0.43"
         id="path1" />
      <path
         stroke="#1a1a1a"
         vector-effect="non-scaling-stroke"
         d="m 34.09,58.29 c 2.845157,1.093359 6.489496,-1.163761 9.3975,-2.111875 7.63274,-3.282135 13.03928,-10.549 14.793506,-18.577703 C 61.422836,25.210777 53.774878,11.533012 41.932069,7.084064 31.941684,3.0039811 19.66174,5.6694125 12.351851,13.637901 4.5907763,21.509123 2.8476807,34.347295 7.9836493,44.091851 11.602347,51.458707 18.672293,57.216856 26.911475,58.3471 29.090233,58.701419 31.305678,58.804435 33.51,58.72"
         id="path2" />
      <path
         stroke="#5a5a5a"
         vector-effect="non-scaling-stroke"
         d="m 34.09,58.29 c 0.483333,-5.77 0.966667,-11.54 1.45,-17.31 0.336297,-3.189312 3.72419,-2.861543 6.048443,-3.031932 C 46.428962,37.652045 51.269481,37.356023 56.11,37.06 57.800613,35.727197 54.788029,35.185345 53.79636,34.593951 52.657397,34.286838 51.516956,33.10032 50.36,33.58 c -3.077093,3.219283 -7.877944,2.93289 -11.971875,3.070938 -2.431696,-0.316308 -3.476687,-2.891076 -1.262001,-4.160959 0.756517,-1.079211 1.856954,-1.917778 3.026236,-0.860475 1.444926,0.618376 2.806815,1.634865 4.30764,1.990496 1.224689,-2.869819 -1.813901,-4.631263 -4.13047,-5.062992 -0.177859,-1.794566 2.73826,-2.511793 1.888751,-4.361969 -0.535783,-1.738906 -4.581076,-3.990324 -4.957084,-2.159239 0.78467,0.886052 2.345374,1.844911 1.326903,3.144348 -0.816033,1.703284 -1.632067,3.406568 -2.4481,5.109852 -1.47328,-0.145987 -0.367101,-4.272522 -2.910664,-4.839922 -1.968008,-1.665354 -1.990384,0.572739 -1.869713,1.955906 0.442865,1.915873 -0.699969,3.55231 -2.801498,2.373235 -4.086751,-1.405373 1.140406,-4.934436 -0.59984,-6.746323 0.501291,-1.936711 5.224899,-1.741644 7.254645,-2.724068 3.515301,-0.9277 7.138411,-1.369034 10.680195,-2.135078 C 46.608126,16.16147 40.944605,15.165529 39.6875,17.3175 38.429686,17.619793 37.092727,18.048399 35.81,17.98 33.914263,16.131601 37.440003,11.900162 33.482109,12.231992 30.944816,12.169967 28.636915,8.7868254 27.1,8.74 c 1.439468,2.874642 4.412899,6.044749 2.828602,9.445834 -2.119087,3.41194 -6.847534,3.323222 -10.356092,2.732689 -1.448445,-0.622677 -4.152415,-1.011872 -1.643369,0.716946 2.006254,2.471925 7.353069,0.0885 7.184726,4.141621 -0.612331,3.171938 -3.966261,4.736607 -5.569883,7.380644 -1.157952,1.173093 -2.79936,3.731967 -0.0019,1.923633 2.3991,-0.524058 4.262292,-4.044411 6.712188,-2.917159 1.609125,0.928857 3.412527,1.60409 4.900742,2.690792 -1.702697,2.975508 -5.192174,4.371093 -8.500029,4.576396 -4.664289,0.699374 -9.465791,0.551603 -14.0974533,0.01165 5.0985663,3.255347 11.5738173,2.11334 17.1787703,0.940736 2.909991,-1.292852 7.547721,-1.031286 6.161798,3.301066 -0.254222,5.0548 0.256238,10.154932 1.6119,15.035152"
         id="path3" />
    </g>
    <path
       fill="#333333"
       d="M 99.284059,50.054429 C 100.68756,83.820289 61.58943,109.78691 30.741231,95.576451 -1.18116,83.943647 -10.354875,38.103026 14.658811,15.213384 35.866367,-7.65686 76.90906,-2.1573873 92.06729,24.453136 c 4.703575,7.663888 7.229355,16.623987 7.216769,25.601293 z M 52.135772,92.705297 c 4.002924,0.136744 9.980177,-1.406602 14.488087,-3.387992 C 78.938907,84.545115 88.187533,73.528203 91.411981,60.869959 97.37347,41.525768 86.310419,19.390625 67.930251,11.2797 52.160614,3.8170927 32.027061,7.0676265 19.607521,19.332971 6.7545462,31.14458 2.8308332,51.097995 10.008723,66.923669 c 5.386274,12.641906 16.94402,22.944555 30.823232,25.065992 3.725268,0.662198 7.525266,0.859544 11.303817,0.715636 z"
       id="path4"
       style="stroke-width:1.60046" />
    <path
       fill="#000000"
       d="m 53.066859,92.019181 c 0.775904,-9.206716 1.55181,-18.413431 2.327716,-27.620146 0.539863,-5.08892 5.978521,-4.565924 9.709693,-4.837802 7.770589,-0.472335 15.541177,-0.944686 23.311766,-1.41702 2.733943,-2.084866 -1.914271,-2.924672 -3.457921,-3.821585 -1.730113,-0.652544 -3.338711,-1.715417 -5.154629,-2.078213 -3.787799,3.653662 -9.077394,5.117706 -14.289754,5.04619 -3.442377,1.02295 -11.514751,-0.188267 -9.109501,-4.81374 1.358152,-1.301162 2.471268,-2.90254 4.006975,-3.98614 3.115262,1.047522 5.923241,2.973912 8.981773,4.21642 2.760247,-3.981004 -2.601759,-7.687906 -6.309668,-8.130458 -0.263873,-2.845894 4.379381,-4.021163 3.032052,-6.960037 -0.860104,-2.774629 -7.354099,-6.367032 -7.957712,-3.44532 1.259647,1.413801 3.765079,2.943773 2.130105,5.017178 -1.309994,2.717791 -2.619992,5.435581 -3.929986,8.153371 -2.365089,-0.232944 -0.589317,-6.817312 -4.672552,-7.722666 -3.159286,-2.657268 -3.195205,0.913873 -3.001491,3.120878 0.710942,3.057002 -1.123674,5.668124 -4.497304,3.786777 -6.560549,-2.242439 1.830719,-7.873474 -0.962936,-10.764553 0.804734,-3.090251 8.387642,-2.778999 11.646036,-4.346572 5.643189,-1.480255 11.459445,-2.184456 17.145145,-3.406769 1.147807,-3.21083 -7.943964,-4.799972 -9.962021,-1.366248 -2.019196,0.482344 -4.165445,1.166236 -6.224634,1.057097 -3.043267,-2.949339 2.616678,-9.701098 -3.737013,-9.171624 -4.073171,-0.09897 -7.778094,-5.497171 -10.245336,-5.571886 2.310808,4.58683 7.084121,9.645111 4.540815,15.071942 -3.401815,5.444153 -10.992493,5.302593 -16.624856,4.360328 -2.325219,-0.993554 -6.66596,-1.614561 -2.638135,1.143971 3.220683,3.944249 11.804039,0.141213 11.533794,6.608445 -0.982987,5.061202 -6.367124,7.55782 -8.941451,11.776682 -1.858886,1.871819 -4.493873,5.954798 -0.003,3.069394 3.851326,-0.8362 6.842348,-6.453333 10.775218,-4.654672 2.583164,1.482089 5.478203,2.559514 7.867266,4.293472 -2.733375,4.747777 -8.335107,6.97459 -13.645278,7.302186 -7.487682,1.115927 -15.195636,0.880142 -22.630942,0.0185 8.184837,5.194295 18.579695,3.372083 27.577446,1.501061 4.671471,-2.062894 12.116518,-1.645544 9.891666,5.267231 -0.40827,8.064715 0.411607,16.204361 2.587639,23.99037 C 39.447807,93.471433 26.155252,88.998453 17.838891,79.160159 6.4702159,66.750433 2.9838377,47.622724 10.277954,32.326614 17.504911,16.215248 35.441577,5.7613292 53.116049,7.4328491 69.849565,8.5295587 85.153576,20.247109 90.574964,36.013427 97.835543,55.481829 88.029985,79.694644 68.900891,88.299699 64.024547,90.285015 58.623912,92.883527 53.387953,92.497803 Z"
       id="path5"
       style="stroke-width:1.60046" />
    <path
       fill="#b3b3b3"
       d="m 53.066859,92.019181 c -2.397679,0.621652 -2.011201,-6.238324 -2.88381,-8.681151 -1.041134,-6.176797 -0.600537,-12.451389 -0.605257,-18.659762 -3.521366,-5.493649 -11.780028,0.487509 -17.201457,0.0911 -6.781991,1.067932 -14.4133,0.981577 -20.297315,-2.822791 9.665904,1.064309 19.865662,1.277931 29.337219,-1.458857 2.15513,-1.087334 9.249817,-4.967766 5.318818,-6.913749 -2.496671,-1.29553 -4.993344,-2.59106 -7.490016,-3.886591 -4.286793,1.291494 -7.754332,5.465614 -12.373014,6.362528 2.706744,-5.101208 7.492573,-8.85177 10.995723,-13.403523 2.939911,-4.765287 -1.753247,-7.449567 -6.016717,-6.937614 -3.023207,0.102243 -9.871559,-6.099036 -3.535345,-3.652439 5.851645,1.308458 13.562861,1.739012 17.700924,-3.404463 3.218625,-5.143357 -1.366228,-10.552912 -3.77937,-14.983026 -0.484994,-3.254111 3.804045,3.120108 5.780881,3.256513 2.587285,2.224677 9.641768,0.666266 6.876544,5.814781 -0.909148,3.49761 1.149735,6.222529 4.505834,4.528995 3.734139,-0.627076 6.932547,-4.293631 10.907508,-1.707446 6.296753,2.868211 -3.86519,3.386451 -6.262085,3.91478 -7.106531,1.337363 -14.179298,2.99333 -21.038411,5.27199 2.569343,2.989644 -1.671502,5.554545 -1.322383,9.290486 0.85003,3.516996 8.316582,4.460038 6.983551,-0.266985 0.29252,-1.630333 -0.519995,-3.888332 0.575505,-5.0913 4.644441,0.541074 6.051126,5.3388 6.294897,9.046475 1.727949,-0.909614 1.947318,-3.325601 2.999595,-4.909901 0.749834,-1.837018 1.992648,-3.519252 2.374188,-5.471907 -0.65634,-1.572677 -5.351123,-4.564982 -1.126734,-4.228138 3.170108,0.371075 8.297408,4.025884 5.759894,7.327737 -2.821342,2.148284 -2.950803,5.595717 1.432949,5.434963 3.138946,0.0092 4.812263,8.873518 0.728002,6.053375 -2.448712,-1.097291 -4.749993,-2.635689 -7.295773,-3.442545 -1.800155,1.524692 -3.575649,3.30497 -4.904257,5.249582 2.127601,5.605486 8.81492,3.351101 13.363201,3.313748 4.939165,0.916284 8.387919,-4.624117 12.400291,-4.362052 2.51029,1.110006 5.020582,2.22003 7.530872,3.330038 1.79568,2.921864 -3.041029,2.072356 -4.863686,2.3944 -7.957189,0.48368 -15.914376,0.96736 -23.871566,1.451039 -5.134073,0.412339 -4.737969,5.829463 -5.092832,9.531153 -0.635455,7.540188 -1.270912,15.08036 -1.906368,22.620548 z"
       id="path6"
       style="stroke-width:1.60046" />
  </g>
</svg>
