<?xml version="1.0" encoding="UTF-8" standalone="no"?>
<!-- Created with Inkscape (http://www.inkscape.org/) -->

<svg
   width="100"
   height="100"
   id="svg2"
   sodipodi:version="0.32"
   inkscape:version="1.3 (0e150ed6c4, 2023-07-21)"
   version="1.0"
   sodipodi:docname="wa.svg"
   inkscape:output_extension="org.inkscape.output.svg.inkscape"
   xmlns:inkscape="http://www.inkscape.org/namespaces/inkscape"
   xmlns:sodipodi="http://sodipodi.sourceforge.net/DTD/sodipodi-0.dtd"
   xmlns:xlink="http://www.w3.org/1999/xlink"
   xmlns="http://www.w3.org/2000/svg"
   xmlns:svg="http://www.w3.org/2000/svg"
   xmlns:rdf="http://www.w3.org/1999/02/22-rdf-syntax-ns#"
   xmlns:cc="http://creativecommons.org/ns#"
   xmlns:dc="http://purl.org/dc/elements/1.1/">
  <defs
     id="defs4">
    <linearGradient
       id="linearGradient3214">
      <stop
         style="stop-color:#c6c600;stop-opacity:1;"
         offset="0"
         id="stop3216" />
      <stop
         style="stop-color:#ffff00;stop-opacity:1;"
         offset="1"
         id="stop3218" />
    </linearGradient>
    <linearGradient
       id="linearGradient3202">
      <stop
         style="stop-color:#ff0000;stop-opacity:1;"
         offset="0"
         id="stop3204" />
      <stop
         style="stop-color:#bd0000;stop-opacity:1;"
         offset="1"
         id="stop3206" />
    </linearGradient>
    <linearGradient
       id="linearGradient3194">
      <stop
         style="stop-color:#dedede;stop-opacity:1;"
         offset="0"
         id="stop3196" />
      <stop
         style="stop-color:#989898;stop-opacity:1;"
         offset="1"
         id="stop3198" />
    </linearGradient>
    <inkscape:perspective
       sodipodi:type="inkscape:persp3d"
       inkscape:vp_x="0 : 556.18109 : 1"
       inkscape:vp_y="0 : 1000 : 0"
       inkscape:vp_z="744.09448 : 556.18109 : 1"
       inkscape:persp3d-origin="372.04724 : 380.78739 : 1"
       id="perspective10" />
    <linearGradient
       inkscape:collect="always"
       xlink:href="#linearGradient3202"
       id="linearGradient3208"
       x1="42.241379"
       y1="32.741379"
       x2="115.51724"
       y2="62.051723"
       gradientUnits="userSpaceOnUse"
       gradientTransform="translate(-32.758621,-3.8793108)" />
  </defs>
  <sodipodi:namedview
     id="base"
     pagecolor="#ffffff"
     bordercolor="#666666"
     borderopacity="1.0"
     gridtolerance="10000"
     guidetolerance="10"
     objecttolerance="10"
     inkscape:pageopacity="0.0"
     inkscape:pageshadow="2"
     inkscape:zoom="2.32"
     inkscape:cx="29.956897"
     inkscape:cy="90.301724"
     inkscape:document-units="px"
     inkscape:current-layer="layer1"
     showgrid="false"
     inkscape:window-width="1366"
     inkscape:window-height="715"
     inkscape:window-x="144"
     inkscape:window-y="892"
     inkscape:showpageshadow="2"
     inkscape:pagecheckerboard="0"
     inkscape:deskcolor="#d1d1d1"
     inkscape:window-maximized="1" />
  <metadata
     id="metadata7">
    <rdf:RDF>
      <cc:Work
         rdf:about="">
        <dc:format>image/svg+xml</dc:format>
        <dc:type
           rdf:resource="http://purl.org/dc/dcmitype/StillImage" />
      </cc:Work>
    </rdf:RDF>
  </metadata>
  <g
     inkscape:label="Layer 1"
     inkscape:groupmode="layer"
     id="layer1">
    <g
       stroke-width="2"
       fill="none"
       stroke-linecap="butt"
       id="g3"
       transform="matrix(1.6080332,0,0,1.5994015,-1.8497999,-1.3597318)">
      <path
         stroke="#985a5a"
         vector-effect="non-scaling-stroke"
         d="m 52.47,48.76 c 0.113333,-0.03667 0.226667,-0.07333 0.34,-0.11"
         id="path1" />
      <path
         stroke="#690000"
         vector-effect="non-scaling-stroke"
         d="M 52.81,48.65 C 57.740892,43.784269 59.375292,36.359477 58.828393,29.637304 57.722842,16.854458 46.450647,5.8466646 33.597031,5.2539704 23.153399,4.6282415 12.449569,10.468158 7.9270297,20.020303 3.4381097,28.292612 4.000269,38.948294 9.4387985,46.646783 15.909148,56.441252 29.053556,61.729643 40.324656,57.714822 44.770594,56.119741 48.996339,53.478901 52.02,49.825 L 52.265,49.32375 52.47,48.76"
         id="path2" />
      <path
         stroke="#aa5a5a"
         vector-effect="non-scaling-stroke"
         d="m 52.81,48.65 c -1.040201,-2.483831 -3.46969,-5.690202 -6.506484,-4.691973 -3.653338,1.479328 -6.712487,-1.789684 -5.352266,-5.401777 0.364675,-2.828797 -0.436858,-6.909254 3.267005,-7.697053 3.869468,-1.758478 8.378152,-0.458369 12.255349,-2.031517 -1.499089,-2.623235 -5.854874,-3.365137 -8.812041,-3.006586 -3.150049,1.722925 -6.459328,-0.853687 -5.373773,-4.28109 0.527864,-3.073778 1.819602,-6.654009 -1.427478,-8.749692 C 39.519827,11.756955 36.449193,8.9276936 35.37,10.66 c 2.212114,4.238094 3.559087,9.806531 1.042383,14.199297 C 33.913006,28.742746 29.102002,31.651026 24.41,30.23 c -0.288471,-0.822061 1.553992,-1.558173 2.183834,-2.328093 1.75558,-0.949383 2.239995,-2.787609 1.954994,-4.70011 -0.0853,-4.095411 -1.752011,-8.154715 -4.624453,-11.079297 -1.03459,0.359583 0.02156,3.779781 -1.732031,4.806445 C 18.827882,22.322685 15.048367,27.51889 10.6075,32.07 9.0485295,31.97331 8.3073689,33.099883 8.5079294,34.571837 c -0.078966,1.826 -0.3963198,3.67593 -0.3302387,5.48737 C 10.467861,39.739692 13.120389,36.117475 15.6875,38.525 c 1.954781,3.590912 0.692873,8.076816 3.094063,11.531406 0.74079,2.152012 3.105495,3.494646 2.534852,0.526769 0.0212,-5.771058 0.04239,-11.542117 0.06358,-17.313175 0.628641,-2.910714 3.328308,-0.89316 4.839096,-0.04527 1.634003,0.492427 3.358906,-0.360372 5.032318,-0.511668 1.591659,-0.140862 3.199455,-0.979701 4.774774,-0.413873 1.319283,3.472446 0.87047,7.941824 -0.506188,11.350809 -2.36318,3.051888 -6.352269,0.563219 -9.163828,2.605898 -1.83208,0.927043 -4.439041,4.728568 -0.534414,3.59043 5.741109,-0.445574 11.46238,-1.325137 17.236595,-1.100719 3.137215,0.0048 6.274431,0.0096 9.411647,0.01439"
         id="path3" />
    </g>
    <path
       fill="#570000"
       d="M 99.263328,50.029037 C 100.6692,83.874964 61.50502,109.90316 30.604716,95.659002 -1.3716079,83.998613 -10.56082,38.049297 14.495118,15.105375 35.738506,-7.8190986 76.850529,-2.3065856 92.034367,24.367038 c 4.711521,7.682055 7.241568,16.663399 7.228961,25.661999 z M 82.523703,76.627084 c 3.076537,-1.977837 5.01203,-5.55413 6.609015,-8.796708 C 96.040765,53.063822 93.32893,34.618868 82.554223,22.379259 72.007229,9.6392305 53.746035,3.7723445 37.796339,8.6706586 25.833006,11.89977 15.507616,20.429255 10.38431,31.68651 3.3507629,45.323902 5.0221949,62.665813 14.424284,74.785198 25.298963,89.778803 46.289778,97.39416 63.965182,90.606813 70.723537,87.992271 77.170384,83.925584 81.800088,78.330447 l 0.393968,-0.8017 z"
       id="path4"
       style="stroke-width:1.60372" />
    <path
       fill="#7b0000"
       d="M 83.070433,76.451149 C 81.397757,72.478508 77.491057,67.350235 72.607798,68.946806 66.733106,71.312848 61.813891,66.084373 64.00117,60.307191 64.587571,55.782804 63.298684,49.256527 69.254614,47.996518 75.476851,45.184002 82.726974,47.2634 88.961624,44.747302 86.211823,40.324604 78.825162,39.134091 73.710297,40.11518 68.35262,42.879553 64.524794,37.174184 66.23587,32.367215 67.607876,27.35306 68.43016,21.673009 63.188228,18.492964 61.504329,16.421534 52.711635,11.957352 55.98588,17.563938 c 3.233643,7.190967 4.868578,17.012418 -1.159408,23.259329 -4.18058,5.021767 -11.43265,8.400104 -17.84227,5.899008 1.962267,-2.199225 4.672639,-3.726509 6.685398,-5.901792 1.504331,-8.104551 -1.231834,-16.909 -7.048218,-22.791471 -1.663655,0.575118 0.03473,6.045387 -2.785162,7.687435 -5.410164,8.626765 -11.487741,16.937575 -18.628807,24.216627 -2.506876,-0.154663 -3.698686,1.647191 -3.376179,4.001446 -0.127035,2.920506 -0.637295,5.879288 -0.531036,8.776507 3.682669,-0.51104 7.948025,-6.304425 12.076023,-2.453817 3.143351,5.743306 1.114158,12.918077 4.975351,18.443354 1.191215,3.441928 4.993747,5.589333 4.07614,0.842516 0.0341,-9.230241 0.06818,-18.460483 0.102275,-27.690726 1.010874,-4.655392 5.352033,-1.42852 7.781433,-0.07245 2.627526,0.787593 5.401223,-0.576377 8.092123,-0.818365 2.559441,-0.225292 5.144836,-1.566935 7.678003,-0.661945 2.121446,5.553841 1.399745,12.702175 -0.81397,18.154502 -3.800072,4.881197 -10.214661,0.900815 -14.735743,4.167881 -2.946045,1.482709 -7.138124,7.562881 -0.859349,5.742539 9.231896,-0.712662 18.431889,-2.119431 27.71701,-1.760494 5.044753,0.008 10.089491,0.01599 15.134246,0.02303 -1.652962,4.259191 -5.97185,6.694711 -9.469773,9.359457 C 60.070965,95.028982 42.004068,95.330533 28.49228,87.242247 13.123953,78.693143 3.2067954,60.420957 6.6683432,42.918002 9.3412161,28.464196 19.420931,15.268042 33.47297,10.14318 48.273034,3.9206185 66.336569,7.0990148 78.155404,17.898886 90.938464,28.891155 96.364885,47.615988 90.770473,63.57568 89.24646,68.386072 86.810145,72.978321 83.07047,76.451118 Z"
       id="path5"
       style="stroke-width:1.60372" />
    <path
       fill="#d8b3b3"
       d="m 83.070433,76.451149 c -4.151973,0.410327 -8.42664,0.04302 -12.625295,0.157542 -8.418118,-0.165331 -16.83302,0.154821 -25.182958,1.301145 -2.971903,-0.09453 -12.615084,2.63295 -7.539408,-2.778272 3.393658,-5.53489 10.129178,-2.863378 14.978941,-4.809129 5.650533,-2.797577 4.086881,-10.339746 4.503507,-15.532763 0.988956,-4.677546 -3.418277,-5.459924 -6.786238,-4.196894 -3.069623,0.476622 -6.105606,1.29262 -9.197612,1.543455 -2.721999,-0.73694 -5.232861,-4.258486 -8.085771,-1.936076 -1.180858,3.172606 -0.385783,6.696055 -0.636604,10.033797 -0.02717,7.36766 -0.05435,14.735318 -0.08169,22.102977 -4.699702,-0.902926 -7.022972,-9.850154 -7.043507,-15.025657 0.639402,-5.481309 -4.484129,-11.179272 -9.609252,-6.785237 -2.379359,2.460535 -5.661435,3.142744 -4.360906,-0.98352 0.213289,-2.797961 0.426595,-5.595937 0.639885,-8.393915 4.02973,-1.313348 6.899475,-4.934841 9.613465,-8.408517 5.139628,-6.435688 10.211301,-13.068998 13.990017,-20.390393 0.516453,-2.187338 -0.470639,-6.79449 2.415782,-2.748316 4.797036,5.833943 6.991888,13.804026 5.606728,21.219091 -2.012533,2.175219 -4.724337,3.701736 -6.685398,5.901792 7.314348,2.818001 15.286768,-1.821446 19.406196,-7.849559 4.333086,-6.703955 2.372186,-15.507678 -0.866892,-22.249489 -1.236577,-4.552522 5.997756,0.355505 7.664722,1.869736 5.241932,3.180046 4.419648,8.860098 3.047642,13.874252 -1.711076,4.806968 2.116751,10.512337 7.474427,7.747964 5.114865,-0.981089 12.501526,0.209426 15.251327,4.632123 -6.950402,2.718054 -15.273437,0.07037 -21.837107,4.327437 -4.457693,2.889127 -2.213537,9.55999 -3.285035,14.109504 -1.288259,7.838586 8.025324,5.744922 12.486635,5.715365 3.155122,1.500894 5.476849,4.353059 6.744316,7.551542 z"
       id="path6"
       style="stroke-width:1.60372" />
  </g>
</svg>
