<?xml version="1.0" encoding="UTF-8" standalone="no"?>
<!-- Created with Inkscape (http://www.inkscape.org/) -->

<svg
   width="100"
   height="100"
   id="svg2"
   sodipodi:version="0.32"
   inkscape:version="1.3 (0e150ed6c4, 2023-07-21)"
   version="1.0"
   sodipodi:docname="wb.svg"
   inkscape:output_extension="org.inkscape.output.svg.inkscape"
   xmlns:inkscape="http://www.inkscape.org/namespaces/inkscape"
   xmlns:sodipodi="http://sodipodi.sourceforge.net/DTD/sodipodi-0.dtd"
   xmlns:xlink="http://www.w3.org/1999/xlink"
   xmlns="http://www.w3.org/2000/svg"
   xmlns:svg="http://www.w3.org/2000/svg"
   xmlns:rdf="http://www.w3.org/1999/02/22-rdf-syntax-ns#"
   xmlns:cc="http://creativecommons.org/ns#"
   xmlns:dc="http://purl.org/dc/elements/1.1/">
  <defs
     id="defs4">
    <linearGradient
       id="linearGradient3214">
      <stop
         style="stop-color:#c6c600;stop-opacity:1;"
         offset="0"
         id="stop3216" />
      <stop
         style="stop-color:#ffff00;stop-opacity:1;"
         offset="1"
         id="stop3218" />
    </linearGradient>
    <linearGradient
       id="linearGradient3202">
      <stop
         style="stop-color:#ff0000;stop-opacity:1;"
         offset="0"
         id="stop3204" />
      <stop
         style="stop-color:#bd0000;stop-opacity:1;"
         offset="1"
         id="stop3206" />
    </linearGradient>
    <linearGradient
       id="linearGradient3194">
      <stop
         style="stop-color:#dedede;stop-opacity:1;"
         offset="0"
         id="stop3196" />
      <stop
         style="stop-color:#989898;stop-opacity:1;"
         offset="1"
         id="stop3198" />
    </linearGradient>
    <inkscape:perspective
       sodipodi:type="inkscape:persp3d"
       inkscape:vp_x="0 : 556.18109 : 1"
       inkscape:vp_y="0 : 1000 : 0"
       inkscape:vp_z="744.09448 : 556.18109 : 1"
       inkscape:persp3d-origin="372.04724 : 380.78739 : 1"
       id="perspective10" />
    <linearGradient
       inkscape:collect="always"
       xlink:href="#linearGradient3202"
       id="linearGradient3208"
       x1="42.241379"
       y1="32.741379"
       x2="115.51724"
       y2="62.051723"
       gradientUnits="userSpaceOnUse"
       gradientTransform="translate(-32.758621,-3.8793108)" />
  </defs>
  <sodipodi:namedview
     id="base"
     pagecolor="#ffffff"
     bordercolor="#666666"
     borderopacity="1.0"
     gridtolerance="10000"
     guidetolerance="10"
     objecttolerance="10"
     inkscape:pageopacity="0.0"
     inkscape:pageshadow="2"
     inkscape:zoom="2.8410986"
     inkscape:cx="45.932936"
     inkscape:cy="55.788279"
     inkscape:document-units="px"
     inkscape:current-layer="layer1"
     showgrid="false"
     inkscape:window-width="1110"
     inkscape:window-height="995"
     inkscape:window-x="0"
     inkscape:window-y="42"
     inkscape:showpageshadow="2"
     inkscape:pagecheckerboard="0"
     inkscape:deskcolor="#d1d1d1"
     inkscape:window-maximized="0" />
  <metadata
     id="metadata7">
    <rdf:RDF>
      <cc:Work
         rdf:about="">
        <dc:format>image/svg+xml</dc:format>
        <dc:type
           rdf:resource="http://purl.org/dc/dcmitype/StillImage" />
      </cc:Work>
    </rdf:RDF>
  </metadata>
  <g
     inkscape:label="Layer 1"
     inkscape:groupmode="layer"
     id="layer1"
     style="display:inline">
    <g
       stroke-width="2"
       fill="none"
       stroke-linecap="butt"
       id="g4"
       transform="matrix(1.6163586,0,0,1.6203654,-1.5946868,-0.96352506)"
       style="display:inline">
      <path
         stroke="#737373"
         vector-effect="non-scaling-stroke"
         d="M 23.07,6.38 C 22.239761,6.149548 21.271754,6.4495126 20.83,7.22"
         id="path1"
         style="display:inline" />
      <path
         stroke="#1a1a1a"
         vector-effect="non-scaling-stroke"
         d="M 20.83,7.22 C 10.782257,11.849161 4.1346157,22.931815 5.1021715,33.995796 c 0.591743,9.939699 7.6192795,18.81319 16.7953675,22.399224 10.081596,4.313338 22.645924,1.558649 29.883299,-6.714879 6.62573,-7.036658 9.06263,-17.772086 5.62291,-26.872665 C 53.706152,12.037801 42.712954,4.0384084 31.205406,4.7529184 28.431456,4.8790206 25.684637,5.4513733 23.07,6.38"
         id="path2"
         style="display:inline" />
      <path
         stroke="#5a5a5a"
         vector-effect="non-scaling-stroke"
         d="m 20.83,7.22 c 0.658854,2.5812603 4.617532,2.263814 5.007256,4.579357 -0.160237,1.397858 0.324156,2.997476 -0.387256,4.230643 -3.306114,2.730767 -7.949485,5.48839 -12.289856,3.546387 -2.988423,-1.752143 -0.121308,3.90203 1.736037,3.785067 2.732239,1.19482 5.882471,1.118954 8.676319,0.191671 1.25894,1.801927 -2.807649,4.744786 -4.172813,6.226992 -2.532998,1.83583 -6.017487,2.896219 -5.457304,6.785899 0.05828,2.319046 -1.04582,6.415331 0.627617,7.833984 3.782527,-1.818145 6.146906,-5.475506 9.26,-8.15 2.607365,1.707981 0.801544,6.940363 -0.7125,9.4975 0.465711,2.30452 1.274016,4.561998 2.005625,6.80125 2.056309,-0.929587 1.338477,-4.673975 1.629375,-6.805 0.318794,-4.164527 0.143502,-8.409409 0.950226,-12.511797 0.986535,-3.380224 4.260866,-5.931615 4.274774,-9.589453 -1.343733,-0.0078 -2.619978,1.260059 -3.933349,0.748863 0.04082,-1.336334 1.450629,-2.155367 2.124796,-3.252378 1.123718,-1.50911 2.544682,-2.841037 3.466793,-4.470321 C 32.489296,14.968436 26.951325,16.204806 28.3925,12.29875 28.270829,10.47103 28.519413,7.2699093 26.097277,7.0509944 25.088185,6.8273296 24.079092,6.6036648 23.07,6.38"
         id="path3"
         style="display:inline" />
      <path
         stroke="#5a5a5a"
         vector-effect="non-scaling-stroke"
         d="m 41.5,39.11 c -0.472696,-3.139158 2.435166,-4.902827 4.233541,-6.59729 -0.63194,-1.636838 -3.121835,-1.233673 -3.950549,-2.836995 -0.605633,-2.248308 6.133443,-4.37145 2.509103,-6.431647 -1.225552,-0.515808 -2.567629,-1.35269 -1.901889,-2.858257 0.218955,-1.67184 0.663958,-3.32957 0.732294,-5.010811 -0.815234,-2.169719 -3.009554,-2.198724 -3.508125,0.315 -1.33364,2.976425 -6.268922,3.699211 -4.152813,7.62877 1.008043,6.773888 -0.302334,13.576412 -0.525673,20.339895 0.184247,1.708582 2.549999,7.09081 4.24583,4.151804 1.471562,-1.764744 5.331568,-4.130802 7.036686,-1.918812 0.902438,1.470945 1.180195,3.436092 2.702895,4.416331 3.147506,-1.017651 1.185257,-5.51605 1.8312,-8.176738 0.21672,-7.112469 0.32863,-14.24022 0.871875,-21.334062 C 52.322518,18.414622 53.88799,14.614841 50.34825,13.8334 48.73702,13.0733 46.893764,12.650098 45.7925,11.13 c -3.356008,-1.035473 0.33406,3.626653 0.450312,5.146658 1.321456,3.992601 0.273046,8.253087 0.370557,12.364309 C 46.162377,31.931603 46.99559,35.877245 45.71,38.76 c -1.344963,0.235188 -2.693476,0.862602 -4.0375,0.825 l -0.126875,-0.18375 z"
         id="path4"
         style="display:inline" />
    </g>
    <path
       fill="#333333"
       d="M 100.04195,50.24002 C 101.45508,84.529574 62.088147,110.89893 31.027852,96.468071 -1.114019,84.65484 -10.350808,38.103255 14.834859,14.858602 36.188226,-8.3663505 77.513106,-2.7815831 92.775556,24.241659 c 4.73592,7.782753 7.279054,16.88182 7.266394,25.998361 z M 35.694706,9.3744059 C 30.885056,10.231641 26.478161,14.050668 22.36969,17.012716 7.897735,28.823973 2.2930326,50.427205 9.9763599,67.609761 18.495242,87.629137 43.248125,98.709549 63.790694,91.531183 83.643492,85.187143 97.264201,63.093545 92.952269,42.459496 89.498949,23.259424 72.124057,7.2533719 52.453531,6.7266982 46.763422,6.4925277 41.05218,7.4632368 35.694706,9.3744059 Z"
       id="path5"
       style="display:inline;fill:#570000;fill-opacity:1;stroke-width:1.61836" />
    <path
       fill="#000000"
       d="m 32.074063,10.735513 c 1.064944,4.182584 7.463588,3.668206 8.093522,7.420231 -0.259001,2.265041 0.523952,4.857006 -0.625945,6.855188 -5.343866,4.424839 -12.849219,8.893197 -19.864815,5.746442 -4.830363,-2.839112 -0.196077,6.322714 2.806059,6.133191 4.416278,1.936045 9.508183,1.813115 14.024043,0.310578 2.034899,2.91978 -4.538169,7.688286 -6.744762,10.090002 -4.094233,2.974715 -9.726418,4.692933 -8.820961,10.995635 0.0942,3.757702 -1.69042,10.395181 1.014455,12.693917 6.11392,-2.94606 9.935603,-8.87232 14.967481,-13.205978 4.214436,2.767553 1.295582,11.245924 -1.151656,15.38942 0.752755,3.734164 2.059266,7.392104 3.241809,11.02051 3.323732,-1.506271 2.163458,-7.573548 2.633654,-11.026586 0.515285,-6.748056 0.231951,-13.626315 1.535906,-20.273682 1.594594,-5.477199 6.887088,-9.611384 6.909568,-15.538418 -2.171954,-0.01264 -4.234824,2.041756 -6.357703,1.213432 0.06597,-2.16535 2.344737,-3.492482 3.434432,-5.270041 1.816332,-2.44531 4.113119,-4.603519 5.603582,-7.243554 C 50.919667,23.29081 41.96832,25.294181 44.297775,18.964943 44.101111,16.003369 44.502912,10.816384 40.587871,10.461661 39.481435,9.9775804 34.690273,9.7014459 36.654938,9.0440474 51.406225,3.7580818 68.820922,7.5562441 79.951897,18.629795 92.833942,30.679773 97.622886,50.950868 90.151965,67.174316 83.382838,83.086049 66.749126,94.379425 49.353126,93.68135 29.70073,93.40629 10.787011,78.599118 7.2960819,58.935479 3.643218,41.001711 12.772451,21.59434 28.594368,12.602388 c 1.133454,-0.670231 2.29494,-1.292725 3.479695,-1.866875 z m 33.410132,51.673451 c -0.764045,-5.086583 3.936103,-7.944371 6.842921,-10.690021 -0.996614,-2.675647 -5.063739,-1.982305 -6.385504,-4.596968 -0.97892,-3.64308 9.913844,-7.083345 4.055611,-10.421617 -1.980932,-0.835798 -4.150209,-2.191853 -3.074135,-4.631421 0.35391,-2.708992 1.073194,-5.39512 1.18365,-8.119344 -1.317711,-3.515738 -4.864518,-3.562736 -5.670389,0.510415 -2.15564,4.822896 -10.132826,5.994072 -6.712433,12.361394 1.629358,10.976173 -0.488682,21.998747 -0.849677,32.958061 0.297809,2.768527 4.121713,11.489703 6.862783,6.727439 2.378572,-2.85953 8.617726,-6.693409 11.373809,-3.109176 1.458662,2.383468 1.907617,5.567724 4.368847,7.15607 5.024888,-1.912159 1.958303,-9.378891 2.976212,-13.937445 0.350625,-11.295293 0.526854,-22.615342 1.392927,-33.880833 1.128449,-3.860628 3.658813,-10.017662 -2.062676,-11.283881 -2.604326,-1.23164 -5.583688,-1.917382 -7.363726,-4.380495 -5.424512,-1.677846 0.539961,5.876502 0.727866,8.339466 2.135946,6.469472 0.441341,13.373016 0.598952,20.034698 -0.728964,5.332032 0.617807,11.725413 -1.460168,16.39653 -2.173941,0.38109 -4.353622,1.397731 -6.526047,1.336801 l -0.205075,-0.297742 z"
       id="path6"
       style="display:inline;fill:#800000;stroke-width:1.61836" />
    <path
       fill="#b3b3b3"
       d="m 35.694706,9.3744059 c 2.321311,0.6195921 4.780305,0.8402501 7.002874,1.7459441 2.458523,3.466842 0.834563,8.199791 1.951754,11.719292 2.404081,2.34771 11.060777,0.808468 6.573251,5.472324 -2.482029,3.04779 -4.964057,6.09558 -7.446086,9.143372 0.193403,2.873345 3.719834,0.186981 5.561944,-0.0447 2.13734,1.883492 -1.695851,6.911888 -3.125282,9.475239 -2.926136,3.892809 -3.979444,8.71238 -3.900224,13.510682 -0.589804,6.96025 -0.400948,14.002382 -1.260002,20.922081 -0.542977,4.004994 -2.814803,2.87523 -3.07736,-0.265241 -0.696233,-2.637317 -1.809609,-5.192553 -2.204091,-7.889248 2.447238,-4.143496 5.366092,-12.621866 1.151656,-15.38942 -5.144941,4.371673 -8.982358,10.595793 -15.356418,13.309276 -2.036891,-5.383812 -0.753353,-12.432358 0.356609,-18.25139 3.826218,-3.544492 9.51516,-5.581703 12.603051,-10.294699 2.301974,-1.963047 4.63524,-7.400043 -0.686838,-4.630673 -5.415473,1.049212 -12.540069,0.369903 -15.642583,-4.827356 -2.865643,-6.542474 4.661553,0.473504 7.760109,-1.316662 5.308003,-0.727131 10.198863,-3.646112 14.020987,-7.295105 0.21882,-2.494283 0.321503,-5.114667 0.02476,-7.591677 C 37.51894,15.277449 28.724135,11.380094 34.571331,9.2650377 Z"
       id="path7"
       style="display:inline;fill:#d8b3b3;fill-opacity:1;stroke-width:1.61836" />
    <path
       fill="#b3b3b3"
       d="m 66.567156,63.251554 c 2.09675,-0.631373 4.367343,-0.83134 6.340167,-1.77025 0.870162,-9.17003 0.805545,-18.512223 1.260319,-27.750592 1.070646,-6.096786 -2.967125,-11.41851 -4.095888,-16.963725 3.138843,-0.484194 4.877862,3.505559 8.106985,3.986649 2.337746,1.026326 5.804756,1.948356 5.436399,5.226689 -2.723025,7.341739 -2.120752,15.246083 -2.612589,22.927649 -0.372007,9.822509 -0.627508,19.649377 -0.777163,29.477792 -2.173052,5.164565 -5.284285,-0.441279 -6.220009,-3.136225 -0.684037,-3.671077 -4.301531,-3.978002 -7.28795,-2.402639 -4.014625,0.43236 -6.313936,9.177588 -9.334218,2.79361 -4.442051,-5.142859 -1.733432,-12.173669 -1.618806,-18.193617 0.719677,-8.327121 0.978983,-16.812528 -0.802702,-25.030894 3.189455,-3.415972 7.606822,-7.09817 9.924979,-11.621868 2.155503,0.754801 3.886387,3.25057 2.97323,5.568489 -0.31191,2.757857 -1.200067,5.501428 -1.110913,8.269229 1.410442,1.773348 4.598916,1.728663 5.200634,4.103576 -1.594785,3.901346 -9.993336,7.986659 -2.817255,10.625431 3.254123,0.498901 4.140339,3.94886 0.285948,4.835321 -2.36461,1.306217 -5.889791,7.708014 -2.851168,9.055375 z"
       id="path8"
       style="display:inline;fill:#d8b3b3;fill-opacity:1;stroke-width:1.61836" />
  </g>
</svg>
