<?xml version="1.0" encoding="UTF-8" standalone="no"?>
<!-- Created with Inkscape (http://www.inkscape.org/) -->

<svg
   width="100"
   height="100"
   id="svg2"
   sodipodi:version="0.32"
   inkscape:version="1.3 (0e150ed6c4, 2023-07-21)"
   version="1.0"
   sodipodi:docname="wc.svg"
   inkscape:output_extension="org.inkscape.output.svg.inkscape"
   xmlns:inkscape="http://www.inkscape.org/namespaces/inkscape"
   xmlns:sodipodi="http://sodipodi.sourceforge.net/DTD/sodipodi-0.dtd"
   xmlns:xlink="http://www.w3.org/1999/xlink"
   xmlns="http://www.w3.org/2000/svg"
   xmlns:svg="http://www.w3.org/2000/svg"
   xmlns:rdf="http://www.w3.org/1999/02/22-rdf-syntax-ns#"
   xmlns:cc="http://creativecommons.org/ns#"
   xmlns:dc="http://purl.org/dc/elements/1.1/">
  <defs
     id="defs4">
    <linearGradient
       id="linearGradient3214">
      <stop
         style="stop-color:#c6c600;stop-opacity:1;"
         offset="0"
         id="stop3216" />
      <stop
         style="stop-color:#ffff00;stop-opacity:1;"
         offset="1"
         id="stop3218" />
    </linearGradient>
    <linearGradient
       id="linearGradient3202">
      <stop
         style="stop-color:#ff0000;stop-opacity:1;"
         offset="0"
         id="stop3204" />
      <stop
         style="stop-color:#bd0000;stop-opacity:1;"
         offset="1"
         id="stop3206" />
    </linearGradient>
    <linearGradient
       id="linearGradient3194">
      <stop
         style="stop-color:#dedede;stop-opacity:1;"
         offset="0"
         id="stop3196" />
      <stop
         style="stop-color:#989898;stop-opacity:1;"
         offset="1"
         id="stop3198" />
    </linearGradient>
    <inkscape:perspective
       sodipodi:type="inkscape:persp3d"
       inkscape:vp_x="0 : 556.18109 : 1"
       inkscape:vp_y="0 : 1000 : 0"
       inkscape:vp_z="744.09448 : 556.18109 : 1"
       inkscape:persp3d-origin="372.04724 : 380.78739 : 1"
       id="perspective10" />
    <linearGradient
       inkscape:collect="always"
       xlink:href="#linearGradient3202"
       id="linearGradient3208"
       x1="42.241379"
       y1="32.741379"
       x2="115.51724"
       y2="62.051723"
       gradientUnits="userSpaceOnUse"
       gradientTransform="translate(-32.758621,-3.8793108)" />
  </defs>
  <sodipodi:namedview
     id="base"
     pagecolor="#ffffff"
     bordercolor="#666666"
     borderopacity="1.0"
     gridtolerance="10000"
     guidetolerance="10"
     objecttolerance="10"
     inkscape:pageopacity="0.0"
     inkscape:pageshadow="2"
     inkscape:zoom="3.2809755"
     inkscape:cx="33.679008"
     inkscape:cy="72.387008"
     inkscape:document-units="px"
     inkscape:current-layer="layer1"
     showgrid="false"
     inkscape:window-width="1366"
     inkscape:window-height="715"
     inkscape:window-x="144"
     inkscape:window-y="892"
     inkscape:showpageshadow="2"
     inkscape:pagecheckerboard="0"
     inkscape:deskcolor="#d1d1d1"
     inkscape:window-maximized="1" />
  <metadata
     id="metadata7">
    <rdf:RDF>
      <cc:Work
         rdf:about="">
        <dc:format>image/svg+xml</dc:format>
        <dc:type
           rdf:resource="http://purl.org/dc/dcmitype/StillImage" />
      </cc:Work>
    </rdf:RDF>
  </metadata>
  <g
     inkscape:label="Layer 1"
     inkscape:groupmode="layer"
     id="layer1">
    <g
       stroke-width="2"
       fill="none"
       stroke-linecap="butt"
       id="g9"
       transform="matrix(1.6177362,0,0,1.6160478,-1.8263326,-1.5858354)">
      <path
         stroke="#985a5a"
         vector-effect="non-scaling-stroke"
         d="m 11.1,48.79 c -0.856667,0.613333 -1.7133333,1.226667 -2.57,1.84 0.1548703,1.564143 2.037554,-0.50074 2.98878,-0.856898 L 11.667531,49.68152 11.67,49.68"
         id="path1" />
      <path
         stroke="#690000"
         vector-effect="non-scaling-stroke"
         d="m 11.67,49.68 c 7.651856,8.687856 21.31526,12.314598 31.740499,6.565761 C 44.729277,55.534895 45.978334,54.695805 47.14,53.75"
         id="path2" />
      <path
         stroke="#985a5a"
         vector-effect="non-scaling-stroke"
         d="m 47.14,53.75 c 3.652949,-0.816026 8.302396,-2.478773 9.116719,-6.639609 C 56.443745,45.988897 56.320583,44.837092 56.05,43.74"
         id="path3" />
      <path
         stroke="#690000"
         vector-effect="non-scaling-stroke"
         d="M 56.05,43.74 C 59.835598,37.047935 60.281821,28.586211 56.823215,21.666284 52.270412,11.258187 40.897326,4.0770134 29.472402,5.3658203 18.994221,6.2376127 9.5115311,13.822023 6.3974467,23.867437 3.5656323,32.270406 5.3217994,42.026417 11.1,48.79"
         id="path4" />
      <path
         stroke="#aa5a5a"
         vector-effect="non-scaling-stroke"
         d="m 56.05,43.74 c -1.015821,-1.194282 -1.865393,-2.576714 -3,-3.6375 0.742035,2.706705 1.764674,6.865237 -1.668721,8.226055 C 45.517161,51.753747 37.789034,51.607925 32.16,47.7825 c -1.393546,-2.44312 -1.656873,-6.599161 1.605996,-7.674648 2.139138,-0.47017 5.207047,-1.932603 6.927046,-0.02573 1.145653,1.162626 2.291305,2.325251 3.436958,3.487876 2.904013,-0.733756 3.28968,-5.771657 4.467305,-8.525977 1.042851,-2.848155 0.651942,-6.111264 1.774467,-8.842465 1.146673,-0.907481 0.250647,-1.942898 -0.782554,-2.398737 C 48.201962,22.892025 46.927595,21.775655 45.4675,20.9975 41.831087,22.218915 37.870835,23.374039 34.03,22.85 c -0.160116,-3.029112 2.592492,-5.212859 3.65,-7.66 -1.376671,-2.638847 -4.62249,-6.2645111 -7.255,-6.0975 2.753635,1.313782 2.820013,4.594951 2.215459,7.178164 -0.951961,6.65316 -4.100283,12.873318 -8.605459,17.824336 2.234156,1.432317 4.346914,-5.012649 5.892969,-0.989688 1.640365,2.877526 -0.529108,5.989626 -0.621614,8.98137 -0.229062,2.77762 -0.825586,6.333149 1.533645,8.383318 4.780011,3.129335 10.711557,3.931202 16.3,3.28"
         id="path5" />
      <path
         stroke="#aa5a5a"
         vector-effect="non-scaling-stroke"
         d="m 11.67,49.68 c 3.295997,-1.413911 5.140136,-6.110227 7.88,-6.99 1.133333,1.986667 2.266667,3.973333 3.4,5.96 3.215608,1.812589 3.525925,-4.522234 2.81813,-6.725574 -1.240957,-2.590161 -6.944918,-1.079149 -4.879224,-5.113957 0.216924,-3.011472 1.681551,-5.683446 3.714492,-7.850469 0.765797,-1.13055 3.752841,-3.507995 0.835935,-3.520378 C 24.354232,25.232473 22.1921,25.226074 23.06701,23.575819 23.415159,22.284305 24.049462,21.046746 24.1975,19.7175 22.128043,17.426618 19.650543,15.476397 17.42,13.32 c -0.544208,2.320145 3.850734,5.840269 2.982373,9.275154 -0.125708,7.73029 -0.207739,16.330789 -5.450582,22.577429 C 13.82518,46.533023 12.516612,47.737248 11.1,48.79"
         id="path6" />
      <path
         stroke="#aa5a5a"
         vector-effect="non-scaling-stroke"
         d="m 16.1,26.54 c -0.73,-1.506667 -1.46,-3.013333 -2.19,-4.52 -1.529316,-0.256935 -0.155891,2.218459 -0.935653,3.111999 -1.113687,2.05143 -2.485264,3.987015 -3.421847,6.118001 0.683583,2.512938 1.842113,4.898501 2.7175,7.36 2.325987,3.126434 4.043191,-0.779162 4.255768,-2.929503 0.72581,-2.996772 1.576882,-5.969982 2.222982,-8.981747 C 18.182567,25.767149 16.648902,27.959714 16.1,26.54 Z"
         id="path7" />
      <path
         stroke="#aa5a5a"
         vector-effect="non-scaling-stroke"
         d="m 45.45,30.62 c -1.374303,1.373855 -2.947427,2.573596 -4.1875,4.065 -0.185878,1.265095 0.02747,2.557758 0.0175,3.835 2.162302,4.275228 4.656201,-1.376359 5.245825,-3.667271 C 47.705524,31.481957 48.510875,26.876442 45.39,24.28 43.892851,23.761271 42.241871,24.560495 40.676891,24.657483 37.932434,25.161758 35.129947,25.444318 32.4225,26.09 c -0.574681,0.932176 -2.660602,2.515348 -1.521875,3.42 3.163007,0.19075 5.67283,-1.971381 8.234144,-3.38278 2.153261,0.530623 3.773367,2.237256 5.67139,3.330871 0.367313,0.257862 1.150465,0.595682 0.643841,1.161909 z"
         id="path8" />
      <path
         stroke="#aa5a5a"
         vector-effect="non-scaling-stroke"
         d="m 34.04,34.58 c 2.233876,0.317428 3.944916,-4.110649 0.735,-2.3475 -1.234166,0.231467 -4.349609,2.407493 -0.735,2.3475 z"
         id="path9" />
    </g>
    <path
       fill="#570000"
       d="M 99.89692,50.337778 C 101.31128,84.535966 61.910777,110.83506 30.82401,96.44265 -1.345255,84.660902 -10.589916,38.233354 14.617217,15.050633 35.988782,-8.11243 77.34888,-2.5425437 92.624338,24.408696 c 4.739951,7.762007 7.285264,16.836825 7.272582,25.929082 z M 16.130539,77.261133 c -1.385861,0.991171 -2.771721,1.982358 -4.157581,2.973528 0.250539,2.527725 3.296224,-0.80922 4.835058,-1.384791 4.003454,3.453655 8.583667,7.817775 13.808893,10.178014 13.714055,7.230294 31.761911,6.429414 43.816843,-3.751155 C 80.343262,83.957986 87.864845,81.270919 89.1822,74.546803 87.977505,68.284619 92.243054,63.320152 93.210363,57.204721 96.910676,38.880404 85.529029,19.772982 69.274143,11.524853 51.966804,2.3335344 28.894383,7.3098933 16.58411,22.424982 4.9722652,35.951269 2.8798045,56.932012 12.455515,72.130634 c 1.096374,1.797449 2.327744,3.512319 3.675024,5.130499 z"
       id="path10"
       style="stroke-width:1.61689" />
    <path
       fill="#7b0000"
       d="m 88.847782,69.100093 c -1.643329,-1.930014 -3.017709,-4.164087 -4.853208,-5.878375 1.200424,4.374157 2.85477,11.094556 -2.699549,13.29369 -9.486598,5.535286 -21.988669,5.299618 -31.094962,-0.882443 -2.254389,-3.948198 -2.680383,-10.664558 2.598079,-12.402601 3.460561,-0.759817 8.423628,-3.123174 11.206132,-0.04153 1.853365,1.878867 3.706728,3.757715 5.560092,5.636581 4.697927,-1.18579 5.321835,-9.327278 7.226913,-13.778391 1.687073,-4.602745 1.054684,-9.876087 2.870625,-14.289837 1.995736,-1.587282 0.14592,-3.215159 -1.496649,-4.039537 -2.167104,-1.417904 -4.152288,-3.166792 -6.437167,-4.370473 -5.882756,1.973858 -12.289399,3.840603 -18.502857,2.99373 -0.259026,-4.895187 4.193967,-8.424231 5.904737,-12.378927 -2.227091,-4.264507 -7.47797,-10.123747 -11.736676,-9.853851 4.454655,2.123132 4.562036,7.42566 3.584028,11.60025 -1.540023,10.751824 -6.633176,20.803899 -13.921362,28.804984 3.614274,2.314697 7.03216,-8.100682 9.533268,-1.599387 2.653678,4.650227 -0.855957,9.679529 -1.005607,14.514324 -0.370562,4.488765 -1.335581,10.234672 2.481033,13.547844 7.723927,5.04918 17.336423,6.359747 26.3691,5.300638 C 61.844069,95.926359 42.810627,96.24897 28.85861,88.091986 25.120952,85.576251 17.969492,81.778249 17.879084,78.12868 c 4.966039,-2.224005 7.663665,-9.584876 11.921326,-10.725386 1.833434,3.210554 3.66687,6.421091 5.500303,9.631645 5.189821,3.011666 5.417855,-6.770432 4.790585,-10.258719 -1.330175,-5.036139 -11.632006,-2.045982 -8.12489,-8.874527 0.350925,-4.866679 2.720304,-9.184726 6.009067,-12.686734 1.238857,-1.827022 6.071107,-5.66908 1.352323,-5.689102 -1.590499,-0.386996 -5.097301,-0.221657 -3.92556,-2.743661 0.590933,-2.176882 1.649971,-4.265591 1.916602,-6.503558 -3.347836,-3.702171 -7.355778,-6.853821 -10.964208,-10.338666 -0.880384,3.749474 6.229472,9.438156 4.824693,14.989086 -0.203362,12.492518 -0.336066,26.391336 -8.817604,36.486204 -2.572111,2.792336 -6.653176,8.57588 -8.781415,2.461483 C 3.3491307,59.319497 4.2889517,38.512931 14.978431,24.463546 26.452447,8.4726719 49.511754,2.2220594 67.403721,10.630968 c 16.694128,7.482123 28.736476,26.13062 26.152871,44.599637 -0.715008,4.859456 -2.412369,9.539433 -4.70881,13.869536 z M 24.21922,41.304071 c -1.180947,-2.43485 -2.361894,-4.869685 -3.542842,-7.304535 -2.47403,-0.415228 -0.25219,3.585137 -1.51364,5.02914 -1.801652,3.315209 -4.020502,6.443199 -5.535645,9.88698 1.105856,4.061031 2.980053,7.916209 4.396198,11.894112 3.762833,5.052459 6.540816,-1.25916 6.884709,-4.734212 1.17417,-4.842924 2.550979,-9.647774 3.596199,-14.514937 -0.915935,-1.50551 -3.397,2.037772 -4.284979,-0.256548 z"
       id="path11"
       style="stroke-width:1.61689" />
    <path
       fill="#d8b3b3"
       d="m 88.847782,69.100093 c 1.564285,4.742291 -0.439458,10.207797 -4.916916,12.549628 -8.741339,5.403854 -19.965566,4.782677 -29.37865,1.574726 -4.522372,-1.497963 -9.681656,-4.359936 -9.276926,-9.870336 -0.518499,-5.903519 1.374043,-11.599683 2.331203,-17.328362 0.463943,-3.238883 -3.445825,-9.650617 -5.785039,-4.144144 -2.083794,2.22011 -7.023623,2.755701 -2.927913,-0.541619 7.593015,-9.059063 12.429231,-20.729254 12.519319,-32.60352 1.128988,-2.70381 -7.509781,-7.598414 -1.662477,-5.292799 4.073624,2.508203 12.654497,8.496177 7.078355,13.157409 -2.04677,2.582863 -6.953366,11.041807 0.348191,8.920389 5.498729,0.910077 11.219511,-4.048911 16.076508,-2.27567 2.403194,1.761266 4.939999,3.367536 7.261353,5.223777 -0.867203,2.766254 -2.490553,5.728744 -2.207822,9.076225 -1.024901,7.309545 -3.329738,14.432842 -6.752787,20.972518 -2.242867,1.610909 -3.670336,-1.929189 -5.361733,-3.111247 -1.867048,-1.576083 -3.283525,-4.613882 -6.230669,-3.613985 -4.322477,0.341537 -10.64821,1.181478 -11.304884,6.522726 -1.364625,6.962611 5.156079,10.35678 10.99762,11.388271 8.156476,2.039921 17.223361,0.154495 23.969871,-4.784665 3.293485,-3.094683 0.502729,-8.793999 0.649246,-11.559315 1.583068,1.864402 3.04293,3.832442 4.57415,5.739993 z M 71.699778,47.897545 c -2.223259,2.220208 -4.768159,4.159062 -6.774271,6.569235 -0.3007,2.044462 0.04444,4.133463 0.02831,6.197543 3.200557,6.740761 7.338274,-1.510892 8.194691,-5.109895 2.086718,-5.645081 3.729739,-13.458897 -1.545796,-17.902625 -2.421991,-0.838291 -5.092842,0.453286 -7.624567,0.610026 -4.439807,0.814941 -8.973492,1.271571 -13.353426,2.315021 -0.929683,1.506447 -4.304153,4.064926 -2.461993,5.526883 5.116912,0.308261 9.177143,-3.185844 13.320674,-5.466734 3.483407,0.857507 6.104312,3.615519 9.174812,5.382845 0.594215,0.416714 1.861149,0.962648 1.041566,1.877701 z m -18.45837,6.39955 c 5.606341,-0.611367 4.848394,-7.254648 -0.562669,-3.085391 -2.298172,0.933106 -3.23183,3.456112 0.562669,3.085391 z"
       id="path12"
       style="stroke-width:1.61689" />
    <path
       fill="#d8b3b3"
       d="m 17.052649,78.699416 c -1.445177,0.888826 -2.890356,1.777652 -4.335533,2.666478 -2.217839,-1.225158 2.033338,-2.727015 3.161987,-3.924927 8.843464,-6.018905 13.589977,-16.423118 14.507483,-26.849777 0.53631,-6.570267 1.24012,-13.270386 0.420865,-19.82375 -0.267262,-3.486445 -6.294155,-9.072928 -4.244716,-10.636535 3.446512,3.163042 6.893024,6.3261 10.339538,9.489142 0.952722,1.91201 -0.766915,4.013858 -1.119945,6.000013 -1.496352,2.246549 0.259301,3.852189 2.634145,3.737595 3.35767,-0.159828 3.893039,1.926814 1.079169,3.982636 -3.38737,4.008526 -7.054495,8.216116 -7.390744,13.729974 -1.286891,3.387333 -0.853785,6.521852 3.534186,6.313398 6.076033,0.794707 5.123233,7.821267 3.782243,12.036792 -0.952831,4.987996 -5.091184,1.31341 -5.940971,-1.573222 -1.226648,-2.147987 -2.453298,-4.295989 -3.679946,-6.443991 -4.081703,0.862501 -6.505807,7.986815 -11.112332,10.136159 l -0.808994,0.589227 z"
       id="path13"
       style="stroke-width:1.61689" />
    <path
       fill="#d8b3b3"
       d="m 25.901666,41.93433 c 2.625068,-1.935863 2.89524,0.625718 1.899636,2.721586 -1.334231,5.266102 -2.668462,10.53222 -4.002693,15.798321 -3.114853,5.476349 -6.647434,-0.446854 -7.406327,-3.857119 -0.88233,-2.571051 -2.189327,-5.028315 -2.765189,-7.681462 1.608147,-3.768187 4.226455,-7.094482 5.933048,-10.811359 -0.132655,-1.470572 -0.44784,-6.030832 1.485893,-3.342618 1.345801,2.37349 2.113091,5.207423 3.868813,7.257493 l 0.45701,0.05753 z"
       id="path14"
       style="stroke-width:1.61689" />
    <path
       fill="#7b0000"
       d="m 71.602713,46.653189 c -2.739365,-1.836913 -5.478732,-3.67381 -8.218099,-5.510723 -5.110922,-0.659655 -8.938104,5.584512 -14.648349,5.001668 -3.071784,-0.466844 0.630557,-3.62027 1.350557,-5.050149 2.159022,-1.491564 5.132875,-1.163263 7.660828,-1.818942 4.389547,-0.615489 8.753414,-1.622722 13.159438,-1.986851 5.336684,3.235409 4.687212,10.609225 3.070095,15.77825 -0.876225,4.210613 -5.536954,15.18828 -9.042194,7.033606 0.118941,-2.513181 -1.025897,-5.693062 1.536037,-7.316624 1.781987,-1.796771 3.870163,-3.35338 5.461698,-5.299505 l -0.03656,-0.468784 z"
       id="path15"
       style="stroke-width:1.61689" />
    <path
       fill="#7b0000"
       d="m 53.241408,54.297095 c -8.121277,-0.242424 6.625323,-7.946608 3.77337,-2.275589 -0.776389,1.343889 -2.276305,2.081033 -3.77337,2.275589 z"
       id="path16"
       style="stroke-width:1.61689" />
  </g>
</svg>
