<?xml version="1.0" encoding="UTF-8" standalone="no"?>
<!-- Created with Inkscape (http://www.inkscape.org/) -->

<svg
   width="100"
   height="100"
   id="svg2"
   sodipodi:version="0.32"
   inkscape:version="1.3 (0e150ed6c4, 2023-07-21)"
   version="1.0"
   sodipodi:docname="wk.svg"
   inkscape:output_extension="org.inkscape.output.svg.inkscape"
   xmlns:inkscape="http://www.inkscape.org/namespaces/inkscape"
   xmlns:sodipodi="http://sodipodi.sourceforge.net/DTD/sodipodi-0.dtd"
   xmlns:xlink="http://www.w3.org/1999/xlink"
   xmlns="http://www.w3.org/2000/svg"
   xmlns:svg="http://www.w3.org/2000/svg"
   xmlns:rdf="http://www.w3.org/1999/02/22-rdf-syntax-ns#"
   xmlns:cc="http://creativecommons.org/ns#"
   xmlns:dc="http://purl.org/dc/elements/1.1/">
  <defs
     id="defs4">
    <linearGradient
       id="linearGradient3214">
      <stop
         style="stop-color:#c6c600;stop-opacity:1;"
         offset="0"
         id="stop3216" />
      <stop
         style="stop-color:#ffff00;stop-opacity:1;"
         offset="1"
         id="stop3218" />
    </linearGradient>
    <linearGradient
       id="linearGradient3202">
      <stop
         style="stop-color:#ff0000;stop-opacity:1;"
         offset="0"
         id="stop3204" />
      <stop
         style="stop-color:#bd0000;stop-opacity:1;"
         offset="1"
         id="stop3206" />
    </linearGradient>
    <linearGradient
       id="linearGradient3194">
      <stop
         style="stop-color:#dedede;stop-opacity:1;"
         offset="0"
         id="stop3196" />
      <stop
         style="stop-color:#989898;stop-opacity:1;"
         offset="1"
         id="stop3198" />
    </linearGradient>
    <inkscape:perspective
       sodipodi:type="inkscape:persp3d"
       inkscape:vp_x="0 : 556.18109 : 1"
       inkscape:vp_y="0 : 1000 : 0"
       inkscape:vp_z="744.09448 : 556.18109 : 1"
       inkscape:persp3d-origin="372.04724 : 380.78739 : 1"
       id="perspective10" />
    <linearGradient
       inkscape:collect="always"
       xlink:href="#linearGradient3202"
       id="linearGradient3208"
       x1="42.241379"
       y1="32.741379"
       x2="115.51724"
       y2="62.051723"
       gradientUnits="userSpaceOnUse"
       gradientTransform="translate(-32.758621,-3.8793108)" />
  </defs>
  <sodipodi:namedview
     id="base"
     pagecolor="#ffffff"
     bordercolor="#666666"
     borderopacity="1.0"
     gridtolerance="10000"
     guidetolerance="10"
     objecttolerance="10"
     inkscape:pageopacity="0.0"
     inkscape:pageshadow="2"
     inkscape:zoom="2.7559968"
     inkscape:cx="50.25405"
     inkscape:cy="71.661912"
     inkscape:document-units="px"
     inkscape:current-layer="layer1"
     showgrid="false"
     inkscape:window-width="980"
     inkscape:window-height="995"
     inkscape:window-x="-8"
     inkscape:window-y="11"
     inkscape:showpageshadow="2"
     inkscape:pagecheckerboard="0"
     inkscape:deskcolor="#d1d1d1"
     inkscape:window-maximized="0" />
  <metadata
     id="metadata7">
    <rdf:RDF>
      <cc:Work
         rdf:about="">
        <dc:format>image/svg+xml</dc:format>
        <dc:type
           rdf:resource="http://purl.org/dc/dcmitype/StillImage" />
      </cc:Work>
    </rdf:RDF>
  </metadata>
  <g
     inkscape:label="Layer 1"
     inkscape:groupmode="layer"
     id="layer1">
    <g
       stroke-width="2"
       fill="none"
       stroke-linecap="butt"
       id="g5"
       transform="matrix(1.6118581,0,0,1.6043184,-1.9704784,-2.2919859)">
      <path
         stroke="#1a1a1a"
         vector-effect="non-scaling-stroke"
         d="M 58.87,32.6 C 59.13152,19.692065 48.807507,7.6953443 36.004766,6.0301157 18.149097,2.6121711 1.0055822,20.963804 5.803687,38.579137 9.2321522,57.317473 34.389528,66.12042 48.753171,53.607812 55.085099,48.618729 58.917271,40.661143 58.87,32.6 Z"
         id="path1"
         style="display:inline" />
      <path
         stroke="#5a5a5a"
         vector-effect="non-scaling-stroke"
         d="m 42.47,35.69 c 0.563755,1.273728 0.504855,2.936994 1.578289,3.891863 2.453852,-1.297999 3.689217,-4.332031 4.999694,-6.711355 0.477647,-3.0201 3.005196,-6.174995 3.22312,-8.686441 C 50.697195,23.064111 49.260089,21.721651 47.595,20.75 c -1.809288,0.02076 -3.574734,0.786085 -5.375,0.78 -1.680931,-3.866136 2.416152,-8.122427 0.31,-11.41 -1.616406,-0.7812895 -3.114406,-2.0219469 -4.815,-2.4825 0.318536,2.545544 1.239557,5.146201 1.322461,7.791582 -0.24328,2.303575 1.127595,5.893596 -1.069023,7.305762 -2.449467,1.77551 -4.081319,-3.311811 -5.621563,0.04891 -0.970035,2.095494 -6.405656,2.320265 -4.794688,4.858438 2.521801,1.948175 2.942097,5.473329 4.146407,8.259453 0.301714,1.34315 0.981124,4.06272 2.045468,1.406015 0.842731,-2.267035 -0.304347,-4.720815 -0.164179,-7.080703 0.01784,-2.390397 -0.941335,-7.587909 2.887617,-5.301953 4.205286,-1.817647 2.008755,3.990357 2.534851,6.382319 0.09254,6.091519 -0.201999,12.210051 0.227805,18.283462 0.152834,1.935175 1.69805,4.248584 1.515757,1.216565 C 41.163942,45.784897 41.581971,40.762449 42,35.74 l 0.214037,-0.222055 z"
         id="path2"
         style="display:inline" />
      <path
         stroke="#5a5a5a"
         vector-effect="non-scaling-stroke"
         d="M 18.07,35.94 C 18.005833,34.753441 17.648962,33.069242 19.294896,32.942936 21.519931,32.168624 23.744965,31.394312 25.97,30.62 c 1.03889,-1.167753 -1.130833,-2.143407 -1.626875,-3.2175 0.02473,-1.236389 1.363156,-2.061326 1.976291,-3.103853 1.113943,-1.374181 3.279182,-3.557903 0.898202,-4.939037 -2.366263,-0.341514 -4.794559,0.02574 -7.187618,-0.0096 -1.877402,1.952907 2.144856,3.547118 3.48625,3.77125 -0.667089,2.028721 -4.052822,5.082331 -5.66625,3.35875 1.198802,-2.751036 -0.04878,-5.777548 -0.65875,-8.27 2.852132,-1.380082 6.019352,-2.453297 8.404375,-4.58 C 25.983483,11.797705 23.270902,8.6176843 21.7,8.78 c -0.977082,4.323383 -4.974343,6.636109 -8.251523,9.088926 -2.219632,1.157724 -1.141871,2.283658 0.763043,1.861074 2.129668,-0.424121 2.864775,1.824629 2.566294,3.571519 -0.07078,2.467147 0.133566,4.962063 -0.117814,7.410981 -1.940332,2.050762 0.802823,4.826156 -0.146719,7.499883 0.0028,3.275518 -0.718516,6.499722 -0.990781,9.735117 2.015376,3.008188 6.813423,0.133895 9.76168,-0.294727 4.319024,-0.507281 -1.230456,-4.904584 1.091914,-7.408398 0.639598,-1.991505 4.553726,-3.640623 1.165254,-5.324629 -2.569093,-1.203114 -5.185231,0.811402 -7.755254,1.189981 C 19.281776,36.132068 18.108843,36.919715 18.07,35.94 Z"
         id="path3"
         style="display:inline" />
      <path
         stroke="#5a5a5a"
         vector-effect="non-scaling-stroke"
         d="M 46.35,35.43 C 48.225672,32.339484 50.571889,28.40506 48.796114,24.771695 47.572399,22.055476 43.937544,22.378752 41.9525,23.96 c -0.195366,3.213911 -1.210992,6.890966 0.663594,9.809844 0.850711,0.973144 2.376219,2.457794 3.733906,1.660156 z"
         id="path4"
         style="display:inline" />
      <path
         stroke="#5a5a5a"
         vector-effect="non-scaling-stroke"
         d="m 22.57,41.27 c 0.921807,-0.786829 1.52747,-1.914 2.32,-2.84 0.0083,-1.64338 -2.203829,-0.186447 -3.253852,-0.13228 C 20.550765,38.581813 19.465383,38.865907 18.38,39.15 17.823315,39.899206 17.469328,42.558804 18.977953,42.211427 20.175302,41.897618 21.372651,41.583809 22.57,41.27 Z"
         id="path5"
         style="display:inline" />
    </g>
    <path
       fill="#333333"
       d="M 99.383154,50.008794 C 100.79237,83.958773 61.535037,110.06698 30.561227,95.779037 -1.4911494,84.082802 -10.702218,37.992226 14.413322,14.977763 35.707232,-8.0171807 76.917047,-2.4877288 92.137,24.267907 c 4.722733,7.70567 7.258785,16.714623 7.246154,25.740887 z m -6.46355,0 C 93.341137,29.300365 76.700294,10.05379 56.064093,7.3822468 27.283289,1.8987666 -0.34962288,31.340625 7.3842406,59.601239 12.91044,89.663488 53.460559,103.78622 76.612712,83.712012 86.81888,75.707938 92.995798,62.94143 92.919604,50.008794 Z"
       id="path6"
       style="display:inline;fill:#570000;fill-opacity:1;stroke-width:1.60808" />
    <path
       fill="#000000"
       d="M 92.919604,50.008794 C 94.252878,80.541268 57.876807,103.29096 30.817203,88.847788 2.6006267,76.795874 -2.2094734,34.304748 22.605245,16.305578 44.042713,-2.3060557 80.606064,8.1303565 89.925703,34.259666 91.900805,39.261835 92.92209,44.6342 92.919604,50.008794 Z m -26.434471,4.957345 c 0.908692,2.043469 0.813754,4.711866 2.543977,6.243782 4.074619,-2.339882 6.308588,-7.318981 8.343053,-11.48339 0.539769,-4.655812 4.786534,-9.377065 4.910955,-13.219568 -2.536916,-1.796773 -4.853326,-3.950505 -7.537213,-5.509342 -2.916315,0.03337 -5.761965,1.261123 -8.663737,1.251368 -2.709423,-6.202519 3.894493,-13.030963 0.499675,-18.305272 -2.605417,-1.253439 -5.019979,-3.243852 -7.761096,-3.982721 0.513435,4.083857 1.997991,8.256143 2.13162,12.500176 -0.392133,3.695675 1.817522,9.455211 -1.723116,11.720764 -3.948191,2.848484 -6.578505,-5.313196 -9.061159,0.07845 -1.563558,3.361834 -10.325009,3.722452 -7.728356,7.794485 4.064784,3.125487 4.742242,8.780966 6.683419,13.250789 0.48632,2.154839 1.581432,6.517896 3.297005,2.255704 1.358362,-3.637054 -0.490565,-7.5737 -0.264634,-11.359714 0.02875,-3.834947 -1.517299,-12.173425 4.654429,-8.506017 6.778324,-2.916089 3.237827,6.40181 4.08582,10.239275 0.14916,9.772737 -0.325594,19.588807 0.367189,29.332491 0.246346,3.104645 2.737015,6.816076 2.443184,1.951766 0.673804,-8.057593 1.347607,-16.115202 2.021411,-24.172811 l 0.344997,-0.356251 z m -39.329337,0.401079 c -0.103428,-1.90362 -0.678654,-4.605613 1.974358,-4.808238 3.586441,-1.242256 7.172881,-2.484496 10.75932,-3.726736 1.674544,-1.873443 -1.822741,-3.438712 -2.622291,-5.161895 0.03987,-1.983562 2.197214,-3.307028 3.185501,-4.979563 1.795518,-2.204623 5.285575,-5.70802 1.447774,-7.923793 -3.81408,-0.54789 -7.728149,0.04123 -11.58542,-0.01604 -3.026105,3.13309 3.457204,5.690711 5.61934,6.050286 -1.075253,3.254714 -6.532574,8.153676 -9.13319,5.388504 1.932298,-4.413544 -0.07863,-9.269029 -1.061813,-13.267712 4.597233,-2.214089 9.702342,-3.935875 13.54666,-7.347778 0.625172,-2.939578 -3.747124,-8.041359 -6.279194,-7.780946 -1.574917,6.936079 -8.017935,10.646435 -13.300283,14.581538 -3.577732,1.857352 -1.840535,3.663702 1.229916,2.98575 3.432723,-0.680424 4.617611,2.927286 4.136501,5.729854 -0.114092,3.958094 0.21529,7.960725 -0.189898,11.889572 -3.127541,3.290073 1.294036,7.742697 -0.236491,12.032196 0.0045,5.254977 -1.158146,10.427638 -1.596999,15.618232 3.248501,4.826095 10.982272,0.214818 15.734443,-0.47284 6.961654,-0.813838 -1.983321,-7.868508 1.76001,-11.885433 1.030941,-3.195 7.339961,-5.840714 1.878225,-8.542387 -4.141014,-1.930186 -8.357857,1.301745 -12.500369,1.909108 -0.812889,0.03578 -2.70349,1.299483 -2.7661,-0.272301 z"
       id="path7"
       style="display:inline;fill:#800000;stroke-width:1.60808" />
    <path
       fill="#b3b3b3"
       d="M 65.727559,55.046355 C 64.94689,64.018281 64.286595,73.005432 63.430661,81.967828 60.323413,79.102244 61.086196,72.909863 60.935304,68.576776 60.879414,58.259099 60.892444,47.941213 60.908114,37.623457 58.915803,36.653695 55.301917,38.48504 52.872402,36.638919 51.335274,41.26789 52.25519,46.56851 52.57388,51.450708 c 0.804263,2.287709 0.530742,8.240743 -2.255673,7.654572 -1.80127,-5.414254 -3.289309,-11.114253 -6.450455,-15.923854 -6.149142,-3.671162 3.184111,-5.364826 5.326939,-8.031122 2.083859,-2.57307 3.804585,-4.148816 6.154023,-0.829995 6.43234,2.254405 6.11262,-5.03257 5.763337,-9.12703 -0.117758,-5.039775 -1.124924,-10.004885 -2.426286,-14.856262 1.432573,-0.8035717 3.462899,1.466747 5.117245,2.050911 4.522602,1.394459 4.854397,6.063522 2.66677,9.852618 -0.28976,2.754614 -2.992471,11.061647 1.885235,9.778112 2.376659,-0.176956 4.86902,-1.553446 7.156532,-0.652043 2.391245,1.921042 5.024416,3.603652 7.266637,5.671554 -2.848719,4.395961 -4.290291,9.817803 -6.327036,14.749222 -2.137311,2.944486 -4.417838,9.966411 -8.289673,8.617387 -0.558778,-1.812879 -1.117554,-3.625759 -1.676332,-5.438639 l -0.412577,-0.27604 z m 7.011582,-0.497339 c 3.023317,-4.958179 6.805085,-11.270241 3.942788,-17.099324 -1.972454,-4.357664 -7.831325,-3.839036 -11.030933,-1.302209 -0.314902,5.156135 -1.951948,11.05531 1.069618,15.738108 1.371226,1.561242 3.830129,3.943093 6.018527,2.663425 z"
       id="path8"
       style="display:inline;fill:#d8b3b3;fill-opacity:1;stroke-width:1.60808" />
    <path
       fill="#b3b3b3"
       d="m 28.171267,56.105206 c 4.226697,-0.800459 8.216126,-2.995794 12.537831,-3.032002 4.030875,0.680182 5.443523,4.803553 1.353803,6.652498 -4.342568,3.799876 -0.639609,9.801584 -0.690517,13.497581 -5.455939,1.815622 -11.374848,4.063416 -17.147147,3.191583 -2.7542,-3.406322 0.486849,-8.327472 0.121143,-12.403067 0.27569,-4.021481 0.601828,-8.108193 0.11359,-12.113919 -2.78317,-2.891704 1.752409,-5.451698 0.603941,-8.870308 0.0042,-3.673072 0.0084,-7.346159 0.01261,-11.01923 -0.614166,-3.700328 -4.633171,-2.407569 -7.237242,-2.647124 -0.24886,-3.289336 6.206529,-5.331505 8.603293,-7.967448 4.07615,-2.020654 4.991383,-8.092711 7.837659,-9.920703 1.689486,2.561711 6.67563,5.267587 4.613943,8.583102 -4.004947,3.105191 -9.053837,4.706541 -13.358274,7.155261 2.269467,4.253289 2.275911,9.276779 1.459621,13.847531 3.810677,0.482915 8.075094,-2.97776 8.87239,-6.63612 -2.933927,1.047909 -9.049201,-4.311333 -4.9899,-5.685383 3.669142,0.06691 7.396756,-0.531223 11.022468,0.02952 3.854651,2.235683 0.311751,5.74638 -1.483927,7.969403 -0.975172,1.657774 -3.123644,2.964702 -3.149347,4.933954 0.797506,1.723343 4.299275,3.287617 2.622291,5.161895 -4.200347,1.588307 -8.634114,2.720891 -12.685323,4.600382 0.03203,1.256374 -0.84708,4.653279 0.967115,4.672578 z m 6.23789,7.81303 c 1.485823,-1.262326 2.462065,-3.070666 3.739511,-4.556265 0.01338,-2.636504 -3.55226,-0.299126 -5.244747,-0.212218 -1.749483,0.45577 -3.498966,0.911557 -5.248449,1.367327 -0.963764,1.274744 -1.456926,5.800286 1.236183,4.840453 1.839167,-0.479771 3.678336,-0.959526 5.517502,-1.439297 z"
       id="path9"
       style="display:inline;fill:#d8b3b3;fill-opacity:1;stroke-width:1.60808" />
    <path
       fill="#000000"
       d="m 75.511537,35.858707 c 4.268159,4.677133 1.478689,11.464747 -1.251337,16.174914 -1.871734,5.920882 -8.620612,0.746842 -8.97549,-3.447633 -0.715649,-4.111915 -0.03383,-8.346418 0.366286,-12.438505 2.713928,-1.932064 7.28522,-3.142699 9.860541,-0.288776 z"
       id="path10"
       style="display:inline;fill:#800000;stroke-width:1.60808" />
    <path
       fill="#000000"
       d="m 34.409157,63.918236 c -2.364104,0.411347 -4.703136,1.653586 -7.084164,1.504112 -0.426185,-1.648052 -1.073486,-4.957569 1.420036,-5.189119 2.839039,-0.739624 5.678078,-1.479262 8.517116,-2.218885 2.42206,1.033438 -1.116413,3.382368 -1.853072,4.907209 -0.314834,0.351683 -0.50384,0.839588 -0.999916,0.996683 z"
       id="path11"
       style="display:inline;fill:#800000;stroke-width:1.60808" />
  </g>
</svg>
