<?xml version="1.0" encoding="UTF-8" standalone="no"?>
<!-- Created with Inkscape (http://www.inkscape.org/) -->

<svg
   width="100"
   height="100"
   id="svg2"
   sodipodi:version="0.32"
   inkscape:version="1.3 (0e150ed6c4, 2023-07-21)"
   version="1.0"
   sodipodi:docname="wn.svg"
   inkscape:output_extension="org.inkscape.output.svg.inkscape"
   xmlns:inkscape="http://www.inkscape.org/namespaces/inkscape"
   xmlns:sodipodi="http://sodipodi.sourceforge.net/DTD/sodipodi-0.dtd"
   xmlns:xlink="http://www.w3.org/1999/xlink"
   xmlns="http://www.w3.org/2000/svg"
   xmlns:svg="http://www.w3.org/2000/svg"
   xmlns:rdf="http://www.w3.org/1999/02/22-rdf-syntax-ns#"
   xmlns:cc="http://creativecommons.org/ns#"
   xmlns:dc="http://purl.org/dc/elements/1.1/">
  <defs
     id="defs4">
    <linearGradient
       id="linearGradient3214">
      <stop
         style="stop-color:#c6c600;stop-opacity:1;"
         offset="0"
         id="stop3216" />
      <stop
         style="stop-color:#ffff00;stop-opacity:1;"
         offset="1"
         id="stop3218" />
    </linearGradient>
    <linearGradient
       id="linearGradient3202">
      <stop
         style="stop-color:#ff0000;stop-opacity:1;"
         offset="0"
         id="stop3204" />
      <stop
         style="stop-color:#bd0000;stop-opacity:1;"
         offset="1"
         id="stop3206" />
    </linearGradient>
    <linearGradient
       id="linearGradient3194">
      <stop
         style="stop-color:#dedede;stop-opacity:1;"
         offset="0"
         id="stop3196" />
      <stop
         style="stop-color:#989898;stop-opacity:1;"
         offset="1"
         id="stop3198" />
    </linearGradient>
    <inkscape:perspective
       sodipodi:type="inkscape:persp3d"
       inkscape:vp_x="0 : 556.18109 : 1"
       inkscape:vp_y="0 : 1000 : 0"
       inkscape:vp_z="744.09448 : 556.18109 : 1"
       inkscape:persp3d-origin="372.04724 : 380.78739 : 1"
       id="perspective10" />
    <linearGradient
       inkscape:collect="always"
       xlink:href="#linearGradient3202"
       id="linearGradient3208"
       x1="42.241379"
       y1="32.741379"
       x2="115.51724"
       y2="62.051723"
       gradientUnits="userSpaceOnUse"
       gradientTransform="translate(-32.758621,-3.8793108)" />
  </defs>
  <sodipodi:namedview
     id="base"
     pagecolor="#ffffff"
     bordercolor="#666666"
     borderopacity="1.0"
     gridtolerance="10000"
     guidetolerance="10"
     objecttolerance="10"
     inkscape:pageopacity="0.0"
     inkscape:pageshadow="2"
     inkscape:zoom="2.32"
     inkscape:cx="1.0775862"
     inkscape:cy="74.784483"
     inkscape:document-units="px"
     inkscape:current-layer="layer1"
     showgrid="false"
     inkscape:window-width="1366"
     inkscape:window-height="715"
     inkscape:window-x="144"
     inkscape:window-y="892"
     inkscape:showpageshadow="2"
     inkscape:pagecheckerboard="0"
     inkscape:deskcolor="#d1d1d1"
     inkscape:window-maximized="1" />
  <metadata
     id="metadata7">
    <rdf:RDF>
      <cc:Work
         rdf:about="">
        <dc:format>image/svg+xml</dc:format>
        <dc:type
           rdf:resource="http://purl.org/dc/dcmitype/StillImage" />
      </cc:Work>
    </rdf:RDF>
  </metadata>
  <g
     inkscape:label="Layer 1"
     inkscape:groupmode="layer"
     id="layer1">
    <g
       stroke-width="2"
       fill="none"
       stroke-linecap="butt"
       id="g7"
       transform="matrix(1.5940554,0,0,1.5994014,-2.7197855,-1.6355921)">
      <path
         stroke="#690000"
         vector-effect="non-scaling-stroke"
         d="M 59.87,32.13 C 60.13152,19.222065 49.807507,7.2253443 37.004766,5.5601157 19.149097,2.1421711 2.0055822,20.493804 6.803687,38.109137 10.232152,56.847473 35.389528,65.65042 49.753171,53.137812 56.085099,48.148729 59.917271,40.191143 59.87,32.13 Z"
         id="path1" />
      <path
         stroke="#aa5a5a"
         vector-effect="non-scaling-stroke"
         d="m 25.5,25.21 c 0.216261,-3.044571 -2.830423,-6.526082 -5.660625,-5.999375 2.853662,4.211912 4.66225,10.198749 1.601973,14.785039 -1.646016,0.969936 -4.031352,4.902244 -0.350127,4.228955 6.598421,-1.777705 13.268483,-3.538655 20.077193,-4.232842 3.527188,-0.494807 7.021929,2.470595 6.196115,6.181111 -0.457638,3.530376 -1.994093,7.020996 -4.357029,9.667112 -2.45838,0.451622 -4.834406,-2.719243 -6.3475,-2.61 1.433242,2.724473 4.39714,7.816428 7.725293,6.339736 C 48.228087,49.025724 48.951238,42.834558 51.435,37.6025 53.202321,36.352667 52.445606,34.955274 50.884754,34.145648 49.294126,32.975089 47.854536,31.553996 46.165,30.5475 c -3.470379,1.055628 -9.007584,3.419939 -11.62977,0.409441 0.930293,-1.663866 2.761525,-2.617887 4.099147,-3.960821 0.713686,-0.623659 3.337348,-2.477816 1.002967,-2.238464 -2.180238,0.941068 -6.234876,-0.978436 -3.188423,-2.715828 0.908382,-0.896198 2.209984,-1.482731 2.801639,-2.628356 C 38.516772,17.671625 33.886813,20.417096 35.35,16.84 37.23903,14.825628 39.341274,12.961943 41.095491,10.852292 40.584788,9.8311298 39.055881,9.7327506 38.102055,9.1211106 36.344641,7.6534308 34.943083,9.126865 33.584453,10.411133 30.518898,12.733035 26.232459,12.528821 22.96,10.76 c -3.056479,0.983789 1.733013,4.394474 3.72125,4.35 2.673186,-0.820239 5.497286,2.222015 2.206578,3.588178 -1.058207,0.726234 -2.568616,0.970798 -3.246795,2.101822 0.963297,2.198856 6.952696,0.05129 4.559279,3.59875 C 29.255364,25.535128 26.480414,26.618983 25.5,25.21 Z"
         id="path2" />
      <path
         stroke="#aa5a5a"
         vector-effect="non-scaling-stroke"
         d="m 16.76,39.01 c -0.996985,-1.906487 0.997058,-4.913225 0.1,-6.04 -2.67497,1.449635 -2.750467,5.435845 -3.046729,8.202422 0.111042,2.783703 0.58504,6.367013 2.520296,8.243339 C 17.405969,46.486589 18.760114,42.66266 17.64,39.72 17.333978,39.497996 16.905613,39.407329 16.76,39.01 Z"
         id="path3" />
      <path
         stroke="#aa5a5a"
         vector-effect="non-scaling-stroke"
         d="m 36,36.41 c 1.090322,3.250232 2.105132,6.544549 3.242353,9.767401 C 43.534879,44.436205 40.152221,35.078523 36,36.41 Z"
         id="path4" />
      <path
         stroke="#aa5a5a"
         vector-effect="non-scaling-stroke"
         d="m 30.83,37.71 c 0.336299,2.735288 0.593736,5.494809 0.979168,8.214998 C 34.321666,45.142775 33.438268,37.655578 30.83,37.71 Z"
         id="path5" />
      <path
         stroke="#aa5a5a"
         vector-effect="non-scaling-stroke"
         d="m 25.5437,46.2958 c 1.970652,-1.878854 1.765356,-6.399026 -0.3674,-8.0916 -1.911768,1.475235 -1.671831,6.793465 0.3674,8.0916 z"
         id="path6" />
      <path
         stroke="#aa5a5a"
         vector-effect="non-scaling-stroke"
         d="m 29.62,28.61 c -3.601565,-1.183914 -5.60492,5.213474 -1.1,4.75 1.766816,-0.59469 2.945855,-3.788895 1.1,-4.75 z"
         id="path7" />
    </g>
    <path
       fill="#570000"
       d="M 99.108475,49.753175 C 100.50212,83.599101 61.678381,109.6273 31.046669,95.383139 -0.65169517,83.722751 -9.7610298,37.773435 15.077115,14.82951 36.135839,-8.0949666 76.890501,-2.5824537 91.942353,24.09118 c 4.670571,7.682053 7.178613,16.663395 7.166122,25.661995 z m -6.392161,0 C 93.133191,29.108215 76.676141,9.9206271 56.267863,7.2572717 27.804936,1.7905977 0.47722327,31.142221 8.1256683,59.31622 13.590832,89.286332 53.693084,103.36578 76.589526,83.353097 86.682971,75.373556 92.791666,62.646175 92.716314,49.753175 Z"
       id="path8"
       style="stroke-width:1.59673" />
    <path
       fill="#7b0000"
       d="M 92.716314,49.753175 C 94.034862,80.192072 58.060556,102.87203 31.299818,88.473133 3.3948887,76.458157 -1.3620854,34.097259 23.178561,16.153255 44.379255,-2.4013375 80.538773,8.0030886 89.755479,34.052316 c 1.953288,4.986837 2.963292,10.342737 2.960835,15.700859 z M 37.928628,38.685318 c 0.344732,-4.86949 -4.511851,-10.437822 -9.02335,-9.595401 4.548896,6.736534 7.431885,16.311879 2.553633,23.647198 -2.623841,1.551324 -6.426198,7.840666 -0.558121,6.763805 10.518248,-2.843272 21.150698,-5.659738 32.004158,-6.77001 5.622534,-0.791401 11.193344,3.951464 9.876951,9.886076 -0.7295,5.646479 -3.178694,11.229381 -6.945346,15.461589 -3.918794,0.722321 -7.70631,-4.349156 -10.118267,-4.174438 2.284667,4.357521 7.009286,12.501609 12.314546,10.13979 6.125627,-7.267712 7.27837,-17.169863 11.237624,-25.538026 2.817207,-1.998981 1.610961,-4.233984 -0.877123,-5.528892 -2.535549,-1.872195 -4.830336,-4.145088 -7.52355,-5.754885 -5.531976,1.688376 -14.358588,5.469856 -18.538497,0.654858 1.482938,-2.66118 4.402023,-4.187057 6.534266,-6.334941 1.137656,-0.997483 5.319919,-3.963029 1.598786,-3.580196 -3.47542,1.505132 -9.938738,-1.564918 -5.082523,-4.343702 1.448011,-1.433385 3.522837,-2.371481 4.465968,-4.203804 -1.183704,-2.874748 -8.536228,1.69327 -6.217708,-4.116012 3.011218,-3.221785 6.362311,-6.202574 9.158631,-9.576751 -0.81409,-1.633244 -3.251252,-1.790593 -4.771703,-2.768851 -2.801416,-2.34741 -5.035578,0.0096 -7.201309,2.063259 -4.886664,3.71365 -11.719486,3.387037 -16.935967,0.557984 -4.975922,1.609317 2.817366,7.009567 5.931879,6.957395 4.261207,-1.311892 8.762978,3.553902 3.517408,5.73894 -1.686841,1.161534 -4.094516,1.5527 -5.175572,3.361655 1.535549,3.51686 11.082984,0.08204 7.267746,5.755845 -1.506302,1.817529 -5.929726,3.55104 -7.49256,1.297515 z M 23.996583,60.757057 c -1.589248,-3.049242 1.589366,-7.85821 0.159406,-9.660384 -4.264051,2.31854 -4.384396,8.69409 -4.856655,13.118962 0.177008,4.452271 0.932587,10.183421 4.017492,13.18441 1.709468,-4.684919 3.86805,-10.800918 2.082527,-15.507412 -0.487817,-0.355068 -1.170654,-0.500085 -1.40277,-1.135576 z M 54.66621,56.598614 c 1.738034,5.198422 3.355697,10.467363 5.168491,15.621994 6.842524,-2.784878 1.45038,-17.751565 -5.168491,-15.621994 z m -8.241267,2.079222 c 0.536079,4.374827 0.946448,8.788407 1.560849,13.139082 4.005061,-1.2511 2.596875,-13.226122 -1.560849,-13.139082 z m -8.426655,13.73214 c 3.141329,-3.005035 2.814075,-10.234617 -0.585656,-12.941716 -3.114236,2.598868 -2.752465,10.628022 0.585656,12.941716 z"
       id="path9"
       style="stroke-width:1.59673" />
    <path
       fill="#d8b3b3"
       d="m 38.645953,39.501012 c 4.55881,2.566496 11.693374,-6.398548 4.236202,-5.883797 -3.684983,0.634194 -6.11164,-3.03832 -1.956846,-4.072028 3.231394,-0.896977 7.969171,-5.589013 2.183999,-6.917859 -4.165163,0.698026 -12.089917,-2.397664 -10.417291,-7.072313 4.254804,1.034988 8.782411,3.288561 13.338522,1.744626 4.181477,-0.106681 6.509758,-5.865692 10.194455,-5.15623 2.127111,1.076845 4.488742,1.79632 6.471828,3.092634 -0.05925,1.767516 -2.272943,2.710395 -3.246509,4.118427 -1.94008,1.981291 -3.880159,3.962566 -5.820238,5.943855 -3.154067,6.286624 7.873157,0.384913 5.587378,5.151705 -1.851833,1.529555 -3.703665,3.059096 -5.555498,4.588651 -2.453169,5.879736 11.579832,0.434797 7.266508,4.718778 -2.655964,2.29762 -5.311928,4.595256 -7.967892,6.892876 -1.634215,5.285814 7.149337,3.12595 10.330911,2.884488 3.638267,-0.347117 7.607194,-4.05026 10.421148,-0.28423 2.428229,2.006546 5.017188,3.848017 7.345771,5.956892 -1.917546,3.75725 -4.202001,8.110436 -5.238079,12.570943 -2.203249,5.972373 -3.962027,12.593703 -8.688598,17.129589 -4.921705,-0.339553 -11.265827,-7.806567 -10.664231,-11.51569 2.523906,2.325785 7.091434,6.117711 10.280304,3.774972 3.810708,-5.578313 7.356011,-12.557941 5.524671,-19.465548 -2.249506,-5.807123 -9.600203,-5.410743 -14.606491,-4.363535 -9.311397,1.655668 -18.542625,3.776427 -27.627923,6.411217 -6.471882,-2.439007 3.520437,-6.764029 3.336048,-11.152371 1.901087,-6.776951 -0.776022,-13.854175 -4.468824,-19.507147 4.511499,-0.842421 9.368082,4.725911 9.02335,9.595401 l 0.203242,0.555792 z m 5.850183,4.622271 c -5.741094,-1.893548 -8.934552,8.338431 -1.75346,7.597157 2.816402,-0.951148 4.695856,-6.059956 1.75346,-7.597157 z"
       id="path10"
       style="stroke-width:1.59673" />
    <path
       fill="#7b0000"
       d="m 38.869121,49.977092 c -3.13039,-5.486187 8.767904,-8.866281 6.950829,-1.971518 -0.346583,2.958381 -5.429735,6.149027 -6.950829,1.971518 z"
       id="path11"
       style="stroke-width:1.59673" />
    <path
       fill="#d8b3b3"
       d="m 24.379157,61.284861 c 3.893081,2.557922 0.585908,8.624595 0.282944,12.433346 -0.141584,2.894581 -2.295258,5.378595 -3.140677,1.168443 -3.208042,-7.331736 -3.079448,-16.511869 1.339395,-23.262175 4.481968,-1.587294 -1.090065,6.397718 1.135764,9.132582 z"
       id="path12"
       style="stroke-width:1.59673" />
    <path
       fill="#d8b3b3"
       d="M 54.66621,56.598614 C 61.54908,55.025859 66.577773,68.951559 59.834701,72.220608 58.023004,67.067975 56.403006,61.794237 54.66621,56.598614 Z"
       id="path13"
       style="stroke-width:1.59673" />
    <path
       fill="#d8b3b3"
       d="m 46.424943,58.677836 c 4.367188,0.671157 5.551989,11.412353 1.498412,13.019128 -0.499469,-4.339705 -0.998941,-8.679424 -1.498412,-13.019128 z"
       id="path14"
       style="stroke-width:1.59673" />
    <ellipse
       fill="#d8b3b3"
       cx="67.586945"
       cy="-34.685688"
       transform="matrix(0.04521168,0.99897743,-0.99896366,0.0455148,0,0)"
       rx="6.4775314"
       ry="2.2635741"
       id="ellipse14"
       style="stroke-width:1.59672" />
  </g>
</svg>
