<?xml version="1.0" encoding="UTF-8" standalone="no"?>
<!-- Created with Inkscape (http://www.inkscape.org/) -->

<svg
   width="100"
   height="100"
   id="svg2"
   sodipodi:version="0.32"
   inkscape:version="1.3 (0e150ed6c4, 2023-07-21)"
   version="1.0"
   sodipodi:docname="wp.svg"
   inkscape:output_extension="org.inkscape.output.svg.inkscape"
   xmlns:inkscape="http://www.inkscape.org/namespaces/inkscape"
   xmlns:sodipodi="http://sodipodi.sourceforge.net/DTD/sodipodi-0.dtd"
   xmlns:xlink="http://www.w3.org/1999/xlink"
   xmlns="http://www.w3.org/2000/svg"
   xmlns:svg="http://www.w3.org/2000/svg"
   xmlns:rdf="http://www.w3.org/1999/02/22-rdf-syntax-ns#"
   xmlns:cc="http://creativecommons.org/ns#"
   xmlns:dc="http://purl.org/dc/elements/1.1/">
  <defs
     id="defs4">
    <linearGradient
       id="linearGradient3214">
      <stop
         style="stop-color:#c6c600;stop-opacity:1;"
         offset="0"
         id="stop3216" />
      <stop
         style="stop-color:#ffff00;stop-opacity:1;"
         offset="1"
         id="stop3218" />
    </linearGradient>
    <linearGradient
       id="linearGradient3202">
      <stop
         style="stop-color:#ff0000;stop-opacity:1;"
         offset="0"
         id="stop3204" />
      <stop
         style="stop-color:#bd0000;stop-opacity:1;"
         offset="1"
         id="stop3206" />
    </linearGradient>
    <linearGradient
       id="linearGradient3194">
      <stop
         style="stop-color:#dedede;stop-opacity:1;"
         offset="0"
         id="stop3196" />
      <stop
         style="stop-color:#989898;stop-opacity:1;"
         offset="1"
         id="stop3198" />
    </linearGradient>
    <inkscape:perspective
       sodipodi:type="inkscape:persp3d"
       inkscape:vp_x="0 : 556.18109 : 1"
       inkscape:vp_y="0 : 1000 : 0"
       inkscape:vp_z="744.09448 : 556.18109 : 1"
       inkscape:persp3d-origin="372.04724 : 380.78739 : 1"
       id="perspective10" />
    <linearGradient
       inkscape:collect="always"
       xlink:href="#linearGradient3202"
       id="linearGradient3208"
       x1="42.241379"
       y1="32.741379"
       x2="115.51724"
       y2="62.051723"
       gradientUnits="userSpaceOnUse"
       gradientTransform="translate(-32.758621,-3.8793108)" />
  </defs>
  <sodipodi:namedview
     id="base"
     pagecolor="#ffffff"
     bordercolor="#666666"
     borderopacity="1.0"
     gridtolerance="10000"
     guidetolerance="10"
     objecttolerance="10"
     inkscape:pageopacity="0.0"
     inkscape:pageshadow="2"
     inkscape:zoom="3.2809755"
     inkscape:cx="30.631134"
     inkscape:cy="65.07211"
     inkscape:document-units="px"
     inkscape:current-layer="layer1"
     showgrid="false"
     inkscape:window-width="1366"
     inkscape:window-height="715"
     inkscape:window-x="144"
     inkscape:window-y="892"
     inkscape:showpageshadow="2"
     inkscape:pagecheckerboard="0"
     inkscape:deskcolor="#d1d1d1"
     inkscape:window-maximized="1" />
  <metadata
     id="metadata7">
    <rdf:RDF>
      <cc:Work
         rdf:about="">
        <dc:format>image/svg+xml</dc:format>
        <dc:type
           rdf:resource="http://purl.org/dc/dcmitype/StillImage" />
      </cc:Work>
    </rdf:RDF>
  </metadata>
  <g
     inkscape:label="Layer 1"
     inkscape:groupmode="layer"
     id="layer1">
    <g
       stroke-width="2"
       fill="none"
       stroke-linecap="butt"
       id="g6"
       transform="matrix(1.6177361,0,0,1.6111194,-1.9571674,-0.39647495)">
      <path
         stroke="#690000"
         vector-effect="non-scaling-stroke"
         d="M 58.87,31.13 C 59.13152,18.222065 48.807507,6.2253443 36.004766,4.5601157 18.149097,1.1421711 1.0055822,19.493804 5.803687,37.109137 9.2321522,55.847473 34.389528,64.65042 48.753171,52.137812 55.085099,47.148729 58.917271,39.191143 58.87,31.13 Z"
         id="path1" />
      <path
         stroke="#aa5a5a"
         vector-effect="non-scaling-stroke"
         d="m 34.07,6.75 c 1.619057,3.379391 -1.586994,6.446703 -4.191527,8.115414 -1.751243,1.932048 -6.744396,2.28319 -6.04352,5.25262 2.731449,0.138193 5.301848,-1.540457 7.936649,-2.25237 2.46284,-1.13246 5.431535,-1.506325 7.446996,-3.398301 C 40.755126,11.839665 38.278841,9.1017583 36.463059,7.3614063 35.919762,6.9834417 34.138713,5.0325828 34.07,6.75 Z"
         id="path2" />
      <path
         stroke="#aa5a5a"
         vector-effect="non-scaling-stroke"
         d="m 25.99,37 c 0.730727,1.138141 1.780391,-1.42558 3.283662,-0.483809 6.7406,-0.255873 13.464548,-0.97736 20.203643,-1.138027 2.114042,-0.462111 5.086122,1.93892 6.412083,0.186153 C 54.960862,34.342908 53.258804,34.063313 51.990635,33.255436 50.695642,32.700313 49.496644,31.816896 48.13,31.5025 c -2.280924,1.787334 -6.069528,3.136948 -8.48,0.9375 -1.738021,-2.741486 -1.899196,-6.883194 1.093975,-8.845664 2.181829,-0.736332 2.626348,-2.190685 0.558846,-3.258342 C 40.405236,19.110218 38.970735,19.651301 37.774629,20.055582 34.743457,20.8733 31.757115,21.927005 28.6975,22.595 26.988479,21.902136 23.656669,20.455015 22.6,21.85 c 2.101823,0.85761 2.817951,3.029958 2.904465,5.17937 0.591472,3.850335 -1.470235,8.393031 -5.599445,9.134028 -2.338813,1.452787 -4.490104,-1.804783 -6.450821,0.01025 C 11.992799,37.059096 10.5314,37.944548 9.07,38.83 8.8041135,41.865859 13.246405,38.84272 15.057432,38.728838 18.588958,37.788115 22.218952,37.031646 25.865,36.8475 Z"
         id="path3" />
      <path
         stroke="#aa5a5a"
         vector-effect="non-scaling-stroke"
         d="m 45.8,44.47 c -1.827223,-2.748823 -4.690882,-5.809815 -8.053117,-6.017633 -0.552885,1.507503 0.789965,2.813665 1.206482,4.21821 1.50958,3.184511 2.729924,6.532822 4.43476,9.606923 3.275219,1.412668 4.559204,-4.127359 3.131406,-6.407344 C 46.323218,45.38266 46.079098,44.915041 45.8,44.47 Z"
         id="path4" />
      <path
         stroke="#aa5a5a"
         vector-effect="non-scaling-stroke"
         d="M 26.08,39.94 C 24.989507,37.329548 22.019661,41.758731 20.465937,42.333071 17.409029,44.731984 17.393273,49.141067 18.54,52.52 19.471066,52.721137 19.914538,50.942499 20.63563,50.338207 23.323753,46.682138 26.011877,43.026069 28.7,39.37 c -0.258635,-1.855857 -1.766495,1.740783 -2.62,0.57 z"
         id="path5" />
      <path
         stroke="#aa5a5a"
         vector-effect="non-scaling-stroke"
         d="m 32.6,33.71 c 1.967744,-1.312473 1.012944,-3.846114 1.167295,-5.812694 -0.130203,-0.872247 0.427106,-3.015838 -1.121585,-2.274756 -1.111867,0.48283 -2.665653,0.361766 -3.417585,1.36495 -0.07373,2.069808 0.02703,4.149003 0.02188,6.2225 0.478586,1.381652 2.375879,1.121234 3.35,0.5 z"
         id="path6" />
    </g>
    <path
       fill="#570000"
       d="M 99.766085,49.75767 C 101.18043,83.851566 61.779942,110.07045 30.693176,95.721939 -1.47609,83.976121 -10.720751,37.690161 14.486382,14.578138 35.857947,-8.5142844 77.218048,-2.961385 92.493504,23.907664 c 4.739957,7.738335 7.285258,16.785478 7.272581,25.850006 z m -6.487122,0 C 93.702033,28.961454 77.000504,9.6332971 56.289045,6.9504162 27.403283,1.4436988 -0.33040095,31.010364 7.4316667,59.390779 12.978019,89.580464 53.676017,103.76307 76.912603,83.603759 87.155991,75.565756 93.355435,62.745129 93.278963,49.75767 Z"
       id="path7"
       style="stroke-width:1.61443" />
    <path
       fill="#7b0000"
       d="M 93.278963,49.75767 C 94.6171,80.419575 58.108371,103.2657 30.950085,88.761306 2.6306072,76.658305 -2.1970338,33.987051 22.70818,15.911581 44.223825,-2.7789515 80.920518,7.7016956 90.274145,33.941779 c 1.982303,5.023374 3.007313,10.418513 3.004818,15.815891 z M 53.159105,10.47858 c 2.619207,5.444601 -2.567338,10.386404 -6.780785,13.074895 -2.833049,3.112763 -10.910654,3.678491 -9.776822,8.462597 4.418765,0.222657 8.576993,-2.481848 12.839405,-3.628836 3.984225,-1.824529 8.786791,-2.426862 12.047276,-5.475067 C 63.973875,18.678631 59.9679,14.267547 57.030443,11.463635 56.151531,10.854684 53.270264,7.7116169 53.159105,10.47858 Z M 40.087797,59.214941 c 1.182122,1.833679 2.880202,-2.296779 5.312098,-0.779476 10.904513,-0.412237 21.782087,-1.574644 32.684165,-1.833502 3.419963,-0.744515 8.228003,3.123831 10.373059,0.299925 -1.769395,-2.075975 -4.752262,-2.680515 -7.065879,-4.096576 -1.839985,-0.774788 -3.53182,-2.05777 -5.486764,-2.447499 -3.689934,2.879601 -9.818895,5.054 -13.718403,1.510423 -2.81166,-4.416867 -3.072398,-11.08964 1.769763,-14.251413 3.529624,-1.186332 4.248738,-3.529464 0.904066,-5.249591 -1.452057,-1.974862 -3.772701,-1.103117 -5.707684,-0.451774 -4.903637,1.317444 -9.734751,3.01508 -14.684401,4.091308 -2.764745,-1.116279 -8.154734,-3.447762 -9.864147,-1.200284 3.400196,1.381713 4.558701,4.881628 4.698659,8.344584 0.956845,6.203341 -2.378453,13.522173 -9.058425,14.716012 -3.783583,2.340602 -7.263804,-2.907731 -10.435727,0.01643 -2.36416,1.426581 -4.728317,2.853147 -7.092477,4.279712 -0.192571,5.203384 7.869262,-0.610324 11.151778,-0.554063 5.247769,-1.29867 10.623752,-2.386014 16.018101,-2.639975 z M 72.13515,71.250002 c -2.955965,-4.428677 -7.58861,-9.360297 -13.027819,-9.69512 -0.992157,2.259627 1.135752,4.189248 1.721509,6.281996 2.336892,5.130803 4.546553,10.322974 6.963952,15.414964 4.547601,4.02224 8.129463,-5.361934 5.786188,-8.98502 -0.351116,-1.061114 -0.848201,-2.07127 -1.44383,-3.01682 z M 40.233392,63.951631 c -1.76413,-4.205746 -6.568557,2.930191 -9.082071,3.855521 -4.945273,3.864931 -4.970761,10.968502 -3.115659,16.41236 1.544315,0.183878 2.346715,-2.650597 3.557575,-3.741872 4.292875,-5.814788 8.585749,-11.62956 12.878624,-17.444346 -0.08817,-3.149449 -3.196677,2.982569 -4.238469,0.918337 z"
       id="path8"
       style="stroke-width:1.61443" />
    <path
       fill="#d8b3b3"
       d="m 36.787614,29.167564 c 5.995452,-3.658723 13.544615,-6.462118 16.660443,-13.221843 0.936614,-2.870484 -1.523818,-9.0774526 3.097212,-4.904035 3.048029,2.794436 7.057016,6.920367 5.260932,11.3851 -2.807252,3.494663 -7.855877,3.842649 -11.724318,5.726418 -3.931854,1.439583 -7.887926,2.814062 -11.870661,4.10771 -1.871408,0.81302 -3.263674,-2.212228 -1.423608,-3.09335 z"
       id="path9"
       style="stroke-width:1.61443" />
    <path
       fill="#d8b3b3"
       d="m 39.570121,58.908828 c -8.632027,0.636361 -17.0258,2.913419 -25.232641,5.489889 -4.4374506,-0.578086 0.02292,-3.572883 2.003572,-4.423022 1.978994,-1.065256 3.772898,-2.546566 5.878848,-3.326462 4.313056,3.018255 10.576703,1.495328 14.017525,-2.201885 4.106612,-4.787488 3.854154,-12.023831 1.4359,-17.510161 -2.020323,-1.157057 -4.9764,-3.589492 -0.507565,-2.988625 3.362484,-0.391229 6.218528,2.907941 9.43958,1.593477 5.1774,-1.496488 10.354801,-2.992976 15.532201,-4.489464 2.186081,0.113416 3.668857,2.290416 5.316286,3.598837 -2.648151,2.971226 -8.825788,5.925407 -7.255058,11.579356 0.119664,5.005104 4.318154,8.80965 9.384403,7.236505 3.396232,-0.298847 6.039787,-4.804116 9.282858,-1.915654 2.949306,1.46425 5.898614,2.928501 8.84792,4.392749 1.472937,4.514292 -6.06226,0.07878 -8.830059,0.705122 -10.181591,-0.02014 -20.33678,1.289106 -30.517899,1.628617 -3.020738,-0.46231 -6.178133,0.855005 -8.06789,1.420169 -0.161418,-0.305709 -0.241913,-0.866911 -0.727981,-0.789448 z m 11.210912,-4.994471 c 3.18329,-2.114545 1.638676,-6.196542 1.888375,-9.364936 -0.210634,-1.405299 0.690945,-4.858878 -1.814429,-3.664911 -1.798708,0.777897 -4.312323,0.582855 -5.528751,2.199098 -0.119282,3.334711 0.04373,6.684534 0.03539,10.02519 0.774227,2.226003 3.843546,1.806436 5.419417,0.805559 z"
       id="path10"
       style="stroke-width:1.61443" />
    <path
       fill="#7b0000"
       d="m 50.781033,53.914357 c -2.928186,2.24168 -6.39335,-0.268154 -5.448155,-3.619781 0.124761,-2.53015 -0.373097,-5.176237 0.194556,-7.625831 1.956493,-1.115507 4.36174,-1.443401 6.54071,-2.068274 1.113253,1.244944 0.324369,3.553823 0.631789,5.23277 -0.158958,2.761023 1.060951,6.367466 -1.9189,8.081116 z"
       id="path11"
       style="stroke-width:1.61443" />
    <path
       fill="#d8b3b3"
       d="m 60.794819,61.35773 c 6.527827,3.277661 13.333567,9.132065 13.37135,16.982954 0.789874,4.276103 -5.966643,9.073856 -7.231511,3.126844 -2.726062,-6.085665 -5.452125,-12.171345 -8.178186,-18.257012 l 0.350859,-1.655634 z"
       id="path12"
       style="stroke-width:1.61443" />
    <path
       fill="#d8b3b3"
       d="m 41.41434,64.225522 c 1.113252,-1.780126 4.45187,-2.780808 2.220531,-0.05848 -4.962469,6.721752 -9.924936,13.443519 -14.887405,20.16527 -2.52783,-2.386823 -2.075634,-8.300068 -1.014245,-11.932835 2.189551,-4.168127 7.935127,-9.554599 12.063383,-9.478941 0.285802,0.628934 0.603556,1.999173 1.617736,1.305008 z"
       id="path13"
       style="stroke-width:1.61443" />
  </g>
</svg>
