<?xml version="1.0" encoding="UTF-8" standalone="no"?>
<!-- Created with Inkscape (http://www.inkscape.org/) -->

<svg
   width="100"
   height="100"
   id="svg2"
   sodipodi:version="0.32"
   inkscape:version="1.3 (0e150ed6c4, 2023-07-21)"
   version="1.0"
   sodipodi:docname="wr.svg"
   inkscape:output_extension="org.inkscape.output.svg.inkscape"
   xmlns:inkscape="http://www.inkscape.org/namespaces/inkscape"
   xmlns:sodipodi="http://sodipodi.sourceforge.net/DTD/sodipodi-0.dtd"
   xmlns:xlink="http://www.w3.org/1999/xlink"
   xmlns="http://www.w3.org/2000/svg"
   xmlns:svg="http://www.w3.org/2000/svg"
   xmlns:rdf="http://www.w3.org/1999/02/22-rdf-syntax-ns#"
   xmlns:cc="http://creativecommons.org/ns#"
   xmlns:dc="http://purl.org/dc/elements/1.1/">
  <defs
     id="defs4">
    <linearGradient
       id="linearGradient3214">
      <stop
         style="stop-color:#c6c600;stop-opacity:1;"
         offset="0"
         id="stop3216" />
      <stop
         style="stop-color:#ffff00;stop-opacity:1;"
         offset="1"
         id="stop3218" />
    </linearGradient>
    <linearGradient
       id="linearGradient3202">
      <stop
         style="stop-color:#ff0000;stop-opacity:1;"
         offset="0"
         id="stop3204" />
      <stop
         style="stop-color:#bd0000;stop-opacity:1;"
         offset="1"
         id="stop3206" />
    </linearGradient>
    <linearGradient
       id="linearGradient3194">
      <stop
         style="stop-color:#dedede;stop-opacity:1;"
         offset="0"
         id="stop3196" />
      <stop
         style="stop-color:#989898;stop-opacity:1;"
         offset="1"
         id="stop3198" />
    </linearGradient>
    <inkscape:perspective
       sodipodi:type="inkscape:persp3d"
       inkscape:vp_x="0 : 556.18109 : 1"
       inkscape:vp_y="0 : 1000 : 0"
       inkscape:vp_z="744.09448 : 556.18109 : 1"
       inkscape:persp3d-origin="372.04724 : 380.78739 : 1"
       id="perspective10" />
    <linearGradient
       inkscape:collect="always"
       xlink:href="#linearGradient3202"
       id="linearGradient3208"
       x1="42.241379"
       y1="32.741379"
       x2="115.51724"
       y2="62.051723"
       gradientUnits="userSpaceOnUse"
       gradientTransform="translate(-32.758621,-3.8793108)" />
  </defs>
  <sodipodi:namedview
     id="base"
     pagecolor="#ffffff"
     bordercolor="#666666"
     borderopacity="1.0"
     gridtolerance="10000"
     guidetolerance="10"
     objecttolerance="10"
     inkscape:pageopacity="0.0"
     inkscape:pageshadow="2"
     inkscape:zoom="3.2809755"
     inkscape:cx="23.925811"
     inkscape:cy="67.51041"
     inkscape:document-units="px"
     inkscape:current-layer="layer1"
     showgrid="false"
     inkscape:window-width="1366"
     inkscape:window-height="715"
     inkscape:window-x="144"
     inkscape:window-y="892"
     inkscape:showpageshadow="2"
     inkscape:pagecheckerboard="0"
     inkscape:deskcolor="#d1d1d1"
     inkscape:window-maximized="1" />
  <metadata
     id="metadata7">
    <rdf:RDF>
      <cc:Work
         rdf:about="">
        <dc:format>image/svg+xml</dc:format>
        <dc:type
           rdf:resource="http://purl.org/dc/dcmitype/StillImage" />
      </cc:Work>
    </rdf:RDF>
  </metadata>
  <g
     inkscape:label="Layer 1"
     inkscape:groupmode="layer"
     id="layer1">
    <g
       stroke-width="2"
       fill="none"
       stroke-linecap="butt"
       id="g4"
       transform="matrix(1.6127943,0,0,1.6111194,-1.3995059,-1.8262081)">
      <path
         stroke="#690000"
         vector-effect="non-scaling-stroke"
         d="M 28.16,5.68 C 24.290748,5.9314132 20.494045,7.7772642 17.197864,9.8370252 8.043376,15.650098 3.0420592,27.330216 5.6299074,37.933788 7.6929021,48.213129 16.522219,56.408538 26.73625,58.32625 36.685799,60.52217 47.801973,56.574561 53.654608,48.118427 59.348948,40.481101 60.795202,29.735504 56.571084,21.088451 52.518819,12.377324 43.570375,6.2048356 34.029531,5.3548438 32.074301,5.1838567 30.049883,6.0379745 28.16,5.68 Z"
         id="path1" />
      <path
         stroke="#aa5a5a"
         vector-effect="non-scaling-stroke"
         d="m 29.23,36.28 c -2.895314,3.657349 -8.730857,5.220383 -12.6425,2.2625 -1.951613,0.741157 -3.740955,1.920597 -5.6275,2.8375 -0.656005,3.141136 4.398671,1.161969 6.3025,1.0975 4.091011,-0.604895 8.179768,-1.284815 12.2825,-1.77375 1.33118,2.915775 -0.421562,6.645949 0.355,9.84625 0.42687,1.50114 0.505719,6.922749 2.595,4.203125 0.515504,-3.532726 -0.259473,-7.215678 0.636387,-10.757227 -0.0083,-2.812215 2.608208,-4.859282 5.333886,-4.42664 C 43.467104,39.560207 48.468848,39.512495 53.47,39.43 54.455537,37.662122 49.748103,37.103656 48.195625,36.79 44.351029,37.128559 40.683361,38.945181 36.725547,38.496953 34.449557,39.141179 33.757085,37.506858 33.96,35.69 c 0.568198,-1.251319 2.392399,-0.665078 3.566345,-0.990497 1.334631,-0.215655 2.768664,-0.08082 4.038616,-0.524531 -1.479139,-2.320338 -1.427188,-5.400907 1.128906,-7.258409 C 43.920021,25.36451 44.502147,23.275747 46.38,22.35 46.264104,20.683787 42.85768,20.031359 41.258135,19.376904 38.932085,18.18192 35.442516,19.897521 33.89496,17.984316 34.700048,16.473817 36.424608,15.70129 37.64734,14.525994 40.592193,11.955719 35.883373,11.62504 34.31,10.45 35.286176,6.9287585 30.676946,5.5122587 28.347957,7.3141495 c 2.513037,1.5571401 1.838907,4.5623725 -1.06827,5.2099125 -1.458474,1.16457 -7.220685,0.732138 -3.83039,3.048321 1.677541,2.250159 7.625844,0.433663 6.161016,4.21918 -1.760742,2.494911 -5.030653,0.519427 -7.154021,1.81978 -1.208302,0.548781 -2.269709,1.682853 -3.59576,1.77629 -1.863429,-0.969916 -3.882565,-0.09315 -1.513344,1.665023 2.759255,3.158576 4.658925,6.988953 5.816562,11.000469 1.046391,0.616544 2.448312,-0.02697 3.644687,0.02937 0.67639,0.11335 2.504215,-0.617694 2.421563,0.197505 z"
         id="path2" />
      <path
         stroke="#aa5a5a"
         vector-effect="non-scaling-stroke"
         d="m 37.66,24.21 c 3.697612,2.338022 -5.984561,3.674042 -2.829299,5.721572 3.000056,0.216799 4.695549,-2.927233 6.13258,-5.094697 1.574052,-1.738223 1.524779,-3.980032 -1.258633,-4.080625 -2.076879,-1.032474 -8.024469,1.138429 -4.25212,2.983039 0.735824,0.156904 1.471648,0.313807 2.207472,0.470711 z"
         id="path3" />
      <path
         stroke="#aa5a5a"
         vector-effect="non-scaling-stroke"
         d="m 24.16,26.22 c 2.043929,0.04267 6.692607,-0.99595 5.46797,-3.54136 -1.989253,-0.135708 -3.992754,0.481853 -5.98797,0.66136 -2.276517,1.804182 -1.475963,5.695074 0.300371,7.660293 1.289351,1.758043 5.424935,2.180293 5.867798,-0.322126 C 30.699857,28.043725 27.915327,29.018303 26.2425,28.7275 25.370862,28.492474 22.485763,27.15238 24.16,26.22 Z"
         id="path4" />
    </g>
    <path
       fill="#570000"
       d="M 100.013,49.939057 C 101.42304,84.032952 62.142899,110.25184 31.151097,95.903325 -0.91989808,84.157508 -10.136317,37.871548 14.993812,14.75953 36.300091,-8.3328993 77.533843,-2.7799988 92.762638,24.089049 c 4.725476,7.738336 7.263002,16.78548 7.250362,25.850008 z M 44.016783,7.3249498 C 37.776474,7.7300061 31.653173,10.703892 26.337112,14.022413 11.572805,23.387971 3.5067101,42.206039 7.6803767,59.289654 11.007563,75.850898 25.247436,89.054683 41.720567,92.144342 57.767142,95.68223 75.695245,89.32216 85.134342,75.698325 94.31814,63.393675 96.650651,46.081231 89.838017,32.149802 83.302547,18.115138 68.870548,8.1705232 53.483129,6.8010847 50.329745,6.5256042 47.064775,7.9016886 44.016783,7.3249498 Z"
       id="path5"
       style="stroke-width:1.61196" />
    <path
       fill="#7b0000"
       d="M 45.016715,7.5827288 C 50.400482,6.7074046 55.975657,6.3284548 61.206419,8.2190518 78.145305,12.807064 91.994937,27.985976 93.590154,45.650595 95.793128,66.278336 81.223919,87.651783 60.666486,91.963123 41.291031,96.600456 19.160654,86.725663 10.790744,68.41895 3.3923149,53.251936 6.078886,33.875086 17.638515,21.496856 24.38898,14.011316 33.729093,8.7862238 43.686159,7.1718935 c 0.435834,0.1643889 0.825151,0.5133203 1.330556,0.4108353 z m 0.725757,49.0424732 c -4.669545,5.892427 -14.081077,8.410656 -20.389751,3.645157 -3.147552,1.194097 -6.033392,3.094316 -9.076001,4.571552 -1.058001,5.060751 7.094152,1.872072 10.164636,1.768203 6.597959,-0.974567 13.192284,-2.069983 19.809146,-2.857722 2.14692,4.697653 -0.679892,10.707417 0.572542,15.863484 0.688454,2.418515 0.815621,11.153376 4.185202,6.771743 0.831402,-5.691649 -0.418476,-11.625321 1.026362,-17.331182 -0.01339,-4.530822 4.206503,-7.82888 8.602461,-7.131845 8.066923,-0.01449 16.133709,-0.09152 24.199538,-0.224364 1.589468,-2.848267 -6.002654,-3.748012 -8.506482,-4.253355 -6.200542,0.545461 -12.115737,3.472252 -18.498877,2.7501 -3.670704,1.037932 -4.787518,-1.595153 -4.460258,-4.522331 0.916386,-2.016026 3.858448,-1.071524 5.751781,-1.595815 2.152485,-0.347436 4.465285,-0.130178 6.513456,-0.84508 -2.385547,-3.738344 -2.30176,-8.701494 1.820694,-11.694165 1.977534,-2.500537 2.916384,-5.865778 5.944974,-7.357273 -0.186916,-2.684463 -5.680778,-3.735605 -8.260515,-4.790018 -3.751441,-1.925256 -9.379398,0.838781 -11.875287,-2.243613 1.298442,-2.433596 4.079803,-3.678234 6.051817,-5.571782 4.749443,-4.141015 -2.844916,-4.673778 -5.382443,-6.566907 1.574371,-5.673141 -5.859368,-7.95529 -9.615549,-5.0522302 4.053012,2.5087402 2.965779,7.3505272 -1.722899,8.3937912 -2.352219,1.876258 -11.645481,1.179562 -6.177631,4.911204 2.705528,3.625276 12.298918,0.698695 9.93645,6.797602 -2.839713,4.019599 -8.113407,0.836865 -11.537963,2.931884 -1.948744,0.88415 -3.660574,2.711288 -5.799222,2.861815 -3.005328,-1.562641 -6.261779,-0.150156 -2.440714,2.682562 4.450112,5.088833 7.513889,11.260032 9.38092,17.723055 1.687613,0.993335 3.948624,-0.0435 5.878131,0.04736 1.090878,0.182621 4.038783,-0.995188 3.905482,0.318196 z"
       id="path6"
       style="stroke-width:1.61196" />
    <path
       fill="#d8b3b3"
       d="m 45.403786,55.996866 c -3.047904,0.115199 -6.167284,0.844709 -9.168736,0.551807 -1.742982,-4.324936 -3.151135,-8.999552 -5.876652,-12.92783 -0.914463,-3.084327 -6.953294,-6.230779 -4.872622,-8.649086 1.999672,0.397253 4.226121,1.653686 5.974515,-0.0161 2.404329,-1.099573 4.571798,-3.692669 7.429758,-2.596609 3.800148,1.787473 11.668903,-4.027074 5.945101,-6.201424 -3.377145,-0.366739 -11.028349,-2.290416 -9.704864,-5.896004 4.240086,-0.523629 11.030949,-1.808699 11.925354,-6.459077 -0.472528,-2.203842 -4.877933,-4.6663221 -0.267821,-4.8748089 4.20253,-1.1351884 8.119118,1.7000859 7.147648,6.0816369 2.820447,1.74176 10.199917,2.866359 5.097288,6.796991 -1.875843,1.817745 -4.565304,2.983165 -5.766662,5.341698 2.267303,3.220402 7.740211,0.259987 11.301721,2.099578 3.107111,0.988535 7.387998,2.040241 9.117329,4.669234 -2.658415,1.470694 -4.018873,4.095819 -5.516577,6.627227 -2.834164,3.134754 -6.688512,7.620577 -2.54034,11.521017 0.367284,2.398731 -3.404217,1.342255 -5.051986,1.875344 -2.29408,0.393659 -4.793807,0.08474 -6.946478,0.961531 -0.51202,2.268538 -0.507095,6.270332 3.143718,5.243388 6.455957,0.793283 12.570582,-1.629438 18.789811,-2.695096 2.79649,0.227377 10.656474,1.292826 9.273316,4.249327 -9.051056,0.274261 -18.133919,-0.02433 -27.166953,0.420405 -5.113518,0.653132 -5.82689,6.491958 -6.145912,10.606514 -1.643749,4.911417 2.133316,11.845159 -2.230312,15.304974 -2.979478,-5.021053 -2.959023,-11.853167 -2.377461,-17.720621 0.576636,-3.420503 0.627332,-8.603168 -4.31139,-6.102953 -7.921558,1.079951 -15.809973,2.435288 -23.728236,3.504184 -5.229668,-0.03013 -2.135618,-4.039253 0.889801,-4.70756 1.876686,-0.872503 3.605937,-2.14279 5.586577,-2.734812 6.308674,4.765498 15.720206,2.247271 20.389751,-3.645157 L 45.931976,56.12111 Z M 59.338328,37.178991 c 5.963488,3.766829 -9.651866,5.919317 -4.563076,9.218132 4.838472,0.349292 7.572954,-4.716116 9.890589,-8.208153 2.538623,-2.800496 2.459155,-6.41232 -2.029916,-6.574382 -3.349579,-1.663433 -12.941818,1.834146 -6.857794,4.806033 1.186732,0.252785 2.373465,0.505585 3.560197,0.75837 z m -21.772723,3.23835 c 3.296437,0.06879 10.793799,-1.604594 8.818712,-5.705554 -3.099148,-0.256747 -6.222427,0.76098 -9.331323,1.019001 -3.851102,2.103027 -2.798869,8.181716 -0.664729,11.360615 1.856397,3.502155 8.328459,4.840383 10.234884,1.069075 1.270313,-3.618639 -1.456479,-4.207874 -4.573724,-3.500109 -1.734073,-0.105013 -7.18283,-2.367395 -4.48382,-4.243028 z"
       id="path7"
       style="stroke-width:1.61196" />
    <path
       fill="#7b0000"
       d="m 59.338328,37.178991 c -2.372846,-0.486704 -7.933981,-1.011123 -4.822254,-4.478912 3.294747,-1.988974 12.148038,-2.333029 11.784174,2.401808 -2.281736,4.313467 -4.810417,9.306954 -9.571351,11.257391 -4.551048,1.130152 -3.358723,-2.874285 -0.305694,-3.940121 1.742074,-1.183207 7.125309,-2.933349 2.915125,-5.240166 z"
       id="path8"
       style="stroke-width:1.61196" />
    <path
       fill="#7b0000"
       d="m 37.565605,40.417341 c -1.991764,3.870505 5.963183,4.833552 8.983521,4.063356 0.89004,2.560101 -0.05285,6.150867 -3.508841,5.873223 -6.865786,0.677251 -10.49614,-8.423706 -7.442289,-13.787154 2.222244,-1.55552 5.233392,-1.116603 7.822491,-1.744681 3.868231,-1.578462 4.677056,3.250111 0.675234,4.129702 -2.003493,1.043345 -4.278337,1.508603 -6.530116,1.465554 z"
       id="path9"
       style="stroke-width:1.61196" />
  </g>
</svg>
