<?xml version="1.0" encoding="UTF-8" standalone="no"?>
<!-- Created with Inkscape (http://www.inkscape.org/) -->

<svg
   width="100"
   height="100"
   id="svg2"
   sodipodi:version="0.32"
   inkscape:version="1.3 (0e150ed6c4, 2023-07-21)"
   version="1.0"
   sodipodi:docname="ba.svg"
   inkscape:output_extension="org.inkscape.output.svg.inkscape"
   xmlns:inkscape="http://www.inkscape.org/namespaces/inkscape"
   xmlns:sodipodi="http://sodipodi.sourceforge.net/DTD/sodipodi-0.dtd"
   xmlns:xlink="http://www.w3.org/1999/xlink"
   xmlns="http://www.w3.org/2000/svg"
   xmlns:svg="http://www.w3.org/2000/svg"
   xmlns:rdf="http://www.w3.org/1999/02/22-rdf-syntax-ns#"
   xmlns:cc="http://creativecommons.org/ns#"
   xmlns:dc="http://purl.org/dc/elements/1.1/">
  <defs
     id="defs4">
    <linearGradient
       id="linearGradient3214">
      <stop
         style="stop-color:#c6c600;stop-opacity:1;"
         offset="0"
         id="stop3216" />
      <stop
         style="stop-color:#ffff00;stop-opacity:1;"
         offset="1"
         id="stop3218" />
    </linearGradient>
    <linearGradient
       id="linearGradient3202">
      <stop
         style="stop-color:#ff0000;stop-opacity:1;"
         offset="0"
         id="stop3204" />
      <stop
         style="stop-color:#bd0000;stop-opacity:1;"
         offset="1"
         id="stop3206" />
    </linearGradient>
    <linearGradient
       id="linearGradient3194">
      <stop
         style="stop-color:#dedede;stop-opacity:1;"
         offset="0"
         id="stop3196" />
      <stop
         style="stop-color:#989898;stop-opacity:1;"
         offset="1"
         id="stop3198" />
    </linearGradient>
    <inkscape:perspective
       sodipodi:type="inkscape:persp3d"
       inkscape:vp_x="0 : 556.18109 : 1"
       inkscape:vp_y="0 : 1000 : 0"
       inkscape:vp_z="744.09448 : 556.18109 : 1"
       inkscape:persp3d-origin="372.04724 : 380.78739 : 1"
       id="perspective10" />
    <linearGradient
       inkscape:collect="always"
       xlink:href="#linearGradient3202"
       id="linearGradient3208"
       x1="42.241379"
       y1="32.741379"
       x2="115.51724"
       y2="62.051723"
       gradientUnits="userSpaceOnUse"
       gradientTransform="translate(-32.758621,-3.8793108)" />
  </defs>
  <sodipodi:namedview
     id="base"
     pagecolor="#ffffff"
     bordercolor="#666666"
     borderopacity="1.0"
     gridtolerance="10000"
     guidetolerance="10"
     objecttolerance="10"
     inkscape:pageopacity="0.0"
     inkscape:pageshadow="2"
     inkscape:zoom="2.8410986"
     inkscape:cx="73.035128"
     inkscape:cy="43.821077"
     inkscape:document-units="px"
     inkscape:current-layer="layer1"
     showgrid="false"
     inkscape:window-width="1366"
     inkscape:window-height="715"
     inkscape:window-x="144"
     inkscape:window-y="892"
     inkscape:showpageshadow="2"
     inkscape:pagecheckerboard="0"
     inkscape:deskcolor="#d1d1d1"
     inkscape:window-maximized="1" />
  <metadata
     id="metadata7">
    <rdf:RDF>
      <cc:Work
         rdf:about="">
        <dc:format>image/svg+xml</dc:format>
        <dc:type
           rdf:resource="http://purl.org/dc/dcmitype/StillImage" />
      </cc:Work>
    </rdf:RDF>
  </metadata>
  <g
     inkscape:label="Layer 1"
     inkscape:groupmode="layer"
     id="layer1">
    <g
       stroke-width="2"
       fill="none"
       stroke-linecap="butt"
       id="g2"
       transform="matrix(1.0600325,0,0,1.0598684,-3.0587586,-2.6937679)">
      <path
         stroke="#808080"
         vector-effect="non-scaling-stroke"
         d="M 91.99,50 C 92.398485,29.838258 76.272738,11.099799 56.275304,8.4987702 28.385375,3.1600603 1.6078037,31.82467 9.1022755,59.339204 14.457418,88.607828 53.752359,102.35772 76.187867,82.813467 86.078118,75.020695 92.063836,62.591223 91.99,50 Z"
         id="path1" />
      <path
         stroke="#808080"
         vector-effect="non-scaling-stroke"
         d="m 50.36,50.8 c -0.203333,6.873333 -0.406667,13.746667 -0.61,20.62 -1.009207,1.457856 -3.484971,0.849727 -5.144766,1.365818 C 40.550156,73.343879 36.495078,73.901939 32.44,74.46 32.279701,77.931415 39.599777,77.107109 42.67625,77.3125 54.374069,76.871633 65.809017,74.039615 77.23,71.69 80.792353,67.705381 71.838933,67.465829 69.238906,68.554219 65.313475,68.521187 58.983735,71.916966 56.387625,69.698887 56.680179,63.034869 56.689345,56.320025 57.1575,49.6875 64.98261,47.687213 73.12745,46.599385 80.845,44.16125 83.383144,39.626774 75.682901,40.384741 72.916924,41.121787 67.652064,41.735676 62.424995,42.913641 57.2,43.57 55.357499,36.568011 56.804284,28.989443 54.49375,22.065957 53.306085,18.06148 49.815386,20.641523 50.845689,23.656803 50.757126,30.514535 50.668563,37.372268 50.58,44.23 c -5.088049,2.54763 -11.872066,1.685078 -17.67207,2.165313 -4.627286,0.425459 -9.628705,-1.033118 -13.987379,-0.127336 2.415322,3.462595 7.724418,4.165768 11.800855,4.599835 C 37.224362,51.128355 43.76036,50.380031 50.225,50.36 Z"
         id="path2" />
    </g>
    <path
       fill="#000000"
       d="M 99.743193,50.310251 C 101.15284,84.425151 61.883253,110.6602 30.899765,96.30284 -1.1626243,84.54978 -10.376573,38.235305 14.746813,15.109047 36.047378,-7.997608 77.27007,-2.4412871 92.494776,24.444313 c 4.724205,7.74311 7.261054,16.795832 7.248417,25.865938 z m -5.289561,-0.0106 C 94.886645,28.930859 77.792825,9.0705584 56.594889,6.31381 27.030656,0.65547991 -1.3544341,31.036194 6.5899499,60.19798 12.266575,91.21887 53.920491,105.79195 77.70286,85.077609 88.186846,76.818297 94.531904,63.644692 94.453632,50.299651 Z"
       id="path3"
       style="stroke-width:1.05995" />
    <path
       fill="#ffffff"
       d="M 94.453632,50.299652 C 95.823193,81.805758 58.456953,105.28089 30.66077,90.377159 1.6761226,77.940919 -3.2649105,34.094826 22.225275,15.521695 44.246284,-3.6834306 81.80491,7.0857757 91.378234,34.048306 c 2.02887,5.16168 3.077952,10.705361 3.075398,16.251346 z m -44.129154,0.847895 c -0.215536,7.284829 -0.431083,14.569658 -0.646619,21.854487 -1.069796,1.545135 -3.694181,0.900598 -5.453623,1.447587 -4.298507,0.591471 -8.597023,1.182941 -12.89554,1.774413 -0.169923,3.679243 7.589599,2.805587 10.850758,3.023274 12.400069,-0.467261 24.521487,-3.468827 36.628098,-5.95911 3.776207,-4.223172 -5.71471,-4.477065 -8.470815,-3.323515 -4.161094,-0.03501 -10.870825,3.564069 -13.622786,1.213197 0.310123,-7.062982 0.319834,-14.179833 0.816099,-21.209437 8.29487,-2.120041 16.928665,-3.272995 25.109519,-5.857097 2.690511,-4.805948 -5.471994,-4.002603 -8.404022,-3.22143 -5.580923,0.65064 -11.121787,1.899129 -16.660446,2.594782 -1.95311,-7.421187 -0.419476,-15.453471 -2.868713,-22.791456 -1.456761,-4.443879 -4.903446,-1.223055 -3.870698,1.967674 -0.09265,7.174432 -0.185336,14.348864 -0.278004,21.523296 -5.393498,2.700153 -12.58478,1.785962 -18.732969,2.294946 -4.905077,0.450931 -10.206745,-1.094969 -14.827078,-0.134959 2.560319,3.669896 8.188137,4.415166 12.509296,4.875221 6.893338,0.276141 13.821711,-0.516984 20.674439,-0.538215 z"
       id="path4"
       style="stroke-width:1.05995" />
    <path
       fill="#000000"
       d="m 49.70966,50.554021 c -8.376949,0.203674 -16.917218,1.615268 -25.213001,-0.07249 -2.212054,-0.38605 -10.235541,-3.48614 -5.632673,-4.58687 10.273793,0.989192 20.666288,0.723857 30.877475,-0.777762 1.602631,-1.40476 0.525044,-3.836207 0.878056,-5.719649 0.08543,-6.61126 0.170782,-13.222519 0.256179,-19.833779 4.029215,-3.829308 5.267237,5.91638 5.241616,8.880737 0.521027,4.884343 -0.187572,11.05585 1.934803,15.104085 7.60072,-1.298472 15.232773,-2.940734 22.938447,-3.255783 5.334984,1.859327 0.08056,5.597344 -3.400394,5.243865 -6.656919,1.589821 -13.435583,2.813518 -20.060118,4.432071 -0.500728,7.217555 -0.519735,14.521495 -0.834777,21.772347 4.916315,0.663323 10.999259,-1.720776 16.338578,-2.256195 3.342209,-1.499729 10.648175,2.71305 4.27578,4.137959 -13.231146,2.59206 -26.535592,6.195549 -40.12945,5.516604 C 34.1471,79.86441 27.95085,76.14642 33.56088,75.91689 c 5.135583,-0.70665 10.271175,-1.413302 15.406757,-2.119952 1.413755,-1.236534 0.49778,-3.770873 0.85181,-5.580172 0.168344,-5.689739 0.336688,-11.379478 0.505031,-17.069216 l -0.143104,-0.466342 z"
       id="path5"
       style="stroke-width:1.05995" />
  </g>
</svg>
