<?xml version="1.0" encoding="UTF-8" standalone="no"?>
<!-- Created with Inkscape (http://www.inkscape.org/) -->

<svg
   width="100"
   height="100"
   id="svg2"
   sodipodi:version="0.32"
   inkscape:version="1.3 (0e150ed6c4, 2023-07-21)"
   version="1.0"
   sodipodi:docname="bb.svg"
   inkscape:output_extension="org.inkscape.output.svg.inkscape"
   xmlns:inkscape="http://www.inkscape.org/namespaces/inkscape"
   xmlns:sodipodi="http://sodipodi.sourceforge.net/DTD/sodipodi-0.dtd"
   xmlns:xlink="http://www.w3.org/1999/xlink"
   xmlns="http://www.w3.org/2000/svg"
   xmlns:svg="http://www.w3.org/2000/svg"
   xmlns:rdf="http://www.w3.org/1999/02/22-rdf-syntax-ns#"
   xmlns:cc="http://creativecommons.org/ns#"
   xmlns:dc="http://purl.org/dc/elements/1.1/">
  <defs
     id="defs4">
    <linearGradient
       id="linearGradient3214">
      <stop
         style="stop-color:#c6c600;stop-opacity:1;"
         offset="0"
         id="stop3216" />
      <stop
         style="stop-color:#ffff00;stop-opacity:1;"
         offset="1"
         id="stop3218" />
    </linearGradient>
    <linearGradient
       id="linearGradient3202">
      <stop
         style="stop-color:#ff0000;stop-opacity:1;"
         offset="0"
         id="stop3204" />
      <stop
         style="stop-color:#bd0000;stop-opacity:1;"
         offset="1"
         id="stop3206" />
    </linearGradient>
    <linearGradient
       id="linearGradient3194">
      <stop
         style="stop-color:#dedede;stop-opacity:1;"
         offset="0"
         id="stop3196" />
      <stop
         style="stop-color:#989898;stop-opacity:1;"
         offset="1"
         id="stop3198" />
    </linearGradient>
    <inkscape:perspective
       sodipodi:type="inkscape:persp3d"
       inkscape:vp_x="0 : 556.18109 : 1"
       inkscape:vp_y="0 : 1000 : 0"
       inkscape:vp_z="744.09448 : 556.18109 : 1"
       inkscape:persp3d-origin="372.04724 : 380.78739 : 1"
       id="perspective10" />
    <linearGradient
       inkscape:collect="always"
       xlink:href="#linearGradient3202"
       id="linearGradient3208"
       x1="42.241379"
       y1="32.741379"
       x2="115.51724"
       y2="62.051723"
       gradientUnits="userSpaceOnUse"
       gradientTransform="translate(-32.758621,-3.8793108)" />
  </defs>
  <sodipodi:namedview
     id="base"
     pagecolor="#ffffff"
     bordercolor="#666666"
     borderopacity="1.0"
     gridtolerance="10000"
     guidetolerance="10"
     objecttolerance="10"
     inkscape:pageopacity="0.0"
     inkscape:pageshadow="2"
     inkscape:zoom="2.8410986"
     inkscape:cx="23.406439"
     inkscape:cy="55.436302"
     inkscape:document-units="px"
     inkscape:current-layer="layer1"
     showgrid="false"
     inkscape:window-width="1366"
     inkscape:window-height="715"
     inkscape:window-x="144"
     inkscape:window-y="892"
     inkscape:showpageshadow="2"
     inkscape:pagecheckerboard="0"
     inkscape:deskcolor="#d1d1d1"
     inkscape:window-maximized="1" />
  <metadata
     id="metadata7">
    <rdf:RDF>
      <cc:Work
         rdf:about="">
        <dc:format>image/svg+xml</dc:format>
        <dc:type
           rdf:resource="http://purl.org/dc/dcmitype/StillImage" />
      </cc:Work>
    </rdf:RDF>
  </metadata>
  <g
     inkscape:label="Layer 1"
     inkscape:groupmode="layer"
     id="layer1">
    <g
       stroke-width="2"
       fill="none"
       stroke-linecap="butt"
       id="g5"
       transform="matrix(1.0600325,0,0,1.0561267,-2.9826327,-2.5075598)">
      <path
         stroke="#808080"
         vector-effect="non-scaling-stroke"
         d="M 91.99,50 C 92.398485,29.838258 76.272738,11.099799 56.275304,8.4987702 28.385375,3.1600603 1.6078037,31.82467 9.1022755,59.339204 14.457418,88.607828 53.752359,102.35772 76.187867,82.813467 86.078118,75.020695 92.063836,62.591223 91.99,50 Z"
         id="path1" />
      <path
         stroke="#808080"
         vector-effect="non-scaling-stroke"
         d="m 67.48,58.25 c 1.416667,-3.363333 2.833333,-6.726667 4.25,-10.09 -1.94928,-5.843343 -6.05817,3.074529 -7.1275,5.775 -0.891411,2.152573 -4.111763,7.900733 -3.559219,2.319531 -0.286388,-7.527826 -9.79378,-4.412809 -14.478347,-3.470945 -6.416601,2.536707 -0.665662,-5.706143 2.678699,-5.384543 5.466671,-0.382327 8.764757,-4.481437 13.371289,-6.841074 2.545374,-1.395043 8.50923,-5.859479 2.553047,-6.951094 C 61.933337,32.36681 56.522736,33.999747 54.37,32.34 57.191099,31.144944 64.664676,25.224551 57.895,24.59 53.386186,24.322782 48.608512,25.689722 44.240099,24.431941 44.881463,21.947368 48.798594,12.801269 43.251992,16.163555 41.901099,19.403357 37.144741,24.273962 40.3,27.21 43.773226,29.193989 50.807042,26.582026 52.415439,29.060316 50.934949,30.474305 49.906162,32.564282 48.08,33.47 43.860323,33.624646 39.624264,34.063463 35.415,34.0375 34.115489,32.840157 33.123871,31.326443 31.95,30 c -3.725828,0.33741 0.263748,6.190833 0.680469,8.915039 1.538174,3.627281 2.692308,7.650236 5.187527,10.715447 2.435191,1.184255 -0.178194,2.764365 -1.301736,3.893298 -3.022087,2.865405 -6.044173,5.730811 -9.06626,8.596216 0.188401,4.947661 7.240169,-0.0586 9.264473,-2.069844 1.331553,-1.956207 7.363212,-6.213213 4.19541,-1.231328 -2.169271,4.283003 -8.550788,8.937633 -8.276125,13.037749 1.821704,0.873444 0.484643,3.228577 0.653193,4.809203 -0.125508,2.210501 -0.521468,4.435051 -0.476951,6.63672 4.901998,2.651248 8.178198,-3.588922 10.942178,-6.615361 C 47.665363,71.758273 50.59912,66.034237 54.3975,61.1 c 0.309882,4.839478 -0.06479,9.832064 -0.02199,14.731149 0.729691,2.993219 -2.191571,3.471362 -3.379446,0.89124 C 49.914378,75.890024 48.779238,73.214839 47.7,73.63 c 2.093211,3.931164 3.388892,9.262119 7.635254,11.297793 6.566189,0.04168 3.790983,-9.590278 5.061621,-13.975918 -0.144471,-4.448162 -0.588852,-10.263669 5.486895,-8.549648 2.07831,0.216345 8.450349,-4.098169 6.691991,0.272897 C 71.657188,65.378449 71.07295,68.245317 69.9425,70.845 68.160706,69.335556 66.760693,67.355645 65.13,65.66 c -1.623777,2.76617 1.820595,11.209583 6.77,9.99 4.618516,-1.907437 5.640398,-7.571631 6.751438,-11.911743 1.91044,-4.167381 0.243198,-9.555064 -5.242688,-7.253257 -1.795702,0.07637 -4.841805,2.531486 -5.92875,1.765 z"
         id="path2" />
      <path
         stroke="#808080"
         vector-effect="non-scaling-stroke"
         d="m 51.36,42.27 c 1.985029,2.937874 4.102107,-0.970201 5.851267,-2.223594 1.192534,-1.270624 2.772526,-2.297269 3.708733,-3.731406 -3.22873,-0.261344 -6.618168,0.272317 -9.91,0.325 -1.017517,1.190058 0.275595,3.428711 0.255396,5.056675 0.03153,0.191109 0.06307,0.382217 0.0946,0.573325 z"
         id="path3" />
      <path
         stroke="#808080"
         vector-effect="non-scaling-stroke"
         d="m 38.14,36.82 c -1.993324,1.322432 0.623686,3.681685 1.065006,5.46621 0.626392,1.802633 1.824086,4.25781 4.036947,2.838301 2.282499,-0.125131 2.829351,-2.209973 2.578662,-4.160312 C 45.628493,39.5115 46.803916,36.511371 44.398692,36.700172 42.312462,36.740115 40.226231,36.780057 38.14,36.82 Z"
         id="path4" />
      <path
         stroke="#808080"
         vector-effect="non-scaling-stroke"
         d="m 46.01,58.02 c -2.435215,5.615601 -6.596263,10.253705 -11.0625,14.3175 0.04956,1.713535 0.242107,3.546435 0.727019,5.179818 3.670223,-2.617009 6.315455,-7.529824 9.353411,-11.196175 2.041037,-3.54134 6.144664,-7.360895 6.68207,-10.981143 -2.265158,-0.527843 -4.840993,0.375661 -5.7,2.68 z"
         id="path5" />
    </g>
    <path
       fill="#000000"
       d="M 99.819319,50.309334 C 101.22897,84.303794 61.959376,110.44622 30.975889,96.13955 -1.0864985,84.427983 -10.300447,38.277017 14.822939,15.232404 36.123502,-7.7926752 77.346191,-2.2559703 92.570902,24.534713 c 4.724205,7.715774 7.261052,16.736534 7.248417,25.774621 z m -5.289562,-0.01056 C 94.962769,29.005419 77.86895,9.2152337 56.671018,6.4682176 27.106788,0.8298638 -1.2783082,31.103322 6.6660757,60.162154 12.3427,91.073528 53.996615,105.59516 77.778986,84.953949 88.262973,76.723795 94.608029,63.596699 94.529757,50.298772 Z"
       id="path6"
       style="stroke-width:1.05808" />
    <path
       fill="#ffffff"
       d="M 94.529757,50.298772 C 95.899319,81.693648 58.533077,105.08591 30.736894,90.234788 1.7522484,77.842453 -3.1887846,34.151155 22.301403,15.643596 44.32241,-3.4937285 81.881036,7.237458 91.454359,34.104799 c 2.028871,5.143457 3.077952,10.667567 3.075398,16.193973 z M 68.54836,59.011817 c 1.501714,-3.552105 3.003426,-7.104212 4.505139,-10.656318 -2.0663,-6.17131 -6.421857,3.247093 -7.555382,6.099132 -0.944925,2.27339 -4.358602,8.344174 -3.772888,2.449718 -0.30358,-7.950338 -10.381725,-4.660485 -15.347518,-3.665758 -6.801805,2.679085 -0.705623,-6.026409 2.839508,-5.686758 5.794849,-0.403787 9.290927,-4.732966 14.174001,-7.225041 2.698179,-1.473343 9.02006,-6.188352 2.706312,-7.341236 -3.428814,-1.309666 -9.164228,0.414923 -11.446198,-1.337981 4.246783,-1.419992 10.785126,-8.71279 2.370499,-8.280032 -4.323416,0.166171 -8.936162,1.06981 -13.108523,-0.07188 C 44.593177,20.67164 48.745463,11.0122 42.865885,14.5632 41.433894,17.984841 36.392,23.128817 39.736677,26.229645 c 3.681733,2.095344 11.137806,-0.66322 12.842759,1.954168 -1.569367,1.493351 -2.659915,3.700632 -4.595706,4.657185 -4.472995,0.163325 -8.963355,0.626772 -13.425311,0.599352 -1.377525,-1.264547 -2.428671,-2.86322 -3.673014,-4.264112 -3.949498,0.356348 0.279582,6.538304 0.72132,9.41541 1.630515,3.830869 2.853934,8.079619 5.498947,11.31687 2.581382,1.250723 -0.188892,2.919519 -1.379882,4.111815 -3.20351,3.026231 -6.40702,6.052462 -9.610531,9.078693 0.199712,5.225357 7.674815,-0.06189 9.820643,-2.186017 1.41149,-2.066003 7.805244,-6.56194 4.447271,-1.300439 -2.299498,4.523394 -9.064113,9.439272 -8.772961,13.769515 1.931065,0.922467 0.513737,3.409785 0.692405,5.079127 -0.133042,2.334569 -0.552772,4.683976 -0.505583,7.009217 5.196277,2.800053 8.669155,-3.790357 11.599064,-6.98666 4.148103,-5.205505 7.257981,-11.250812 11.284388,-16.461992 0.328485,5.111103 -0.06868,10.383906 -0.02331,15.55796 0.773497,3.161218 -2.323136,3.666198 -3.582322,0.941262 -1.146625,-0.879083 -2.34991,-3.704416 -3.493937,-3.265955 2.218871,4.151807 3.592336,9.781971 8.093617,11.931901 6.960374,0.04402 4.018565,-10.128548 5.365483,-14.76034 -0.153144,-4.697822 -0.624203,-10.839733 5.816287,-9.02951 2.203076,0.228487 8.957644,-4.328186 7.093728,0.288213 -0.973718,2.855053 -1.593029,5.88283 -2.791342,8.628424 -1.88876,-1.594164 -3.372819,-3.685201 -5.101407,-5.476017 -1.721257,2.921426 1.929889,11.83874 7.17642,10.550705 4.895781,-2.014493 5.979007,-7.996601 7.156746,-12.580309 2.025128,-4.401282 0.2578,-10.091357 -5.557422,-7.660357 -1.903503,0.08065 -5.132471,2.673569 -6.284668,1.864063 z"
       id="path7"
       style="stroke-width:1.05808" />
    <path
       fill="#000000"
       d="m 68.908772,59.3709 c 3.379229,-1.430133 11.254831,-5.255084 12.216758,0.281478 -0.703459,5.842246 -1.658061,12.367986 -5.972857,16.734414 -5.826188,4.190028 -10.369157,-4.891962 -9.538361,-9.65703 2.15474,1.368301 3.458294,4.032119 5.544379,5.58397 1.360594,-3.283358 2.146937,-6.846582 3.28345,-10.239147 -3.023263,-1.235391 -8.02786,2.893579 -12.020769,1.25679 -2.657037,4.88789 -0.626468,11.827503 -2.107476,17.412227 1.466948,5.49381 -5.374081,9.368666 -8.00838,3.573505 -1.319925,-2.510409 -5.091525,-7.72438 -4.085761,-9.123363 1.500775,1.748961 3.001548,3.497922 4.50232,5.246882 3.023356,0.768961 1.5932,-3.340964 1.963897,-5.175985 -0.05549,-4.402196 0.33333,-8.903684 -0.0056,-13.242864 -5.785787,7.697752 -10.114628,16.836721 -17.551157,23.282312 -2.694606,2.149761 -6.714014,0.486295 -5.161896,-3.012058 0.161206,-2.731277 0.635887,-5.475949 0.598125,-8.198726 -4.304157,-2.345264 3.224226,-6.442242 4.059137,-9.415286 0.860216,-2.252984 6.738219,-6.501689 3.843405,-7.841823 -4.173616,3.084969 -9.026536,10.361608 -14.689376,7.677301 0.412861,-2.471206 3.107761,-3.633433 4.628656,-5.469069 2.622935,-2.642533 5.63398,-4.994484 8.017507,-7.816265 -2.461417,-2.031861 -3.686918,-5.052275 -4.937904,-7.954902 -1.849898,-4.247728 -3.360723,-8.641573 -4.520211,-13.125385 1.567099,-3.079664 3.507654,1.405139 4.961449,2.711682 1.473101,1.334554 3.794857,0.23941 5.644388,0.428658 2.966309,-0.21948 5.969739,-0.191781 8.912012,-0.571313 1.580371,-1.636393 3.264498,-3.335089 4.478637,-5.243667 -4.647109,-1.281375 -10.510182,1.072495 -14.501244,-2.24955 0.47327,-4.196278 2.6356,-9.173814 5.970633,-11.825978 5.47754,1.781431 -5.369135,12.17403 3.459349,10.410892 4.468266,0.530441 9.399721,-1.705632 13.498151,0.719424 1.622758,3.674898 -8.070712,6.070258 -5.962186,7.799289 4.109514,0.721264 12.277603,-1.587955 13.535253,3.42097 -3.072387,3.486284 -7.379043,5.528935 -11.205959,8.015705 -3.612788,4.641637 -12.319124,2.193765 -14.459417,8.681204 -0.354209,3.34904 6.174106,-0.812021 8.405307,-0.296879 5.235112,-1.92294 11.712327,0.832934 9.955029,7.148658 3.062347,-0.622757 4.683717,-7.638442 6.846983,-10.901702 2.102893,-4.664312 6.302637,-0.860796 3.56438,2.287726 -1.142004,2.9151 -2.610158,5.750567 -3.552952,8.714308 z M 51.460636,42.134913 c 2.104196,3.102767 4.348367,-1.024654 6.202534,-2.348396 1.264125,-1.34194 2.938967,-2.426208 3.931377,-3.940837 -3.422558,-0.276013 -7.015473,0.2876 -10.504921,0.343241 -1.078602,1.256852 0.292139,3.621153 0.270727,5.340489 0.03342,0.201835 0.06686,0.403669 0.100275,0.605503 z m -14.013629,-5.75589 c -2.169268,1.314586 0.587273,3.717774 1.008908,5.519155 0.779278,1.73187 1.688235,4.777283 4.132208,3.340436 2.312898,-0.173434 3.38199,-2.033248 2.99204,-4.202305 -0.28853,-1.54754 1.002113,-4.169749 -0.935535,-4.794582 -2.399207,0.04576 -4.798414,0.09154 -7.197621,0.137296 z m 8.342456,22.389885 c -2.581407,5.930786 -6.992253,10.829212 -11.726609,15.121093 0.05254,1.80971 0.256641,3.745485 0.770663,5.470543 3.730233,-2.469026 6.310814,-7.544775 9.397698,-11.11554 2.35835,-3.965822 6.867868,-8.232976 7.600433,-12.306516 -2.401141,-0.557469 -5.13161,0.396746 -6.042185,2.83042 z"
       id="path8"
       style="stroke-width:1.05808" />
    <path
       fill="#ffffff"
       d="m 51.460636,42.134913 c -0.216804,-1.924013 -0.840407,-3.847219 -0.805624,-5.771732 3.511125,-0.497366 7.16422,-0.491378 10.730178,-0.653478 -0.107841,1.377373 -2.422764,2.538211 -3.434677,3.807725 -1.795903,1.311219 -2.987971,3.766006 -5.410533,3.890436 z"
       id="path9"
       style="stroke-width:1.05808" />
    <path
       fill="#ffffff"
       d="m 37.447007,36.379023 c 2.532789,0.0067 5.083632,-0.20715 7.605156,-0.06267 1.305304,1.371423 0.265297,3.688778 0.50517,5.469275 0.593505,2.421356 -1.770754,3.251578 -3.692019,3.693746 -2.436189,0.665673 -2.649132,-2.647429 -3.674732,-4.142348 -0.361494,-1.541102 -2.941643,-3.960044 -0.743575,-4.958003 z"
       id="path10"
       style="stroke-width:1.05808" />
    <path
       fill="#ffffff"
       d="m 45.789463,58.768908 c 0.404825,-3.651188 9.642467,-4.234351 4.926625,0.08644 -4.755811,7.148745 -9.729822,14.297563 -15.513117,20.613459 -1.232533,-1.0817 -0.70918,-3.424241 -1.20107,-5.02698 1.802492,-2.97745 5.332629,-5.053502 7.275691,-8.167316 1.777102,-2.3245 3.310231,-4.83858 4.511871,-7.505603 z"
       id="path11"
       style="stroke-width:1.05808" />
  </g>
</svg>
