<?xml version="1.0" encoding="UTF-8" standalone="no"?>
<!-- Created with Inkscape (http://www.inkscape.org/) -->

<svg
   width="100"
   height="100"
   id="svg2"
   sodipodi:version="0.32"
   inkscape:version="1.3 (0e150ed6c4, 2023-07-21)"
   version="1.0"
   sodipodi:docname="bc.svg"
   inkscape:output_extension="org.inkscape.output.svg.inkscape"
   xmlns:inkscape="http://www.inkscape.org/namespaces/inkscape"
   xmlns:sodipodi="http://sodipodi.sourceforge.net/DTD/sodipodi-0.dtd"
   xmlns:xlink="http://www.w3.org/1999/xlink"
   xmlns="http://www.w3.org/2000/svg"
   xmlns:svg="http://www.w3.org/2000/svg"
   xmlns:rdf="http://www.w3.org/1999/02/22-rdf-syntax-ns#"
   xmlns:cc="http://creativecommons.org/ns#"
   xmlns:dc="http://purl.org/dc/elements/1.1/">
  <defs
     id="defs4">
    <linearGradient
       id="linearGradient3214">
      <stop
         style="stop-color:#c6c600;stop-opacity:1;"
         offset="0"
         id="stop3216" />
      <stop
         style="stop-color:#ffff00;stop-opacity:1;"
         offset="1"
         id="stop3218" />
    </linearGradient>
    <linearGradient
       id="linearGradient3202">
      <stop
         style="stop-color:#ff0000;stop-opacity:1;"
         offset="0"
         id="stop3204" />
      <stop
         style="stop-color:#bd0000;stop-opacity:1;"
         offset="1"
         id="stop3206" />
    </linearGradient>
    <linearGradient
       id="linearGradient3194">
      <stop
         style="stop-color:#dedede;stop-opacity:1;"
         offset="0"
         id="stop3196" />
      <stop
         style="stop-color:#989898;stop-opacity:1;"
         offset="1"
         id="stop3198" />
    </linearGradient>
    <inkscape:perspective
       sodipodi:type="inkscape:persp3d"
       inkscape:vp_x="0 : 556.18109 : 1"
       inkscape:vp_y="0 : 1000 : 0"
       inkscape:vp_z="744.09448 : 556.18109 : 1"
       inkscape:persp3d-origin="372.04724 : 380.78739 : 1"
       id="perspective10" />
    <linearGradient
       inkscape:collect="always"
       xlink:href="#linearGradient3202"
       id="linearGradient3208"
       x1="42.241379"
       y1="32.741379"
       x2="115.51724"
       y2="62.051723"
       gradientUnits="userSpaceOnUse"
       gradientTransform="translate(-32.758621,-3.8793108)" />
  </defs>
  <sodipodi:namedview
     id="base"
     pagecolor="#ffffff"
     bordercolor="#666666"
     borderopacity="1.0"
     gridtolerance="10000"
     guidetolerance="10"
     objecttolerance="10"
     inkscape:pageopacity="0.0"
     inkscape:pageshadow="2"
     inkscape:zoom="2.8410986"
     inkscape:cx="17.422838"
     inkscape:cy="64.939668"
     inkscape:document-units="px"
     inkscape:current-layer="layer1"
     showgrid="false"
     inkscape:window-width="1366"
     inkscape:window-height="715"
     inkscape:window-x="144"
     inkscape:window-y="892"
     inkscape:showpageshadow="2"
     inkscape:pagecheckerboard="0"
     inkscape:deskcolor="#d1d1d1"
     inkscape:window-maximized="1" />
  <metadata
     id="metadata7">
    <rdf:RDF>
      <cc:Work
         rdf:about="">
        <dc:format>image/svg+xml</dc:format>
        <dc:type
           rdf:resource="http://purl.org/dc/dcmitype/StillImage" />
      </cc:Work>
    </rdf:RDF>
  </metadata>
  <g
     inkscape:label="Layer 1"
     inkscape:groupmode="layer"
     id="layer1">
    <g
       stroke-width="2"
       fill="none"
       stroke-linecap="butt"
       id="g5"
       transform="matrix(1.0600325,0,0,1.0598684,-3.1436892,-2.6618319)">
      <path
         stroke="#808080"
         vector-effect="non-scaling-stroke"
         d="M 91.99,50 C 92.398485,29.838258 76.272738,11.099799 56.275304,8.4987702 28.385375,3.1600603 1.6078037,31.82467 9.1022755,59.339204 14.457418,88.607828 53.752359,102.35772 76.187867,82.813467 86.078118,75.020695 92.063836,62.591223 91.99,50 Z"
         id="path1" />
      <path
         stroke="#808080"
         vector-effect="non-scaling-stroke"
         d="m 62.65,46.24 c 1.461602,-1.18716 5.084568,-3.775941 1.488398,-4.805312 C 59.925955,40.700504 52.66195,37.816248 50.03,41.9 49.904089,52.494444 49.497101,63.11634 50.01562,73.698125 50.536578,77.638141 52.288718,84.078197 57.52312,80.785 66.410898,78.593564 74.84599,74.620849 82.22,69.2 83.5028,63.4669 78.540189,57.538491 77.383755,51.704698 75.209358,46.017511 75.359785,39.922949 75.4275,33.9675 75.809158,28.290893 70.43336,28.016976 66.464316,29.598975 62.271072,29.25126 55.962196,34.323566 53.19,30.31 53.09076,26.607674 55.202822,20.13761 51.486578,18.492132 c -1.868083,3.662512 -2.019314,8.303792 -1.82117,12.445173 -0.178133,3.700984 2.985548,4.96951 5.95902,4.044215 5.233105,-0.420432 10.459319,-1.128132 15.696822,-1.36527 1.676168,1.33851 0.238605,3.930377 0.322684,5.844761 C 70.922622,45.477341 70.201311,51.49367 69.48,57.51 c -1.594052,1.497896 -3.192132,-1.611036 -4.716998,-2.430837 -3.505322,-2.703975 -3.257766,2.347811 -0.820456,3.821944 1.675818,2.076297 3.351636,4.152595 5.027454,6.228893 4.389137,1.91063 6.16427,-5.040124 5.96,-8.45 2.002378,-1.594647 1.802041,2.721618 2.46528,4.189526 C 77.611851,62.779329 78.901771,64.750035 78.24,66.61 71.996401,71.312572 64.829923,74.776236 57.27,76.76 55.155375,74.519774 55.580282,70.091157 54.834453,66.938174 55.058198,63.656745 52.797108,59.139681 55.78625,56.79 59.815885,52.735885 65.597492,50.84115 69.15,46.31 69.090951,43.674913 65.785479,46.210081 64.189767,46.459156 63.751795,46.556565 62.255495,47.457013 62.65,46.24 Z"
         id="path2" />
      <path
         stroke="#808080"
         vector-effect="non-scaling-stroke"
         d="m 29.19,52.5 c -0.804697,6.092058 -0.683857,12.305634 0.37,18.36 4.662534,3.87066 4.679697,-7.404796 10.081733,-7.000347 C 41.92132,62.714012 47.510705,60.152371 44.59,58.04 c 0.805006,-2.019668 2.337938,-3.846496 2.6,-6.01 -2.372529,-7.029554 -10.132362,-1.419249 -14.354312,-1.7463 -0.766842,-1.545427 -3.237775,-3.034699 -1.759705,-4.84889 2.385588,-4.490162 4.541768,-9.133245 7.071517,-13.52731 2.14107,0.159447 8.434908,-3.188892 3.477665,-3.303879 C 34.253443,27.659081 26.881722,26.71454 19.51,25.77 c -2.432736,2.792696 4.695245,4.396989 7.074531,5.331562 2.820683,0.671537 7.549273,0.147226 4.215313,4.052344 C 26.17282,45.33831 21.426906,55.505234 17.32125,65.9025 c -1.14683,3.397389 2.14366,6.000153 3.445411,1.820813 C 23.864201,62.904429 26.083869,57.5857 28.04,52.22 l 0.692569,-0.380795 z"
         id="path3" />
      <path
         stroke="#808080"
         vector-effect="non-scaling-stroke"
         d="m 53.03,43.52 c 0.668146,2.526117 -0.265991,10.360347 3.780625,5.969375 2.327054,-2.071751 4.608694,-6.394129 -0.101761,-5.709516 C 55.513742,43.755978 54.131629,43.288971 53.03,43.52 Z"
         id="path4" />
      <path
         stroke="#808080"
         vector-effect="non-scaling-stroke"
         d="m 42.68,53.25 c -0.0927,-2.198445 -3.328686,-0.360008 -4.887723,-0.467573 -1.587755,0.604432 -4.351019,-0.179129 -4.849999,1.76989 0.425907,2.642561 0.851815,5.285122 1.277722,7.927683 1.707505,1.412658 2.612041,-2.06734 3.842452,-3.079709 C 39.601635,57.350194 41.140817,55.300097 42.68,53.25 Z"
         id="path5" />
    </g>
    <path
       fill="#000000"
       d="M 99.658262,50.342187 C 101.06791,84.457084 61.79832,110.69213 30.814832,96.334774 -1.2475555,84.581714 -10.461504,38.267245 14.661882,15.140983 35.962446,-7.965672 77.185135,-2.409351 92.409844,24.476247 c 4.724206,7.743113 7.261055,16.79583 7.248418,25.86594 z m -5.289561,-0.0106 C 94.801714,28.962797 77.707892,9.1024945 56.509962,6.345746 26.94573,0.68741596 -1.4393651,31.068131 6.5050192,60.229912 12.181644,91.250809 53.835559,105.82388 77.617926,85.10955 88.101913,76.850228 94.446973,63.676625 94.368701,50.331589 Z"
       id="path6"
       style="stroke-width:1.05995" />
    <path
       fill="#ffffff"
       d="M 94.368701,50.331589 C 95.738262,81.837694 58.372021,105.31283 30.575838,90.409093 1.5911919,77.972851 -3.3498415,34.126762 22.140347,15.553631 44.161353,-3.6514946 81.719979,7.1177118 91.293304,34.080245 c 2.028866,5.161676 3.077949,10.70536 3.075397,16.251344 z M 63.267347,46.346484 c 1.549346,-1.258233 5.389808,-4.002 1.57775,-5.092997 -4.465326,-0.778145 -12.165408,-3.83507 -14.95536,0.493168 -0.13347,11.228713 -0.56489,22.486528 -0.01524,33.701823 0.552232,4.175903 2.409557,11.001519 7.958194,7.511161 C 67.254019,80.637 76.19549,76.426451 84.01218,70.681062 85.37199,64.604731 80.111462,58.321396 78.885604,52.138347 76.580673,46.110673 76.74013,39.651242 76.81191,33.339249 77.216479,27.322789 71.517959,27.03248 67.310644,28.709182 62.865668,28.340655 56.178055,33.716636 53.239438,29.462779 53.13424,25.538797 55.373094,18.681385 51.433755,16.937395 c -1.980229,3.881781 -2.140539,8.800922 -1.9305,13.190241 -0.188827,3.922562 3.164778,5.267036 6.316755,4.28634 5.547262,-0.4456 11.087218,-1.195669 16.639142,-1.447006 1.776792,1.418644 0.252928,4.165685 0.342055,6.194676 -0.764614,6.376518 -1.529228,12.753037 -2.293841,19.129555 -1.689746,1.587576 -3.383763,-1.70749 -5.000171,-2.576371 -3.715755,-2.865853 -3.453337,2.48837 -0.86971,4.050764 1.776422,2.200595 3.552844,4.401199 5.329265,6.601804 5.527645,2.010952 5.84133,-6.355946 6.962979,-9.73964 1.673372,1.144117 1.300446,3.703848 2.034517,5.49776 0.215011,1.933349 1.541474,3.929759 0.829005,5.810485 -6.618417,4.984106 -14.215117,8.65514 -22.228882,10.757665 -2.24157,-2.37435 -1.791155,-7.068093 -2.581758,-10.409847 0.237177,-3.477885 -2.159652,-8.265374 1.008936,-10.755725 4.271544,-4.296824 10.400235,-6.304999 14.166009,-11.107421 -0.0626,-2.792849 -3.566502,-0.105881 -5.258009,0.15809 -0.464264,0.103226 -2.05039,1.057589 -1.632202,-0.232281 z M 27.798659,52.98126 c -0.853004,6.456782 -0.72491,13.042348 0.392213,19.459184 4.942438,4.102391 4.96063,-7.848114 10.686965,-7.419449 2.416435,-1.214228 8.341365,-3.92923 5.245323,-6.168064 0.853332,-2.140584 2.47829,-4.076784 2.756085,-6.369809 C 44.364287,45.032724 36.138611,50.978903 31.663208,50.632273 30.850329,48.994321 28.23106,47.415891 29.797863,45.493088 32.326664,40.73411 34.612284,35.813055 37.2939,31.15592 c 2.269604,0.168995 8.941277,-3.379804 3.686439,-3.501679 -7.814266,-1.001088 -15.628529,-2.002176 -23.442794,-3.003263 -2.578779,2.959893 4.977112,4.66023 7.499232,5.650751 2.990016,0.711744 8.002475,0.156045 4.468369,4.294958 -4.904795,10.794124 -9.935618,21.569721 -14.287747,32.58946 -1.215677,3.600786 2.272349,6.359369 3.652247,1.929819 3.283494,-5.10738 5.636413,-10.744533 7.709976,-16.431469 l 0.734145,-0.403587 z"
       id="path7"
       style="stroke-width:1.05995" />
    <path
       fill="#000000"
       d="m 63.659559,47.0248 c 2.080336,-0.568726 4.066218,-1.844267 6.213395,-1.912819 -0.07505,4.870996 -7.514854,6.564963 -10.765904,9.879055 -4.368828,2.003066 -5.47478,5.95203 -4.409735,10.346837 0.480638,4.447579 0.827579,9.098621 2.342855,13.284009 5.462527,-0.892779 10.694663,-3.415117 15.592554,-6.014826 2.469614,-2.114745 8.728409,-3.368496 7.045362,-7.540594 -0.636498,-2.622305 -1.272996,-5.244621 -1.909494,-7.866925 -2.713154,-0.296848 -0.970079,6.339337 -3.871272,8.279066 -2.350573,3.662174 -5.027762,-0.321882 -6.584023,-2.39826 -1.599525,-1.981466 -3.199049,-3.962932 -4.798573,-5.944399 -0.363699,-4.719796 3.994012,-0.775696 5.602083,0.803836 2.174508,2.52608 2.840624,-1.108273 2.792898,-3.003868 0.76427,-7.031591 1.843378,-14.048101 2.408075,-21.089252 -1.374375,-1.807266 -4.157995,-0.355034 -6.184038,-0.496315 -5.067866,0.411516 -10.135329,1.082571 -15.203443,1.332287 -3.681984,-2.84014 -2.48914,-8.26249 -2.076203,-12.306625 -0.351333,-2.268677 2.041037,-8.37146 3.548076,-3.666131 1.624509,3.955445 -2.505276,11.046381 2.195839,12.600382 5.997491,-1.300555 11.996321,-3.078547 18.118917,-3.535128 5.223016,3.045458 2.258154,10.520519 3.204163,15.444742 0.917637,8.897299 5.316968,16.862634 7.801314,25.341453 -2.662399,5.662771 -10.589329,7.831835 -16.055145,10.813308 -5.019752,1.341741 -11.552398,5.594421 -16.218828,3.527582 -4.271464,-6.986548 -2.398731,-15.492352 -2.804553,-23.226497 0.101342,-6.235196 -0.02511,-12.495839 0.370411,-18.713366 4.330503,-2.846944 10.82851,-0.669752 15.680531,0.572329 2.69722,2.148863 -2.004777,3.424848 -2.499177,5.305765 z M 53.069835,43.463641 c 0.552346,2.653933 -0.03047,11.018393 4.007585,6.326747 2.466753,-2.195782 4.885365,-6.776925 -0.10787,-6.051329 -1.266869,-0.02531 -2.731953,-0.520279 -3.899715,-0.275418 z"
       id="path8"
       style="stroke-width:1.05995" />
    <path
       fill="#000000"
       d="m 27.798659,52.98126 c -2.555898,-0.603404 -2.926898,6.158556 -4.783825,8.483685 -1.859648,3.589181 -3.473398,7.713892 -6.484548,10.414277 -3.759848,-3.920485 1.029668,-9.2059 2.262807,-13.35716 3.876624,-9.12729 8.172437,-18.138408 12.090261,-27.201863 -4.957868,-0.829113 -11.612331,-1.531383 -14.438233,-6.003423 1.764421,-1.301646 4.085864,0.0095 6.121072,-0.02163 6.78991,0.869856 13.579821,1.739722 20.36973,2.609577 0.724449,3.100115 -6.104349,1.714581 -6.60133,4.876974 -2.347072,4.73634 -4.993291,9.364795 -7.152591,14.168862 1.199731,1.477318 2.082617,4.883809 4.471965,3.869154 3.946967,-2.661011 13.727793,-3.878895 12.921929,3.089983 -0.790367,1.856476 -2.043931,3.573951 -2.524289,5.523462 3.377389,1.802603 -3.82147,4.84945 -5.747984,5.852583 C 32.944175,65.01384 33.03499,76.671417 28.190872,72.440444 27.073721,66.023057 26.945659,59.438636 27.798659,52.98126 Z m 14.299839,0.794902 c -0.01358,-2.347302 -3.337322,-0.413889 -4.903037,-0.54011 -1.776664,0.620522 -4.360809,-0.07886 -5.464081,1.642372 0.466415,2.893441 0.932828,5.786882 1.399243,8.680322 1.810011,1.497234 2.768848,-2.191107 4.073124,-3.264086 1.631584,-2.172837 3.263167,-4.345662 4.894751,-6.518498 z"
       id="path9"
       style="stroke-width:1.05995" />
    <path
       fill="#ffffff"
       d="m 53.069835,43.463641 c 2.229317,-0.02872 4.787656,0.309461 7.056444,0.7437 0.334331,3.490231 -7.215087,11.017438 -6.519803,3.599281 -0.08323,-1.457436 -0.270787,-2.907929 -0.536641,-4.342981 z"
       id="path10"
       style="stroke-width:1.05995" />
    <path
       fill="#ffffff"
       d="m 42.098498,53.776162 c -2.533477,3.37391 -5.066956,6.747831 -7.600433,10.121743 -2.289286,0.364393 -1.471234,-3.405135 -2.12932,-5.065525 0.03273,-1.661598 -1.741072,-4.632229 0.832977,-4.956676 2.908651,-0.316021 5.841437,-1.237703 8.734771,-1.169384 l 0.303434,0.501253 z"
       id="path11"
       style="stroke-width:1.05995" />
  </g>
</svg>
