<?xml version="1.0" encoding="UTF-8" standalone="no"?>
<!-- Created with Inkscape (http://www.inkscape.org/) -->

<svg
   width="100"
   height="100"
   id="svg2"
   sodipodi:version="0.32"
   inkscape:version="1.3 (0e150ed6c4, 2023-07-21)"
   version="1.0"
   sodipodi:docname="bk.svg"
   inkscape:output_extension="org.inkscape.output.svg.inkscape"
   xmlns:inkscape="http://www.inkscape.org/namespaces/inkscape"
   xmlns:sodipodi="http://sodipodi.sourceforge.net/DTD/sodipodi-0.dtd"
   xmlns:xlink="http://www.w3.org/1999/xlink"
   xmlns="http://www.w3.org/2000/svg"
   xmlns:svg="http://www.w3.org/2000/svg"
   xmlns:rdf="http://www.w3.org/1999/02/22-rdf-syntax-ns#"
   xmlns:cc="http://creativecommons.org/ns#"
   xmlns:dc="http://purl.org/dc/elements/1.1/">
  <defs
     id="defs4">
    <linearGradient
       id="linearGradient3214">
      <stop
         style="stop-color:#c6c600;stop-opacity:1;"
         offset="0"
         id="stop3216" />
      <stop
         style="stop-color:#ffff00;stop-opacity:1;"
         offset="1"
         id="stop3218" />
    </linearGradient>
    <linearGradient
       id="linearGradient3202">
      <stop
         style="stop-color:#ff0000;stop-opacity:1;"
         offset="0"
         id="stop3204" />
      <stop
         style="stop-color:#bd0000;stop-opacity:1;"
         offset="1"
         id="stop3206" />
    </linearGradient>
    <linearGradient
       id="linearGradient3194">
      <stop
         style="stop-color:#dedede;stop-opacity:1;"
         offset="0"
         id="stop3196" />
      <stop
         style="stop-color:#989898;stop-opacity:1;"
         offset="1"
         id="stop3198" />
    </linearGradient>
    <inkscape:perspective
       sodipodi:type="inkscape:persp3d"
       inkscape:vp_x="0 : 556.18109 : 1"
       inkscape:vp_y="0 : 1000 : 0"
       inkscape:vp_z="744.09448 : 556.18109 : 1"
       inkscape:persp3d-origin="372.04724 : 380.78739 : 1"
       id="perspective10" />
    <linearGradient
       inkscape:collect="always"
       xlink:href="#linearGradient3202"
       id="linearGradient3208"
       x1="42.241379"
       y1="32.741379"
       x2="115.51724"
       y2="62.051723"
       gradientUnits="userSpaceOnUse"
       gradientTransform="translate(-32.758621,-3.8793108)" />
  </defs>
  <sodipodi:namedview
     id="base"
     pagecolor="#ffffff"
     bordercolor="#666666"
     borderopacity="1.0"
     gridtolerance="10000"
     guidetolerance="10"
     objecttolerance="10"
     inkscape:pageopacity="0.0"
     inkscape:pageshadow="2"
     inkscape:zoom="2.7559968"
     inkscape:cx="18.686524"
     inkscape:cy="71.299067"
     inkscape:document-units="px"
     inkscape:current-layer="layer1"
     showgrid="false"
     inkscape:window-width="1366"
     inkscape:window-height="715"
     inkscape:window-x="144"
     inkscape:window-y="892"
     inkscape:showpageshadow="2"
     inkscape:pagecheckerboard="0"
     inkscape:deskcolor="#d1d1d1"
     inkscape:window-maximized="1" />
  <metadata
     id="metadata7">
    <rdf:RDF>
      <cc:Work
         rdf:about="">
        <dc:format>image/svg+xml</dc:format>
        <dc:type
           rdf:resource="http://purl.org/dc/dcmitype/StillImage" />
      </cc:Work>
    </rdf:RDF>
  </metadata>
  <g
     inkscape:label="Layer 1"
     inkscape:groupmode="layer"
     id="layer1">
    <g
       stroke-width="2"
       fill="none"
       stroke-linecap="butt"
       id="g3"
       transform="matrix(1.0618862,0,0,1.0617171,-2.8145881,-3.3954329)">
      <path
         stroke="#808080"
         vector-effect="non-scaling-stroke"
         d="M 91.99,50 C 92.398485,29.838258 76.272738,11.099799 56.275304,8.4987702 28.385375,3.1600603 1.6078037,31.82467 9.1022755,59.339204 14.457418,88.607828 53.752359,102.35772 76.187867,82.813467 86.078118,75.020695 92.063836,62.591223 91.99,50 Z"
         id="path1" />
      <path
         stroke="#808080"
         vector-effect="non-scaling-stroke"
         d="M 45.5,50.64 C 39.483528,50.91048 43.326887,41.917257 42.186406,38.23991 42.06383,31.684014 41.607822,24.805235 38.29,18.98 c -1.722185,0.04669 -0.522736,3.276078 -0.857348,4.756824 -0.0712,4.196729 0.264874,8.448739 -0.06265,12.610676 -2.823629,1.389274 -5.940417,2.222973 -8.88,3.3925 -1.329975,-3.345985 2.582919,-9.665 -0.86,-13.52 -3.358431,0.415063 -1.721616,6.986985 -3.455156,9.835938 -1.092011,2.908952 -3.517431,8.898777 1.970735,7.722348 3.675997,0.565004 8.926032,-4.58847 11.313181,-1.82676 0.309078,6.030468 -8.779191,5.584885 -12.745987,8.235154 -2.190788,0.797814 -10.522277,2.856409 -4.328242,3.837539 2.219145,1.200073 8.446122,-3.10825 7.491675,0.765774 -0.902001,3.793388 -1.421277,7.72513 -2.561206,11.432507 -1.161987,-2.251669 -2.333967,-2.959624 -1.835156,0.544063 -1.219774,4.527508 4.317652,6.8771 5.602812,2.017968 C 31.008555,63.163835 30.910003,56.705723 32.53,51.29 c 1.471029,-0.2055 3.528762,-1.984781 4.61,-1.07 -0.127013,6.448325 0.05084,12.959174 -0.266643,19.368435 -3.076714,-2.844886 -1.538725,3.439038 -0.638982,5.352659 0.455009,4.034276 6.467565,4.842731 5.570312,-0.122422 0.221835,-7.291374 0.15311,-14.654375 0.747813,-21.896172 7.443006,0.0412 15.028624,-0.779377 22.0775,-3.3825 1.446809,0.696907 0.391881,3.442172 0.702738,5.036909 0.25451,2.359616 0.126252,5.312779 -3.087499,3.104043 C 58.754125,57.062514 51.965372,53.114503 50.12,56.09 c 4.085225,3.842667 11.203325,3.403738 15.074638,5.485258 -0.345968,5.104989 -0.490101,10.232507 -0.967138,15.322867 -1.555879,0.28039 -2.563757,-2.539595 -3.816974,-3.660723 -1.752058,-2.037325 -3.253377,-4.455753 -5.160511,-6.257376 1.831436,5.465857 5.19855,10.580961 8.764985,15.164974 5.638917,4.281271 6.590254,-4.444829 5.936094,-8.301094 C 70.069204,65.175269 69.915895,56.454875 70.3625,47.82 73.689068,46.323244 77.378633,45.575907 80.723707,44.101925 81.30367,39.230822 73.340405,42.455052 70.57,43.14 c -1.420977,-0.753598 -0.858325,-3.354256 -1.403229,-4.901864 -0.279495,-1.585676 -0.07135,-4.02306 -2.38288,-3.679252 -2.56363,-0.09572 0.0068,-2.664129 0.502538,-3.874825 1.15629,-2.15089 2.624128,-4.158979 3.549196,-6.416559 -2.603639,-4.441468 -9.472368,0.224548 -13.482869,0.935354 -2.5297,-0.59984 2.335867,-5.613576 1.622066,-8.284746 -0.481563,-3.88449 -2.603657,0.501136 -3.452934,1.912768 C 54.297925,20.833917 53.073963,22.836959 51.85,24.84 c 0.595055,5.481096 8.315226,1.914316 12.090215,1.358657 0.299916,1.565972 -1.827914,2.891851 -2.56225,4.343493 -1.0594,1.225958 -1.827814,3.464493 -3.849817,2.694992 C 55.348765,33.018095 53.169383,32.799047 50.99,32.58 c -1.450478,1.650279 2.452915,1.931743 3.622205,2.803637 4.255871,1.719021 -2.871716,4.02865 -4.863455,2.461207 -4.299936,-1.110301 -2.17688,0.941357 0.03067,1.952675 1.992192,0.656967 2.83775,2.350354 0.743019,3.565007 -0.981149,0.943997 -2.838795,3.714043 -3.049302,0.853732 C 45.916379,39.504796 43.999297,50.345088 45.5,50.64 Z"
         id="path2" />
      <path
         stroke="#808080"
         vector-effect="non-scaling-stroke"
         d="m 65.25,45.15 c 0.571158,-2.26309 0.09234,-4.862663 0.25,-7.258264 -1.158821,-3.384651 -6.475328,3.123394 -8.117812,4.737483 C 55.940816,44.784874 50.181995,48.723494 51.08,49.93 c 4.723333,-1.593333 9.446667,-3.186667 14.17,-4.78 z"
         id="path3" />
    </g>
    <path
       fill="#000000"
       d="M 100.16714,49.701038 C 101.57925,83.875439 62.240988,110.15625 31.203318,95.773847 -0.91513811,84.000287 -10.1452,37.605034 15.022121,14.43843 36.359933,-8.7085243 77.654715,-3.1425118 92.906045,23.789982 97.63851,31.5466 100.1798,40.615108 100.16714,49.701038 Z m -5.298814,-0.01062 C 95.302096,28.284357 78.178384,8.3894141 56.943382,5.6278563 27.327451,-0.04034329 -1.1072832,30.393363 6.8509934,59.606009 12.537545,90.681014 54.264302,105.27951 78.088261,84.529043 88.590582,76.255315 94.946735,63.058735 94.868326,49.690422 Z"
       id="path4"
       style="stroke-width:1.06181" />
    <path
       fill="#ffffff"
       d="M 94.868326,49.690421 C 96.240282,81.251479 58.808697,104.76756 30.963906,89.83783 1.9285731,77.379897 -3.0211005,33.45733 22.513663,14.8518 44.573178,-4.3868219 82.197486,6.4011686 91.78755,33.410731 c 2.032418,5.170678 3.083336,10.724033 3.080776,16.27969 z m -49.36709,0.679499 c -6.38881,0.287173 -2.3076,-9.261082 -3.518661,-13.165388 -0.130162,-6.960511 -0.614391,-14.263828 -4.137539,-20.448575 -1.87399,-0.08557 -0.530076,3.314808 -0.912447,4.76831 -0.07498,4.549766 0.282706,9.158244 -0.06449,13.671062 -2.998373,1.475012 -6.308047,2.360165 -9.429549,3.601874 -1.431796,-3.533075 3.406161,-11.897059 -1.974157,-14.670923 -1.537593,5.735821 -3.202952,12.218601 -4.335516,18.109337 4.95745,3.12955 10.901249,-2.62277 15.633033,-1.867072 1.809703,6.782249 -8.317,6.465571 -12.320535,9.149347 -2.283644,1.513233 -7.642873,1.397729 -8.184488,3.761133 3.222948,2.331668 8.678709,-1.274379 10.762473,0.392835 -1.035361,4.395561 -1.664309,8.938012 -2.9523,13.242267 -1.233897,-2.390638 -2.478407,-3.142279 -1.948727,0.577638 -1.29526,4.806934 4.584856,7.301533 5.94955,2.142512 2.045085,-5.967593 1.940435,-12.824279 3.660686,-18.574241 1.562066,-0.218183 3.747145,-2.107275 4.895296,-1.136037 -0.134873,6.846291 0.05399,13.758972 -0.283144,20.563804 -3.26712,-3.020469 -1.633952,3.651276 -0.678527,5.682999 0.483169,4.283264 6.867819,5.14161 5.915039,-0.129975 0.235562,-7.741372 0.162584,-15.558795 0.794092,-23.247538 7.903625,0.04374 15.958688,-0.827481 23.443793,-3.591257 1.536346,0.739921 0.416132,3.65461 0.746228,5.347772 0.27026,2.505239 0.134065,5.64067 -3.278573,3.295613 -3.707168,-0.656608 -10.91605,-4.848278 -12.875626,-1.689139 4.338045,4.079829 11.896657,3.613809 16.007551,5.823795 -0.367378,5.420054 -0.520431,10.86402 -1.02699,16.268552 -1.652166,0.297695 -2.722418,-2.696337 -4.053192,-3.88666 -1.860487,-2.163057 -3.454716,-4.730745 -5.479876,-6.643556 1.944777,5.803186 5.520269,11.233986 9.307417,16.100908 5.546002,4.43597 7.090529,-3.816959 6.299795,-7.845421 0.121994,-9.52632 -0.03948,-19.107606 0.440529,-28.598018 3.532436,-1.589136 7.450332,-2.382589 11.002426,-3.947539 0.910577,-4.969526 -7.473554,-1.956818 -10.14906,-1.204326 -2.335534,0.553568 -1.416439,-3.212481 -2.079168,-4.742701 -0.446722,-1.567296 0.131161,-4.404385 -2.294762,-4.146525 -2.905618,0.144191 -0.614074,-2.600952 0.112288,-3.908563 1.273966,-2.365485 2.882759,-4.577434 3.91068,-7.056438 -2.764768,-4.715585 -10.058577,0.238409 -14.317273,0.993077 -2.686253,-0.63686 2.480426,-5.960023 1.72245,-8.796049 -0.511366,-4.124229 -2.764788,0.532058 -3.666623,2.03082 -1.299709,2.126662 -2.599418,4.253324 -3.899128,6.379985 0.631882,5.819378 8.829824,2.032467 12.838434,1.442513 0.318476,1.662617 -1.941037,3.070327 -2.720818,4.611557 -1.124963,1.301623 -1.940931,3.678309 -4.088068,2.861318 -2.314257,-0.23257 -4.628513,-0.465128 -6.942769,-0.697697 -1.418828,1.770582 2.759994,2.133711 4.106014,3.087059 4.07619,2.356789 -4.093458,3.876276 -6.081528,2.399363 -4.708894,-0.89045 -0.3628,1.590665 1.168715,2.475278 2.569827,0.729154 1.644785,2.729843 -0.08338,3.890513 -1.147783,1.69982 -2.940068,2.849234 -2.975407,-0.04661 -2.340922,-2.87616 -3.074047,6.621378 -1.964171,7.369007 z"
       id="path5"
       style="stroke-width:1.06181" />
    <path
       fill="#000000"
       d="m 45.702993,49.955851 c -2.724502,-2.840126 1.601214,-11.149984 2.458267,-4.828159 1.560928,-1.140666 3.011389,-2.742606 4.242794,-4.272402 -0.771887,-1.602206 -3.009823,-2.128139 -4.39871,-3.270163 -2.761943,-2.426491 5.165424,0.29538 6.661971,-0.479844 4.28496,-1.193635 0.661131,-3.289868 -1.55094,-3.809578 -2.973968,-0.450678 -2.337132,-2.846559 0.460466,-1.874706 2.232987,0.02931 4.59253,0.871882 6.737707,0.33702 1.61753,-2.356013 3.681624,-4.503176 5.027126,-6.986405 -3.848819,-0.372016 -9.289412,3.127266 -13.159908,0.212693 -0.291805,-2.943886 2.264516,-5.038601 3.446081,-7.543203 1.169448,-1.534499 1.758717,-3.679624 3.33449,-4.786485 3.48081,2.792518 -3.851457,9.743982 -0.874824,10.708244 4.258696,-0.754668 11.552505,-5.708662 14.317273,-0.993077 -1.589169,3.457493 -3.775841,6.63966 -5.612732,9.982795 0.587126,1.610041 4.307259,0.445391 3.619119,3.445039 0.45873,2.175213 0.478774,4.498983 1.207154,6.582879 3.387705,-0.177508 10.429125,-4.285164 11.604908,0.587745 -1.765948,1.588478 -4.502535,1.747693 -6.686414,2.714695 -1.632463,0.961957 -5.085133,0.56015 -4.792156,3.13216 -0.289333,10.715857 -0.07538,21.453989 -0.449715,32.158646 -0.241329,7.218083 -8.050482,2.962159 -9.341198,-1.547612 -1.837829,-2.858291 -6.481143,-10.059536 -5.472683,-11.191157 2.758042,3.393398 5.349827,6.934054 8.216414,10.231291 1.51988,-0.703749 0.675845,-3.769808 1.081306,-5.507392 0.109257,-3.931401 0.698909,-7.914421 0.49825,-11.812526 -5.029303,-0.524638 -14.364054,-1.641298 -15.551323,-6.200429 5.276442,-0.840327 11.835879,4.389352 15.823181,2.860585 -0.113055,-2.85639 0.273462,-5.796572 -0.16036,-8.599166 -7.354245,2.194676 -15.06905,3.850913 -22.834536,3.481435 -3.134288,1.960726 -0.786117,8.862386 -1.737511,12.709751 -0.913979,4.635574 1.480047,10.965913 -1.906086,14.379631 -4.218867,0.203552 -5.29311,-6.077746 -5.468216,-9.449983 -0.223606,-2.196087 2.766588,2.062162 2.033479,-1.546454 0.0494,-6.285907 0.0988,-12.571814 0.148199,-18.85772 -1.162998,-0.921783 -3.323669,0.88597 -4.895296,1.136037 -1.720251,5.749962 -1.615601,12.606648 -3.660686,18.574241 -1.035384,4.599348 -6.963964,3.387387 -5.909563,-1.358498 -0.519232,-2.554725 0.238427,-5.196331 1.499915,-1.778376 1.277582,0.210814 1.075917,-3.345078 1.668117,-4.788324 0.511499,-2.916335 1.429086,-5.817922 1.692752,-8.743261 -3.148175,0.206536 -9.59289,2.706285 -10.709122,-0.642338 6.800303,-2.360591 13.805599,-4.521843 20.165219,-7.879268 2.251334,-3.142545 -0.764705,-6.038198 -3.764221,-3.462854 -3.537286,1.442682 -13.675437,4.945457 -11.042621,-2.228279 2.025086,-4.65082 1.947143,-10.145248 3.796034,-14.626799 5.380318,2.773864 0.542361,11.137848 1.974157,14.670923 3.120565,-1.243482 6.43248,-2.124389 9.429549,-3.601874 0.335269,-5.878664 -0.02877,-11.852235 0.03487,-17.767761 2.019437,-1.728678 3.445921,5.780232 4.055964,8.013543 1.626276,7.82804 0.605847,15.903141 1.350669,23.776177 0.199471,1.251754 3.130163,1.889496 3.393391,0.738563 z m 20.770495,-5.414758 c 0.606504,-2.402761 0.09805,-5.162769 0.265471,-7.706219 -1.230536,-3.593551 -6.876061,3.316157 -8.620193,5.029864 -1.530572,2.28869 -7.645785,6.47039 -6.692206,7.751363 5.015642,-1.691666 10.031285,-3.383342 15.046928,-5.075008 z"
       id="path6"
       style="stroke-width:1.06181" />
    <path
       fill="#ffffff"
       d="m 66.473488,44.541093 c -5.202529,1.723804 -10.371937,3.55998 -15.595126,5.2137 1.807401,-3.125865 6.235597,-6.415829 8.942076,-9.672413 1.457309,-2.000094 7.912429,-7.372382 6.918521,-1.91624 -0.180343,2.082399 0.359206,4.440812 -0.265471,6.374953 z"
       id="path7"
       style="stroke-width:1.06181" />
  </g>
</svg>
