<?xml version="1.0" encoding="UTF-8" standalone="no"?>
<!-- Created with Inkscape (http://www.inkscape.org/) -->

<svg
   width="100"
   height="100"
   id="svg2"
   sodipodi:version="0.32"
   inkscape:version="1.3 (0e150ed6c4, 2023-07-21)"
   version="1.0"
   sodipodi:docname="bn.svg"
   inkscape:output_extension="org.inkscape.output.svg.inkscape"
   xmlns:inkscape="http://www.inkscape.org/namespaces/inkscape"
   xmlns:sodipodi="http://sodipodi.sourceforge.net/DTD/sodipodi-0.dtd"
   xmlns:xlink="http://www.w3.org/1999/xlink"
   xmlns="http://www.w3.org/2000/svg"
   xmlns:svg="http://www.w3.org/2000/svg"
   xmlns:rdf="http://www.w3.org/1999/02/22-rdf-syntax-ns#"
   xmlns:cc="http://creativecommons.org/ns#"
   xmlns:dc="http://purl.org/dc/elements/1.1/">
  <defs
     id="defs4">
    <linearGradient
       id="linearGradient3214">
      <stop
         style="stop-color:#c6c600;stop-opacity:1;"
         offset="0"
         id="stop3216" />
      <stop
         style="stop-color:#ffff00;stop-opacity:1;"
         offset="1"
         id="stop3218" />
    </linearGradient>
    <linearGradient
       id="linearGradient3202">
      <stop
         style="stop-color:#ff0000;stop-opacity:1;"
         offset="0"
         id="stop3204" />
      <stop
         style="stop-color:#bd0000;stop-opacity:1;"
         offset="1"
         id="stop3206" />
    </linearGradient>
    <linearGradient
       id="linearGradient3194">
      <stop
         style="stop-color:#dedede;stop-opacity:1;"
         offset="0"
         id="stop3196" />
      <stop
         style="stop-color:#989898;stop-opacity:1;"
         offset="1"
         id="stop3198" />
    </linearGradient>
    <inkscape:perspective
       sodipodi:type="inkscape:persp3d"
       inkscape:vp_x="0 : 556.18109 : 1"
       inkscape:vp_y="0 : 1000 : 0"
       inkscape:vp_z="744.09448 : 556.18109 : 1"
       inkscape:persp3d-origin="372.04724 : 380.78739 : 1"
       id="perspective10" />
    <linearGradient
       inkscape:collect="always"
       xlink:href="#linearGradient3202"
       id="linearGradient3208"
       x1="42.241379"
       y1="32.741379"
       x2="115.51724"
       y2="62.051723"
       gradientUnits="userSpaceOnUse"
       gradientTransform="translate(-32.758621,-3.8793108)" />
  </defs>
  <sodipodi:namedview
     id="base"
     pagecolor="#ffffff"
     bordercolor="#666666"
     borderopacity="1.0"
     gridtolerance="10000"
     guidetolerance="10"
     objecttolerance="10"
     inkscape:pageopacity="0.0"
     inkscape:pageshadow="2"
     inkscape:zoom="4.0179202"
     inkscape:cx="37.45719"
     inkscape:cy="56.123564"
     inkscape:document-units="px"
     inkscape:current-layer="layer1"
     showgrid="false"
     inkscape:window-width="1366"
     inkscape:window-height="715"
     inkscape:window-x="144"
     inkscape:window-y="892"
     inkscape:showpageshadow="2"
     inkscape:pagecheckerboard="0"
     inkscape:deskcolor="#d1d1d1"
     inkscape:window-maximized="1" />
  <metadata
     id="metadata7">
    <rdf:RDF>
      <cc:Work
         rdf:about="">
        <dc:format>image/svg+xml</dc:format>
        <dc:type
           rdf:resource="http://purl.org/dc/dcmitype/StillImage" />
      </cc:Work>
    </rdf:RDF>
  </metadata>
  <g
     inkscape:label="Layer 1"
     inkscape:groupmode="layer"
     id="layer1">
    <g
       stroke-width="2"
       fill="none"
       stroke-linecap="butt"
       id="g6"
       transform="matrix(1.0636741,0,0,1.0555625,-3.3993127,-2.9200623)">
      <path
         stroke="#808080"
         vector-effect="non-scaling-stroke"
         d="M 91.99,50 C 92.398485,29.838258 76.272738,11.099799 56.275304,8.4987702 28.385375,3.1600603 1.6078037,31.82467 9.1022755,59.339204 14.457418,88.607828 53.752359,102.35772 76.187867,82.813467 86.078118,75.020695 92.063836,62.591223 91.99,50 Z"
         id="path1" />
      <path
         stroke="#808080"
         vector-effect="non-scaling-stroke"
         d="m 46.73,62.94 c 1.158733,1.789951 1.821595,4.002453 3.3,5.52 4.601202,0.94496 3.512558,7.97136 6.716719,10.938984 1.131811,5.4651 8.308889,6.201419 9.727412,0.535694 4.494093,-9.87065 7.749633,-20.315187 9.658213,-30.989522 -1.044932,-4.917991 -8.012237,-2.812352 -11.634676,-2.443093 -3.054459,-0.286452 -8.46332,3.753388 -9.865637,1.076062 0.03218,-2.977774 1.978222,-5.399847 4.957153,-5.592516 2.267808,-0.71194 4.652724,-1.136246 6.842636,-2.039507 C 66.963462,34.96253 59.165504,37.668946 56.4,38.9 c -1.087092,-0.5972 -1.317852,-3.868688 -0.49,-4.89 2.166675,-0.918272 9.50178,0.389002 8.38,-2.77 -2.633489,-1.850767 -8.040449,0.509513 -9.062029,-2.255999 C 55.213632,27.024608 54.838672,25.02825 55.055,23.0925 c 3.052101,-0.857568 6.297335,-1.147156 9.425,-1.7825 1.306504,-3.587314 -6.500541,-2.528043 -9.100593,-2.584073 -7.512867,0.237659 -15.279085,0.10876 -22.321282,-2.832177 -2.406081,3.522297 5.935413,3.646482 6.511445,6.703243 -1.307816,9.453571 -3.57386,18.778944 -5.063632,28.201288 -1.2011,6.050519 6.16207,5.246406 10.076506,4.683872 8.564788,-1.119345 16.795941,-3.960238 25.108889,-6.081138 -0.240579,5.033933 -1.925962,10.726277 -4.105576,15.350884 C 63.529677,62.186629 59.298538,55.974262 56.4,58.01 c 2.083597,3.199316 2.970076,7.3048 5.7325,9.95 3.579625,-0.334236 2.401081,1.844819 1.279476,4.022976 -1.226592,2.477895 -2.041877,5.286459 -3.524476,7.559524 -2.431548,-2.845885 -4.338053,-6.293269 -6.564914,-9.373276 0.291724,-3.390217 0.1393,-7.729413 -3.182203,-10.181468 -3.081811,-2.547704 -5.050164,1.402071 -6.825532,3.325156 -2.422901,3.969624 -3.497951,-4.295114 -6.73907,-4.010158 -3.493748,1.190067 0.832538,7.250249 1.809141,9.838594 1.866989,3.606931 5.717821,2.256806 5.845231,-1.298775 0.762095,-1.661065 0.893686,-3.773907 2.057883,-5.146853 z"
         id="path2" />
      <path
         stroke="#808080"
         vector-effect="non-scaling-stroke"
         d="m 28.99,65.28 c -1.1,-1.913333 -2.2,-3.826667 -3.3,-5.74 -3.155524,-0.956499 -1.198331,3.300131 -1.163175,5.128081 0.638375,3.117885 0.778164,6.404717 1.743175,9.411919 2.530225,2.919358 6.850368,0.140405 4.780322,-3.111334 C 30.331287,69.127558 30.613849,66.548398 28.99,65.28 Z"
         id="path3" />
      <path
         stroke="#808080"
         vector-effect="non-scaling-stroke"
         d="m 50.67,22.29 c -2.76,0.02667 -5.52,0.05333 -8.28,0.08 -0.54097,1.913461 -0.05174,4.236454 -0.19,6.31 -0.172929,2.987527 2.983545,2.076656 4.833963,2.165802 2.757626,0.706124 4.486204,-1.440916 3.927623,-4.105628 -0.130681,-1.448993 0.192853,-3.087742 -0.195915,-4.431144 z"
         id="path4" />
      <path
         stroke="#808080"
         vector-effect="non-scaling-stroke"
         d="m 41.63,41.16 c 1.191929,1.215589 3.468159,-0.277707 5.125206,-0.275403 1.527806,-0.380532 4.184858,-0.141729 3.656649,-2.482097 C 50.10139,37.034245 51.411518,34.475735 49.734478,34.000205 47.159735,34.017547 44.51348,33.5816 41.983935,33.885439 41.530702,36.2177 41.798068,38.761182 41.63,41.16 Z"
         id="path5" />
      <path
         stroke="#808080"
         vector-effect="non-scaling-stroke"
         d="m 40.08,51.53 c 0.970783,1.980902 3.664951,-0.02024 5.450839,-0.07986 1.638293,-0.629475 4.680236,-0.251304 4.480507,-2.739834 -0.221944,-1.517565 1.289358,-4.461933 -0.935507,-4.661731 C 46.637226,44.312385 44.198613,44.576192 41.76,44.84 40.267199,46.23561 40.787697,48.677682 40.229847,50.559255 40.179898,50.882837 40.129949,51.206418 40.08,51.53 Z"
         id="path6" />
    </g>
    <path
       fill="#000000"
       d="M 99.7558,49.86862 C 101.17029,83.844924 61.765794,109.97339 30.675868,95.674355 -1.4966646,83.969046 -10.742267,37.84273 14.467427,14.810427 35.841166,-8.2023552 77.205469,-2.668607 92.482481,24.107766 97.222915,31.81942 99.768479,40.835362 99.7558,49.86862 Z M 94.448066,49.85806 C 94.882566,28.576085 77.730021,8.7964706 56.459269,6.0509208 26.793475,0.41557861 -1.6891332,30.672868 6.2825423,59.716179 11.978668,90.611042 53.775678,105.12491 77.639746,84.494731 88.159752,76.268973 94.526608,63.148888 94.448066,49.858065 Z"
       id="path7"
       style="stroke-width:1.05961" />
    <path
       fill="#ffffff"
       d="M 94.448066,49.858065 C 95.822333,81.236172 58.327725,104.61593 30.436052,89.772751 1.3518343,77.387034 -3.6061728,33.719073 21.971583,15.221398 44.068238,-3.9057047 81.755892,6.8197504 91.362103,33.672741 c 2.03584,5.14071 3.088526,10.661869 3.085963,16.185324 z M 46.306177,63.517044 c 1.232514,1.889405 1.937583,4.22484 3.510125,5.826705 4.894178,0.997465 3.736216,8.414269 7.144399,11.546782 1.203878,5.768755 8.83795,6.545985 10.346797,0.565458 4.780249,-10.419088 8.243083,-21.44395 10.27319,-32.711378 -1.111467,-5.191247 -8.522409,-2.968613 -12.375504,-2.578837 -3.248948,-0.302369 -9.002213,3.961935 -10.493821,1.13585 0.03423,-3.143226 2.104183,-5.699876 5.272795,-5.90325 2.412208,-0.751497 4.948982,-1.199378 7.278334,-2.152827 0.565494,-5.260472 -7.728991,-2.40368 -10.670587,-1.104226 -1.156311,-0.630383 -1.401765,-4.083642 -0.5212,-5.161701 2.304636,-0.969293 10.106797,0.410616 8.913589,-2.923909 -2.801174,-1.9536 -8.552417,0.537823 -9.639046,-2.381348 -0.01526,-2.068261 -0.414087,-4.175542 -0.183984,-6.218847 3.24644,-0.905217 6.698312,-1.210895 10.025127,-1.88154 1.538157,-3.830731 -7.013614,-2.639057 -9.680064,-2.727651 -7.991242,0.250864 -16.251966,0.114803 -23.742569,-2.989539 -2.559286,3.718004 6.313345,3.849088 6.926055,7.075692 -1.39109,9.978835 -3.801423,19.82235 -5.386054,29.768222 -1.27758,6.386701 6.554434,5.53791 10.718118,4.94412 9.110144,-1.181538 17.865407,-4.180278 26.707674,-6.419021 -0.255897,5.31363 -2.048595,11.322255 -4.366994,16.203818 -2.186999,-2.707804 -6.687552,-9.265345 -9.770652,-7.116497 2.216269,3.377079 3.159193,7.710674 6.097512,10.502848 3.807554,-0.352807 2.553967,1.947322 1.360945,4.246503 -1.304693,2.615573 -2.171892,5.580188 -3.748894,7.97955 -2.586375,-3.004009 -4.614274,-6.642939 -6.982929,-9.894079 0.3103,-3.578585 0.14817,-8.158879 -3.384826,-10.747176 -3.278043,-2.68926 -5.371729,1.479974 -7.260141,3.50991 -2.577178,4.190187 -3.72068,-4.533761 -7.168175,-4.232973 -3.716209,1.256191 0.88555,7.653092 1.924337,10.385252 1.985868,3.807341 6.081898,2.3822 6.21742,-1.370938 0.810621,-1.753358 0.950591,-3.983596 2.188917,-5.432826 z M 27.436599,65.98706 c -1.170042,-2.019642 -2.340084,-4.039286 -3.510125,-6.058928 -3.356449,-1.009645 -1.274633,3.483494 -1.237239,5.41301 0.679023,3.291123 0.827712,6.760578 1.85417,9.934869 2.691335,3.081565 7.286559,0.148206 5.084705,-3.284208 -0.764819,-1.943405 -0.464266,-4.665869 -2.191511,-6.004743 z"
       id="path8"
       style="stroke-width:1.05961" />
    <path
       fill="#000000"
       d="m 46.306177,63.517044 c -1.725599,-0.09587 -1.593669,3.186003 -2.456432,4.58609 -0.703384,2.11151 -1.330184,5.969526 -4.507174,3.836199 -3.180078,-2.756516 -5.827811,-8.499982 -4.821903,-12.23287 4.203191,-1.616484 5.321425,8.516296 8.149797,4.207903 1.882122,-1.870758 3.43605,-5.724714 6.784187,-3.901789 3.71497,2.508526 4.411444,7.273809 3.806848,11.051759 2.280999,3.288391 4.463519,6.651818 6.805296,9.8939 1.366273,-0.654821 1.583864,-3.096511 2.469279,-4.471382 0.955814,-2.42861 2.337404,-4.751605 3.027921,-7.246023 -4.865254,0.62198 -5.483102,-5.230122 -7.570824,-8.285505 -2.415749,-2.619193 -0.63241,-4.90435 2.116171,-2.145431 3.372816,0.813095 6.301638,10.589605 7.653342,3.509498 1.002441,-4.10951 3.564822,-9.373573 2.699531,-13.115777 -10.5466,2.806752 -21.075877,6.672143 -32.114925,6.758688 -7.054232,0.802379 -5.003718,-7.438786 -3.933727,-11.587124 1.49315,-7.798735 3.139112,-15.591846 4.276249,-23.442702 -0.61271,-3.226604 -9.485341,-3.357688 -6.926055,-7.075692 9.589895,4.105163 20.192015,2.772642 30.31787,3.011486 3.973601,-0.238187 4.584955,3.406638 0.598852,3.138551 -2.490503,0.529306 -5.10952,0.683551 -7.519216,1.448693 -0.105241,2.455077 0.01712,5.056807 0.398877,7.483939 2.784796,0.375484 10.002886,-0.7368 9.490632,2.694323 -2.849325,1.746646 -10.823715,-0.937497 -9.345524,4.226573 -0.371667,4.856536 5.476127,-0.450953 8.177394,0.323849 4.358745,-0.651419 4.47805,4.212683 0.417425,4.018584 -2.616172,0.938341 -5.66046,1.105328 -7.963444,2.614679 -2.451152,2.886037 -2.142297,7.698362 2.405837,4.855539 5.64034,-1.256433 11.766812,-3.419178 17.463594,-1.435517 3.353232,4.857208 -1.599297,11.8896 -2.195168,17.41405 -2.229932,6.96769 -4.501714,14.070738 -8.197592,20.412694 -6.015804,5.665609 -9.562061,-4.450565 -11.708559,-8.731235 -0.520454,-3.696712 -2.612462,-5.434426 -5.216346,-7.128632 -0.860738,-1.562438 -1.721475,-3.124879 -2.582213,-4.687318 z m 4.190875,-42.908617 c -2.93574,0.02816 -5.87148,0.05629 -8.80722,0.08445 -0.575416,2.019778 -0.05503,4.471842 -0.202099,6.660599 -0.147766,3.23684 3.392224,2.138517 5.424368,2.283364 3.03552,0.795441 4.400767,-1.948909 3.892306,-4.611422 -0.221721,-1.368222 0.363082,-3.318097 -0.307355,-4.416986 z m -9.615613,19.918466 c 1.267824,1.28313 3.68899,-0.293138 5.451548,-0.290705 1.625088,-0.401676 4.451326,-0.149604 3.889483,-2.620009 -0.330233,-1.444279 1.063317,-4.144947 -0.720508,-4.646898 -2.738687,0.0183 -5.55344,-0.441864 -8.244052,-0.121143 -0.482092,2.461847 -0.197702,5.146652 -0.376471,7.678755 z m -1.648695,10.946182 c 1.032597,2.090967 3.898313,-0.02136 5.797916,-0.08429 1.74261,-0.664451 4.978246,-0.265267 4.765799,-2.892067 -0.236076,-1.601885 1.371458,-4.709849 -0.995074,-4.920748 -2.59389,0.278468 -5.187779,0.556933 -7.781669,0.835399 -1.587853,1.473153 -1.034213,4.050913 -1.627583,6.037031 -0.05313,0.341561 -0.106261,0.683121 -0.159389,1.024681 z"
       id="path9"
       style="stroke-width:1.05961" />
    <path
       fill="#ffffff"
       d="m 50.497052,20.608427 c 0.663528,1.164314 0.09131,3.051368 0.307891,4.470669 0.528012,2.687848 -0.933788,5.337547 -3.946938,4.55827 -2.019875,-0.134982 -5.524607,0.93621 -5.370272,-2.283895 0.151045,-2.187189 -0.378847,-4.643004 0.202099,-6.660599 2.93574,-0.02816 5.87148,-0.05629 8.80722,-0.08445 z"
       id="path10"
       style="stroke-width:1.05961" />
    <path
       fill="#ffffff"
       d="m 40.881439,40.526893 c 0.181336,-2.547124 -0.10923,-5.199549 0.376471,-7.678755 2.882862,-0.252179 5.924325,0.04023 8.832178,0.223953 0.664589,1.76422 -0.05597,3.944767 0.08036,5.865651 -1.169492,1.379942 -3.525337,0.97655 -5.220677,1.563187 -1.257419,-0.0727 -3.331182,1.373195 -4.068334,0.02597 z"
       id="path11"
       style="stroke-width:1.05961" />
    <path
       fill="#ffffff"
       d="m 39.232744,51.473075 c 0.326193,-2.09705 0.652387,-4.194101 0.97858,-6.291152 1.547159,-1.515416 4.122436,-0.843869 6.147041,-1.343688 1.791567,-0.480936 4.553566,-0.48945 3.636972,2.087453 -0.318146,1.72766 0.455501,4.638143 -2.096988,4.77617 -2.512703,0.60189 -5.025406,1.20378 -7.53811,1.805669 l -0.841246,-0.219363 z"
       id="path12"
       style="stroke-width:1.05961" />
    <path
       fill="#000000"
       d="m 27.7557,66.293174 c 1.337072,1.369507 1.141739,3.716559 1.822522,5.495682 1.940066,3.017143 -1.200955,6.413067 -4.354232,4.018729 -1.793722,-1.509798 -1.220102,-4.275153 -1.863745,-6.382094 -0.481372,-2.930044 -0.962743,-5.860088 -1.444115,-8.790133 1.963601,-2.880636 3.205457,1.906447 4.405003,3.426264 0.492288,0.73 0.786447,1.623689 1.434567,2.231552 z"
       id="path13"
       style="stroke-width:1.05961" />
  </g>
</svg>
