<?xml version="1.0" encoding="UTF-8" standalone="no"?>
<!-- Created with Inkscape (http://www.inkscape.org/) -->

<svg
   width="100"
   height="100"
   id="svg2"
   sodipodi:version="0.32"
   inkscape:version="1.3 (0e150ed6c4, 2023-07-21)"
   version="1.0"
   sodipodi:docname="bp.svg"
   inkscape:output_extension="org.inkscape.output.svg.inkscape"
   xmlns:inkscape="http://www.inkscape.org/namespaces/inkscape"
   xmlns:sodipodi="http://sodipodi.sourceforge.net/DTD/sodipodi-0.dtd"
   xmlns:xlink="http://www.w3.org/1999/xlink"
   xmlns="http://www.w3.org/2000/svg"
   xmlns:svg="http://www.w3.org/2000/svg"
   xmlns:rdf="http://www.w3.org/1999/02/22-rdf-syntax-ns#"
   xmlns:cc="http://creativecommons.org/ns#"
   xmlns:dc="http://purl.org/dc/elements/1.1/">
  <defs
     id="defs4">
    <linearGradient
       id="linearGradient3214">
      <stop
         style="stop-color:#c6c600;stop-opacity:1;"
         offset="0"
         id="stop3216" />
      <stop
         style="stop-color:#ffff00;stop-opacity:1;"
         offset="1"
         id="stop3218" />
    </linearGradient>
    <linearGradient
       id="linearGradient3202">
      <stop
         style="stop-color:#ff0000;stop-opacity:1;"
         offset="0"
         id="stop3204" />
      <stop
         style="stop-color:#bd0000;stop-opacity:1;"
         offset="1"
         id="stop3206" />
    </linearGradient>
    <linearGradient
       id="linearGradient3194">
      <stop
         style="stop-color:#dedede;stop-opacity:1;"
         offset="0"
         id="stop3196" />
      <stop
         style="stop-color:#989898;stop-opacity:1;"
         offset="1"
         id="stop3198" />
    </linearGradient>
    <inkscape:perspective
       sodipodi:type="inkscape:persp3d"
       inkscape:vp_x="0 : 556.18109 : 1"
       inkscape:vp_y="0 : 1000 : 0"
       inkscape:vp_z="744.09448 : 556.18109 : 1"
       inkscape:persp3d-origin="372.04724 : 380.78739 : 1"
       id="perspective10" />
    <linearGradient
       inkscape:collect="always"
       xlink:href="#linearGradient3202"
       id="linearGradient3208"
       x1="42.241379"
       y1="32.741379"
       x2="115.51724"
       y2="62.051723"
       gradientUnits="userSpaceOnUse"
       gradientTransform="translate(-32.758621,-3.8793108)" />
  </defs>
  <sodipodi:namedview
     id="base"
     pagecolor="#ffffff"
     bordercolor="#666666"
     borderopacity="1.0"
     gridtolerance="10000"
     guidetolerance="10"
     objecttolerance="10"
     inkscape:pageopacity="0.0"
     inkscape:pageshadow="2"
     inkscape:zoom="2.0089601"
     inkscape:cx="27.626233"
     inkscape:cy="96.318488"
     inkscape:document-units="px"
     inkscape:current-layer="layer1"
     showgrid="false"
     inkscape:window-width="1366"
     inkscape:window-height="715"
     inkscape:window-x="144"
     inkscape:window-y="892"
     inkscape:showpageshadow="2"
     inkscape:pagecheckerboard="0"
     inkscape:deskcolor="#d1d1d1"
     inkscape:window-maximized="1" />
  <metadata
     id="metadata7">
    <rdf:RDF>
      <cc:Work
         rdf:about="">
        <dc:format>image/svg+xml</dc:format>
        <dc:type
           rdf:resource="http://purl.org/dc/dcmitype/StillImage" />
      </cc:Work>
    </rdf:RDF>
  </metadata>
  <g
     inkscape:label="Layer 1"
     inkscape:groupmode="layer"
     id="layer1">
    <g
       stroke-width="2"
       fill="none"
       stroke-linecap="butt"
       id="g4"
       transform="matrix(1.0583679,0,0,1.0529167,-3.3725063,-2.4889705)">
      <path
         stroke="#808080"
         vector-effect="non-scaling-stroke"
         d="M 91.99,50 C 92.398485,29.838258 76.272738,11.099799 56.275304,8.4987702 28.385375,3.1600603 1.6078037,31.82467 9.1022755,59.339204 14.457418,88.607828 53.752359,102.35772 76.187867,82.813467 86.078118,75.020695 92.063836,62.591223 91.99,50 Z"
         id="path1" />
      <path
         stroke="#808080"
         vector-effect="non-scaling-stroke"
         d="m 47.5,19.72 c -1.593389,0.401089 -4.240621,2.613642 -1.115349,1.929341 C 49.506434,21.04956 52.628217,20.44978 55.75,19.85 57.584599,17.669827 53.221766,17.648941 51.74878,16.939756 47.901147,15.907418 44.09768,14.528961 40.2225,13.7125 38.556899,16.965555 47.62553,17.545839 47.5,19.72 Z"
         id="path2" />
      <path
         stroke="#808080"
         vector-effect="non-scaling-stroke"
         d="m 50.06,78.2 c -0.78,-1.71 -1.56,-3.42 -2.34,-5.13 -0.865571,3.015689 1.398179,9.426004 3.699004,12.767969 3.316746,3.345809 4.907557,-1.629954 4.279396,-4.392052 C 55.752267,71.333945 55.806133,61.221972 55.86,51.11 56.888272,49.788507 59.233963,50.183671 60.824356,49.610205 65.569571,48.690137 70.314785,47.770068 75.06,46.85 c 2.25551,-3.915854 -6.185074,-2.530636 -8.61,-2.15625 -3.653742,-0.431332 -8.954216,3.706754 -11.520451,1.035381 -0.780845,-1.794014 -0.01328,-3.430649 1.203094,-4.794233 1.464568,-1.915864 2.612259,-4.164784 4.280225,-5.866865 3.35489,1.370002 7.314186,7.675497 10.752453,4.808368 C 69.169126,36.178298 64.282851,34.681628 61.77,31.88 62.86786,29.177962 60.150838,24.640694 64.579081,25.098648 66.139879,24.504693 69.933063,25.226489 69.14,22.78 65.249721,20.271338 60.43,22.964614 56.149844,22.7575 48.020683,23.192837 39.490688,24.74606 31.67,21.68 c -3.169579,2.550247 4.491759,4.572982 6.825625,4.965176 3.329376,0.205354 7.133981,0.694986 3.622759,3.806682 C 39.348923,34.251239 36.579461,38.050619 33.81,41.85 c -1.394285,0.227422 -1.221032,-5.003845 -2.563906,-1.049844 -1.793162,2.812721 -1.82756,9.027258 2.974531,6.174844 3.567848,-2.276747 5.514416,-6.2671 8.259604,-9.270137 2.410327,2.649977 10.104875,5.903989 7.164712,10.096328 C 41.521049,49.967533 32.910978,50.206519 24.59,49.11 c -0.0746,3.974448 7.936407,4.11945 11.797676,3.898184 4.720216,-0.0014 9.425513,-0.800781 14.064824,-1.350684 0.388201,5.661612 0.159081,11.435841 0.308695,17.140979 -0.07978,3.170521 0.282742,6.442258 -0.07352,9.549508 l -0.35262,0.08034 z"
         id="path3" />
      <path
         stroke="#808080"
         vector-effect="non-scaling-stroke"
         d="m 44.52,35.92 c 2.473333,1.14 4.946667,2.28 7.42,3.42 3.342159,-3.108997 6.380614,-9.249236 7.03,-13.33 -3.523933,0.460308 -7.116209,0.618996 -10.5975,1.2675 -1.580997,2.417979 -2.767357,5.107343 -4.1925,7.6325 l -0.095,0.5925 z"
         id="path4" />
    </g>
    <path
       fill="#000000"
       d="M 99.268013,50.167394 C 100.67545,84.058529 61.467525,110.1215 30.532691,95.858314 -1.4793495,84.182342 -10.678829,38.171648 14.405105,15.197076 35.67222,-7.7580226 76.83018,-2.2381457 92.030978,24.471111 c 4.716787,7.692324 7.249651,16.685668 7.237035,25.696283 z m -5.281256,-0.01053 C 94.41909,28.928229 77.352114,9.1981933 56.187465,6.4595265 26.669658,0.83830946 -1.670858,31.019756 6.2610506,59.990265 11.928761,90.807694 53.517267,105.28518 77.26229,84.706715 87.729813,76.501567 94.064907,63.414371 93.986757,50.156865 Z"
       id="path5"
       style="stroke-width:1.05564" />
    <path
       fill="#ffffff"
       d="M 93.986757,50.156865 C 95.354169,81.456319 58.046605,104.77747 30.294071,89.971498 1.3549396,77.616827 -3.5783345,34.058326 21.871826,15.607017 43.858251,-3.472142 81.357899,7.2264289 90.916188,34.012111 c 2.025686,5.127824 3.07312,10.635144 3.070569,16.144754 z M 46.899969,18.274547 c -1.686393,0.422314 -4.488136,2.751947 -1.18045,2.031436 3.303991,-0.63152 6.607993,-1.263038 9.911986,-1.894557 1.941681,-2.295541 -2.675798,-2.317532 -4.234763,-3.064245 -4.072208,-1.086965 -8.097679,-2.538365 -12.199045,-3.398031 -1.762818,3.425196 7.835129,4.036187 7.702272,6.325397 z m 2.709422,61.574568 c -0.825527,-1.800486 -1.651054,-3.600974 -2.476581,-5.401462 -0.916091,3.17527 1.479789,9.924793 3.914903,13.443608 3.685058,3.588646 5.120225,-1.960183 4.530682,-4.904222 0.05652,-10.553816 0.113024,-21.107621 0.16953,-31.661437 1.088288,-1.391422 3.570891,-0.975347 5.254119,-1.579159 5.022178,-0.968755 10.044367,-1.937511 15.066545,-2.906266 2.387159,-4.123068 -6.546079,-2.664549 -9.112548,-2.270352 -3.867001,-0.454156 -9.476859,3.902904 -12.192875,1.090171 -0.826426,-1.888948 -0.01407,-3.612189 1.273312,-5.047929 1.550054,-2.017244 2.764732,-4.38517 4.530059,-6.17732 3.550707,1.442498 7.741093,8.081659 11.380048,5.062811 -2.112704,-3.893794 -7.284186,-5.469663 -9.943705,-8.419544 1.161939,-2.845021 -1.713668,-7.622386 2.973039,-7.140199 1.651901,-0.625385 5.666481,0.134606 4.827132,-2.441343 -4.117347,-2.641412 -9.218385,0.194384 -13.748369,-0.02369 -8.603642,0.458373 -17.63151,2.093787 -25.908677,-1.134518 -3.354581,2.685198 4.753935,4.814969 7.224017,5.227917 3.523709,0.21622 7.550386,0.731762 3.834213,4.008119 -2.931107,4.000431 -5.862215,8.000862 -8.793323,12.001294 -1.475671,0.239456 -1.292298,-5.268632 -2.713559,-1.105399 -1.897823,2.961561 -1.934231,9.504951 3.148147,6.501597 3.776098,-2.397225 5.836285,-6.598734 8.741705,-9.760682 2.551016,2.790205 10.694671,6.216408 7.5829,10.630592 -8.598065,2.280978 -17.710686,2.53261 -26.517345,1.378066 -0.07896,4.184764 8.399642,4.337438 12.486287,4.104464 4.995718,-0.0015 9.975657,-0.843156 14.885753,-1.422158 0.410859,5.961204 0.168366,12.040987 0.326708,18.048025 -0.08446,3.338293 0.299254,6.783163 -0.07779,10.054838 l -0.373202,0.08454 z"
       id="path6"
       style="stroke-width:1.05564" />
    <path
       fill="#000000"
       d="m 46.878801,17.60068 c -1.964203,-0.624112 -11.489885,-5.185617 -6.159383,-5.351384 4.998925,1.450371 9.997841,2.900742 14.996756,4.351113 1.71934,2.466111 -2.880941,2.058042 -4.503228,2.655572 -2.29141,0.437974 -4.582818,0.87595 -6.874228,1.313924 -1.929933,-1.186186 3.825112,-1.854274 2.540083,-2.969225 z"
       id="path7"
       style="stroke-width:1.05564" />
    <path
       fill="#000000"
       d="m 50.445501,79.659591 c -0.08816,-9.111236 -0.176397,-18.222483 -0.264591,-27.333718 -3.129224,-0.806215 -7.58363,1.035879 -11.260517,0.83746 -5.643577,0.09573 -12.106205,1.233611 -16.743898,-2.816943 2.020255,-2.316194 8.590645,0.455311 12.420117,-0.485154 5.069391,-0.404443 10.573444,-0.346427 15.192871,-2.511546 1.016097,-4.462773 -5.645208,-8.217305 -8.615284,-9.90153 -2.878116,3.713934 -5.31923,8.447755 -9.95412,10.2063 -5.579546,1.47921 -1.373942,-10.548787 0.02583,-7.748448 0.1514,3.120115 2.165336,0.713139 2.98716,-0.817259 2.931107,-4.000431 5.862214,-8.000861 8.793322,-12.001293 -3.046755,-2.437853 -12.861826,-0.699448 -13.953639,-6.470517 4.265837,0.19595 8.735843,2.284319 13.278559,1.631707 8.10151,-0.101639 16.165057,-0.997099 24.199297,-1.913018 4.014019,-0.301294 4.09546,3.750052 0.258283,3.299685 -1.554975,0.670138 -5.34136,-0.242112 -4.663581,2.241946 0.352765,3.388301 -1.100501,6.873146 3.37487,7.855047 1.929426,1.364061 9.422967,6.10068 4.299768,6.727438 -3.813152,-0.205109 -7.02153,-7.18038 -10.128718,-5.091062 -1.741269,2.615434 -3.720142,5.099502 -5.308552,7.799444 -0.512757,3.646928 2.576862,4.430906 5.509514,2.776171 5.32248,-0.957658 10.950584,-2.804846 16.318245,-1.351029 2.272993,2.638043 -2.556371,2.558445 -4.282845,3.045693 -5.328987,1.121944 -10.783626,1.892082 -16.034093,3.233883 -0.368587,6.726927 -0.121257,13.551112 -0.251881,20.315617 -0.02804,5.238397 -0.0561,10.476795 -0.08414,15.715193 -3.492403,5.865546 -7.293245,-2.986925 -7.849269,-6.659203 -1.156733,-2.536624 -1.428903,-8.53189 0.474995,-3.506003 0.665025,0.710013 1.106026,4.22166 2.262357,2.921139 z M 43.746033,35.331798 c 2.617693,1.200324 5.235397,2.40065 7.85309,3.600974 3.537235,-3.273514 6.753032,-9.738674 7.440326,-14.035379 -3.729615,0.484666 -7.531568,0.651752 -11.216054,1.334572 -1.673279,2.54593 -2.928885,5.377606 -4.437207,8.036387 l -0.100544,0.623853 z"
       id="path8"
       style="stroke-width:1.05564" />
    <path
       fill="#ffffff"
       d="m 43.746033,35.331798 c -0.946182,-1.637665 1.340349,-3.530534 1.886816,-5.261486 1.088108,-1.665026 1.544497,-4.503078 4.093735,-4.165865 3.225196,-0.263649 6.470374,-0.868528 9.683294,-0.922821 -1.972586,4.683014 -3.954476,11.201687 -8.06614,13.83404 -2.532568,-1.161289 -5.065136,-2.322579 -7.597705,-3.483868 z"
       id="path9"
       style="stroke-width:1.05564" />
  </g>
</svg>
