<?xml version="1.0" encoding="UTF-8" standalone="no"?>
<!-- Created with Inkscape (http://www.inkscape.org/) -->

<svg
   width="100"
   height="100"
   id="svg2"
   sodipodi:version="0.32"
   inkscape:version="1.3 (0e150ed6c4, 2023-07-21)"
   version="1.0"
   sodipodi:docname="br.svg"
   inkscape:output_extension="org.inkscape.output.svg.inkscape"
   xmlns:inkscape="http://www.inkscape.org/namespaces/inkscape"
   xmlns:sodipodi="http://sodipodi.sourceforge.net/DTD/sodipodi-0.dtd"
   xmlns:xlink="http://www.w3.org/1999/xlink"
   xmlns="http://www.w3.org/2000/svg"
   xmlns:svg="http://www.w3.org/2000/svg"
   xmlns:rdf="http://www.w3.org/1999/02/22-rdf-syntax-ns#"
   xmlns:cc="http://creativecommons.org/ns#"
   xmlns:dc="http://purl.org/dc/elements/1.1/">
  <defs
     id="defs4">
    <linearGradient
       id="linearGradient3214">
      <stop
         style="stop-color:#c6c600;stop-opacity:1;"
         offset="0"
         id="stop3216" />
      <stop
         style="stop-color:#ffff00;stop-opacity:1;"
         offset="1"
         id="stop3218" />
    </linearGradient>
    <linearGradient
       id="linearGradient3202">
      <stop
         style="stop-color:#ff0000;stop-opacity:1;"
         offset="0"
         id="stop3204" />
      <stop
         style="stop-color:#bd0000;stop-opacity:1;"
         offset="1"
         id="stop3206" />
    </linearGradient>
    <linearGradient
       id="linearGradient3194">
      <stop
         style="stop-color:#dedede;stop-opacity:1;"
         offset="0"
         id="stop3196" />
      <stop
         style="stop-color:#989898;stop-opacity:1;"
         offset="1"
         id="stop3198" />
    </linearGradient>
    <inkscape:perspective
       sodipodi:type="inkscape:persp3d"
       inkscape:vp_x="0 : 556.18109 : 1"
       inkscape:vp_y="0 : 1000 : 0"
       inkscape:vp_z="744.09448 : 556.18109 : 1"
       inkscape:persp3d-origin="372.04724 : 380.78739 : 1"
       id="perspective10" />
    <linearGradient
       inkscape:collect="always"
       xlink:href="#linearGradient3202"
       id="linearGradient3208"
       x1="42.241379"
       y1="32.741379"
       x2="115.51724"
       y2="62.051723"
       gradientUnits="userSpaceOnUse"
       gradientTransform="translate(-32.758621,-3.8793108)" />
  </defs>
  <sodipodi:namedview
     id="base"
     pagecolor="#ffffff"
     bordercolor="#666666"
     borderopacity="1.0"
     gridtolerance="10000"
     guidetolerance="10"
     objecttolerance="10"
     inkscape:pageopacity="0.0"
     inkscape:pageshadow="2"
     inkscape:zoom="2.8410986"
     inkscape:cx="86.762212"
     inkscape:cy="80.074658"
     inkscape:document-units="px"
     inkscape:current-layer="layer1"
     showgrid="false"
     inkscape:window-width="1366"
     inkscape:window-height="715"
     inkscape:window-x="144"
     inkscape:window-y="892"
     inkscape:showpageshadow="2"
     inkscape:pagecheckerboard="0"
     inkscape:deskcolor="#d1d1d1"
     inkscape:window-maximized="1" />
  <metadata
     id="metadata7">
    <rdf:RDF>
      <cc:Work
         rdf:about="">
        <dc:format>image/svg+xml</dc:format>
        <dc:type
           rdf:resource="http://purl.org/dc/dcmitype/StillImage" />
      </cc:Work>
    </rdf:RDF>
  </metadata>
  <g
     inkscape:label="Layer 1"
     inkscape:groupmode="layer"
     id="layer1">
    <g
       stroke-width="2"
       fill="none"
       stroke-linecap="butt"
       id="g4"
       transform="matrix(1.0712886,0,0,1.0748355,-3.6772636,-3.4907328)">
      <path
         stroke="#808080"
         vector-effect="non-scaling-stroke"
         d="M 91.99,50 C 92.398485,29.838258 76.272738,11.099799 56.275304,8.4987702 28.385375,3.1600603 1.6078037,31.82467 9.1022755,59.339204 14.457418,88.607828 53.752359,102.35772 76.187867,82.813467 86.078118,75.020695 92.063836,62.591223 91.99,50 Z"
         id="path1" />
      <path
         stroke="#808080"
         vector-effect="non-scaling-stroke"
         d="M 46.91,81.78 C 46.388078,80.35905 44.375918,76.098312 45.02875,80.198125 46.149652,84.062377 46.424393,92.105909 52.3325,90.3225 54.00246,85.171852 53.295943,79.504075 53.835898,74.136875 54.129081,68.722413 54.09341,63.26035 54.425,57.87 c 6.911538,-1.678591 13.967742,-2.963168 20.935,-4.49 1.30765,-3.800255 -6.794984,-3.246682 -9.62791,-3.530352 -2.824823,-0.583657 0.73755,2.203414 -2.771715,1.925392 -2.710564,0.361252 -5.40617,1.621353 -8.128593,1.269878 -2.25816,-2.052709 -0.06247,-8.291822 2.405093,-3.908668 3.115004,2.200712 7.507683,1.679162 7.112383,-2.641504 0.948122,-5.578978 6.367031,-11.566522 3.99793,-16.976308 C 63.952496,26.603626 58.309033,27.974477 53.405,27.9575 53.192167,26.447163 51.870934,23.341277 54.150855,23.09036 58.093903,22.593573 62.036952,22.096787 65.98,21.6 c 1.95922,-3.444407 -5.938816,-2.736027 -8.26252,-2.714687 -3.379023,0.689056 -6.717195,0.72876 -6.361542,-3.538594 -0.0011,-2.792779 -3.967217,-8.081562 -3.835148,-2.967453 -0.159946,2.420946 0.06467,4.913413 -0.34329,7.288234 -4.905902,1.30287 -10.201232,-0.590223 -14.920786,-0.558538 3.343164,4.352299 10.455283,3.173634 15.411858,4.254621 0.328811,1.555881 -0.05093,3.262562 0.0014,4.876417 -1.300878,1.697313 -3.787801,0.781535 -5.675207,1.186612 -1.751598,0.0978 -3.503195,0.195592 -5.254793,0.293388 -1.55213,2.39155 2.873773,1.553659 4.481368,1.964771 2.231239,0.261206 4.538203,0.229047 6.723632,0.667729 -0.197156,1.480663 0.698991,4.319652 -1.24183,4.637081 C 43.875447,37.363054 41.047723,37.736527 38.22,38.11 35.972729,34.771734 35.895534,28.623159 31.719616,26.747149 c -0.911461,5.26319 1.663238,11.110532 2.567321,16.496394 0.999695,3.263982 2.34395,11.317135 7.014743,7.093059 3.594338,-2.226374 9.733279,-1.390509 6.571914,3.964336 -5.17735,1.702697 -10.960623,1.46744 -16.412617,1.891796 -2.890323,-0.511919 -10.656938,-1.736661 -4.540205,1.382703 6.803241,2.780049 14.329755,1.133611 21.389228,1.157063 0.429504,7.602597 -0.2363,15.329366 -0.82,22.9475 l -0.195,0.595 z"
         id="path2" />
      <path
         stroke="#808080"
         vector-effect="non-scaling-stroke"
         d="m 59.66,36.83 c 1.741631,2.090772 -2.611209,1.968903 -4.057288,2.599083 -6.600972,2.857364 4.926444,6.649178 4.91957,1.334497 0.954975,-3.167144 2.249395,-6.279353 2.98875,-9.481393 -1.385722,-0.953613 -3.481894,-0.110059 -5.165116,-0.291525 -1.552298,0.406968 -4.387616,-0.702813 -4.844498,1.124795 0.317479,1.431911 -0.687059,4.193803 1.610445,4.056688 1.516046,0.219285 3.032091,0.43857 4.548137,0.657855 z"
         id="path3" />
      <path
         stroke="#808080"
         vector-effect="non-scaling-stroke"
         d="m 38.28,38.92 c -0.620018,1.250619 0.814164,3.189475 1.024448,4.709087 0.611943,1.337965 0.525025,4.315935 2.681579,3.107628 2.066327,-0.642172 4.367192,-0.924862 6.297623,-1.776866 C 48.192,43.319171 48.550883,41.475585 48.139446,39.941678 44.861148,39.560779 41.564807,39.267275 38.28,38.92 Z"
         id="path4" />
    </g>
    <path
       fill="#000000"
       d="M 100.2163,50.261792 C 101.64093,84.858451 61.954343,111.46397 30.641853,96.903873 -1.7609962,84.98484 -11.072783,38.016327 14.317375,14.563488 35.844126,-8.8694719 77.504547,-3.2346866 92.890919,24.030583 97.665288,31.883039 100.22907,41.0636 100.2163,50.261792 Z M 94.870575,50.25104 C 95.308185,28.580487 78.032853,8.4397259 56.609824,5.6440474 26.73166,-0.094188 -1.9548458,30.715553 6.0739051,60.289151 11.810806,91.748108 53.907027,106.52699 77.941933,85.520123 88.537245,77.144175 94.949679,63.784537 94.870575,50.251043 Z"
       id="path5"
       style="stroke-width:1.07306" />
    <path
       fill="#ffffff"
       d="M 94.870575,50.251043 C 96.254679,82.202067 58.49166,106.00871 30.40032,90.894512 1.1078933,78.282651 -3.8856078,33.817379 21.875252,14.981963 44.130094,-4.4943712 82.087541,6.4269139 91.76252,33.7702 c 2.050414,5.234572 3.110636,10.856539 3.108055,16.480843 z m -48.29369,34.158273 c -0.559127,-1.527288 -2.714731,-6.10688 -2.015362,-1.700255 1.200807,4.153435 1.495133,12.798909 7.824424,10.882037 1.789009,-5.536099 1.032122,-11.628027 1.610575,-17.396884 0.314081,-5.819656 0.275868,-11.690475 0.631097,-17.484215 7.404253,-1.804209 14.96348,-3.184918 22.427426,-4.826012 1.400871,-4.084648 -7.279384,-3.489649 -10.31427,-3.794547 -3.026197,-0.627335 0.790129,2.368307 -2.969312,2.06948 -2.903792,0.388286 -5.791557,1.742687 -8.708066,1.364909 -2.419141,-2.206324 -0.06696,-8.912344 2.576556,-4.201174 3.337064,2.365403 8.042892,1.804822 7.619412,-2.839183 1.01571,-5.996484 6.820927,-12.432108 4.282937,-18.246739 -4.707981,-3.132943 -10.753766,-1.659505 -16.007398,-1.677751 -0.228002,-1.623364 -1.643432,-4.961681 0.799031,-5.231376 4.224134,-0.533964 8.448279,-1.067928 12.672423,-1.601891 2.09889,-3.702171 -6.36219,-2.940779 -8.851543,-2.917843 -3.619906,0.740622 -7.196049,0.783298 -6.815045,-3.803407 0.05303,-2.715972 -4.120894,-8.7202879 -4.101022,-3.4750096 -0.174213,2.6972156 0.06471,5.4715216 -0.375294,8.1191406 -5.255634,1.40037 -10.928461,-0.634395 -15.984472,-0.600338 3.5815,4.678006 11.200633,3.411135 16.51055,4.573018 0.352251,1.672316 -0.05453,3.506717 0.0011,5.241347 -1.393617,1.824332 -4.057827,0.840021 -6.079787,1.275412 -1.876459,0.105119 -3.752928,0.210229 -5.629397,0.315345 -1.662779,2.570522 3.078637,1.669928 4.800841,2.111805 2.390302,0.280753 4.861722,0.246188 7.202948,0.717699 -0.211215,1.591469 0.74882,4.642915 -1.330359,4.984099 -3.029304,0.401422 -6.058619,0.802844 -9.087923,1.204266 -2.407475,-3.588086 -2.490178,-10.196794 -6.963783,-12.213196 -0.976436,5.657064 1.7818,11.941995 2.750341,17.73091 1.070956,3.508244 2.511047,12.164059 7.514811,7.623872 3.850575,-2.392985 10.427152,-1.494568 7.040412,4.261009 -5.546436,1.83012 -11.741987,1.577257 -17.582642,2.03337 -3.096377,-0.550229 -11.416658,-1.866625 -4.863875,1.486179 7.288233,2.988095 15.351308,1.218444 22.914038,1.243652 0.460119,8.171541 -0.253145,16.476546 -0.878457,24.664788 l -0.208901,0.639527 z"
       id="path6"
       style="stroke-width:1.07306" />
    <path
       fill="#000000"
       d="m 47.198232,84.301833 c 0.625311,-8.188242 1.338575,-16.493247 0.878457,-24.664788 -8.130106,-0.08302 -17.198253,2.171773 -24.67754,-2.20843 -3.265363,-3.24886 4.868289,-0.04169 6.627377,-0.521401 5.840655,-0.456113 12.036206,-0.20325 17.582642,-2.03337 2.496188,-3.835841 -0.745167,-7.155022 -4.687263,-5.037914 -3.355083,1.313977 -7.274949,4.05324 -8.172796,-1.475441 -2.569507,-7.069043 -3.750657,-14.540448 -5.087871,-21.917053 2.951775,-2.787865 4.903181,4.882151 6.088936,7.469435 -0.157308,3.668349 2.473906,3.884274 5.185723,3.072254 2.135367,-0.387029 4.387259,-0.372802 6.449811,-1.010584 -0.01382,-1.45289 1.306104,-4.552934 -0.583392,-4.881463 -3.713954,-0.310236 -7.427908,-0.620475 -11.141862,-0.930711 -1.597956,-2.614246 3.119871,-1.585639 4.852852,-1.979631 1.971203,-0.110422 3.942395,-0.220843 5.913598,-0.331265 1.738809,-1.405387 0.818283,-4.022655 1.087208,-6.022264 -4.870217,-1.389015 -10.953872,-0.437338 -15.626801,-3.361512 -2.596053,-3.473955 5.047034,-0.114669 7.107529,-0.528894 3.061196,-0.03425 9.267032,1.543523 8.110479,-3.351321 0.05956,-2.256982 0.119074,-4.513962 0.178616,-6.7709426 3.834924,-1.4897324 3.62598,6.8272176 5.313592,9.3510696 4.611447,0.326831 12.892058,-2.541818 15.086636,2.149185 -2.84936,1.074776 -6.126164,0.911065 -9.150144,1.479891 -1.836703,0.532245 -4.33843,-0.133934 -5.636532,1.368908 0.09642,2.564788 0.140939,5.976638 3.890181,4.243157 4.457975,-0.07729 10.046041,-0.995664 13.406084,2.603897 0.515879,6.27756 -3.791236,12.338068 -5.314652,18.46955 0.667006,4.865727 -6.550179,3.482066 -8.569773,0.619933 -3.254971,-2.083211 -2.988734,7.997828 1.387244,5.346521 2.790514,-0.69536 5.731694,-1.008843 8.425974,-1.948109 -2.982103,-3.036039 5.581349,-0.705372 7.324914,-0.872841 3.639093,-0.290525 5.80932,3.793916 1.378952,3.725375 -6.720782,1.485505 -13.537799,2.708033 -20.198792,4.356925 -0.60289,11.128867 -0.391042,22.402756 -1.707367,33.495233 -3.092124,5.206742 -7.750119,-2.428181 -7.614515,-6.233878 -1.2596,-2.779126 -1.015507,-7.564619 0.673476,-2.861275 0.245239,0.300529 1.008147,2.944361 1.219019,1.191754 z M 60.235814,36.09546 c 1.865789,2.247236 -2.797359,2.116247 -4.346528,2.793586 -7.034563,2.997715 4.956627,7.166408 5.181169,1.705596 1.052648,-3.494587 2.469299,-6.93007 3.290924,-10.462168 -1.484506,-1.024978 -3.730109,-0.118296 -5.533324,-0.313342 -1.662961,0.437423 -4.700407,-0.755409 -5.189857,1.20897 0.340113,1.539068 -0.73604,4.507648 1.725246,4.360272 1.624127,0.235695 3.248243,0.47139 4.87237,0.707086 z m -22.90415,2.246406 c -0.66422,1.344209 0.8722,3.428161 1.097482,5.061494 0.655564,1.438092 0.562448,4.63892 2.872746,3.340189 2.213625,-0.69023 4.678521,-0.994075 6.746568,-1.909839 -0.09824,-1.763459 0.286281,-3.745011 -0.15448,-5.393708 -3.511866,-0.409869 -7.043486,-0.72453 -10.562316,-1.098136 z"
       id="path7"
       style="stroke-width:1.07306" />
    <path
       fill="#ffffff"
       d="m 60.235814,36.09546 c -1.999742,-0.290206 -3.999474,-0.580411 -5.999216,-0.870617 -0.556331,-1.344868 -1.359561,-4.704543 0.380875,-5.255356 3.152974,-0.02001 6.352592,-0.413264 9.476009,-0.196775 0.559094,1.719026 -0.929847,3.627322 -1.248127,5.419754 -0.929375,2.502426 -1.482288,5.188537 -2.665783,7.566974 -2.769688,1.409893 -9.871164,-0.649709 -4.79888,-3.744397 1.811741,-0.629026 3.964303,-0.587557 5.51975,-1.720789 l -0.03396,-0.768839 z"
       id="path8"
       style="stroke-width:1.07306" />
    <path
       fill="#ffffff"
       d="m 37.331664,38.341866 c 3.543127,0.419886 7.164018,0.612808 10.659386,1.172384 0.08527,1.766654 0.238683,3.772824 -0.07274,5.489755 -2.652349,0.734422 -5.331503,1.392617 -7.994148,2.097771 -1.219544,-1.469339 -1.335254,-3.843911 -2.114156,-5.674611 -0.03878,-0.923815 -1.322227,-2.478433 -0.478342,-3.085299 z"
       id="path9"
       style="stroke-width:1.07306" />
  </g>
</svg>
