<?xml version="1.0" encoding="UTF-8" standalone="no"?>
<!-- Created with Inkscape (http://www.inkscape.org/) -->

<svg
   width="100"
   height="100"
   id="svg2"
   sodipodi:version="0.32"
   inkscape:version="1.3 (0e150ed6c4, 2023-07-21)"
   version="1.0"
   sodipodi:docname="wa.svg"
   inkscape:output_extension="org.inkscape.output.svg.inkscape"
   xmlns:inkscape="http://www.inkscape.org/namespaces/inkscape"
   xmlns:sodipodi="http://sodipodi.sourceforge.net/DTD/sodipodi-0.dtd"
   xmlns:xlink="http://www.w3.org/1999/xlink"
   xmlns="http://www.w3.org/2000/svg"
   xmlns:svg="http://www.w3.org/2000/svg"
   xmlns:rdf="http://www.w3.org/1999/02/22-rdf-syntax-ns#"
   xmlns:cc="http://creativecommons.org/ns#"
   xmlns:dc="http://purl.org/dc/elements/1.1/">
  <defs
     id="defs4">
    <linearGradient
       id="linearGradient3214">
      <stop
         style="stop-color:#c6c600;stop-opacity:1;"
         offset="0"
         id="stop3216" />
      <stop
         style="stop-color:#ffff00;stop-opacity:1;"
         offset="1"
         id="stop3218" />
    </linearGradient>
    <linearGradient
       id="linearGradient3202">
      <stop
         style="stop-color:#ff0000;stop-opacity:1;"
         offset="0"
         id="stop3204" />
      <stop
         style="stop-color:#bd0000;stop-opacity:1;"
         offset="1"
         id="stop3206" />
    </linearGradient>
    <linearGradient
       id="linearGradient3194">
      <stop
         style="stop-color:#dedede;stop-opacity:1;"
         offset="0"
         id="stop3196" />
      <stop
         style="stop-color:#989898;stop-opacity:1;"
         offset="1"
         id="stop3198" />
    </linearGradient>
    <inkscape:perspective
       sodipodi:type="inkscape:persp3d"
       inkscape:vp_x="0 : 556.18109 : 1"
       inkscape:vp_y="0 : 1000 : 0"
       inkscape:vp_z="744.09448 : 556.18109 : 1"
       inkscape:persp3d-origin="372.04724 : 380.78739 : 1"
       id="perspective10" />
    <linearGradient
       inkscape:collect="always"
       xlink:href="#linearGradient3202"
       id="linearGradient3208"
       x1="42.241379"
       y1="32.741379"
       x2="115.51724"
       y2="62.051723"
       gradientUnits="userSpaceOnUse"
       gradientTransform="translate(-32.758621,-3.8793108)" />
  </defs>
  <sodipodi:namedview
     id="base"
     pagecolor="#ffffff"
     bordercolor="#666666"
     borderopacity="1.0"
     gridtolerance="10000"
     guidetolerance="10"
     objecttolerance="10"
     inkscape:pageopacity="0.0"
     inkscape:pageshadow="2"
     inkscape:zoom="2.32"
     inkscape:cx="29.956897"
     inkscape:cy="90.301724"
     inkscape:document-units="px"
     inkscape:current-layer="layer1"
     showgrid="false"
     inkscape:window-width="1366"
     inkscape:window-height="715"
     inkscape:window-x="144"
     inkscape:window-y="892"
     inkscape:showpageshadow="2"
     inkscape:pagecheckerboard="0"
     inkscape:deskcolor="#d1d1d1"
     inkscape:window-maximized="1" />
  <metadata
     id="metadata7">
    <rdf:RDF>
      <cc:Work
         rdf:about="">
        <dc:format>image/svg+xml</dc:format>
        <dc:type
           rdf:resource="http://purl.org/dc/dcmitype/StillImage" />
      </cc:Work>
    </rdf:RDF>
  </metadata>
  <g
     inkscape:label="Layer 1"
     inkscape:groupmode="layer"
     id="layer1">
    <g
       stroke-width="2"
       fill="none"
       stroke-linecap="butt"
       id="g3"
       transform="matrix(1.0597704,0,0,1.0550218,-3.2116394,-2.5299191)">
      <path
         stroke="#f49494"
         vector-effect="non-scaling-stroke"
         d="M 92.45,49.99 C 92.869974,29.504542 76.395133,10.491561 56.058419,7.9918762 25.047115,2.0735172 -2.6656578,37.566141 10.819791,66.227258 20.83711,93.550307 60.311667,101.40228 80.022541,79.992541 87.921457,72.157082 92.494871,61.115883 92.45,49.99 Z"
         id="path1" />
      <path
         stroke="#ff8080"
         vector-effect="non-scaling-stroke"
         d="M 33.53,66.17 C 33.52052,56.864427 34.006141,47.506404 33.448125,38.2325 33.37832,35.395253 27.254916,35.973732 30.909023,33.20207 34.006381,29.331774 38.243311,25.576517 38.6,20.33 35.473056,17.894018 33.402431,24.950659 30.810703,26.791211 27.109407,31.251854 23.234845,35.568657 19.2,39.73 c 0.0022,5.126504 7.392751,-0.674061 9.125268,1.045491 C 28.096845,53.590327 27.868423,66.405164 27.64,79.22 c 3.800478,4.954564 8.403819,-1.64045 7.716875,-5.965977 0.161241,-3.283555 2.25146,-8.74561 0.933125,-10.924023 -0.906736,1.459278 -1.537024,3.116729 -2.63,4.4425 z"
         id="path2" />
      <path
         stroke="#ff8080"
         vector-effect="non-scaling-stroke"
         d="m 61.2,39.7 c -0.711528,-6.385786 -0.444492,-13.200498 -3.28634,-19.096106 -3.392052,-1.231947 -1.789204,6.444993 -2.279129,8.684036 -0.862528,3.754714 1.600666,9.816533 -0.92706,12.28456 C 48.91878,42.300867 43.054743,42.428357 37.24,41.95 c -0.734846,2.719526 5.407676,3.69476 7.89625,3.8675 3.348223,0.770578 8.253571,-1.319239 10.641794,0.468026 C 55.735363,52.08035 55.692681,57.875175 55.65,63.67 54.422349,65.377438 51.92764,64.676768 50.078639,65.203299 47.755759,65.498866 45.43288,65.794433 43.11,66.09 42.972187,69.690447 50.639195,68.242523 53.780059,68.372559 61.575764,67.815447 69.309414,66.571884 76.97,65.05 79.581125,60.330012 71.050121,61.874676 68.35125,62.221875 66.219812,61.757794 60.542737,65.233883 61.319316,61.116921 61.452447,55.770196 61.313519,50.379541 61.615,45.06 67.749409,43.427745 74.043904,42.204607 80.24,40.73 82.490214,36.863194 74.711747,38.126866 72.133967,38.285452 68.512814,38.629207 64.971997,39.816729 61.3825,40.11 Z"
         id="path3" />
    </g>
    <path
       fill="#e82929"
       d="M 99.533093,50.242271 C 100.94149,84.179485 61.70669,110.27788 30.75065,95.995307 -1.2833343,84.30346 -10.48912,38.230215 14.61201,15.224418 35.893702,-7.761884 77.079877,-2.2345035 92.291099,24.511059 c 4.720016,7.702778 7.254616,16.708349 7.241994,25.731212 z m -4.768967,-0.03165 C 95.209198,28.598014 77.749651,8.5389065 56.19741,5.9016843 23.33255,-0.34231343 -6.0366246,37.103178 8.2548536,67.341284 18.870911,96.167697 60.704879,104.4517 81.593874,81.863954 89.964915,73.597373 94.811679,61.948667 94.764126,50.210621 Z"
       id="path4"
       style="stroke-width:1.05739" />
    <path
       fill="#ffffff"
       d="M 94.764126,50.210621 C 96.037207,80.887141 60.572089,104.478 32.590307,91.567697 3.6341515,80.999206 -4.6871407,39.352685 18.002269,18.557286 37.770209,-2.8752773 76.342478,3.2303322 89.263833,28.757248 c 3.59844,6.543995 5.508252,13.993008 5.500293,21.453373 z M 32.322459,67.280873 c -0.01009,-9.817579 0.5046,-19.690504 -0.08677,-29.474671 -0.07398,-2.993361 -6.56338,-2.383052 -2.690866,-5.307213 3.282483,-4.083251 7.772655,-8.045125 8.150664,-13.580315 -3.313842,-2.570014 -5.508229,4.874896 -8.254866,6.816719 -3.922523,4.706071 -8.028669,9.2604 -12.304678,13.650704 0.0023,5.408569 7.834618,-0.711148 9.670688,1.103015 -0.242076,13.519935 -0.484151,27.03986 -0.726227,40.559796 4.027634,5.227169 8.906119,-1.730711 8.178116,-6.294239 0.07465,-3.077994 2.638865,-10.293194 0.85208,-11.280272 -0.847978,0.976148 -2.072427,4.933124 -2.788149,3.806476 z M 61.646304,39.354446 c -0.754059,-6.737147 -0.471058,-13.926813 -3.482766,-20.146808 -3.594794,-1.299731 -1.896141,6.799608 -2.415354,9.161848 -0.914084,3.961301 1.696343,10.356653 -0.982471,12.960478 -6.134682,0.768457 -12.349217,0.902962 -18.511507,0.398281 -0.483142,3.045047 6.064961,3.997594 9.005982,4.114322 3.242028,0.895734 8.888602,-1.803845 10.638017,0.739887 -0.04451,6.020292 -0.08913,12.040573 -0.133627,18.060865 -1.301026,1.801386 -3.944846,1.062164 -5.904362,1.617665 -2.461719,0.311833 -4.923438,0.623655 -7.385157,0.935488 -0.146048,3.798553 7.979222,2.270955 11.307813,2.40815 8.261651,-0.587763 16.457544,-1.899756 24.57601,-3.505373 2.767198,-4.979692 -6.273713,-3.350032 -9.133896,-2.983728 -2.258837,-0.489625 -8.275227,3.177725 -7.45223,-1.165757 0.141086,-5.640906 -0.0063,-11.32817 0.313353,-16.940401 6.501065,-1.72207 13.171779,-3.012498 19.738222,-4.568244 2.384705,-4.079569 -5.858676,-2.746359 -8.59053,-2.579054 -3.837598,0.362675 -7.590044,1.615534 -11.394089,1.92494 z"
       id="path5"
       style="stroke-width:1.05739" />
    <path
       fill="#fe0000"
       d="m 32.894735,67.439127 c 0.905546,-1.426632 1.525637,-3.107504 2.599322,-4.384386 0.447,5.353951 -1.356091,11.711702 -2.404239,17.320936 -1.379937,4.279844 -8.574955,2.567428 -6.96427,-1.847659 0.177254,-12.850039 0.566317,-25.729851 0.611275,-38.5613 -2.780602,-0.140561 -9.382545,4.171387 -9.600873,-0.580621 6.514763,-6.688342 12.633988,-13.758576 18.312831,-21.163737 4.893945,-0.134903 0.249816,6.900298 -1.630343,9.173787 -1.301597,2.856911 -8.973371,7.167931 -2.852982,8.453644 3.083587,4.509944 0.840841,10.695157 1.506406,15.897902 0.07317,5.384979 -0.274687,10.808666 -0.01163,16.168831 z"
       id="path6"
       style="stroke-width:1.05739" />
    <path
       fill="#fe0000"
       d="m 62.313959,39.860857 c 6.396223,-1.170378 12.91221,-3.075346 19.457383,-1.93069 2.838235,2.707344 -2.425189,2.961636 -4.337809,3.502978 -5.10272,1.225387 -10.310135,2.184391 -15.347424,3.576218 -0.324417,6.172785 -0.187326,12.419749 -0.333828,18.621135 3.49065,0.950353 8.323373,-1.24136 12.341025,-0.999633 3.021903,-1.395045 7.942735,2.840773 2.874352,3.749442 -10.366727,1.790762 -20.890299,3.916568 -31.457226,3.159252 -4.110924,0.155447 -3.94242,-3.167407 -0.243843,-2.696699 3.206123,-0.40612 6.412257,-0.812251 9.61838,-1.218371 1.652511,-1.490883 0.593906,-4.022408 0.916914,-6.023605 -0.06358,-4.65809 0.265143,-9.379217 -0.0426,-13.998071 -6.59017,-0.16394 -14.377851,1.803011 -19.92898,-2.903947 1.812122,-2.045667 7.305781,0.03967 10.582771,-0.71578 3.065311,-0.915337 10.449028,1.493795 9.405164,-3.575026 0.222394,-6.473867 -0.893502,-13.227198 0.836552,-19.521036 4.122878,1.155229 3.415099,8.795375 4.341561,12.774647 0.705171,2.469173 -0.302734,6.497446 1.317612,8.199186 z"
       id="path7"
       style="stroke-width:1.05739" />
  </g>
</svg>
