<?xml version="1.0" encoding="UTF-8" standalone="no"?>
<!-- Created with Inkscape (http://www.inkscape.org/) -->

<svg
   width="100"
   height="100"
   id="svg2"
   sodipodi:version="0.32"
   inkscape:version="1.3 (0e150ed6c4, 2023-07-21)"
   version="1.0"
   sodipodi:docname="wb.svg"
   inkscape:output_extension="org.inkscape.output.svg.inkscape"
   xmlns:inkscape="http://www.inkscape.org/namespaces/inkscape"
   xmlns:sodipodi="http://sodipodi.sourceforge.net/DTD/sodipodi-0.dtd"
   xmlns:xlink="http://www.w3.org/1999/xlink"
   xmlns="http://www.w3.org/2000/svg"
   xmlns:svg="http://www.w3.org/2000/svg"
   xmlns:rdf="http://www.w3.org/1999/02/22-rdf-syntax-ns#"
   xmlns:cc="http://creativecommons.org/ns#"
   xmlns:dc="http://purl.org/dc/elements/1.1/">
  <defs
     id="defs4">
    <linearGradient
       id="linearGradient3214">
      <stop
         style="stop-color:#c6c600;stop-opacity:1;"
         offset="0"
         id="stop3216" />
      <stop
         style="stop-color:#ffff00;stop-opacity:1;"
         offset="1"
         id="stop3218" />
    </linearGradient>
    <linearGradient
       id="linearGradient3202">
      <stop
         style="stop-color:#ff0000;stop-opacity:1;"
         offset="0"
         id="stop3204" />
      <stop
         style="stop-color:#bd0000;stop-opacity:1;"
         offset="1"
         id="stop3206" />
    </linearGradient>
    <linearGradient
       id="linearGradient3194">
      <stop
         style="stop-color:#dedede;stop-opacity:1;"
         offset="0"
         id="stop3196" />
      <stop
         style="stop-color:#989898;stop-opacity:1;"
         offset="1"
         id="stop3198" />
    </linearGradient>
    <inkscape:perspective
       sodipodi:type="inkscape:persp3d"
       inkscape:vp_x="0 : 556.18109 : 1"
       inkscape:vp_y="0 : 1000 : 0"
       inkscape:vp_z="744.09448 : 556.18109 : 1"
       inkscape:persp3d-origin="372.04724 : 380.78739 : 1"
       id="perspective10" />
    <linearGradient
       inkscape:collect="always"
       xlink:href="#linearGradient3202"
       id="linearGradient3208"
       x1="42.241379"
       y1="32.741379"
       x2="115.51724"
       y2="62.051723"
       gradientUnits="userSpaceOnUse"
       gradientTransform="translate(-32.758621,-3.8793108)" />
  </defs>
  <sodipodi:namedview
     id="base"
     pagecolor="#ffffff"
     bordercolor="#666666"
     borderopacity="1.0"
     gridtolerance="10000"
     guidetolerance="10"
     objecttolerance="10"
     inkscape:pageopacity="0.0"
     inkscape:pageshadow="2"
     inkscape:zoom="2.32"
     inkscape:cx="24.784483"
     inkscape:cy="81.681034"
     inkscape:document-units="px"
     inkscape:current-layer="layer1"
     showgrid="false"
     inkscape:window-width="1366"
     inkscape:window-height="715"
     inkscape:window-x="144"
     inkscape:window-y="892"
     inkscape:showpageshadow="2"
     inkscape:pagecheckerboard="0"
     inkscape:deskcolor="#d1d1d1"
     inkscape:window-maximized="1" />
  <metadata
     id="metadata7">
    <rdf:RDF>
      <cc:Work
         rdf:about="">
        <dc:format>image/svg+xml</dc:format>
        <dc:type
           rdf:resource="http://purl.org/dc/dcmitype/StillImage" />
      </cc:Work>
    </rdf:RDF>
  </metadata>
  <g
     inkscape:label="Layer 1"
     inkscape:groupmode="layer"
     id="layer1">
    <g
       stroke-width="2"
       fill="none"
       stroke-linecap="butt"
       id="g7"
       transform="matrix(1.0597703,0,0,1.0550218,-3.0392256,-2.7195743)">
      <path
         stroke="#f49494"
         vector-effect="non-scaling-stroke"
         d="M 92.45,50 C 92.869974,29.514542 76.395133,10.501561 56.058419,8.0018762 25.047115,2.0835172 -2.6656578,37.576141 10.819791,66.237258 20.83711,93.560307 60.311667,101.41228 80.022541,80.002541 87.921457,72.167082 92.494871,61.125883 92.45,50 Z"
         id="path1" />
      <path
         stroke="#ff8080"
         vector-effect="non-scaling-stroke"
         d="M 38.44,72.9 C 37.368665,72.560802 36.920633,70.092076 36.102822,68.921986 35.045215,66.751324 33.987607,64.580662 32.93,62.41 c -1.426715,0.244963 0.447915,3.046395 0.444928,4.345008 C 34.883286,72.410005 36.391643,78.065003 37.9,83.72 c 1.433536,1.970573 6.66416,1.994265 5.590174,-1.433166 C 43.477933,71.31095 43.243876,60.317302 43.37,49.3525 45.717067,46.271413 48.351075,43.392337 50.81,40.39 50.206614,38.904558 48.040662,41.77656 46.817169,42.279352 45.518876,42.910338 44.24347,44.774334 42.90875,44.605 42.840469,41.489729 42.653242,38.315903 42.85,35.2225 46.176663,34.195968 49.885656,34.227206 53.123723,32.978864 52.926099,28.638746 46.274371,30.260596 43.28,30.64 41.493698,26.575711 41.902971,20.874477 40.55125,16.275 37.957995,13.310356 37.858534,17.878998 38.11475,19.747376 38.062,23.640218 38.324083,27.577162 38.075,31.4425 32.859564,34.140416 26.18181,31.67818 21.46,31.72 c 1.084511,5.619666 9.98194,2.988467 12.222109,5.450565 -2.266121,6.677309 -4.811356,13.278828 -6.899609,20.004435 2.90097,3.996445 8.342727,-0.856764 11.0575,-3.195 1.25253,0.378727 0.321969,3.326184 0.607577,4.804056 -0.0025,4.705315 -0.0051,9.410629 -0.0076,14.115944 z"
         id="path2" />
      <path
         stroke="#ff8080"
         vector-effect="non-scaling-stroke"
         d="m 66.49,59.59 c 1.47,3.56 2.94,7.12 4.41,10.68 1.305753,0.723641 5.457512,1.772134 4.802324,-1.047432 0.238298,-14.145186 0.109322,-28.362725 -1.520137,-42.422881 -0.914782,-4.963243 -6.927572,-3.664489 -10.608281,-3.946406 -2.124712,-0.448913 -8.533121,-0.656363 -3.896601,1.649532 2.656032,2.655102 8.864212,-0.797812 9.444332,3.117528 C 69.225973,31.397704 69.796772,35.223892 69.6025,38.97 65.65929,38.914583 61.678096,38.066188 57.72,37.7 56.540764,36.202558 54.83428,30.971724 53.341875,35.4225 52.595879,46.02831 52.592502,56.724586 53.670625,67.30375 54.83174,71.192422 58.522066,68.300149 57.85,65.4 59.438705,63.284299 62.10862,62.156867 64.157286,60.461588 64.858698,60.198405 65.830034,58.663172 66.49,59.59 Z"
         id="path3" />
      <path
         stroke="#ff8080"
         vector-effect="non-scaling-stroke"
         d="m 37.95,36.36 c -1.304704,5.171149 -2.952981,10.299621 -4.0425,15.4975 1.595893,-0.876387 3.152795,-1.989097 4.5225,-3.1975 0.235945,-4.053605 -0.0084,-8.156962 0.04,-12.23 l -0.23807,-0.262496 z"
         id="path4" />
      <path
         stroke="#ff8080"
         vector-effect="non-scaling-stroke"
         d="M 70.45,46.23 C 69.945597,44.660701 70.42892,41.84787 68.070689,42.005474 64.457706,41.530967 60.840033,40.687161 57.23,40.445 c -0.176335,2.154612 0.212894,4.367403 0.26,6.545 3.161455,2.582807 8.567964,-1.58975 12.81,-0.58 l 0.1275,-0.045 z"
         id="path5" />
      <path
         stroke="#ff8080"
         vector-effect="non-scaling-stroke"
         d="m 65.05,53.22 c 1.322498,2.804874 7.392812,-3.636418 4.477501,-3.725 -3.866967,0.821691 -7.890014,1.195075 -11.657501,2.3025 -0.316052,2.526371 0.100663,5.14068 0.08,7.7025 1.137102,0.650031 2.86166,-1.715699 4.229109,-2.353413 3.07969,-0.587634 1.654299,-4.799614 1.940891,-5.082212 l 0.40375,0.475469 z"
         id="path6" />
      <path
         stroke="#ff8080"
         vector-effect="non-scaling-stroke"
         d="m 68.44,59.05 c 1.395606,4.115591 2.928058,2.858118 2.313492,-0.486283 1.217621,-3.507141 -2.707069,-3.982775 -2.512554,-0.156998 z"
         id="path7" />
    </g>
    <path
       fill="#e82929"
       d="M 99.705507,50.052617 C 101.11391,83.98983 61.879104,110.08821 30.923064,95.805652 -1.1109206,84.113806 -10.316707,38.04056 14.784424,15.034763 c 21.281693,-22.9863022 62.467868,-17.4589217 77.67909,9.286642 4.720015,7.702778 7.254615,16.708349 7.241993,25.731212 z m -4.768966,-0.0211 C 95.381613,28.418909 77.922066,8.3598016 56.369823,5.7225794 23.504964,-0.52141838 -5.8642109,36.924073 8.4272678,67.162179 19.043325,95.988592 60.87729,104.2726 81.766288,81.68485 90.137329,73.418269 94.984092,61.769562 94.936541,50.031517 Z"
       id="path8"
       style="stroke-width:1.0574" />
    <path
       fill="#ffffff"
       d="M 94.936541,50.031516 C 96.209622,80.708037 60.744503,104.29889 32.762722,91.388592 3.8065653,80.820101 -4.5147269,39.17358 18.174683,18.378181 37.942623,-3.0543823 76.514892,3.0512272 89.436248,28.578144 c 3.59844,6.543994 5.508252,13.993007 5.500293,21.453372 z M 37.698345,74.191515 c -1.135368,-0.357863 -1.610179,-2.962416 -2.476871,-4.196887 -1.12082,-2.290104 -2.241642,-4.580198 -3.362463,-6.870291 -1.423917,0.393069 0.482662,3.366237 0.544046,4.854756 1.574337,5.875923 3.148676,11.751836 4.723013,17.627758 1.519219,2.078995 7.062479,2.103988 5.9243,-1.512025 C 43.0374,72.515033 42.789351,60.916493 42.923014,49.34839 c 2.487351,-3.250617 5.278795,-6.288099 7.884691,-9.455633 -0.639451,-1.567172 -2.934862,1.46285 -4.231484,1.993305 -1.375892,0.665708 -2.72753,2.632258 -4.142027,2.453612 -0.07236,-3.286678 -0.270779,-6.635138 -0.06226,-9.898742 3.525498,-1.083012 7.456179,-1.050053 10.887787,-2.36709 -0.209437,-4.57891 -7.25874,-2.867823 -10.432086,-2.467548 -1.89307,-4.287914 -1.459334,-10.302839 -2.891848,-15.155388 -2.652143,-3.079423 -2.920473,1.433566 -2.584005,3.383296 -0.05528,4.200411 0.223095,8.447349 -0.04025,12.618747 -5.527164,2.846365 -12.60405,0.248648 -17.608084,0.292769 1.149332,5.928874 10.578563,3.1529 12.952628,5.75047 -2.401568,7.044696 -5.098932,14.009444 -7.312,21.10511 3.074361,4.216331 8.841374,-0.903901 11.71841,-3.370795 1.327394,0.399568 0.341213,3.509192 0.643892,5.068388 -0.0026,4.964204 -0.0054,9.92842 -0.0081,14.892624 z m 29.726558,-14.04234 c 1.557863,3.755878 3.115725,7.511756 4.673587,11.267633 1.383795,0.763456 5.783707,1.869636 5.089357,-1.105061 0.252543,-14.923485 0.115864,-29.923299 -1.610989,-44.757064 -0.969468,-5.236337 -7.341633,-3.866116 -11.242345,-4.163548 -2.251706,-0.47361 -9.043148,-0.692474 -4.129501,1.740289 2.814783,2.801189 9.394031,-0.841706 10.008825,3.289063 0.110566,3.985197 0.715483,8.021911 0.509601,11.974138 -4.178897,-0.05845 -8.398047,-0.953538 -12.592721,-1.339877 -1.685765,-1.129316 -1.900002,-7.031361 -4.527868,-2.954061 -1.002367,11.351391 -0.873888,22.845262 0.236462,34.186662 1.230248,4.1026 5.078553,1.041972 4.429177,-2.008498 1.683663,-2.232109 4.513159,-3.421572 6.684274,-5.210129 0.743336,-0.277661 1.772729,-1.897373 2.472141,-0.919547 z"
       id="path9"
       style="stroke-width:1.0574" />
    <path
       fill="#fe0000"
       d="m 37.698345,74.191515 c 0.0035,-6.551685 0.0071,-13.10337 0.0106,-19.655056 -2.967045,0.303098 -7.222074,6.718769 -11.771398,4.183162 -1.328567,-1.863813 0.677758,-4.130748 1.053145,-6.144489 1.919509,-5.447764 3.839019,-10.895538 5.758529,-16.343301 -3.036893,-1.928506 -12.939781,0.120019 -12.771518,-6.004646 5.44954,1.379061 12.510448,2.876644 17.455702,-0.188332 -0.03533,-5.282146 -0.07065,-10.564285 -0.105977,-15.846427 4.02533,-2.469054 3.140554,6.240295 4.055194,8.815656 0.161494,3.964857 0.458045,8.415286 5.536824,6.0515 3.098807,-1.648577 9.620689,3.020084 4.018256,3.707441 -2.84245,0.595064 -5.78749,0.89296 -8.565767,1.673909 -0.205009,3.263931 -0.01321,6.611842 0.06226,9.898742 1.485001,0.09295 2.912732,-1.871071 4.359981,-2.610494 1.220941,-0.459029 3.451975,-3.491267 4.01353,-1.836423 -2.603561,3.169169 -5.400539,6.202779 -7.884691,9.455633 -0.163226,12.231469 0.190613,24.503418 0.08857,36.740216 -1.95586,1.926164 -6.479785,0.7689 -6.393175,-2.37651 -1.816078,-6.778189 -3.632161,-13.556366 -5.448243,-20.334554 1.338634,-0.622357 1.850252,2.861314 2.784206,4.028083 1.237912,2.28291 2.154886,4.888012 3.586367,6.976575 z M 37.179059,35.641018 c -1.382688,5.455676 -3.129482,10.866325 -4.284122,16.350201 1.69128,-0.924611 3.341238,-2.098544 4.792811,-3.373432 0.250048,-4.276637 -0.0089,-8.605771 0.04239,-12.902917 l -0.2523,-0.276943 z"
       id="path10"
       style="stroke-width:1.0574" />
    <path
       fill="#fe0000"
       d="m 66.598283,59.90652 c -2.614101,1.846288 -5.2282,3.692576 -7.842301,5.538864 -0.554572,2.28848 -1.62881,7.437609 -4.61795,3.59235 -1.329397,-6.753448 -1.035166,-13.809898 -1.190451,-20.69708 0.933743,-5.005002 -1.61882,-12.255556 2.32577,-15.761689 2.061354,1.189285 1.233091,5.22316 4.533246,4.680289 3.635705,0.311073 7.297044,1.15489 10.916841,1.135371 0.1828,-4.325251 -0.441648,-8.73463 -0.574926,-13.09282 -3.061349,-1.930163 -9.579883,0.24811 -12.006723,-3.935062 4.810229,-0.06942 10.392217,-0.391435 15.246929,0.92211 3.759154,2.857558 2.315916,8.421394 3.080996,12.543587 0.751579,12.340146 1.130129,24.749281 0.598326,37.090399 -1.598441,0.337259 -4.605953,0.71139 -5.291752,-1.282843 -1.611455,-3.592677 -2.837355,-7.426457 -4.690511,-10.867991 z m 5.023311,-13.852436 c -0.534548,-1.655646 -0.02236,-4.623243 -2.521523,-4.456971 -3.828933,-0.500608 -7.662835,-1.390846 -11.48864,-1.64633 -0.186876,2.27316 0.225618,4.607702 0.275539,6.905118 3.426344,2.500106 9.162659,-1.519369 13.710779,-0.659389 z m -5.72276,7.374602 c 1.401544,2.959199 7.834681,-3.836502 4.745121,-3.929956 -4.098095,0.866901 -8.361601,1.260825 -12.354272,2.429187 -0.334943,2.665376 0.10668,5.42353 0.08479,8.126306 1.205067,0.685796 3.032703,-1.810101 4.481885,-2.482899 3.263764,-0.619973 1.753177,-5.063703 2.056899,-5.361842 l 0.427882,0.50162 z m 3.592621,6.150778 c 1.479027,4.342037 3.103071,3.015378 2.451769,-0.513036 1.290397,-3.70011 -2.868873,-4.201921 -2.662726,-0.165639 z"
       id="path11"
       style="stroke-width:1.0574" />
    <path
       fill="#ffffff"
       d="m 32.886988,51.497997 c 1.430691,-5.28566 2.861381,-10.571319 4.292071,-15.856979 1.179634,0.374354 0.281006,3.384806 0.579652,4.836199 -0.06395,2.70936 0.193179,5.451847 -0.07097,8.14057 -1.466567,1.25345 -3.087069,2.470734 -4.792811,3.373432 z"
       id="path12"
       style="stroke-width:1.0574" />
    <path
       fill="#ffffff"
       d="m 71.621594,46.054084 c -4.207997,0.126666 -8.874262,1.518314 -13.129499,1.868718 -1.219146,-2.254276 -0.611911,-5.045378 -0.99724,-7.544735 1.159428,-1.073011 3.590963,0.271783 5.277202,0.231303 2.630649,0.503878 5.370279,0.648268 7.930186,1.385518 0.557651,1.257564 0.587823,2.72337 0.919351,4.059196 z"
       id="path13"
       style="stroke-width:1.0574" />
    <path
       fill="#ffffff"
       d="m 65.072213,53.734643 c 1.173557,2.692563 -2.283977,3.496046 -3.787478,4.966958 -1.39353,1.299998 -3.513708,2.63114 -2.967072,-0.327279 0.03695,-2.143277 -0.37657,-4.34037 -0.02797,-6.446405 4.178346,-1.19862 8.624535,-1.631369 12.908002,-2.529414 1.39735,2.112681 -5.029718,7.43322 -6.284438,2.810979 -1.208643,-1.300673 0.129834,1.43043 0.158965,1.525161 z"
       id="path14"
       style="stroke-width:1.0574" />
    <path
       fill="#ffffff"
       d="m 69.491455,59.579464 c -1.430308,-3.859766 3.870695,-4.984219 2.450285,-0.690787 0.34878,2.570244 -0.150477,5.869688 -2.084664,1.527556 z"
       id="path15"
       style="stroke-width:1.0574" />
  </g>
</svg>
