<?xml version="1.0" encoding="UTF-8" standalone="no"?>
<!-- Created with Inkscape (http://www.inkscape.org/) -->

<svg
   width="100"
   height="100"
   id="svg2"
   sodipodi:version="0.32"
   inkscape:version="1.3 (0e150ed6c4, 2023-07-21)"
   version="1.0"
   sodipodi:docname="wc.svg"
   inkscape:output_extension="org.inkscape.output.svg.inkscape"
   xmlns:inkscape="http://www.inkscape.org/namespaces/inkscape"
   xmlns:sodipodi="http://sodipodi.sourceforge.net/DTD/sodipodi-0.dtd"
   xmlns:xlink="http://www.w3.org/1999/xlink"
   xmlns="http://www.w3.org/2000/svg"
   xmlns:svg="http://www.w3.org/2000/svg"
   xmlns:rdf="http://www.w3.org/1999/02/22-rdf-syntax-ns#"
   xmlns:cc="http://creativecommons.org/ns#"
   xmlns:dc="http://purl.org/dc/elements/1.1/">
  <defs
     id="defs4">
    <linearGradient
       id="linearGradient3214">
      <stop
         style="stop-color:#c6c600;stop-opacity:1;"
         offset="0"
         id="stop3216" />
      <stop
         style="stop-color:#ffff00;stop-opacity:1;"
         offset="1"
         id="stop3218" />
    </linearGradient>
    <linearGradient
       id="linearGradient3202">
      <stop
         style="stop-color:#ff0000;stop-opacity:1;"
         offset="0"
         id="stop3204" />
      <stop
         style="stop-color:#bd0000;stop-opacity:1;"
         offset="1"
         id="stop3206" />
    </linearGradient>
    <linearGradient
       id="linearGradient3194">
      <stop
         style="stop-color:#dedede;stop-opacity:1;"
         offset="0"
         id="stop3196" />
      <stop
         style="stop-color:#989898;stop-opacity:1;"
         offset="1"
         id="stop3198" />
    </linearGradient>
    <inkscape:perspective
       sodipodi:type="inkscape:persp3d"
       inkscape:vp_x="0 : 556.18109 : 1"
       inkscape:vp_y="0 : 1000 : 0"
       inkscape:vp_z="744.09448 : 556.18109 : 1"
       inkscape:persp3d-origin="372.04724 : 380.78739 : 1"
       id="perspective10" />
    <linearGradient
       inkscape:collect="always"
       xlink:href="#linearGradient3202"
       id="linearGradient3208"
       x1="42.241379"
       y1="32.741379"
       x2="115.51724"
       y2="62.051723"
       gradientUnits="userSpaceOnUse"
       gradientTransform="translate(-32.758621,-3.8793108)" />
  </defs>
  <sodipodi:namedview
     id="base"
     pagecolor="#ffffff"
     bordercolor="#666666"
     borderopacity="1.0"
     gridtolerance="10000"
     guidetolerance="10"
     objecttolerance="10"
     inkscape:pageopacity="0.0"
     inkscape:pageshadow="2"
     inkscape:zoom="3.2809755"
     inkscape:cx="33.679008"
     inkscape:cy="72.387008"
     inkscape:document-units="px"
     inkscape:current-layer="layer1"
     showgrid="false"
     inkscape:window-width="1366"
     inkscape:window-height="715"
     inkscape:window-x="144"
     inkscape:window-y="892"
     inkscape:showpageshadow="2"
     inkscape:pagecheckerboard="0"
     inkscape:deskcolor="#d1d1d1"
     inkscape:window-maximized="1" />
  <metadata
     id="metadata7">
    <rdf:RDF>
      <cc:Work
         rdf:about="">
        <dc:format>image/svg+xml</dc:format>
        <dc:type
           rdf:resource="http://purl.org/dc/dcmitype/StillImage" />
      </cc:Work>
    </rdf:RDF>
  </metadata>
  <g
     inkscape:label="Layer 1"
     inkscape:groupmode="layer"
     id="layer1">
    <g
       stroke-width="2"
       fill="none"
       stroke-linecap="butt"
       id="g2"
       transform="matrix(1.0715237,0,0,1.0648438,-3.4577966,-2.9958055)">
      <path
         stroke="#f49494"
         vector-effect="non-scaling-stroke"
         d="M 92.45,50 C 92.869974,29.514542 76.395133,10.501561 56.058419,8.0018762 25.047115,2.0835172 -2.6656578,37.576141 10.819791,66.237258 20.83711,93.560307 60.311667,101.41228 80.022541,80.002541 87.921457,72.167082 92.494871,61.125883 92.45,50 Z"
         id="path1" />
      <path
         stroke="#ff8080"
         vector-effect="non-scaling-stroke"
         d="M 53.47,51.18 C 54.912894,47.504466 49.318418,41.313588 49.439922,47.917734 48.733404,55.058234 48.325677,62.248351 47.6725,69.3775 43.786877,63.936434 40.171548,58.254002 36.39,52.72 38.542812,48.863428 42.52496,45.076872 43.622695,40.288555 45.223825,37.857837 45.073979,30.449622 41.03,33.31 39.24587,38.204797 37.333348,45.624616 34.11,48.49 35.159339,40.282961 36.742246,31.894909 35.486642,23.636103 33.697022,19.56593 32.435836,24.543906 32.387556,26.612339 31.088371,33.971559 29.789185,41.33078 28.49,48.69 25.991797,46.991029 25.010466,41.329556 22.823175,38.236639 22.136508,35.020882 16.071516,29.676782 17.968281,35.967656 19.635094,41.436548 21.746627,47.031621 25.31,51.52 c 4.332504,2.904872 0.37854,8.977823 -0.05246,13.181201 -0.880475,1.757117 -1.653409,10.17194 -3.380098,5.759906 -0.893314,-1.506237 -1.217723,-3.579807 -2.48477,-4.713343 -0.347544,4.623984 -0.430343,10.373533 3.104829,14.094736 1.778263,0.284344 4.449406,0.493617 4.424805,-1.991422 2.020735,-7.424101 3.925061,-14.886401 6.01832,-22.286703 3.45717,3.965659 5.937932,10.22277 8.939375,15.075625 1.119991,4.332903 6.639602,0.59457 6.567141,5.350261 3.082444,5.284213 9.900726,2.61104 14.477976,1.31388 8.03012,-2.454338 16.058033,-5.345511 23.317383,-9.581641 3.442969,-4.255343 -4.213093,-8.859035 -6.933359,-11.990171 -2.80325,-2.979543 -2.887823,-0.413584 -1.176522,1.568667 1.285385,2.457729 2.850894,4.803798 3.958045,7.332574 -2.651256,2.578516 -6.844507,3.680736 -10.161084,5.53478 C 66.455884,72.575378 61.036589,75.367685 55.08,76.36 51.703945,75.967998 53.236368,72.197845 53.03297,69.909258 53.272449,65.702471 53.200105,61.443955 53.6375,57.27 c 2.218823,-1.210601 4.608716,-2.318555 6.99,-3.155 3.138837,2.721001 2.583717,10.06503 8.211387,9.234863 4.537247,-2.301622 3.773666,-8.930738 5.457441,-13.188437 1.086702,-5.690309 2.271356,-11.491843 2.15084,-17.289434 C 74.179639,28.30905 67.978618,30.755972 64.04543,30.760156 60.36301,30.678921 55.548538,32.069049 52.49,30.68 c -0.01902,-5.131189 3.268663,-11.050338 1.101875,-15.6275 -4.554403,0.06123 -3.47044,8.039195 -5.221211,11.50707 -2.383694,4.28014 0.249226,8.703177 5.210518,7.553223 5.600442,0.294683 11.211543,-0.443717 16.728156,-1.0961 0.794053,3.919216 -0.902138,8.487069 -1.334914,12.607731 C 67.726258,48.874507 68.404052,55.04575 65.39,56.24 63.702654,54.163169 61.767954,52.239084 60.23,50.07 61.697918,47.497583 68.728069,42.759705 63.85957,40.628379 58.030487,39.505195 51.964973,39.971009 46.1125,40.4325 c 2.979013,3.481551 8.677634,2.122863 12.849277,2.465898 3.578409,-0.531972 -0.04515,2.334873 -0.81652,3.626514 C 56.823505,48.169941 55.501752,49.814971 54.18,51.46 l -0.457761,0.120573 z"
         id="path2" />
    </g>
    <path
       fill="#e82929"
       d="M 100.42643,50.267682 C 101.85045,84.520843 62.180509,110.8622 30.881152,96.446668 -1.5081057,84.645972 -10.815988,38.143796 14.563526,14.923821 36.081243,-8.2764789 77.724193,-2.6976396 93.104115,24.296918 c 4.772362,7.77449 7.335065,16.863901 7.322315,25.970764 z m -4.821861,-0.0213 C 96.054576,28.432572 78.401396,8.1867168 56.610129,5.5249428 23.380781,-0.77718532 -6.3141123,37.016915 8.1358657,67.536531 18.869661,96.631312 61.167587,104.99243 82.288252,82.194405 90.752132,73.850863 95.652648,62.09371 95.604569,50.246387 Z"
       id="path3"
       style="stroke-width:1.06817" />
    <path
       fill="#ffffff"
       d="m 95.604569,50.246386 c 1.2872,30.962111 -34.571244,54.772584 -62.863357,41.7421 C 3.4639175,81.321605 -4.9496619,39.287364 17.991385,18.298365 37.978561,-3.3337305 76.978615,2.8287208 90.043275,28.593282 c 3.638348,6.604922 5.569341,14.123284 5.561294,21.653104 z M 53.836575,51.502901 C 55.115519,48.303344 50.352317,40.974684 49.587628,47.279528 48.800921,55.132304 48.340893,63.038599 47.624417,70.880396 43.46088,65.086507 39.586969,59.035606 35.534951,53.14276 c 2.306789,-4.106644 6.573755,-8.138739 7.750004,-13.237552 1.715649,-2.588327 1.555085,-10.476922 -2.778134,-7.431066 -1.911738,5.212197 -3.96105,13.113147 -7.414944,16.164329 1.124391,-8.739216 2.820514,-17.67118 1.475104,-26.465518 -1.91762,-4.334099 -3.269011,0.966668 -3.320743,3.169226 C 29.85413,33.1786 28.462021,41.01502 27.069913,48.851439 24.39303,47.042303 23.34151,41.013721 20.997777,37.720244 c -0.735781,-3.424282 -7.234563,-9.114912 -5.202135,-2.416109 1.78603,5.823514 4.048587,11.781389 7.866826,16.560813 4.642381,3.093233 0.405614,9.559976 -0.05621,14.035919 -0.943451,1.871059 -1.771668,10.831527 -3.621856,6.133404 -0.957207,-1.603909 -1.304818,-3.811938 -2.66249,-5.018981 -0.256858,4.900315 -0.676076,11.867536 3.876054,15.133816 1.817759,0.136503 4.269351,0.20183 4.192128,-2.245671 2.165265,-7.905507 4.205795,-15.85169 6.448772,-23.731854 3.70444,4.222798 6.362635,10.885643 9.578753,16.05318 1.200096,4.613862 7.11449,0.633125 7.036846,5.697191 3.302913,5.626859 10.608866,2.780351 15.513497,1.399078 8.604464,-2.613489 17.20656,-5.692134 24.985126,-10.202951 3.689224,-4.531272 -4.514426,-9.433483 -7.429259,-12.767657 -3.003749,-3.172746 -3.094368,-0.440399 -1.26067,1.670388 1.377316,2.617099 3.054796,5.115286 4.241134,7.808042 -2.840878,2.745721 -7.334044,3.919413 -10.887838,5.893676 -5.865199,2.563111 -11.672096,5.536485 -18.054724,6.59314 -3.617523,-0.417419 -1.975496,-4.43205 -2.193441,-6.86903 0.256607,-4.479575 0.179088,-9.014234 0.647768,-13.458839 2.377518,-1.2891 4.938352,-2.468893 7.489951,-3.359581 3.363341,2.89744 2.768517,10.717685 8.798698,9.833683 4.861761,-2.450866 4.043567,-9.509843 5.847776,-14.043618 1.164426,-6.059291 2.433806,-12.237025 2.304676,-18.410554 -2.429712,-4.858818 -9.074251,-2.253228 -13.288758,-2.248773 -3.9458,-0.0865 -9.104618,1.393767 -12.381916,-0.08536 -0.02038,-5.463914 3.502446,-11.766883 1.180684,-16.640846 -4.88015,0.0652 -3.718658,8.560487 -5.594651,12.253232 -2.554184,4.557681 0.267052,9.267528 5.583194,8.043 6.001002,0.313798 12.013439,-0.472482 17.924617,-1.167176 0.850844,4.173357 -0.966664,9.037404 -1.430398,13.425264 -1.337433,3.460838 -0.611165,10.032245 -3.840791,11.303935 -1.808035,-2.2115 -3.881112,-4.260356 -5.529062,-6.570087 1.572911,-2.739225 9.105883,-7.784317 3.88917,-10.053851 -6.245997,-1.196022 -12.745342,-0.699996 -19.016406,-0.208581 3.192083,3.707307 9.29829,2.260515 13.768308,2.625798 3.834351,-0.566465 -0.04833,2.486272 -0.874921,3.861667 -1.416296,1.7517 -2.832583,3.5034 -4.248869,5.2551 l -0.490502,0.128388 z"
       id="path4"
       style="stroke-width:1.06817" />
    <path
       fill="#fe0000"
       d="m 54.597358,51.801057 c 2.320973,-3.010409 4.9521,-5.844065 7.077413,-8.965984 -4.970037,-0.58952 -10.573911,0.751576 -15.148276,-1.878385 -0.481226,-2.330209 6.449373,-0.750832 8.785315,-1.388365 3.370775,0.54929 12.307281,-1.446409 11.279112,3.789801 -0.461976,3.14935 -7.22777,5.43246 -4.444959,8.365658 1.487725,1.722406 2.97545,3.444823 4.463175,5.167229 3.427762,-1.348391 2.522624,-8.443413 3.978032,-12.040722 0.0793,-4.009127 2.925999,-9.67714 0.800963,-12.75949 -7.102337,1.194605 -14.387209,1.705272 -21.56073,0.919097 -5.173437,-2.778813 -0.01571,-9.735114 0.153068,-14.120291 0.02275,-2.617348 2.660762,-9.1839268 5.042147,-4.355419 -0.09184,5.144883 -2.629647,11.131827 -1.700374,15.746378 6.879857,0.212879 13.70333,-1.023188 20.549371,-1.136258 6.500666,-0.0076 4.510183,7.405472 3.972449,11.509168 -1.146884,7.591015 -2.462297,15.332419 -5.389325,22.44547 -4.415481,4.421135 -8.454815,-2.187328 -9.279331,-6.162177 -0.809568,-3.651584 -3.663957,-1.548527 -5.756782,-0.618525 -1.615472,0.794033 -4.169072,1.217435 -3.604417,3.572103 -0.210421,5.453172 -0.420842,10.906354 -0.631263,16.359526 3.531517,4.576923 10.627994,-0.89284 15.380105,-2.274698 5.337902,-2.396931 10.790672,-4.712519 15.80745,-7.688768 -0.01071,-2.020094 -1.832874,-3.729052 -2.617787,-5.611227 -1.004638,-1.790258 -2.009289,-3.580526 -3.013928,-5.370785 4.103358,0.365007 9.181758,7.160202 11.690324,11.479017 -2.696136,5.210621 -10.226387,6.004761 -15.185044,8.72615 -6.762494,2.383376 -13.603605,5.153652 -20.792536,5.796157 -4.209131,0.519006 -6.209225,-3.886104 -7.612004,-6.429494 -7.009752,0.808738 -7.694944,-9.385587 -11.499459,-13.504552 -1.374652,-3.269507 -3.939349,-7.58107 -4.398926,-2.058279 -1.997615,7.409588 -3.99523,14.819165 -5.992844,22.228753 -2.946116,1.999553 -6.200132,-0.462366 -6.883452,-3.704156 -0.611834,-3.086918 -1.758343,-8.761299 -0.295757,-10.617993 1.137337,2.23614 1.935704,4.688347 3.294936,6.783055 2.260178,-6.080162 3.857971,-12.521819 4.795068,-18.964869 -1.655749,-3.632991 -5.518984,-6.545328 -6.785624,-10.895588 -1.683668,-3.621843 -2.992836,-7.414113 -3.918897,-11.295756 3.072433,-2.875196 5.530117,5.042482 7.21533,7.547538 1.660794,1.948525 2.89089,9.264333 4.798942,7.900172 1.606456,-9.043015 3.212909,-18.08603 4.819364,-27.129048 3.951408,-1.93595 2.89946,6.081137 3.055747,8.724336 -0.147071,6.37252 -1.201782,12.74002 -1.868036,19.023748 3.93755,-4.48181 5.188903,-11.802974 7.995912,-17.256688 6.06821,0.637234 1.856264,9.07576 0.382949,12.390224 -0.377531,3.849932 -7.024728,6.531177 -5.38548,10.034673 3.840872,5.579569 7.502621,11.318086 11.455118,16.798603 0.799303,-8.372707 1.16762,-16.834499 2.185908,-25.199529 3.898035,-4.612839 3.364504,5.900066 4.787033,6.12019 z"
       id="path5"
       style="stroke-width:1.06817" />
  </g>
</svg>
