<?xml version="1.0" encoding="UTF-8" standalone="no"?>
<!-- Created with Inkscape (http://www.inkscape.org/) -->

<svg
   width="100"
   height="100"
   id="svg2"
   sodipodi:version="0.32"
   inkscape:version="1.3 (0e150ed6c4, 2023-07-21)"
   version="1.0"
   sodipodi:docname="wk.svg"
   inkscape:output_extension="org.inkscape.output.svg.inkscape"
   xmlns:inkscape="http://www.inkscape.org/namespaces/inkscape"
   xmlns:sodipodi="http://sodipodi.sourceforge.net/DTD/sodipodi-0.dtd"
   xmlns:xlink="http://www.w3.org/1999/xlink"
   xmlns="http://www.w3.org/2000/svg"
   xmlns:svg="http://www.w3.org/2000/svg"
   xmlns:rdf="http://www.w3.org/1999/02/22-rdf-syntax-ns#"
   xmlns:cc="http://creativecommons.org/ns#"
   xmlns:dc="http://purl.org/dc/elements/1.1/">
  <defs
     id="defs4">
    <linearGradient
       id="linearGradient3214">
      <stop
         style="stop-color:#c6c600;stop-opacity:1;"
         offset="0"
         id="stop3216" />
      <stop
         style="stop-color:#ffff00;stop-opacity:1;"
         offset="1"
         id="stop3218" />
    </linearGradient>
    <linearGradient
       id="linearGradient3202">
      <stop
         style="stop-color:#ff0000;stop-opacity:1;"
         offset="0"
         id="stop3204" />
      <stop
         style="stop-color:#bd0000;stop-opacity:1;"
         offset="1"
         id="stop3206" />
    </linearGradient>
    <linearGradient
       id="linearGradient3194">
      <stop
         style="stop-color:#dedede;stop-opacity:1;"
         offset="0"
         id="stop3196" />
      <stop
         style="stop-color:#989898;stop-opacity:1;"
         offset="1"
         id="stop3198" />
    </linearGradient>
    <inkscape:perspective
       sodipodi:type="inkscape:persp3d"
       inkscape:vp_x="0 : 556.18109 : 1"
       inkscape:vp_y="0 : 1000 : 0"
       inkscape:vp_z="744.09448 : 556.18109 : 1"
       inkscape:persp3d-origin="372.04724 : 380.78739 : 1"
       id="perspective10" />
    <linearGradient
       inkscape:collect="always"
       xlink:href="#linearGradient3202"
       id="linearGradient3208"
       x1="42.241379"
       y1="32.741379"
       x2="115.51724"
       y2="62.051723"
       gradientUnits="userSpaceOnUse"
       gradientTransform="translate(-32.758621,-3.8793108)" />
  </defs>
  <sodipodi:namedview
     id="base"
     pagecolor="#ffffff"
     bordercolor="#666666"
     borderopacity="1.0"
     gridtolerance="10000"
     guidetolerance="10"
     objecttolerance="10"
     inkscape:pageopacity="0.0"
     inkscape:pageshadow="2"
     inkscape:zoom="2.32"
     inkscape:cx="9.6982759"
     inkscape:cy="82.974138"
     inkscape:document-units="px"
     inkscape:current-layer="layer1"
     showgrid="false"
     inkscape:window-width="1366"
     inkscape:window-height="715"
     inkscape:window-x="144"
     inkscape:window-y="892"
     inkscape:showpageshadow="2"
     inkscape:pagecheckerboard="0"
     inkscape:deskcolor="#d1d1d1"
     inkscape:window-maximized="1" />
  <metadata
     id="metadata7">
    <rdf:RDF>
      <cc:Work
         rdf:about="">
        <dc:format>image/svg+xml</dc:format>
        <dc:type
           rdf:resource="http://purl.org/dc/dcmitype/StillImage" />
      </cc:Work>
    </rdf:RDF>
  </metadata>
  <g
     inkscape:label="Layer 1"
     inkscape:groupmode="layer"
     id="layer1">
    <g
       stroke-width="2"
       fill="none"
       stroke-linecap="butt"
       id="g6"
       transform="matrix(1.0597703,0,0,1.059607,-3.4702601,-2.7685619)">
      <path
         stroke="#f49494"
         vector-effect="non-scaling-stroke"
         d="M 92.45,50 C 92.869974,29.514542 76.395133,10.501561 56.058419,8.0018762 25.047115,2.0835172 -2.6656578,37.576141 10.819791,66.237258 20.83711,93.560307 60.311667,101.41228 80.022541,80.002541 87.921457,72.167082 92.494871,61.125883 92.45,50 Z"
         id="path1" />
      <path
         stroke="#ff8080"
         vector-effect="non-scaling-stroke"
         d="m 64.8,51.25 c 1.461474,2.202987 2.598251,5.55589 5.920527,5.082168 4.029355,-1.741653 3.80505,-7.173435 5.38188,-10.769251 C 76.680864,41.825268 79.517134,35.894493 75.36,33.8 c -3.984507,0.125578 -7.999889,0.515451 -11.965,0.475 -0.62044,-5.385758 -0.786803,-11.401277 -3.611681,-16.108483 -2.106866,-1.203522 -1.044539,2.538945 -1.243825,3.790292 -0.0145,4.441339 0.362245,8.933885 0.103006,13.343191 -2.030101,0.636438 -4.247251,0.65985 -6.3525,1.05 -1.237193,-1.26253 -1.178399,-3.495554 -1.87848,-5.160297 -3.455748,-2.656808 -2.061905,4.732 -2.333541,6.970844 0.13041,6.188237 0.459516,12.418308 1.554521,18.511328 5.161079,3.460565 3.269429,-5.145518 3.126289,-7.968945 0.833385,-3.069575 -3.166721,-10.742501 2.11105,-10.169939 1.350876,0.22171 4.282887,-1.200812 4.008631,1.083562 C 59.01898,52.831035 59.15949,66.045518 59.3,79.26 c -1.402295,1.587985 -3.298238,-6.482286 -2.674102,-1.070703 0.686414,3.42029 1.592326,10.458887 6.530977,8.549765 C 64.95776,80.898567 63.694121,74.234365 64.2275,68.085 64.611466,62.880835 63.619603,54.740742 64.8,51.25 Z"
         id="path2" />
      <path
         stroke="#ff8080"
         vector-effect="non-scaling-stroke"
         d="m 23.13,24.4 c 6.156878,3.258747 13.489684,2.159261 20.16,1.63 3.579881,-3.566945 -4.816727,-1.96109 -7.006318,-2.336885 C 31.77119,23.714698 27.219627,23.017868 22.764146,22.935407 22.294693,23.375815 22.656859,24.142621 23.13,24.4 Z"
         id="path3" />
      <path
         stroke="#ff8080"
         vector-effect="non-scaling-stroke"
         d="m 41.31,53.29 c -2.896667,3 -5.793333,6 -8.69,9 0.703544,4.813161 8.067787,0.319202 11.015659,-1.515278 3.031236,-0.976145 5.446004,-5.835628 1.078786,-3.533907 -1.809953,1.183048 -3.473726,0.801316 -1.345003,-0.992241 1.351189,-1.816256 3.278002,-3.275365 4.154615,-5.386073 C 47.11888,47.450699 43.339351,49.226492 41.109855,49.289771 37.95657,49.716514 34.803285,50.143257 31.65,50.57 29.873549,49.487539 30.119124,46.391289 32.607715,46.525493 35.885143,45.460328 39.162572,44.395164 42.44,43.33 45.388487,40.621792 37.395184,41.958912 41.295,39.5775 44.412934,38.250108 48.745455,32.427425 42.891616,32.694185 38.841077,32.616124 34.790539,32.538062 30.74,32.46 c -1.814289,-1.252753 -0.955648,-4.502923 -3.067963,-5.495459 -1.814427,3.147452 -0.852385,7.49654 -1.409683,11.144258 -0.360155,9.29535 -0.496624,18.628751 0.119834,27.910732 1.037165,4.265832 5.338703,1.549275 4.227979,-1.724555 0.138657,-3.644528 -0.0565,-7.346811 0.292333,-10.954976 3.443955,-0.47252 7.006688,-0.531026 10.4975,-0.719375 0.429252,0.04548 0.05118,0.592914 -0.09,0.669375 z"
         id="path4" />
      <path
         stroke="#ff8080"
         vector-effect="non-scaling-stroke"
         d="m 68.82,50.67 c 1.030576,-4.498 2.198459,-8.973624 3.143125,-13.485625 -1.271554,-0.855863 -3.334133,0.181391 -4.921758,0.118709 -4.095493,-0.703827 -3.576681,3.371729 -3.204687,6.366369 0.105847,2.480264 2.177133,7.987013 4.98332,7.000547 z"
         id="path5" />
      <path
         stroke="#ff8080"
         vector-effect="non-scaling-stroke"
         d="m 31.32,43.68 c 2.613446,-2.263096 8.453003,-5.235101 7.94,-8.43 -2.973135,-0.07056 -5.986683,-0.499555 -8.935,-0.35 -0.194639,2.754575 0.16359,5.578374 0.185,8.36 l 0.280507,0.450094 z"
         id="path6" />
    </g>
    <path
       fill="#e82929"
       d="m 99.274472,50.232978 c 1.408398,34.084705 -37.826403,60.296512 -68.782443,45.95188 -32.0339841,-11.74266 -41.23977,-58.016141 -16.13864,-81.121919 21.281693,-23.086204 62.467867,-17.5348013 77.67909,9.326999 4.720015,7.736254 7.254615,16.780964 7.241993,25.84304 z m -4.768966,-0.02119 C 94.950578,28.505251 77.491032,8.358965 55.938788,5.7102816 23.073929,-0.56085267 -6.2952454,37.047377 7.9962334,67.416899 18.61229,96.368593 60.446254,104.68859 81.335252,82.002686 c 8.371041,-8.302508 13.217806,-20.00184 13.170254,-31.7909 z"
       id="path7"
       style="stroke-width:1.05968" />
    <path
       fill="#ffffff"
       d="M 94.505506,50.211786 C 95.778587,81.021628 60.313467,104.71501 32.331687,91.748601 3.3755307,81.134179 -4.9457614,39.306661 17.743648,18.420886 37.511587,-3.1048249 76.083857,3.0273198 89.005213,28.665177 c 3.59844,6.572435 5.508252,14.05382 5.500293,21.546609 z m -29.302649,1.324509 c 1.548826,2.334303 2.753548,5.887059 6.274401,5.385102 4.270186,-1.845475 4.03248,-7.601027 5.703558,-11.411172 0.613023,-3.96044 3.618818,-10.244735 -0.786785,-12.464072 -4.222666,0.133065 -8.478046,0.546175 -12.680152,0.503314 -0.657524,-5.706789 -0.83383,-12.080876 -3.827552,-17.068658 -2.232795,-1.275269 -1.106972,2.690279 -1.318169,4.016218 -0.01537,4.706074 0.383897,9.466401 0.109163,14.138537 -2.151441,0.674376 -4.501111,0.699182 -6.732191,1.112587 -1.31114,-1.337785 -1.248833,-3.70391 -1.990757,-5.46789 -3.662299,-2.815163 -2.185146,5.014061 -2.473018,7.386361 0.138205,6.557092 0.486981,13.158518 1.647436,19.614734 5.469558,3.666834 3.464843,-5.452228 3.313147,-8.443955 0.883197,-3.252537 -3.355997,-11.382827 2.237228,-10.776139 1.431619,0.234926 4.538877,-1.272386 4.248229,1.148148 0.148908,14.002165 0.297816,28.004321 0.446725,42.006476 -1.486111,1.682644 -3.495375,-6.86868 -2.833934,-1.134522 0.727441,3.624163 1.6875,11.082302 6.921335,9.059386 1.908525,-6.188624 0.569358,-13.250068 1.134617,-19.765972 0.406916,-5.514364 -0.644231,-14.139671 0.606719,-17.838483 z M 21.042228,23.085848 c 6.524876,3.452994 14.295966,2.287967 21.364968,1.727159 3.793852,-3.779554 -5.104623,-2.077985 -7.425087,-2.476174 -4.782205,0.02289 -9.605817,-0.715499 -14.327603,-0.802874 -0.497512,0.466651 -0.1137,1.279167 0.387722,1.551889 z m 19.266624,30.612045 c -3.069802,3.178821 -6.139603,6.357641 -9.209404,9.536463 0.272012,5.053148 7.834269,0.640055 10.708027,-0.980095 2.440567,-0.761699 7.705505,-6.468688 2.632715,-4.576897 -1.30766,0.725004 -4.596972,1.854353 -2.315012,-0.417242 1.547357,-2.071087 3.72781,-3.749429 4.769146,-6.134425 -0.429394,-3.615168 -4.434826,-1.733528 -6.79758,-1.666475 -3.341758,0.452176 -6.683516,0.904363 -10.025274,1.35654 -1.88263,-1.146982 -1.622376,-4.42779 1.014959,-4.285591 3.47332,-1.128651 6.946642,-2.257313 10.419963,-3.385964 3.124719,-2.869637 -5.346346,-1.452816 -1.213437,-3.976175 3.304294,-1.406511 7.895771,-7.576263 1.692046,-7.293603 -4.292641,-0.08275 -8.58528,-0.165436 -12.877922,-0.248149 -1.922729,-1.327422 -1.012767,-4.771325 -3.251335,-5.823028 -1.922877,3.335061 -0.903334,7.943386 -1.493941,11.808535 -0.381682,9.849418 -0.526307,19.739153 0.126996,29.574404 1.284023,4.705545 5.614001,1.37217 4.484944,-2.108681 0.145471,-3.767994 -0.06264,-7.59716 0.305549,-11.326637 3.649801,-0.500685 7.42548,-0.562683 11.124939,-0.762249 0.454909,0.04822 0.05424,0.628251 -0.09538,0.709269 z"
       id="path8"
       style="stroke-width:1.05968" />
    <path
       fill="#fe0000"
       d="m 64.619982,51.705831 c -0.0369,12.192909 0.222094,24.45663 -0.604979,36.60176 -4.45503,4.310831 -7.039354,-4.039211 -7.381052,-7.649324 -1.068189,-4.56593 1.058654,-1.514517 1.993165,1.093992 1.567732,-0.770187 0.344788,-3.458939 0.699132,-5.03788 -0.135944,-12.783004 -0.271886,-25.565996 -0.40783,-38.348999 -1.216285,-1.141769 -3.637624,-0.04884 -5.356776,-0.231905 -4.027311,0.605417 -0.176525,7.742453 -1.119704,10.703926 0.85497,3.131055 1.151963,13.065463 -3.495958,7.806199 -1.247182,-8.74412 -1.707644,-17.600442 -1.367104,-26.426597 2.660593,-2.641123 2.822358,2.489694 3.595084,4.322921 0.365373,2.229625 3.160334,0.528161 4.672408,0.659489 2.262238,0.22205 3.545293,-1.075332 2.934587,-3.32295 -0.09549,-5.105927 -0.190964,-10.211865 -0.286444,-15.317794 3.803218,-0.764421 3.506662,7.747295 4.559164,10.638952 0.382949,3.21738 -0.436093,7.837616 4.064719,6.293567 3.091877,-0.148345 6.183757,-0.296689 9.275637,-0.445035 4.405603,2.219337 1.399808,8.503632 0.786785,12.464072 -1.671078,3.810145 -1.433372,9.565697 -5.703558,11.411172 -3.866306,0.554927 -4.708881,-3.608883 -6.716855,-5.819541 z m 4.843151,-0.784109 c 1.092179,-4.766112 2.329863,-9.50851 3.330986,-14.289467 -1.347552,-0.906875 -3.533413,0.192213 -5.215928,0.125786 -4.340283,-0.745772 -3.790461,3.572709 -3.396233,6.74585 0.104632,2.61351 2.319566,8.479632 5.281175,7.417831 z"
       id="path9"
       style="stroke-width:1.05968" />
    <path
       fill="#fe0000"
       d="m 21.042228,23.085848 c -1.035371,-3.52937 6.730446,-0.231185 9.324032,-0.925545 4.242046,0.294358 8.503119,0.137505 12.743034,0.257993 1.094104,4.279657 -7.241005,2.306086 -10.222869,3.005479 -4.006761,-0.0782 -8.319613,-0.195338 -11.844197,-2.337927 z"
       id="path10"
       style="stroke-width:1.05968" />
    <path
       fill="#fe0000"
       d="M 39.969725,52.966764 C 36.4161,53.272302 32.783523,53.22392 29.279292,53.750873 28.896056,58.511984 29.087598,63.372517 28.926919,68.172124 24.369308,72.881631 23.84205,63.609 24.157416,60.365978 23.86685,49.131591 24.147916,37.881235 25.037561,26.677916 c 2.332421,-2.008475 2.461134,2.687851 3.338688,4.314125 1.496083,1.275566 3.892929,0.423387 5.795157,0.731818 3.261018,0.06284 6.522038,0.12568 9.783055,0.188515 5.885344,3.317046 -7.266829,7.118503 -3.717085,9.049202 3.889748,0.462889 0.26141,3.17596 -1.942478,3.226207 -3.11867,1.094891 -6.378383,1.908648 -9.407721,3.181607 -0.508587,2.299623 1.088387,4.166057 3.415186,3.1445 4.08539,-0.552796 8.170778,-1.105605 12.256168,-1.658401 4.588112,0.78715 0.849853,4.807734 -0.891969,6.606098 -0.512567,0.855528 -3.720898,3.491553 -1.583773,3.147372 1.50617,-0.253511 4.789737,-2.928255 4.74365,-0.333564 -4.006549,3.801022 -9.17217,7.22315 -14.879175,7.247712 -2.798537,-1.952941 1.255921,-3.986666 2.475097,-5.729677 2.002345,-2.257948 4.465987,-4.256738 6.183227,-6.675672 L 40.404231,52.988624 Z M 29.721746,43.51507 c 2.769653,-2.397996 8.958241,-5.547148 8.414577,-8.932487 -3.150841,-0.07481 -6.34451,-0.529326 -9.469048,-0.370862 -0.206273,2.918761 0.173368,5.91088 0.196057,8.858315 l 0.297273,0.476918 z"
       id="path11"
       style="stroke-width:1.05968" />
    <path
       fill="#ffffff"
       d="m 29.721746,43.51507 c -1.698465,-0.573163 -0.61611,-3.5777 -1.038357,-5.224773 0.281317,-1.394719 -1.1528,-4.585587 1.234889,-4.149781 2.874909,0.275338 5.865551,0.07481 8.668729,0.645099 -1.02266,3.571426 -5.859235,6.364794 -8.865261,8.729455 z"
       id="path12"
       style="stroke-width:1.05968" />
    <path
       fill="#ffffff"
       d="M 69.463133,50.921722 C 64.098832,50.67103 63.56389,41.870963 64.222568,37.31372 c 2.656711,-0.632098 5.484715,-0.789481 8.216538,-1.078807 0.747944,1.439985 -0.593492,3.48704 -0.718587,5.16515 -0.752459,3.173883 -1.504927,6.347776 -2.257386,9.521659 z"
       id="path13"
       style="stroke-width:1.05968" />
  </g>
</svg>
