<?xml version="1.0" encoding="UTF-8" standalone="no"?>
<!-- Created with Inkscape (http://www.inkscape.org/) -->

<svg
   width="100"
   height="100"
   id="svg2"
   sodipodi:version="0.32"
   inkscape:version="1.3 (0e150ed6c4, 2023-07-21)"
   version="1.0"
   sodipodi:docname="wn.svg"
   inkscape:output_extension="org.inkscape.output.svg.inkscape"
   xmlns:inkscape="http://www.inkscape.org/namespaces/inkscape"
   xmlns:sodipodi="http://sodipodi.sourceforge.net/DTD/sodipodi-0.dtd"
   xmlns:xlink="http://www.w3.org/1999/xlink"
   xmlns="http://www.w3.org/2000/svg"
   xmlns:svg="http://www.w3.org/2000/svg"
   xmlns:rdf="http://www.w3.org/1999/02/22-rdf-syntax-ns#"
   xmlns:cc="http://creativecommons.org/ns#"
   xmlns:dc="http://purl.org/dc/elements/1.1/">
  <defs
     id="defs4">
    <linearGradient
       id="linearGradient3214">
      <stop
         style="stop-color:#c6c600;stop-opacity:1;"
         offset="0"
         id="stop3216" />
      <stop
         style="stop-color:#ffff00;stop-opacity:1;"
         offset="1"
         id="stop3218" />
    </linearGradient>
    <linearGradient
       id="linearGradient3202">
      <stop
         style="stop-color:#ff0000;stop-opacity:1;"
         offset="0"
         id="stop3204" />
      <stop
         style="stop-color:#bd0000;stop-opacity:1;"
         offset="1"
         id="stop3206" />
    </linearGradient>
    <linearGradient
       id="linearGradient3194">
      <stop
         style="stop-color:#dedede;stop-opacity:1;"
         offset="0"
         id="stop3196" />
      <stop
         style="stop-color:#989898;stop-opacity:1;"
         offset="1"
         id="stop3198" />
    </linearGradient>
    <inkscape:perspective
       sodipodi:type="inkscape:persp3d"
       inkscape:vp_x="0 : 556.18109 : 1"
       inkscape:vp_y="0 : 1000 : 0"
       inkscape:vp_z="744.09448 : 556.18109 : 1"
       inkscape:persp3d-origin="372.04724 : 380.78739 : 1"
       id="perspective10" />
    <linearGradient
       inkscape:collect="always"
       xlink:href="#linearGradient3202"
       id="linearGradient3208"
       x1="42.241379"
       y1="32.741379"
       x2="115.51724"
       y2="62.051723"
       gradientUnits="userSpaceOnUse"
       gradientTransform="translate(-32.758621,-3.8793108)" />
  </defs>
  <sodipodi:namedview
     id="base"
     pagecolor="#ffffff"
     bordercolor="#666666"
     borderopacity="1.0"
     gridtolerance="10000"
     guidetolerance="10"
     objecttolerance="10"
     inkscape:pageopacity="0.0"
     inkscape:pageshadow="2"
     inkscape:zoom="2.32"
     inkscape:cx="1.0775862"
     inkscape:cy="74.784483"
     inkscape:document-units="px"
     inkscape:current-layer="layer1"
     showgrid="false"
     inkscape:window-width="1366"
     inkscape:window-height="715"
     inkscape:window-x="144"
     inkscape:window-y="892"
     inkscape:showpageshadow="2"
     inkscape:pagecheckerboard="0"
     inkscape:deskcolor="#d1d1d1"
     inkscape:window-maximized="1" />
  <metadata
     id="metadata7">
    <rdf:RDF>
      <cc:Work
         rdf:about="">
        <dc:format>image/svg+xml</dc:format>
        <dc:type
           rdf:resource="http://purl.org/dc/dcmitype/StillImage" />
      </cc:Work>
    </rdf:RDF>
  </metadata>
  <g
     inkscape:label="Layer 1"
     inkscape:groupmode="layer"
     id="layer1">
    <g
       stroke-width="2"
       fill="none"
       stroke-linecap="butt"
       id="g6"
       transform="matrix(1.0735635,0,0,1.0596069,-4.2735031,-3.1995963)">
      <path
         stroke="#f49494"
         vector-effect="non-scaling-stroke"
         d="M 92.45,50 C 92.869974,29.514542 76.395133,10.501561 56.058419,8.0018762 25.047115,2.0835172 -2.6656578,37.576141 10.819791,66.237258 20.83711,93.560307 60.311667,101.41228 80.022541,80.002541 87.921457,72.167082 92.494871,61.125883 92.45,50 Z"
         id="path1" />
      <path
         stroke="#ff8080"
         vector-effect="non-scaling-stroke"
         d="M 69.89,50.09 C 68.7304,54.859193 68.065535,61.073451 65.324375,64.685 63.564815,61.835209 59.131723,56.067862 56.35,57.96 c 1.919788,3.053753 3.022838,6.613765 5.195,9.477969 2.548814,0.864881 4.064554,1.157407 2.184016,3.831796 -1.298922,2.704251 -2.266551,5.626672 -3.771516,8.195235 -2.598607,-3.189953 -5.478332,-6.645567 -6.93,-10.515 1.603317,-3.522617 -1.254464,-9.672727 -5.4575,-9.66 -3.34562,1.15717 -5.635044,8.715084 -7.890664,2.39041 -1.641954,-3.355232 -6.581721,-2.771924 -3.871211,1.350371 0.424266,3.562677 5.00203,12.104257 7.991543,6.056296 C 44.543112,66.954718 45.286556,64.822359 46.03,62.69 c 1.932233,0.842869 2.672654,6.112222 6.2675,6.77 2.236221,5.029816 3.822121,12.364689 9.145664,14.571484 C 66.859327,83.5991 67.247156,76.766797 69.426875,72.99625 72.521685,65.07793 74.790958,56.839878 76.22,48.46 73.676363,44.04875 67.100678,46.295161 62.899219,46.825742 c -3.480333,0.82121 -10.965801,4.081429 -7.367969,-2.426367 1.148054,-2.500045 4.339129,-2.17788 6.574844,-3.113677 1.594904,-0.785853 4.657716,-0.343577 4.732348,-2.628247 C 64.092185,34.67387 58.629211,39.268772 55.71,38.43 c -0.0249,-2.012698 -1.416137,-5.447481 2.195625,-4.65625 2.08715,0.107325 10.184278,-1.384026 4.832695,-2.970195 -2.264408,-1.609245 -7.986954,1.338772 -7.555,-2.624392 C 55.362371,26.437357 54.361351,24.316142 55.46,22.87 c 2.936667,-0.5 5.873333,-1 8.81,-1.5 1.745193,-3.560582 -6.245434,-2.807066 -8.816857,-2.670051 C 47.984783,19.062933 40.225708,18.877167 33.24,15.91 c -3.264463,3.827639 9.340421,3.814111 5.988633,9.333906 -1.480022,8.715456 -3.436259,17.365084 -4.741289,26.099063 -0.861631,5.738511 6.379327,4.546948 10.041208,4.218447 C 53.164086,54.552397 61.365736,51.2649 69.81,49.5925 Z"
         id="path2" />
      <path
         stroke="#ff8080"
         vector-effect="non-scaling-stroke"
         d="m 28.58,65.09 c -0.047,-3.056352 -5.596483,-8.610075 -4.409695,-2.617898 0.993282,4.171034 -0.423458,13.334141 5.976414,12.626961 C 32.97162,74.102453 30.392199,66.38096 28.58,65.09 Z"
         id="path3" />
      <path
         stroke="#ff8080"
         vector-effect="non-scaling-stroke"
         d="m 50.8534,22.5174 c -1.318018,-0.600422 -3.239649,-0.03118 -4.788425,-0.178123 -1.326907,0.341131 -4.339584,-0.848064 -3.869593,1.406658 0.09877,2.336015 -0.01655,4.718903 0.213962,7.026076 2.803918,0.07547 5.728417,0.02518 8.520266,-0.163654 0.134935,-2.651139 -0.07847,-5.410126 -0.07621,-8.090957 z"
         id="path4" />
      <path
         stroke="#ff8080"
         vector-effect="non-scaling-stroke"
         d="m 41.63,41.1 c 1.176458,1.31473 3.503675,-0.233036 5.181988,-0.226851 1.71565,-0.266553 4.224939,-0.396615 3.625691,-2.785632 -0.299087,-1.289409 1.027171,-4.088231 -1.028318,-4.078799 -2.459251,0.02582 -4.996437,-0.448966 -7.407263,-0.112104 C 41.511805,36.19349 41.807453,38.727857 41.63,41.1 Z"
         id="path5" />
      <path
         stroke="#ff8080"
         vector-effect="non-scaling-stroke"
         d="M 49.85,48.98 C 51.225181,46.619252 50.259783,42.789275 47.073794,44.264484 45.282529,44.456323 43.491265,44.648161 41.7,44.84 c -1.413919,1.403969 -0.913121,3.801694 -1.454864,5.65833 -0.8477,4.106832 6.365534,0.58151 8.382364,-0.17333 l 0.711875,-0.62125 z"
         id="path6" />
    </g>
    <path
       fill="#e82929"
       d="M 99.808476,49.801944 C 101.23521,83.886649 61.489753,110.09847 30.130813,95.753823 -2.3201007,84.011163 -11.645702,37.737683 13.782126,14.631904 c 21.558678,-23.0862034 63.280897,-17.5348008 78.690097,9.327 4.781454,7.736254 7.349041,16.780962 7.336253,25.84304 z M 94.97744,49.780751 C 95.428309,28.074215 77.741521,7.9279309 55.908768,5.2792472 22.616165,-0.99188713 -7.1352562,36.616343 7.3422293,66.985865 18.096457,95.937558 60.4749,104.25756 81.635774,81.571652 90.115762,73.269143 95.025612,61.569811 94.97744,49.780751 Z"
       id="path7"
       style="stroke-width:1.06656" />
    <path
       fill="#ffffff"
       d="M 94.97744,49.780751 C 96.267094,80.590593 60.340384,104.28398 31.994415,91.317566 2.6613873,80.703145 -5.7682084,38.875627 17.21651,17.989851 37.241733,-3.5358593 76.316026,2.5962854 89.40556,28.234143 c 3.645278,6.572434 5.579943,14.05382 5.57188,21.546608 z m -24.219592,0.09536 c -1.244904,5.053466 -1.958679,11.63814 -4.901488,15.464964 -1.888999,-3.019658 -6.648205,-9.130782 -9.634561,-7.125858 2.061014,3.235776 3.245208,7.007986 5.577162,10.042924 2.736314,0.916432 4.363557,1.226399 2.34468,4.060191 -1.394475,2.865453 -2.433286,5.962069 -4.048962,8.683733 -2.789769,-3.380093 -5.881337,-7.041692 -7.439795,-11.141767 1.721263,-3.732593 -1.346747,-10.249292 -5.858972,-10.235803 -3.591736,1.226145 -6.049578,9.234559 -8.471129,2.532895 -1.762742,-3.555225 -7.065895,-2.937146 -4.155991,1.430861 0.407036,3.938115 5.659036,12.999566 8.673275,6.151623 0.766853,-2.170912 1.533705,-4.341814 2.300557,-6.512716 2.074375,0.893111 2.869264,6.476551 6.728559,7.17354 2.400725,5.329632 4.103289,13.101711 9.818451,15.440041 5.814594,-0.458152 6.230954,-7.697706 8.57102,-11.693006 3.322475,-8.390308 5.758684,-17.119403 7.292851,-25.998782 -2.730756,-4.674191 -9.790171,-2.293879 -14.300704,-1.731673 -3.254794,0.373491 -11.471211,4.730657 -8.20085,-1.940034 0.993316,-3.301989 4.943405,-2.928245 7.624003,-4.005696 1.68352,-0.72885 5.824882,-0.569994 4.442514,-3.300124 -3.368423,-3.440247 -9.001224,1.788754 -11.608285,0.0693 -0.577122,-2.785093 -0.663562,-5.708421 3.465474,-4.790229 3.663654,0.545464 9.348988,-2.576603 2.98589,-3.244262 -2.570109,-1.083152 -7.963249,1.299459 -7.023273,-3.10894 0.276853,-1.685941 -1.212515,-4.491578 0.890097,-5.158187 2.965351,-0.498313 5.930701,-0.996635 8.896051,-1.494957 1.873575,-3.772816 -6.70487,-2.974392 -9.465456,-2.829205 -8.017759,0.384617 -16.347618,0.187785 -23.847219,-2.95625 -3.34213,4.18105 9.926932,3.963906 6.429178,9.890276 -1.588898,9.234952 -3.689043,18.400159 -5.090075,27.654746 -0.925016,6.080565 6.848612,4.81798 10.779873,4.469899 9.270795,-1.069112 18.075787,-4.55257 27.14124,-6.324657 z m -44.348907,15.89411 c -0.150703,-3.188008 -5.837371,-9.209383 -4.734087,-2.773946 1.066351,4.419663 -0.454609,14.128948 6.416059,13.379615 3.032711,-1.056016 0.263539,-9.237759 -1.681972,-10.605669 z"
       id="path8"
       style="stroke-width:1.06656" />
    <path
       fill="#fe0000"
       d="m 70.135181,49.293332 c -11.107116,2.553822 -22.085916,7.255553 -33.684967,6.505076 -6.151526,-0.267424 -2.966797,-7.944594 -2.511358,-11.606914 1.431494,-7.67522 3.029831,-15.332957 4.26547,-23.035971 -0.203436,-3.71601 -10.025563,-3.932361 -6.792579,-7.496772 9.209703,3.964911 19.444499,3.026237 29.203107,2.844387 4.577391,-0.623621 6.18706,3.631655 1.299347,3.413323 -2.215958,0.372377 -4.431916,0.744766 -6.647874,1.117153 -1.153473,1.583392 -0.115218,3.8623 -0.289818,5.756326 -0.367528,4.055169 5.740731,0.924783 8.103557,2.65012 5.745264,1.680716 -2.947517,3.260971 -5.188205,3.147244 -3.848742,-0.82909 -2.391601,2.798666 -2.357143,4.933795 3.133959,0.888767 8.998808,-3.980021 11.947089,0.241008 -0.148572,2.450754 -3.540963,1.990545 -5.326289,2.85245 -2.530857,0.99548 -6.245101,0.663654 -7.103568,3.862692 -2.388085,4.144324 1.189831,4.513862 4.286315,2.87411 5.516161,-1.169775 11.685289,-3.27407 17.135533,-0.886435 2.275661,3.065103 -0.601418,7.498011 -0.899563,11.096437 -2.434686,9.11014 -5.277369,18.319237 -9.990628,26.541384 -6.2138,5.652028 -9.923013,-4.899432 -12.063833,-9.343752 -0.604657,-5.324959 -6.908589,-6.697998 -7.842439,-11.872006 -1.406891,1.41608 -1.533944,3.826495 -2.411664,5.653702 -0.310176,4.312813 -5.722292,4.97566 -6.956881,0.445544 -1.12759,-2.466542 -5.771046,-11.700413 0.396002,-8.524908 2.429808,1.851663 3.921569,7.751554 6.442786,2.231172 3.176248,-6.445663 9.706769,-1.033372 10.013139,4.005769 -1.576526,4.337215 2.128688,7.832456 4.500999,11.345519 1.494023,3.536608 3.286481,2.945274 4.022462,-0.218141 1.170588,-2.836706 2.685968,-5.586121 3.644123,-8.476601 -4.727754,0.355084 -5.490829,-5.073166 -7.46395,-8.134804 -1.805816,-1.918715 -2.070342,-5.567885 1.224826,-2.924801 3.3314,0.778694 5.290226,6.97002 7.546188,6.558924 1.374587,-4.776549 4.527489,-11.315097 3.499816,-15.55503 z M 50.32085,20.659998 c -1.414976,-0.636209 -3.477969,-0.03306 -5.140678,-0.188738 -1.424519,0.361464 -4.658819,-0.89862 -4.154254,1.490507 0.106036,2.475253 -0.01777,5.000179 0.229701,7.444872 3.010185,0.08 6.14982,0.0267 9.147047,-0.173404 0.144861,-2.809167 -0.08424,-5.732611 -0.08182,-8.573237 z M 40.418945,40.35025 c 1.263001,1.393097 3.761417,-0.246931 5.563193,-0.240372 1.841859,-0.282439 4.53574,-0.420261 3.892409,-2.951673 -0.321089,-1.366268 1.102733,-4.331918 -1.103965,-4.321925 -2.640162,0.02733 -5.363992,-0.475732 -7.952168,-0.118793 -0.544989,2.413456 -0.195569,5.135195 -0.399469,7.632763 z m 8.824691,8.349703 c 1.476344,-2.501468 0.439928,-6.559731 -2.980433,-4.996599 -1.923037,0.203276 -3.846073,0.40655 -5.769109,0.609825 -1.517932,1.487657 -0.980293,4.028298 -1.56189,5.995607 -0.910059,4.351624 6.833806,0.616171 8.999001,-0.183662 l 0.764243,-0.658281 z"
       id="path9"
       style="stroke-width:1.06656" />
    <rect
       fill="#ffffff"
       x="40.590973"
       y="21.323679"
       transform="matrix(0.99982047,-0.01894796,0.0194502,0.99981083,0,0)"
       width="9.3184872"
       height="8.9431267"
       rx="0.28986079"
       id="rect9"
       style="stroke-width:1.06656" />
    <path
       fill="#ffffff"
       d="m 40.418945,40.35025 c 0.198478,-2.529398 -0.138118,-5.180461 0.399469,-7.632763 2.861319,-0.297135 5.872615,0.08837 8.773261,0.202078 0.871358,1.41519 0.06552,3.45595 0.256223,5.11716 -0.0014,2.303098 -3.17234,1.597516 -4.770307,2.245752 -1.446992,-0.04567 -3.782162,1.490051 -4.658646,0.06781 z"
       id="path10"
       style="stroke-width:1.06656" />
    <path
       fill="#ffffff"
       d="m 45.754555,51.115856 c -2.648727,0.713295 -8.628412,2.876717 -6.669441,-1.804394 0.607714,-1.680091 -0.236533,-4.591255 1.975871,-5.058204 2.687569,-0.218776 5.386701,-0.69845 8.067243,-0.758625 1.756228,2.951991 0.222579,6.983127 -3.373673,7.621223 z"
       id="path11"
       style="stroke-width:1.06656" />
    <path
       fill="#fe0000"
       d="m 26.90278,66.215255 c 1.974964,2.598496 5.171922,11.697955 -1.366466,10.137165 -4.306782,-3.684254 -3.078095,-10.60852 -4.065765,-15.774274 2.17976,-3.193962 4.339287,4.742833 5.432231,5.637109 z"
       id="path12"
       style="stroke-width:1.06656" />
  </g>
</svg>
