<?xml version="1.0" encoding="UTF-8" standalone="no"?>
<!-- Created with Inkscape (http://www.inkscape.org/) -->

<svg
   width="100"
   height="100"
   id="svg2"
   sodipodi:version="0.32"
   inkscape:version="1.3 (0e150ed6c4, 2023-07-21)"
   version="1.0"
   sodipodi:docname="wp.svg"
   inkscape:output_extension="org.inkscape.output.svg.inkscape"
   xmlns:inkscape="http://www.inkscape.org/namespaces/inkscape"
   xmlns:sodipodi="http://sodipodi.sourceforge.net/DTD/sodipodi-0.dtd"
   xmlns:xlink="http://www.w3.org/1999/xlink"
   xmlns="http://www.w3.org/2000/svg"
   xmlns:svg="http://www.w3.org/2000/svg"
   xmlns:rdf="http://www.w3.org/1999/02/22-rdf-syntax-ns#"
   xmlns:cc="http://creativecommons.org/ns#"
   xmlns:dc="http://purl.org/dc/elements/1.1/">
  <defs
     id="defs4">
    <linearGradient
       id="linearGradient3214">
      <stop
         style="stop-color:#c6c600;stop-opacity:1;"
         offset="0"
         id="stop3216" />
      <stop
         style="stop-color:#ffff00;stop-opacity:1;"
         offset="1"
         id="stop3218" />
    </linearGradient>
    <linearGradient
       id="linearGradient3202">
      <stop
         style="stop-color:#ff0000;stop-opacity:1;"
         offset="0"
         id="stop3204" />
      <stop
         style="stop-color:#bd0000;stop-opacity:1;"
         offset="1"
         id="stop3206" />
    </linearGradient>
    <linearGradient
       id="linearGradient3194">
      <stop
         style="stop-color:#dedede;stop-opacity:1;"
         offset="0"
         id="stop3196" />
      <stop
         style="stop-color:#989898;stop-opacity:1;"
         offset="1"
         id="stop3198" />
    </linearGradient>
    <inkscape:perspective
       sodipodi:type="inkscape:persp3d"
       inkscape:vp_x="0 : 556.18109 : 1"
       inkscape:vp_y="0 : 1000 : 0"
       inkscape:vp_z="744.09448 : 556.18109 : 1"
       inkscape:persp3d-origin="372.04724 : 380.78739 : 1"
       id="perspective10" />
    <linearGradient
       inkscape:collect="always"
       xlink:href="#linearGradient3202"
       id="linearGradient3208"
       x1="42.241379"
       y1="32.741379"
       x2="115.51724"
       y2="62.051723"
       gradientUnits="userSpaceOnUse"
       gradientTransform="translate(-32.758621,-3.8793108)" />
  </defs>
  <sodipodi:namedview
     id="base"
     pagecolor="#ffffff"
     bordercolor="#666666"
     borderopacity="1.0"
     gridtolerance="10000"
     guidetolerance="10"
     objecttolerance="10"
     inkscape:pageopacity="0.0"
     inkscape:pageshadow="2"
     inkscape:zoom="3.2809755"
     inkscape:cx="30.631134"
     inkscape:cy="65.07211"
     inkscape:document-units="px"
     inkscape:current-layer="layer1"
     showgrid="false"
     inkscape:window-width="1366"
     inkscape:window-height="715"
     inkscape:window-x="144"
     inkscape:window-y="892"
     inkscape:showpageshadow="2"
     inkscape:pagecheckerboard="0"
     inkscape:deskcolor="#d1d1d1"
     inkscape:window-maximized="1" />
  <metadata
     id="metadata7">
    <rdf:RDF>
      <cc:Work
         rdf:about="">
        <dc:format>image/svg+xml</dc:format>
        <dc:type
           rdf:resource="http://purl.org/dc/dcmitype/StillImage" />
      </cc:Work>
    </rdf:RDF>
  </metadata>
  <g
     inkscape:label="Layer 1"
     inkscape:groupmode="layer"
     id="layer1">
    <g
       stroke-width="2"
       fill="none"
       stroke-linecap="butt"
       id="g5"
       transform="matrix(1.0682726,0,0,1.0616016,-3.4446018,-3.1568247)">
      <path
         stroke="#f49494"
         vector-effect="non-scaling-stroke"
         d="M 92.45,50 C 92.869974,29.514542 76.395133,10.501561 56.058419,8.0018762 25.047115,2.0835172 -2.6656578,37.576141 10.819791,66.237258 20.83711,93.560307 60.311667,101.41228 80.022541,80.002541 87.921457,72.167082 92.494871,61.125883 92.45,50 Z"
         id="path1" />
      <path
         stroke="#ff8080"
         vector-effect="non-scaling-stroke"
         d="m 62.03,51.49 c 0.522337,-4.184297 0.689135,-8.456742 1.4375,-12.585 2.782346,-1.043745 5.945606,-1.042866 8.688644,-2.192295 0.35127,-4.808454 -7.09542,-2.338732 -10.198019,-2.20583 C 56.525811,35.079537 51.058282,35.893491 45.6225,36.08 45.483616,32.57234 45.902467,28.994782 45.98,25.46 c 5.486008,-1.472986 12.560123,-0.337947 18.53375,-1.8275 3.508468,-4.308116 -5.202918,-2.720517 -7.781719,-3.139062 -7.569678,-0.370709 -15.340403,0.364249 -22.619277,-2.217676 -5.66386,-0.233585 2.814174,5.876589 5.456235,5.599685 5.661589,0.912877 -0.02995,8.383276 0.825474,12.207297 C 39.366817,43.157467 39.259406,50.358173 38.9925,57.455 32.725816,58.310014 26.267081,57.981007 19.95,57.49 c -1.09345,3.058617 6.196125,3.986017 9.025176,4.422051 11.339572,0.688976 22.456767,-2.434612 33.532861,-4.396729 6.002786,-1.724846 13.105616,-1.900432 18.356776,-4.925036 -1.738438,-4.199043 -7.908886,-2.49206 -11.572079,-2.018157 -2.202318,0.0093 -5.6725,2.089265 -7.262734,0.917871 z"
         id="path2" />
      <path
         stroke="#ff8080"
         vector-effect="non-scaling-stroke"
         d="M 75.37,74.64 C 72.86783,69.14465 69.286618,63.48723 63.693143,60.772011 60.770251,59.262532 57.330425,61.644439 61.460586,63.8 66.187846,67.299377 67.22403,75.26312 73.048125,76.801562 74.148215,76.7171 75.86905,76.068675 75.37,74.64 Z"
         id="path3" />
      <path
         stroke="#ff8080"
         vector-effect="non-scaling-stroke"
         d="m 40.44,73.17 c -1.671042,-3.091129 -2.103748,-7.406191 -4.96125,-9.49625 -3.18162,3.231278 0.561948,9.953116 1.032578,14.460547 -0.371232,4.204479 7.026373,5.933745 7.300311,1.473283 C 44.691093,75.198387 45.570546,70.789193 46.45,66.38 45.011027,64.300213 44.048563,68.463691 43.102388,69.633463 42.206258,70.575291 41.814406,73.545228 40.44,73.17 Z"
         id="path4" />
      <path
         stroke="#ff8080"
         vector-effect="non-scaling-stroke"
         d="m 44.98,55.31 c 1.190867,1.318626 3.507981,-0.268451 5.190766,-0.282984 C 52.07051,54.634677 53.970255,54.242339 55.87,53.85 c 1.149909,-1.574066 0.791244,-3.890639 1.296224,-5.782134 0.335451,-2.758532 0.979066,-5.517645 1.127274,-8.275825 -1.463995,-0.770675 -3.443189,0.03629 -5.118228,-0.07202 C 50.69018,39.880014 48.20509,40.040007 45.72,40.2 44.499887,41.595593 45.359532,43.834775 45.073791,45.609366 45.042527,48.842911 45.011264,52.076455 44.98,55.31 Z"
         id="path5" />
    </g>
    <path
       fill="#e82929"
       d="M 100.12442,49.944488 C 101.54413,84.093357 61.994553,110.35452 30.79016,95.98287 -1.5008263,84.218106 -10.780468,37.857517 14.522044,14.70824 c 21.45243,-23.1296597 62.969029,-17.5678066 78.302291,9.344558 4.757883,7.750821 7.312815,16.812554 7.300085,25.89169 z m -4.807218,-0.02123 C 95.765844,28.175861 78.166227,7.9916495 56.441072,5.3379799 23.312546,-0.94495965 -6.2922512,36.734066 8.1138847,67.160757 18.815112,96.166951 60.9847,104.50261 82.041288,81.774001 90.479486,73.455864 95.365136,61.734508 95.317202,49.923255 Z"
       id="path6"
       style="stroke-width:1.06492" />
    <path
       fill="#ffffff"
       d="M 95.317202,49.923256 C 96.600497,80.791096 60.850849,104.52908 32.644577,91.538263 3.4561114,80.903859 -4.9319406,38.997602 17.939502,18.07251 37.866035,-3.4937208 76.747756,2.6499674 89.772782,28.336081 c 3.627309,6.584812 5.552442,14.080282 5.54442,21.587175 z m -32.496853,1.581787 c 0.557998,-4.44206 0.736184,-8.97769 1.535642,-13.360257 2.972304,-1.108047 6.351528,-1.107112 9.28184,-2.327349 0.375252,-5.104658 -7.579843,-2.4828 -10.894264,-2.341713 -5.803192,0.607947 -11.644004,1.472038 -17.450901,1.670038 -0.148366,-3.723738 0.299081,-7.521679 0.381908,-11.27421 5.860552,-1.563724 13.417635,-0.358765 19.799097,-1.940076 3.748,-4.573504 -5.558135,-2.888106 -8.312997,-3.332434 -8.08648,-0.393546 -16.387733,0.386687 -24.163554,-2.354289 -5.548231,-0.74997 1.505671,5.578215 4.194321,5.407225 8.062051,0.216315 2.016999,8.716071 2.516257,13.496692 -1.097807,7.510545 -1.212551,15.15482 -1.49768,22.688826 -6.694526,0.90768 -13.594216,0.558413 -20.342581,0.03716 -1.168102,3.247036 6.619151,4.231565 9.641349,4.694455 12.113754,0.731423 23.989949,-2.584586 35.822237,-4.667575 6.412612,-1.831094 14.00037,-2.017499 19.610041,-5.22842 -1.857126,-4.457718 -8.448846,-2.645575 -12.362135,-2.142482 -2.352676,0.0096 -6.059777,2.217962 -7.75858,0.974413 z M 77.071105,76.08112 C 74.398106,70.247247 70.572396,64.241321 64.597039,61.358839 c -3.122445,-1.602466 -6.797117,0.926173 -2.384979,3.21452 5.050002,3.714947 6.156929,12.169266 12.37865,13.802477 1.175196,-0.0897 3.013517,-0.778038 2.480395,-2.294716 z M 39.756343,74.520566 c -1.785129,-3.28155 -2.247376,-7.862424 -5.299967,-10.081235 -3.398838,3.430332 0.600313,10.566248 1.103075,15.351343 -0.396578,4.463483 7.506081,6.299269 7.798722,1.564037 0.939496,-4.680804 1.878992,-9.361618 2.818489,-14.04242 -1.537215,-2.207909 -2.56539,2.212048 -3.576163,3.453878 -0.957311,0.999848 -1.375916,4.152741 -2.844156,3.754397 z"
       id="path7"
       style="stroke-width:1.06492" />
    <path
       fill="#fe0000"
       d="m 63.407899,52.04646 c 5.964283,-0.957046 12.334225,-3.675658 18.269809,-1.311281 3.982121,4.180588 -6.032406,3.796904 -8.52783,5.03816 -13.50419,2.82436 -27.031166,6.113987 -40.842735,6.952503 -5.126889,-0.09618 -11.870262,-0.179867 -15.228033,-4.345782 3.690655,-0.942098 8.002559,0.368237 11.953111,-0.0053 3.513963,-0.649541 11.07757,1.861105 9.336964,-4.228847 0.01322,-10.395734 1.423136,-20.761 3.232599,-30.950762 -3.30654,-1.41999 -12.07062,-3.070372 -10.103188,-7.338682 5.630972,1.780967 11.467301,2.733646 17.384134,2.530592 5.539947,0.136399 11.079618,0.283861 16.618984,0.441893 3.883973,3.947059 -5.287086,3.782956 -7.843959,4.003564 -3.496218,1.362054 -10.522708,-1.626006 -12.022161,1.883825 -0.06783,3.470688 -0.507039,6.987627 -0.342928,10.429428 8.42981,-0.27658 16.848638,-1.920863 25.273327,-2.429742 4.641208,-0.0073 3.442393,4.43567 -0.393449,4.054311 -1.922721,0.502275 -3.978569,0.6404 -5.816553,1.374455 -0.798637,4.382769 -0.978242,8.918048 -1.535642,13.360257 l 0.109498,0.46445 z m -18.801598,3.513901 c 1.27217,1.399859 3.74748,-0.284988 5.545153,-0.300412 2.029444,-0.41651 4.05889,-0.833018 6.088335,-1.249527 1.228417,-1.671035 0.845265,-4.130309 1.384721,-6.138319 0.358353,-2.92847 1.04591,-5.857545 1.204236,-8.785634 -1.563945,-0.818145 -3.678264,0.03854 -5.467662,-0.07644 -2.654755,0.169845 -5.309508,0.339702 -7.964262,0.509547 -1.303413,1.481561 -0.385077,3.858678 -0.690327,5.742596 -0.0334,3.432732 -0.0668,6.865473 -0.100195,10.298205 z"
       id="path8"
       style="stroke-width:1.06492" />
    <path
       fill="#ffffff"
       d="m 44.606301,55.560361 c 0.04986,-5.124001 0.0997,-10.247991 0.149558,-15.371992 1.425513,-1.366685 3.858279,-0.590739 5.73632,-0.994805 2.685445,-0.0897 5.399656,-0.507616 8.067658,-0.39825 0.686739,1.618518 -0.348819,3.639266 -0.384648,5.4211 -0.463526,3.077128 -0.927054,6.154244 -1.39058,9.23136 -1.721285,1.316003 -4.295205,1.096177 -6.378598,1.759922 -1.848544,0.234211 -3.708226,1.067834 -5.548966,0.882064 z"
       id="path9"
       style="stroke-width:1.06492" />
    <path
       fill="#fe0000"
       d="m 60.128302,61.473482 c 4.902221,-2.04542 9.151321,2.853627 11.94286,6.220539 1.764107,2.762384 8.826538,10.501576 1.672609,10.650094 C 68.218954,75.247836 66.563885,67.795245 61.488848,63.798389 61.24163,63.076202 59.169275,62.381045 60.128302,61.473482 Z"
       id="path10"
       style="stroke-width:1.06492" />
    <path
       fill="#fe0000"
       d="m 39.756343,74.520566 c 1.572861,0.250017 1.900337,-2.805538 2.935199,-3.920984 0.981271,-1.200162 1.972125,-5.531284 3.48512,-3.287291 -1.050468,5.233696 -2.100937,10.467392 -3.151405,15.701088 -5.886705,4.309242 -8.539791,-4.36243 -8.83186,-8.903601 -0.190124,-2.599342 -3.34598,-11.026537 1.438079,-8.980406 1.605271,3.015607 2.797704,6.244734 4.124867,9.391194 z"
       id="path11"
       style="stroke-width:1.06492" />
  </g>
</svg>
