<?xml version="1.0" encoding="UTF-8" standalone="no"?>
<!-- Created with Inkscape (http://www.inkscape.org/) -->

<svg
   width="100"
   height="100"
   id="svg2"
   sodipodi:version="0.32"
   inkscape:version="1.3 (0e150ed6c4, 2023-07-21)"
   version="1.0"
   sodipodi:docname="wr.svg"
   inkscape:output_extension="org.inkscape.output.svg.inkscape"
   xmlns:inkscape="http://www.inkscape.org/namespaces/inkscape"
   xmlns:sodipodi="http://sodipodi.sourceforge.net/DTD/sodipodi-0.dtd"
   xmlns:xlink="http://www.w3.org/1999/xlink"
   xmlns="http://www.w3.org/2000/svg"
   xmlns:svg="http://www.w3.org/2000/svg"
   xmlns:rdf="http://www.w3.org/1999/02/22-rdf-syntax-ns#"
   xmlns:cc="http://creativecommons.org/ns#"
   xmlns:dc="http://purl.org/dc/elements/1.1/">
  <defs
     id="defs4">
    <linearGradient
       id="linearGradient3214">
      <stop
         style="stop-color:#c6c600;stop-opacity:1;"
         offset="0"
         id="stop3216" />
      <stop
         style="stop-color:#ffff00;stop-opacity:1;"
         offset="1"
         id="stop3218" />
    </linearGradient>
    <linearGradient
       id="linearGradient3202">
      <stop
         style="stop-color:#ff0000;stop-opacity:1;"
         offset="0"
         id="stop3204" />
      <stop
         style="stop-color:#bd0000;stop-opacity:1;"
         offset="1"
         id="stop3206" />
    </linearGradient>
    <linearGradient
       id="linearGradient3194">
      <stop
         style="stop-color:#dedede;stop-opacity:1;"
         offset="0"
         id="stop3196" />
      <stop
         style="stop-color:#989898;stop-opacity:1;"
         offset="1"
         id="stop3198" />
    </linearGradient>
    <inkscape:perspective
       sodipodi:type="inkscape:persp3d"
       inkscape:vp_x="0 : 556.18109 : 1"
       inkscape:vp_y="0 : 1000 : 0"
       inkscape:vp_z="744.09448 : 556.18109 : 1"
       inkscape:persp3d-origin="372.04724 : 380.78739 : 1"
       id="perspective10" />
    <linearGradient
       inkscape:collect="always"
       xlink:href="#linearGradient3202"
       id="linearGradient3208"
       x1="42.241379"
       y1="32.741379"
       x2="115.51724"
       y2="62.051723"
       gradientUnits="userSpaceOnUse"
       gradientTransform="translate(-32.758621,-3.8793108)" />
  </defs>
  <sodipodi:namedview
     id="base"
     pagecolor="#ffffff"
     bordercolor="#666666"
     borderopacity="1.0"
     gridtolerance="10000"
     guidetolerance="10"
     objecttolerance="10"
     inkscape:pageopacity="0.0"
     inkscape:pageshadow="2"
     inkscape:zoom="3.2809755"
     inkscape:cx="23.925811"
     inkscape:cy="67.51041"
     inkscape:document-units="px"
     inkscape:current-layer="layer1"
     showgrid="false"
     inkscape:window-width="1366"
     inkscape:window-height="715"
     inkscape:window-x="144"
     inkscape:window-y="892"
     inkscape:showpageshadow="2"
     inkscape:pagecheckerboard="0"
     inkscape:deskcolor="#d1d1d1"
     inkscape:window-maximized="1" />
  <metadata
     id="metadata7">
    <rdf:RDF>
      <cc:Work
         rdf:about="">
        <dc:format>image/svg+xml</dc:format>
        <dc:type
           rdf:resource="http://purl.org/dc/dcmitype/StillImage" />
      </cc:Work>
    </rdf:RDF>
  </metadata>
  <g
     inkscape:label="Layer 1"
     inkscape:groupmode="layer"
     id="layer1">
    <g
       stroke-width="2"
       fill="none"
       stroke-linecap="butt"
       id="g5"
       transform="matrix(1.0747748,0,0,1.0745704,-3.4251959,-3.8930628)">
      <path
         stroke="#f49494"
         vector-effect="non-scaling-stroke"
         d="M 92.45,50 C 92.869974,29.514542 76.395133,10.501561 56.058419,8.0018762 25.047115,2.0835172 -2.6656578,37.576141 10.819791,66.237258 20.83711,93.560307 60.311667,101.41228 80.022541,80.002541 87.921457,72.167082 92.494871,61.125883 92.45,50 Z"
         id="path1" />
      <path
         stroke="#ff8080"
         vector-effect="non-scaling-stroke"
         d="m 47.04,81.67 c -0.938394,-1.17562 -2.538822,-5.745275 -1.9725,-1.588125 1.05561,3.905031 1.293074,12.033595 7.25,10.250625 1.756199,-5.187302 0.99001,-10.922362 1.534219,-16.342383 0.283998,-5.374104 0.23883,-10.795599 0.575781,-16.145117 6.631685,-1.646454 13.457085,-2.719659 20.120625,-4.306875 3.348371,-3.606227 -5.265873,-3.073667 -7.569375,-3.6225 -3.615508,0.85918 -3.601237,-1.989181 -2.263002,-4.332209 1.557459,-4.619337 3.337736,-9.180329 4.756752,-13.835916 -1.413929,-4.587463 -7.359355,-4.097687 -11.242547,-4.081838 -3.053472,0.718141 -5.959395,0.583798 -5.382508,-3.118658 -0.06608,-2.189448 3.001476,-1.3534 4.484257,-1.855276 C 60.217801,22.327819 63.103901,21.963909 65.99,21.6 67.940579,18.144599 60.030431,18.868653 57.705352,18.882715 53.159657,20.338536 51.117542,18.571201 50.99,14.105 50.814522,11.078656 46.911312,7.7847263 47.515367,12.393559 47.362731,14.807987 47.572877,17.287019 47.1875,19.66 42.283371,20.936736 37.004318,19.153303 32.272948,19.074849 35.460432,23.914115 43.528102,21.656861 47.81,23.82 c -0.15376,1.696868 0.119683,3.473647 -0.3175,5.1175 -3.608593,0.600941 -7.372746,0.483862 -11.0425,0.8025 0.788098,3.171585 7.693477,1.636382 11,2.36 0.852623,0.917291 0.932618,4.253434 -0.473257,4.854693 C 44.054496,37.339795 41.132248,37.724898 38.21,38.11 35.999477,34.733173 35.847698,28.578127 31.649922,26.674354 c -0.969996,4.04934 1.360361,8.578461 1.917383,12.780958 1.504227,4.072328 1.116618,9.523836 4.712695,12.367188 2.888171,-1.415339 7.353222,-3.870202 10.1,-1.9225 0.175458,2.413803 0.521218,5.629375 -3.10625,5.196875 -6.580317,0.442889 -13.306934,1.956516 -19.811074,0.211582 -3.225487,0.804226 4.060106,3.562264 5.662264,3.452018 5.752721,1.012432 11.632,0.01004 17.37006,0.03952 0.215432,4.46274 -0.328387,9.019464 -0.409146,13.518869 -0.246794,3.194321 -0.06737,6.520725 -0.578354,9.633631 l -0.198125,-0.04188 z"
         id="path2" />
      <path
         stroke="#ff8080"
         vector-effect="non-scaling-stroke"
         d="m 59.74,36.85 c 1.608742,2.043511 -2.62881,1.910471 -4.031115,2.571769 -4.101369,0.6838 -1.291404,4.918382 1.830902,3.852196 2.366187,0.628484 2.853296,-1.874813 3.356147,-3.610715 0.866272,-2.7683 1.896714,-5.495088 2.662191,-8.288875 -1.169424,-1.12364 -3.429952,-0.169689 -5.053973,-0.383606 C 56.902877,31.329642 54.530232,30.513135 53.49,31.73 c 0.429179,1.372265 -0.698079,4.035191 1.115312,4.357961 1.711563,0.254013 3.423125,0.508026 5.134688,0.762039 z"
         id="path3" />
      <path
         stroke="#ff8080"
         vector-effect="non-scaling-stroke"
         d="m 38.33,38.93 c -0.678893,1.24348 0.788185,3.212476 0.985609,4.741944 0.589347,1.341488 0.516378,4.279072 2.66895,3.062498 C 44.043046,46.028651 46.479535,45.897862 48.3,44.83 48.155264,43.237338 48.575773,41.427914 48.117098,39.953231 44.863085,39.570479 41.590667,39.278018 38.33,38.93 Z"
         id="path4" />
      <path
         stroke="#ff8080"
         vector-effect="non-scaling-stroke"
         d="m 63.61,50 c -3.373804,1.687818 -6.570129,-1.376082 -8.84,-2.45 -2.061638,2.733081 -0.390955,7.196425 3.150413,5.262772 C 60.22211,52.215196 62.749386,52.064182 64.905,51.175 64.878937,50.640106 64.23753,49.776592 63.61,50 Z"
         id="path5" />
    </g>
    <path
       fill="#e82929"
       d="M 100.77422,49.856947 C 102.20256,84.422986 62.412261,111.00495 31.017939,96.457744 -1.4695895,84.549259 -10.805713,37.622319 14.650804,14.190245 36.233809,-9.2219713 78.003102,-3.5921735 93.429688,23.64896 c 4.786849,7.845505 7.357332,17.01794 7.344532,26.207987 z m -4.836488,-0.02149 C 96.389109,27.82239 78.682366,7.3916036 56.824979,4.7055161 23.494812,-1.6541772 -6.2901779,36.485144 8.2036429,67.283535 18.970005,96.644075 61.396262,105.08157 82.581012,82.075298 c 8.489556,-8.419755 13.404946,-20.2843 13.35672,-32.239841 z"
       id="path6"
       style="stroke-width:1.07466" />
    <path
       fill="#ffffff"
       d="M 95.937732,49.835456 C 97.228841,81.080384 61.261595,105.10836 32.883643,91.958841 3.5175193,81.194526 -4.9215876,38.776333 18.089064,17.595614 38.136882,-4.2340745 77.255262,1.9846662 90.359565,27.984567 c 3.649391,6.665254 5.586238,14.25229 5.578167,21.850889 z M 47.13221,83.867101 c -1.008563,-1.263287 -2.728662,-6.173697 -2.119994,-1.706547 1.134543,4.196229 1.389764,12.930939 7.792117,11.015013 1.887519,-5.574119 1.064038,-11.736845 1.64894,-17.561038 0.305234,-5.774859 0.256689,-11.600633 0.618835,-17.349068 7.127568,-1.769227 14.463336,-2.922466 21.62514,-4.628035 3.598745,-3.875148 -5.659627,-3.302875 -8.135373,-3.892631 -3.885857,0.923249 -3.870519,-2.137525 -2.432217,-4.655265 1.673917,-4.963806 3.587314,-9.86491 5.112437,-14.867669 -1.519656,-4.929552 -7.909649,-4.403253 -12.083206,-4.386223 -3.281795,0.771694 -6.405008,0.627332 -5.784984,-3.351217 -0.07102,-2.352716 3.225911,-1.454324 4.819566,-1.993625 3.101907,-0.391046 6.203814,-0.782093 9.30572,-1.173139 2.096434,-3.713071 -6.405194,-2.935024 -8.90413,-2.919914 -4.885598,1.564382 -7.080412,-0.334744 -7.217491,-5.133991 -0.181416,-2.9321519 -4.131703,-6.9425592 -3.727108,-2.1243026 -0.166791,2.6894996 0.05731,5.4485956 -0.359723,8.0935416 -5.270834,1.371942 -10.944627,-0.544482 -16.029784,-0.628786 3.425827,5.200132 12.096755,2.774553 16.698831,5.098999 -0.165257,1.823404 0.128632,3.732678 -0.341241,5.499113 -3.878425,0.645754 -7.924041,0.519944 -11.8682,0.862344 0.847028,3.40809 8.268755,1.758407 11.822522,2.535985 0.916378,0.985694 1.002355,4.570611 -0.508644,5.216706 -3.140758,0.413829 -6.281516,0.827645 -9.422275,1.241462 -2.375814,-3.628638 -2.538942,-10.242668 -7.050606,-12.288406 -1.191658,4.096028 1.437094,8.755642 1.893146,13.026926 1.526959,4.56716 1.458457,10.052359 4.72755,13.778926 3.404262,-0.69313 7.233053,-3.530382 11.15885,-2.431216 0.201491,2.151484 1.285416,6.012792 -2.125368,5.985357 -6.187277,0.625637 -12.488896,1.684078 -18.700975,1.096331 -2.484011,-1.188314 -7.344893,-0.73132 -2.655324,1.442719 7.475944,3.414995 15.950256,1.561866 23.806786,1.622225 0.231541,4.795528 -0.352942,9.692044 -0.43974,14.526977 -0.265248,3.432521 -0.07241,7.006973 -0.6216,10.352013 l -0.21294,-0.04502 z"
       id="path7"
       style="stroke-width:1.07466" />
    <path
       fill="#fe0000"
       d="M 47.830813,83.619949 C 48.174741,75.696787 48.518669,67.773615 48.862597,59.850453 44.642314,58.326636 38.43386,60.51372 33.466911,59.627802 30.105806,59.308772 23.736324,58.75006 23.003516,55.476951 c 5.323129,1.260385 10.748624,1.042387 16.157769,0.421521 3.245892,-0.701963 10.625201,0.734877 9.43839,-4.498419 0.674586,-4.269968 -5.270959,-1.970226 -7.585788,-1.228288 -5.089591,4.496421 -6.479175,-3.678824 -7.308973,-7.406982 -1.426071,-5.577181 -2.677241,-11.199596 -3.72611,-16.860009 2.947297,-2.624938 4.967591,4.957913 6.145697,7.559603 -0.178111,3.823998 2.697223,3.817454 5.47863,3.072518 2.058703,-0.376142 4.236185,-0.34657 6.219621,-0.979793 0.291484,-2.127425 1.419252,-6.178228 -2.406152,-5.045779 -2.570001,-0.407665 -11.036257,0.191405 -9.096405,-2.479157 3.753735,-0.33375 7.610535,-0.191887 11.29835,-0.829849 0.345823,-1.934265 0.426527,-4.065938 0.182712,-6.017594 -5.353918,-1.127495 -13.003405,0.175062 -16.540302,-4.580518 5.005445,-0.158022 11.581893,2.602726 16.193687,0.145229 0.0824,-3.202219 0.164798,-6.404439 0.247198,-9.606659 3.42695,-1.0949024 4.099121,6.449665 4.898286,9.472338 4.738066,0.737283 13.252942,-2.570973 15.572402,2.296734 -2.855394,1.07004 -6.137971,0.909054 -9.167715,1.476666 -1.863956,0.547546 -4.434948,-0.166481 -5.703396,1.443639 0.05006,2.664972 0.316701,5.778422 4.054349,4.109757 4.494687,-0.123707 10.067483,-0.909619 13.370145,2.822479 1.218601,2.270272 -0.824399,4.595928 -1.281716,6.866075 -1.462313,4.372405 -3.179994,8.675781 -4.482144,13.09147 2.862963,1.954643 7.752143,0.79399 11.31805,2.112874 4.106957,1.446554 -1.099008,3.731671 -3.225291,3.620002 -5.981339,1.30541 -12.064186,2.333784 -17.982702,3.810652 -0.533796,10.798959 -0.500745,21.702174 -1.49125,32.495008 -1.856645,6.983214 -8.493991,-0.972561 -7.869366,-5.321304 -0.930781,-1.9971 -1.210707,-8.208214 0.423864,-3.028107 0.171402,0.317009 1.574573,2.83377 1.695457,1.208891 z M 60.781849,35.704856 c 1.729035,2.195895 -2.825379,2.052934 -4.332541,2.763547 -4.408047,0.734791 -1.387968,5.285146 1.967808,4.139461 2.543118,0.675345 3.06665,-2.014626 3.607102,-3.879973 0.931047,-2.974733 2.03854,-5.904859 2.861256,-8.906979 -1.256868,-1.207431 -3.686426,-0.182343 -5.431883,-0.412212 -1.72101,0.364142 -4.271069,-0.513252 -5.389084,0.794356 0.461271,1.474594 -0.750278,4.336095 1.198709,4.682934 1.839545,0.272952 3.679088,0.545914 5.518633,0.818866 z m -23.010928,2.235106 c -0.729657,1.336207 0.847122,3.452036 1.059308,5.095549 0.633415,1.441525 0.55499,4.598172 2.86852,3.290872 2.21241,-0.758422 4.831087,-0.898965 6.787677,-2.046456 -0.155559,-1.711424 0.296394,-3.655785 -0.196579,-5.240432 -3.497331,-0.411292 -7.014443,-0.725561 -10.518926,-1.099533 z m 27.170307,11.895494 c -3.62608,1.813682 -7.061409,-1.478694 -9.501009,-2.632698 -2.215797,2.936888 -0.420189,7.733061 3.385984,5.655218 2.473806,-0.642132 5.190058,-0.804413 7.506858,-1.7599 -0.02801,-0.574777 -0.71738,-1.502689 -1.391833,-1.26262 z"
       id="path8"
       style="stroke-width:1.07466" />
    <path
       fill="#ffffff"
       d="m 60.781849,35.704856 c -2.12622,-0.388243 -4.337043,-0.498687 -6.411031,-1.058453 0.06502,-1.55652 -1.122355,-4.432022 0.548527,-5.076724 3.190456,-0.06819 6.387769,-0.317977 9.573836,-0.269934 0.807507,1.53941 -0.85416,3.587569 -1.118881,5.325888 -0.806829,2.451567 -1.613658,4.903146 -2.420487,7.354714 -2.279482,1.740761 -9.856017,0.346688 -5.610324,-3.223711 1.976632,-0.721886 4.346429,-0.706853 6.062669,-1.916797 l -0.03831,-0.718072 z"
       id="path9"
       style="stroke-width:1.07466" />
    <path
       fill="#ffffff"
       d="m 37.770921,37.939962 c 3.530251,0.424316 7.143453,0.606735 10.623271,1.178428 0.219585,1.675954 0.02751,3.449231 0.09224,5.161537 -2.181909,1.196975 -5.01167,1.408655 -7.447874,2.218881 -2.006171,0.480891 -1.604644,-2.855241 -2.416923,-4.136623 -0.112289,-1.362051 -1.695268,-3.395686 -0.850711,-4.422223 z"
       id="path10"
       style="stroke-width:1.07466" />
    <path
       fill="#ffffff"
       d="m 56.343029,47.14903 c 2.015105,3.726869 6.662774,2.677862 9.645605,3.17902 0.863006,1.83038 -2.90392,1.256044 -4.089641,1.895231 -1.955883,0.403995 -3.911766,0.807991 -5.867648,1.211986 -2.257558,-0.432504 -1.911367,-6.63011 0.311684,-6.286237 z"
       id="path11"
       style="stroke-width:1.07466" />
  </g>
</svg>
