<?xml version="1.0" encoding="UTF-8" standalone="no"?>
<!-- Created with Inkscape (http://www.inkscape.org/) -->

<svg
   width="100"
   height="100"
   id="svg2"
   sodipodi:version="0.32"
   inkscape:version="1.3 (0e150ed6c4, 2023-07-21)"
   version="1.0"
   sodipodi:docname="ba.svg"
   inkscape:output_extension="org.inkscape.output.svg.inkscape"
   xmlns:inkscape="http://www.inkscape.org/namespaces/inkscape"
   xmlns:sodipodi="http://sodipodi.sourceforge.net/DTD/sodipodi-0.dtd"
   xmlns:xlink="http://www.w3.org/1999/xlink"
   xmlns="http://www.w3.org/2000/svg"
   xmlns:svg="http://www.w3.org/2000/svg"
   xmlns:rdf="http://www.w3.org/1999/02/22-rdf-syntax-ns#"
   xmlns:cc="http://creativecommons.org/ns#"
   xmlns:dc="http://purl.org/dc/elements/1.1/">
  <defs
     id="defs4">
    <linearGradient
       id="linearGradient3214">
      <stop
         style="stop-color:#c6c600;stop-opacity:1;"
         offset="0"
         id="stop3216" />
      <stop
         style="stop-color:#ffff00;stop-opacity:1;"
         offset="1"
         id="stop3218" />
    </linearGradient>
    <linearGradient
       id="linearGradient3202">
      <stop
         style="stop-color:#ff0000;stop-opacity:1;"
         offset="0"
         id="stop3204" />
      <stop
         style="stop-color:#bd0000;stop-opacity:1;"
         offset="1"
         id="stop3206" />
    </linearGradient>
    <linearGradient
       id="linearGradient3194">
      <stop
         style="stop-color:#dedede;stop-opacity:1;"
         offset="0"
         id="stop3196" />
      <stop
         style="stop-color:#989898;stop-opacity:1;"
         offset="1"
         id="stop3198" />
    </linearGradient>
    <inkscape:perspective
       sodipodi:type="inkscape:persp3d"
       inkscape:vp_x="0 : 556.18109 : 1"
       inkscape:vp_y="0 : 1000 : 0"
       inkscape:vp_z="744.09448 : 556.18109 : 1"
       inkscape:persp3d-origin="372.04724 : 380.78739 : 1"
       id="perspective10" />
    <linearGradient
       inkscape:collect="always"
       xlink:href="#linearGradient3202"
       id="linearGradient3208"
       x1="42.241379"
       y1="32.741379"
       x2="115.51724"
       y2="62.051723"
       gradientUnits="userSpaceOnUse"
       gradientTransform="translate(-32.758621,-3.8793108)" />
  </defs>
  <sodipodi:namedview
     id="base"
     pagecolor="#ffffff"
     bordercolor="#666666"
     borderopacity="1.0"
     gridtolerance="10000"
     guidetolerance="10"
     objecttolerance="10"
     inkscape:pageopacity="0.0"
     inkscape:pageshadow="2"
     inkscape:zoom="1.4205493"
     inkscape:cx="54.908337"
     inkscape:cy="53.148455"
     inkscape:document-units="px"
     inkscape:current-layer="layer1"
     showgrid="false"
     inkscape:window-width="859"
     inkscape:window-height="699"
     inkscape:window-x="599"
     inkscape:window-y="900"
     inkscape:showpageshadow="2"
     inkscape:pagecheckerboard="0"
     inkscape:deskcolor="#d1d1d1"
     inkscape:window-maximized="0" />
  <metadata
     id="metadata7">
    <rdf:RDF>
      <cc:Work
         rdf:about="">
        <dc:format>image/svg+xml</dc:format>
        <dc:type
           rdf:resource="http://purl.org/dc/dcmitype/StillImage" />
      </cc:Work>
    </rdf:RDF>
  </metadata>
  <g
     inkscape:label="Layer 1"
     inkscape:groupmode="layer"
     id="layer1">
    <g
       stroke-width="2"
       fill="none"
       stroke-linecap="butt"
       id="g2"
       transform="matrix(2.1891099,0,0,2.1814382,-4.674419,-4.5013564)">
      <path
         stroke="#655417"
         vector-effect="non-scaling-stroke"
         d="M 42.7,25 C 42.904283,16.051873 35.334513,7.8629409 26.397941,7.3645324 13.379398,5.7292854 2.8332819,21.123958 9.0718607,32.675403 14.017541,44.200317 31.454382,46.164978 38.840599,36.029535 41.325873,32.930338 42.710748,28.972592 42.7,25 Z"
         id="path1" />
      <path
         stroke="#7e7d7b"
         vector-effect="non-scaling-stroke"
         d="m 26.7,23.76 c 3.433656,-0.248155 6.983938,0.64749 9.74,2.75 1.228405,0.50334 1.765724,-1.010975 2.551714,-1.660826 0.882998,-1.094578 2.036473,-2.008508 2.73195,-3.228328 -0.132602,-1.472413 -1.889839,-0.831814 -2.899949,-0.978198 -4.119241,-0.02919 -8.240745,1.38e-4 -12.358559,-0.06593 -1.762547,-0.800186 -0.233782,-4.089202 -2.749687,-4.603594 -1.700511,-0.891333 -2.032046,1.188849 -2.350497,2.345543 -0.393788,0.859691 -0.217039,2.343973 -1.476261,2.387269 -3.009055,0.683145 -6.167513,0.687167 -9.178711,0.01406 -2.1588802,0.387367 -2.5324033,3.401319 -2.1104687,5.244688 1.1053365,2.268041 3.4957577,-0.705527 5.1749997,-0.884376 2.185252,-0.694386 4.531391,-1.580354 6.834828,-1.107569 3.150186,2.700432 -1.559497,4.641432 -3.975296,4.491319 -2.401012,-0.642777 -5.18569,1.027936 -4.430235,3.74711 0.770592,3.30122 3.680701,1.020283 5.550458,0.09158 C 23.431427,29.827652 29.793106,31.286088 35.43,33.1 c 1.209469,-0.03129 1.251129,-1.572288 1.798924,-2.410121 0.345738,-2.081713 -2.975607,-2.350901 -4.517147,-2.844422 C 30.353796,27.192345 27.706518,27.8309 25.526406,26.670188 24.522211,25.68836 25.289288,23.764434 26.7,23.76 Z"
         id="path2" />
    </g>
    <path
       fill="#caa82f"
       fill-opacity="0.996"
       d="M 100.27151,50.034597 C 100.69309,73.142023 82.96081,94.771106 60.270517,99.030113 26.830108,107.40974 -7.2980219,73.873886 0.80007492,40.27185 6.1396965,5.4519189 51.541545,-11.677911 79.013167,9.151634 92.184411,18.285427 100.37768,33.999508 100.27151,50.034597 Z m -11.470939,0 C 89.24266,30.468615 72.628684,12.64059 53.113574,11.563915 24.70087,7.9695072 1.5089541,41.517538 15.184881,66.778017 26.782993,94.24616 68.918969,95.619611 83.09401,70.19763 86.810057,64.174535 88.810859,57.112146 88.800571,50.034597 Z"
       id="path3"
       style="stroke-width:2.18527" />
    <path
       fill="#000000"
       d="M 88.800571,50.034597 C 89.242661,69.60058 72.628684,87.428607 53.113572,88.505281 24.700869,92.099687 1.5089548,58.551658 15.184881,33.291179 26.782993,5.8230371 68.918968,4.4495842 83.094009,29.871565 c 3.716048,6.023095 5.716849,13.085483 5.706562,20.163032 z M 53.774813,47.329615 c 7.730528,-0.610497 15.599049,1.61678 21.811261,6.260481 2.428506,0.35862 3.459757,-2.557479 5.097186,-3.885105 1.932791,-2.387842 4.456725,-4.379538 5.980005,-7.041808 -0.29468,-3.213557 -4.132933,-1.813652 -6.340337,-2.133852 -9.020113,-0.06414 -18.045208,9.06e-4 -27.062214,-0.143851 -3.854123,-1.740084 -0.517784,-8.929537 -6.019368,-10.042456 -3.71767,-1.947736 -4.449618,2.592183 -5.147261,5.122692 -0.860562,1.875188 -0.477519,5.114441 -3.229932,5.201647 -6.587913,1.490265 -13.500635,1.49903 -20.093206,0.03068 -4.71735,0.83592 -5.547084,7.415949 -4.620048,11.440962 2.424774,4.949081 7.652679,-1.541566 11.328643,-1.92921 4.785072,-1.515205 9.920108,-3.447368 14.962188,-2.416093 6.89482,5.903026 -3.429125,10.125352 -8.70236,9.797534 -5.240038,-1.399257 -11.350642,2.225434 -9.698269,8.174088 1.694225,7.208822 8.059163,2.21927 12.150562,0.199783 12.430991,-5.399397 26.35057,-2.218096 38.694079,1.73914 2.610378,0.02036 2.662228,-3.258184 3.82317,-5.004372 1.446193,-4.483064 -5.892805,-5.240674 -9.024961,-6.30883 -4.597803,-0.960893 -9.306015,-1.109124 -13.974811,-1.470021 -4.587048,-0.233002 -4.55981,-7.467513 0.06567,-7.591405 z"
       id="path4"
       style="stroke-width:2.18527" />
    <path
       fill="#fcfaf6"
       d="m 53.774813,47.329615 c -7.204653,1.834242 -1.684817,9.19476 3.40989,7.836214 6.631826,0.484279 13.72142,0.931237 19.400638,4.772498 1.462849,2.027283 -0.896457,4.206866 -1.466654,6.266072 -3.071349,3.41109 -8.582299,-1.446528 -12.740427,-1.419751 -11.426338,-2.904055 -24.333531,-2.44384 -34.304779,4.453678 -6.232629,2.9487 -8.441134,-8.035947 -3.479499,-10.936077 5.469297,-1.550868 12.55917,0.319888 17.347602,-3.975998 3.431323,-8.823214 -7.906842,-7.152067 -12.867708,-5.299034 -4.32566,1.066521 -8.195358,3.344607 -12.222502,5.105758 -4.646492,-0.652683 -3.228098,-7.793435 -1.584368,-10.882053 2.515167,-4.956638 8.581314,-0.604722 12.885563,-1.460115 4.218947,-0.171133 8.954987,-0.04746 12.684609,-2.030784 0.817267,-2.792241 1.634535,-5.584481 2.451802,-8.376722 3.741422,-4.190959 9.353109,2.425948 7.919447,6.793476 0.527225,3.27717 4.370624,2.003648 6.711609,2.273503 8.980047,0.03169 17.960094,0.06338 26.940141,0.09507 3.948843,1.287445 -0.0063,4.510648 -1.499454,6.205707 -2.071495,2.204022 -3.991877,4.566401 -6.157014,6.672293 -3.956316,0.136513 -7.109686,-4.299929 -11.316616,-4.770062 -3.908306,-1.201222 -8.040285,-1.574657 -12.11228,-1.323669 z"
       id="path5"
       style="stroke-width:2.18527" />
  </g>
</svg>
