<?xml version="1.0" encoding="UTF-8" standalone="no"?>
<!-- Created with Inkscape (http://www.inkscape.org/) -->

<svg
   width="100"
   height="100"
   id="svg2"
   sodipodi:version="0.32"
   inkscape:version="1.3 (0e150ed6c4, 2023-07-21)"
   version="1.0"
   sodipodi:docname="bb.svg"
   inkscape:output_extension="org.inkscape.output.svg.inkscape"
   xmlns:inkscape="http://www.inkscape.org/namespaces/inkscape"
   xmlns:sodipodi="http://sodipodi.sourceforge.net/DTD/sodipodi-0.dtd"
   xmlns:xlink="http://www.w3.org/1999/xlink"
   xmlns="http://www.w3.org/2000/svg"
   xmlns:svg="http://www.w3.org/2000/svg"
   xmlns:rdf="http://www.w3.org/1999/02/22-rdf-syntax-ns#"
   xmlns:cc="http://creativecommons.org/ns#"
   xmlns:dc="http://purl.org/dc/elements/1.1/">
  <defs
     id="defs4">
    <linearGradient
       id="linearGradient3214">
      <stop
         style="stop-color:#c6c600;stop-opacity:1;"
         offset="0"
         id="stop3216" />
      <stop
         style="stop-color:#ffff00;stop-opacity:1;"
         offset="1"
         id="stop3218" />
    </linearGradient>
    <linearGradient
       id="linearGradient3202">
      <stop
         style="stop-color:#ff0000;stop-opacity:1;"
         offset="0"
         id="stop3204" />
      <stop
         style="stop-color:#bd0000;stop-opacity:1;"
         offset="1"
         id="stop3206" />
    </linearGradient>
    <linearGradient
       id="linearGradient3194">
      <stop
         style="stop-color:#dedede;stop-opacity:1;"
         offset="0"
         id="stop3196" />
      <stop
         style="stop-color:#989898;stop-opacity:1;"
         offset="1"
         id="stop3198" />
    </linearGradient>
    <inkscape:perspective
       sodipodi:type="inkscape:persp3d"
       inkscape:vp_x="0 : 556.18109 : 1"
       inkscape:vp_y="0 : 1000 : 0"
       inkscape:vp_z="744.09448 : 556.18109 : 1"
       inkscape:persp3d-origin="372.04724 : 380.78739 : 1"
       id="perspective10" />
    <linearGradient
       inkscape:collect="always"
       xlink:href="#linearGradient3202"
       id="linearGradient3208"
       x1="42.241379"
       y1="32.741379"
       x2="115.51724"
       y2="62.051723"
       gradientUnits="userSpaceOnUse"
       gradientTransform="translate(-32.758621,-3.8793108)" />
  </defs>
  <sodipodi:namedview
     id="base"
     pagecolor="#ffffff"
     bordercolor="#666666"
     borderopacity="1.0"
     gridtolerance="10000"
     guidetolerance="10"
     objecttolerance="10"
     inkscape:pageopacity="0.0"
     inkscape:pageshadow="2"
     inkscape:zoom="2.8410986"
     inkscape:cx="23.406439"
     inkscape:cy="55.436303"
     inkscape:document-units="px"
     inkscape:current-layer="layer1"
     showgrid="false"
     inkscape:window-width="1366"
     inkscape:window-height="715"
     inkscape:window-x="144"
     inkscape:window-y="892"
     inkscape:showpageshadow="2"
     inkscape:pagecheckerboard="0"
     inkscape:deskcolor="#d1d1d1"
     inkscape:window-maximized="1" />
  <metadata
     id="metadata7">
    <rdf:RDF>
      <cc:Work
         rdf:about="">
        <dc:format>image/svg+xml</dc:format>
        <dc:type
           rdf:resource="http://purl.org/dc/dcmitype/StillImage" />
      </cc:Work>
    </rdf:RDF>
  </metadata>
  <g
     inkscape:label="Layer 1"
     inkscape:groupmode="layer"
     id="layer1">
    <g
       stroke-width="2"
       fill="none"
       stroke-linecap="butt"
       id="g6"
       transform="matrix(2.167716,0,0,2.1721855,-4.2376057,-4.5813529)">
      <path
         stroke="#655417"
         vector-effect="non-scaling-stroke"
         d="M 42.7,25 C 42.904283,16.051873 35.334513,7.8629409 26.397941,7.3645324 13.379398,5.7292854 2.8332819,21.123958 9.0718607,32.675403 14.017541,44.200317 31.454382,46.164978 38.840599,36.029535 41.325873,32.930338 42.710748,28.972592 42.7,25 Z"
         id="path1" />
      <path
         stroke="#7e7d7b"
         vector-effect="non-scaling-stroke"
         d="m 21.45,27.49 c -2.995559,2.617934 -7.023848,3.959659 -10.99,3.71 -2.1579726,2.32018 2.748417,2.948391 4.29995,1.655389 3.004568,-1.239519 5.704229,-3.104443 8.26505,-5.077889 3.024607,0.371993 -1.328089,3.171142 -2.318916,3.992695 -2.32624,1.631376 -5.044296,2.670383 -7.846084,3.109805 -0.278508,2.0777 3.837451,2.076287 5.34,0.9825 2.50099,0.646956 5.71444,1.229933 7.67875,-0.94625 2.024063,-1.324276 0.905005,-6.338753 4.02125,-5.04625 2.158853,2.183591 4.744509,4.693678 8.014331,4.692527 1.802205,0.120714 4.287072,-3.588494 2.537905,-4.334412 C 37.750921,30.400863 35.011486,29.956923 32.51,28.92 c -2.670646,-2.036379 1.882621,-2.953954 1.71,-5.16 1.355894,-1.735342 4.279092,-5.412529 1.31,-6.81 -1.77,0.23 -3.54,0.46 -5.31,0.69 -1.62976,-0.639764 0.63309,-2.971663 -1.012874,-3.90585 -2.51591,-0.606686 -4.981378,1.668988 -7.672126,1.51835 -2.657305,0.844488 -6.061824,-1.440575 -8.002395,0.663434 0.110107,3.371063 4.346555,1.681486 6.430715,1.798207 C 20.879633,17.649372 24.810799,17.007902 23,18.61 20.08334,19.200923 17.078978,19.274791 14.175359,19.892349 12.097817,20.463244 11.616527,24.308029 13.504375,25.2 15.93431,25.045655 18.340143,24.490587 20.76,24.17 22.543224,25.573407 18.707616,26.061659 17.529531,26.311719 15.514543,26.624368 13.442785,26.515389 11.46,26.05 8.0765315,26.446578 10.958666,29.952879 13.07624,29.176897 15.886228,29.025754 18.517414,27.912221 21.11,26.91 c 0.341157,-0.164334 0.650046,0.362594 0.34,0.58 z"
         id="path2" />
      <path
         stroke="#7e7d7b"
         vector-effect="non-scaling-stroke"
         d="m 31.7015,20.4871 c -0.620011,-0.864698 -4.420596,-0.569269 -3.650699,0.644984 1.047341,0.204721 2.954524,0.378841 3.650699,-0.644984 z"
         id="path3" />
      <path
         stroke="#7e7d7b"
         vector-effect="non-scaling-stroke"
         d="m 22.4205,21.4045 c -0.542045,-0.991291 -1.892199,-0.277079 -2.834356,-0.363902 -1.632003,-0.37388 -1.911268,1.751583 -0.115142,1.253267 0.927228,-0.16334 1.980241,0.03443 2.815593,-0.399862 0.121153,-0.132305 0.154424,-0.317934 0.133905,-0.489503 z"
         id="path4" />
      <path
         stroke="#7e7d7b"
         vector-effect="non-scaling-stroke"
         d="m 30.24,23.41 c -1.273862,-0.219984 -4.240492,1.349732 -1.76,2.05 0.652314,-0.154757 3.032059,-1.42296 1.76,-2.05 z"
         id="path5" />
      <path
         stroke="#7e7d7b"
         vector-effect="non-scaling-stroke"
         d="m 21.9811,33.7935 c 1.71953,1.102179 5.326844,-4.318293 1.905823,-2.988839 -0.883187,0.649702 -2.328221,1.726808 -1.905823,2.988839 z"
         id="path6" />
    </g>
    <path
       fill="#caa82e"
       fill-opacity="0.996"
       d="M 99.682694,49.723285 C 101.09058,83.871021 61.870142,110.13132 30.925438,95.760141 -1.0968152,83.995769 -10.299232,37.636717 14.792707,14.488198 36.066608,-8.6406984 77.237698,-3.0790281 92.443349,23.83245 c 4.718294,7.750564 7.251966,16.811999 7.239345,25.890835 z m -11.358831,0 C 88.766691,30.286293 72.35758,12.498414 52.98563,11.415777 24.765128,7.8637169 1.9041447,41.303803 15.427611,66.395683 c 10.72083,25.034252 48.518947,29.30186 64.530167,7.285798 5.387368,-6.732031 8.389384,-15.32899 8.366085,-23.958196 z"
       id="path7"
       style="stroke-width:2.16994" />
    <path
       fill="#000000"
       d="M 88.323863,49.723285 C 89.504334,76.939551 57.297241,97.218335 33.338875,84.343879 8.3561363,73.600945 4.0973098,35.724892 26.068071,19.680658 45.719698,2.4252725 79.410434,13.221973 86.447034,37.849009 c 1.24202,3.826828 1.877941,7.850149 1.876829,11.874276 z M 42.2599,55.132027 c -6.49352,5.686637 -15.225707,8.601114 -23.823198,8.058808 -4.677872,5.039861 5.957788,6.404451 9.32107,3.595811 6.51305,-2.692465 12.365148,-6.743425 17.916281,-11.030116 6.556489,0.808038 -2.87892,6.888309 -5.026751,8.672875 -5.042627,3.54365 -10.934602,5.800567 -17.008081,6.755073 -1.042286,4.056226 7.735994,4.757774 10.621807,2.432847 5.120831,-0.0375 11.207013,2.734584 15.968785,-0.931154 5.508598,-2.725218 3.48487,-11.215033 8.559862,-13.279338 5.406608,3.581194 9.703917,9.586211 16.518816,10.924749 5.335848,1.559458 9.494463,-3.932759 9.664309,-8.734442 -3.125906,-1.118097 -7.164615,0.01803 -10.595373,-1.001408 -4.027187,-0.737467 -13.231343,-2.43314 -8.402715,-8.005162 4.213807,-2.871036 5.120084,-8.29084 8.448673,-12.082783 2.428839,-3.710426 0.840603,-9.767774 -4.152643,-7.943686 -2.999992,0.390633 -5.999983,0.781266 -8.999974,1.171898 -3.532857,-1.389686 1.37236,-6.455003 -2.195622,-8.48423 -5.453778,-1.317834 -10.798213,3.625352 -16.63099,3.298137 -5.760282,1.834385 -13.140313,-3.129196 -17.346919,1.441103 0.528409,7.679213 10.067105,3.379843 14.896383,3.840704 2.259721,-0.939814 10.135689,-0.277389 4.991251,2.126703 -6.117482,1.20411 -12.412697,1.358752 -18.494326,2.670103 -4.503521,1.24009 -5.546821,9.591677 -1.454503,11.529203 5.267409,-0.335266 10.482572,-1.540976 15.728135,-2.237351 3.865522,3.04846 -4.448987,4.109033 -7.00274,4.652211 -4.367922,0.679131 -8.858905,0.442408 -13.157019,-0.568502 -7.3344,0.86144 -1.08675,8.477777 3.503549,6.7922 6.091256,-0.328311 11.794919,-2.74711 17.41491,-4.924121 0.739532,-0.356963 1.409115,0.787621 0.737023,1.259868 z"
       id="path8"
       style="stroke-width:2.16994" />
    <path
       fill="#fbf9f5"
       d="m 41.522877,53.872159 c -6.709864,2.431198 -13.809038,6.017508 -21.108136,4.497097 -5.251997,-0.987494 -2.825191,-8.59013 2.19238,-5.954264 6.296155,1.153443 12.899466,0.455026 18.829047,-1.953164 2.24555,-3.603352 -3.10389,-2.173135 -5.118879,-1.845411 -3.762356,0.477249 -7.497446,1.419449 -11.281247,1.541305 -4.092318,-1.937526 -3.049018,-10.289113 1.454503,-11.529203 6.45781,-1.412431 13.184605,-1.439918 19.636019,-2.948414 2.387869,-4.11394 -5.917213,-1.26972 -8.044936,-1.716026 -4.338201,-0.110568 -12.847394,3.061744 -12.984391,-3.97307 4.184212,-4.740203 11.599453,0.490515 17.346919,-1.441103 5.832777,0.327215 11.177212,-4.615971 16.63099,-3.298137 3.589416,2.013459 -1.362727,7.106372 2.195622,8.48423 3.836858,-0.499603 7.673715,-0.999205 11.510572,-1.498808 6.436148,3.035567 0.09947,11.0231 -2.839708,14.792584 0.211613,4.72082 -9.932982,7.513549 -3.174921,11.422958 5.627436,2.362109 11.81763,2.868224 17.825546,2.713342 0.985903,3.976634 -2.940926,9.656546 -7.503893,9.364752 -6.719035,-0.612495 -12.011186,-5.610211 -16.511265,-10.228999 -6.755134,-2.807556 -4.329334,8.084818 -8.716928,10.961391 -4.258066,4.727074 -11.223912,3.460739 -16.645347,2.05543 -3.257101,2.375909 -12.179329,2.378978 -11.575603,-2.134171 9.47403,-1.44237 18.500436,-6.288028 24.610349,-13.720068 -2.191736,-4.714941 -7.102272,2.75831 -10.317959,3.853558 -5.400038,3.213205 -11.144793,7.189212 -17.686852,6.859082 -4.335513,-0.373343 -3.967117,-6.593547 0.707151,-4.946315 7.775184,-0.04312 15.441696,-2.998543 21.30799,-8.098708 0.672092,-0.472247 0.0026,-1.616831 -0.737023,-1.259868 z M 64.482239,39.920428 c -1.404573,-2.748678 -12.432474,0.368261 -6.304754,1.738533 1.953449,-0.09482 5.173153,0.2217 6.304754,-1.738533 z m -20.118571,1.992764 c -1.174999,-2.153268 -4.10175,-0.601867 -6.144078,-0.790463 -3.537719,-0.812137 -4.143086,3.804763 -0.249595,2.722328 2.009966,-0.354804 4.2926,0.07479 6.103405,-0.868574 0.262625,-0.287391 0.334748,-0.690612 0.290268,-1.063291 z m 16.950455,4.356318 c -2.761371,-0.477847 -9.192182,2.931868 -3.81518,4.45298 1.414031,-0.33616 6.572643,-3.090933 3.81518,-4.45298 z m -17.90295,22.554888 c 3.727454,2.394137 11.547085,-9.380133 4.131284,-6.492313 -1.839654,1.39771 -5.079165,3.754949 -4.131284,6.492313 z"
       id="path9"
       style="stroke-width:2.16994" />
    <ellipse
       fill="#000000"
       cx="56.235661"
       cy="45.717518"
       transform="matrix(0.99570716,-0.09255942,0.09218214,0.99574216,0,0)"
       rx="4.2921534"
       ry="1.3250099"
       id="ellipse9"
       style="stroke-width:2.16994" />
    <rect
       fill="#000000"
       x="31.37221"
       y="44.061184"
       transform="matrix(0.99676565,-0.08036323,0.08003496,0.99679206,0,0)"
       width="9.4947224"
       height="2.6934745"
       rx="1.2789693"
       id="rect9"
       style="stroke-width:2.16995" />
    <path
       fill="#000000"
       d="m 61.314123,46.26951 c 3.560759,3.075173 -9.469645,7.151769 -4.899038,1.107814 1.5787,-0.571036 3.227803,-0.948553 4.899038,-1.107814 z"
       id="path10"
       style="stroke-width:2.16994" />
    <ellipse
       fill="#000000"
       cx="11.787324"
       cy="-79.588448"
       transform="matrix(-0.71619249,0.6979028,-0.69642671,-0.71762793,0,0)"
       rx="4.990746"
       ry="2.0398135"
       id="ellipse10"
       style="stroke-width:2.16996" />
  </g>
</svg>
