<?xml version="1.0" encoding="UTF-8" standalone="no"?>
<!-- Created with Inkscape (http://www.inkscape.org/) -->

<svg
   width="100"
   height="100"
   id="svg2"
   sodipodi:version="0.32"
   inkscape:version="1.3 (0e150ed6c4, 2023-07-21)"
   version="1.0"
   sodipodi:docname="bc.svg"
   inkscape:output_extension="org.inkscape.output.svg.inkscape"
   xmlns:inkscape="http://www.inkscape.org/namespaces/inkscape"
   xmlns:sodipodi="http://sodipodi.sourceforge.net/DTD/sodipodi-0.dtd"
   xmlns:xlink="http://www.w3.org/1999/xlink"
   xmlns="http://www.w3.org/2000/svg"
   xmlns:svg="http://www.w3.org/2000/svg"
   xmlns:rdf="http://www.w3.org/1999/02/22-rdf-syntax-ns#"
   xmlns:cc="http://creativecommons.org/ns#"
   xmlns:dc="http://purl.org/dc/elements/1.1/">
  <defs
     id="defs4">
    <linearGradient
       id="linearGradient3214">
      <stop
         style="stop-color:#c6c600;stop-opacity:1;"
         offset="0"
         id="stop3216" />
      <stop
         style="stop-color:#ffff00;stop-opacity:1;"
         offset="1"
         id="stop3218" />
    </linearGradient>
    <linearGradient
       id="linearGradient3202">
      <stop
         style="stop-color:#ff0000;stop-opacity:1;"
         offset="0"
         id="stop3204" />
      <stop
         style="stop-color:#bd0000;stop-opacity:1;"
         offset="1"
         id="stop3206" />
    </linearGradient>
    <linearGradient
       id="linearGradient3194">
      <stop
         style="stop-color:#dedede;stop-opacity:1;"
         offset="0"
         id="stop3196" />
      <stop
         style="stop-color:#989898;stop-opacity:1;"
         offset="1"
         id="stop3198" />
    </linearGradient>
    <inkscape:perspective
       sodipodi:type="inkscape:persp3d"
       inkscape:vp_x="0 : 556.18109 : 1"
       inkscape:vp_y="0 : 1000 : 0"
       inkscape:vp_z="744.09448 : 556.18109 : 1"
       inkscape:persp3d-origin="372.04724 : 380.78739 : 1"
       id="perspective10" />
    <linearGradient
       inkscape:collect="always"
       xlink:href="#linearGradient3202"
       id="linearGradient3208"
       x1="42.241379"
       y1="32.741379"
       x2="115.51724"
       y2="62.051723"
       gradientUnits="userSpaceOnUse"
       gradientTransform="translate(-32.758621,-3.8793108)" />
  </defs>
  <sodipodi:namedview
     id="base"
     pagecolor="#ffffff"
     bordercolor="#666666"
     borderopacity="1.0"
     gridtolerance="10000"
     guidetolerance="10"
     objecttolerance="10"
     inkscape:pageopacity="0.0"
     inkscape:pageshadow="2"
     inkscape:zoom="2.8410986"
     inkscape:cx="17.422838"
     inkscape:cy="93.09779"
     inkscape:document-units="px"
     inkscape:current-layer="layer1"
     showgrid="false"
     inkscape:window-width="1366"
     inkscape:window-height="715"
     inkscape:window-x="144"
     inkscape:window-y="892"
     inkscape:showpageshadow="2"
     inkscape:pagecheckerboard="0"
     inkscape:deskcolor="#d1d1d1"
     inkscape:window-maximized="1" />
  <metadata
     id="metadata7">
    <rdf:RDF>
      <cc:Work
         rdf:about="">
        <dc:format>image/svg+xml</dc:format>
        <dc:type
           rdf:resource="http://purl.org/dc/dcmitype/StillImage" />
      </cc:Work>
    </rdf:RDF>
  </metadata>
  <g
     inkscape:label="Layer 1"
     inkscape:groupmode="layer"
     id="layer1">
    <g
       stroke-width="2"
       fill="none"
       stroke-linecap="butt"
       id="g4"
       transform="matrix(2.1830806,0,0,2.1798468,-4.7015339,-4.762302)">
      <path
         stroke="#655417"
         vector-effect="non-scaling-stroke"
         d="M 42.7,25 C 42.904283,16.051873 35.334513,7.8629409 26.397941,7.3645324 13.379398,5.7292854 2.8332819,21.123958 9.0718607,32.675403 14.017541,44.200317 31.454382,46.164978 38.840599,36.029535 41.325873,32.930338 42.710748,28.972592 42.7,25 Z"
         id="path1" />
      <path
         stroke="#7e7d7b"
         vector-effect="non-scaling-stroke"
         d="m 33.3,24.13 c 0.119857,1.485526 -1.630809,0.971031 -2.555027,1.129227 -1.9846,0.105261 -3.977225,0.136473 -5.956848,0.287648 -0.992398,1.523594 -0.881415,3.881292 -0.146719,5.576719 1.715842,3.040411 5.521222,3.363273 8.564261,4.170036 1.992553,0.439393 4.538275,1.966655 5.858083,-0.45863 1.075424,-1.288017 1.601771,-4.835303 -1.052705,-3.380518 -3.122231,0.457656 -6.396921,0.193601 -9.36667,-0.871357 -1.741524,-0.897779 -0.701181,-3.034407 1.012348,-2.51587 C 31.111148,28.001503 32.565574,27.935752 34.02,27.87 36.267492,26.647087 37.601446,23.773377 37.855,21.315 36.839511,21.044737 35.513396,20.581555 36.474662,19.352486 37.102501,18.281438 38.086973,15.882776 35.85,16.23 c -1.86289,1.224568 -3.528212,-0.497645 -3.818408,-2.267182 -1.548267,0.640412 -2.986783,1.833006 -4.748272,2.079018 -1.15685,0.825795 -4.33529,-0.765046 -4.092617,1.027305 0.368288,2.07499 2.903292,3.018251 4.627578,1.925703 C 29.119348,17.445928 33.184686,17.864285 31.7,20.41 c -1.05844,0.919085 -2.59136,0.434212 -3.894323,0.59744 -1.480791,0.118825 -3.038664,-0.143351 -4.457864,0.293341 -1.453129,2.372488 1.891226,3.653558 3.796562,2.759844 1.79818,0.241111 4.928654,-1.124761 6.155625,0.06937 z"
         id="path2" />
      <path
         stroke="#7e7d7b"
         vector-effect="non-scaling-stroke"
         d="m 16.4,23.41 c -2.768983,-1.75619 0.311467,-3.911333 2.387891,-3.248086 1.112212,-0.160978 4.511195,-0.286611 3.294179,-2.023809 -0.59541,-1.742552 -2.423181,-0.772783 -3.760195,-0.71498 -2.476361,0.25079 -4.973334,-0.114259 -7.350625,-0.803125 -0.858258,0.386091 -1.022282,1.564 -1.5570976,2.307748 -0.7175549,1.317856 1.0672426,1.453591 1.9157546,1.733238 1.998372,0.217338 0.198998,2.19407 -0.808227,2.65003 -2.0853007,0.314558 -3.7785261,2.765689 -1.33418,4.043984 0.926721,0.03794 2.843249,-1.326822 2.635195,0.467695 -0.02728,1.831066 -0.278669,5.520948 1.637305,5.877305 0.467948,-0.98888 1.424202,-1.438124 2.485855,-1.4474 1.680532,-0.308101 3.428881,-0.362958 5.064145,-0.8401 1.538326,-2.400854 1.561059,-5.642878 0.39,-8.2125 -1.330466,-0.914837 -3.351139,1.267997 -5,0.21 z"
         id="path3" />
      <path
         stroke="#7e7d7b"
         vector-effect="non-scaling-stroke"
         d="m 19.2411,27.2383 c -0.482703,-1.056654 -1.892174,-0.405366 -2.842201,-0.540845 -1.224774,-0.100514 -1.203344,2.499288 -0.07328,2.543024 0.916778,-0.120384 1.947642,0.151692 2.782528,-0.25937 0.325568,-0.501565 0.08501,-1.175297 0.132954,-1.742809 z"
         id="path4" />
    </g>
    <path
       fill="#caa82e"
       fill-opacity="0.996"
       d="M 99.955348,49.733869 C 101.37322,84.002044 61.874783,110.35496 30.710745,95.933099 -1.5384815,84.127233 -10.806124,37.604671 14.463665,14.374508 c 21.42469,-23.210472 62.887598,-17.6291863 78.201026,9.377208 4.751738,7.777901 7.303368,16.871295 7.290657,25.982153 z m -11.439341,0 C 88.961973,30.228322 72.436555,12.377705 52.927298,11.291251 24.506769,7.7266626 1.483749,41.284691 15.103069,66.465072 c 10.79624,25.132673 48.858165,29.487182 64.987554,7.311494 5.425554,-6.755774 8.448848,-15.383055 8.425384,-24.042697 z"
       id="path5"
       style="stroke-width:2.18146" />
    <path
       fill="#000000"
       d="M 88.516007,49.733869 C 89.704845,77.046127 57.26947,97.396436 33.141288,84.476571 7.9814722,73.695746 3.692459,35.686103 25.818947,19.585282 45.609866,2.2690358 79.539399,13.103817 86.625873,37.817712 c 1.250825,3.840326 1.891253,7.877836 1.890134,11.916157 z M 67.995049,47.837402 c 0.261657,3.238219 -3.560188,2.116699 -5.577829,2.461543 -4.332543,0.229452 -8.682603,0.297489 -13.00428,0.627028 -2.166484,3.321201 -1.9242,8.460622 -0.320299,12.156393 3.745821,6.62763 12.053272,7.33142 18.696471,9.09004 4.349904,0.95781 9.907421,4.287006 12.788668,-0.999743 2.347737,-2.80768 3.496795,-10.54022 -2.29814,-7.369012 -6.816082,0.99762 -13.964993,0.422021 -20.448195,-1.899425 -3.801887,-1.95702 -1.530735,-6.614543 2.210037,-5.484211 3.175127,-0.143329 6.350256,-0.286656 9.525385,-0.429985 4.906456,-2.665764 7.818585,-8.930012 8.372114,-14.288896 -2.216894,-0.589132 -5.11191,-1.598798 -3.013388,-4.27798 1.370622,-2.334721 3.519804,-7.563437 -1.363688,-6.806541 -4.066839,2.66937 -7.702372,-1.084791 -8.335892,-4.94211 -3.379992,1.396 -6.520389,3.995672 -10.365861,4.53194 -2.525497,1.800107 -9.464287,-1.667683 -8.934512,2.239368 0.804002,4.52316 6.33812,6.579325 10.102375,4.197738 2.840334,-3.3764 11.715294,-2.464446 8.474105,3.084824 -2.31066,2.003464 -5.657147,0.946514 -8.501621,1.302327 -3.232685,0.25902 -6.633648,-0.312483 -9.731876,0.639438 -3.172298,5.171661 4.128699,7.964197 8.288201,6.016038 3.925572,0.525585 10.759649,-2.451807 13.438225,0.151237 z M 31.100987,46.267913 c -6.044913,-3.828225 0.679958,-8.526107 5.212959,-7.080331 2.428048,-0.350907 9.848302,-0.624767 7.191458,-4.411593 -1.299828,-3.798496 -5.289999,-1.684548 -8.208808,-1.558547 -5.406096,0.546683 -10.85719,-0.249067 -16.047007,-1.750689 -1.873646,0.841618 -2.231724,3.40928 -3.39927,5.030537 -1.566481,2.872724 2.329877,3.168606 4.182247,3.778193 4.362607,0.473763 0.434429,4.782736 -1.764425,5.77666 -4.55238,0.685688 -8.248826,6.028778 -2.912622,8.815266 2.023107,0.0827 6.207042,-2.892269 5.752843,1.019503 -0.05955,3.991443 -0.608357,12.03482 3.574368,12.811624 1.021569,-2.155606 3.109148,-3.134889 5.426823,-3.15511 3.668736,-0.671612 7.485523,-0.791193 11.055436,-1.831289 3.35829,-5.233495 3.407917,-12.30061 0.851402,-17.901993 -2.904515,-1.994204 -7.315807,2.76404 -10.915404,0.457769 z"
       id="path6"
       style="stroke-width:2.18146" />
    <path
       fill="#fbf9f5"
       d="m 66.881679,46.791075 c -6.362148,0.119238 -12.775984,1.491951 -19.09104,1.009542 -3.819285,-2.025193 -2.539744,-7.974522 2.0378,-6.645894 4.134426,-0.08307 8.268852,-0.166149 12.403278,-0.249234 7.424338,-2.154942 -0.793535,-9.750612 -4.891849,-4.947869 -3.352641,2.544098 -9.178951,2.296077 -10.867094,-2.077198 -3.139654,-5.410693 4.538786,-2.214726 7.260278,-3.457611 3.841178,-0.625269 7.478299,-2.282403 10.572591,-4.62366 2.378082,0.880444 2.928932,7.695563 7.69263,5.390354 4.947581,-2.795164 5.391416,3.004761 3.100958,5.850704 -1.646683,2.016758 -0.733138,4.344984 1.977434,4.170459 2.410605,3.802556 -2.593403,9.807632 -5.069352,13.259856 -2.407957,2.465447 -6.119912,1.363897 -9.232576,1.82611 -2.098086,0.24571 -4.356819,-0.139031 -6.333642,0.598031 -2.581744,5.781757 5.938407,6.398468 9.78743,6.99022 5.19428,0.727832 10.509847,0.443864 15.604527,-0.773568 1.996165,3.680588 -0.967963,9.178308 -4.669064,11.102232 -4.457783,0.04863 -8.700041,-2.355821 -13.193836,-2.931901 -6.118344,-1.40733 -13.940611,-3.398367 -15.676387,-10.373505 -0.229036,-3.010991 -1.670812,-9.638282 2.43079,-10.099559 5.417083,-0.287457 10.856116,-0.370378 16.259455,-0.785885 1.20694,-0.338182 1.650029,-3.470151 -0.102322,-3.231624 z"
       id="path7"
       style="stroke-width:2.18146" />
    <path
       fill="#fbf9f5"
       d="m 31.100987,46.267913 c 4.287398,2.5189 11.388032,-4.91804 12.044379,2.707522 1.058477,4.847814 1.325634,12.248023 -3.17764,15.142371 -4.421076,0.760492 -8.959302,1.048089 -13.30385,2.117504 -1.614722,3.149416 -4.630997,3.259048 -4.834158,-0.995918 -2.213553,-3.340356 1.2841,-10.153305 -2.331064,-11.394229 -2.472249,1.042481 -5.857711,1.691903 -6.659136,-1.844253 -1.470614,-5.527196 6.524556,-4.61248 8.517767,-8.656035 2.634642,-2.56363 -1.632784,-3.164656 -3.441901,-3.684047 -3.210115,-0.2058 -2.362893,-3.520996 -0.894712,-5.360944 0.759463,-3.504675 3.93215,-2.792183 6.606248,-1.753 5.756996,1.254434 11.743378,0.990062 17.482127,-0.201374 1.584587,0.708729 4.789891,4.3995 1.842829,5.387713 -4.6357,3.195651 -15.027537,-1.685401 -13.843154,6.754104 z m 6.202351,8.345107 c -1.053779,-2.303344 -4.130768,-0.883636 -6.204754,-1.178959 -2.67378,-0.219105 -2.626997,5.448064 -0.159976,5.543402 2.0014,-0.262418 4.251859,0.330666 6.074482,-0.565386 0.726283,-1.085675 0.177048,-2.566661 0.290248,-3.799057 z"
       id="path8"
       style="stroke-width:2.18146" />
    <rect
       fill="#000000"
       x="27.64061"
       y="54.280354"
       transform="matrix(0.99961127,-0.02788031,0.02796301,0.99960896,0,0)"
       width="8.1210508"
       height="5.5368166"
       rx="1.3535084"
       id="rect8"
       style="stroke-width:2.18146" />
  </g>
</svg>
