<?xml version="1.0" encoding="UTF-8" standalone="no"?>
<!-- Created with Inkscape (http://www.inkscape.org/) -->

<svg
   width="100"
   height="100"
   id="svg2"
   sodipodi:version="0.32"
   inkscape:version="1.3 (0e150ed6c4, 2023-07-21)"
   version="1.0"
   sodipodi:docname="bk.svg"
   inkscape:output_extension="org.inkscape.output.svg.inkscape"
   xmlns:inkscape="http://www.inkscape.org/namespaces/inkscape"
   xmlns:sodipodi="http://sodipodi.sourceforge.net/DTD/sodipodi-0.dtd"
   xmlns:xlink="http://www.w3.org/1999/xlink"
   xmlns="http://www.w3.org/2000/svg"
   xmlns:svg="http://www.w3.org/2000/svg"
   xmlns:rdf="http://www.w3.org/1999/02/22-rdf-syntax-ns#"
   xmlns:cc="http://creativecommons.org/ns#"
   xmlns:dc="http://purl.org/dc/elements/1.1/">
  <defs
     id="defs4">
    <linearGradient
       id="linearGradient3214">
      <stop
         style="stop-color:#c6c600;stop-opacity:1;"
         offset="0"
         id="stop3216" />
      <stop
         style="stop-color:#ffff00;stop-opacity:1;"
         offset="1"
         id="stop3218" />
    </linearGradient>
    <linearGradient
       id="linearGradient3202">
      <stop
         style="stop-color:#ff0000;stop-opacity:1;"
         offset="0"
         id="stop3204" />
      <stop
         style="stop-color:#bd0000;stop-opacity:1;"
         offset="1"
         id="stop3206" />
    </linearGradient>
    <linearGradient
       id="linearGradient3194">
      <stop
         style="stop-color:#dedede;stop-opacity:1;"
         offset="0"
         id="stop3196" />
      <stop
         style="stop-color:#989898;stop-opacity:1;"
         offset="1"
         id="stop3198" />
    </linearGradient>
    <inkscape:perspective
       sodipodi:type="inkscape:persp3d"
       inkscape:vp_x="0 : 556.18109 : 1"
       inkscape:vp_y="0 : 1000 : 0"
       inkscape:vp_z="744.09448 : 556.18109 : 1"
       inkscape:persp3d-origin="372.04724 : 380.78739 : 1"
       id="perspective10" />
    <linearGradient
       inkscape:collect="always"
       xlink:href="#linearGradient3202"
       id="linearGradient3208"
       x1="42.241379"
       y1="32.741379"
       x2="115.51724"
       y2="62.051723"
       gradientUnits="userSpaceOnUse"
       gradientTransform="translate(-32.758621,-3.8793108)" />
  </defs>
  <sodipodi:namedview
     id="base"
     pagecolor="#ffffff"
     bordercolor="#666666"
     borderopacity="1.0"
     gridtolerance="10000"
     guidetolerance="10"
     objecttolerance="10"
     inkscape:pageopacity="0.0"
     inkscape:pageshadow="2"
     inkscape:zoom="2.7559968"
     inkscape:cx="18.686524"
     inkscape:cy="71.299066"
     inkscape:document-units="px"
     inkscape:current-layer="layer1"
     showgrid="false"
     inkscape:window-width="1366"
     inkscape:window-height="715"
     inkscape:window-x="144"
     inkscape:window-y="892"
     inkscape:showpageshadow="2"
     inkscape:pagecheckerboard="0"
     inkscape:deskcolor="#d1d1d1"
     inkscape:window-maximized="1" />
  <metadata
     id="metadata7">
    <rdf:RDF>
      <cc:Work
         rdf:about="">
        <dc:format>image/svg+xml</dc:format>
        <dc:type
           rdf:resource="http://purl.org/dc/dcmitype/StillImage" />
      </cc:Work>
    </rdf:RDF>
  </metadata>
  <g
     inkscape:label="Layer 1"
     inkscape:groupmode="layer"
     id="layer1">
    <g
       stroke-width="2"
       fill="none"
       stroke-linecap="butt"
       id="g5"
       transform="matrix(2.1800148,0,0,2.1688916,-4.6325615,-4.4474369)">
      <path
         stroke="#655417"
         vector-effect="non-scaling-stroke"
         d="M 42.69,25 C 42.894283,16.051873 35.324513,7.8629409 26.387941,7.3645324 13.369398,5.7292854 2.8232819,21.123958 9.0618607,32.675403 14.007541,44.200317 31.444382,46.164978 38.830599,36.029535 41.315873,32.930338 42.700748,28.972592 42.69,25 Z"
         id="path1" />
      <path
         stroke="#7f7e7c"
         vector-effect="non-scaling-stroke"
         d="m 34.96,21.54 c 1.058208,-0.759298 2.482618,-1.919624 1.37125,-3.33125 -2.232236,-2.468871 -2.576498,1.598432 -3.5775,2.89375 -0.850837,1.53416 -2.69497,0.985305 -4.125172,1.199664 C 26.409052,22.418109 24.189526,22.534055 21.97,22.65 c -2.039453,-1.283299 0.08411,-4.455458 -0.58375,-6.615 0.627259,-2.115406 -2.281459,-4.737492 -3.198594,-1.710469 0.144128,1.746822 -1.27511,5.67222 -2.967754,2.876094 C 15.33954,15.830769 14.648807,12.996 12.93,14.96 c -0.603072,1.845409 -1.278202,4.670573 0.129017,6.134507 1.616612,-0.916086 6.064479,-1.146996 4.462675,1.824197 -1.568876,0.805222 -3.40374,-0.0469 -5.024087,0.481454 -0.501109,0.899869 -1.487924,2.664364 -0.07045,3.185774 0.92289,0.04754 2.558723,0.526168 1.448902,1.614845 C 12.910702,29.537184 11.945351,30.873592 10.98,32.21 c -1.2085458,3.885775 4.813194,2.950918 4.237305,-0.35207 0.78032,-1.59866 0.277112,-4.903762 2.273364,-5.100364 0.626969,2.708895 -0.399609,5.643743 -0.227388,8.43759 0.733317,2.886564 4.159302,0.55097 3.49251,-1.663056 0.06378,-1.807921 -0.09681,-3.642085 0.121709,-5.4321 1.474703,-2.198156 4.440088,-2.602505 6.86947,-2.969502 1.557733,0.170885 5.01982,-1.115408 5.176862,1.077915 C 32.809221,28.478942 32.694611,30.749471 32.58,33.02 31.519771,35.638944 30.151182,32.815447 29.104076,32.033632 26.671377,32.5831 27.73892,36.217425 29.249375,37.425 c 2.295525,1.045772 5.508932,-0.100795 6.152048,-2.70051 1.125053,-3.022217 0.0061,-6.299511 0.469969,-9.338413 1.168766,-0.993638 2.329894,0.393388 3.433941,0.832066 1.819542,0.970385 3.342046,-3.383904 1.425014,-3.793621 C 38.880232,22.346348 37.030116,22.268174 35.18,22.19 l -0.329305,-0.250774 z"
         id="path2" />
      <path
         stroke="#7f7e7c"
         vector-effect="non-scaling-stroke"
         d="m 31.62,16.01 c 1.294704,-0.04826 2.646994,0.337428 3.878776,-0.185007 2.201053,-2.793321 -2.009691,-2.704661 -3.718776,-2.046243 -2.70404,0.366604 -5.431499,0.556746 -8.16,0.58125 -2.490131,1.043696 0.542244,5.266579 2.254102,2.590938 2.252038,-1.561939 3.503845,1.566751 5.372075,1.807805 C 33.341043,18.889806 29.882238,16.08921 31.62,16.01 Z"
         id="path3" />
      <path
         stroke="#7f7e7c"
         vector-effect="non-scaling-stroke"
         d="m 26.3896,20.655 c 1.477313,-2.773501 -4.318997,-2.56018 -1.8322,0.0091 l 0.987944,0.368052 z"
         id="path4" />
      <path
         stroke="#7f7e7c"
         vector-effect="non-scaling-stroke"
         d="m 30.5971,27.0346 c -1.736892,-2.41196 -7.217901,2.90749 -2.897679,2.736246 1.14304,-0.234469 3.273456,-1.228378 2.897679,-2.736246 z"
         id="path5" />
    </g>
    <path
       fill="#caa82f"
       fill-opacity="0.996"
       d="M 99.877348,49.774851 C 101.29323,83.870802 61.85026,110.09127 30.729986,95.741904 -1.473951,83.995361 -10.728579,37.706612 14.505722,14.593196 35.900324,-8.5006275 77.305007,-2.9473909 92.596927,23.923278 c 4.745064,7.738809 7.293109,16.786504 7.280421,25.851573 z m -11.445077,0 C 88.877603,30.367334 72.3754,12.606429 52.893541,11.525435 24.512924,7.9787606 1.5222344,41.368136 15.12243,66.42196 c 10.781655,24.996303 48.794227,29.257436 64.896289,7.274744 5.417927,-6.721806 8.436986,-15.305733 8.413552,-23.921853 z"
       id="path6"
       style="stroke-width:2.17445" />
    <path
       fill="#000000"
       d="M 88.432271,49.774851 C 89.619441,76.949848 57.229613,97.197881 33.135316,84.342948 8.0108331,73.616305 3.7278432,35.797685 25.823258,19.777781 45.586384,2.5485633 79.46827,13.328891 86.544791,37.918582 c 1.249062,3.821024 1.888592,7.838244 1.88748,11.856269 z M 71.580756,42.270485 c 2.306909,-1.646835 5.412144,-4.163455 2.989346,-7.225119 -4.866309,-5.354713 -5.616805,3.466827 -7.799004,6.27623 -1.854837,3.327428 -5.875075,2.137019 -8.992936,2.601942 -4.838599,0.251472 -9.677199,0.502945 -14.515798,0.754418 -4.446038,-2.783336 0.183361,-9.663405 -1.272585,-14.347218 1.367435,-4.588086 -4.973614,-10.275106 -6.972981,-3.709821 0.314201,3.788666 -2.779759,12.302429 -6.469748,6.237935 0.260813,-2.971069 -1.244996,-9.119374 -4.992021,-4.859672 -1.314705,4.002492 -2.786499,10.129965 0.281259,13.30508 3.545378,-1.969688 13.200337,-2.504245 9.728698,3.956486 -3.420173,1.746438 -7.420203,-0.101724 -10.952584,1.044222 -1.154516,1.985294 -3.337616,6.110673 0.123601,6.965841 2.238182,-0.031 5.178787,1.504861 2.715785,3.674334 -2.049263,2.822464 -4.098524,5.644951 -6.147787,8.467416 -3.001311,7.745003 9.951702,6.968844 9.042634,0.04447 1.791231,-3.712448 0.678303,-11.21504 5.150722,-11.870134 1.344681,5.506911 -0.621249,11.547101 -0.593257,17.244626 0.217239,7.315694 9.417536,2.966286 7.711272,-2.551396 0.13904,-3.921184 -0.211048,-7.899299 0.265326,-11.781636 3.214874,-4.767562 9.679458,-5.644551 14.975547,-6.440529 3.39588,0.370632 10.943281,-2.419198 11.285636,2.337881 -0.249854,4.924532 -0.499705,9.849061 -0.749559,14.773594 -2.311314,5.680197 -5.294859,-0.443647 -7.577566,-2.139331 -5.30332,1.191742 -2.976061,9.074189 0.316755,11.693298 5.004277,2.268161 12.009553,-0.218624 13.411554,-5.857112 2.452633,-6.55487 0.01328,-13.662957 1.02454,-20.254005 2.547928,-2.155095 5.079204,0.853216 7.486043,1.80466 3.966639,2.10466 7.285711,-7.339321 3.106557,-8.227954 -4.03329,-0.169606 -8.066571,-0.339166 -12.099851,-0.508717 l -0.71789,-0.543902 z m -7.28125,-11.993969 c 2.822474,-0.104674 5.770486,0.731844 8.45579,-0.40126 4.798328,-6.05841 -4.381156,-5.866117 -8.106987,-4.438079 -5.894848,0.795124 -11.840749,1.207523 -17.788921,1.260667 -5.428522,2.263663 1.182099,11.422639 4.913976,5.619464 4.909476,-3.387676 7.638433,3.398112 11.711203,3.920934 4.566839,0.284261 -2.973407,-5.789928 0.814939,-5.961726 z M 52.897158,40.351017 c 3.220564,-6.015423 -9.415478,-5.552752 -3.994224,0.01973 v 0 l 2.153733,0.798266 z m 9.172412,13.836661 c -3.873723,-5.124739 -15.587957,6.126359 -6.316984,5.934628 2.538549,-0.552177 7.098362,-2.615303 6.316984,-5.934628 z"
       id="path7"
       style="stroke-width:2.17445" />
    <path
       fill="#fdfbf7"
       d="m 72.060359,43.680265 c 4.289199,0.222727 8.596773,0.276068 12.874362,0.605934 2.975305,2.39247 -0.475266,10.743476 -4.469354,7.807849 -2.316233,-1.255874 -6.533227,-4.436338 -7.3804,0.08827 0.354697,7.306368 2.082895,15.592726 -2.337656,22.050708 -2.872093,3.48517 -9.872637,4.958782 -12.936074,1.059852 -3.309204,-2.775119 -2.755283,-13.442118 2.725883,-8.747769 1.349982,4.25721 6.839404,2.695649 5.969294,-1.624521 0.230837,-4.549727 0.461675,-9.099466 0.692512,-13.649203 -3.503352,-3.201003 -10.231583,-0.945726 -14.89935,-0.680935 -4.225924,1.068905 -10.507312,2.191932 -11.63143,7.100853 -0.02181,4.373938 -0.0436,8.747855 -0.0654,13.121794 -0.155523,6.308178 -9.516687,4.502967 -7.651853,-1.106135 0.137384,-5.328619 1.771166,-10.972574 0.546462,-16.120143 -4.588081,0.887971 -3.467253,8.72071 -5.344965,12.681345 0.265388,7.570472 -13.574161,5.052714 -8.18578,-1.768234 2.135821,-3.117086 4.636854,-6.035226 6.54426,-9.276736 -0.510995,-3.004401 -6.992504,-0.487529 -5.557599,-4.90177 0.465795,-2.222719 1.449444,-5.0683 4.299432,-4.382801 2.781203,-0.16334 5.732835,0.695312 8.312282,-0.677879 3.37838,-7.806189 -7.05494,-4.437352 -10.594836,-4.387347 -1.277606,-4.506229 -2.02497,-14.138627 4.197539,-13.986034 2.279647,2.056524 0.15391,5.76394 2.382382,7.661868 8.217326,2.863386 1.754435,-14.70127 11.01529,-10.152785 3.299311,6.005904 0.243657,13.266075 0.97807,19.547505 2.699513,1.391765 5.855487,0.239014 8.781721,0.366933 4.75356,-0.344166 9.561094,-0.298948 14.279557,-0.89631 4.942218,-1.731505 2.947751,-12.500175 9.330463,-9.212366 3.167527,2.901619 0.475149,6.32333 -2.304889,8.027332 -0.498795,0.371673 -0.430842,1.475436 0.430077,1.450721 z"
       id="path8"
       style="stroke-width:2.17445" />
    <path
       fill="#fdfbf7"
       d="m 63.340299,31.729672 c 1.171236,1.80194 2.759477,5.436792 -0.952537,4.409369 -3.300557,-3.243979 -8.777914,-7.119783 -12.912356,-2.197099 -6.422607,1.289515 -5.655251,-10.104414 1.138548,-7.325644 7.121724,-0.144772 14.182866,-1.215472 21.212053,-2.184945 5.564811,2.016278 -0.207537,7.45057 -4.205534,5.957165 -1.255895,0.273835 -5.239166,-1.115579 -4.280174,1.341154 z"
       id="path9"
       style="stroke-width:2.17445" />
    <ellipse
       fill="#fdfbf7"
       cx="63.414413"
       cy="-2.2281253"
       transform="matrix(0.77432289,0.63279069,-0.63666827,0.77113781,0,0)"
       rx="3.0675116"
       ry="2.5428543"
       id="ellipse9"
       style="stroke-width:2.17447" />
    <ellipse
       fill="#fdfbf7"
       cx="25.949148"
       cy="76.016029"
       transform="matrix(0.89738346,-0.44125155,0.44489466,0.8955829,0,0)"
       rx="5.531703"
       ry="2.9309578"
       id="ellipse10"
       style="stroke-width:2.17447" />
  </g>
</svg>
