<?xml version="1.0" encoding="UTF-8" standalone="no"?>
<!-- Created with Inkscape (http://www.inkscape.org/) -->

<svg
   width="100"
   height="100"
   id="svg2"
   sodipodi:version="0.32"
   inkscape:version="1.3 (0e150ed6c4, 2023-07-21)"
   version="1.0"
   sodipodi:docname="bn.svg"
   inkscape:output_extension="org.inkscape.output.svg.inkscape"
   xmlns:inkscape="http://www.inkscape.org/namespaces/inkscape"
   xmlns:sodipodi="http://sodipodi.sourceforge.net/DTD/sodipodi-0.dtd"
   xmlns:xlink="http://www.w3.org/1999/xlink"
   xmlns="http://www.w3.org/2000/svg"
   xmlns:svg="http://www.w3.org/2000/svg"
   xmlns:rdf="http://www.w3.org/1999/02/22-rdf-syntax-ns#"
   xmlns:cc="http://creativecommons.org/ns#"
   xmlns:dc="http://purl.org/dc/elements/1.1/">
  <defs
     id="defs4">
    <linearGradient
       id="linearGradient3214">
      <stop
         style="stop-color:#c6c600;stop-opacity:1;"
         offset="0"
         id="stop3216" />
      <stop
         style="stop-color:#ffff00;stop-opacity:1;"
         offset="1"
         id="stop3218" />
    </linearGradient>
    <linearGradient
       id="linearGradient3202">
      <stop
         style="stop-color:#ff0000;stop-opacity:1;"
         offset="0"
         id="stop3204" />
      <stop
         style="stop-color:#bd0000;stop-opacity:1;"
         offset="1"
         id="stop3206" />
    </linearGradient>
    <linearGradient
       id="linearGradient3194">
      <stop
         style="stop-color:#dedede;stop-opacity:1;"
         offset="0"
         id="stop3196" />
      <stop
         style="stop-color:#989898;stop-opacity:1;"
         offset="1"
         id="stop3198" />
    </linearGradient>
    <inkscape:perspective
       sodipodi:type="inkscape:persp3d"
       inkscape:vp_x="0 : 556.18109 : 1"
       inkscape:vp_y="0 : 1000 : 0"
       inkscape:vp_z="744.09448 : 556.18109 : 1"
       inkscape:persp3d-origin="372.04724 : 380.78739 : 1"
       id="perspective10" />
    <linearGradient
       inkscape:collect="always"
       xlink:href="#linearGradient3202"
       id="linearGradient3208"
       x1="42.241379"
       y1="32.741379"
       x2="115.51724"
       y2="62.051723"
       gradientUnits="userSpaceOnUse"
       gradientTransform="translate(-32.758621,-3.8793108)" />
  </defs>
  <sodipodi:namedview
     id="base"
     pagecolor="#ffffff"
     bordercolor="#666666"
     borderopacity="1.0"
     gridtolerance="10000"
     guidetolerance="10"
     objecttolerance="10"
     inkscape:pageopacity="0.0"
     inkscape:pageshadow="2"
     inkscape:zoom="4.0179202"
     inkscape:cx="37.45719"
     inkscape:cy="56.123564"
     inkscape:document-units="px"
     inkscape:current-layer="layer1"
     showgrid="false"
     inkscape:window-width="1366"
     inkscape:window-height="715"
     inkscape:window-x="144"
     inkscape:window-y="892"
     inkscape:showpageshadow="2"
     inkscape:pagecheckerboard="0"
     inkscape:deskcolor="#d1d1d1"
     inkscape:window-maximized="1" />
  <metadata
     id="metadata7">
    <rdf:RDF>
      <cc:Work
         rdf:about="">
        <dc:format>image/svg+xml</dc:format>
        <dc:type
           rdf:resource="http://purl.org/dc/dcmitype/StillImage" />
      </cc:Work>
    </rdf:RDF>
  </metadata>
  <g
     inkscape:label="Layer 1"
     inkscape:groupmode="layer"
     id="layer1">
    <g
       stroke-width="2"
       fill="none"
       stroke-linecap="butt"
       id="g9"
       transform="matrix(2.1679306,0,0,2.1647384,-4.2568947,-4.3025594)">
      <path
         stroke="#655417"
         vector-effect="non-scaling-stroke"
         d="M 42.7,25 C 42.904399,16.046814 35.330349,7.8532535 26.388726,7.3545632 13.362824,5.7183918 2.8107456,21.121766 9.052851,32.679742 14.001327,44.211171 31.448025,46.176942 38.838417,36.035769 41.325096,32.934821 42.710754,28.974838 42.7,25 Z"
         id="path1" />
      <path
         stroke="#7e7d7b"
         vector-effect="non-scaling-stroke"
         d="m 28.78,17.19 c 2.278793,-0.288233 4.575948,0.146191 6.842812,-0.01938 2.65403,-0.60029 1.032849,-3.144668 -0.989257,-3.049609 -3.063034,-0.439195 -6.186059,0.07719 -9.27168,0.0011 -3.351258,-0.04407 -6.735763,0.36325 -10.068125,-0.0077 -3.117973,-1.480699 -2.308019,3.373159 -2.704477,5.091352 -0.09116,2.909628 -0.431461,6.16515 1.256391,8.706461 1.578087,1.702887 3.960957,0.338244 5.867773,0.110468 5.356023,-1.012315 10.915053,-1.09707 16.282188,-0.158317 0.667723,1.604423 -0.500563,3.641528 -0.605625,5.405625 -0.81398,3.117364 3.545402,2.588638 3.735078,-0.04434 1.125655,-2.802546 2.622834,-5.958716 1.653135,-9.01003 -1.232259,-2.875856 -3.5168,0.473051 -5.458057,0.621875 C 33.134189,25.464482 30.778318,25.210655 28.66,24.45 28.254502,23.288135 30.20725,23.94255 30.995604,23.804871 32.390402,23.833248 33.785201,23.861624 35.18,23.89 37.899997,22.860647 35.075406,21.13979 33.455966,21.530601 32.03906,21.427466 30.608506,21.425261 29.2,21.26 c -1.480407,-0.960567 0.383918,-0.999571 1.264559,-0.819191 2.139521,0.09002 4.287702,0.366332 6.421778,0.339253 0.734239,-0.593658 0.491212,-2.740398 -0.625863,-2.762418 C 33.776983,17.995096 31.293491,17.972548 28.81,17.95 l -0.394956,-0.365002 z"
         id="path2" />
      <path
         stroke="#7e7d7b"
         vector-effect="non-scaling-stroke"
         d="m 28.42,29.37 c 0.844811,2.215854 1.575946,4.481976 2.495,6.665 1.006958,0.542422 2.493367,-0.303403 3.322856,-0.965613 C 35.07476,32.220538 31.358231,30.446938 29.35125,29.075664 28.958299,28.785314 27.980326,28.432109 28.42,29.37 Z"
         id="path3" />
      <path
         stroke="#7e7d7b"
         vector-effect="non-scaling-stroke"
         d="m 27.12,35.63 c 2.208702,-1.837894 0.332198,-5.460179 -1.618175,-6.586159 -0.707306,0.834805 -0.299369,2.064806 -0.470378,3.089652 0.08658,1.341312 -0.684086,3.307113 1.136652,3.788517 z"
         id="path4" />
      <path
         stroke="#7e7d7b"
         vector-effect="non-scaling-stroke"
         d="m 21.21,36.49 c 0.756497,-0.282567 1.866598,-0.05101 2.34743,-0.75963 C 23.111764,33.689534 22.904762,30.474293 20.82,29.56 c -1.148627,1.899738 -0.782972,4.834792 0.01824,6.856593 z"
         id="path5" />
      <path
         stroke="#7e7d7b"
         vector-effect="non-scaling-stroke"
         d="m 17.77,30.88 c -0.573228,-1.520537 -3.525556,-0.13075 -4.99,0.02 -3.3033044,0.466371 -1.970057,7.029575 1.089642,4.997546 C 15.169762,34.22503 16.469881,32.552515 17.77,30.88 Z"
         id="path6" />
      <path
         stroke="#7e7d7b"
         vector-effect="non-scaling-stroke"
         d="M 19.42,17.35 C 18.090495,17.041049 16.140489,18.42523 18.517695,18.23625 19.535557,18.13222 22.62988,18.549844 22.03,17.27 21.157445,17.20466 20.290095,17.33026 19.42,17.35 Z"
         id="path7" />
      <path
         stroke="#7e7d7b"
         vector-effect="non-scaling-stroke"
         d="m 22.2504,20.7498 c -0.578575,-0.945603 -1.887655,-0.192353 -2.823238,-0.24722 -0.981331,-0.211264 -3.106687,0.837606 -1.256854,1.353504 1.26315,-0.174171 2.550136,-0.238331 3.797977,-0.483155 0.22159,-0.11756 0.330145,-0.382179 0.282115,-0.623129 z"
         id="path8" />
      <path
         stroke="#7e7d7b"
         vector-effect="non-scaling-stroke"
         d="m 22.395,24.3488 c -0.566473,-0.927936 -1.871519,-0.203292 -2.797049,-0.273561 -1.037459,-0.268945 -3.156944,0.925487 -1.172798,1.28288 1.227008,-0.149097 2.475091,-0.192943 3.688437,-0.41027 0.218493,-0.110459 0.322121,-0.365371 0.28141,-0.599049 z"
         id="path9" />
    </g>
    <path
       fill="#cba82f"
       fill-opacity="0.996"
       d="M 99.673703,49.815899 C 101.08172,83.846562 61.857404,110.01683 30.909634,95.694922 -1.115792,83.970883 -10.31912,37.770767 14.775304,14.701614 36.051313,-8.3479877 77.226471,-2.8053853 92.433638,24.013828 97.1524,31.737821 99.68632,40.768189 99.673703,49.815899 Z m -11.359957,0 C 88.756871,30.434594 72.336855,12.697679 52.952034,11.618145 24.712782,8.076263 1.8366083,41.420537 15.369059,66.440531 26.096438,91.41312 63.915591,95.73989 79.942108,73.705452 85.333058,66.99271 88.337051,58.420384 88.313746,49.815899 Z"
       id="path10"
       style="stroke-width:2.16634" />
    <path
       fill="#000000"
       d="M 88.313746,49.815899 C 89.495008,76.954189 57.266509,97.174874 33.292224,84.337304 8.2928864,73.625149 4.0312303,35.857613 26.016591,19.859347 45.681275,2.6533986 79.394403,13.419166 86.435667,37.975644 c 1.242853,3.815865 1.879185,7.827657 1.878079,11.840255 z M 58.136151,32.909293 c 4.940265,-0.623949 9.920338,0.316466 14.834737,-0.04193 5.753753,-1.299473 2.239148,-6.807384 -2.144647,-6.601607 -6.640434,-0.95074 -13.410936,0.167095 -20.100348,0.0024 -7.265295,-0.09541 -14.602667,0.78634 -21.826997,-0.01667 -6.759549,-3.205325 -5.003625,7.302009 -5.86312,11.021445 -0.197628,6.298584 -0.935377,13.345937 2.723769,18.847208 3.421184,3.686307 8.587081,0.732212 12.720928,0.239137 11.611484,-2.19132 23.663076,-2.374792 35.298663,-0.342638 1.447571,3.473157 -1.085201,7.882956 -1.312963,11.701765 -1.764653,6.748277 7.686181,5.603724 8.097394,-0.09598 2.440331,-6.06678 5.686114,-12.899062 3.583871,-19.504358 -2.671454,-6.225474 -7.624178,1.024031 -11.832674,1.346197 -4.739034,1.357252 -9.846399,0.807783 -14.438765,-0.838837 -0.879092,-2.515133 3.354331,-1.098496 5.063427,-1.396535 3.023826,0.06143 6.047654,0.122845 9.071482,0.184284 5.896771,-2.228281 -0.226745,-5.953485 -3.737587,-5.107481 -3.071754,-0.223252 -6.173096,-0.228028 -9.22664,-0.585772 -3.20942,-2.079376 0.832308,-2.16381 2.741477,-1.773337 4.638333,0.19487 9.295438,0.793013 13.921976,0.734397 1.591782,-1.285115 1.064909,-5.932246 -1.356843,-5.979915 -5.384028,-0.04881 -10.768066,-0.09763 -16.152103,-0.146423 L 57.344951,33.76451 Z m -0.780455,26.366512 c 1.831491,4.796746 3.416541,9.702306 5.408987,14.427981 2.183015,1.174203 5.405447,-0.656787 7.20373,-2.090298 1.814342,-6.167013 -6.242836,-10.006394 -10.593832,-12.974842 -0.85189,-0.628532 -2.972068,-1.393128 -2.018885,0.637159 z m -2.818311,13.551262 c 4.788314,-3.978558 0.720183,-11.819859 -3.50809,-14.257311 -1.554383,1.610047 -0.617997,4.101416 -0.998381,6.126867 0.115419,2.608115 -0.803367,5.376464 0.512131,7.798649 l 1.930685,0.963922 z m -12.812469,1.861676 c 1.640033,-0.611684 4.046654,-0.110416 5.089065,-1.6444 -1.00341,-4.395172 -1.391718,-11.392189 -5.934558,-13.357236 -2.490144,4.112435 -1.697429,10.466059 0.03954,14.842729 z M 34.267234,62.544561 c -1.242719,-3.291565 -7.643161,-0.28304 -10.817974,0.0433 -6.970723,1.02745 -4.519938,14.730633 2.18961,11.040166 2.876122,-3.694488 5.752242,-7.388974 8.628364,-11.083461 z"
       id="path11"
       style="stroke-width:2.16634" />
    <path
       fill="#fbf9f5"
       d="m 58.136151,32.909293 c -1.615664,2.553921 3.121566,1.406844 4.847426,1.688556 3.977452,0.03607 7.954897,0.07213 11.932358,0.108169 1.82531,0.809411 2.84272,6.10769 -0.172351,6.065046 -5.603448,-0.305833 -11.204182,-0.815251 -16.809322,-0.992793 -0.631852,2.206738 2.988471,2.210358 4.701023,2.218801 3.190245,0.174542 6.380492,0.349101 9.570736,0.523652 5.700661,2.688588 -0.700026,5.910846 -4.1329,4.812315 -3.305097,-0.06715 -6.610194,-0.134279 -9.91529,-0.201429 -1.356807,3.004538 6.131171,2.774595 8.623281,3.100988 5.183944,0.16729 9.892775,-2.318216 14.091212,-5.022193 5.729016,2.082788 4.031939,9.791144 2.738183,14.318575 -2.144713,4.697043 -3.304967,15.421206 -10.392323,12.248176 -2.224773,-3.777095 0.694627,-8.302706 0.872918,-12.366152 1.951483,-5.283059 -5.584394,-3.668989 -8.653937,-4.466632 -11.471189,-1.028675 -23.023938,0.253479 -34.188775,2.919944 -6.371218,1.253318 -8.185974,-6.489651 -8.281968,-11.268037 -0.298807,-6.654665 0.03248,-13.448979 1.473311,-19.941741 3.570482,-2.380387 9.051686,1.407049 13.489949,-0.14653 10.397165,-0.0506 20.801955,-0.633434 31.191102,-0.534018 3.681396,-0.199589 10.556273,3.764804 4.656986,6.632218 -4.872983,1.011386 -9.958491,-0.45667 -14.924678,0.250213 z M 37.84432,33.25565 c -2.882276,-0.668798 -7.109753,2.32759 -1.956135,1.9185 2.206654,-0.2252 8.914932,0.678847 7.614433,-2.091678 -1.891638,-0.141444 -3.771993,0.130449 -5.658298,0.173178 z m 6.136111,7.359678 c -1.254311,-2.046985 -4.092306,-0.416394 -6.120584,-0.535169 -2.319932,-0.578675 -6.81611,2.220462 -2.445309,2.897693 2.645304,-0.3661 5.34216,-0.494625 7.954287,-1.013613 0.480392,-0.254487 0.715732,-0.827318 0.611606,-1.348911 z m 0.313482,7.790894 c -1.228073,-2.008739 -4.057323,-0.440074 -6.063807,-0.592188 -2.24914,-0.582196 -6.844037,2.003436 -2.542546,2.777099 2.660069,-0.322756 5.365826,-0.41767 7.996276,-0.888126 0.469367,-0.239042 0.703773,-0.790645 0.610077,-1.296785 z"
       id="path12"
       style="stroke-width:2.16634" />
    <path
       fill="#000000"
       d="m 38.928285,33.234003 c 2.369606,-1.075299 7.932005,0.803463 2.908159,1.642496 -2.048362,0.138716 -9.475601,1.203627 -7.937759,-0.906484 1.566894,-0.806225 3.325444,-0.735888 5.0296,-0.736012 z"
       id="path13"
       style="stroke-width:2.16634" />
    <rect
       fill="#000000"
       x="28.433788"
       y="44.160553"
       transform="matrix(0.99339207,-0.11477015,0.1151044,0.9933534,0,0)"
       width="10.579295"
       height="2.5977366"
       rx="1.2356964"
       id="rect13"
       style="stroke-width:2.16635" />
    <rect
       fill="#000000"
       x="28.723574"
       y="51.369808"
       transform="matrix(0.99507001,-0.09917493,0.09946477,0.99504108,0,0)"
       width="10.535991"
       height="2.511133"
       rx="1.1923447"
       id="rect14"
       style="stroke-width:2.16633" />
    <path
       fill="#fbf9f5"
       d="m 62.385295,72.9786 c -1.717893,-4.849247 -3.66144,-9.629776 -5.231487,-14.524041 4.446978,-0.17896 9.454115,5.225547 12.66749,8.830779 2.75028,3.896761 -1.956115,6.180033 -5.134701,6.860588 -0.975819,0.517043 -2.055882,-0.167335 -2.301302,-1.167326 z"
       id="path14"
       style="stroke-width:2.16634" />
    <path
       fill="#fbf9f5"
       d="m 52.304417,58.99439 c 3.65794,3.605177 7.547758,12.795816 0.169316,14.464804 -3.899997,-0.985466 -2.301409,-5.193333 -2.470147,-8.044502 0.07322,-1.923625 0.146422,-3.847254 0.219618,-5.770881 l 0.806091,-1.074055 z"
       id="path15"
       style="stroke-width:2.16634" />
    <path
       fill="#fbf9f5"
       d="m 41.724916,74.688743 c -3.857421,-2.321578 -1.81494,-9.846955 -1.804761,-13.78164 2.505906,-4.500402 5.281104,5.011902 5.587581,6.161732 -0.882589,2.087028 1.446657,3.923093 1.306245,5.975508 -0.946714,1.495219 -3.519536,1.057305 -5.089065,1.6444 z"
       id="path16"
       style="stroke-width:2.16634" />
    <path
       fill="#fbf9f5"
       d="m 34.267234,62.544561 c -2.876122,3.694487 -5.752242,7.388972 -8.628364,11.08346 -7.09252,3.720908 -9.086314,-10.846813 -1.550749,-11.213598 2.678448,-0.148631 9.591092,-3.21408 10.179113,0.130143 z"
       id="path17"
       style="stroke-width:2.16634" />
  </g>
</svg>
