<?xml version="1.0" encoding="UTF-8" standalone="no"?>
<!-- Created with Inkscape (http://www.inkscape.org/) -->

<svg
   width="100"
   height="100"
   id="svg2"
   sodipodi:version="0.32"
   inkscape:version="1.3 (0e150ed6c4, 2023-07-21)"
   version="1.0"
   sodipodi:docname="bp.svg"
   inkscape:output_extension="org.inkscape.output.svg.inkscape"
   xmlns:inkscape="http://www.inkscape.org/namespaces/inkscape"
   xmlns:sodipodi="http://sodipodi.sourceforge.net/DTD/sodipodi-0.dtd"
   xmlns:xlink="http://www.w3.org/1999/xlink"
   xmlns="http://www.w3.org/2000/svg"
   xmlns:svg="http://www.w3.org/2000/svg"
   xmlns:rdf="http://www.w3.org/1999/02/22-rdf-syntax-ns#"
   xmlns:cc="http://creativecommons.org/ns#"
   xmlns:dc="http://purl.org/dc/elements/1.1/">
  <defs
     id="defs4">
    <linearGradient
       id="linearGradient3214">
      <stop
         style="stop-color:#c6c600;stop-opacity:1;"
         offset="0"
         id="stop3216" />
      <stop
         style="stop-color:#ffff00;stop-opacity:1;"
         offset="1"
         id="stop3218" />
    </linearGradient>
    <linearGradient
       id="linearGradient3202">
      <stop
         style="stop-color:#ff0000;stop-opacity:1;"
         offset="0"
         id="stop3204" />
      <stop
         style="stop-color:#bd0000;stop-opacity:1;"
         offset="1"
         id="stop3206" />
    </linearGradient>
    <linearGradient
       id="linearGradient3194">
      <stop
         style="stop-color:#dedede;stop-opacity:1;"
         offset="0"
         id="stop3196" />
      <stop
         style="stop-color:#989898;stop-opacity:1;"
         offset="1"
         id="stop3198" />
    </linearGradient>
    <inkscape:perspective
       sodipodi:type="inkscape:persp3d"
       inkscape:vp_x="0 : 556.18109 : 1"
       inkscape:vp_y="0 : 1000 : 0"
       inkscape:vp_z="744.09448 : 556.18109 : 1"
       inkscape:persp3d-origin="372.04724 : 380.78739 : 1"
       id="perspective10" />
    <linearGradient
       inkscape:collect="always"
       xlink:href="#linearGradient3202"
       id="linearGradient3208"
       x1="42.241379"
       y1="32.741379"
       x2="115.51724"
       y2="62.051723"
       gradientUnits="userSpaceOnUse"
       gradientTransform="translate(-32.758621,-3.8793108)" />
  </defs>
  <sodipodi:namedview
     id="base"
     pagecolor="#ffffff"
     bordercolor="#666666"
     borderopacity="1.0"
     gridtolerance="10000"
     guidetolerance="10"
     objecttolerance="10"
     inkscape:pageopacity="0.0"
     inkscape:pageshadow="2"
     inkscape:zoom="2.0089601"
     inkscape:cx="27.626233"
     inkscape:cy="96.318489"
     inkscape:document-units="px"
     inkscape:current-layer="layer1"
     showgrid="false"
     inkscape:window-width="1366"
     inkscape:window-height="715"
     inkscape:window-x="144"
     inkscape:window-y="892"
     inkscape:showpageshadow="2"
     inkscape:pagecheckerboard="0"
     inkscape:deskcolor="#d1d1d1"
     inkscape:window-maximized="1" />
  <metadata
     id="metadata7">
    <rdf:RDF>
      <cc:Work
         rdf:about="">
        <dc:format>image/svg+xml</dc:format>
        <dc:type
           rdf:resource="http://purl.org/dc/dcmitype/StillImage" />
      </cc:Work>
    </rdf:RDF>
  </metadata>
  <g
     inkscape:label="Layer 1"
     inkscape:groupmode="layer"
     id="layer1">
    <g
       stroke-width="2"
       fill="none"
       stroke-linecap="butt"
       id="g4"
       transform="matrix(2.173363,0,0,2.1701558,-4.2105422,-4.3380684)">
      <path
         stroke="#655417"
         vector-effect="non-scaling-stroke"
         d="M 42.72,25 C 42.924399,16.046814 35.350349,7.8532535 26.408726,7.3545632 13.382824,5.7183918 2.8307456,21.121766 9.072851,32.679742 14.021327,44.211171 31.468025,46.176942 38.858417,36.035769 41.345096,32.934821 42.730754,28.974838 42.72,25 Z"
         id="path1" />
      <path
         stroke="#7e7d7b"
         vector-effect="non-scaling-stroke"
         d="m 13.85,27.14 c -2.394183,0.371992 -5.6644836,2.095077 -4.4110938,4.999531 1.2411878,2.77826 3.7399098,-0.8375 5.5570308,-1.160351 C 17.413085,29.918974 20.093306,29.516436 22.72,29.7 c 0.896794,0.505307 0.397855,1.818801 0.588961,2.714266 0.172782,1.278166 -0.346763,3.007765 1.167467,3.648153 3.550256,0.02133 1.541834,-4.608979 2.471072,-6.642419 1.957163,-0.355984 4.047702,0.211515 5.98915,0.628115 2.313388,0.218023 4.53026,2.72897 6.754209,1.203643 1.698621,-0.678243 4.042175,-5.484443 0.842774,-4.956172 -3.887818,0.5256 -7.900586,0.515469 -11.734883,-0.344961 -0.340266,-0.854669 1.270093,-2.680788 2.187636,-1.584599 0.784135,0.557913 1.705466,1.414295 2.682853,0.714559 1.143707,-0.14171 1.833424,-1.29205 0.585088,-1.913635 -0.69125,-0.79948 -1.98207,-1.242321 -2.076652,-2.396716 1.661369,-0.874548 4.961592,0.596511 5.655606,-1.968203 -0.47097,-1.5268 -2.277168,-2.197699 -3.769601,-1.922582 C 31.766087,16.955384 29.465995,17.149804 27.17,17.15 25.946998,16.5268 26.351236,14.660169 25.136037,13.948194 22.903493,13.396212 23.461695,16.375997 21.94,17.01 c -3.045789,1.627379 -6.47132,-0.228644 -9.425938,0.406406 -1.342312,0.664216 -2.192431,3.708781 -0.414298,4.092585 1.355486,0.07568 2.779623,-0.202774 4.087558,0.118195 0.300962,0.996347 -1.069189,1.504824 -1.600975,2.238256 -0.856756,0.555964 -1.450552,1.586451 -0.568117,2.410574 0.252164,0.294711 0.346624,0.774072 -0.16823,0.863984 z"
         id="path2" />
      <path
         stroke="#7e7d7b"
         vector-effect="non-scaling-stroke"
         d="m 21.24,20.71 c 1.019543,1.59357 1.93682,3.260434 3.02125,4.8075 C 26.275045,25.200809 27.349802,22.411604 27.93,20.55 27.88285,19.44262 26.263037,20.192729 25.486113,20.051278 24.150742,20.120852 22.815371,20.190426 21.48,20.26 l -0.251895,0.160296 z"
         id="path3" />
      <path
         stroke="#7e7d7b"
         vector-effect="non-scaling-stroke"
         d="m 20.65,25.93 c -0.570726,-0.751039 -0.830625,-2.545824 -2.099336,-1.8265 -0.702964,0.77208 -1.957895,1.196531 -2.136287,2.298987 0.864136,0.714651 2.096296,0.210923 3.14054,0.32931 0.515784,-0.0048 1.659108,0.07706 1.095083,-0.801797 z"
         id="path4" />
    </g>
    <path
       fill="#caa82f"
       fill-opacity="0.996"
       d="M 99.980474,49.915826 C 101.39203,84.031651 62.06942,110.2674 31.044104,95.909673 -1.0615698,84.156284 -10.287959,37.840559 14.869345,14.713664 c 21.32932,-23.1072761 62.607653,-17.5508091 77.852924,9.335511 4.730585,7.743333 7.270856,16.79629 7.258205,25.866651 z m -11.344952,0 C 89.079756,30.486008 72.618597,12.704707 53.185211,11.622472 24.875191,8.0717287 1.9416954,41.499462 15.508054,66.582058 26.26289,91.607057 64.180906,95.873084 80.242906,73.865165 85.647364,67.135622 88.658885,58.541847 88.635522,49.915826 Z"
       id="path5"
       style="stroke-width:2.17176" />
    <path
       fill="#000000"
       d="M 88.635522,49.915826 C 89.819744,77.122027 57.510486,97.393322 33.476131,84.523626 8.4141508,73.784653 4.1418166,35.922596 26.182266,19.884298 45.896229,2.6352932 79.693828,13.427999 86.752737,38.045941 c 1.245966,3.825421 1.883891,7.847241 1.882785,11.869885 z m -62.74499,4.644132 c -5.203427,0.807277 -12.310977,4.546651 -9.586907,10.84976 2.697552,6.029256 8.128182,-1.817505 12.077444,-2.51814 5.253342,-2.300821 11.078436,-3.174374 16.787193,-2.77602 1.94905,1.096601 0.864695,3.947079 1.280024,5.890389 0.375513,2.773806 -0.753634,6.527307 2.537336,7.917053 7.715982,0.04623 3.350956,-10.002204 5.370532,-14.415085 4.253619,-0.772533 8.797121,0.459009 13.016597,1.363117 5.027837,0.473138 9.845899,5.92229 14.679349,2.612086 3.691717,-1.471886 8.785103,-11.902089 1.831645,-10.75566 -8.449622,1.140634 -17.170828,1.118629 -25.504153,-0.748639 -0.73953,-1.854746 2.760368,-5.81771 4.754536,-3.438806 1.704198,1.21075 3.706583,3.069229 5.830806,1.550684 2.485698,-0.307511 3.984688,-2.803949 1.271614,-4.152876 -1.502337,-1.734996 -4.307757,-2.696027 -4.513314,-5.201255 3.610739,-1.897888 10.783335,1.29452 12.291671,-4.2713 -1.023589,-3.313394 -4.949117,-4.769352 -8.19271,-4.172299 -4.993497,0.164715 -9.992426,0.586702 -14.982468,0.587135 -2.658022,-1.35244 -1.779462,-5.403318 -4.420533,-6.948425 -4.852141,-1.197883 -3.638947,5.268726 -6.946154,6.644604 -6.619605,3.531668 -14.064526,-0.496184 -20.485983,0.881974 -2.917332,1.441438 -4.764948,8.04863 -0.900422,8.881536 2.945964,0.16428 6.04113,-0.440044 8.883746,0.256512 0.654101,2.162212 -2.323734,3.265694 -3.479498,4.85735 -1.862042,1.206542 -3.152576,3.442844 -1.234725,5.231335 0.548045,0.639567 0.75334,1.679852 -0.365626,1.87497 z"
       id="path6"
       style="stroke-width:2.17176" />
    <path
       fill="#fbf9f5"
       d="m 26.455607,52.997447 c -1.80737,-1.677574 -1.290104,-4.060774 0.746981,-5.268249 1.309503,-1.488076 3.217444,-2.561044 4.084398,-4.35611 -1.043884,-2.002555 -3.947195,-0.722618 -5.88762,-1.058992 -2.160242,-0.03038 -5.848261,0.770188 -5.378949,-2.687174 -0.722482,-5.949004 6.073409,-8.623917 10.750675,-5.874698 4.723493,0.340735 12.048591,1.264636 14.740801,-3.510488 0.571681,-3.527935 5.380291,-6.67273 6.75077,-1.733911 0.774673,1.942116 1.315949,5.119766 4.161229,4.398689 5.40522,-0.247528 10.810459,-0.495035 16.215677,-0.742563 4.96118,0.09484 7.519641,7.278313 1.289521,7.683351 -2.69184,0.463067 -10.815979,-0.799529 -6.792344,3.379106 1.547586,1.474577 3.374406,2.700151 4.732932,4.343328 -0.200601,2.226731 -3.747225,3.048461 -5.69858,2.994423 -2.044417,-0.775765 -3.951042,-4.047166 -6.14151,-2.166293 -2.45277,1.92621 -2.304177,4.73847 1.6122,4.247755 8.160935,1.336795 16.493608,0.890654 24.637634,-0.119572 3.152115,4.192416 -2.149392,10.712735 -6.61989,12.190155 -4.944923,-0.417321 -9.302102,-3.710966 -14.342064,-4.341743 -3.453258,0.03711 -10.263577,-3.505844 -11.530473,0.89929 0.275559,4.432825 1.053385,15.970893 -6.45365,11.510766 -1.314841,-3.439197 -0.671939,-7.264205 -1.051146,-10.887801 -1.713155,-3.862378 -8.452937,-1.149814 -12.081949,-0.933275 -5.367987,1.024335 -9.920286,4.134689 -14.530968,6.807257 -5.566274,-0.08225 -4.874876,-10.005112 0.247348,-11.120724 1.400422,-1.603007 7.503252,-0.893302 6.538977,-3.652612 z M 41.951686,40.605858 c 2.215831,3.458294 4.209412,7.07564 6.566272,10.433024 4.376697,-0.687267 6.712541,-6.740287 7.973525,-10.78025 -0.102585,-2.403186 -3.622908,-0.775331 -5.311459,-1.082299 -2.902243,0.151043 -5.804488,0.301977 -8.706733,0.452955 l -0.547447,0.347876 z m -1.282284,11.328213 c -1.240395,-1.629875 -1.805249,-5.524826 -4.562619,-3.963791 -1.527797,1.675535 -4.255217,2.596658 -4.642928,4.989167 1.681949,1.581306 4.184775,0.449028 6.261563,0.725114 1.166339,-0.113065 4.24146,0.438393 2.943984,-1.75049 z"
       id="path7"
       style="stroke-width:2.17176" />
    <path
       fill="#000000"
       d="m 41.951686,40.605858 c 0.508371,-1.86258 3.618193,-0.767671 5.309678,-1.225661 2.916109,-0.102433 5.835066,-0.404951 8.749262,-0.374829 1.079901,4.045626 -2.849756,8.80315 -5.756694,11.756818 -2.396937,1.516071 -3.137684,-2.498869 -4.437573,-3.89927 -1.288218,-2.085693 -2.576455,-4.171365 -3.864673,-6.257058 z"
       id="path8"
       style="stroke-width:2.17176" />
    <path
       fill="#000000"
       d="m 40.669402,51.934071 c 0.815344,2.768076 -3.515505,1.399881 -5.22952,1.792874 -2.881619,0.930736 -5.261171,-1.79064 -2.104818,-3.430256 1.616237,-1.286448 4.216863,-4.481111 5.698963,-1.333214 0.545124,0.990198 1.090249,1.980397 1.635375,2.970596 z"
       id="path9"
       style="stroke-width:2.17176" />
  </g>
</svg>
