<?xml version="1.0" encoding="UTF-8" standalone="no"?>
<!-- Created with Inkscape (http://www.inkscape.org/) -->

<svg
   width="100"
   height="100"
   id="svg2"
   sodipodi:version="0.32"
   inkscape:version="1.3 (0e150ed6c4, 2023-07-21)"
   version="1.0"
   sodipodi:docname="br.svg"
   inkscape:output_extension="org.inkscape.output.svg.inkscape"
   xmlns:inkscape="http://www.inkscape.org/namespaces/inkscape"
   xmlns:sodipodi="http://sodipodi.sourceforge.net/DTD/sodipodi-0.dtd"
   xmlns:xlink="http://www.w3.org/1999/xlink"
   xmlns="http://www.w3.org/2000/svg"
   xmlns:svg="http://www.w3.org/2000/svg"
   xmlns:rdf="http://www.w3.org/1999/02/22-rdf-syntax-ns#"
   xmlns:cc="http://creativecommons.org/ns#"
   xmlns:dc="http://purl.org/dc/elements/1.1/">
  <defs
     id="defs4">
    <linearGradient
       id="linearGradient3214">
      <stop
         style="stop-color:#c6c600;stop-opacity:1;"
         offset="0"
         id="stop3216" />
      <stop
         style="stop-color:#ffff00;stop-opacity:1;"
         offset="1"
         id="stop3218" />
    </linearGradient>
    <linearGradient
       id="linearGradient3202">
      <stop
         style="stop-color:#ff0000;stop-opacity:1;"
         offset="0"
         id="stop3204" />
      <stop
         style="stop-color:#bd0000;stop-opacity:1;"
         offset="1"
         id="stop3206" />
    </linearGradient>
    <linearGradient
       id="linearGradient3194">
      <stop
         style="stop-color:#dedede;stop-opacity:1;"
         offset="0"
         id="stop3196" />
      <stop
         style="stop-color:#989898;stop-opacity:1;"
         offset="1"
         id="stop3198" />
    </linearGradient>
    <inkscape:perspective
       sodipodi:type="inkscape:persp3d"
       inkscape:vp_x="0 : 556.18109 : 1"
       inkscape:vp_y="0 : 1000 : 0"
       inkscape:vp_z="744.09448 : 556.18109 : 1"
       inkscape:persp3d-origin="372.04724 : 380.78739 : 1"
       id="perspective10" />
    <linearGradient
       inkscape:collect="always"
       xlink:href="#linearGradient3202"
       id="linearGradient3208"
       x1="42.241379"
       y1="32.741379"
       x2="115.51724"
       y2="62.051723"
       gradientUnits="userSpaceOnUse"
       gradientTransform="translate(-32.758621,-3.8793108)" />
  </defs>
  <sodipodi:namedview
     id="base"
     pagecolor="#ffffff"
     bordercolor="#666666"
     borderopacity="1.0"
     gridtolerance="10000"
     guidetolerance="10"
     objecttolerance="10"
     inkscape:pageopacity="0.0"
     inkscape:pageshadow="2"
     inkscape:zoom="2.8410986"
     inkscape:cx="13.903073"
     inkscape:cy="74.443034"
     inkscape:document-units="px"
     inkscape:current-layer="layer1"
     showgrid="false"
     inkscape:window-width="1366"
     inkscape:window-height="715"
     inkscape:window-x="144"
     inkscape:window-y="892"
     inkscape:showpageshadow="2"
     inkscape:pagecheckerboard="0"
     inkscape:deskcolor="#d1d1d1"
     inkscape:window-maximized="1" />
  <metadata
     id="metadata7">
    <rdf:RDF>
      <cc:Work
         rdf:about="">
        <dc:format>image/svg+xml</dc:format>
        <dc:type
           rdf:resource="http://purl.org/dc/dcmitype/StillImage" />
      </cc:Work>
    </rdf:RDF>
  </metadata>
  <g
     inkscape:label="Layer 1"
     inkscape:groupmode="layer"
     id="layer1">
    <g
       stroke-width="2"
       fill="none"
       stroke-linecap="butt"
       id="g6"
       transform="matrix(2.1753983,0,0,2.1645242,-4.3003144,-3.987494)">
      <path
         stroke="#655317"
         vector-effect="non-scaling-stroke"
         d="M 42.7,25 C 42.904283,16.051873 35.334513,7.8629409 26.397941,7.3645324 13.379398,5.7292854 2.8332819,21.123958 9.0718607,32.675403 14.017541,44.200317 31.454382,46.164978 38.840599,36.029535 41.325873,32.930338 42.710748,28.972592 42.7,25 Z"
         id="path1" />
      <path
         stroke="#7e7d7b"
         vector-effect="non-scaling-stroke"
         d="m 28.3,28.99 c 3.348043,0.435986 6.634404,1.335837 9.74,2.66 2.650645,0.472608 4.335473,-2.87269 3.685,-5.158125 -2.147834,-0.316754 -4.690842,0.68458 -7.0175,0.490625 -2.220785,-0.159455 -5.013851,0.282924 -6.865963,-0.816437 -0.0941,-1.236761 1.556649,-0.539843 2.352166,-0.641313 1.578766,0.08508 3.157531,0.170167 4.736297,0.25525 1.027853,-0.300274 0.807938,-1.66412 1.180959,-2.499873 0.345575,-1.529358 0.890438,-3.031858 1.10389,-4.579022 -0.511055,-1.02077 -1.875126,-0.46526 -2.810949,-0.629369 -2.017107,-0.05409 -4.06702,-0.0024 -6.0639,-0.121736 0.308245,-1.635512 3.506936,-0.760596 5.0175,-0.925 2.021948,-0.36089 5.089596,2.106909 6.061069,-0.225635 C 39.055055,15.863607 38.179433,15.259121 37.504375,14.5525 35.835132,14.388793 34.124481,15.306079 32.3875,15.26 30.662233,15.304967 28.803464,15.528428 27.174375,14.885 26.263223,14.359448 25.589457,12.70853 24.42,13.39 c -0.806689,0.960521 -1.456134,2.433499 -2.995,2.089375 -2.715981,0.27605 -5.464906,-0.421028 -8.149263,-0.03218 -2.555798,0.408714 -2.282943,4.928987 0.553169,3.28187 C 16.51448,17.992079 19.357616,17.55744 22.13,17.825 c 0.32327,0.892293 -1.384304,0.442046 -1.956384,0.73183 -2.277872,0.317723 -4.555744,0.635447 -6.833616,0.95317 -1.016834,1.369548 1.357508,3.277184 0.84,5.15 -0.198719,2.04535 2.025347,1.799632 3.365705,1.527261 C 19.32047,25.958174 21.095235,25.729087 22.87,25.5 24.294041,27.143719 19.948544,26.933852 18.598615,27.257428 15.856614,27.630257 13.082862,27.111536 10.35,27.53 c -2.2508037,0.990779 -1.8670577,5.038349 0.637904,5.529316 2.238314,-0.942777 3.963929,-3.016015 6.49442,-3.452138 C 19.363199,29.326302 22.3093,28.427066 23.66,29.9 c 0.08,1.333333 0.16,2.666667 0.24,4 1.452853,3.136855 4.072459,-0.446801 3.730449,-2.476582 C 27.944352,30.772486 27.253614,29.043731 28.3,28.99 Z"
         id="path2" />
      <path
         stroke="#7e7d7b"
         vector-effect="non-scaling-stroke"
         d="m 28.32,19.68 c -0.748136,1.238214 1.413722,0.732443 2.214366,0.896446 1.226377,0.486417 2.634522,-0.826626 0.528759,-0.862696 C 30.151489,19.630866 29.233409,19.620309 28.32,19.68 Z"
         id="path3" />
      <path
         stroke="#7e7d7b"
         vector-effect="non-scaling-stroke"
         d="m 22.49,20.88 c 0.580174,-1.407832 -2.993884,-0.74134 -4.06,-0.66 -0.686222,1.314912 1.469497,0.644991 2.29404,0.73562 C 21.312694,20.93041 21.901347,20.90521 22.49,20.88 Z"
         id="path4" />
      <path
         stroke="#7e7d7b"
         vector-effect="non-scaling-stroke"
         d="m 28.62,22.38 c -1.872871,-0.07155 -0.176376,1.385218 0.907408,0.901037 0.911652,-0.05947 1.876484,0.157453 2.749581,-0.102391 C 32.183727,21.97812 29.527559,22.306272 28.62,22.38 Z"
         id="path5" />
      <path
         stroke="#7e7d7b"
         vector-effect="non-scaling-stroke"
         d="m 18.36,22.85 c -0.586468,0.899285 1.341498,0.461168 1.965036,0.616089 0.827027,-0.147263 2.341283,0.566363 2.521339,-0.498758 C 21.550099,22.388715 19.766108,22.801339 18.36,22.85 Z"
         id="path6" />
    </g>
    <path
       fill="#caa72e"
       fill-opacity="0.996"
       d="M 99.988277,50.125612 C 101.40116,84.152905 62.041719,110.32057 30.987348,96.000104 -1.148392,84.277214 -10.383421,38.081679 14.797442,15.014799 36.146737,-8.0325133 77.463736,-2.4904657 92.723275,24.326085 c 4.735014,7.723239 7.277655,16.752703 7.265002,25.799527 z m -11.399087,0 C 89.033588,30.757167 72.566323,13.03203 53.125721,11.953209 24.805205,8.4136927 1.8632023,41.735828 15.434596,66.7392 26.19342,91.685168 64.125493,95.937722 80.193457,73.999295 85.599917,67.291024 88.612572,58.724379 88.58919,50.125612 Z"
       id="path7"
       style="stroke-width:2.16995" />
    <path
       fill="#000000"
       d="M 88.58919,50.125612 C 89.773846,77.245887 57.452611,97.453149 33.409337,84.6241 8.3380598,73.919056 4.0641409,36.176594 26.112765,20.188943 45.834039,2.9944175 79.644173,13.753033 86.705709,38.293217 c 1.246423,3.813329 1.884598,7.822461 1.883481,11.832395 z m -31.325733,8.636451 c 7.283326,0.94371 14.43247,2.891457 21.188378,5.757634 5.766208,1.022976 9.43138,-6.218007 8.016342,-11.164897 -4.672394,-0.685614 -10.204449,1.481811 -15.265857,1.061981 -4.831091,-0.345156 -10.907123,0.612387 -14.936203,-1.767205 -0.204705,-2.676997 3.386331,-1.168497 5.116898,-1.388131 3.434444,0.184201 6.868887,0.368337 10.303331,0.552495 2.247966,-0.746825 1.809693,-3.780775 2.639887,-5.682936 0.728631,-3.219643 1.889186,-6.381343 2.33057,-9.639514 -1.111748,-2.20946 -4.079146,-1.007067 -6.114933,-1.362265 -4.388011,-0.117096 -8.847389,-0.0043 -13.191397,-0.26351 0.670555,-3.540101 7.628982,-1.646337 10.91506,-2.002184 4.398542,-0.781155 11.071898,4.560458 13.185238,-0.488403 -0.997302,-2.04961 -2.818289,-3.805602 -4.679431,-5.085246 -4.664146,0.752237 -9.384274,2.072768 -14.206116,1.903438 -3.260422,-0.15866 -7.231203,0.409441 -9.476808,-2.490587 -1.466413,-2.119049 -4.266669,-2.89122 -5.477361,-0.154115 -2.095778,4.221666 -7.373546,2.802907 -11.274929,3.014078 -4.870998,0.473057 -11.352619,-2.489636 -14.896453,2.165369 -2.917049,3.772657 1.401137,7.138903 4.960003,4.652082 5.6552,-1.472072 11.623823,-2.353077 17.441573,-1.784932 0.703241,1.931383 -3.011413,0.956828 -4.255914,1.584063 -4.955279,0.687713 -9.910557,1.375447 -14.865837,2.063161 -2.212018,2.964424 2.953121,7.093535 1.827335,11.147298 -0.432293,4.427211 4.405936,3.895344 7.321749,3.305791 3.86082,-0.49587 7.721641,-0.991719 11.582462,-1.48759 3.097857,3.557872 -6.35533,3.103603 -9.291963,3.804 -5.964945,0.806999 -11.998959,-0.315783 -17.944023,0.589984 -4.896395,2.144567 -4.061594,10.905631 1.387695,11.968347 4.991874,-2.315521 9.12273,-6.764982 14.890912,-7.667784 3.794638,-0.321864 10.528701,-2.554159 12.69285,1.109752 0.168399,2.792561 0.336794,5.585143 0.50519,8.377704 3.160533,6.789788 8.85922,-0.967109 8.115211,-5.360617 0.682864,-1.408954 -0.819766,-5.150897 1.456541,-5.267196 z"
       id="path8"
       style="stroke-width:2.16995" />
    <path
       fill="#fbf9f5"
       d="m 56.110495,59.692808 c -0.181384,4.492167 -0.338664,14.034839 -7.236705,11.86958 -2.008704,-2.73715 -1.14215,-6.290974 -1.62168,-9.462456 0.256802,-4.723879 -6.662024,-2.542732 -9.632669,-2.763686 -5.874559,0.678362 -11.403425,3.414515 -15.72796,7.391266 -6.335491,3.041567 -9.206216,-7.28224 -4.715176,-10.725218 5.939851,-1.708999 12.253581,-0.04394 18.338608,-0.933451 3.48971,-0.964057 10.180536,0.322493 11.041938,-3.450662 -2.406125,-0.80555 -5.037246,0.33931 -7.545227,0.416735 -3.598324,0.242924 -7.245534,1.4635 -10.807748,0.799402 -3.024796,-2.863232 -0.87969,-8.158546 -3.767519,-11.47029 -2.537623,-3.342263 2.246491,-3.43577 4.477005,-3.703695 5.046813,-0.727432 10.164442,-1.356767 15.167181,-2.14526 -2.099001,-2.522775 -7.504308,-0.462451 -10.828044,-0.551954 -4.315584,-0.415956 -11.343195,5.279102 -12.724584,-0.533749 0.457633,-5.877853 7.482511,-5.786012 11.827232,-5.012844 4.703399,-0.546023 11.25678,2.082446 14.614127,-2.045497 1.109083,-2.139892 3.610454,-3.985301 5.332549,-1.398781 1.818498,2.165001 4.357583,3.406788 7.251729,3.14159 5.615854,0.374182 11.242996,-0.434636 16.656263,-1.883482 2.046571,0.383252 3.079629,2.56652 4.613204,3.825796 1.502156,6.821823 -7.440908,1.56361 -11.26083,1.922531 -4.086599,-0.230933 -8.548475,-0.698751 -12.399047,0.66031 -0.171465,2.439591 3.279768,0.905118 4.834199,1.374473 4.586091,0.16775 9.225498,-0.08766 13.777765,0.34838 1.894647,1.623371 -0.07183,4.171125 -0.262145,6.213613 -0.79695,3.059295 -1.593901,6.118569 -2.390852,9.177864 -1.369516,1.93885 -4.158833,0.587842 -6.227867,0.803644 -3.246518,-0.174027 -6.493037,-0.348163 -9.739556,-0.522256 -3.212116,4.156385 7.106536,2.689812 9.625353,3.353433 6.375097,0.2676 12.748574,-0.42704 19.013766,-1.52034 2.551172,3.556638 -0.230497,9.616179 -4.165889,11.478731 -4.873803,0.799576 -9.356437,-2.937259 -14.24822,-3.607872 -3.304617,-0.207794 -8.847843,-3.326701 -11.269201,-1.045855 z m 1.19647,-21.082466 c -1.627494,2.680136 3.075407,1.585385 4.817127,1.940388 2.667858,1.052846 5.731135,-1.78926 1.150261,-1.867335 -1.98317,-0.179439 -3.980361,-0.202167 -5.967388,-0.07294 z m -12.682572,2.597429 c 1.262109,-3.047281 -6.512891,-1.604648 -8.832118,-1.428586 -1.57353,2.860636 2.99942,1.403695 4.708413,1.604281 1.374569,-0.05866 2.749136,-0.117095 4.123705,-0.175759 z m 13.335191,3.246786 c -4.07424,-0.154763 -0.383688,2.998343 1.973974,1.950324 1.983206,-0.128796 4.0821,0.340803 5.981433,-0.221626 -0.202878,-2.598576 -5.981105,-1.888287 -7.955407,-1.728698 z m -22.319586,1.017326 c -0.908152,2.0129 3.278328,0.974491 4.8389,1.355492 1.576704,-0.02771 6.293615,0.884381 4.189003,-1.571943 -3.007541,-0.20195 -6.033637,-0.129656 -9.027903,0.216451 z"
       id="path9"
       style="stroke-width:2.16995" />
    <path
       fill="#000000"
       d="m 57.306965,38.610342 c 2.121972,0.157145 9.891213,-1.033625 7.787925,2.056298 -2.588724,-0.101077 -5.177448,-0.201949 -7.766171,-0.303033 l -0.764292,-0.867368 z"
       id="path10"
       style="stroke-width:2.16995" />
    <path
       fill="#000000"
       d="m 44.624393,41.207771 c -2.878777,0.122733 -5.757556,0.245306 -8.636331,0.36797 -1.776844,-3.420057 6.289833,-2.006146 8.723346,-1.861492 0.831239,0.123159 0.752954,1.466812 -0.08702,1.493522 z"
       id="path11"
       style="stroke-width:2.16995" />
    <path
       fill="#000000"
       d="m 57.959584,44.454557 c 2.01347,-1.258973 11.219354,0.957911 6.180182,1.982683 -2.437132,-0.01948 -4.87426,-0.03744 -7.311389,-0.05628 -2.048866,-0.463187 -0.260785,-2.982498 1.131207,-1.926426 z"
       id="path12"
       style="stroke-width:2.16995" />
    <path
       fill="#000000"
       d="m 35.639998,45.471883 c 3.040426,0.138963 8.392115,-1.731229 9.716148,1.119731 -1.961979,0.856221 -4.299577,0.01948 -6.416898,0.17576 -0.985211,-0.256735 -4.832338,0.511239 -3.29925,-1.295491 z"
       id="path13"
       style="stroke-width:2.16995" />
  </g>
</svg>
