<?xml version="1.0" encoding="UTF-8" standalone="no"?>
<!-- Created with Inkscape (http://www.inkscape.org/) -->

<svg
   width="100"
   height="100"
   id="svg2"
   sodipodi:version="0.32"
   inkscape:version="1.3 (0e150ed6c4, 2023-07-21)"
   version="1.0"
   sodipodi:docname="wa.svg"
   inkscape:output_extension="org.inkscape.output.svg.inkscape"
   xmlns:inkscape="http://www.inkscape.org/namespaces/inkscape"
   xmlns:sodipodi="http://sodipodi.sourceforge.net/DTD/sodipodi-0.dtd"
   xmlns:xlink="http://www.w3.org/1999/xlink"
   xmlns="http://www.w3.org/2000/svg"
   xmlns:svg="http://www.w3.org/2000/svg"
   xmlns:rdf="http://www.w3.org/1999/02/22-rdf-syntax-ns#"
   xmlns:cc="http://creativecommons.org/ns#"
   xmlns:dc="http://purl.org/dc/elements/1.1/">
  <defs
     id="defs4">
    <linearGradient
       id="linearGradient3214">
      <stop
         style="stop-color:#c6c600;stop-opacity:1;"
         offset="0"
         id="stop3216" />
      <stop
         style="stop-color:#ffff00;stop-opacity:1;"
         offset="1"
         id="stop3218" />
    </linearGradient>
    <linearGradient
       id="linearGradient3202">
      <stop
         style="stop-color:#ff0000;stop-opacity:1;"
         offset="0"
         id="stop3204" />
      <stop
         style="stop-color:#bd0000;stop-opacity:1;"
         offset="1"
         id="stop3206" />
    </linearGradient>
    <linearGradient
       id="linearGradient3194">
      <stop
         style="stop-color:#dedede;stop-opacity:1;"
         offset="0"
         id="stop3196" />
      <stop
         style="stop-color:#989898;stop-opacity:1;"
         offset="1"
         id="stop3198" />
    </linearGradient>
    <inkscape:perspective
       sodipodi:type="inkscape:persp3d"
       inkscape:vp_x="0 : 556.18109 : 1"
       inkscape:vp_y="0 : 1000 : 0"
       inkscape:vp_z="744.09448 : 556.18109 : 1"
       inkscape:persp3d-origin="372.04724 : 380.78739 : 1"
       id="perspective10" />
    <linearGradient
       inkscape:collect="always"
       xlink:href="#linearGradient3202"
       id="linearGradient3208"
       x1="42.241379"
       y1="32.741379"
       x2="115.51724"
       y2="62.051723"
       gradientUnits="userSpaceOnUse"
       gradientTransform="translate(-32.758621,-3.8793108)" />
  </defs>
  <sodipodi:namedview
     id="base"
     pagecolor="#ffffff"
     bordercolor="#666666"
     borderopacity="1.0"
     gridtolerance="10000"
     guidetolerance="10"
     objecttolerance="10"
     inkscape:pageopacity="0.0"
     inkscape:pageshadow="2"
     inkscape:zoom="2.32"
     inkscape:cx="29.956897"
     inkscape:cy="90.301724"
     inkscape:document-units="px"
     inkscape:current-layer="layer1"
     showgrid="false"
     inkscape:window-width="1366"
     inkscape:window-height="715"
     inkscape:window-x="144"
     inkscape:window-y="892"
     inkscape:showpageshadow="2"
     inkscape:pagecheckerboard="0"
     inkscape:deskcolor="#d1d1d1"
     inkscape:window-maximized="1" />
  <metadata
     id="metadata7">
    <rdf:RDF>
      <cc:Work
         rdf:about="">
        <dc:format>image/svg+xml</dc:format>
        <dc:type
           rdf:resource="http://purl.org/dc/dcmitype/StillImage" />
      </cc:Work>
    </rdf:RDF>
  </metadata>
  <g
     inkscape:label="Layer 1"
     inkscape:groupmode="layer"
     id="layer1">
    <g
       stroke-width="2"
       fill="none"
       stroke-linecap="butt"
       id="g3"
       transform="matrix(2.1759855,0,0,2.172771,-4.8188013,-4.5582021)">
      <path
         stroke="#e4d192"
         vector-effect="non-scaling-stroke"
         d="m 7.96,21.19 c 0.041575,0.153338 -0.051618,0.899044 -0.25,0.3"
         id="path1" />
      <path
         stroke="#c25b1e"
         vector-effect="non-scaling-stroke"
         d="m 7.71,21.49 c -1.2506386,3.308877 -0.1004346,6.878665 0.9816412,10.067633 2.0768918,5.756302 7.3517658,10.294224 13.5015418,10.987123 8.36748,1.215616 17.570966,-3.88367 19.932359,-12.216263 C 43.563398,25.13457 42.666579,19.258934 39.676254,14.766281 35.218585,8.3053123 26.339176,5.7346098 18.988667,8.2243921 13.195984,9.9996093 9.2477848,15.375527 7.635,21.0025 7.6519539,21.130791 7.9909209,21.635378 7.96,21.19"
         id="path2" />
      <path
         stroke="#da8482"
         vector-effect="non-scaling-stroke"
         d="m 7.71,21.49 c 0.1322274,2.49226 2.1806117,4.808785 4.82125,4.423125 0.938491,1.671274 0.270654,4.04402 0.62375,5.974375 -0.318333,2.029646 1.814186,6.266424 3.595,3.0525 0.519952,-2.508889 -0.167233,-5.273568 0.754397,-7.631074 1.704938,-1.64163 4.311134,-1.77104 6.548103,-1.760176 0.641596,0.629262 0.275803,1.748263 0.448712,2.594561 C 24.559022,30.201877 21.29544,28.954486 20.04,30.04 16.964436,30.996082 19.133251,35.80715 21.837852,33.765859 26.497897,31.909773 31.850629,32.067563 36.44,34.06 c 3.395934,0.391366 2.180825,-4.820165 -0.4975,-4.9075 -2.301525,-0.860031 -7.363981,1.144359 -6.327343,-3.020263 2.536482,-1.811366 5.922856,-0.604693 8.573884,0.369784 2.723238,0.932528 4.831216,-4.027402 3.011498,-5.303093 C 37.763693,21.435952 34.326846,21.672976 30.89,21.91 28.740731,21.763179 29.090335,19.441341 28.724842,17.946454 28.920552,15.847369 25.475361,14.91072 24.80125,17.08375 23.763777,18.627536 25.119117,21.990164 22.54538,21.948722 21.163587,22.089148 19.781793,22.229574 18.4,22.37 c -1.257373,-1.270255 1.386571,-3.403451 1.305625,-5.219687 0.921837,-1.423337 0.0069,-4.731622 -1.749828,-2.618274 C 15.589224,17.809408 12.562231,21.856984 7.96,21.19"
         id="path3" />
    </g>
    <path
       fill="#cca82e"
       fill-opacity="0.996"
       d="M 99.49794,49.761076 C 100.9112,83.918016 61.541139,110.18539 30.478385,95.810342 -1.6660282,84.042798 -10.90355,37.67125 14.28411,14.516491 c 21.355057,-23.1351325 62.683199,-17.5719626 77.946865,9.34677 4.736293,7.752654 7.279629,16.81653 7.266965,25.897815 z M 12.502043,41.482817 c -1.526279,2.242737 -2.439784,8.219837 -1.193807,12.402497 2.082508,13.277771 9.985409,26.365026 22.890333,31.49933 C 53.632245,93.633368 79.147537,83.478645 86.215268,63.271033 90.186464,51.762664 88.404353,38.411319 81.938935,28.145138 72.53772,13.89983 53.301676,7.964617 37.215754,13.085867 24.265922,16.732179 15.351901,28.604017 11.794848,41.075423 c 0.03688,0.278747 0.774479,1.375099 0.707195,0.407394 z"
       id="path4"
       style="stroke-width:2.17437" />
    <path
       fill="#b80e0e"
       d="m 11.958047,42.134648 c 0.287723,5.415111 4.74498,10.448389 10.49097,9.610439 2.042142,3.631295 0.588939,8.786729 1.35727,12.980949 -0.692687,4.409957 3.947643,13.615505 7.822667,6.632383 1.131409,-5.451241 -0.363895,-11.458256 1.641557,-16.580576 3.709921,-3.566886 9.380966,-3.848065 14.248577,-3.82446 1.396103,1.367243 0.600143,3.798575 0.976391,5.637387 0.125794,4.472793 -6.975713,1.762498 -9.707532,4.121071 -6.692382,2.077347 -1.973073,12.530697 3.912099,8.095439 10.140191,-4.03285 21.787658,-3.690008 31.774062,0.639101 7.389494,0.850349 4.745454,-10.473116 -1.082553,-10.662873 -5.008085,-1.868651 -16.023916,2.486429 -13.768207,-6.562341 5.519349,-3.935684 12.888042,-1.313859 18.656645,0.803456 5.925731,2.02617 10.512665,-8.750623 6.552981,-11.522407 -7.478536,0.514999 -14.957059,1.029997 -22.435585,1.544996 -4.676778,-0.319008 -3.916044,-5.363831 -4.711353,-8.611877 0.425863,-4.560831 -7.070822,-6.595956 -8.537679,-1.874459 -2.257525,3.354293 0.691675,10.660515 -4.908739,10.570471 -3.006763,0.305114 -6.013526,0.610227 -9.020287,0.915341 -2.736026,-2.759975 3.017158,-7.394921 2.84102,-11.341185 1.900637,-3.040607 0.182609,-10.363471 -3.8076,-5.688911 C 29.430888,33.617839 23.589,41.690766 14.489053,41.60635 8.6509626,42.706974 14.776141,34.593034 15.594227,31.752446 20.825775,21.084443 31.324924,13.107605 43.244936,11.759968 60.548393,8.8238584 79.780096,18.678371 85.652231,35.563717 90.314824,48.334857 89.104542,63.795004 79.829121,74.25557 66.741365,89.856869 40.701818,93.362494 24.979355,79.734076 15.769908,71.789521 11.067222,59.465664 10.744256,47.513954 10.9006,45.675636 11.356979,43.874849 11.958047,42.134648 Z"
       id="path5"
       style="stroke-width:2.17437" />
    <path
       fill="#fbf9f5"
       d="m 11.958047,42.134648 c 2.309228,-0.536526 9.827172,-0.843637 13.061344,-4.486672 5.08762,-3.004947 6.876992,-10.757692 12.442985,-12.063425 3.767139,5.408902 -2.221764,12.383859 -3.378948,17.917031 2.15326,1.076116 4.698646,-0.08361 7.035367,-0.05354 2.311308,-0.56983 5.833443,0.475573 6.655972,-2.464965 -0.08179,-4.336677 0.861303,-13.16608 7.22705,-10.669042 3.29583,1.118842 2.512613,4.99406 3.250663,7.70005 -0.126534,3.608354 3.344041,5.708798 6.680252,4.858531 6.727305,-0.463266 13.454624,-0.926534 20.181945,-1.389802 3.504815,3.575495 -1.295996,14.031597 -7.441088,11.362933 -5.721405,-2.155512 -16.367866,-5.720042 -18.741498,2.048251 2.622985,6.094289 10.124587,1.72158 15.079576,4.071356 5.816257,0.576106 7.334029,12.401104 -0.07006,10.263184 -10.566104,-4.472511 -22.902226,-4.310747 -33.347585,0.435117 -8.822943,0.439026 -4.663758,-10.963072 2.063488,-10.103206 3.53282,0.09443 7.022369,-0.869665 5.734246,-4.900651 0.793832,-3.613307 -2.268184,-4.65291 -5.460931,-3.561113 -4.256216,0.506201 -10.996522,1.719517 -10.622293,7.289308 -0.79042,5.140183 1.582553,12.641248 -3.394467,15.651511 C 23.159553,72.811812 24.087901,65.432799 23.611186,60.904872 23.054532,57.255585 25.21327,50.079886 19.009012,51.46466 14.58833,50.659785 12.469257,46.175574 11.958054,42.134646 Z"
       id="path6"
       style="stroke-width:2.17437" />
  </g>
</svg>
