<?xml version="1.0" encoding="UTF-8" standalone="no"?>
<!-- Created with Inkscape (http://www.inkscape.org/) -->

<svg
   width="100"
   height="100"
   id="svg2"
   sodipodi:version="0.32"
   inkscape:version="1.3 (0e150ed6c4, 2023-07-21)"
   version="1.0"
   sodipodi:docname="wb.svg"
   inkscape:output_extension="org.inkscape.output.svg.inkscape"
   xmlns:inkscape="http://www.inkscape.org/namespaces/inkscape"
   xmlns:sodipodi="http://sodipodi.sourceforge.net/DTD/sodipodi-0.dtd"
   xmlns:xlink="http://www.w3.org/1999/xlink"
   xmlns="http://www.w3.org/2000/svg"
   xmlns:svg="http://www.w3.org/2000/svg"
   xmlns:rdf="http://www.w3.org/1999/02/22-rdf-syntax-ns#"
   xmlns:cc="http://creativecommons.org/ns#"
   xmlns:dc="http://purl.org/dc/elements/1.1/">
  <defs
     id="defs4">
    <linearGradient
       id="linearGradient3214">
      <stop
         style="stop-color:#c6c600;stop-opacity:1;"
         offset="0"
         id="stop3216" />
      <stop
         style="stop-color:#ffff00;stop-opacity:1;"
         offset="1"
         id="stop3218" />
    </linearGradient>
    <linearGradient
       id="linearGradient3202">
      <stop
         style="stop-color:#ff0000;stop-opacity:1;"
         offset="0"
         id="stop3204" />
      <stop
         style="stop-color:#bd0000;stop-opacity:1;"
         offset="1"
         id="stop3206" />
    </linearGradient>
    <linearGradient
       id="linearGradient3194">
      <stop
         style="stop-color:#dedede;stop-opacity:1;"
         offset="0"
         id="stop3196" />
      <stop
         style="stop-color:#989898;stop-opacity:1;"
         offset="1"
         id="stop3198" />
    </linearGradient>
    <inkscape:perspective
       sodipodi:type="inkscape:persp3d"
       inkscape:vp_x="0 : 556.18109 : 1"
       inkscape:vp_y="0 : 1000 : 0"
       inkscape:vp_z="744.09448 : 556.18109 : 1"
       inkscape:persp3d-origin="372.04724 : 380.78739 : 1"
       id="perspective10" />
    <linearGradient
       inkscape:collect="always"
       xlink:href="#linearGradient3202"
       id="linearGradient3208"
       x1="42.241379"
       y1="32.741379"
       x2="115.51724"
       y2="62.051723"
       gradientUnits="userSpaceOnUse"
       gradientTransform="translate(-32.758621,-3.8793108)" />
  </defs>
  <sodipodi:namedview
     id="base"
     pagecolor="#ffffff"
     bordercolor="#666666"
     borderopacity="1.0"
     gridtolerance="10000"
     guidetolerance="10"
     objecttolerance="10"
     inkscape:pageopacity="0.0"
     inkscape:pageshadow="2"
     inkscape:zoom="2.32"
     inkscape:cx="24.784483"
     inkscape:cy="81.681035"
     inkscape:document-units="px"
     inkscape:current-layer="layer1"
     showgrid="false"
     inkscape:window-width="1366"
     inkscape:window-height="715"
     inkscape:window-x="144"
     inkscape:window-y="892"
     inkscape:showpageshadow="2"
     inkscape:pagecheckerboard="0"
     inkscape:deskcolor="#d1d1d1"
     inkscape:window-maximized="1" />
  <metadata
     id="metadata7">
    <rdf:RDF>
      <cc:Work
         rdf:about="">
        <dc:format>image/svg+xml</dc:format>
        <dc:type
           rdf:resource="http://purl.org/dc/dcmitype/StillImage" />
      </cc:Work>
    </rdf:RDF>
  </metadata>
  <g
     inkscape:label="Layer 1"
     inkscape:groupmode="layer"
     id="layer1">
    <g
       stroke-width="2"
       fill="none"
       stroke-linecap="butt"
       id="g5"
       transform="matrix(2.1665775,0,0,2.1540067,-4.5055582,-3.8808535)">
      <path
         stroke="#c25b1e"
         vector-effect="non-scaling-stroke"
         d="M 42.8,25 C 43.005438,16.00129 35.392876,7.7660666 26.405787,7.2648406 13.313652,5.6203497 2.7079189,21.102047 8.9817638,32.718792 13.955402,44.308855 31.490812,46.284621 38.918782,36.091884 41.418105,32.975168 42.810809,28.995049 42.8,25 Z"
         id="path1" />
      <path
         stroke="#da8482"
         vector-effect="non-scaling-stroke"
         d="m 15.81,22.21 c -1.55001,2.569038 -4.828954,3.073067 -7.24625,3.671875 0.4172033,1.428046 0.4558955,3.586834 2.431569,3.674677 1.675493,-0.55285 2.730361,-2.087845 4.087081,-3.145155 0.812042,-1.181867 2.025302,-0.938774 1.594397,0.757548 0.451451,2.535922 -0.717881,5.722863 1.011172,7.801524 2.035178,0.954926 2.601477,-1.402229 2.34521,-2.917212 -0.0077,-2.057752 -0.01545,-4.115505 -0.02318,-6.173257 0.681558,-1.014508 1.743048,0.461365 2.57563,0.777339 1.744054,0.561646 1.193515,-3.364023 -0.211333,-3.834409 -1.560664,-0.396261 -0.993183,-1.534297 0.292457,-1.019556 0.806433,0.128004 2.164861,0.05641 1.874047,1.265587 0.06973,3.350346 0.139466,6.700693 0.209199,10.051039 1.024265,3.264188 4.416077,-0.318958 6.691445,0.05597 2.400936,-0.275756 4.727667,0.554218 6.876055,1.504033 3.061652,-0.873805 1.982752,-4.391329 2.159453,-6.731016 C 40.507484,24.959182 40.643347,21.970547 40.88,18.99 39.974554,15.022659 35.254066,17.773548 32.382842,17.254053 29.919677,17.38007 27.441236,16.92319 25.015,16.8625 c -0.699002,1.837059 -3.836234,2.751362 -4.695,0.6675 -0.157317,-1.409514 0.166868,-2.916662 -0.487075,-4.225474 -2.901378,-1.958793 -3.591279,2.465852 -3.08605,4.429849 -0.418063,1.596682 -2.357874,0.912819 -3.570972,0.957376 -1.309064,0.01399 -2.672387,-0.33292 -3.940903,-0.03925 -0.7022621,1.134391 -1.4385554,3.755955 0.7340858,3.704208 1.9511482,-0.180767 3.8988762,-0.441762 5.8521642,-0.572333 0.257537,0.01775 0.08106,0.359634 -0.01125,0.425625 z"
         id="path2" />
      <path
         stroke="#da8482"
         vector-effect="non-scaling-stroke"
         d="M 36.2708,20.4378 C 35.956595,19.401176 34.566335,19.999882 33.738424,19.83012 32.127316,19.81888 30.516208,19.80764 28.9051,19.7964 c -1.616851,0.884831 0.391238,1.801677 1.417416,1.449859 1.784128,0.01245 3.568256,0.02489 5.352384,0.03734 0.480479,0.02232 0.634783,-0.473407 0.5959,-0.8458 z"
         id="path3" />
      <path
         stroke="#da8482"
         vector-effect="non-scaling-stroke"
         d="m 36.2803,25.3872 c -0.286208,-1.140869 -1.751809,-0.534785 -2.621776,-0.698383 -1.491108,-0.01041 -2.982216,-0.02081 -4.473324,-0.03122 -1.853229,0.98857 0.620658,1.783427 1.676746,1.471772 1.577618,0.01101 3.155236,0.02202 4.732854,0.03303 0.43656,0.0322 0.708326,-0.398269 0.6855,-0.7752 z"
         id="path4" />
      <path
         stroke="#da8482"
         vector-effect="non-scaling-stroke"
         d="m 36.2308,29.6367 c -0.268959,-1.069525 -1.633232,-0.4892 -2.442311,-0.646989 -1.527696,-0.01067 -3.055393,-0.02134 -4.583089,-0.03201 -1.737051,0.960757 0.459511,1.86812 1.546581,1.530776 1.614206,0.01128 3.228413,0.02255 4.842619,0.03382 0.504915,0.02539 0.672204,-0.491673 0.6362,-0.8856 z"
         id="path5" />
    </g>
    <path
       fill="#cca82e"
       fill-opacity="0.996"
       d="M 99.36017,49.969315 C 100.76732,83.831271 61.567474,109.87179 30.639021,95.620905 -1.3664166,83.954976 -10.564,37.983905 14.514761,15.029108 35.777491,-7.9062183 76.926949,-2.3910994 92.124623,24.29515 c 4.715816,7.685711 7.248156,16.6713 7.235547,25.674165 z m -11.136209,0 C 88.669063,30.586033 72.175853,12.847314 52.704628,11.767661 24.339502,8.2254183 1.3613592,41.573105 14.95413,66.595642 25.729902,91.56073 63.721728,95.816531 79.814996,73.861301 85.229989,67.147886 88.247381,58.57468 88.223961,49.969315 Z"
       id="path6"
       style="stroke-width:2.16029" />
    <path
       fill="#b80e0e"
       d="M 88.223961,49.969315 C 89.410487,77.110383 57.038333,97.333124 32.957185,84.494252 7.8464154,73.780999 3.5657648,36.009607 25.64912,20.00971 45.401458,2.8019956 79.264859,13.568863 86.337522,38.127857 c 1.248382,3.816254 1.887566,7.828458 1.886439,11.841458 z M 29.748033,43.959637 c -3.358217,5.533729 -10.462303,6.619414 -15.699562,7.909254 0.903902,3.076008 0.987733,7.726057 5.268183,7.915264 3.630085,-1.190843 5.915539,-4.497222 8.854978,-6.774674 1.759351,-2.545757 4.387973,-2.022139 3.454385,1.631767 0.978102,5.462389 -1.555346,12.32708 2.190782,16.804527 4.232686,2.020954 5.706078,-2.789632 5.082135,-6.004186 -0.01712,-4.525568 -0.03419,-9.051158 -0.05128,-13.576747 1.476648,-2.185262 3.776449,0.993772 5.580302,1.674396 3.778628,1.209776 2.585843,-7.246122 -0.457869,-8.259346 -3.3813,-0.853547 -2.151808,-3.304893 0.63363,-2.196139 1.747199,0.275734 4.69034,0.121487 4.060269,2.72609 0.151074,7.216675 0.302164,14.433331 0.453245,21.650008 2.21915,7.031087 9.567773,-0.687042 14.497535,0.120619 5.201814,-0.59399 10.242852,1.193771 14.897507,3.239691 6.633301,-1.882193 4.29578,-9.458955 4.678615,-14.498663 0.06607,-6.44005 0.360518,-12.87758 0.873238,-19.297704 C 82.1024,28.478123 71.875105,34.403559 65.654375,33.284551 60.317737,33.556 54.948003,32.571876 49.691374,32.44115 c -1.514441,3.957039 -8.311498,5.926449 -10.172081,1.4378 -0.340839,-3.036095 0.361532,-6.282506 -1.055286,-9.101691 -6.286061,-4.219269 -7.780784,5.311458 -6.686167,9.541927 -0.905765,3.439259 -5.108516,1.966199 -7.736787,2.062181 -2.836188,0.03016 -5.789933,-0.717112 -8.538273,-0.08465 -1.521505,2.443483 -3.11674,8.090341 1.590455,7.978893 4.227314,-0.38938 8.447218,-0.951554 12.679167,-1.232803 0.557975,0.03834 0.175623,0.774646 -0.02437,0.916789 z"
       id="path7"
       style="stroke-width:2.16029" />
    <path
       fill="#fcf9f5"
       d="m 29.228054,43.033414 c -4.138163,0.423629 -8.276325,0.847235 -12.414489,1.270864 -4.372171,-0.159397 -2.976779,-6.461008 -0.750178,-8.25926 4.6091,-0.102743 9.248243,0.767172 13.840368,0.37426 4.577273,-2.684389 -1.666479,-12.897332 6.652588,-12.805269 3.870608,1.501343 2.471222,5.910272 2.920151,9.108799 -0.530417,4.176748 6.355152,4.888584 8.391236,2.080038 2.429982,-5.134786 9.03838,-0.562583 13.396898,-1.56243 5.875082,0.19623 11.767313,-0.160473 17.578052,-1.041656 8.746279,1.337208 3.603538,11.907608 4.479442,18.004588 -0.341799,5.45974 0.138445,10.976064 -0.299291,16.404313 -2.351841,7.125346 -8.696252,1.909052 -13.4757,1.21878 -5.737184,-1.122862 -11.50173,0.573117 -16.708319,2.851539 -4.168153,0.292428 -3.798367,-4.304934 -3.803483,-7.130581 -0.177291,-6.433997 -0.184636,-12.883266 -0.467861,-19.307741 -1.397753,-1.36312 -3.842759,-0.876982 -5.693987,-1.412856 -3.535736,1.412856 4.661317,3.069049 3.742543,6.617043 1.040345,3.803158 -1.536456,5.680203 -4.14461,2.867845 -1.90318,-2.068277 -4.376907,-1.046266 -3.61531,1.789312 0.01885,4.991458 0.0377,9.982895 0.05654,14.974353 -2.024624,6.264132 -8.788124,0.805578 -7.020387,-3.818989 -0.896273,-4.333668 1.353252,-11.635729 -1.667589,-14.080807 -2.845438,2.541729 -5.690877,5.083456 -8.536315,7.625185 -4.808918,3.383168 -6.818642,-2.56889 -7.497056,-6.143293 0.609524,-3.353982 7.603851,-0.811716 10.008679,-3.800981 1.092197,-0.78533 7.656273,-5.014765 5.028067,-5.823056 z m 44.849889,-2.891108 c -0.607086,-2.206953 -3.493869,-0.959567 -5.205443,-1.306987 -3.584306,-0.02477 -7.168611,-0.04975 -10.752918,-0.07453 -3.596035,2.073296 1.110085,3.797987 3.352088,3.124946 3.771736,0.02606 7.543473,0.05234 11.31521,0.0784 1.044484,0.04975 1.365593,-1.018695 1.291063,-1.821859 z m 0.0195,10.661041 c -0.620093,-2.457441 -3.795431,-1.15192 -5.680282,-1.504315 -3.230601,-0.02241 -6.461201,-0.0448 -9.691802,-0.0672 -4.049425,2.414383 1.592821,3.750018 3.913945,3.172163 3.324317,0.02304 6.648633,0.0461 9.97295,0.06914 l 1.04481,-0.42169 0.438862,-1.032694 v 0 z m -0.107254,9.153451 c -0.653584,-2.334167 -3.738687,-1.035065 -5.572601,-1.39558 -3.216157,-0.02241 -6.432315,-0.04458 -9.648472,-0.06699 -3.665149,1.895677 0.733439,4.105408 3.069643,3.295351 3.591016,0.02499 7.182037,0.04975 10.773054,0.07474 1.093927,0.05471 1.456374,-1.059061 1.378376,-1.907589 z"
       id="path8"
       style="stroke-width:2.16029" />
    <rect
       fill="#b80e0e"
       x="57.112053"
       y="38.356304"
       transform="matrix(0.99997591,0.00694075,-0.007022,0.99997535,0,0)"
       width="17.245955"
       height="3.1017706"
       rx="1.2782803"
       id="rect8"
       style="stroke-width:2.16028" />
    <rect
       fill="#b80e0e"
       x="57.597366"
       y="48.823009"
       transform="matrix(0.99997591,0.00694075,-0.007022,0.99997535,0,0)"
       width="16.85597"
       height="3.1448512"
       rx="1.4732723"
       id="rect9"
       style="stroke-width:2.16028" />
    <rect
       fill="#b80e0e"
       x="57.814518"
       y="58.08485"
       transform="matrix(0.99997591,0.00694075,-0.007022,0.99997535,0,0)"
       width="16.595978"
       height="3.2740912"
       rx="1.3649435"
       id="rect10"
       style="stroke-width:2.16028" />
  </g>
</svg>
