<?xml version="1.0" encoding="UTF-8" standalone="no"?>
<!-- Created with Inkscape (http://www.inkscape.org/) -->

<svg
   width="100"
   height="100"
   id="svg2"
   sodipodi:version="0.32"
   inkscape:version="1.3 (0e150ed6c4, 2023-07-21)"
   version="1.0"
   sodipodi:docname="wc.svg"
   inkscape:output_extension="org.inkscape.output.svg.inkscape"
   xmlns:inkscape="http://www.inkscape.org/namespaces/inkscape"
   xmlns:sodipodi="http://sodipodi.sourceforge.net/DTD/sodipodi-0.dtd"
   xmlns:xlink="http://www.w3.org/1999/xlink"
   xmlns="http://www.w3.org/2000/svg"
   xmlns:svg="http://www.w3.org/2000/svg"
   xmlns:rdf="http://www.w3.org/1999/02/22-rdf-syntax-ns#"
   xmlns:cc="http://creativecommons.org/ns#"
   xmlns:dc="http://purl.org/dc/elements/1.1/">
  <defs
     id="defs4">
    <linearGradient
       id="linearGradient3214">
      <stop
         style="stop-color:#c6c600;stop-opacity:1;"
         offset="0"
         id="stop3216" />
      <stop
         style="stop-color:#ffff00;stop-opacity:1;"
         offset="1"
         id="stop3218" />
    </linearGradient>
    <linearGradient
       id="linearGradient3202">
      <stop
         style="stop-color:#ff0000;stop-opacity:1;"
         offset="0"
         id="stop3204" />
      <stop
         style="stop-color:#bd0000;stop-opacity:1;"
         offset="1"
         id="stop3206" />
    </linearGradient>
    <linearGradient
       id="linearGradient3194">
      <stop
         style="stop-color:#dedede;stop-opacity:1;"
         offset="0"
         id="stop3196" />
      <stop
         style="stop-color:#989898;stop-opacity:1;"
         offset="1"
         id="stop3198" />
    </linearGradient>
    <inkscape:perspective
       sodipodi:type="inkscape:persp3d"
       inkscape:vp_x="0 : 556.18109 : 1"
       inkscape:vp_y="0 : 1000 : 0"
       inkscape:vp_z="744.09448 : 556.18109 : 1"
       inkscape:persp3d-origin="372.04724 : 380.78739 : 1"
       id="perspective10" />
    <linearGradient
       inkscape:collect="always"
       xlink:href="#linearGradient3202"
       id="linearGradient3208"
       x1="42.241379"
       y1="32.741379"
       x2="115.51724"
       y2="62.051723"
       gradientUnits="userSpaceOnUse"
       gradientTransform="translate(-32.758621,-3.8793108)" />
  </defs>
  <sodipodi:namedview
     id="base"
     pagecolor="#ffffff"
     bordercolor="#666666"
     borderopacity="1.0"
     gridtolerance="10000"
     guidetolerance="10"
     objecttolerance="10"
     inkscape:pageopacity="0.0"
     inkscape:pageshadow="2"
     inkscape:zoom="3.2809755"
     inkscape:cx="33.679008"
     inkscape:cy="72.387009"
     inkscape:document-units="px"
     inkscape:current-layer="layer1"
     showgrid="false"
     inkscape:window-width="1366"
     inkscape:window-height="715"
     inkscape:window-x="144"
     inkscape:window-y="892"
     inkscape:showpageshadow="2"
     inkscape:pagecheckerboard="0"
     inkscape:deskcolor="#d1d1d1"
     inkscape:window-maximized="1" />
  <metadata
     id="metadata7">
    <rdf:RDF>
      <cc:Work
         rdf:about="">
        <dc:format>image/svg+xml</dc:format>
        <dc:type
           rdf:resource="http://purl.org/dc/dcmitype/StillImage" />
      </cc:Work>
    </rdf:RDF>
  </metadata>
  <g
     inkscape:label="Layer 1"
     inkscape:groupmode="layer"
     id="layer1">
    <g
       stroke-width="2"
       fill="none"
       stroke-linecap="butt"
       id="g4"
       transform="matrix(2.1774709,0,0,2.1676183,-4.5529477,-4.2788793)">
      <path
         stroke="#c25b1e"
         vector-effect="non-scaling-stroke"
         d="M 42.79,25 C 42.995322,16.006348 35.38704,7.7757541 26.405003,7.2748098 13.320226,5.6312433 2.7204552,21.104238 8.9907735,32.714453 13.961616,44.298001 31.487169,46.272657 38.910964,36.085649 41.408882,32.970685 42.800803,28.992804 42.79,25 Z"
         id="path1" />
      <path
         stroke="#da8482"
         vector-effect="non-scaling-stroke"
         d="m 36.65,18.01 c 0.48279,-1.147854 1.668158,-2.192726 1.230768,-3.51828 -1.350895,-1.571235 -4.910851,1.127165 -5.236041,-2.170392 -0.940796,-1.732892 -3.132118,1.189133 -4.823389,1.118223 C 26.193384,14.40761 23.038178,13.144333 22.44,14.73 c 0.893833,0.920927 1.587502,2.075719 2.624134,2.829803 C 27.302361,17.35833 30.253453,14.255291 32.16,16.74 c 0.272222,3.199921 -4.456447,1.721726 -6.530313,2.242461 -2.022549,-0.670697 -4.365311,1.364904 -2.438364,3.167318 1.536209,0.412239 3.14533,-0.104636 4.716326,-0.135693 1.810918,-0.126066 3.625261,-0.394153 5.434054,-0.432098 1.1005,1.045139 -0.549644,1.939304 -1.607657,1.685643 -2.556917,0.168955 -5.124287,0.255947 -7.674671,0.476119 -0.770089,1.671879 -0.289916,3.990648 0.322656,5.758125 1.412976,3.258547 5.332746,3.463217 8.353809,4.140234 2.355817,0.430317 5.164259,1.896653 7.272331,0.03758 1.095078,-0.982301 1.953678,-5.414717 -0.680232,-4.057161 C 35.726357,30.379619 31.938901,30.170949 28.43,29.07 25.863735,27.521476 28.97511,25.650689 30.765168,26.298784 33.514003,26.672805 36.311912,25.366342 37.56,22.84 38.080222,21.668699 39.819366,18.447152 37.367609,18.675878 36.991739,18.650627 36.254922,18.590047 36.65,18.01 Z"
         id="path2" />
      <path
         stroke="#da8482"
         vector-effect="non-scaling-stroke"
         d="m 18.59,16.84 c 1.876063,-2.442073 -3.137043,-6.104402 -3.4,-2.2 1.834612,5.058424 1.440573,10.919409 -1.304375,15.57375 C 13.029464,30.924899 11.518654,29.115009 11.03,30.44 c -0.144864,1.277065 -0.58651,2.555942 -0.5125,3.8325 1.213787,1.626156 3.890198,1.699463 5.140061,0.05127 1.448987,-0.884923 1.82809,-4.466521 3.54243,-3.739414 0.61837,1.393933 3.103132,2.71549 2.998446,0.127165 0.240016,-3.00857 -2.217978,-5.102201 -3.352078,-7.450701 0.02408,-0.859857 -0.238922,-1.76811 -0.01636,-2.595822 2.378177,-0.179578 4.760393,-2.197198 3.63498,-4.801084 C 21.484515,13.397863 19.724502,15.738787 19.27761,17.135032 19.101752,17.570386 18.416293,17.25393 18.59,16.84 Z"
         id="path3" />
      <path
         stroke="#da8482"
         vector-effect="non-scaling-stroke"
         d="m 14.17,18.39 c -2.265101,-2.666968 -3.242449,1.777046 -2.8325,3.545 -0.06819,1.341407 1.257968,6.176031 2.5725,3.225 0.830224,-2.149194 0.975752,-4.567321 0.26,-6.77 z"
         id="path4" />
    </g>
    <path
       fill="#cca82e"
       fill-opacity="0.996"
       d="M 99.835009,49.911579 C 101.24923,83.987516 61.852295,110.1926 30.768335,95.851639 -1.3980231,84.112003 -10.641851,37.850423 14.563005,14.750577 c 21.369636,-23.0802667 62.726001,-17.5302903 78.00008,9.324604 4.739527,7.734268 7.284601,16.776651 7.271924,25.836398 z m -11.213976,0 C 89.068116,30.416774 72.501303,12.575988 52.943179,11.490132 24.451457,7.9275063 1.3707635,41.467054 15.024202,66.633569 25.848065,91.74228 64.009448,96.02258 80.174545,73.941034 c 5.439144,-6.752052 8.470011,-15.37458 8.446488,-24.029455 z"
       id="path5"
       style="stroke-width:2.17254" />
    <path
       fill="#b80e0e"
       d="M 88.621033,49.911579 C 89.812848,77.208795 57.296224,97.547896 33.107603,84.635146 7.8847643,73.860259 3.5850075,35.871549 25.766921,19.779594 45.607416,2.4728855 79.62194,13.301699 86.726165,38.001986 c 1.253958,3.83821 1.895989,7.873496 1.894868,11.909593 z M 75.251361,34.759926 c 1.051262,-2.488109 3.632366,-4.752992 2.679963,-7.626287 -2.713802,-3.626779 -9.920599,2.524016 -11.196255,-3.953537 -1.401477,-5.352799 -6.931753,1.876149 -10.707862,1.672835 -3.544823,2.098383 -10.415192,-0.639919 -11.717707,2.797202 1.946295,1.996217 3.45674,4.499366 5.713975,6.133932 4.857781,-0.405663 10.110381,-6.379797 14.888924,-2.610326 3.202047,6.984053 -7.745863,4.977754 -11.806596,5.633142 -4.508972,-1.253377 -12.009057,1.713245 -7.160319,6.926501 3.34505,0.893576 6.848864,-0.226811 10.269663,-0.294132 3.943221,-0.273262 7.8939,-0.854373 11.832494,-0.936622 2.396307,2.265462 -1.196834,4.20367 -3.500626,3.65383 -5.567613,0.36623 -11.157986,0.554796 -16.711373,1.032044 -1.676846,3.623995 -0.631284,8.650202 0.702574,12.481418 3.076714,7.063286 11.611899,7.506932 18.190176,8.974447 5.129724,0.932763 11.245024,4.11122 15.835289,0.08146 2.384502,-2.129254 4.254078,-11.73704 -1.481185,-8.794376 -7.84234,1.641084 -16.089415,1.188767 -23.729945,-1.197671 -5.5909,-3.343876 1.209348,-7.508941 5.08476,-6.006938 5.985508,0.810735 12.077874,-2.021178 14.795549,-7.497324 1.132769,-2.538933 4.919704,-9.522017 -0.418926,-9.026227 -0.818445,-0.05473 -2.422843,-0.186048 -1.562573,-1.44337 z M 35.926237,32.223813 c 4.085072,-5.293482 -6.83082,-13.232014 -7.403401,-4.76876 3.994814,10.964733 3.136806,23.669111 -2.840239,33.757946 -1.864266,1.5415 -5.15401,-2.381651 -6.21804,0.490424 -0.315438,2.768189 -1.277109,5.540306 -1.115954,8.307397 2.642985,3.524886 8.470793,3.683787 11.192333,0.111134 3.155127,-1.918176 3.980612,-9.681713 7.713538,-8.105623 1.346483,3.021515 6.75698,5.886146 6.529029,0.275645 0.522628,-6.521431 -4.829582,-11.059624 -7.299051,-16.150275 0.05244,-1.863843 -0.520247,-3.832588 -0.03563,-5.626752 5.178411,-0.389256 10.365618,-4.762687 7.915063,-10.406918 -2.134932,-5.345457 -5.967308,-0.271227 -6.940403,2.755299 -0.382926,0.943682 -1.875493,0.257726 -1.49725,-0.639517 z m -9.624422,3.359809 c -4.932191,-5.780969 -7.060338,3.851958 -6.167686,7.684207 -0.148482,2.907658 2.739189,13.387278 5.601544,6.990569 1.807788,-4.658633 2.124671,-9.900209 0.566142,-14.674776 z"
       id="path6"
       style="stroke-width:2.17254" />
    <path
       fill="#fbf9f5"
       d="m 75.948153,36.103851 c 3.737644,-0.584486 4.609124,2.353411 2.825268,5.527426 -1.780746,6.268975 -7.578568,11.787192 -14.469726,11.103848 -3.378167,-0.125375 -10.7509,-0.895274 -8.601602,4.75499 4.670936,3.14876 10.85096,3.180108 16.358338,3.416285 4.031408,0.763433 9.292501,-2.285469 12.488732,-0.850368 1.132456,4.731673 -1.470549,10.889035 -7.058068,10.647409 -5.29609,-0.114428 -10.270131,-2.348087 -15.511758,-3.010618 -5.751979,-0.893336 -12.515613,-3.325677 -14.03439,-9.636149 -0.295836,-3.187054 -2.843882,-9.731341 0.935284,-10.995576 6.286994,-0.424133 12.605105,-0.605069 18.872465,-1.182644 2.781523,-2.109344 -0.328739,-4.32823 -2.742622,-3.220216 -5.746131,0.510277 -11.492263,1.020551 -17.238395,1.530828 -6.166359,-0.944013 -2.745859,-9.355911 2.555806,-7.297083 4.9074,-1.161887 13.510846,1.930674 15.459499,-3.811451 -2.518471,-6.696682 -10.424729,-0.79242 -14.770873,0.682291 -2.469368,0.0086 -3.473234,-2.857838 -5.156223,-4.32816 -3.687029,-2.884703 0.801415,-4.164331 3.929204,-3.521625 5.304172,-0.321333 10.487411,-2.112481 14.901536,-5.047545 2.603628,0.776461 2.960387,7.680122 7.809295,5.435979 5.434003,-3.040721 6.828171,3.514269 3.746369,6.665861 -0.298131,0.907937 -2.32921,2.903865 -0.298139,3.136518 z"
       id="path7"
       style="stroke-width:2.17254" />
    <path
       fill="#fbf9f5"
       d="m 37.406918,32.895775 c 1.071859,-2.737474 3.960997,-7.924965 6.793709,-3.359808 2.580109,5.335067 -1.799369,10.817611 -7.43062,10.73242 -1.123355,1.504024 -0.130888,3.753148 -0.301303,5.575487 1.474825,4.934481 7.201203,8.411621 7.113386,14.312326 2.076567,4.962192 -3.712033,7.077747 -5.652489,2.71858 -2.700395,-4.220698 -4.553758,2.647635 -6.247688,4.555939 -2.033005,3.412601 -6.144527,6.809855 -10.299252,4.762087 -3.636819,-0.648941 -3.310711,-3.993118 -2.571855,-6.642728 0.62324,-1.660433 -0.13594,-5.501188 2.579332,-4.828142 3.352924,2.038912 5.915882,-0.394689 6.537297,-4.025034 3.945705,-9.22131 3.96966,-19.847538 0.595401,-29.241849 0.572581,-8.463254 11.488473,-0.524722 7.403401,4.76876 -0.372892,0.878617 1.067561,1.571426 1.480681,0.671962 z"
       id="path8"
       style="stroke-width:2.17254" />
    <path
       fill="#fbf9f5"
       d="m 26.301815,35.583622 c 1.656487,5.509954 1.433327,12.180831 -1.965507,16.962968 -4.442049,-1.87193 -4.347142,-9.452851 -4.083524,-13.911198 -0.313739,-3.370584 3.558127,-7.745861 6.049031,-3.05177 z"
       id="path9"
       style="stroke-width:2.17254" />
  </g>
</svg>
