<?xml version="1.0" encoding="UTF-8" standalone="no"?>
<!-- Created with Inkscape (http://www.inkscape.org/) -->

<svg
   width="100"
   height="100"
   id="svg2"
   sodipodi:version="0.32"
   inkscape:version="1.3 (0e150ed6c4, 2023-07-21)"
   version="1.0"
   sodipodi:docname="wk.svg"
   inkscape:output_extension="org.inkscape.output.svg.inkscape"
   xmlns:inkscape="http://www.inkscape.org/namespaces/inkscape"
   xmlns:sodipodi="http://sodipodi.sourceforge.net/DTD/sodipodi-0.dtd"
   xmlns:xlink="http://www.w3.org/1999/xlink"
   xmlns="http://www.w3.org/2000/svg"
   xmlns:svg="http://www.w3.org/2000/svg"
   xmlns:rdf="http://www.w3.org/1999/02/22-rdf-syntax-ns#"
   xmlns:cc="http://creativecommons.org/ns#"
   xmlns:dc="http://purl.org/dc/elements/1.1/">
  <defs
     id="defs4">
    <linearGradient
       id="linearGradient3214">
      <stop
         style="stop-color:#c6c600;stop-opacity:1;"
         offset="0"
         id="stop3216" />
      <stop
         style="stop-color:#ffff00;stop-opacity:1;"
         offset="1"
         id="stop3218" />
    </linearGradient>
    <linearGradient
       id="linearGradient3202">
      <stop
         style="stop-color:#ff0000;stop-opacity:1;"
         offset="0"
         id="stop3204" />
      <stop
         style="stop-color:#bd0000;stop-opacity:1;"
         offset="1"
         id="stop3206" />
    </linearGradient>
    <linearGradient
       id="linearGradient3194">
      <stop
         style="stop-color:#dedede;stop-opacity:1;"
         offset="0"
         id="stop3196" />
      <stop
         style="stop-color:#989898;stop-opacity:1;"
         offset="1"
         id="stop3198" />
    </linearGradient>
    <inkscape:perspective
       sodipodi:type="inkscape:persp3d"
       inkscape:vp_x="0 : 556.18109 : 1"
       inkscape:vp_y="0 : 1000 : 0"
       inkscape:vp_z="744.09448 : 556.18109 : 1"
       inkscape:persp3d-origin="372.04724 : 380.78739 : 1"
       id="perspective10" />
    <linearGradient
       inkscape:collect="always"
       xlink:href="#linearGradient3202"
       id="linearGradient3208"
       x1="42.241379"
       y1="32.741379"
       x2="115.51724"
       y2="62.051723"
       gradientUnits="userSpaceOnUse"
       gradientTransform="translate(-32.758621,-3.8793108)" />
  </defs>
  <sodipodi:namedview
     id="base"
     pagecolor="#ffffff"
     bordercolor="#666666"
     borderopacity="1.0"
     gridtolerance="10000"
     guidetolerance="10"
     objecttolerance="10"
     inkscape:pageopacity="0.0"
     inkscape:pageshadow="2"
     inkscape:zoom="2.32"
     inkscape:cx="9.6982759"
     inkscape:cy="82.974138"
     inkscape:document-units="px"
     inkscape:current-layer="layer1"
     showgrid="false"
     inkscape:window-width="1366"
     inkscape:window-height="715"
     inkscape:window-x="144"
     inkscape:window-y="892"
     inkscape:showpageshadow="2"
     inkscape:pagecheckerboard="0"
     inkscape:deskcolor="#d1d1d1"
     inkscape:window-maximized="1" />
  <metadata
     id="metadata7">
    <rdf:RDF>
      <cc:Work
         rdf:about="">
        <dc:format>image/svg+xml</dc:format>
        <dc:type
           rdf:resource="http://purl.org/dc/dcmitype/StillImage" />
      </cc:Work>
    </rdf:RDF>
  </metadata>
  <g
     inkscape:label="Layer 1"
     inkscape:groupmode="layer"
     id="layer1">
    <g
       stroke-width="2"
       fill="none"
       stroke-linecap="butt"
       id="g6"
       transform="matrix(2.1665776,0,0,2.1633888,-4.4538327,-3.9350437)">
      <path
         stroke="#c25b1e"
         vector-effect="non-scaling-stroke"
         d="M 42.79,24.99 C 42.995322,15.996348 35.38704,7.7657541 26.405003,7.2648098 13.320226,5.6212433 2.7204552,21.094238 8.9907735,32.704453 13.961616,44.288001 31.487169,46.262657 38.910964,36.075649 41.408882,32.960685 42.800803,28.982804 42.79,24.99 Z"
         id="path1" />
      <path
         stroke="#da8482"
         vector-effect="non-scaling-stroke"
         d="m 17.88,13.02 c -1.813693,1.092944 -4.169178,1.041376 -5.850747,2.18695 0.787589,2.364938 4.047797,1.618266 5.956877,1.182398 2.53825,0.09498 4.722296,-2.96559 1.204495,-3.646848 C 18.738114,12.71159 18.288082,12.83309 17.88,13.02 Z"
         id="path2" />
      <path
         stroke="#da8482"
         vector-effect="non-scaling-stroke"
         d="m 35.51,19.2 c 0.217185,-1.603272 -1.737939,-4.782487 -3.178774,-3.123462 -0.367986,1.272389 -0.440483,2.669913 -1.016713,3.854115 C 29.882274,20.202403 28.370636,19.593526 26.93,19.86 c -2.610937,1.207263 -0.866788,4.095455 -0.534219,6.078125 0.230723,2.245486 0.632992,5.249958 -1.464575,6.755969 C 22.827852,33.996332 20.175507,33.04875 17.97,33.78 c -0.29123,2.752386 2.679551,3.88713 4.999579,3.692996 2.404725,0.241427 4.882883,-1.23162 5.437355,-3.666773 0.930433,-3.151512 0.42682,-6.477502 0.648066,-9.701223 0.688928,-0.559006 2.784665,-0.773439 2.800785,0.524472 0.06474,2.903509 0.129477,5.807019 0.194215,8.710528 0.792004,2.609357 3.434965,0.332061 2.686563,-1.522969 C 35.089359,29.16077 34.310657,26.279707 35.19,23.76 c 1.647912,-1.338558 3.010475,0.417108 2.597496,2.037121 0.02417,2.150959 0.04834,4.301919 0.0725,6.452879 1.789354,2.113031 3.062034,-1.990521 3.187693,-3.53562 0.373078,-2.492442 0.325034,-5.028039 0.132307,-7.53438 -0.488269,-2.603584 -3.194115,-1.581801 -4.97,-1.39 -0.352317,0.06959 -0.703359,-0.234554 -0.7,-0.59 z"
         id="path3" />
      <path
         stroke="#da8482"
         vector-effect="non-scaling-stroke"
         d="m 13.74,25.06 c 2.730448,-0.11019 5.467501,-0.139872 8.19375,-0.30125 1.711697,-1.03373 2.208005,-3.377478 2.444543,-5.254506 0.473786,-2.21929 -2.212209,-4.684211 -4.051555,-2.602164 C 17.561767,18.800909 13.872401,18.95921 10.84,17.62 7.9741757,17.896749 10.027244,21.777209 9.6670313,23.792148 9.9227182,26.549472 9.547752,29.344302 9.94,32.08 c 0.105761,2.092571 1.557665,2.351131 2.95927,1.162419 C 15.721024,32.20216 18.763648,32.773164 21.69,32.74 23.838042,31.643518 25.265276,28.695475 24.805234,26.297852 23.846862,24.141322 21.269298,26.120886 19.538047,25.842588 17.634671,25.982293 15.691821,26.004549 13.81,25.71 13.60914,25.572135 13.270451,25.154573 13.74,25.06 Z"
         id="path4" />
      <path
         stroke="#da8482"
         vector-effect="non-scaling-stroke"
         d="m 19.9101,21.3353 c -0.349069,-0.923397 -1.657694,-0.33565 -2.445621,-0.504285 -1.149974,0.07618 -2.363967,-0.172477 -3.467296,0.140395 -0.524161,1.403917 1.477841,0.879751 2.298338,0.977575 1.149974,-0.07618 2.363967,0.172477 3.467296,-0.140395 L 19.9099,21.4553 Z"
         id="path5" />
      <path
         stroke="#da8482"
         vector-effect="non-scaling-stroke"
         d="m 19.0897,29.4201 c -0.921378,-0.903349 -4.971944,-1.04436 -4.882145,0.325469 1.428067,0.464268 3.707187,0.708001 4.882145,-0.325469 z"
         id="path6" />
    </g>
    <path
       fill="#cca82e"
       fill-opacity="0.996"
       d="M 99.411894,50.149678 C 100.81905,84.159125 61.619198,110.31307 30.690746,96.00011 -1.3146925,84.283368 -10.512275,38.112064 14.566486,15.057282 35.829215,-7.9779502 76.978685,-2.4388028 92.17635,24.363685 c 4.715814,7.719187 7.248154,16.743914 7.235544,25.785993 z M 88.254019,50.128046 C 88.698866,30.671282 72.214933,12.865293 52.754654,11.781565 24.405469,8.2258845 1.4402441,41.700001 15.025376,66.8174 25.79509,91.877123 63.76556,96.149081 79.849788,74.110617 85.26172,67.371724 88.277425,58.766023 88.254019,50.128045 Z"
       id="path7"
       style="stroke-width:2.16498" />
    <path
       fill="#b80e0e"
       d="M 88.254019,50.128045 C 89.439872,77.37199 57.085921,97.671415 33.01831,84.783869 7.9216552,74.029987 3.6434099,36.115406 25.714353,20.054862 45.45559,2.781911 79.299947,13.589596 86.36863,38.241693 c 1.247685,3.830713 1.886506,7.858122 1.885389,11.886352 z M 34.284572,24.232279 c -3.929505,2.364455 -9.032846,2.25291 -12.676097,4.731225 1.706374,5.116283 8.769867,3.500946 12.906037,2.55799 5.499316,0.205521 10.23122,-6.415724 2.609632,-7.889555 -0.9804,-0.06685 -1.95543,0.196004 -2.839572,0.60034 z m 38.196762,13.369744 c 0.363667,-3.44498 -3.389819,-9.950962 -6.824718,-7.031014 -0.819469,2.84332 -0.99392,5.9594 -2.265129,8.611694 -3.103057,0.587901 -6.378138,-0.729322 -9.499388,-0.152947 -5.656797,2.611774 -1.877963,8.86005 -1.157426,13.149337 0.49988,4.857869 1.371426,11.357705 -3.173116,14.615791 -4.557079,2.817251 -10.30359,0.767268 -15.081993,2.349245 -0.630972,5.95449 5.805456,8.409374 10.831977,7.989396 5.210023,0.522286 10.579144,-2.664474 11.780451,-7.932672 2.015855,-6.817942 0.924739,-14.013351 1.404085,-20.987512 1.492616,-1.209356 6.033193,-1.673251 6.068118,1.134634 0.140264,6.281421 0.280522,12.562842 0.420781,18.844263 1.715939,5.64506 7.442119,0.718376 5.820647,-3.294776 0.764361,-5.746524 -0.922758,-11.979376 0.982407,-17.430489 3.570329,-2.895826 6.522428,0.902372 5.627676,4.407082 0.05237,4.653363 0.104733,9.306727 0.157077,13.960089 3.857453,4.702753 6.645746,-4.385254 6.906385,-7.64892 0.808302,-5.392118 0.70421,-10.877606 0.286653,-16.299795 -1.057873,-5.632555 -6.920297,-3.422048 -10.767891,-3.00711 -0.763322,0.15057 -1.523882,-0.507424 -1.516603,-1.2764 z M 25.314943,50.279482 c 5.915726,-0.238384 11.845764,-0.302594 17.752394,-0.651721 3.708525,-2.236361 4.783814,-7.306804 5.296292,-11.367548 1.026493,-4.801188 -4.792923,-10.133769 -8.778008,-5.629485 -5.990525,4.107909 -13.983822,4.450373 -20.553754,1.55314 -6.209029,0.598718 -1.760899,8.993662 -2.541328,13.352761 0.553966,5.965156 -0.258427,12.011459 0.591409,17.929843 0.229139,4.527042 3.374801,5.086408 6.411488,2.514767 6.113548,-2.250487 12.705629,-1.015192 19.045798,-1.08693 4.653898,-2.372114 7.746112,-8.74987 6.749395,-13.936877 -2.076387,-4.665412 -7.660879,-0.382833 -11.411768,-0.984904 -4.123812,0.302226 -8.333148,0.350383 -12.410258,-0.286843 -0.435179,-0.298245 -1.168975,-1.201611 -0.15166,-1.406203 z"
       id="path8"
       style="stroke-width:2.16498" />
    <path
       fill="#fbf9f5"
       d="m 34.284572,24.232279 c 6.317493,-3.413286 10.23461,6.908588 2.046357,6.762127 -4.554908,1.289164 -10.15149,2.812514 -14.265853,-0.380129 -0.570974,-4.605552 7.038345,-3.121338 10.109114,-5.471341 0.710362,-0.287275 1.413972,-0.591146 2.110382,-0.910657 z"
       id="path9"
       style="stroke-width:2.16498" />
    <path
       fill="#fbf9f5"
       d="m 73.997939,38.878423 c 3.360224,-0.192326 7.278498,-2.194953 9.962261,0.852288 1.876518,5.564063 1.057592,11.733551 0.656244,17.513087 0.059,3.640703 -3.575642,13.941592 -7.049969,8.029007 -0.06289,-5.589093 -0.125793,-11.178209 -0.188667,-16.767302 -2.382149,-4.902413 -8.354697,0.09194 -6.409682,4.369029 -0.680154,5.705506 1.46018,12.631985 -1.771856,17.540346 -4.069651,1.627603 -4.550737,-3.32753 -4.299025,-6.151899 -0.115191,-5.158752 -0.230382,-10.317483 -0.345575,-15.476235 -0.66324,-2.044294 -6.461911,-2.277163 -6.167776,0.637897 -0.344167,7.759751 1.168199,16.268813 -2.936598,23.298053 -3.837064,5.665353 -11.72528,4.888416 -17.443309,3.196666 -4.181906,-1.986055 -5.236625,-9.34545 1.133717,-7.413802 4.718586,0.0043 11.344788,0.156415 13.195285,-5.281373 1.862143,-6.184611 0.255054,-12.652019 -1.557706,-18.626974 -0.791685,-3.823661 3.196621,-6.618866 6.635993,-5.585027 1.98762,7.58e-4 4.042988,0.658039 5.98022,0.170476 1.267554,-2.65385 1.448198,-5.767292 2.265128,-8.611695 3.759777,-2.944134 7.228341,4.016526 6.954428,7.577616 0.233441,0.513914 0.828582,0.833793 1.386896,0.729799 z"
       id="path10"
       style="stroke-width:2.16498" />
    <path
       fill="#fbf9f5"
       d="m 24.946624,51.188104 c 2.974552,1.615922 6.997545,0.733411 10.364196,0.943801 4.045636,0.0151 8.02592,-1.098633 11.994885,-1.392703 4.661941,3.135184 1.29558,9.596706 -1.167647,13.187651 -3.001352,5.14999 -9.563735,2.026965 -14.366199,2.703544 -4.410561,-0.197086 -8.666417,1.329986 -12.46917,3.23857 -3.809556,-4.078225 -2.275576,-10.252991 -2.592021,-15.358892 -0.0762,-5.937139 -0.436018,-11.870709 -1.080328,-17.773407 2.145672,-5.715501 9.053424,0.930236 13.741687,-0.662799 5.368206,0.17437 9.510317,-3.712699 14.207164,-5.243253 4.881999,0.994662 5.545045,6.914862 4.241963,10.872305 -1.109133,3.152383 -2.26183,8.436547 -6.557582,8.051117 -5.316209,0.175235 -10.632421,0.350296 -15.948629,0.525444 l -0.494126,0.343503 z m 13.736319,-8.966597 c -0.756285,-1.99763 -3.591523,-0.72625 -5.298628,-1.091126 -2.491508,0.164633 -5.121718,-0.37338 -7.512166,0.303458 -1.135636,3.037181 3.201857,1.903328 4.979528,2.115037 2.491507,-0.164634 5.121717,0.37338 7.512165,-0.303459 l 0.318667,-0.764304 z m -1.777461,17.490567 c -2.194092,-1.97855 -10.487551,-2.224461 -10.577546,0.704117 3.094018,1.004397 8.031908,1.53168 10.577546,-0.704117 z"
       id="path11"
       style="stroke-width:2.16498" />
    <rect
       fill="#b80e0e"
       x="25.627226"
       y="41.072323"
       transform="matrix(0.99999848,0.00174275,-0.0017479,0.99999847,0,0)"
       width="13.12946"
       height="2.4229956"
       rx="1.0832887"
       id="rect11"
       style="stroke-width:2.16497" />
    <ellipse
       fill="#b80e0e"
       cx="30.458487"
       cy="60.283585"
       transform="matrix(0.999877,-0.0156842,0.01573046,0.99987627,0,0)"
       rx="5.5031052"
       ry="1.4062033"
       id="ellipse11"
       style="stroke-width:2.16499" />
  </g>
</svg>
