<?xml version="1.0" encoding="UTF-8" standalone="no"?>
<!-- Created with Inkscape (http://www.inkscape.org/) -->

<svg
   width="100"
   height="100"
   id="svg2"
   sodipodi:version="0.32"
   inkscape:version="1.3 (0e150ed6c4, 2023-07-21)"
   version="1.0"
   sodipodi:docname="wn.svg"
   inkscape:output_extension="org.inkscape.output.svg.inkscape"
   xmlns:inkscape="http://www.inkscape.org/namespaces/inkscape"
   xmlns:sodipodi="http://sodipodi.sourceforge.net/DTD/sodipodi-0.dtd"
   xmlns:xlink="http://www.w3.org/1999/xlink"
   xmlns="http://www.w3.org/2000/svg"
   xmlns:svg="http://www.w3.org/2000/svg"
   xmlns:rdf="http://www.w3.org/1999/02/22-rdf-syntax-ns#"
   xmlns:cc="http://creativecommons.org/ns#"
   xmlns:dc="http://purl.org/dc/elements/1.1/">
  <defs
     id="defs4">
    <linearGradient
       id="linearGradient3214">
      <stop
         style="stop-color:#c6c600;stop-opacity:1;"
         offset="0"
         id="stop3216" />
      <stop
         style="stop-color:#ffff00;stop-opacity:1;"
         offset="1"
         id="stop3218" />
    </linearGradient>
    <linearGradient
       id="linearGradient3202">
      <stop
         style="stop-color:#ff0000;stop-opacity:1;"
         offset="0"
         id="stop3204" />
      <stop
         style="stop-color:#bd0000;stop-opacity:1;"
         offset="1"
         id="stop3206" />
    </linearGradient>
    <linearGradient
       id="linearGradient3194">
      <stop
         style="stop-color:#dedede;stop-opacity:1;"
         offset="0"
         id="stop3196" />
      <stop
         style="stop-color:#989898;stop-opacity:1;"
         offset="1"
         id="stop3198" />
    </linearGradient>
    <inkscape:perspective
       sodipodi:type="inkscape:persp3d"
       inkscape:vp_x="0 : 556.18109 : 1"
       inkscape:vp_y="0 : 1000 : 0"
       inkscape:vp_z="744.09448 : 556.18109 : 1"
       inkscape:persp3d-origin="372.04724 : 380.78739 : 1"
       id="perspective10" />
    <linearGradient
       inkscape:collect="always"
       xlink:href="#linearGradient3202"
       id="linearGradient3208"
       x1="42.241379"
       y1="32.741379"
       x2="115.51724"
       y2="62.051723"
       gradientUnits="userSpaceOnUse"
       gradientTransform="translate(-32.758621,-3.8793108)" />
  </defs>
  <sodipodi:namedview
     id="base"
     pagecolor="#ffffff"
     bordercolor="#666666"
     borderopacity="1.0"
     gridtolerance="10000"
     guidetolerance="10"
     objecttolerance="10"
     inkscape:pageopacity="0.0"
     inkscape:pageshadow="2"
     inkscape:zoom="2.32"
     inkscape:cx="1.0775862"
     inkscape:cy="74.784483"
     inkscape:document-units="px"
     inkscape:current-layer="layer1"
     showgrid="false"
     inkscape:window-width="1366"
     inkscape:window-height="715"
     inkscape:window-x="144"
     inkscape:window-y="892"
     inkscape:showpageshadow="2"
     inkscape:pagecheckerboard="0"
     inkscape:deskcolor="#d1d1d1"
     inkscape:window-maximized="1" />
  <metadata
     id="metadata7">
    <rdf:RDF>
      <cc:Work
         rdf:about="">
        <dc:format>image/svg+xml</dc:format>
        <dc:type
           rdf:resource="http://purl.org/dc/dcmitype/StillImage" />
      </cc:Work>
    </rdf:RDF>
  </metadata>
  <g
     inkscape:label="Layer 1"
     inkscape:groupmode="layer"
     id="layer1">
    <g
       stroke-width="2"
       fill="none"
       stroke-linecap="butt"
       id="g9"
       transform="matrix(2.1571697,0,0,2.1633889,-4.1578319,-4.7798714)">
      <path
         stroke="#c25b1e"
         vector-effect="non-scaling-stroke"
         d="M 42.78,25 C 42.985438,16.00129 35.372876,7.7660666 26.385787,7.2648406 13.293652,5.6203497 2.6879189,21.102047 8.9617638,32.718792 13.935402,44.308855 31.470812,46.284621 38.898782,36.091884 41.398105,32.975168 42.790809,28.995049 42.78,25 Z"
         id="path1" />
      <path
         stroke="#da8482"
         vector-effect="non-scaling-stroke"
         d="m 29.49,23.08 c 1.809012,-0.622024 5.684555,1.037721 5.84,-1.59 -0.56001,-0.936759 -1.880761,-0.487673 -2.821237,-0.695801 -1.391477,-0.13083 -2.815433,-0.10851 -4.186263,-0.336699 -0.743751,-1.190433 1.048431,-0.759228 1.731917,-0.754414 2.08191,0.06678 4.174988,0.328695 6.249699,0.269713 C 37.045212,19.433118 36.788373,17.596715 35.93,17.31 c -2.564204,-0.481508 -6.270775,0.744492 -8.14125,-0.691875 0.601653,-0.558343 1.696809,-0.0951 2.506456,-0.200986 1.574931,0.05095 3.149863,0.101907 4.724794,0.152861 2.966528,-0.695606 0.471865,-3.499453 -1.484719,-3.21679 C 29.395378,12.733957 25.228505,13.70514 21.0675,13.52 18.356855,13.824444 15.143466,12.804916 12.74,13.6 c -0.914538,3.953868 -1.433286,8.192295 -0.410766,12.175361 0.50742,2.986943 3.619344,2.493532 5.714203,1.732139 5.694169,-1.201267 11.65343,-1.352391 17.375885,-0.3305 0.783236,1.980471 -1.345511,4.301823 -0.749322,6.513 0.992788,2.825954 3.853753,0.09609 4.144879,-1.828525 1.090463,-2.716467 2.493087,-5.969036 1.096106,-8.81994 -1.24857,-2.35567 -2.996812,0.81296 -4.690048,0.919246 -2.419251,0.805116 -5.154182,0.620946 -7.484843,-0.370625 C 27.601088,22.995765 29.124208,23.22167 29.49,23.08 Z"
         id="path2" />
      <path
         stroke="#da8482"
         vector-effect="non-scaling-stroke"
         d="m 29.77,34.18 c 1.339723,3.2791 6.162457,-0.276797 3.039219,-2.540391 C 31.765917,30.418166 29.021332,27.608837 27.86,28.61 c 0.459021,1.91379 1.257672,3.719438 1.91,5.57 z"
         id="path3" />
      <path
         stroke="#da8482"
         vector-effect="non-scaling-stroke"
         d="m 25.35,28.56 c -1.596885,-0.199681 -0.957198,3.319072 -1.046445,4.622422 -0.483979,2.506102 3.337998,3.030339 3.051289,0.256797 C 27.502693,31.601211 26.688329,29.799467 25.35,28.56 Z"
         id="path4" />
      <path
         stroke="#da8482"
         vector-effect="non-scaling-stroke"
         d="m 20.86,29.14 c -1.61621,-0.847099 -1.683886,2.939247 -1.481986,4.205934 0.06639,3.493614 5.036378,2.740564 3.065384,-0.551442 C 22.094758,31.508562 21.557568,30.274884 20.86,29.14 Z"
         id="path5" />
      <path
         stroke="#da8482"
         vector-effect="non-scaling-stroke"
         d="m 16.63,29.5 c -2.154532,0.01862 -4.994062,-0.05024 -6.254075,2.045017 -1.076894,1.810112 0.961426,6.062115 2.87533,3.447267 C 14.49417,33.414856 15.737085,31.837428 16.98,30.26 17.223506,29.98297 16.9988,29.495046 16.63,29.5 Z"
         id="path6" />
      <path
         stroke="#da8482"
         vector-effect="non-scaling-stroke"
         d="m 21.7585,16.8928 c -1.462076,-0.692733 -3.586679,-0.618368 -4.997,0.1744 1.333516,0.61615 3.705733,0.66003 4.997,-0.1744 z"
         id="path7" />
      <path
         stroke="#da8482"
         vector-effect="non-scaling-stroke"
         d="m 21.5001,20.0037 c -0.569698,-0.92596 -1.872206,-0.196756 -2.79797,-0.263794 -0.994818,-0.252698 -3.048624,0.85626 -1.229549,1.373652 1.249355,-0.157043 2.521032,-0.204604 3.756386,-0.430323 0.252061,-0.125673 0.326379,-0.423792 0.271133,-0.679535 z"
         id="path8" />
      <path
         stroke="#da8482"
         vector-effect="non-scaling-stroke"
         d="m 21.7313,23.576 c -0.574053,-0.960761 -1.89343,-0.208185 -2.833307,-0.26585 -1.083384,-0.269512 -3.192463,1.028147 -1.150375,1.356715 1.228717,-0.165734 2.480878,-0.221427 3.694314,-0.458886 0.225389,-0.118637 0.337194,-0.386957 0.289368,-0.631979 z"
         id="path9" />
    </g>
    <path
       fill="#cca92f"
       fill-opacity="0.996"
       d="M 99.256881,49.304851 C 100.65792,83.314298 61.628292,109.46824 30.83414,95.155282 -1.0323214,83.438541 -10.189966,37.267236 14.779896,14.212455 c 21.1704,-23.0352329 62.141187,-17.4960856 77.27286,9.306401 4.69534,7.719187 7.216685,16.743916 7.204125,25.785995 z m -11.130995,0 C 88.56905,29.837141 72.147463,12.021158 52.760788,10.936803 24.518831,7.3791313 1.6404657,40.872068 15.174214,66.003595 c 10.72898,25.073828 48.555835,29.348166 64.579226,7.297306 5.391464,-6.742656 8.395763,-15.353203 8.372446,-23.99605 z"
       id="path10"
       style="stroke-width:2.16028" />
    <path
       fill="#b80e0e"
       d="M 88.125886,49.304851 C 89.307254,76.564135 57.075674,96.87496 33.099094,83.980166 8.0973612,73.220249 3.8352998,35.284338 25.822762,19.21475 45.489331,1.9320902 79.205681,12.74585 86.247628,37.411815 c 1.242967,3.832877 1.879368,7.862555 1.878258,11.893036 z M 59.457102,45.151144 c 3.902345,-1.345672 12.262548,2.244991 12.59787,-3.439789 -1.208036,-2.026575 -4.05712,-1.055019 -6.085887,-1.505285 -3.001652,-0.283037 -6.073367,-0.234749 -9.030479,-0.728414 -1.604398,-2.575363 2.261643,-1.642509 3.736039,-1.632082 4.491032,0.144514 9.006157,0.711085 13.48166,0.583488 1.647553,-1.272874 1.096172,-6.468013 -1.842472,-5.78408 -5.186593,-1.018328 -12.837082,1.630589 -16.526616,-1.473376 1.297867,-1.207928 3.660305,-0.205738 5.40685,-0.434819 3.397393,0.110337 6.794789,0.22047 10.192182,0.330695 6.399304,-1.504875 1.017893,-7.570671 -3.20279,-6.959167 -8.930473,-1.339679 -17.919125,0.76136 -26.895119,0.360832 -5.847322,0.658622 -12.779147,-1.546996 -17.96383,0.17307 -1.972814,8.553758 -3.091841,17.72311 -0.886092,26.340038 1.094591,6.461914 7.807539,5.394476 12.326504,3.747293 12.28329,-2.598813 25.138427,-2.925745 37.482733,-0.714999 1.689572,4.284525 -2.902496,9.306509 -1.616416,14.090151 2.606803,6.504705 8.706923,-0.561811 9.305492,-4.795281 2.180335,-5.641167 4.917337,-12.383173 2.000203,-18.241479 -2.693378,-5.096252 -6.464632,1.758749 -10.117229,1.988673 -5.218735,1.741789 -11.118445,1.343356 -16.146076,-0.801795 -0.291232,-1.285897 2.994396,-0.797187 3.783473,-1.103674 z m 0.604007,24.013617 c 2.387363,6.638033 12.832208,0.321826 7.128098,-4.730379 -2.682758,-3.43213 -7.154858,-8.041426 -11.308963,-7.891654 0.802778,4.370499 2.756141,8.433019 4.180865,12.622033 z M 50.526418,57.006515 c -3.444752,-0.431985 -2.064838,7.180439 -2.257358,10.000092 -1.044025,5.421669 7.200627,6.555804 6.582147,0.555559 0.318936,-3.976331 -1.437785,-7.874195 -4.324789,-10.555651 z m -9.685691,1.254766 c -3.486438,-1.832607 -3.632427,6.35874 -3.196896,9.099061 0.143216,7.55806 10.864322,5.928919 6.612554,-1.192978 C 43.50431,63.385397 42.3455,60.716467 40.840727,58.261281 Z M 31.7159,59.0401 c -4.647692,0.04024 -10.77304,-0.108596 -13.491102,4.424174 -2.323042,3.915972 2.073959,13.114702 6.202576,7.457764 2.681177,-3.412572 5.362356,-6.825168 8.043534,-10.237762 0.525285,-0.599324 0.04056,-1.654884 -0.755008,-1.644176 z"
       id="path11"
       style="stroke-width:2.16028" />
    <path
       fill="#fbf9f5"
       d="m 59.457102,45.151144 c -2.78599,-0.395445 -5.56554,1.436945 -1.333485,2.016775 7.094385,2.165424 15.146702,0.747041 20.801941,-4.150417 5.284241,1.123729 4.625074,8.83091 3.510793,12.977628 -2.17817,5.234861 -2.976032,14.592816 -9.842087,14.640735 -4.491533,-3.466441 -0.630282,-9.823279 0.165175,-14.28477 0.285411,-4.628982 -6.966226,-2.485387 -10.039759,-3.529309 -11.412763,-0.850688 -22.936919,0.341598 -33.974252,3.341678 -5.66026,0.523107 -6.989062,-6.369601 -7.321507,-10.713145 -0.437974,-7.098792 0.122807,-14.357027 2.073158,-21.200215 6.007889,-0.694967 12.594577,0.605488 18.835273,0.21504 10.025482,0.443949 20.335397,-2.561691 30.110906,0.717899 5.203688,3.4929 -0.987802,6.891692 -4.694227,5.766404 -3.835482,-0.0807 -7.67725,-0.336731 -11.508813,-0.307915 -1.058806,3.633909 6.462727,1.128965 8.82552,1.891624 3.215155,0.786479 10.051968,-2.067961 9.901724,3.151301 1.105823,3.090337 -2.555362,3.059551 -4.606467,2.697919 -4.439975,-0.246064 -8.879953,-0.492149 -13.319928,-0.738213 -1.851473,2.1217 2.163788,2.247544 3.675415,2.212973 3.33368,0.221445 6.667362,0.44289 10.001041,0.664334 4.725053,5.457689 -6.047203,4.302136 -9.486154,4.525529 l -0.953199,0.05106 z M 42.778944,31.765824 c -3.153947,-1.498645 -7.737076,-1.337774 -10.779377,0.377295 2.87662,1.332972 7.993895,1.427901 10.779377,-0.377295 z m -0.557413,6.730087 C 40.992596,36.4927 38.182866,38.070243 36.185835,37.92523 c -2.145991,-0.546688 -6.576399,1.852424 -2.652346,2.97174 2.695072,-0.339761 5.438294,-0.442652 8.103163,-0.930951 0.543737,-0.271894 0.704054,-0.916842 0.584879,-1.470108 z m 0.498737,7.728273 c -1.238329,-2.078496 -4.084449,-0.450395 -6.111923,-0.575136 -2.337043,-0.583055 -6.886684,2.224288 -2.481554,2.935091 2.650551,-0.358539 5.351674,-0.479017 7.969262,-0.992736 0.49056,-0.256838 0.721905,-0.837318 0.624215,-1.367219 z"
       id="path12"
       style="stroke-width:2.16028" />
    <ellipse
       fill="#b80e0e"
       cx="36.254616"
       cy="33.243511"
       transform="matrix(0.99938731,-0.03499998,0.03479929,0.99939432,0,0)"
       rx="5.3929429"
       ry="1.0816907"
       id="ellipse12"
       style="stroke-width:2.16026" />
    <rect
       fill="#b80e0e"
       x="27.698578"
       y="41.453384"
       transform="matrix(0.99467247,-0.10308576,0.10250014,0.99473299,0,0)"
       width="10.354732"
       height="2.6825211"
       rx="1.1864796"
       id="rect12"
       style="stroke-width:2.16028" />
    <rect
       fill="#b80e0e"
       x="26.704031"
       y="49.455242"
       transform="matrix(0.99373227,-0.11178629,0.11115245,0.99380337,0,0)"
       width="10.613655"
       height="2.6392405"
       rx="1.2512033"
       id="rect13"
       style="stroke-width:2.16028" />
    <path
       fill="#fbf9f5"
       d="m 60.061109,69.164761 c -1.057435,-4.204677 -4.453284,-9.096488 -3.695501,-13.043872 5.401071,2.177753 11.3412,6.438115 12.4296,12.450432 -0.456547,4.427225 -7.583961,4.635213 -8.734099,0.59344 z"
       id="path13"
       style="stroke-width:2.16028" />
    <path
       fill="#fbf9f5"
       d="m 50.526418,57.006515 c 4.669835,3.165816 7.320492,16.196752 -0.970111,14.149774 -2.126266,-4.365913 -1.872928,-10.272591 -0.113875,-14.65817 l 0.484015,0.0623 z"
       id="path14"
       style="stroke-width:2.16028" />
    <path
       fill="#fbf9f5"
       d="m 40.840727,58.261281 c 2.007193,4.117448 5.52778,9.607026 3.282201,14.004482 -5.3424,2.017013 -7.514693,-5.415309 -6.529155,-9.539442 0.24602,-1.244836 1.101888,-7.309983 3.246954,-4.46504 z"
       id="path15"
       style="stroke-width:2.16028" />
    <path
       fill="#fbf9f5"
       d="m 19.01017,71.241614 c -2.485472,-3.880708 -1.558106,-10.010974 3.458601,-11.136391 2.571674,-0.577127 11.197328,-3.035126 9.482387,1.240596 -3.069617,3.686458 -5.738964,7.761071 -9.077456,11.186819 -1.355235,0.779685 -3.238936,0.138678 -3.863532,-1.291024 z"
       id="path16"
       style="stroke-width:2.16028" />
  </g>
</svg>
