<?xml version="1.0" encoding="UTF-8" standalone="no"?>
<!-- Created with Inkscape (http://www.inkscape.org/) -->

<svg
   width="100"
   height="100"
   id="svg2"
   sodipodi:version="0.32"
   inkscape:version="1.3 (0e150ed6c4, 2023-07-21)"
   version="1.0"
   sodipodi:docname="wp.svg"
   inkscape:output_extension="org.inkscape.output.svg.inkscape"
   xmlns:inkscape="http://www.inkscape.org/namespaces/inkscape"
   xmlns:sodipodi="http://sodipodi.sourceforge.net/DTD/sodipodi-0.dtd"
   xmlns:xlink="http://www.w3.org/1999/xlink"
   xmlns="http://www.w3.org/2000/svg"
   xmlns:svg="http://www.w3.org/2000/svg"
   xmlns:rdf="http://www.w3.org/1999/02/22-rdf-syntax-ns#"
   xmlns:cc="http://creativecommons.org/ns#"
   xmlns:dc="http://purl.org/dc/elements/1.1/">
  <defs
     id="defs4">
    <linearGradient
       id="linearGradient3214">
      <stop
         style="stop-color:#c6c600;stop-opacity:1;"
         offset="0"
         id="stop3216" />
      <stop
         style="stop-color:#ffff00;stop-opacity:1;"
         offset="1"
         id="stop3218" />
    </linearGradient>
    <linearGradient
       id="linearGradient3202">
      <stop
         style="stop-color:#ff0000;stop-opacity:1;"
         offset="0"
         id="stop3204" />
      <stop
         style="stop-color:#bd0000;stop-opacity:1;"
         offset="1"
         id="stop3206" />
    </linearGradient>
    <linearGradient
       id="linearGradient3194">
      <stop
         style="stop-color:#dedede;stop-opacity:1;"
         offset="0"
         id="stop3196" />
      <stop
         style="stop-color:#989898;stop-opacity:1;"
         offset="1"
         id="stop3198" />
    </linearGradient>
    <inkscape:perspective
       sodipodi:type="inkscape:persp3d"
       inkscape:vp_x="0 : 556.18109 : 1"
       inkscape:vp_y="0 : 1000 : 0"
       inkscape:vp_z="744.09448 : 556.18109 : 1"
       inkscape:persp3d-origin="372.04724 : 380.78739 : 1"
       id="perspective10" />
    <linearGradient
       inkscape:collect="always"
       xlink:href="#linearGradient3202"
       id="linearGradient3208"
       x1="42.241379"
       y1="32.741379"
       x2="115.51724"
       y2="62.051723"
       gradientUnits="userSpaceOnUse"
       gradientTransform="translate(-32.758621,-3.8793108)" />
  </defs>
  <sodipodi:namedview
     id="base"
     pagecolor="#ffffff"
     bordercolor="#666666"
     borderopacity="1.0"
     gridtolerance="10000"
     guidetolerance="10"
     objecttolerance="10"
     inkscape:pageopacity="0.0"
     inkscape:pageshadow="2"
     inkscape:zoom="3.2809755"
     inkscape:cx="30.631134"
     inkscape:cy="65.072111"
     inkscape:document-units="px"
     inkscape:current-layer="layer1"
     showgrid="false"
     inkscape:window-width="1366"
     inkscape:window-height="715"
     inkscape:window-x="144"
     inkscape:window-y="892"
     inkscape:showpageshadow="2"
     inkscape:pagecheckerboard="0"
     inkscape:deskcolor="#d1d1d1"
     inkscape:window-maximized="1" />
  <metadata
     id="metadata7">
    <rdf:RDF>
      <cc:Work
         rdf:about="">
        <dc:format>image/svg+xml</dc:format>
        <dc:type
           rdf:resource="http://purl.org/dc/dcmitype/StillImage" />
      </cc:Work>
    </rdf:RDF>
  </metadata>
  <g
     inkscape:label="Layer 1"
     inkscape:groupmode="layer"
     id="layer1">
    <g
       stroke-width="2"
       fill="none"
       stroke-linecap="butt"
       id="g5"
       transform="matrix(2.1641662,0,0,2.1808867,-4.091522,-4.7875716)">
      <path
         stroke="#c25b1e"
         vector-effect="non-scaling-stroke"
         d="M 42.78,25 C 42.985322,16.006348 35.37704,7.7757541 26.395003,7.2748098 13.310226,5.6312433 2.7104552,21.104238 8.9807735,32.714453 13.951616,44.298001 31.477169,46.272657 38.900964,36.085649 41.398882,32.970685 42.790803,28.992804 42.78,25 Z"
         id="path1" />
      <path
         stroke="#da8482"
         vector-effect="non-scaling-stroke"
         d="m 20.64,17.52 c 3.395494,-0.577084 6.841456,-0.735317 10.271445,-0.920293 3.296898,0.231714 4.29563,-6.19261 0.198555,-4.729707 -3.77124,3.076558 -9.074415,3.930665 -13.66,2.36 -2.549395,-0.460121 -2.209746,2.316409 -1.903797,3.889156 0.230678,2.087722 0.618709,4.166608 0.74677,6.260093 -0.400262,1.767379 -2.407818,1.159492 -3.718791,1.238038 -1.276298,0.101115 -2.869148,-0.485994 -3.729807,0.795838 -2.1943177,2.108599 0.3719421,5.776393 2.886172,3.539727 6.571829,-3.038288 14.208331,-3.735474 21.216284,-1.936363 2.395194,0.505476 5.620488,3.734947 7.511919,0.863511 0.765131,-0.968328 2.623693,-4.691459 0.07182,-3.998005 C 37.594493,25.224152 34.412931,25.932075 31.6,24.68 c -1.936208,-2.861298 2.667916,-1.393645 3.588594,-3.190977 1.311841,-1.27551 0.286154,-2.52905 -1.224616,-2.01339 C 29.616625,19.667544 25.267487,19.972549 20.92125,20.09375 20.351673,19.793137 19.731937,17.756185 20.64,17.52 Z"
         id="path2" />
      <path
         stroke="#da8482"
         vector-effect="non-scaling-stroke"
         d="m 13.67,31.41 c -2.921282,0.993571 -0.821349,6.331631 1.947679,4.457064 2.098218,-1.602476 4.162575,-3.50677 5.464821,-5.787064 -2.457413,-0.248792 -5.092602,0.4577 -7.4125,1.33 z"
         id="path3" />
      <path
         stroke="#da8482"
         vector-effect="non-scaling-stroke"
         d="m 37.09,32.17 c -2.536548,-0.610619 -5.055034,-1.314797 -7.603125,-1.865625 0.03905,1.915776 2.38647,3.895013 3.793125,5.405625 1.912829,1.896971 5.514383,-1.435574 4.08375,-3.430625 z"
         id="path4" />
      <path
         stroke="#da8482"
         vector-effect="non-scaling-stroke"
         d="m 27.45,23.23 c -0.200121,-1.283466 -1.752879,-0.714114 -2.656755,-0.84 -1.29347,0.110171 -2.680994,-0.2525 -3.897215,0.24603 -0.645993,1.11274 -0.202002,3.024299 1.372579,2.63397 1.447131,0 2.894261,0 4.341391,0 1.129143,-0.08272 0.781333,-1.31451 0.84,-2.04 z"
         id="path5" />
    </g>
    <path
       fill="#cca82e"
       fill-opacity="0.996"
       d="M 99.658603,49.734597 C 101.06418,84.019119 61.907972,110.38461 31.013941,95.955864 -0.95587549,84.144368 -10.143222,37.599612 14.907627,14.358369 36.146692,-8.8631779 77.25035,-3.2792289 92.431111,23.740051 c 4.710567,7.78161 7.240088,16.879342 7.227492,25.994546 z m -11.167097,0 C 88.935853,30.12046 72.47027,12.170467 53.03165,11.077965 24.714019,7.4935336 1.7743522,41.238381 15.344365,66.558945 26.102092,91.82135 64.030304,96.127851 80.096619,73.911141 85.502533,67.117757 88.514879,58.44245 88.491506,49.734597 Z"
       id="path6"
       style="stroke-width:2.17251" />
    <path
       fill="#b80e0e"
       d="M 88.491506,49.734597 C 89.676041,77.198904 57.358098,97.662504 33.317273,84.670714 8.2485504,73.829871 3.9750671,35.608625 26.021446,19.41817 45.740711,2.0055219 79.547398,12.900624 86.608206,37.752103 c 1.246299,3.861705 1.884426,7.92169 1.8833,11.982494 z M 40.576868,33.421564 c 7.348413,-1.258553 14.806047,-1.603644 22.229123,-2.007055 7.135019,0.505345 9.296436,-13.505381 0.429696,-10.314956 -8.16159,6.709628 -19.638542,8.572338 -29.56251,5.146894 -5.517314,-1.003472 -4.782257,5.051824 -4.120133,8.481811 0.499226,4.553085 1.33899,9.086897 1.616134,13.652551 -0.810605,3.775468 -5.008784,2.572535 -7.767272,2.704217 -2.847433,0.250849 -6.410977,-1.12042 -8.352732,1.731435 -4.748868,4.598617 0.804944,12.597659 6.246156,7.719745 14.222531,-6.626163 30.749189,-8.146646 45.915562,-4.222988 5.018052,0.944065 11.565932,7.820609 15.819298,2.440026 1.666884,-2.017314 6.099681,-9.87325 1.192088,-9.361924 -6.549222,0.767258 -13.638792,2.441479 -19.92615,-0.354608 -4.19028,-6.240165 5.773822,-3.039381 7.766305,-6.959156 2.839062,-2.781744 0.619298,-5.515574 -2.650258,-4.390978 -9.408389,0.418535 -18.820657,1.083717 -28.226636,1.348043 C 39.95288,38.37902 38.611668,33.936656 40.576868,33.421564 Z M 25.492629,63.71408 c -6.322139,2.166866 -1.777535,13.80857 4.215101,9.720352 4.540893,-3.494818 9.008504,-7.647868 11.826781,-12.620931 -5.31825,-0.542587 -11.021237,0.998192 -16.041882,2.900579 z m 50.684772,1.657474 C 70.687885,64.039863 65.237476,62.50413 59.722965,61.302838 c 0.08462,4.17809 5.164738,8.494581 8.208963,11.789055 4.139682,4.137079 11.934034,-3.130825 8.837913,-7.481804 z"
       id="path7"
       style="stroke-width:2.17251" />
    <path
       fill="#fbf9f5"
       d="m 39.559709,34.83914 c 0.198367,2.052356 0.64102,5.055241 3.437581,4.195474 9.739894,-0.497056 19.479792,-0.994115 29.219686,-1.491175 3.461369,2.428527 -2.370108,7.878742 -5.821953,6.943314 -6.147162,0.05158 -1.998045,6.45699 1.932861,5.797682 5.875234,0.851885 11.751033,-0.466127 17.574738,-1.047353 1.502299,3.609481 -1.643186,8.426968 -4.358089,11.096624 C 75.409815,62.068978 69.926336,55.816598 63.684146,55.438003 48.495705,52.549792 32.368947,54.655706 18.61058,61.838518 10.923755,63.994806 12.335844,50.820202 18.52242,51.012102 c 3.429335,-0.02819 6.876904,0.267796 10.293919,0.0205 3.635595,-1.232923 1.976952,-5.302534 1.791942,-8.078728 -0.543774,-4.238795 -1.087557,-8.4776 -1.631337,-12.716404 1.810379,-8.030145 10.926073,-0.701574 16.502444,-2.332866 6.458694,-0.232819 12.686042,-2.830944 17.756306,-6.80505 8.86674,-3.190425 6.705323,10.8203 -0.429696,10.314956 -7.594933,0.455679 -15.270234,0.679267 -22.755287,2.169258 -0.470298,0.205418 -0.603668,0.79974 -0.490995,1.255372 z m 15.75513,11.035287 c -0.433096,-2.799094 -3.793521,-1.557401 -5.749659,-1.831945 -2.799285,0.240271 -5.802117,-0.550674 -8.434222,0.536564 -1.398036,2.42676 -0.437165,6.595653 2.97049,5.74439 3.131831,0 6.263661,0 9.395491,0 2.443653,-0.180403 1.690935,-2.866798 1.8179,-4.449009 z"
       id="path8"
       style="stroke-width:2.17251" />
    <rect
       fill="#b80e0e"
       x="40.598499"
       y="44.04248"
       width="14.71633"
       height="6.2809539"
       rx="1.8178995"
       id="rect8"
       style="stroke-width:2.17251" />
    <path
       fill="#fbf9f5"
       d="m 25.492629,63.71408 c 4.927634,-1.730121 11.296506,-3.893079 16.043235,-2.611612 -3.512232,4.982417 -7.715512,9.838412 -13.01023,12.913861 -5.93771,1.944325 -8.590469,-8.375874 -3.033005,-10.302249 z"
       id="path9"
       style="stroke-width:2.17251" />
    <path
       fill="#fbf9f5"
       d="m 76.177401,65.371554 c 4.354778,3.268311 -3.11417,11.350866 -7.456829,8.329614 -3.77844,-3.381132 -7.750875,-7.413993 -9.385794,-12.238853 2.995421,0.02589 6.00831,1.35745 9.009683,1.933161 2.61098,0.658691 5.22196,1.317385 7.83294,1.976078 z"
       id="path10"
       style="stroke-width:2.17251" />
  </g>
</svg>
