<?xml version="1.0" encoding="UTF-8" standalone="no"?>
<!-- Created with Inkscape (http://www.inkscape.org/) -->

<svg
   width="100"
   height="100"
   id="svg2"
   sodipodi:version="0.32"
   inkscape:version="1.3 (0e150ed6c4, 2023-07-21)"
   version="1.0"
   sodipodi:docname="wr.svg"
   inkscape:output_extension="org.inkscape.output.svg.inkscape"
   xmlns:inkscape="http://www.inkscape.org/namespaces/inkscape"
   xmlns:sodipodi="http://sodipodi.sourceforge.net/DTD/sodipodi-0.dtd"
   xmlns:xlink="http://www.w3.org/1999/xlink"
   xmlns="http://www.w3.org/2000/svg"
   xmlns:svg="http://www.w3.org/2000/svg"
   xmlns:rdf="http://www.w3.org/1999/02/22-rdf-syntax-ns#"
   xmlns:cc="http://creativecommons.org/ns#"
   xmlns:dc="http://purl.org/dc/elements/1.1/">
  <defs
     id="defs4">
    <linearGradient
       id="linearGradient3214">
      <stop
         style="stop-color:#c6c600;stop-opacity:1;"
         offset="0"
         id="stop3216" />
      <stop
         style="stop-color:#ffff00;stop-opacity:1;"
         offset="1"
         id="stop3218" />
    </linearGradient>
    <linearGradient
       id="linearGradient3202">
      <stop
         style="stop-color:#ff0000;stop-opacity:1;"
         offset="0"
         id="stop3204" />
      <stop
         style="stop-color:#bd0000;stop-opacity:1;"
         offset="1"
         id="stop3206" />
    </linearGradient>
    <linearGradient
       id="linearGradient3194">
      <stop
         style="stop-color:#dedede;stop-opacity:1;"
         offset="0"
         id="stop3196" />
      <stop
         style="stop-color:#989898;stop-opacity:1;"
         offset="1"
         id="stop3198" />
    </linearGradient>
    <inkscape:perspective
       sodipodi:type="inkscape:persp3d"
       inkscape:vp_x="0 : 556.18109 : 1"
       inkscape:vp_y="0 : 1000 : 0"
       inkscape:vp_z="744.09448 : 556.18109 : 1"
       inkscape:persp3d-origin="372.04724 : 380.78739 : 1"
       id="perspective10" />
    <linearGradient
       inkscape:collect="always"
       xlink:href="#linearGradient3202"
       id="linearGradient3208"
       x1="42.241379"
       y1="32.741379"
       x2="115.51724"
       y2="62.051723"
       gradientUnits="userSpaceOnUse"
       gradientTransform="translate(-32.758621,-3.8793108)" />
  </defs>
  <sodipodi:namedview
     id="base"
     pagecolor="#ffffff"
     bordercolor="#666666"
     borderopacity="1.0"
     gridtolerance="10000"
     guidetolerance="10"
     objecttolerance="10"
     inkscape:pageopacity="0.0"
     inkscape:pageshadow="2"
     inkscape:zoom="3.2809755"
     inkscape:cx="23.925811"
     inkscape:cy="67.510411"
     inkscape:document-units="px"
     inkscape:current-layer="layer1"
     showgrid="false"
     inkscape:window-width="1366"
     inkscape:window-height="715"
     inkscape:window-x="144"
     inkscape:window-y="892"
     inkscape:showpageshadow="2"
     inkscape:pagecheckerboard="0"
     inkscape:deskcolor="#d1d1d1"
     inkscape:window-maximized="1" />
  <metadata
     id="metadata7">
    <rdf:RDF>
      <cc:Work
         rdf:about="">
        <dc:format>image/svg+xml</dc:format>
        <dc:type
           rdf:resource="http://purl.org/dc/dcmitype/StillImage" />
      </cc:Work>
    </rdf:RDF>
  </metadata>
  <g
     inkscape:label="Layer 1"
     inkscape:groupmode="layer"
     id="layer1">
    <g
       stroke-width="2"
       fill="none"
       stroke-linecap="butt"
       id="g6"
       transform="matrix(2.1774709,0,0,2.1742525,-4.5104295,-4.2975708)">
      <path
         stroke="#c25b1e"
         vector-effect="non-scaling-stroke"
         d="M 42.8,25 C 43.005438,16.00129 35.392876,7.7660666 26.405787,7.2648406 13.313652,5.6203497 2.7079189,21.102047 8.9817638,32.718792 13.955402,44.308855 31.490812,46.284621 38.918782,36.091884 41.418105,32.975168 42.810809,28.995049 42.8,25 Z"
         id="path1" />
      <path
         stroke="#da8482"
         vector-effect="non-scaling-stroke"
         d="m 28.31,18.4 c 1.447035,-0.963896 3.630598,-0.59707 5.382285,-0.626699 1.799433,-0.319827 4.172774,1.651015 5.440527,0.08463 0.25186,-2.708303 -2.964767,-2.907733 -4.834492,-2.2391 -2.568796,0.07221 -6.338121,1.224653 -8.017695,-1.176328 -2.166885,-2.047385 -2.793013,2.55634 -5.231953,1.592578 C 18.709698,16.076582 16.373908,15.887552 14.05,15.64 11.643674,15.374506 10.334542,20.24603 13.326676,19.256106 16.164451,18.830737 19.002225,18.405369 21.84,17.98 23.015346,18.724121 21.335657,19.112025 20.624258,19.052458 18.302839,19.351639 15.981419,19.650819 13.66,19.95 c -1.458346,1.466305 1.278297,3.667654 0.6,5.74 0.277248,2.001189 2.337032,1.147508 3.640303,1.086801 C 19.583535,26.574534 21.266768,26.372267 22.95,26.17 c 1.56122,1.318255 -2.099999,1.386851 -3.124883,1.640078 -2.835231,0.474986 -5.715354,0.231813 -8.561361,0.229904 C 8.4291529,28.36094 8.2062964,32.771684 10.77,33.7 c 2.277968,-0.553422 4.073329,-2.95166 6.640166,-3.31002 1.901011,-0.310141 4.780126,-1.186796 6.239834,0.12002 0.06667,1.396667 0.133333,2.793333 0.2,4.19 1.205712,3.326269 4.092099,-0.136544 3.905781,-2.238594 -0.435178,-2.007267 0.232968,-3.214698 2.371953,-2.262929 2.672324,0.502549 5.281443,1.336629 7.752266,2.471523 2.79103,0.564492 4.719879,-2.890193 3.90125,-5.33125 -2.186542,-0.167598 -4.69238,0.694627 -7.02875,0.50375 -2.108118,-0.274272 -5.61882,0.34158 -6.806511,-1.189568 0.567261,-0.763109 1.738775,-0.163214 2.586021,-0.259663 1.485997,0.09558 2.971993,0.191154 4.45799,0.286731 1.018518,-0.352149 0.793235,-1.748136 1.160532,-2.62377 0.321274,-1.488932 0.800241,-2.954862 1.017135,-4.45902 -0.358536,-1.286129 -1.90797,-0.710124 -2.894149,-0.849932 C 32.372345,18.734852 30.471173,18.722426 28.57,18.71 l -0.199654,-0.09196 z"
         id="path2" />
      <path
         stroke="#da8482"
         vector-effect="non-scaling-stroke"
         d="m 30.58,21.06 c 2.070595,0.522329 1.915229,-0.892602 0.126751,-0.617175 -0.860336,0.02874 -1.821132,-0.368643 -2.606712,-0.02281 0.471889,0.768409 1.714468,0.50613 2.479961,0.63999 z"
         id="path3" />
      <path
         stroke="#da8482"
         vector-effect="non-scaling-stroke"
         d="m 18.4,21.56 c 1.084555,0.0035 3.777707,-0.02753 3.78,-0.75 -0.881502,0.01217 -4.102902,-0.367723 -3.78,0.75 z"
         id="path4" />
      <path
         stroke="#da8482"
         vector-effect="non-scaling-stroke"
         d="m 32.2699,23.4752 c -1.245297,-0.662505 -3.105419,-0.675555 -4.3598,-0.0304 1.132879,0.601907 3.211364,0.709313 4.3598,0.0304 z"
         id="path5" />
      <path
         stroke="#da8482"
         vector-effect="non-scaling-stroke"
         d="m 18.78,23.61 c 0.863883,0.984949 5.360696,0.247839 2.961007,-0.410868 -0.963669,0.01696 -1.927338,0.03391 -2.891007,0.05087 l -0.172672,0.15323 z"
         id="path6" />
    </g>
    <path
       fill="#cca82e"
       fill-opacity="0.996"
       d="M 99.877527,50.058742 C 101.29175,84.238972 61.894812,110.52426 30.810854,96.139407 -1.3555051,84.363839 -10.599332,37.96067 14.605522,14.790127 35.975159,-8.3607793 77.331514,-2.7938167 92.6056,24.143269 c 4.739527,7.75794 7.2846,16.827998 7.271927,25.915473 z m -11.192201,0 C 89.132666,30.493273 72.556538,12.587818 52.987405,11.498026 24.479661,7.9224876 1.3859849,41.583607 15.047101,66.841345 c 10.829371,25.209879 49.00809,29.577765 65.186981,7.333953 5.442219,-6.776527 8.474783,-15.430311 8.451244,-24.116556 z"
       id="path7"
       style="stroke-width:2.17587" />
    <path
       fill="#b80e0e"
       d="M 88.685326,50.058742 C 89.877818,77.454904 57.342899,97.867728 33.140674,84.908175 7.9036486,74.094229 3.601475,35.967821 25.795863,19.817538 45.647515,2.4480956 79.681179,13.316162 86.789402,38.105978 c 1.254659,3.852125 1.897057,7.902037 1.895924,11.952764 z M 57.133772,35.708676 c 3.150878,-2.095754 7.905526,-1.298184 11.71978,-1.362603 3.918207,-0.695385 9.086086,3.589723 11.846574,0.184008 0.463955,-6.497313 -7.255071,-6.037485 -11.512353,-4.718381 -5.571517,0.08257 -13.58653,2.408448 -16.974745,-3.184598 -4.767997,-3.146414 -5.621924,6.007646 -10.890586,3.939643 -5.093048,0.09024 -10.179164,-0.320759 -15.239404,-0.859 -5.239706,-0.577251 -8.090302,10.014672 -1.575017,7.862327 6.179172,-0.92486 12.358342,-1.849719 18.537515,-2.774576 2.559281,1.617907 -1.098192,2.461308 -2.647243,2.331794 -5.054822,0.650495 -10.109648,1.300988 -15.164469,1.951483 -3.175507,3.188117 2.783454,7.974406 1.306483,12.48021 0.603699,4.35109 5.088819,2.494972 7.926653,2.362979 3.665189,-0.43978 7.33038,-0.879559 10.995569,-1.319339 3.399511,2.86622 -4.572687,3.015365 -6.804342,3.565945 -6.173633,1.032738 -12.445018,0.50402 -18.642115,0.499869 -6.172265,0.697844 -6.657531,10.287915 -1.07514,12.306308 4.960209,-1.203279 8.869556,-6.417654 14.45877,-7.19682 4.139394,-0.674324 10.408585,-2.580393 13.587056,0.260955 0.145176,3.036706 0.290329,6.073411 0.435494,9.110118 3.569337,7.856139 9.690323,-2.089624 8.593269,-6.98538 -1.834908,-6.086775 5.998704,-2.156848 9.078954,-1.931434 4.959713,1.034052 9.54268,3.309728 14.319659,4.820219 5.518953,-0.634117 8.880946,-7.268364 6.821538,-12.177685 -5.232093,0.494722 -10.612406,1.582121 -15.971292,1.363684 -4.291644,-0.655114 -11.629334,0.676989 -13.923231,-2.585762 1.235194,-1.659192 3.786132,-0.354868 5.630986,-0.564573 3.235721,0.207815 6.471421,0.415617 9.707144,0.623426 2.217796,-0.765661 1.727257,-3.800889 2.52702,-5.704739 0.699577,-3.237314 1.742498,-6.424617 2.214792,-9.695035 -0.794384,-2.809071 -4.150086,-1.539843 -6.301928,-1.847967 -4.139742,-0.02702 -8.279506,-0.05403 -12.419249,-0.08106 l -0.43474,-0.199945 z"
       id="path8"
       style="stroke-width:2.17587" />
    <path
       fill="#fbf9f5"
       d="m 57.699914,36.382693 c 5.793597,0.122284 11.61977,-0.09541 17.392398,0.245533 2.551473,1.414044 0.517128,4.390683 0.290213,6.54153 -0.769889,3.16603 -1.539777,6.33206 -2.309666,9.498089 -1.358023,1.92819 -4.134799,0.535581 -6.187305,0.735772 -3.341003,-0.10458 -6.714717,-0.653405 -10.034853,-0.474862 -1.796927,3.787779 6.524139,2.279648 8.917855,3.14392 6.735222,0.496957 13.508703,-0.102152 20.132329,-1.320266 2.571093,3.999172 -0.363745,10.536733 -5.032678,12.004592 -4.774063,0.308957 -9.02699,-3.242339 -13.796544,-4.006378 -3.360382,-0.212946 -9.352182,-3.733657 -11.266147,-0.776978 1.067188,4.709884 -1.352006,14.888008 -7.660245,11.074427 -1.444307,-3.602421 -0.668536,-7.650515 -1.237446,-11.444049 -4.206115,-1.919614 -9.787847,-0.706409 -14.28693,0.402236 -5.489875,0.635689 -9.174746,6.843024 -14.218382,6.71479 -5.447865,-2.584428 -3.981642,-12.122456 2.317529,-12.142018 8.400492,0.540092 16.935275,0.32291 25.134431,-1.780418 2.36596,-3.146866 -2.992925,-1.853883 -4.880719,-1.657397 -3.758704,0.451001 -7.517411,0.902 -11.276115,1.353001 -5.224174,-1.614183 -1.974411,-9.021337 -5.748523,-12.65415 -0.782595,-3.689406 3.754593,-2.775109 6.048935,-3.374398 4.556243,-0.634938 9.167302,-1.083244 13.689839,-1.832937 1.052378,-2.708496 -2.514302,-1.509925 -3.995691,-1.335338 -5.806579,0.869091 -11.613157,1.738185 -17.419737,2.607277 -5.110218,-3.161492 2.504055,-10.404964 7.210109,-7.857843 5.176341,0.352605 10.468041,0.99001 15.605705,0.147393 2.08843,-2.676824 6.132276,-6.85264 8.452669,-1.769298 5.192558,3.204892 12.515428,1.653849 18.460142,0.913297 4.274507,-2.620745 12.20283,3.286796 6.944761,6.739174 -6.975638,-1.680082 -14.467335,-2.724828 -21.518117,-0.912289 -0.472319,0.295158 -0.375655,1.23701 0.272183,1.217582 z m 4.376718,5.109495 c 4.508649,1.135675 4.170357,-1.940743 0.275995,-1.341895 -1.873355,0.06249 -3.965461,-0.801523 -5.676039,-0.04959 1.027525,1.670703 3.733204,1.100442 5.400044,1.391489 z m -26.521597,1.087125 c 2.361588,0.0076 8.225847,-0.05986 8.230842,-1.630689 -1.919446,0.02646 -8.93395,-0.799523 -8.230842,1.630689 z m 30.201304,4.164128 c -1.833277,-1.39805 -9.55485,-1.743597 -8.860734,0.416644 2.621857,0.429878 6.510198,1.160921 8.860734,-0.416644 z m -29.373864,0.29309 c 1.881079,2.141528 11.67276,0.538864 6.447506,-0.893331 -2.09836,0.03688 -4.196723,0.07373 -6.295084,0.110603 l -0.375988,0.333161 z"
       id="path9"
       style="stroke-width:2.17587" />
    <path
       fill="#b80e0e"
       d="m 61.532264,41.383474 c -2.705614,0.940932 -6.778987,-2.199715 -2.274861,-1.489313 2.231138,0.311244 4.637809,0.112427 6.74412,0.793553 -0.873884,1.601715 -3.057735,1.173507 -4.469259,0.69576 z"
       id="path10"
       style="stroke-width:2.17587" />
    <path
       fill="#b80e0e"
       d="m 43.872976,41.557414 c -2.331624,0.481982 -7.96683,2.258301 -8.426814,0 1.999622,-0.466409 8.503122,-1.624416 8.426814,0 z"
       id="path11"
       style="stroke-width:2.17587" />
    <ellipse
       fill="#b80e0e"
       cx="61.334755"
       cy="46.283958"
       transform="matrix(0.9999757,0.00697095,-0.00699159,0.99997556,0,0)"
       rx="4.7468867"
       ry="0.95667112"
       id="ellipse11"
       style="stroke-width:2.17586" />
    <path
       fill="#b80e0e"
       d="m 36.382475,47.036531 c 0.1487,-1.577497 3.44488,-0.493499 4.955312,-0.867113 2.59582,-0.95034 5.102709,1.886233 0.862618,1.86591 -1.983954,0.136216 -3.986067,-0.237922 -5.81793,-0.998797 z"
       id="path12"
       style="stroke-width:2.17587" />
  </g>
</svg>
