<?xml version="1.0" encoding="UTF-8" standalone="no"?>
<!-- Created with Inkscape (http://www.inkscape.org/) -->

<svg
   width="100"
   height="100"
   id="svg2"
   sodipodi:version="0.32"
   inkscape:version="1.3 (0e150ed6c4, 2023-07-21)"
   version="1.0"
   sodipodi:docname="ship.svg"
   inkscape:output_extension="org.inkscape.output.svg.inkscape"
   xmlns:inkscape="http://www.inkscape.org/namespaces/inkscape"
   xmlns:sodipodi="http://sodipodi.sourceforge.net/DTD/sodipodi-0.dtd"
   xmlns:xlink="http://www.w3.org/1999/xlink"
   xmlns="http://www.w3.org/2000/svg"
   xmlns:svg="http://www.w3.org/2000/svg"
   xmlns:rdf="http://www.w3.org/1999/02/22-rdf-syntax-ns#"
   xmlns:cc="http://creativecommons.org/ns#"
   xmlns:dc="http://purl.org/dc/elements/1.1/">
  <defs
     id="defs4">
    <linearGradient
       id="linearGradient3214">
      <stop
         style="stop-color:#c6c600;stop-opacity:1;"
         offset="0"
         id="stop3216" />
      <stop
         style="stop-color:#ffff00;stop-opacity:1;"
         offset="1"
         id="stop3218" />
    </linearGradient>
    <linearGradient
       id="linearGradient3202">
      <stop
         style="stop-color:#ff0000;stop-opacity:1;"
         offset="0"
         id="stop3204" />
      <stop
         style="stop-color:#bd0000;stop-opacity:1;"
         offset="1"
         id="stop3206" />
    </linearGradient>
    <linearGradient
       id="linearGradient3194">
      <stop
         style="stop-color:#dedede;stop-opacity:1;"
         offset="0"
         id="stop3196" />
      <stop
         style="stop-color:#989898;stop-opacity:1;"
         offset="1"
         id="stop3198" />
    </linearGradient>
    <inkscape:perspective
       sodipodi:type="inkscape:persp3d"
       inkscape:vp_x="0 : 556.18109 : 1"
       inkscape:vp_y="0 : 1000 : 0"
       inkscape:vp_z="744.09448 : 556.18109 : 1"
       inkscape:persp3d-origin="372.04724 : 380.78739 : 1"
       id="perspective10" />
    <linearGradient
       inkscape:collect="always"
       xlink:href="#linearGradient3202"
       id="linearGradient3208"
       x1="42.241379"
       y1="32.741379"
       x2="115.51724"
       y2="62.051723"
       gradientUnits="userSpaceOnUse"
       gradientTransform="translate(-32.758621,-3.8793108)" />
  </defs>
  <sodipodi:namedview
     id="base"
     pagecolor="#ffffff"
     bordercolor="#666666"
     borderopacity="1.0"
     gridtolerance="10000"
     guidetolerance="10"
     objecttolerance="10"
     inkscape:pageopacity="0.0"
     inkscape:pageshadow="2"
     inkscape:zoom="8.0358403"
     inkscape:cx="50.088104"
     inkscape:cy="50.088104"
     inkscape:document-units="px"
     inkscape:current-layer="layer1"
     showgrid="false"
     inkscape:window-width="1920"
     inkscape:window-height="1013"
     inkscape:window-x="-9"
     inkscape:window-y="-9"
     inkscape:showpageshadow="2"
     inkscape:pagecheckerboard="0"
     inkscape:deskcolor="#d1d1d1"
     inkscape:window-maximized="1" />
  <metadata
     id="metadata7">
    <rdf:RDF>
      <cc:Work
         rdf:about="">
        <dc:format>image/svg+xml</dc:format>
        <dc:type
           rdf:resource="http://purl.org/dc/dcmitype/StillImage" />
      </cc:Work>
    </rdf:RDF>
  </metadata>
  <g
     inkscape:label="Layer 1"
     inkscape:groupmode="layer"
     id="layer1">
    <ellipse
       class="st0"
       cx="50.095612"
       cy="50.088902"
       id="circle1"
       style="fill:#1a1a1a;stroke-width:0.0924307"
       rx="49.861767"
       ry="49.963661" />
    <ellipse
       class="st1"
       cx="49.983673"
       cy="50.056149"
       id="circle2"
       style="display:inline;fill:#f3f2cc;stroke-width:0.0897546"
       rx="44.971252"
       ry="44.873425" />
    <g
       class="st2"
       id="g2"
       style="enable-background:new"
       transform="matrix(0.07281873,0,0,0.11188065,10.562908,-10.093334)">&#10;	<path
   class="st0"
   d="m 523.2,213.8 c 41.7,5.2 65.1,31.2 70.3,78.1 57.3,5.2 140.6,10.4 250,15.6 10.4,0 18.2,5.2 23.4,15.6 0,15.6 -7.8,26 -23.4,31.2 h -125 c -10.4,10.4 -15.6,23.4 -15.6,39.1 46.9,31.2 96.3,70.3 148.4,117.2 10.4,10.4 5.2,18.2 -15.6,23.4 -15.6,0 -33.9,-2.6 -54.7,-7.8 -52.1,-26 -88.5,-54.7 -109.4,-85.9 -20.8,31.2 -52.1,57.3 -93.8,78.1 l 7.8,31.2 c 171.9,15.6 317.7,23.4 437.5,23.4 -26,83.3 -72.9,117.2 -140.6,101.6 -78.1,-31.2 -177.1,-52.1 -296.9,-62.5 -5.2,72.9 -5.2,132.8 0,179.7 0,15.6 -7.8,31.2 -23.4,46.9 -62.5,20.8 -91.2,15.6 -85.9,-15.6 10.4,-67.7 10.4,-135.4 0,-203.1 -135.4,10.4 -260.4,28.7 -375,54.7 -31.2,5.2 -41.7,-10.4 -31.2,-46.9 20.8,-36.5 57.3,-57.3 109.4,-62.5 99,5.2 197.9,0 296.9,-15.6 0,-26 7.8,-44.3 23.4,-54.7 -26,-15.6 -54.7,-31.2 -85.9,-46.9 C 367,500.2 328,531.4 296.7,541.8 239.4,547 216,534 226.4,502.7 c 88.5,-36.5 145.8,-88.5 171.9,-156.2 -62.5,0 -119.8,7.8 -171.9,23.4 -36.5,5.2 -49.5,-5.2 -39.1,-31.2 20.8,-36.5 49.5,-54.7 85.9,-54.7 26,5.2 93.8,10.4 203.1,15.6 -5.2,-51.9 10.4,-80.6 46.9,-85.8 z m 7.8,265.6 31.2,15.6 c 36.5,-36.5 65.1,-83.3 85.9,-140.6 H 460.7 c -10.4,26 -18.2,41.7 -23.4,46.9 78.1,20.9 109.3,46.9 93.7,78.1 z"
   id="path2"
   style="fill:#050200" />
&#10;</g>
  </g>
</svg>
