<?xml version="1.0" encoding="UTF-8" standalone="no"?>
<!-- Created with Inkscape (http://www.inkscape.org/) -->

<svg
   width="100"
   height="100"
   id="svg2"
   sodipodi:version="0.32"
   inkscape:version="1.3 (0e150ed6c4, 2023-07-21)"
   version="1.0"
   sodipodi:docname="ship.svg"
   inkscape:output_extension="org.inkscape.output.svg.inkscape"
   xmlns:inkscape="http://www.inkscape.org/namespaces/inkscape"
   xmlns:sodipodi="http://sodipodi.sourceforge.net/DTD/sodipodi-0.dtd"
   xmlns:xlink="http://www.w3.org/1999/xlink"
   xmlns="http://www.w3.org/2000/svg"
   xmlns:svg="http://www.w3.org/2000/svg"
   xmlns:rdf="http://www.w3.org/1999/02/22-rdf-syntax-ns#"
   xmlns:cc="http://creativecommons.org/ns#"
   xmlns:dc="http://purl.org/dc/elements/1.1/">
  <defs
     id="defs4">
    <linearGradient
       id="linearGradient3214">
      <stop
         style="stop-color:#c6c600;stop-opacity:1;"
         offset="0"
         id="stop3216" />
      <stop
         style="stop-color:#ffff00;stop-opacity:1;"
         offset="1"
         id="stop3218" />
    </linearGradient>
    <linearGradient
       id="linearGradient3202">
      <stop
         style="stop-color:#ff0000;stop-opacity:1;"
         offset="0"
         id="stop3204" />
      <stop
         style="stop-color:#bd0000;stop-opacity:1;"
         offset="1"
         id="stop3206" />
    </linearGradient>
    <linearGradient
       id="linearGradient3194">
      <stop
         style="stop-color:#dedede;stop-opacity:1;"
         offset="0"
         id="stop3196" />
      <stop
         style="stop-color:#989898;stop-opacity:1;"
         offset="1"
         id="stop3198" />
    </linearGradient>
    <inkscape:perspective
       sodipodi:type="inkscape:persp3d"
       inkscape:vp_x="0 : 556.18109 : 1"
       inkscape:vp_y="0 : 1000 : 0"
       inkscape:vp_z="744.09448 : 556.18109 : 1"
       inkscape:persp3d-origin="372.04724 : 380.78739 : 1"
       id="perspective10" />
    <linearGradient
       inkscape:collect="always"
       xlink:href="#linearGradient3202"
       id="linearGradient3208"
       x1="42.241379"
       y1="32.741379"
       x2="115.51724"
       y2="62.051723"
       gradientUnits="userSpaceOnUse"
       gradientTransform="translate(-32.758621,-3.8793108)" />
  </defs>
  <sodipodi:namedview
     id="base"
     pagecolor="#ffffff"
     bordercolor="#666666"
     borderopacity="1.0"
     gridtolerance="10000"
     guidetolerance="10"
     objecttolerance="10"
     inkscape:pageopacity="0.0"
     inkscape:pageshadow="2"
     inkscape:zoom="6.5619509"
     inkscape:cx="55.395111"
     inkscape:cy="55.242718"
     inkscape:document-units="px"
     inkscape:current-layer="layer1"
     showgrid="false"
     inkscape:window-width="1920"
     inkscape:window-height="1013"
     inkscape:window-x="-9"
     inkscape:window-y="-9"
     inkscape:showpageshadow="2"
     inkscape:pagecheckerboard="0"
     inkscape:deskcolor="#d1d1d1"
     inkscape:window-maximized="1" />
  <metadata
     id="metadata7">
    <rdf:RDF>
      <cc:Work
         rdf:about="">
        <dc:format>image/svg+xml</dc:format>
        <dc:type
           rdf:resource="http://purl.org/dc/dcmitype/StillImage" />
      </cc:Work>
    </rdf:RDF>
  </metadata>
  <g
     inkscape:label="Layer 1"
     inkscape:groupmode="layer"
     id="layer1">
    <ellipse
       class="st0"
       cx="50.095612"
       cy="50.088902"
       id="circle1"
       style="fill:#e41220;stroke-width:0.0924307"
       rx="49.861767"
       ry="49.963661" />
    <ellipse
       class="st1"
       cx="49.983673"
       cy="50.056149"
       id="circle2"
       style="display:inline;fill:#f3f2cc;stroke-width:0.0897546"
       rx="44.971252"
       ry="44.873425" />
    <g
       class="st2"
       id="g2"
       style="enable-background:new"
       transform="matrix(0.08275303,0,0,0.1163508,4.7520234,-13.288409)">&#10;	<path
   class="st0"
   d="m 322.3,440.8 c -41.7,0 -85.9,7.8 -132.8,23.4 -20.8,5.2 -28.7,-7.8 -23.4,-39.1 20.8,-36.5 44.3,-52.1 70.3,-46.9 36.5,5.2 65.1,5.2 85.9,0 5.2,-20.8 2.6,-46.9 -7.8,-78.1 -10.4,-36.5 5.2,-57.3 46.9,-62.5 41.7,0 59.9,15.6 54.7,46.9 v 93.8 h 62.5 c 20.8,0 36.5,5.2 46.9,15.6 10.4,20.8 0,33.9 -31.2,39.1 -31.2,0 -57.3,2.6 -78.1,7.8 V 472 c 20.8,15.6 39.1,31.2 54.7,46.9 26,26 46.9,49.5 62.5,70.3 10.4,26 2.6,36.5 -23.4,31.2 -20.8,-5.2 -52.1,-23.4 -93.8,-54.7 v 203.1 c 5.2,52.1 -10.4,80.7 -46.9,85.9 -41.7,5.2 -59.9,-20.8 -54.7,-78.1 10.4,-72.9 13,-148.4 7.8,-226.6 -26,26 -54.7,57.3 -85.9,93.8 C 189.6,690.7 145.3,701.1 103.7,675 82.9,664.6 75,651.6 80.3,635.9 95.9,625.5 122,612.5 158.4,596.8 257.1,544.9 311.8,492.9 322.3,440.8 Z M 634.8,331.4 c 52.1,5.2 104.2,5.2 156.2,0 20.8,-5.2 39.1,-10.4 54.7,-15.6 62.5,-5.2 88.5,18.2 78.1,70.3 -5.2,31.2 -7.8,59.9 -7.8,85.9 -5.2,104.2 -7.8,197.9 -7.8,281.2 10.4,46.9 -5.2,67.7 -46.9,62.5 -15.6,-5.2 -36.5,-13 -62.5,-23.4 -52.1,-10.4 -101.6,-10.4 -148.4,0 -15.6,5.2 -31.2,13 -46.9,23.4 -26,5.2 -41.7,-7.8 -46.9,-39.1 5.2,-67.7 5.2,-135.4 0,-203.1 0,-67.7 -5.2,-135.4 -15.6,-203.1 0,-46.8 31.3,-59.8 93.8,-39 z m 31.2,54.7 c -36.5,5.2 -46.9,31.2 -31.2,78.1 36.5,5.2 72.9,7.8 109.4,7.8 67.7,5.2 96.3,-15.6 85.9,-62.5 0,-15.6 -13,-23.4 -39.1,-23.4 -41.7,-5.2 -83.3,-5.2 -125,0 z m 148.4,140.6 c -52.1,-10.4 -109.4,-10.4 -171.9,0 -10.4,26 -10.4,49.5 0,70.3 57.3,15.6 112,18.2 164.1,7.8 20.9,-20.8 23.5,-46.9 7.8,-78.1 z m 0,140.6 c -72.9,-10.4 -130.2,-10.4 -171.9,0 -10.4,31.2 -7.8,54.7 7.8,70.3 46.9,5.2 93.8,5.2 140.6,0 31.4,-10.4 39.2,-33.8 23.5,-70.3 z"
   id="path2"
   style="fill:#e41220" />
&#10;</g>
  </g>
</svg>
