<?xml version="1.0" encoding="UTF-8" standalone="no"?>
<!-- Created with Inkscape (http://www.inkscape.org/) -->

<svg
   width="100"
   height="100"
   id="svg2"
   sodipodi:version="0.32"
   inkscape:version="1.3 (0e150ed6c4, 2023-07-21)"
   version="1.0"
   sodipodi:docname="ship.svg"
   inkscape:output_extension="org.inkscape.output.svg.inkscape"
   xmlns:inkscape="http://www.inkscape.org/namespaces/inkscape"
   xmlns:sodipodi="http://sodipodi.sourceforge.net/DTD/sodipodi-0.dtd"
   xmlns:xlink="http://www.w3.org/1999/xlink"
   xmlns="http://www.w3.org/2000/svg"
   xmlns:svg="http://www.w3.org/2000/svg"
   xmlns:rdf="http://www.w3.org/1999/02/22-rdf-syntax-ns#"
   xmlns:cc="http://creativecommons.org/ns#"
   xmlns:dc="http://purl.org/dc/elements/1.1/">
  <defs
     id="defs4">
    <linearGradient
       id="linearGradient3214">
      <stop
         style="stop-color:#c6c600;stop-opacity:1;"
         offset="0"
         id="stop3216" />
      <stop
         style="stop-color:#ffff00;stop-opacity:1;"
         offset="1"
         id="stop3218" />
    </linearGradient>
    <linearGradient
       id="linearGradient3202">
      <stop
         style="stop-color:#ff0000;stop-opacity:1;"
         offset="0"
         id="stop3204" />
      <stop
         style="stop-color:#bd0000;stop-opacity:1;"
         offset="1"
         id="stop3206" />
    </linearGradient>
    <linearGradient
       id="linearGradient3194">
      <stop
         style="stop-color:#dedede;stop-opacity:1;"
         offset="0"
         id="stop3196" />
      <stop
         style="stop-color:#989898;stop-opacity:1;"
         offset="1"
         id="stop3198" />
    </linearGradient>
    <inkscape:perspective
       sodipodi:type="inkscape:persp3d"
       inkscape:vp_x="0 : 556.18109 : 1"
       inkscape:vp_y="0 : 1000 : 0"
       inkscape:vp_z="744.09448 : 556.18109 : 1"
       inkscape:persp3d-origin="372.04724 : 380.78739 : 1"
       id="perspective10" />
    <linearGradient
       inkscape:collect="always"
       xlink:href="#linearGradient3202"
       id="linearGradient3208"
       x1="42.241379"
       y1="32.741379"
       x2="115.51724"
       y2="62.051723"
       gradientUnits="userSpaceOnUse"
       gradientTransform="translate(-32.758621,-3.8793108)" />
  </defs>
  <sodipodi:namedview
     id="base"
     pagecolor="#ffffff"
     bordercolor="#666666"
     borderopacity="1.0"
     gridtolerance="10000"
     guidetolerance="10"
     objecttolerance="10"
     inkscape:pageopacity="0.0"
     inkscape:pageshadow="2"
     inkscape:zoom="6.5619509"
     inkscape:cx="54.785536"
     inkscape:cy="53.413993"
     inkscape:document-units="px"
     inkscape:current-layer="layer1"
     showgrid="false"
     inkscape:window-width="1920"
     inkscape:window-height="1013"
     inkscape:window-x="-9"
     inkscape:window-y="-9"
     inkscape:showpageshadow="2"
     inkscape:pagecheckerboard="0"
     inkscape:deskcolor="#d1d1d1"
     inkscape:window-maximized="1" />
  <metadata
     id="metadata7">
    <rdf:RDF>
      <cc:Work
         rdf:about="">
        <dc:format>image/svg+xml</dc:format>
        <dc:type
           rdf:resource="http://purl.org/dc/dcmitype/StillImage" />
      </cc:Work>
    </rdf:RDF>
  </metadata>
  <g
     inkscape:label="Layer 1"
     inkscape:groupmode="layer"
     id="layer1">
    <ellipse
       class="st0"
       cx="50.095612"
       cy="50.088902"
       id="circle1"
       style="fill:#e41220;stroke-width:0.0924307"
       rx="49.861767"
       ry="49.963661" />
    <ellipse
       class="st1"
       cx="49.983673"
       cy="50.056149"
       id="circle2"
       style="display:inline;fill:#f3f2cc;stroke-width:0.0897546"
       rx="44.971252"
       ry="44.873425" />
    <g
       class="st2"
       id="g2"
       style="enable-background:new"
       transform="matrix(0.06675923,0,0,0.11701019,12.704079,-14.67845)">&#10;	<path
   class="st0"
   d="m 281,646.9 c 20.8,15.6 20.8,36.5 0,62.5 -31.2,46.9 -62.5,83.3 -93.8,109.4 -36.5,20.8 -49.5,15.6 -39.1,-15.6 36.5,-57.3 62.5,-106.8 78.1,-148.4 10.5,-20.9 28.8,-23.5 54.8,-7.9 z m 585.9,31.2 c 10.4,-52.1 -2.6,-75.5 -39.1,-70.3 -135.4,-10.4 -304.7,-10.4 -507.8,0 -41.7,31.2 -70.3,28.7 -85.9,-7.8 -5.2,-26 -5.2,-49.5 0,-70.3 10.4,-88.5 7.8,-161.5 -7.8,-218.8 0,-57.3 28.6,-72.9 85.9,-46.9 31.2,10.4 190.1,13 476.6,7.8 52.1,-5.2 78.1,2.6 78.1,23.4 -5.2,26 -46.9,36.5 -125,31.2 H 593.5 c -5.2,15.6 -5.2,28.7 0,39.1 88.5,0 153.6,0 195.3,0 26,5.2 36.5,13 31.2,23.4 0,15.6 -10.4,23.4 -31.2,23.4 -67.7,0 -130.2,2.6 -187.5,7.8 -10.4,10.4 -13,20.8 -7.8,31.2 62.5,0 130.2,0 203.1,0 31.2,10.4 31.2,26 0,46.9 -78.1,0 -145.8,2.6 -203.1,7.8 -5.2,20.8 -2.6,33.9 7.8,39.1 140.6,5.2 231.8,2.6 273.4,-7.8 46.9,-31.2 75.5,-20.8 85.9,31.2 -5.2,31.2 -10.4,72.9 -15.6,125 C 919,824 840.9,873.4 710.7,842.2 669,821.4 648.2,800.5 648.2,779.7 768,805.7 840.9,771.9 866.9,678.1 Z M 335.7,326.6 c -15.6,15.6 -15.6,28.7 0,39.1 57.3,5.2 109.4,5.2 156.2,0 15.6,-10.4 15.6,-23.4 0,-39.1 -52.1,-5.2 -104.1,-5.2 -156.2,0 z m 0,179.7 c -15.6,15.6 -15.6,28.7 0,39.1 52.1,5.2 104.2,5.2 156.2,0 15.6,-10.4 15.6,-23.4 0,-39.1 -52.1,-5.2 -104.1,-5.2 -156.2,0 z m 0,-86 c -15.6,20.8 -10.4,33.9 15.6,39.1 83.3,5.2 132.8,2.6 148.4,-7.8 10.4,-10.4 7.8,-20.8 -7.8,-31.2 -62.5,-5.3 -114.6,-5.3 -156.2,-0.1 z m 85.9,336 c -20.8,31.2 -36.5,28.7 -46.9,-7.8 L 366.9,686 c -5.2,-26 2.6,-41.7 23.4,-46.9 26,0 39.1,13 39.1,39.1 z M 577.9,646.9 c 5.2,31.2 2.6,67.7 -7.8,109.4 -15.6,15.6 -28.7,15.6 -39.1,0 -5.2,-46.9 -10.4,-80.7 -15.6,-101.6 15.6,-31.3 36.4,-33.8 62.5,-7.8 z M 781,725 c 0,26 -15.6,28.7 -46.9,7.8 -57.3,-46.9 -72.9,-75.5 -46.9,-85.9 20.8,-15.6 39.1,-13 54.7,7.8 5.2,15.6 18.3,39.1 39.1,70.3 z"
   id="path2"
   style="fill:#e41220" />
&#10;</g>
  </g>
</svg>
