<?xml version="1.0" encoding="UTF-8" standalone="no"?>
<!-- Created with Inkscape (http://www.inkscape.org/) -->

<svg
   width="100"
   height="100"
   id="svg2"
   sodipodi:version="0.32"
   inkscape:version="1.3 (0e150ed6c4, 2023-07-21)"
   version="1.0"
   sodipodi:docname="ba.svg"
   inkscape:output_extension="org.inkscape.output.svg.inkscape"
   xmlns:inkscape="http://www.inkscape.org/namespaces/inkscape"
   xmlns:sodipodi="http://sodipodi.sourceforge.net/DTD/sodipodi-0.dtd"
   xmlns:xlink="http://www.w3.org/1999/xlink"
   xmlns="http://www.w3.org/2000/svg"
   xmlns:svg="http://www.w3.org/2000/svg"
   xmlns:rdf="http://www.w3.org/1999/02/22-rdf-syntax-ns#"
   xmlns:cc="http://creativecommons.org/ns#"
   xmlns:dc="http://purl.org/dc/elements/1.1/">
  <defs
     id="defs4">
    <linearGradient
       id="linearGradient3214">
      <stop
         style="stop-color:#c6c600;stop-opacity:1;"
         offset="0"
         id="stop3216" />
      <stop
         style="stop-color:#ffff00;stop-opacity:1;"
         offset="1"
         id="stop3218" />
    </linearGradient>
    <linearGradient
       id="linearGradient3202">
      <stop
         style="stop-color:#ff0000;stop-opacity:1;"
         offset="0"
         id="stop3204" />
      <stop
         style="stop-color:#bd0000;stop-opacity:1;"
         offset="1"
         id="stop3206" />
    </linearGradient>
    <linearGradient
       id="linearGradient3194">
      <stop
         style="stop-color:#dedede;stop-opacity:1;"
         offset="0"
         id="stop3196" />
      <stop
         style="stop-color:#989898;stop-opacity:1;"
         offset="1"
         id="stop3198" />
    </linearGradient>
    <inkscape:perspective
       sodipodi:type="inkscape:persp3d"
       inkscape:vp_x="0 : 556.18109 : 1"
       inkscape:vp_y="0 : 1000 : 0"
       inkscape:vp_z="744.09448 : 556.18109 : 1"
       inkscape:persp3d-origin="372.04724 : 380.78739 : 1"
       id="perspective10" />
    <linearGradient
       inkscape:collect="always"
       xlink:href="#linearGradient3202"
       id="linearGradient3208"
       x1="42.241379"
       y1="32.741379"
       x2="115.51724"
       y2="62.051723"
       gradientUnits="userSpaceOnUse"
       gradientTransform="translate(-32.758621,-3.8793108)" />
  </defs>
  <sodipodi:namedview
     id="base"
     pagecolor="#ffffff"
     bordercolor="#666666"
     borderopacity="1.0"
     gridtolerance="10000"
     guidetolerance="10"
     objecttolerance="10"
     inkscape:pageopacity="0.0"
     inkscape:pageshadow="2"
     inkscape:zoom="2.8410986"
     inkscape:cx="73.035128"
     inkscape:cy="43.821077"
     inkscape:document-units="px"
     inkscape:current-layer="layer1"
     showgrid="false"
     inkscape:window-width="1366"
     inkscape:window-height="715"
     inkscape:window-x="144"
     inkscape:window-y="892"
     inkscape:showpageshadow="2"
     inkscape:pagecheckerboard="0"
     inkscape:deskcolor="#d1d1d1"
     inkscape:window-maximized="1" />
  <metadata
     id="metadata7">
    <rdf:RDF>
      <cc:Work
         rdf:about="">
        <dc:format>image/svg+xml</dc:format>
        <dc:type
           rdf:resource="http://purl.org/dc/dcmitype/StillImage" />
      </cc:Work>
    </rdf:RDF>
  </metadata>
  <g
     inkscape:label="Layer 1"
     inkscape:groupmode="layer"
     id="layer1">
    <g
       stroke-width="2"
       fill="none"
       stroke-linecap="butt"
       id="g3"
       transform="matrix(2.0088358,0,0,1.9957107,-3.4398956,-2.9767953)">
      <path
         stroke="#878787"
         vector-effect="non-scaling-stroke"
         d="M 46.38,26.31 C 46.611536,16.168114 38.031892,6.8867081 27.903105,6.3218075 13.147775,4.4684043 1.1947146,21.91686 8.2655742,35.009369 13.871052,48.071807 33.634119,50.29857 42.005721,38.810971 44.822553,35.298314 46.392182,30.812571 46.38,26.31 Z"
         id="path1" />
      <path
         stroke="#878787"
         vector-effect="non-scaling-stroke"
         d="M 45.05,26.38 C 45.265254,16.951334 37.288966,8.3226353 27.872478,7.7974609 14.154804,6.0743968 3.0423332,22.295804 9.6159403,34.467593 14.827217,46.611425 33.200463,48.681593 40.983339,38.00185 43.602079,34.736218 45.061326,30.565931 45.05,26.38 Z"
         id="path2" />
      <path
         stroke="#878787"
         vector-effect="non-scaling-stroke"
         d="m 22.83,20.07 c -3.716793,1.374563 -8.231975,0.75762 -11.37,3.52 -1.6060431,3.578117 3.660391,3.054428 5.390977,1.564219 1.753036,-0.48259 5.668696,-2.057643 6.18849,0.38776 0.08351,1.592674 0.167022,3.185347 0.250533,4.778021 -0.149173,2.458223 -2.793827,2.198072 -4.514004,2.69455 -1.485332,0.30515 -2.970664,0.6103 -4.455996,0.91545 -2.213172,2.555198 2.524956,4.290393 4.57,2.93 4.683706,-1.239231 9.633556,-1.271377 14.375,-0.339844 2.992413,0.538113 3.74561,-4.410376 0.56174,-4.520659 -2.372507,-1.064884 -6.450105,1.058674 -7.181102,-2.220839 C 26.620425,28.152439 26.595213,26.526219 26.57,24.9 c 1.209089,-2.731398 4.599203,-0.699848 6.518823,0.07752 2.011766,1.19043 4.551286,0.78861 5.913404,-1.163134 1.062899,-0.713558 3.808021,-4.500223 1.056737,-3.657972 -1.546515,0.509764 -3.081783,1.75215 -4.757245,0.905301 -2.724726,-1.485366 -7.143913,0.830241 -8.465257,-2.493287 -0.36624,-1.123239 -0.233674,-2.490082 -1.249246,-3.296204 -2.091948,-0.412724 -1.794649,1.974937 -2.12459,3.277887 C 23.329658,19.091054 23.441469,19.745383 22.83,20.07 Z"
         id="path3" />
    </g>
    <path
       fill="#0f0e0f"
       d="M 81.290186,89.509026 C 63.488808,104.05264 35.625874,103.38903 18.308444,88.390751 -8.6055366,67.652247 -4.5085561,20.469541 27.098828,6.0760675 57.092454,-10.573082 98.256473,12.698879 99.810849,46.631681 101.3437,62.819856 94.210055,79.493888 81.290186,89.509026 Z M 89.729909,49.530351 C 90.195034,29.290081 72.959926,10.767081 52.61285,9.639702 22.971815,5.9408461 -1.0399199,40.762916 13.164278,66.891774 c 11.260488,26.068846 50.96125,30.512821 67.77842,7.586897 5.65855,-7.010246 8.811679,-15.962491 8.787211,-24.94832 z"
       id="path4"
       style="stroke-width:2.00227" />
    <path
       fill="#ffffff"
       d="M 89.729909,49.530351 C 90.969802,77.871388 57.14151,98.988238 31.977145,85.581718 5.7368484,74.394806 1.2636522,34.953443 24.340355,18.246149 44.981183,0.277646 80.36781,11.520544 87.758599,37.165346 c 1.304537,3.984981 1.972475,8.174571 1.97131,12.365005 z M 87.058158,49.67005 C 87.490559,30.853161 71.467522,13.632775 52.55134,12.584681 25.033745,9.1806548 2.6431007,41.493739 15.876949,65.810545 26.345555,90.046121 63.254377,94.177577 78.888905,72.8639 84.149524,66.346644 87.080917,58.023958 87.058158,49.67005 Z"
       id="path5"
       style="stroke-width:2.00227" />
    <path
       fill="#0f0e0f"
       d="m 87.058158,49.67005 c 1.15269,26.347977 -30.29666,45.9798 -53.69134,33.516085 C 8.9718371,72.785934 4.8132256,36.118252 26.26707,20.585884 45.456354,3.8810014 78.354434,14.333252 85.225476,38.174604 c 1.212814,3.70474 1.833766,7.599703 1.832682,11.495446 z M 42.421826,37.077117 c -7.466421,2.74323 -16.536696,1.51199 -22.840464,7.0249 -3.22627,7.140887 7.353123,6.095757 10.829594,3.121729 3.504896,-0.955195 10.988492,-3.969689 12.416855,0.493472 0.172761,3.271977 0.34538,6.543955 0.51808,9.815933 -0.299659,4.905901 -5.612346,4.386715 -9.067886,5.377541 -2.983804,0.608992 -5.967588,1.217983 -8.951372,1.826974 -4.445895,5.099436 5.072231,8.562384 9.18038,5.847433 9.408804,-2.473147 19.35224,-2.537301 28.877014,-0.678232 6.011261,1.073918 7.524316,-8.801833 1.128443,-9.021927 -4.765982,-2.1252 -12.957211,2.112808 -14.42565,-4.432151 -0.05063,-3.245463 -0.101249,-6.490927 -0.151868,-9.73639 2.428863,-5.45108 9.239038,-1.396693 13.095239,0.154707 4.041315,2.375755 9.142794,1.573839 11.87907,-2.321277 2.135191,-1.424057 7.649686,-8.981144 2.122797,-7.300255 -3.106685,1.017342 -6.190791,3.496784 -9.556514,1.806719 -5.473536,-2.96436 -14.350943,1.656921 -17.005318,-4.975879 -0.735715,-2.24166 -0.469405,-4.969484 -2.509518,-6.57827 -4.148326,-0.867238 -3.597563,3.735217 -4.222191,6.264647 -0.298332,1.164064 -0.03877,2.586847 -1.316611,3.310318 z"
       id="path6"
       style="stroke-width:2.00227" />
    <path
       fill="#ffffff"
       d="m 43.386067,35.899648 c 0.753535,-2.794147 0.227219,-6.118549 2.376111,-8.334581 4.084907,-1.101629 3.812289,3.52233 4.592279,6.009638 1.554256,7.037056 10.302093,2.755823 15.343508,5.022894 3.129144,1.436266 6.398082,1.078604 9.333091,-0.534544 2.108092,-1.529037 6.498183,-1.841389 3.754535,1.814713 -2.653412,3.363246 -5.554954,7.889789 -10.184377,8.397009 -5.81369,-0.0098 -10.665592,-5.562845 -16.591838,-3.946243 -3.174262,1.326079 -1.733384,5.069653 -1.991258,7.721896 0.273322,3.010297 -1.015427,7.607451 3.371951,8.196887 4.919017,0.111815 10.794359,-0.861697 14.794132,2.604403 3.037359,6.469757 -5.583659,8.460611 -10.204183,6.224727 -9.020074,-1.272278 -18.12902,0.04521 -26.889593,2.219623 -4.408129,2.1635 -10.541185,-5.781213 -4.379604,-6.840917 4.460258,-0.910335 8.920496,-1.820673 13.380755,-2.73101 4.664256,-1.46427 2.878923,-6.309874 2.958333,-9.798734 -0.273001,-1.94935 0.156287,-4.063978 -0.637444,-5.890774 -5.470041,-1.600621 -11.269127,0.686671 -16.18971,3.074744 -4.661604,2.804117 -10.721398,-3.449543 -4.967469,-6.330928 6.3616,-3.975599 14.27561,-3.217924 21.16654,-5.701334 z"
       id="path7"
       style="stroke-width:2.00227" />
  </g>
</svg>
