<?xml version="1.0" encoding="UTF-8" standalone="no"?>
<!-- Created with Inkscape (http://www.inkscape.org/) -->

<svg
   width="100"
   height="100"
   id="svg2"
   sodipodi:version="0.32"
   inkscape:version="1.3 (0e150ed6c4, 2023-07-21)"
   version="1.0"
   sodipodi:docname="bb.svg"
   inkscape:output_extension="org.inkscape.output.svg.inkscape"
   xmlns:inkscape="http://www.inkscape.org/namespaces/inkscape"
   xmlns:sodipodi="http://sodipodi.sourceforge.net/DTD/sodipodi-0.dtd"
   xmlns:xlink="http://www.w3.org/1999/xlink"
   xmlns="http://www.w3.org/2000/svg"
   xmlns:svg="http://www.w3.org/2000/svg"
   xmlns:rdf="http://www.w3.org/1999/02/22-rdf-syntax-ns#"
   xmlns:cc="http://creativecommons.org/ns#"
   xmlns:dc="http://purl.org/dc/elements/1.1/">
  <defs
     id="defs4">
    <linearGradient
       id="linearGradient3214">
      <stop
         style="stop-color:#c6c600;stop-opacity:1;"
         offset="0"
         id="stop3216" />
      <stop
         style="stop-color:#ffff00;stop-opacity:1;"
         offset="1"
         id="stop3218" />
    </linearGradient>
    <linearGradient
       id="linearGradient3202">
      <stop
         style="stop-color:#ff0000;stop-opacity:1;"
         offset="0"
         id="stop3204" />
      <stop
         style="stop-color:#bd0000;stop-opacity:1;"
         offset="1"
         id="stop3206" />
    </linearGradient>
    <linearGradient
       id="linearGradient3194">
      <stop
         style="stop-color:#dedede;stop-opacity:1;"
         offset="0"
         id="stop3196" />
      <stop
         style="stop-color:#989898;stop-opacity:1;"
         offset="1"
         id="stop3198" />
    </linearGradient>
    <inkscape:perspective
       sodipodi:type="inkscape:persp3d"
       inkscape:vp_x="0 : 556.18109 : 1"
       inkscape:vp_y="0 : 1000 : 0"
       inkscape:vp_z="744.09448 : 556.18109 : 1"
       inkscape:persp3d-origin="372.04724 : 380.78739 : 1"
       id="perspective10" />
    <linearGradient
       inkscape:collect="always"
       xlink:href="#linearGradient3202"
       id="linearGradient3208"
       x1="42.241379"
       y1="32.741379"
       x2="115.51724"
       y2="62.051723"
       gradientUnits="userSpaceOnUse"
       gradientTransform="translate(-32.758621,-3.8793108)" />
  </defs>
  <sodipodi:namedview
     id="base"
     pagecolor="#ffffff"
     bordercolor="#666666"
     borderopacity="1.0"
     gridtolerance="10000"
     guidetolerance="10"
     objecttolerance="10"
     inkscape:pageopacity="0.0"
     inkscape:pageshadow="2"
     inkscape:zoom="2.8410986"
     inkscape:cx="23.406439"
     inkscape:cy="55.436302"
     inkscape:document-units="px"
     inkscape:current-layer="layer1"
     showgrid="false"
     inkscape:window-width="1366"
     inkscape:window-height="715"
     inkscape:window-x="144"
     inkscape:window-y="892"
     inkscape:showpageshadow="2"
     inkscape:pagecheckerboard="0"
     inkscape:deskcolor="#d1d1d1"
     inkscape:window-maximized="1" />
  <metadata
     id="metadata7">
    <rdf:RDF>
      <cc:Work
         rdf:about="">
        <dc:format>image/svg+xml</dc:format>
        <dc:type
           rdf:resource="http://purl.org/dc/dcmitype/StillImage" />
      </cc:Work>
    </rdf:RDF>
  </metadata>
  <g
     inkscape:label="Layer 1"
     inkscape:groupmode="layer"
     id="layer1">
    <g
       stroke-width="2"
       fill="none"
       stroke-linecap="butt"
       id="g6"
       transform="matrix(1.9991493,0,0,1.9893514,-3.0903921,-3.2144413)">
      <path
         stroke="#888787"
         vector-effect="non-scaling-stroke"
         d="M 46.39,26.29 C 46.621652,16.143056 38.037729,6.8570206 27.903889,6.2918383 13.1412,4.4375107 1.1821783,21.894669 8.2565645,34.993708 13.864838,48.062661 33.637762,50.290534 42.01354,38.797205 44.831776,35.282797 46.402188,30.794817 46.39,26.29 Z"
         id="path1" />
      <path
         stroke="#888787"
         vector-effect="non-scaling-stroke"
         d="M 45.05,26.41 C 45.265138,16.986393 37.29313,8.3623227 27.881693,7.8374301 14.171379,6.1152904 3.0648695,22.327995 9.63495,34.493254 14.843152,46.635463 33.204561,48.739233 40.985521,38.025615 43.602856,34.761736 45.06132,30.593686 45.05,26.41 Z"
         id="path2" />
      <path
         stroke="#888787"
         vector-effect="non-scaling-stroke"
         d="m 20.68,25.4 c -2.445881,1.86445 -5.865671,2.298399 -8.431084,3.917275 0.61757,2.666605 3.666524,-0.0054 5.296455,-0.401611 1.826729,-0.704828 3.543745,-1.81239 5.397581,-2.352458 1.187952,1.018319 -0.496082,1.624875 -1.350832,1.903499 -2.91404,1.217765 -5.82808,2.43553 -8.74212,3.653295 -1.690897,1.827914 1.011042,2.475791 2.158291,1.138076 3.090057,-1.418222 6.113118,-2.992337 9.202334,-4.401826 1.610504,0.642408 -0.42771,1.709961 -1.25096,2.01778 C 20.106443,32.34602 17.253222,33.81801 14.4,35.29 c -0.822192,2.733931 3.161903,1.133197 4.286139,0.09713 C 21.04841,34.062443 23.350572,32.363684 25.97,31.68 c 1.948272,2.696581 -2.182723,4.664972 -4.315249,5.335251 -1.692434,1.3822 2.345963,1.252107 3.381069,0.886741 2.491144,-0.55297 3.681957,-3.211716 3.75418,-5.551992 1.098445,-1.405075 1.8414,0.860559 2.5718,1.607783 0.7794,1.077405 1.5588,2.154811 2.3382,3.232217 2.604841,1.641797 6.699866,-0.325503 7.305,-3.25 -1.905481,-0.328389 -4.090939,-0.117439 -5.890713,-1.163184 -1.369246,-0.796047 -4.854466,-2.816944 -2.898649,-4.183332 1.007971,-0.297255 2.17569,-0.240073 3.056862,-0.825984 0.90568,-3.160578 -3.052614,-0.981128 -4.44875,-0.17625 -2.41926,1.671842 -5.474469,-3.650332 -1.626133,-2.852148 3.395234,0.640652 6.970166,-1.128442 8.501475,-4.229639 0.76431,-1.44385 -1.452673,-0.946712 -2.285257,-1.131341 C 34.30589,19.308748 33.197945,19.239374 32.09,19.17 30.853972,18.068087 33.138006,17.542053 33.892523,16.902322 35.839679,14.342311 31.313324,15.600095 29.9725,15.3125 c -2.80663,-0.837105 -5.407207,-0.795394 -7.982041,0.721279 -3.052539,1.104979 -6.30569,1.505663 -9.532334,1.576846 -0.767869,0.735038 -0.264969,2.078595 -0.240452,3.070158 0.705838,0.773726 1.878478,0.08244 2.797709,0.128825 2.155224,-0.862026 3.903378,2.141748 1.188993,3.005392 -1.839387,0.640365 -2.482273,3.236018 -0.148042,2.251729 1.548626,-0.288677 3.083982,-0.790532 4.641167,-0.941729 z"
         id="path3" />
      <path
         stroke="#888787"
         vector-effect="non-scaling-stroke"
         d="M 27.45,16.66 C 26.99591,15.572586 25.687132,16.803747 24.850287,16.910793 23.803525,17.297195 22.756762,17.683598 21.71,18.07 c -0.582528,1.449847 1.662047,0.649315 2.567334,0.746185 0.864222,-0.05206 1.728444,-0.104123 2.592666,-0.156185 0.745451,-0.366769 0.397221,-1.348893 0.58,-2 z"
         id="path4" />
      <path
         stroke="#888787"
         vector-effect="non-scaling-stroke"
         d="m 32.7903,21.8282 c -0.301145,-1.178597 -1.856952,-0.560142 -2.768859,-0.762549 -2.184983,0.06705 -0.494226,1.995862 0.913999,1.467815 0.652108,-0.05047 1.812794,0.357147 1.85486,-0.705266 z"
         id="path5" />
      <path
         stroke="#888787"
         vector-effect="non-scaling-stroke"
         d="m 24.6765,22.2002 c -0.452478,-1.389173 -2.117491,-0.665297 -3.2206,-0.8016 -2.25429,1.187478 0.473653,2.446808 1.877273,1.954781 0.72906,0.0931 1.506176,-0.287942 1.343327,-1.153181 z"
         id="path6" />
    </g>
    <path
       fill="#100f0f"
       d="M 99.905774,50.020602 C 101.31341,83.925221 62.099735,109.99856 31.160357,95.729699 -0.85638239,84.049083 -10.057213,38.020084 15.030403,15.036374 c 21.270239,-22.9642295 62.43424,-17.442156 77.637275,9.277723 4.717489,7.695385 7.250711,16.692307 7.238096,25.706505 z M 89.650139,49.085607 C 90.113246,28.899769 72.952704,10.426583 52.693646,9.3022353 23.180828,5.6133273 -0.72704137,40.341749 13.415714,66.400338 c 11.211773,25.998741 50.740799,30.430765 67.485229,7.566495 5.634074,-6.991392 8.773562,-15.919562 8.749196,-24.881226 z"
       id="path7"
       style="stroke-width:1.99424" />
    <path
       fill="#ffffff"
       d="M 89.650139,49.085607 C 90.884668,77.350427 57.202698,98.410487 32.147196,85.04002 6.0204088,73.883194 1.5665581,34.5479 24.543437,17.885535 45.094982,-0.03464422 80.328534,11.178019 87.687363,36.753854 c 1.298897,3.974263 1.963938,8.15259 1.962776,12.331753 z m -2.67886,0.238722 C 87.401372,30.577464 71.464139,13.421158 52.649273,12.376961 25.240309,8.9510194 3.0367403,41.203786 16.171311,65.404762 26.583283,89.559883 63.290479,93.74502 78.84578,72.431869 c 5.232443,-6.493004 8.148129,-14.784718 8.125499,-23.10754 z"
       id="path8"
       style="stroke-width:1.99424" />
    <path
       fill="#100f0f"
       d="M 86.971279,49.324329 C 88.117804,75.574259 56.836892,95.133029 33.567498,82.715692 9.3031899,72.354193 5.1668366,35.822959 26.505782,20.34839 45.592288,3.7056706 78.314176,14.119026 85.148421,37.871659 c 1.206305,3.690955 1.823938,7.571423 1.822858,11.45267 z M 38.252014,47.315084 c -4.889682,3.709046 -11.726352,4.572323 -16.854996,7.792836 0.928065,5.192449 7.051248,0.243106 10.054766,-0.565273 3.833188,-1.472051 7.443358,-3.754991 11.324208,-4.913537 2.374893,2.025794 -0.991742,3.232447 -2.700515,3.786728 -5.825601,2.422563 -11.651201,4.845125 -17.476802,7.267688 -3.222435,3.020402 1.389013,5.282909 3.656257,2.572169 6.399332,-2.919074 12.662391,-6.153388 19.055328,-9.064914 3.219637,1.277975 -0.855056,3.401712 -2.500856,4.014073 -5.704017,2.928305 -11.408031,5.85661 -17.112048,8.784915 -1.927939,5.042786 5.994981,2.651234 8.040329,0.501378 4.786014,-2.776306 9.467769,-5.871434 14.70999,-7.73267 4.677263,4.299241 -3.247388,9.243818 -7.365226,10.344278 -5.518546,3.010232 5.765,3.331958 8.145909,1.178651 4.531683,-2.079028 4.274481,-7.681555 6.178504,-11.272101 2.383764,0.568537 3.121604,3.350915 4.694207,5.010497 1.988458,2.259108 3.101986,5.478159 5.959111,6.784197 5.011611,1.198496 12.972505,-2.700804 12.352242,-7.813176 -6.767256,0.494697 -13.858414,-1.941391 -18.06936,-7.422886 -2.081514,-3.290463 2.77133,-3.07567 4.827699,-3.686896 4.022342,0.43282 2.869208,-7.026266 -0.971237,-3.926335 -3.847977,3.067594 -11.997692,5.172003 -12.884114,-1.683882 3.547867,-3.010759 9.926221,0.534124 14.186315,-2.787283 2.704343,-1.603984 8.662751,-6.310543 6.135259,-8.903226 -3.524893,-0.219631 -7.049786,-0.43926 -10.574678,-0.658889 -2.471004,-2.192093 2.09512,-3.238559 3.603513,-4.51121 3.848426,-5.517354 -5.957095,-2.248884 -8.748434,-3.257752 -5.862291,-2.451729 -11.105667,-0.318073 -16.588194,2.039531 -5.646519,1.853164 -11.605279,2.474671 -17.513932,2.627285 -1.535085,1.46225 -0.529713,4.135055 -0.4807,6.107624 1.502261,1.526932 3.942903,0.140447 5.872303,0.223072 4.320517,-1.650038 7.30833,4.492999 2.097709,6.011986 -3.677208,1.273912 -4.962434,6.437577 -0.295957,4.479481 3.095933,-0.57428 6.165339,-1.572647 9.278384,-1.87343 z"
       id="path9"
       style="stroke-width:1.99424" />
    <path
       fill="#ffffff"
       d="m 37.752226,46.718279 c -3.738409,0.822265 -7.476817,1.64453 -11.215227,2.466796 -4.051435,-3.8576 10.152128,-5.881874 4.471355,-10.815442 -3.02793,-1.201237 -6.342299,0.878335 -9.329225,-0.0032 -0.792067,-1.829834 -0.869849,-4.319543 -0.354911,-6.245039 4.818789,-0.844932 10.064487,-0.54905 14.889268,-2.050527 5.589973,-0.547346 10.478094,-5.870011 16.089814,-3.582989 4.096444,2.266274 10.566648,-1.109032 13.437016,1.808989 -0.06984,3.269987 -4.940936,2.894202 -5.693642,5.773247 1.631221,1.598673 4.24244,0.764776 6.34898,1.183605 2.009608,0.239808 4.127258,0.0193 6.06396,0.569701 -0.185841,3.982606 -4.492513,7.545157 -8.143635,9.213392 -4.044662,2.652573 -9.838567,-0.835019 -13.000569,2.233994 1.438128,8.083232 10.302188,3.337667 14.824735,0.999149 3.075038,0.913462 1.277549,5.291428 -1.74872,4.770076 -2.72089,0.0193 -6.657237,1.802369 -3.18264,4.514173 4.233723,4.885063 10.89017,6.845046 17.203637,6.436601 0.620263,5.112372 -7.340631,9.011672 -12.352242,7.813176 -2.878327,-1.370284 -4.049908,-4.61315 -6.06528,-6.930239 -1.063593,-1.463056 -2.127188,-2.926113 -3.190781,-4.38917 -4.139925,-0.42262 -1.953496,7.274167 -5.709055,9.401783 -3.105021,2.895324 -8.75705,3.770371 -12.247353,1.655256 3.646525,-2.797651 13.115825,-4.433499 10.559556,-11.156507 -3.407456,-1.248173 -7.423355,2.906073 -10.783778,4.213127 -3.610297,1.865053 -6.892248,4.758028 -10.926749,5.572188 -4.376316,-0.375656 -1.831816,-4.213036 1.000009,-4.720485 5.81176,-3.037578 11.725625,-5.911873 17.473756,-9.051205 0.509378,-5.026509 -6.802446,1.334861 -9.412544,1.866164 -4.554112,2.14243 -9.051986,4.439581 -13.688237,6.387371 -3.213386,-1.222457 -0.484987,-4.839525 2.123993,-5.047898 6.039683,-2.560494 12.161057,-4.959501 18.14988,-7.620541 0.89232,-4.547855 -5.041216,-0.347115 -7.10311,0.416599 -4.093145,1.779256 -8.120859,3.803009 -12.366105,5.175966 -4.959317,-0.524442 -0.885921,-4.782345 2.184071,-4.663786 3.02053,-1.819183 11.900375,-3.315476 11.693773,-6.194343 z M 51.786253,29.928153 c -0.987518,-2.135833 -3.704824,0.357116 -5.461064,0.595834 -2.004685,0.736384 -4.009367,1.472768 -6.014052,2.209151 -1.16456,2.884255 3.32268,1.291716 5.132484,1.484425 1.727709,-0.103566 3.455418,-0.207137 5.183127,-0.310707 1.442732,-0.777221 0.821312,-2.655126 1.159505,-3.978703 z M 62.46231,40.209519 c -0.602034,-2.344643 -3.712325,-1.11432 -5.535363,-1.516978 -4.368106,0.133386 -0.98803,3.970471 1.827221,2.92 1.303661,-0.100408 3.624047,0.71049 3.708142,-1.403022 z m -16.220696,0.740039 c -0.904572,-2.763553 -4.233182,-1.32351 -6.438461,-1.594665 -4.40555,2.176496 0.690335,4.951747 3.471781,3.895574 1.521037,0.147352 3.301747,-0.348754 2.96668,-2.300909 z"
       id="path10"
       style="stroke-width:1.99424" />
    <path
       fill="#100f0f"
       d="m 51.786253,29.928153 c 0.01719,1.935878 -0.22083,4.606943 -2.843966,4.079679 -2.757101,0.165275 -5.514202,0.330552 -8.271304,0.49583 -2.193047,-2.189797 2.543451,-2.51273 4.125596,-3.418167 2.130979,-0.657151 4.170587,-1.793484 6.363599,-2.125299 l 0.485139,0.373752 z"
       id="path11"
       style="stroke-width:1.99424" />
    <rect
       fill="#100f0f"
       x="55.796703"
       y="36.995209"
       transform="matrix(0.99956416,0.02952098,-0.02981222,0.99955552,0,0)"
       width="7.8366308"
       height="2.8646784"
       rx="1.3594157"
       id="rect11"
       style="stroke-width:1.99425" />
    <rect
       fill="#100f0f"
       x="37.06567"
       y="40.311058"
       transform="matrix(0.99970441,-0.0243125,0.02455244,0.99969854,0,0)"
       width="8.1565046"
       height="3.9787145"
       rx="1.7592461"
       id="rect12"
       style="stroke-width:1.99424" />
  </g>
</svg>
