<?xml version="1.0" encoding="UTF-8" standalone="no"?>
<!-- Created with Inkscape (http://www.inkscape.org/) -->

<svg
   width="100"
   height="100"
   id="svg2"
   sodipodi:version="0.32"
   inkscape:version="1.3 (0e150ed6c4, 2023-07-21)"
   version="1.0"
   sodipodi:docname="bc.svg"
   inkscape:output_extension="org.inkscape.output.svg.inkscape"
   xmlns:inkscape="http://www.inkscape.org/namespaces/inkscape"
   xmlns:sodipodi="http://sodipodi.sourceforge.net/DTD/sodipodi-0.dtd"
   xmlns:xlink="http://www.w3.org/1999/xlink"
   xmlns="http://www.w3.org/2000/svg"
   xmlns:svg="http://www.w3.org/2000/svg"
   xmlns:rdf="http://www.w3.org/1999/02/22-rdf-syntax-ns#"
   xmlns:cc="http://creativecommons.org/ns#"
   xmlns:dc="http://purl.org/dc/elements/1.1/">
  <defs
     id="defs4">
    <linearGradient
       id="linearGradient3214">
      <stop
         style="stop-color:#c6c600;stop-opacity:1;"
         offset="0"
         id="stop3216" />
      <stop
         style="stop-color:#ffff00;stop-opacity:1;"
         offset="1"
         id="stop3218" />
    </linearGradient>
    <linearGradient
       id="linearGradient3202">
      <stop
         style="stop-color:#ff0000;stop-opacity:1;"
         offset="0"
         id="stop3204" />
      <stop
         style="stop-color:#bd0000;stop-opacity:1;"
         offset="1"
         id="stop3206" />
    </linearGradient>
    <linearGradient
       id="linearGradient3194">
      <stop
         style="stop-color:#dedede;stop-opacity:1;"
         offset="0"
         id="stop3196" />
      <stop
         style="stop-color:#989898;stop-opacity:1;"
         offset="1"
         id="stop3198" />
    </linearGradient>
    <inkscape:perspective
       sodipodi:type="inkscape:persp3d"
       inkscape:vp_x="0 : 556.18109 : 1"
       inkscape:vp_y="0 : 1000 : 0"
       inkscape:vp_z="744.09448 : 556.18109 : 1"
       inkscape:persp3d-origin="372.04724 : 380.78739 : 1"
       id="perspective10" />
    <linearGradient
       inkscape:collect="always"
       xlink:href="#linearGradient3202"
       id="linearGradient3208"
       x1="42.241379"
       y1="32.741379"
       x2="115.51724"
       y2="62.051723"
       gradientUnits="userSpaceOnUse"
       gradientTransform="translate(-32.758621,-3.8793108)" />
  </defs>
  <sodipodi:namedview
     id="base"
     pagecolor="#ffffff"
     bordercolor="#666666"
     borderopacity="1.0"
     gridtolerance="10000"
     guidetolerance="10"
     objecttolerance="10"
     inkscape:pageopacity="0.0"
     inkscape:pageshadow="2"
     inkscape:zoom="2.8410986"
     inkscape:cx="17.422838"
     inkscape:cy="64.939668"
     inkscape:document-units="px"
     inkscape:current-layer="layer1"
     showgrid="false"
     inkscape:window-width="1366"
     inkscape:window-height="715"
     inkscape:window-x="144"
     inkscape:window-y="892"
     inkscape:showpageshadow="2"
     inkscape:pagecheckerboard="0"
     inkscape:deskcolor="#d1d1d1"
     inkscape:window-maximized="1" />
  <metadata
     id="metadata7">
    <rdf:RDF>
      <cc:Work
         rdf:about="">
        <dc:format>image/svg+xml</dc:format>
        <dc:type
           rdf:resource="http://purl.org/dc/dcmitype/StillImage" />
      </cc:Work>
    </rdf:RDF>
  </metadata>
  <g
     inkscape:label="Layer 1"
     inkscape:groupmode="layer"
     id="layer1">
    <g
       stroke-width="2"
       fill="none"
       stroke-linecap="butt"
       id="g5"
       transform="matrix(2.0062354,0,0,2.003485,-3.5607289,-3.7615441)">
      <path
         stroke="#878686"
         vector-effect="non-scaling-stroke"
         d="M 46.4,26.32 C 46.631767,16.167998 38.043565,6.8773332 27.904674,6.3118691 13.134625,4.4566172 1.169642,21.922478 8.2475548,35.028047 13.858624,48.103514 33.641405,50.332499 42.021358,38.83344 44.840999,35.31728 46.412194,30.827062 46.4,26.32 Z"
         id="path1" />
      <path
         stroke="#878686"
         vector-effect="non-scaling-stroke"
         d="M 45.05,26.39 C 45.265138,16.966393 37.29313,8.3423227 27.881693,7.8174301 14.171379,6.0952904 3.0648695,22.307995 9.63495,34.473254 14.843431,46.610572 33.20682,48.679629 40.985521,38.005615 43.602856,34.741736 45.06132,30.573686 45.05,26.39 Z"
         id="path2" />
      <path
         stroke="#878686"
         vector-effect="non-scaling-stroke"
         d="m 15.37,31.61 c -0.25,1.73 -0.5,3.46 -0.75,5.19 1.048239,1.592288 1.619881,-0.832549 2.17,-1.63 1.252151,-0.875392 2.893439,-1.106581 4.1575,-1.98 0.701011,-2.488816 0.969425,-5.107561 1.497364,-7.648358 -0.222971,-2.051379 2.64324,-2.393748 2.095062,0.03567 -0.04388,3.60007 -1.18454,7.441472 0.341949,10.873943 1.37463,0.191416 2.873765,-1.51353 4.285688,0.02246 3.138693,1.358915 7.24245,3.031098 10.324424,0.676496 1.492954,-0.666539 3.145386,-5.285027 0.386544,-3.68892 -1.358629,0.667186 -2.648779,1.997017 -4.271683,1.453103 C 32.894565,34.472928 30.182283,34.031464 27.47,33.59 c -2.368522,-1.677584 -0.34977,-5.721481 2.511875,-5.17375 2.601949,-0.511691 2.145702,-3.518963 3.484322,-5.100053 1.498704,-1.199378 -0.134183,-2.500208 -1.541863,-1.769232 -1.285207,0.153 -2.585724,0.635465 -3.861834,0.578035 -0.137464,-2.236962 3.722536,-1.990605 5.4625,-2.015469 3.546203,-0.30592 2.225203,3.508607 1.655248,5.534014 -0.497504,2.510673 -2.514794,4.62606 -5.113424,4.913704 -2.276414,-0.224511 -1.591126,2.243392 0.276758,1.7079 3.022791,0.23291 5.738649,-1.915811 6.597751,-4.749565 0.813448,-2.681047 1.32734,-5.370856 2.582104,-7.837772 -0.593858,-2.358454 -4.907702,-1.429351 -6.918437,-1.688437 -1.831468,0.698476 -3.34574,0.264849 -3.092581,-1.78551 0.260172,-1.387062 -1.371661,-3.49534 -1.991306,-1.138006 -0.999729,4.45989 -4.628448,8.292071 -9.142754,9.203249 -3.103304,0.0016 -2.369775,-4.891392 0.465067,-4.25137 1.463786,-0.119217 3.678013,0.547421 4.011764,-1.562738 -1.601655,-3.047626 -6.149551,-1.148496 -8.978315,-0.718906 -2.776044,0.275071 -2.1756,3.226404 -0.07325,3.920952 1.50816,2.05399 -0.37476,4.413835 -1.364873,6.243735 -1.182631,1.422547 -2.9081767,6.025523 0.374581,4.336105 C 13.514907,31.971987 15.449577,29.812206 15.37,31.61 Z"
         id="path3" />
      <path
         stroke="#878686"
         vector-effect="non-scaling-stroke"
         d="m 30.2225,24.5405 c -1.54387,-2.521402 -4.886565,2.14084 -1.2228,1.4212 l 0.980503,-0.590038 z"
         id="path4" />
      <path
         stroke="#878686"
         vector-effect="non-scaling-stroke"
         d="m 18.0365,32.3557 c 2.887792,-0.289571 1.007001,-7.360341 -0.925894,-3.691361 -0.381859,1.163882 -0.534154,3.216359 0.925894,3.691361 z"
         id="path5" />
    </g>
    <path
       fill="#0e0d0d"
       d="M 99.800517,49.851714 C 101.21315,83.997214 61.860469,110.25579 30.811425,95.885557 -1.3188013,84.121954 -10.552245,37.765938 14.624297,14.618936 35.96993,-8.5084452 77.27984,-2.9471394 92.536763,23.962575 c 4.734201,7.750058 7.276414,16.810898 7.263754,25.889139 z M 89.528591,48.970181 C 89.993571,28.630797 72.763616,10.017089 52.422614,8.8841907 22.790419,5.1672211 -1.2141517,40.159812 12.985807,66.416622 c 11.257125,26.196502 50.94604,30.662238 67.758198,7.624048 5.656864,-7.044573 8.80905,-16.040658 8.784586,-25.070489 z"
       id="path6"
       style="stroke-width:2.00485" />
    <path
       fill="#fffffe"
       d="M 89.528591,48.970181 C 90.768112,77.450003 56.949905,98.670258 31.793056,85.198088 5.5605918,73.956396 1.0887226,34.321891 24.158541,17.53278 c 20.634673,-18.05649202 56.01074,-6.758538 63.399333,19.011845 1.304154,4.004494 1.971885,8.214603 1.970717,12.425556 z m -2.708417,0.140244 C 87.251791,30.23037 71.258067,12.952175 52.376509,11.90056 24.870393,8.4502779 2.5881215,40.932189 15.769249,65.305102 26.218127,89.631837 63.055435,93.846708 78.665873,72.382135 83.916863,65.843 86.842884,57.492377 86.820174,49.110425 Z"
       id="path7"
       style="stroke-width:2.00485" />
    <path
       fill="#0e0d0d"
       d="M 86.820174,49.110425 C 87.970762,75.54685 56.578973,95.244577 33.227099,82.739021 8.8767819,72.303907 4.7257673,35.513133 26.140351,19.928622 c 19.15416,-16.760959 51.992034,-6.27362 58.850503,17.647766 1.21058,3.717177 1.830404,7.625215 1.82932,11.534037 z M 27.275108,59.568617 c -0.501559,3.466029 -1.003117,6.932058 -1.504676,10.398087 2.483563,3.281466 3.142115,-2.415729 4.895214,-3.746517 2.577853,-1.200924 5.405412,-1.958161 7.799239,-3.486065 1.406394,-4.986305 1.944896,-10.232921 3.004066,-15.32337 -0.447333,-4.109906 5.302962,-4.795838 4.203187,0.07145 -0.08803,7.212686 -2.376466,14.908875 0.68603,21.785782 2.757831,0.383497 5.765449,-3.032335 8.598099,0.045 6.296957,2.722566 14.53006,6.072759 20.713224,1.355349 2.995217,-1.3354 6.310385,-10.588474 0.775499,-7.390696 -2.72573,1.336698 -5.314074,4.000994 -8.570002,2.91127 -5.441478,-0.884456 -10.882954,-1.768922 -16.324432,-2.65339 -4.751813,-3.361014 -0.701721,-11.462901 5.039413,-10.36553 5.220121,-1.025165 4.304782,-7.050189 6.990369,-10.217879 3.006754,-2.402936 -0.269202,-5.009129 -3.09334,-3.54463 -2.578427,0.306533 -5.187571,1.273144 -7.747748,1.158084 -0.275785,-4.48172 7.468283,-3.988148 10.959061,-4.037962 7.114519,-0.612906 4.464281,7.029442 3.320818,11.087314 -0.99811,5.030096 -5.04527,9.268242 -10.258733,9.844533 -5.584215,0.06926 -1.991305,4.913224 1.713205,3.393699 6.460859,0.0946 11.256482,-5.388237 12.697533,-11.265262 0.66766,-5.417339 3.455539,-9.973905 4.610983,-15.06909 -4.760106,-2.996344 -11.638363,-2.432797 -17.202214,-1.865823 -3.316995,1.336078 -2.57475,-2.870409 -3.034408,-4.789665 0.571973,-3.473561 -4.046437,-5.071291 -4.131458,-0.56645 -2.206766,8.575134 -9.370806,15.791517 -18.103453,17.564394 -6.225957,0.0032 -4.754326,-9.79983 0.933035,-8.517555 2.936698,-0.238851 7.378959,1.096749 8.048542,-3.130923 -3.213297,-6.105873 -12.337446,-2.300995 -18.012613,-1.440316 -6.195606,0.93899 -3.636695,6.447348 0.255795,8.372999 2.420216,4.784358 -1.962614,9.224483 -3.860749,13.337576 -2.690378,2.67783 -3.961703,10.841054 1.471235,7.341543 1.407526,-0.530721 5.288929,-4.857811 5.129279,-1.255957 z"
       id="path8"
       style="stroke-width:2.00485" />
    <path
       fill="#fffffe"
       d="m 25.58987,58.506769 c -2.099907,1.138995 -3.805512,3.278204 -6.316422,3.374629 -3.393335,-4.106292 2.837155,-9.380011 4.370374,-13.672542 3.076615,-4.111154 1.466478,-9.589939 -3.250045,-11.481349 0.29626,-6.98057 10.158524,-5.867604 15.447643,-6.724147 5.011149,-2.124234 9.722438,5.831959 2.665858,6.326644 -2.941392,0.314368 -6.702068,-1.008507 -8.712462,1.868 -3.147232,7.78322 7.359125,7.568301 11.145263,3.499526 5.759628,-3.519142 9.533,-9.653768 10.931475,-16.168124 3.256852,-3.755791 3.834399,2.24689 3.957992,4.656856 0.110121,5.638248 8.035325,0.348088 11.47748,2.119855 4.669883,-0.376778 11.818495,1.721705 6.800513,7.143127 -2.50638,5.220514 -2.177748,11.855289 -6.07268,16.605362 -3.104916,4.219418 -9.741836,6.248359 -14.391836,3.884082 1.279292,-4.050116 9.143067,-2.259624 11.15972,-7.231026 2.496224,-4.101937 3.360103,-9.08431 3.775736,-13.772437 -2.584232,-3.877512 -8.627665,-2.397083 -12.590381,-1.716346 -3.869038,-0.187966 -4.617403,4.908934 -0.527688,3.103203 2.846802,-0.340929 5.674665,-1.407241 8.534745,-1.239534 2.543792,3.143847 -3.644049,5.630801 -2.663338,9.473945 -1.389209,6.860676 -12.359222,2.864104 -11.787496,10.678418 -0.755787,3.999454 2.957432,4.713973 5.906399,4.934545 5.051793,0.713867 10.069826,1.857519 15.144026,2.286141 2.923026,-1.029439 5.290628,-3.480613 8.302849,-4.14208 2.216388,4.580514 -4.146997,10.712812 -9.183007,10.665757 -6.863201,0.792547 -12.801831,-3.762998 -19.127025,-4.915881 -1.978315,1.288319 -5.120811,2.52699 -5.153074,-1.209275 -1.647025,-7.080218 0.431097,-14.288896 0.237797,-21.430106 -2.76597,-4.79789 -4.510601,1.474536 -4.597281,4.156992 -0.931464,4.365948 -1.329912,8.891769 -2.61012,13.153118 -2.535934,1.749722 -5.829477,2.212219 -8.340923,3.966902 -0.990984,1.697356 -2.700198,6.712428 -4.313163,2.986714 0.464217,-3.698307 1.213628,-7.372806 1.48688,-11.087056 -0.04113,-0.990101 -1.388059,-0.439748 -1.707809,-0.09391 z M 57.072719,45.40498 c -3.097367,-5.051592 -9.803599,4.28914 -2.453224,2.847353 L 56.586614,47.0702 Z M 32.624735,61.062615 c 5.790578,-0.731149 2.087218,-14.554004 -1.857561,-7.395585 -0.7661,2.331819 -1.071639,6.443925 1.857561,7.395585 z"
       id="path9"
       style="stroke-width:2.00485" />
    <ellipse
       fill="#0e0d0d"
       cx="39.609657"
       cy="59.065174"
       transform="matrix(0.963258,-0.26857777,0.26926224,0.96306689,0,0)"
       rx="3.1294169"
       ry="2.0838313"
       id="ellipse9"
       style="stroke-width:2.00486" />
    <ellipse
       fill="#0e0d0d"
       cx="54.174843"
       cy="-36.193478"
       transform="matrix(-0.05938751,0.998235,-0.99824464,-0.05922537,0,0)"
       rx="4.8484578"
       ry="2.6482177"
       id="ellipse10"
       style="stroke-width:2.00486" />
  </g>
</svg>
