<?xml version="1.0" encoding="UTF-8" standalone="no"?>
<!-- Created with Inkscape (http://www.inkscape.org/) -->

<svg
   width="100"
   height="100"
   id="svg2"
   sodipodi:version="0.32"
   inkscape:version="1.3 (0e150ed6c4, 2023-07-21)"
   version="1.0"
   sodipodi:docname="bk.svg"
   inkscape:output_extension="org.inkscape.output.svg.inkscape"
   xmlns:inkscape="http://www.inkscape.org/namespaces/inkscape"
   xmlns:sodipodi="http://sodipodi.sourceforge.net/DTD/sodipodi-0.dtd"
   xmlns:xlink="http://www.w3.org/1999/xlink"
   xmlns="http://www.w3.org/2000/svg"
   xmlns:svg="http://www.w3.org/2000/svg"
   xmlns:rdf="http://www.w3.org/1999/02/22-rdf-syntax-ns#"
   xmlns:cc="http://creativecommons.org/ns#"
   xmlns:dc="http://purl.org/dc/elements/1.1/">
  <defs
     id="defs4">
    <linearGradient
       id="linearGradient3214">
      <stop
         style="stop-color:#c6c600;stop-opacity:1;"
         offset="0"
         id="stop3216" />
      <stop
         style="stop-color:#ffff00;stop-opacity:1;"
         offset="1"
         id="stop3218" />
    </linearGradient>
    <linearGradient
       id="linearGradient3202">
      <stop
         style="stop-color:#ff0000;stop-opacity:1;"
         offset="0"
         id="stop3204" />
      <stop
         style="stop-color:#bd0000;stop-opacity:1;"
         offset="1"
         id="stop3206" />
    </linearGradient>
    <linearGradient
       id="linearGradient3194">
      <stop
         style="stop-color:#dedede;stop-opacity:1;"
         offset="0"
         id="stop3196" />
      <stop
         style="stop-color:#989898;stop-opacity:1;"
         offset="1"
         id="stop3198" />
    </linearGradient>
    <inkscape:perspective
       sodipodi:type="inkscape:persp3d"
       inkscape:vp_x="0 : 556.18109 : 1"
       inkscape:vp_y="0 : 1000 : 0"
       inkscape:vp_z="744.09448 : 556.18109 : 1"
       inkscape:persp3d-origin="372.04724 : 380.78739 : 1"
       id="perspective10" />
    <linearGradient
       inkscape:collect="always"
       xlink:href="#linearGradient3202"
       id="linearGradient3208"
       x1="42.241379"
       y1="32.741379"
       x2="115.51724"
       y2="62.051723"
       gradientUnits="userSpaceOnUse"
       gradientTransform="translate(-32.758621,-3.8793108)" />
  </defs>
  <sodipodi:namedview
     id="base"
     pagecolor="#ffffff"
     bordercolor="#666666"
     borderopacity="1.0"
     gridtolerance="10000"
     guidetolerance="10"
     objecttolerance="10"
     inkscape:pageopacity="0.0"
     inkscape:pageshadow="2"
     inkscape:zoom="2.7559968"
     inkscape:cx="18.686524"
     inkscape:cy="71.299067"
     inkscape:document-units="px"
     inkscape:current-layer="layer1"
     showgrid="false"
     inkscape:window-width="1366"
     inkscape:window-height="715"
     inkscape:window-x="144"
     inkscape:window-y="892"
     inkscape:showpageshadow="2"
     inkscape:pagecheckerboard="0"
     inkscape:deskcolor="#d1d1d1"
     inkscape:window-maximized="1" />
  <metadata
     id="metadata7">
    <rdf:RDF>
      <cc:Work
         rdf:about="">
        <dc:format>image/svg+xml</dc:format>
        <dc:type
           rdf:resource="http://purl.org/dc/dcmitype/StillImage" />
      </cc:Work>
    </rdf:RDF>
  </metadata>
  <g
     inkscape:label="Layer 1"
     inkscape:groupmode="layer"
     id="layer1">
    <g
       stroke-width="2"
       fill="none"
       stroke-linecap="butt"
       id="g6"
       transform="matrix(1.9891421,0,0,2.0040523,-3.0219032,-3.3625532)">
      <path
         stroke="#868686"
         vector-effect="non-scaling-stroke"
         d="M 46.39,26.31 C 46.621652,16.163056 38.037729,6.8770206 27.903889,6.3118383 13.1412,4.4575107 1.1821783,21.914669 8.2565645,35.013708 13.864838,48.082661 33.637762,50.310534 42.01354,38.817205 44.831776,35.302797 46.402188,30.814817 46.39,26.31 Z"
         id="path1" />
      <path
         stroke="#868686"
         vector-effect="non-scaling-stroke"
         d="M 45.05,26.4 C 45.265023,16.981451 37.297294,8.3620102 27.890908,7.8373992 14.187953,6.1161839 3.0874058,22.320186 9.6539597,34.478915 14.859645,46.609718 33.213177,48.677664 40.987702,38.00938 43.603633,34.747253 45.061313,30.58144 45.05,26.4 Z"
         id="path2" />
      <path
         stroke="#868686"
         vector-effect="non-scaling-stroke"
         d="m 23.69,29.01 c 2.667446,-0.70848 5.857919,-1.455387 8.43,-0.23 0.222271,1.884306 1.055681,5.307595 -1.690408,5.942488 C 28.304694,35.809745 24.078219,33.728236 23.66,36.47 c 2.004715,2.032986 5.296895,0.71981 7.825408,0.807872 2.426713,-0.323902 3.334986,-2.948109 3.255579,-5.085229 0.0029,-1.817613 -0.523202,-4.816267 2.318036,-3.60401 2.200758,0.44698 5.575719,-3.195387 3.350062,-4.549496 C 38.437341,26.248375 35.258916,25.87323 33.9025,23.265 32.096,23.356082 32.40853,26.309453 30.130312,25.487812 26.861974,25.731023 23.630332,26.444519 20.56,27.59 18.92093,26.121332 19.726137,22.915678 20.089905,20.798888 20.294795,19.0933 21.648048,15.486856 19.43,15.2 17.195608,16.56375 17.807694,19.54927 17.063118,21.331116 15.262292,21.076225 14.998328,19.592471 16.2825,18.32 c 1.214664,-1.891152 -1.296778,-3.592274 -2.055625,-1.275625 -1.236635,1.598144 1.118222,3.981438 -1.10607,4.917885 -1.119639,0.547975 -2.985221,2.627009 -0.55403,2.647063 1.488257,-0.183918 2.993032,-0.734037 4.470725,-0.664323 0.400916,0.799408 0.839742,2.704381 -0.638024,2.581017 -1.429128,0.210514 -2.983651,0.07056 -4.326976,0.523983 1.636461,2.549221 1.430399,5.754878 0.2775,8.41 0.978634,2.237369 2.734685,0.253094 2.84125,-1.509688 0.987491,-1.461745 -0.927843,-5.469435 1.81125,-4.737812 0.252441,1.457198 -0.119183,3.026903 -0.1231,4.529747 -0.143486,1.16418 -0.374181,3.436064 1.5106,2.857753 2.430408,-1.627528 0.842463,-5.176603 1.6875,-7.2875 0.952911,0.122346 2.435724,0.120254 2.239279,1.456737 -0.05121,1.412129 0.424646,3.229933 2.27701,2.294669 1.691716,-0.600693 4.976389,-1.197605 4.805697,-3.295748 -1.192828,-0.455776 -2.533741,0.0062 -3.79096,-0.05046 C 24.984628,29.630308 22.890934,30.281888 23.69,29.01 Z"
         id="path3" />
      <path
         stroke="#868686"
         vector-effect="non-scaling-stroke"
         d="m 25.37,20.71 c 0.571314,3.467068 -6.466622,0.225279 -4.591533,3.741306 1.79918,2.306018 4.348473,0.143332 6.27209,-0.716863 2.728424,-1.281634 5.658169,-2.078505 8.612362,-2.617915 0.568824,-0.739036 0.09256,-1.844932 0.209495,-2.736798 C 35.7653,17.32028 35.980664,16.17146 35.66,15.17 34.162467,15.2308 32.663514,15.864474 31.165828,16.155449 28.773382,16.717956 26.408239,17.422971 23.9975,17.89 21.020267,16.284926 20.755739,21.848322 23.613187,20.625458 24.160639,20.51886 25.180397,19.74654 25.37,20.71 Z"
         id="path4" />
      <path
         stroke="#868686"
         vector-effect="non-scaling-stroke"
         d="m 32.8993,18.0641 c -1.807518,-1.861999 -2.999511,2.66981 -0.4353,1.4322 0.464117,-0.280815 0.753675,-0.9396 0.4353,-1.4322 z"
         id="path5" />
      <path
         stroke="#868686"
         vector-effect="non-scaling-stroke"
         d="m 28.89,19.87 c -0.669107,-2.331588 -2.718114,1.564449 -0.228457,0.551543 z"
         id="path6" />
    </g>
    <path
       fill="#0d0d0d"
       d="M 81.081209,89.346506 C 55.346131,111.79812 10.796332,96.988379 2.6076505,63.922679 -8.4119072,31.651165 21.6208,-4.7255893 55.160193,0.67743572 88.959558,3.2698576 110.78675,45.078917 93.411784,74.507041 L 87.97642,82.547438 Z M 89.254394,49.364061 C 89.715184,29.029064 72.640542,10.419354 52.482895,9.2867038 23.11781,5.5705296 -0.67038312,40.55559 13.401577,66.80675 c 11.155053,26.201421 50.481968,30.7411 67.147417,7.622413 5.605872,-7.043061 8.729643,-16.037208 8.7054,-25.065102 z"
       id="path7"
       style="stroke-width:1.99656" />
    <path
       fill="#fefefe"
       d="M 89.254394,49.364061 C 90.482744,77.837756 56.969377,99.053434 32.039295,85.584179 6.0432917,74.344893 1.6117357,34.718928 24.473599,17.933428 44.922267,-0.11917505 79.979451,11.176345 87.301443,36.941182 c 1.292395,4.003635 1.954107,8.212827 1.952951,12.422879 z m -2.66545,0.180365 C 87.016655,30.669159 71.167711,13.395352 52.457074,12.344006 25.199949,8.894591 3.1193859,41.368274 16.181194,65.735003 c 10.354292,24.320558 46.858137,28.534358 62.327263,7.075226 5.203458,-6.537479 8.10299,-14.885978 8.080487,-23.265803 z"
       id="path8"
       style="stroke-width:1.99656" />
    <path
       fill="#0d0d0d"
       d="M 86.588944,49.544426 C 87.729117,75.974148 56.621495,95.666867 33.481011,83.164486 9.3511206,72.732032 5.2376829,35.950579 26.458415,20.370035 45.439184,3.6133321 77.979799,14.097992 84.776183,38.01331 c 1.199622,3.716233 1.813836,7.623294 1.812761,11.531116 z M 44.10087,54.775002 c 5.305929,-1.419831 11.652234,-2.916677 16.768468,-0.460931 0.442129,3.776254 2.099899,10.636707 -3.362462,11.90906 -4.226723,2.178906 -12.633782,-1.992529 -13.465679,3.5021 3.987662,4.074219 10.536276,1.442537 15.565847,1.619014 4.827077,-0.649112 6.633761,-5.908166 6.475809,-10.191066 0.0057,-3.642585 -1.040723,-9.652036 4.610903,-7.222624 4.37762,0.89577 11.090898,-6.403708 6.663749,-9.117417 -3.922079,4.427413 -10.244418,3.675614 -12.942522,-1.551416 -3.593384,0.182569 -2.971718,6.101236 -7.503414,4.454627 -6.501192,0.487405 -12.929386,1.917297 -19.036712,4.212899 -3.260343,-2.943291 -1.658672,-9.367582 -0.935087,-13.609739 0.407556,-3.418092 3.099369,-10.645586 -1.312644,-11.220468 -4.444523,2.733025 -3.226997,8.716163 -4.708064,12.287084 -3.582099,-0.510812 -4.107161,-3.484345 -1.55276,-6.034442 2.416139,-3.789963 -2.579476,-7.199096 -4.08893,-2.556409 -2.459843,3.202757 2.224302,7.978994 -2.200131,9.855689 -2.041888,1.12704 -5.966628,4.862011 -1.377317,5.355629 3.052109,-0.384217 6.137087,-1.506727 9.16818,-1.382114 0.797478,1.60206 1.670366,5.419718 -1.26912,5.172499 -2.842739,0.421872 -5.934906,0.14148 -8.606971,1.050083 3.255153,5.10877 2.845268,11.53308 0.551987,16.854079 1.946643,4.483807 5.439678,0.507206 5.651651,-3.025497 1.964259,-2.929404 -1.845612,-10.961024 3.602833,-9.494819 0.502141,2.920305 -0.237072,6.066066 -0.244864,9.077855 -0.594512,2.575268 -0.129473,7.732315 3.668951,5.295268 4.310235,-3.466129 0.36156,-11.093993 3.135108,-14.157688 1.991161,0.206258 4.464329,0.590013 4.042206,3.184599 -0.371103,3.347189 1.731568,6.092841 5.288114,4.125181 2.893219,-0.946232 11.543406,-3.592443 7.656953,-6.848847 -3.321867,0.17375 -6.643734,0.347362 -9.965601,0.521052 L 43.547609,55.69871 Z m 3.341759,-16.633633 c 1.136425,6.948189 -12.863029,0.451473 -9.133211,7.49778 3.578825,4.621364 8.64973,0.287241 12.476078,-1.436644 5.427223,-2.568454 11.254902,-4.165424 17.131211,-5.246429 1.100324,-1.489653 0.203258,-3.692066 0.416715,-5.48469 -0.213064,-2.123194 0.215324,-4.425488 -0.422521,-6.432468 -2.978806,0.121854 -5.960436,1.391755 -8.939547,1.974894 -4.758914,1.1273 -9.46352,2.540177 -14.258822,3.476129 -5.922139,-3.216644 -6.448324,7.93268 -0.764453,5.482005 1.08896,-0.213632 3.117403,-1.761401 3.49455,0.169342 z"
       id="path9"
       style="stroke-width:1.99656" />
    <path
       fill="#fefefe"
       d="m 44.379351,56.378243 c 3.321867,-0.17375 6.643734,-0.347361 9.965601,-0.521052 3.950589,3.00682 -4.204771,5.649904 -6.878624,6.631227 -3.557255,2.025476 -6.562382,0.01403 -6.059293,-3.841928 0.413401,-2.467348 -1.80639,-3.075819 -3.797327,-3.203157 -3.328831,2.195078 0.865362,10.058058 -2.82855,13.547294 -3.392804,3.568615 -5.190482,-1.639075 -4.238884,-4.546213 0.131661,-2.963632 0.462121,-5.929149 0.466312,-8.891598 -4.968316,-2.743348 -2.422321,5.537316 -3.607185,8.30946 -0.18332,3.425307 -3.527817,8.783742 -5.820635,3.887541 1.893514,-5.161336 3.10102,-11.574003 -0.622319,-16.516977 0.982371,-1.470093 3.640119,-0.699695 5.345165,-1.151508 1.785722,-0.502216 5.029704,0.568288 5.365122,-1.919702 0.0089,-2.023451 -0.588343,-4.66337 -3.146698,-3.413523 -2.365794,0.436422 -4.73159,0.872846 -7.097384,1.309268 -4.490945,-1.322655 0.305062,-4.439116 2.190079,-5.824959 3.867302,-2.223636 -1.355811,-7.414272 2.241667,-10.428226 4.453823,-4.811388 5.049223,4.367752 1.853942,6.533532 -0.979306,2.690741 5.95722,4.531423 3.965852,0.06393 -0.799594,-3.424786 3.324777,-12.272636 6.178515,-7.808749 0.879908,7.652492 -3.731178,15.161255 -1.073878,22.775271 3.727747,0.746409 8.30519,-2.478192 12.528525,-2.648135 3.675691,-1.472016 9.012178,0.26181 11.778789,-2.321914 0.948322,-4.956904 5.110962,-2.687876 6.649951,0.408325 3.801252,4.802651 9.694507,-5.322182 11.29211,0.07275 -0.923988,6.084362 -7.348506,7.913039 -12.461974,6.848847 -1.120712,4.239914 0.320202,9.10944 -1.527357,13.32298 -2.0542,5.190956 -8.419913,4.635494 -12.957949,4.739162 -3.019245,1.036838 -11.095032,-0.946694 -6.848243,-4.810345 5.038427,-0.614223 11.156567,1.229064 15.258897,-2.578655 1.09783,-3.21953 1.745125,-8.142304 -0.484544,-10.718233 -5.295209,-0.896292 -12.141657,-1.174836 -16.461425,2.015917 l 0.831742,0.679533 z"
       id="path10"
       style="stroke-width:1.99656" />
    <path
       fill="#fefefe"
       d="m 45.891098,37.279626 c -2.330128,1.38452 -6.102331,1.647511 -6.132773,-2.085777 0.260651,-4.812712 5.700485,-1.858459 8.708164,-3.529216 6.374312,-1.560877 12.717319,-3.304462 19.111231,-4.750966 1.245099,1.25127 0.40183,3.657855 0.726208,5.39645 -0.107817,2.115479 0.44057,4.365327 -0.09299,6.395573 -3.959812,1.246521 -8.320701,1.750359 -12.252734,3.371577 -4.459675,1.339008 -8.318241,4.128407 -12.680781,5.627919 -4.501639,1.663744 -8.797178,-7.202863 -2.021951,-5.768643 2.874845,1.136417 9.719438,-2.98221 4.635635,-4.656917 z m 16.528379,-4.440779 c -3.59541,-3.731545 -5.966454,5.350439 -0.865874,2.870203 0.923195,-0.562758 1.499167,-1.883008 0.865874,-2.870203 z m -7.975068,3.619118 c -1.330949,-4.672629 -5.406715,3.13524 -0.454433,1.105314 z"
       id="path11"
       style="stroke-width:1.99656" />
    <ellipse
       fill="#0d0d0d"
       cx="32.72179"
       cy="61.475163"
       transform="matrix(0.83966895,-0.54309857,0.53738473,0.84333721,0,0)"
       rx="2.2725959"
       ry="1.9397205"
       id="ellipse11"
       style="stroke-width:1.99661" />
    <ellipse
       fill="#0d0d0d"
       cx="52.892879"
       cy="36.457981"
       id="circle11"
       rx="1.5515307"
       ry="1.5631607"
       style="stroke-width:1.99656" />
  </g>
</svg>
