<?xml version="1.0" encoding="UTF-8" standalone="no"?>
<!-- Created with Inkscape (http://www.inkscape.org/) -->

<svg
   width="100"
   height="100"
   id="svg2"
   sodipodi:version="0.32"
   inkscape:version="1.3 (0e150ed6c4, 2023-07-21)"
   version="1.0"
   sodipodi:docname="bn.svg"
   inkscape:output_extension="org.inkscape.output.svg.inkscape"
   xmlns:inkscape="http://www.inkscape.org/namespaces/inkscape"
   xmlns:sodipodi="http://sodipodi.sourceforge.net/DTD/sodipodi-0.dtd"
   xmlns:xlink="http://www.w3.org/1999/xlink"
   xmlns="http://www.w3.org/2000/svg"
   xmlns:svg="http://www.w3.org/2000/svg"
   xmlns:rdf="http://www.w3.org/1999/02/22-rdf-syntax-ns#"
   xmlns:cc="http://creativecommons.org/ns#"
   xmlns:dc="http://purl.org/dc/elements/1.1/">
  <defs
     id="defs4">
    <linearGradient
       id="linearGradient3214">
      <stop
         style="stop-color:#c6c600;stop-opacity:1;"
         offset="0"
         id="stop3216" />
      <stop
         style="stop-color:#ffff00;stop-opacity:1;"
         offset="1"
         id="stop3218" />
    </linearGradient>
    <linearGradient
       id="linearGradient3202">
      <stop
         style="stop-color:#ff0000;stop-opacity:1;"
         offset="0"
         id="stop3204" />
      <stop
         style="stop-color:#bd0000;stop-opacity:1;"
         offset="1"
         id="stop3206" />
    </linearGradient>
    <linearGradient
       id="linearGradient3194">
      <stop
         style="stop-color:#dedede;stop-opacity:1;"
         offset="0"
         id="stop3196" />
      <stop
         style="stop-color:#989898;stop-opacity:1;"
         offset="1"
         id="stop3198" />
    </linearGradient>
    <inkscape:perspective
       sodipodi:type="inkscape:persp3d"
       inkscape:vp_x="0 : 556.18109 : 1"
       inkscape:vp_y="0 : 1000 : 0"
       inkscape:vp_z="744.09448 : 556.18109 : 1"
       inkscape:persp3d-origin="372.04724 : 380.78739 : 1"
       id="perspective10" />
    <linearGradient
       inkscape:collect="always"
       xlink:href="#linearGradient3202"
       id="linearGradient3208"
       x1="42.241379"
       y1="32.741379"
       x2="115.51724"
       y2="62.051723"
       gradientUnits="userSpaceOnUse"
       gradientTransform="translate(-32.758621,-3.8793108)" />
  </defs>
  <sodipodi:namedview
     id="base"
     pagecolor="#ffffff"
     bordercolor="#666666"
     borderopacity="1.0"
     gridtolerance="10000"
     guidetolerance="10"
     objecttolerance="10"
     inkscape:pageopacity="0.0"
     inkscape:pageshadow="2"
     inkscape:zoom="4.0179202"
     inkscape:cx="37.45719"
     inkscape:cy="56.123564"
     inkscape:document-units="px"
     inkscape:current-layer="layer1"
     showgrid="false"
     inkscape:window-width="1366"
     inkscape:window-height="715"
     inkscape:window-x="144"
     inkscape:window-y="892"
     inkscape:showpageshadow="2"
     inkscape:pagecheckerboard="0"
     inkscape:deskcolor="#d1d1d1"
     inkscape:window-maximized="1" />
  <metadata
     id="metadata7">
    <rdf:RDF>
      <cc:Work
         rdf:about="">
        <dc:format>image/svg+xml</dc:format>
        <dc:type
           rdf:resource="http://purl.org/dc/dcmitype/StillImage" />
      </cc:Work>
    </rdf:RDF>
  </metadata>
  <g
     inkscape:label="Layer 1"
     inkscape:groupmode="layer"
     id="layer1">
    <g
       stroke-width="2"
       fill="none"
       stroke-linecap="butt"
       id="g9"
       transform="matrix(2.0098441,0,0,2.0078971,-3.48472,-3.6680971)">
      <path
         stroke="#868686"
         vector-effect="non-scaling-stroke"
         d="M 46.39,26.31 C 46.621998,16.147881 38.025238,6.8479583 27.876243,6.2819308 13.091476,4.42483 1.1145694,21.908095 8.1995354,35.026724 13.816196,48.115222 33.618691,50.346427 42.006994,38.83591 44.829446,35.316246 46.402207,30.821554 46.39,26.31 Z"
         id="path1" />
      <path
         stroke="#868686"
         vector-effect="non-scaling-stroke"
         d="M 45.03,26.4 C 45.245138,16.976393 37.27313,8.3523227 27.861693,7.8274301 14.151379,6.1052904 3.0448695,22.317995 9.61495,34.483254 14.823431,46.620572 33.18682,48.689629 40.965521,38.015615 43.582856,34.751736 45.04132,30.583686 45.03,26.4 Z"
         id="path2" />
      <path
         stroke="#868686"
         vector-effect="non-scaling-stroke"
         d="m 30.28,21.56 c -0.395167,-1.396942 1.481339,-0.743979 2.297449,-0.817249 1.829608,0.0032 3.694987,0.348477 5.499852,0.115163 0.858228,-2.765129 -4.11107,-2.407962 -5.975909,-2.288966 -1.717976,1.196049 -2.832417,-1.759364 -0.771705,-1.557542 2.477412,-0.09853 6.04503,1.175244 7.862484,-0.553932 -0.87362,-3.085192 -5.481773,-1.328566 -8.000296,-1.889037 -4.298122,-0.09018 -8.555885,0.564209 -12.826289,0.871094 -1.484441,-0.193281 -5.600234,-0.11547 -3.216641,2.040664 2.63546,1.536246 2.03246,4.914486 1.136055,7.294805 -1.072391,2.316574 -0.525332,5.776316 -2.819753,7.264309 -1.584812,0.567993 -3.915979,2.9173 -0.981119,3.615596 4.106365,0.781463 2.871751,-4.989242 5.672181,-5.770979 3.802628,-1.296968 7.860025,-1.229802 11.809941,-1.630801 2.021962,0.313823 6.258988,-0.427039 6.40375,2.376875 -0.300214,2.868401 -3.005243,4.489916 -5.71875,3.907344 -2.22752,0.404081 -5.704366,-1.173424 -7.010077,0.776829 1.293896,1.426151 3.462016,1.739449 5.258632,2.301882 2.411404,0.423456 5.414963,1.331859 7.382558,-0.670235 2.06978,-1.910831 2.205618,-4.855491 3.131621,-7.326211 0.659405,-1.260155 3.542509,-3.745115 0.613389,-3.843439 C 36.661582,25.614113 33.295791,25.452057 29.93,25.29 c -1.127504,-2.755455 3.776733,-1.581614 5.5025,-1.68125 1.853633,1.089328 2.847106,-1.392956 0.9875,-1.86875 -1.963333,0.0067 -3.926667,0.01333 -5.89,0.02 z"
         id="path3" />
      <path
         stroke="#868686"
         vector-effect="non-scaling-stroke"
         d="m 25.3836,33.2705 c 3.045909,0.476268 2.429313,-6.206977 -0.319251,-3.408558 -0.696797,0.947384 -1.002974,2.829403 0.319251,3.408558 z"
         id="path4" />
      <path
         stroke="#868686"
         vector-effect="non-scaling-stroke"
         d="m 31.2,29.02 c -2.665601,-0.387571 -1.503777,3.133662 -0.132138,3.91318 1.184417,1.01254 2.850258,0.633531 3.307238,-0.897877 0.897493,-1.503891 -0.99684,-2.119586 -2.066854,-2.54034 C 31.938831,29.336642 31.569415,29.178321 31.2,29.02 Z"
         id="path5" />
      <path
         stroke="#868686"
         vector-effect="non-scaling-stroke"
         d="m 19.565,33.6912 c 2.617044,1.575335 4.209928,-4.534971 0.80487,-3.080075 -0.96921,0.552531 -1.806149,2.159823 -0.80487,3.080075 z"
         id="path6" />
      <path
         stroke="#868686"
         vector-effect="non-scaling-stroke"
         d="m 25.9728,17.9519 c -0.547256,-1.524205 -2.292934,-0.654574 -3.490057,-0.706548 -1.967611,-0.518449 -3.169745,2.549287 -0.506906,2.215047 1.210765,-0.209096 2.543723,-0.01429 3.663935,-0.529045 0.28295,-0.237885 0.391392,-0.623118 0.333028,-0.979454 z"
         id="path7" />
      <path
         stroke="#868686"
         vector-effect="non-scaling-stroke"
         d="m 25.4165,21.4195 c -0.65666,-0.918729 -2.004554,-0.100976 -2.989403,-0.140494 -1.033103,-0.159824 -3.13413,0.791902 -1.423197,1.590694 1.391587,-0.221277 2.80944,-0.33339 4.184604,-0.622922 0.313487,-0.166474 0.2893,-0.534513 0.227996,-0.827278 z"
         id="path8" />
      <path
         stroke="#868686"
         vector-effect="non-scaling-stroke"
         d="M 25.3194,24.9931 C 24.711879,23.579125 23.057814,24.49818 21.896165,24.478096 20.44082,24.213557 17.716729,25.803638 20.251,26.6817 c 1.513286,-0.220967 3.050761,-0.325126 4.548525,-0.621045 0.400864,-0.17917 0.612171,-0.645321 0.519875,-1.067555 z"
         id="path9" />
    </g>
    <path
       fill="#0d0c0d"
       d="M 81.081283,89.545318 C 63.194517,104.08436 35.32147,103.27087 18.074678,88.090559 -8.7431644,67.084787 -4.3954313,19.63595 27.303428,5.3201865 58.027417,-11.795774 99.230798,13.478106 99.924295,47.78189 100.91529,63.686336 93.714982,79.786149 81.081283,89.545318 Z m 8.670668,-40.38564 C 90.218235,28.755186 72.940088,10.081897 52.54218,8.9453746 22.827105,5.2165067 -1.2446109,40.321105 12.995066,66.661964 c 11.288615,26.280361 51.088548,30.760389 67.947739,7.648452 5.672684,-7.067124 8.833687,-16.092003 8.809146,-25.150738 z"
       id="path10"
       style="stroke-width:2.00887" />
    <path
       fill="#ffffff"
       d="M 89.751951,49.159678 C 90.99494,77.730666 57.082137,99.018846 31.854922,85.503552 5.5490824,74.225874 1.0647078,34.464499 24.199053,17.621648 c 20.692392,-18.11429178 56.167409,-6.780174 63.57668,19.072705 1.307785,4.01731 1.977385,8.240895 1.976218,12.465325 z M 87.018564,49.34039 C 87.450961,30.418752 71.428465,13.102505 52.512937,12.048578 24.996303,8.6256029 2.6064395,41.118562 15.83983,65.570732 26.308066,89.941221 63.21562,94.095673 78.849592,72.663347 84.110038,66.109812 87.041315,57.740799 87.018564,49.34039 Z"
       id="path11"
       style="stroke-width:2.00887" />
    <path
       fill="#0d0c0d"
       d="M 87.018564,49.34039 C 88.17123,75.835038 56.722963,95.576142 33.329083,83.043044 8.9349662,72.58495 4.7764841,35.713152 26.229588,20.09432 45.418203,3.296449 78.315156,13.806884 85.185947,37.780957 c 1.212761,3.72536 1.833702,7.642005 1.832617,11.559433 z M 57.373358,39.622167 c -0.794224,-2.804916 2.977261,-1.493834 4.617514,-1.640953 3.677219,0.0065 7.426362,0.699704 11.053849,0.231236 1.724908,-5.552097 -8.26261,-4.834941 -12.010649,-4.596008 -3.452865,2.401543 -5.692719,-3.532622 -1.551005,-3.127385 4.979211,-0.197838 12.149578,2.359772 15.802369,-1.112239 -1.755841,-6.194747 -11.017509,-2.667622 -16.079349,-3.792991 -8.638556,-0.181073 -17.195997,1.132874 -25.778844,1.749067 -3.012056,-0.502758 -11.20811,-0.0412 -6.464946,4.097444 5.296863,3.084623 4.084927,9.867782 2.283293,14.647218 -2.155339,4.651442 -1.055836,11.598248 -5.667264,14.585986 -3.185224,1.140471 -7.870507,5.857638 -1.971896,7.259745 8.253153,1.569097 5.771772,-10.017885 11.4002,-11.587533 7.642689,-2.604179 15.797424,-2.469315 23.736139,-3.27448 4.06383,0.630126 12.5796,-0.857453 12.870545,4.772521 -0.603375,5.759455 -6.040075,9.015289 -11.493801,7.845544 -4.476969,0.811353 -11.464887,-2.356115 -14.089162,1.559793 2.600529,2.863565 6.958111,3.492635 10.56903,4.621942 4.846548,0.850256 10.883241,2.674236 14.83779,-1.345762 4.159935,-3.836753 4.432953,-9.749328 6.294068,-14.710278 1.325311,-2.530262 7.119893,-7.519807 1.232819,-7.717231 -6.764714,-0.325394 -13.529429,-0.650785 -20.294145,-0.976179 -2.266108,-5.532673 7.590648,-3.175719 11.059172,-3.375778 3.725507,2.187258 5.722247,-2.796913 1.984722,-3.752258 -3.945988,0.01345 -7.891993,0.02676 -11.837989,0.04016 z m -9.841,23.51348 c 6.121802,0.956297 4.88254,-12.462973 -0.641645,-6.844035 -1.400454,1.90225 -2.015821,5.681151 0.641645,6.844035 z M 59.222414,54.60108 c -5.357442,-0.778202 -3.022356,6.292071 -0.265576,7.857263 2.255131,1.905695 5.633413,1.465893 6.510087,-1.555699 2.0252,-2.846718 -1.498018,-4.510812 -3.757204,-5.236609 -0.829103,-0.354986 -1.658204,-0.709971 -2.487307,-1.064955 z m -23.384535,9.379289 c 5.308771,3.222081 8.39466,-9.186086 1.617663,-6.184474 -1.947961,1.109425 -3.630079,4.336703 -1.617663,6.184474 z"
       id="path12"
       style="stroke-width:2.00887" />
    <path
       fill="#ffffff"
       d="m 57.875818,40.023746 c 4.154409,0.03526 8.320359,-0.128405 12.46733,0.03514 3.466922,2.549768 -0.08401,5.232542 -3.374969,3.624098 -3.283156,0.15991 -12.713537,-1.89933 -10.298266,3.428642 7.23544,0.348034 14.470883,0.696072 21.706321,1.044106 3.937445,2.993429 -4.254196,6.469776 -3.709087,10.745368 -1.005524,5.660711 -3.508021,12.74834 -9.888352,14.015657 -6.872388,0.27867 -13.779689,-1.557042 -19.926765,-4.581658 -2.124535,-5.032204 6.601163,-2.188307 9.619616,-2.748623 4.741469,0.02217 11.595519,1.412615 13.834947,-4.161995 3.521026,-4.377602 -0.271589,-8.321917 -5.106412,-7.909154 -7.280371,-1.180569 -14.601287,0.450757 -21.875226,0.87651 -5.40238,0.920918 -12.691704,1.566009 -12.633005,8.563971 -0.108023,6.262106 -13.318551,6.867372 -8.701692,-0.1625 2.611845,-1.799706 6.547601,-2.760554 6.60485,-6.613511 1.204755,-6.177961 3.9712,-12.11558 4.232999,-18.427711 1.13077,-4.624977 -9.464039,-7.896428 -3.146201,-10.392712 9.077905,0.372272 18.007354,-1.683513 27.078657,-1.702125 6.342374,0.0015 12.829341,-0.382358 19.078951,0.72151 4.923253,6.015582 -5.582884,4.627946 -9.095671,4.531965 -2.621139,-0.513157 -9.627874,-1.212428 -6.840388,2.876 4.983887,0.154608 13.926918,-2.283229 15.768075,3.685221 -1.55381,1.79583 -4.249392,0.557688 -6.367627,0.759508 -3.089092,-0.145492 -6.178195,-0.290977 -9.267297,-0.436464 -1.252152,-0.02803 -0.994034,1.921212 -0.160788,2.228766 z m -9.15926,-7.646273 c -1.0999,-3.060447 -4.60844,-1.314318 -7.014471,-1.418675 -3.954591,-1.040994 -6.370693,5.118705 -1.018801,4.447585 2.433448,-0.419842 5.112485,-0.02869 7.363937,-1.062268 0.568685,-0.477648 0.786636,-1.251156 0.669335,-1.966642 z m -1.118077,6.962584 c -1.319783,-1.844713 -4.028841,-0.20275 -6.008234,-0.282098 -2.076375,-0.320909 -6.299112,1.590058 -2.860403,3.193951 2.796872,-0.444302 5.646535,-0.669413 8.410401,-1.250764 0.63006,-0.334262 0.581448,-1.073248 0.458236,-1.661089 z m -0.195156,7.175422 c -1.221023,-2.839118 -4.545434,-0.993749 -6.880168,-1.034075 -2.925016,-0.531168 -8.400015,2.661551 -3.306526,4.42461 3.041469,-0.44368 6.131554,-0.65282 9.141827,-1.246995 0.805674,-0.359755 1.230367,-1.295738 1.044867,-2.14354 z"
       id="path13"
       style="stroke-width:2.00887" />
    <rect
       fill="#0d0c0d"
       x="34.122429"
       y="34.607563"
       transform="matrix(0.99589232,-0.09054551,0.09071973,0.99587646,0,0)"
       width="11.456019"
       height="4.3370929"
       rx="2.0500247"
       id="rect13"
       style="stroke-width:2.00886" />
    <rect
       fill="#0d0c0d"
       x="31.44339"
       y="44.398911"
       transform="matrix(0.99052758,-0.13731391,0.13757529,0.99049131,0,0)"
       width="10.290213"
       height="2.7709491"
       rx="1.1053941"
       id="rect14"
       style="stroke-width:2.00887" />
    <rect
       fill="#0d0c0d"
       x="28.772612"
       y="50.197517"
       transform="matrix(0.99212979,-0.12521374,0.12545284,0.99209958,0,0)"
       width="12.420647"
       height="3.975697"
       rx="1.8892248"
       id="rect15"
       style="stroke-width:2.00887" />
    <ellipse
       fill="#ffffff"
       cx="43.656681"
       cy="-62.855705"
       transform="matrix(-0.27084358,0.96262337,-0.96276001,-0.27035749,0,0)"
       rx="4.2771249"
       ry="2.853776"
       id="ellipse15"
       style="stroke-width:2.00887" />
    <path
       fill="#ffffff"
       d="m 59.222414,54.60108 c 2.16266,1.153344 4.880483,1.542402 6.54832,3.392834 0.943963,2.875752 -2.526981,7.595841 -5.615199,5.10788 -2.34663,-0.779876 -3.342621,-3.061298 -4.189068,-5.187684 -1.027225,-1.93728 1.298271,-4.303544 3.255947,-3.31303 z"
       id="path15"
       style="stroke-width:2.00887" />
    <ellipse
       fill="#ffffff"
       cx="25.389252"
       cy="-67.242088"
       transform="matrix(-0.60497084,0.79624762,-0.79681197,-0.60422734,0,0)"
       rx="3.9368734"
       ry="2.8328769"
       id="ellipse16"
       style="stroke-width:2.00886" />
  </g>
</svg>
