<?xml version="1.0" encoding="UTF-8" standalone="no"?>
<!-- Created with Inkscape (http://www.inkscape.org/) -->

<svg
   width="100"
   height="100"
   id="svg2"
   sodipodi:version="0.32"
   inkscape:version="1.3 (0e150ed6c4, 2023-07-21)"
   version="1.0"
   sodipodi:docname="bp.svg"
   inkscape:output_extension="org.inkscape.output.svg.inkscape"
   xmlns:inkscape="http://www.inkscape.org/namespaces/inkscape"
   xmlns:sodipodi="http://sodipodi.sourceforge.net/DTD/sodipodi-0.dtd"
   xmlns:xlink="http://www.w3.org/1999/xlink"
   xmlns="http://www.w3.org/2000/svg"
   xmlns:svg="http://www.w3.org/2000/svg"
   xmlns:rdf="http://www.w3.org/1999/02/22-rdf-syntax-ns#"
   xmlns:cc="http://creativecommons.org/ns#"
   xmlns:dc="http://purl.org/dc/elements/1.1/">
  <defs
     id="defs4">
    <linearGradient
       id="linearGradient3214">
      <stop
         style="stop-color:#c6c600;stop-opacity:1;"
         offset="0"
         id="stop3216" />
      <stop
         style="stop-color:#ffff00;stop-opacity:1;"
         offset="1"
         id="stop3218" />
    </linearGradient>
    <linearGradient
       id="linearGradient3202">
      <stop
         style="stop-color:#ff0000;stop-opacity:1;"
         offset="0"
         id="stop3204" />
      <stop
         style="stop-color:#bd0000;stop-opacity:1;"
         offset="1"
         id="stop3206" />
    </linearGradient>
    <linearGradient
       id="linearGradient3194">
      <stop
         style="stop-color:#dedede;stop-opacity:1;"
         offset="0"
         id="stop3196" />
      <stop
         style="stop-color:#989898;stop-opacity:1;"
         offset="1"
         id="stop3198" />
    </linearGradient>
    <inkscape:perspective
       sodipodi:type="inkscape:persp3d"
       inkscape:vp_x="0 : 556.18109 : 1"
       inkscape:vp_y="0 : 1000 : 0"
       inkscape:vp_z="744.09448 : 556.18109 : 1"
       inkscape:persp3d-origin="372.04724 : 380.78739 : 1"
       id="perspective10" />
    <linearGradient
       inkscape:collect="always"
       xlink:href="#linearGradient3202"
       id="linearGradient3208"
       x1="42.241379"
       y1="32.741379"
       x2="115.51724"
       y2="62.051723"
       gradientUnits="userSpaceOnUse"
       gradientTransform="translate(-32.758621,-3.8793108)" />
  </defs>
  <sodipodi:namedview
     id="base"
     pagecolor="#ffffff"
     bordercolor="#666666"
     borderopacity="1.0"
     gridtolerance="10000"
     guidetolerance="10"
     objecttolerance="10"
     inkscape:pageopacity="0.0"
     inkscape:pageshadow="2"
     inkscape:zoom="2.0089601"
     inkscape:cx="27.626233"
     inkscape:cy="96.318488"
     inkscape:document-units="px"
     inkscape:current-layer="layer1"
     showgrid="false"
     inkscape:window-width="1366"
     inkscape:window-height="715"
     inkscape:window-x="144"
     inkscape:window-y="892"
     inkscape:showpageshadow="2"
     inkscape:pagecheckerboard="0"
     inkscape:deskcolor="#d1d1d1"
     inkscape:window-maximized="1" />
  <metadata
     id="metadata7">
    <rdf:RDF>
      <cc:Work
         rdf:about="">
        <dc:format>image/svg+xml</dc:format>
        <dc:type
           rdf:resource="http://purl.org/dc/dcmitype/StillImage" />
      </cc:Work>
    </rdf:RDF>
  </metadata>
  <g
     inkscape:label="Layer 1"
     inkscape:groupmode="layer"
     id="layer1">
    <g
       stroke-width="2"
       fill="none"
       stroke-linecap="butt"
       id="g3"
       transform="matrix(1.9976612,0,0,1.9883591,-2.9660839,-3.0079164)">
      <path
         stroke="#868686"
         vector-effect="non-scaling-stroke"
         d="M 46.39,26.32 C 46.621767,16.167998 38.033565,6.8773332 27.894674,6.3118691 13.124625,4.4566172 1.159642,21.922478 8.2375548,35.028047 13.848624,48.103514 33.631405,50.332499 42.011358,38.83344 44.830999,35.31728 46.402194,30.827062 46.39,26.32 Z"
         id="path1" />
      <path
         stroke="#868686"
         vector-effect="non-scaling-stroke"
         d="M 45.03,26.39 C 45.245254,16.961334 37.268966,8.3326353 27.852478,7.8074609 14.134804,6.0843968 3.0223332,22.305804 9.5959403,34.477593 14.807217,46.621425 33.180463,48.691593 40.963339,38.01185 43.582079,34.746218 45.041326,30.575931 45.03,26.39 Z"
         id="path2" />
      <path
         stroke="#868686"
         vector-effect="non-scaling-stroke"
         d="m 17.34,21.02 c 2.130474,0.454876 0.01362,2.144612 -0.822465,2.870227 -0.691654,0.855171 -2.032191,1.357919 -2.064293,2.571308 2.222257,1.063827 4.178286,-1.582454 6.193425,-1.938141 1.168673,0.176976 3.034704,1.265966 3.438857,-0.526343 -0.184075,-1.232561 -1.413573,-2.044257 -1.576872,-3.266888 1.472827,-1.321413 4.477476,-1.87697 6.019519,-0.525748 -0.03449,1.187418 -1.304715,1.870732 -1.944554,2.803029 -1.03641,1.103518 -1.956157,2.327942 -3.071117,3.350056 -3.441443,0.903185 -6.967769,1.521162 -10.4425,2.3125 -3.5807432,1.986432 -0.03079,4.906923 2.368115,3.074385 2.34054,-0.651154 4.653952,-1.39988 6.931885,-2.244385 1.493064,0.115852 0.790966,1.98121 0.997014,3.031017 0.107471,1.629063 -0.07106,3.297399 0.250042,4.897129 2.853063,2.443132 3.800963,-2.967698 3.443569,-5.00799 -0.736738,-2.123083 1.061051,-3.514399 2.883199,-2.470573 2.172059,0.643472 4.344117,1.286945 6.516176,1.930417 2.494535,-0.06721 4.517516,-2.774542 4.951133,-5.075518 -0.897438,-0.619502 -1.905859,0.551054 -2.840311,0.814921 -1.847617,0.851152 -3.988476,0.23714 -5.935822,0.0656 -1.786862,-0.535968 -6.02162,-0.46805 -4.70832,-3.152168 2.588546,-2.65132 6.072062,3.706492 7.834319,0.168132 C 36.151421,22.492036 31.839777,21.079724 33.42,19.58 c 1.323333,0.13 2.646667,0.26 3.97,0.39 3.169965,-1.343441 -0.941282,-3.169068 -2.7,-2.584375 -3.04327,0.167624 -6.725833,0.46645 -8.82,-2.255625 -1.12247,-0.481166 -1.730483,1.093075 -2.555991,1.676243 -0.638859,0.674873 -1.276368,1.529848 -2.327222,1.333055 C 18.764525,18.242865 16.542262,18.346433 14.32,18.45 c -3.333401,1.881793 1.599926,3.139795 3.02,2.57 z"
         id="path3" />
    </g>
    <path
       fill="#0d0d0d"
       d="M 81.768513,88.757239 C 56.080088,111.21214 11.237407,96.829582 2.7838444,64.08067 -8.5070967,32.139531 21.400409,-4.160946 55.120172,0.96553078 85.075082,3.128603 106.73155,35.600048 98.121567,63.805547 95.447658,73.547024 89.656958,82.40312 81.768513,88.757239 Z M 89.705421,49.325693 C 90.168419,29.139868 73.012105,10.666691 52.758017,9.5423453 23.25248,5.8534383 -0.64951661,40.581841 13.489751,66.640417 c 11.209016,25.998723 50.728309,30.430746 67.46863,7.566488 5.632686,-6.991389 8.771391,-15.919554 8.74704,-24.881212 z"
       id="path4"
       style="stroke-width:1.993" />
    <path
       fill="#ffffff"
       d="M 89.705421,49.325693 C 90.939636,77.590497 57.265959,98.650544 32.216626,85.280087 6.0962859,74.123267 1.6435194,34.787995 24.614746,18.12564 45.161231,0.2054706 80.386111,11.418127 87.743118,36.993948 c 1.29858,3.974261 1.963461,8.152584 1.962303,12.331745 z m -2.71682,0.139185 C 87.418598,30.717305 71.484693,13.560354 52.673735,12.516119 25.270458,9.0900493 3.0715072,41.34403 16.203353,65.545917 26.613726,89.692215 63.317234,93.808452 78.864792,72.57329 84.096147,66.08004 87.011235,57.788012 86.988601,49.464878 Z"
       id="path5"
       style="stroke-width:1.993" />
    <path
       fill="#0d0d0d"
       d="M 86.988601,49.464878 C 88.134879,75.715797 56.860474,95.275302 33.595931,82.857499 9.3366523,72.49561 5.2011737,35.963 26.535676,20.487849 45.618216,3.8445017 78.333295,14.25825 85.166115,38.011778 c 1.206068,3.691092 1.823565,7.571709 1.822486,11.4531 z M 31.673362,38.787391 c 4.255957,0.904456 0.02717,4.264259 -1.643017,5.707042 -1.381683,1.700387 -4.059628,2.70003 -4.123752,5.112682 4.439323,2.115271 8.346808,-3.146486 12.372375,-3.85372 2.334607,0.351893 6.062303,2.517195 6.869658,-1.046558 -0.36771,-2.450774 -2.823834,-4.064716 -3.150053,-6.495746 2.942216,-2.627444 8.944489,-3.732091 12.024962,-1.045376 -0.06892,2.361013 -2.606369,3.719687 -3.884551,5.573428 -2.070397,2.194189 -3.907747,4.628784 -6.135058,6.661114 -6.874831,1.795857 -13.919244,3.024616 -20.860578,4.59808 -7.153106,3.94974 -0.06153,9.756725 4.730702,6.112982 4.675606,-1.294728 9.297016,-2.783465 13.847548,-4.462644 2.982628,0.230356 1.58009,3.939357 1.991688,6.02675 0.214708,3.239163 -0.142034,6.556413 0.499516,9.737251 5.699446,4.857823 7.593029,-5.900849 6.879065,-9.957682 -1.471737,-4.221452 2.119639,-6.987887 5.759657,-4.912386 4.33904,1.279454 8.67808,2.558908 13.017121,3.838361 4.983225,-0.133637 9.024474,-5.516785 9.890679,-10.091952 -1.79278,-1.231792 -3.807261,1.095694 -5.673976,1.620357 -3.690918,1.692395 -7.967612,0.471519 -11.857757,0.130436 -3.569542,-1.065698 -12.029157,-0.930652 -9.405629,-6.267642 5.171045,-5.271777 12.12992,7.369837 15.650317,0.334306 0.779927,-4.392142 -7.833269,-7.200325 -4.676525,-10.182315 2.643565,0.258487 5.287151,0.516974 7.930715,0.775461 6.332527,-2.671244 -1.880358,-6.301245 -5.393685,-5.138666 -6.079422,0.333297 -13.43593,0.92747 -17.619371,-4.484992 -2.242316,-0.956731 -3.456914,2.173425 -5.106004,3.332973 -1.276224,1.341889 -2.549754,3.041887 -4.648996,2.650591 -4.439343,0.20593 -8.878666,0.41186 -13.317988,0.617788 -6.596598,3.553408 3.097714,6.313731 6.032937,5.110082 z"
       id="path6"
       style="stroke-width:1.993" />
    <path
       fill="#ffffff"
       d="m 31.673362,38.787391 c -3.640658,1.860934 -12.263303,-2.844979 -5.471454,-5.136129 4.813644,-0.223293 9.627309,-0.446587 14.440952,-0.66988 2.431714,-1.525294 4.169519,-4.031694 6.31261,-5.965077 4.013761,1.346893 8.46449,5.931458 13.919423,4.723451 4.163406,0.222423 14.646394,-2.136192 12.430648,4.497301 -2.948708,0.908951 -6.090769,-0.220176 -9.13099,-0.275864 -4.213367,2.022428 4.01486,5.280696 4.075988,8.791275 0.472067,7.061327 -6.84189,1.743139 -9.973324,0.27837 -6.554926,-2.930255 -7.905145,6.244149 -1.087586,5.939098 4.932345,1.2412 10.066454,2.0059 15.156116,1.666376 2.370224,-0.698433 4.390759,-2.485915 6.821913,-2.86985 1.217514,4.184338 -3.978023,9.12361 -7.937208,10.720062 -4.771373,-0.764855 -9.340105,-2.620233 -14.026938,-3.840125 -3.130535,-1.817878 -7.614046,-0.430439 -6.148302,3.852799 0.747586,4.216279 -0.689712,15.773608 -6.842408,10.913478 -0.695126,-4.603709 -0.339244,-9.351062 -0.601956,-14.013867 -1.714773,-3.811764 -6.852717,0.849633 -10.148039,1.064347 -3.628751,0.996621 -7.223264,2.425394 -10.968699,2.806361 -4.913687,-2.171956 -0.659328,-8.192362 3.671962,-7.916747 5.933952,-1.357625 11.970326,-2.372726 17.837856,-3.952513 3.411306,-3.355048 6.429453,-7.115651 9.683663,-10.63275 0.724811,-4.856586 -7.552898,-3.053821 -10.485305,-1.616007 -2.708089,1.42488 0.424204,3.80561 1.1612,5.579341 2.580699,3.606266 -2.33059,4.722613 -4.945869,3.299482 -3.656759,-1.193292 -6.033157,3.345916 -9.615803,3.695527 -4.240395,2.053228 -4.333426,-2.389608 -1.156965,-3.943772 1.626676,-1.718608 3.767269,-3.035756 4.986143,-5.072912 0.258058,-1.096946 -0.859214,-2.193771 -1.957628,-1.921775 z"
       id="path7"
       style="stroke-width:1.993" />
  </g>
</svg>
