<?xml version="1.0" encoding="UTF-8" standalone="no"?>
<!-- Created with Inkscape (http://www.inkscape.org/) -->

<svg
   width="100"
   height="100"
   id="svg2"
   sodipodi:version="0.32"
   inkscape:version="1.3 (0e150ed6c4, 2023-07-21)"
   version="1.0"
   sodipodi:docname="br.svg"
   inkscape:output_extension="org.inkscape.output.svg.inkscape"
   xmlns:inkscape="http://www.inkscape.org/namespaces/inkscape"
   xmlns:sodipodi="http://sodipodi.sourceforge.net/DTD/sodipodi-0.dtd"
   xmlns:xlink="http://www.w3.org/1999/xlink"
   xmlns="http://www.w3.org/2000/svg"
   xmlns:svg="http://www.w3.org/2000/svg"
   xmlns:rdf="http://www.w3.org/1999/02/22-rdf-syntax-ns#"
   xmlns:cc="http://creativecommons.org/ns#"
   xmlns:dc="http://purl.org/dc/elements/1.1/">
  <defs
     id="defs4">
    <linearGradient
       id="linearGradient3214">
      <stop
         style="stop-color:#c6c600;stop-opacity:1;"
         offset="0"
         id="stop3216" />
      <stop
         style="stop-color:#ffff00;stop-opacity:1;"
         offset="1"
         id="stop3218" />
    </linearGradient>
    <linearGradient
       id="linearGradient3202">
      <stop
         style="stop-color:#ff0000;stop-opacity:1;"
         offset="0"
         id="stop3204" />
      <stop
         style="stop-color:#bd0000;stop-opacity:1;"
         offset="1"
         id="stop3206" />
    </linearGradient>
    <linearGradient
       id="linearGradient3194">
      <stop
         style="stop-color:#dedede;stop-opacity:1;"
         offset="0"
         id="stop3196" />
      <stop
         style="stop-color:#989898;stop-opacity:1;"
         offset="1"
         id="stop3198" />
    </linearGradient>
    <inkscape:perspective
       sodipodi:type="inkscape:persp3d"
       inkscape:vp_x="0 : 556.18109 : 1"
       inkscape:vp_y="0 : 1000 : 0"
       inkscape:vp_z="744.09448 : 556.18109 : 1"
       inkscape:persp3d-origin="372.04724 : 380.78739 : 1"
       id="perspective10" />
    <linearGradient
       inkscape:collect="always"
       xlink:href="#linearGradient3202"
       id="linearGradient3208"
       x1="42.241379"
       y1="32.741379"
       x2="115.51724"
       y2="62.051723"
       gradientUnits="userSpaceOnUse"
       gradientTransform="translate(-32.758621,-3.8793108)" />
  </defs>
  <sodipodi:namedview
     id="base"
     pagecolor="#ffffff"
     bordercolor="#666666"
     borderopacity="1.0"
     gridtolerance="10000"
     guidetolerance="10"
     objecttolerance="10"
     inkscape:pageopacity="0.0"
     inkscape:pageshadow="2"
     inkscape:zoom="2.8410986"
     inkscape:cx="86.762212"
     inkscape:cy="80.074658"
     inkscape:document-units="px"
     inkscape:current-layer="layer1"
     showgrid="false"
     inkscape:window-width="1366"
     inkscape:window-height="715"
     inkscape:window-x="144"
     inkscape:window-y="892"
     inkscape:showpageshadow="2"
     inkscape:pagecheckerboard="0"
     inkscape:deskcolor="#d1d1d1"
     inkscape:window-maximized="1" />
  <metadata
     id="metadata7">
    <rdf:RDF>
      <cc:Work
         rdf:about="">
        <dc:format>image/svg+xml</dc:format>
        <dc:type
           rdf:resource="http://purl.org/dc/dcmitype/StillImage" />
      </cc:Work>
    </rdf:RDF>
  </metadata>
  <g
     inkscape:label="Layer 1"
     inkscape:groupmode="layer"
     id="layer1">
    <g
       stroke-width="2"
       fill="none"
       stroke-linecap="butt"
       id="g7"
       transform="matrix(1.9879952,0,0,1.994603,-2.7133367,-3.2342751)">
      <path
         stroke="#878687"
         vector-effect="non-scaling-stroke"
         d="M 46.38,26.29 C 46.611883,16.13294 38.019402,6.8376458 27.875459,6.2718999 13.098051,4.4157236 1.1271057,21.890287 8.2085451,35.002385 13.822109,48.089641 33.612613,50.35715 41.999176,38.809675 44.820222,35.291763 46.392201,30.799308 46.38,26.29 Z"
         id="path1" />
      <path
         stroke="#878687"
         vector-effect="non-scaling-stroke"
         d="M 45.05,26.4 C 45.265138,16.976393 37.29313,8.3523227 27.881693,7.8274301 14.171379,6.1052904 3.0648695,22.317995 9.63495,34.483254 14.843152,46.625463 33.204561,48.729233 40.985521,38.015615 43.602856,34.751736 45.06132,30.583686 45.05,26.4 Z"
         id="path2" />
      <path
         stroke="#878687"
         vector-effect="non-scaling-stroke"
         d="m 28.23,29.46 c -2.062254,-2.269249 2.595939,-2.161528 4.0475,-1.895 1.99269,0.220822 6.441472,2.789547 5.494219,-1.21375 -0.931602,-2.395538 1.687975,-4.608097 1.012837,-6.616649 C 36.653177,19.168697 34.390072,19.09026 32.205455,18.721369 31.098701,18.515454 29.926739,18.531939 28.865,18.1725 28.333714,16.780378 30.014986,17.077692 30.855567,17.148588 33.487045,17.282392 36.118522,17.416196 38.75,17.55 41.635107,16.172856 37.804037,14.846037 36.241426,15.041055 33.849495,14.771533 31.424925,14.808265 29.04,15.13 c -1.363128,0.04442 -1.841106,-2.767774 -3.232884,-1.487445 -3.395192,2.604955 -7.901077,1.488007 -11.811491,2.029164 -2.278082,0.771349 -1.521518,3.596127 0.683766,2.639443 3.043564,-0.284989 6.083597,-0.685727 9.129359,-0.898662 1.268382,1.075109 -0.478545,1.748391 -1.500205,1.570887 C 20.23903,19.165591 18.169515,19.347796 16.1,19.53 c -1.978434,0.619155 -0.709182,2.586598 -0.463012,3.912518 0.0688,1.593843 -1.231975,2.780391 -1.879263,4.159664 -1.551283,1.931408 1.232058,1.727666 2.567275,1.035318 2.60424,-0.572978 5.311723,-0.951658 7.973125,-0.6675 1.9101,2.637735 -3.172755,2.278637 -4.852695,2.754336 -2.408879,0.41037 -4.878451,0.418495 -7.273086,0.85457 -2.4687946,0.77646 -1.494593,4.40133 0.902761,3.131289 3.498611,-0.779816 6.969494,-1.754664 10.485723,-2.410554 1.87218,1.190785 0.538201,4.30848 1.996945,6.092742 1.428184,1.990023 1.998495,-0.820475 2.015985,-2.030722 C 27.891811,35.089513 27.507105,33.038997 29.36,32.93 c 3.427374,-0.13793 6.552888,2.502321 9.67625,2.304102 C 40.281418,34.286763 42.618945,31.797368 41.58,30.52 37.109286,30.809745 32.599754,30.445765 28.23,29.46 Z"
         id="path3" />
      <path
         stroke="#878687"
         vector-effect="non-scaling-stroke"
         d="m 34.7625,21.5394 c -0.281603,-1.267168 -1.90023,-0.637839 -2.850984,-0.829871 -1.132578,0.07279 -2.340281,-0.287049 -3.411467,0.139287 -0.982462,1.694647 1.361608,1.706418 2.46779,1.638217 1.17902,-0.07417 2.434685,0.293034 3.552112,-0.135849 L 34.7556,21.8194 v 0 l 0.0035,-0.140645 z"
         id="path4" />
      <path
         stroke="#878687"
         vector-effect="non-scaling-stroke"
         d="m 24.2222,21.5195 c -0.652611,-0.842336 -1.962781,-0.07263 -2.920431,-0.12494 -0.840567,0.276048 -2.56255,-0.186682 -2.461331,1.0884 0.434905,1.068828 1.87882,0.212892 2.798214,0.280113 0.846854,-0.248997 2.028275,0.06328 2.622632,-0.636181 0.04189,-0.203704 -0.02486,-0.40511 -0.03908,-0.607392 z"
         id="path5" />
      <path
         stroke="#878687"
         vector-effect="non-scaling-stroke"
         d="m 34.2083,24.8738 c -0.410968,-0.927931 -1.820615,-0.410835 -2.68501,-0.644666 -1.142482,0.01103 -2.33102,-0.325528 -3.443056,-0.08472 -0.808532,1.350713 1.01251,1.414617 1.934899,1.390138 1.329363,-0.0013 2.705816,0.352838 4.004633,0.12104 0.22198,-0.217652 0.152094,-0.514303 0.188534,-0.781789 z"
         id="path6" />
      <path
         stroke="#878687"
         vector-effect="non-scaling-stroke"
         d="M 24.2869,24.8425 C 23.752954,23.850293 22.381433,24.581358 21.446241,24.460158 20.52005,24.696585 19.057813,24.14934 18.638,25.1979 c 0.18715,1.294595 1.802279,0.524599 2.71535,0.630777 0.923868,-0.150269 1.969776,0.07157 2.809772,-0.341094 0.172345,-0.17489 0.140599,-0.425604 0.123778,-0.645083 z"
         id="path7" />
    </g>
    <path
       fill="#0e0d0e"
       d="M 80.796576,89.469086 C 54.767953,111.45226 10.453314,96.090225 2.7282237,63.069008 -7.8262215,30.809848 22.616863,-5.0491863 56.121301,0.86399564 89.861993,3.9170706 111.09524,45.830528 93.324385,74.873695 l -5.543068,7.925587 -6.984721,6.669794 z M 89.489879,49.203837 C 90.71874,20.836147 57.1913,-0.30055929 32.250747,13.118567 6.2333578,24.315398 1.7255585,63.789597 24.681873,80.51746 46.020974,99.168384 83.395582,86.046973 88.489023,58.116162 Z"
       id="path8"
       style="stroke-width:1.99131" />
    <path
       fill="#ffffff"
       d="M 89.489879,49.203837 C 90.762514,77.639379 57.117366,98.593595 32.250747,85.289106 6.2438343,74.091675 1.8104259,34.613223 24.681873,17.890214 46.017335,-0.79235258 83.397053,12.373399 88.489023,40.291513 Z m -2.644033,0.219406 C 87.985981,23.104016 56.879582,3.4936163 33.740034,15.943732 9.6110996,26.332585 5.4978187,62.960255 26.717699,78.475675 c 22.958263,19.675634 61.1296,1.253269 60.128147,-29.052432 z"
       id="path9"
       style="stroke-width:1.99131" />
    <path
       fill="#0e0d0e"
       d="M 86.845846,49.423243 C 87.985981,75.742468 56.879582,95.352871 33.740034,82.902754 9.6110996,72.513903 5.4978187,35.886234 26.717699,20.370814 49.675943,0.69517843 87.847299,19.117542 86.845846,49.423243 Z m -33.438078,6.103485 c -4.099743,-4.526251 5.160715,-4.311389 8.04641,-3.779772 3.961457,0.440452 12.805612,5.564039 10.922482,-2.42095 -1.852016,-4.778145 3.355677,-9.191321 2.013521,-13.197585 -3.772339,-1.076905 -7.814371,-1.152408 -11.693387,-1.83318 -2.660833,-0.477853 -5.455794,-0.496798 -8.02665,-1.282592 -1.056202,-2.776732 2.286175,-2.183709 3.957243,-2.0423 5.231351,0.266886 10.46272,0.533772 15.69409,0.800658 5.377148,-1.899626 -0.709934,-5.353476 -3.755721,-4.85226 -5.152426,-0.696597 -10.396817,-0.672657 -15.547712,0.02534 -2.709896,0.0886 -3.660118,-5.520611 -6.426951,-2.966864 -6.74964,5.195853 -15.707309,2.967982 -23.481185,4.047375 -4.528831,1.538538 -3.024775,7.172848 1.359311,5.264643 6.050604,-0.568439 12.094169,-1.367752 18.149125,-1.792474 2.521532,2.144417 -0.951355,3.487347 -2.982411,3.133296 -4.114175,0.363425 -8.228372,0.726852 -12.342548,1.090277 -3.933108,1.234968 -1.409845,5.159236 -0.920461,7.803919 0.136774,3.179084 -2.44917,5.545776 -3.73598,8.296879 -3.083937,3.852392 2.449329,3.446008 5.103741,2.065048 5.177216,-1.142863 10.559673,-1.898179 15.850523,-1.331398 3.797271,5.261234 -6.30741,4.544976 -9.647123,5.493808 -4.788843,0.818525 -9.698336,0.834731 -14.458869,1.704527 -4.907943,1.54873 -2.971237,8.778906 1.794683,6.245678 6.95524,-1.555423 13.855333,-3.499857 20.845581,-4.808098 3.765223,2.159645 1.021014,8.115527 3.688247,11.533573 2.095665,4.732095 4.539031,-0.32007 4.249182,-3.153761 0.674327,-2.619841 -0.167588,-6.831515 3.591292,-7.122495 6.813595,-0.275116 13.027115,4.991136 19.23634,4.595768 2.475392,-1.889565 7.12239,-6.854919 5.056961,-9.402762 -8.887749,0.577926 -17.852692,-0.148059 -26.539734,-2.114279 z"
       id="path10"
       style="stroke-width:1.99131" />
    <path
       fill="#ffffff"
       d="m 53.407768,55.526731 c 8.838388,2.049532 17.968533,2.619938 27.006913,2.155416 0.625086,3.662452 -3.09165,7.654394 -6.113085,9.772306 -6.74463,-0.397153 -15.765894,-8.43835 -21.529987,-2.772497 -0.4241,2.925418 -0.848218,5.850834 -1.272318,8.776253 -4.064277,3.645572 -5.28902,-5.384103 -5.430029,-8.5877 0.920183,-4.158916 -3.457283,-3.916404 -6.02611,-2.861903 -6.313435,1.502795 -12.626871,3.005589 -18.940307,4.508385 -6.62551,-1.807912 0.579143,-9.081613 5.147357,-7.380343 6.410112,-0.547321 12.793703,-1.424653 19.106185,-2.672456 4.55887,-4.138361 -3.498654,-4.684681 -6.432099,-3.974635 -4.765305,0.328558 -9.484586,1.271517 -14.024372,2.757926 -3.01881,-0.954586 0.405154,-3.8914 1.097275,-5.748213 1.297882,-2.229236 3.303968,-4.664234 1.987398,-7.361617 -1.271085,-2.646028 -1.179219,-6.886232 2.701845,-6.540385 4.727592,-0.46422 9.484904,-0.744911 14.194086,-1.323032 2.075368,-2.573813 -1.683057,-3.252242 -3.638189,-2.514403 -5.944465,0.615405 -11.888947,1.230808 -17.833412,1.846211 -4.115904,-3.642089 3.593998,-7.331686 7.233003,-5.924402 6.517583,0.06279 13.74478,0.07935 18.991139,-4.425097 2.664073,0.08923 3.341801,4.849553 6.641295,3.531384 6.188014,-0.711057 12.490476,-0.425657 18.58388,0.874196 4.58698,3.372872 -1.870823,4.721862 -4.726638,3.895129 -4.99619,-0.218648 -9.994348,-0.581977 -14.989305,-0.711245 -2.125723,2.113273 1.403166,2.918502 3.163178,2.854096 5.066963,0.686702 10.133946,1.373406 15.200928,2.060108 3.873926,3.004529 -3.24912,8.167159 -1.224864,12.736164 2.114193,4.485758 -2.388914,7.318019 -6.027045,4.357738 -4.24425,-0.949976 -12.634703,-3.536809 -14.086039,1.647589 z M 66.394346,39.728279 c -0.559819,-2.527499 -3.777649,-1.272237 -5.667735,-1.655266 -2.251563,0.145188 -4.652466,-0.572548 -6.781986,0.277822 -1.931655,3.262126 2.46913,3.467167 4.626145,3.260738 2.436287,-0.150354 5.02772,0.595865 7.341188,-0.264108 l 0.468472,-1.060699 v 0 l 0.0079,-0.280528 z M 45.44028,39.688585 c -1.297385,-1.680126 -3.901997,-0.144868 -5.805801,-0.249205 -1.671048,0.550604 -5.094336,-0.372358 -4.893111,2.170924 0.864578,2.131887 3.735084,0.424635 5.562827,0.558713 1.683554,-0.496648 4.032211,0.126219 5.213776,-1.268925 0.08329,-0.406309 -0.0493,-0.808034 -0.07773,-1.211507 z m 19.852319,6.690495 c -0.719973,-1.855917 -3.434759,-0.802837 -5.058693,-1.267743 -2.364083,0.01735 -4.820351,-0.66322 -7.12388,-0.187094 -1.553719,2.483287 1.752516,2.900249 3.567476,2.754664 2.73568,0.0025 5.565373,0.716975 8.2403,0.259536 0.446246,-0.432593 0.300347,-1.02658 0.374797,-1.559358 z M 45.568904,46.31664 c -1.16101,-1.95259 -3.970962,-0.519158 -5.926353,-0.744998 -1.776592,0.466658 -4.941024,-0.690171 -5.28604,1.73394 0.814561,2.237768 3.780411,0.726222 5.659644,0.960468 1.744604,-0.290105 3.728405,0.149215 5.306674,-0.662726 0.342632,-0.348835 0.279513,-0.84891 0.246075,-1.286684 z"
       id="path11"
       style="stroke-width:1.99131" />
    <rect
       fill="#0e0d0e"
       x="54.42001"
       y="36.57299"
       transform="matrix(0.9996995,0.02451334,-0.02435129,0.99970346,0,0)"
       width="12.921994"
       height="3.5902781"
       rx="1.5108794"
       id="rect11"
       style="stroke-width:1.9913" />
    <rect
       fill="#0e0d0e"
       x="29.271162"
       y="44.110073"
       transform="matrix(0.99206282,-0.12574324,0.12492451,0.99216625,0,0)"
       width="10.855021"
       height="2.792299"
       rx="0.97416854"
       id="rect12"
       style="stroke-width:1.9913" />
    <rect
       fill="#0e0d0e"
       x="55.615887"
       y="41.116806"
       transform="matrix(0.99790178,0.06474589,-0.06431941,0.99792936,0,0)"
       width="12.524544"
       height="2.7924056"
       rx="0.9343707"
       id="rect13"
       style="stroke-width:1.99129" />
    <rect
       fill="#0e0d0e"
       x="31.328707"
       y="47.978527"
       transform="matrix(0.99801363,-0.06299841,0.06258332,0.99803974,0,0)"
       width="11.252201"
       height="2.7126248"
       rx="1.1132919"
       id="rect14"
       style="stroke-width:1.9913" />
  </g>
</svg>
