<?xml version="1.0" encoding="UTF-8" standalone="no"?>
<!-- Created with Inkscape (http://www.inkscape.org/) -->

<svg
   width="100"
   height="100"
   id="svg2"
   sodipodi:version="0.32"
   inkscape:version="1.3 (0e150ed6c4, 2023-07-21)"
   version="1.0"
   sodipodi:docname="wa.svg"
   inkscape:output_extension="org.inkscape.output.svg.inkscape"
   xmlns:inkscape="http://www.inkscape.org/namespaces/inkscape"
   xmlns:sodipodi="http://sodipodi.sourceforge.net/DTD/sodipodi-0.dtd"
   xmlns:xlink="http://www.w3.org/1999/xlink"
   xmlns="http://www.w3.org/2000/svg"
   xmlns:svg="http://www.w3.org/2000/svg"
   xmlns:rdf="http://www.w3.org/1999/02/22-rdf-syntax-ns#"
   xmlns:cc="http://creativecommons.org/ns#"
   xmlns:dc="http://purl.org/dc/elements/1.1/">
  <defs
     id="defs4">
    <linearGradient
       id="linearGradient3214">
      <stop
         style="stop-color:#c6c600;stop-opacity:1;"
         offset="0"
         id="stop3216" />
      <stop
         style="stop-color:#ffff00;stop-opacity:1;"
         offset="1"
         id="stop3218" />
    </linearGradient>
    <linearGradient
       id="linearGradient3202">
      <stop
         style="stop-color:#ff0000;stop-opacity:1;"
         offset="0"
         id="stop3204" />
      <stop
         style="stop-color:#bd0000;stop-opacity:1;"
         offset="1"
         id="stop3206" />
    </linearGradient>
    <linearGradient
       id="linearGradient3194">
      <stop
         style="stop-color:#dedede;stop-opacity:1;"
         offset="0"
         id="stop3196" />
      <stop
         style="stop-color:#989898;stop-opacity:1;"
         offset="1"
         id="stop3198" />
    </linearGradient>
    <inkscape:perspective
       sodipodi:type="inkscape:persp3d"
       inkscape:vp_x="0 : 556.18109 : 1"
       inkscape:vp_y="0 : 1000 : 0"
       inkscape:vp_z="744.09448 : 556.18109 : 1"
       inkscape:persp3d-origin="372.04724 : 380.78739 : 1"
       id="perspective10" />
    <linearGradient
       inkscape:collect="always"
       xlink:href="#linearGradient3202"
       id="linearGradient3208"
       x1="42.241379"
       y1="32.741379"
       x2="115.51724"
       y2="62.051723"
       gradientUnits="userSpaceOnUse"
       gradientTransform="translate(-32.758621,-3.8793108)" />
  </defs>
  <sodipodi:namedview
     id="base"
     pagecolor="#ffffff"
     bordercolor="#666666"
     borderopacity="1.0"
     gridtolerance="10000"
     guidetolerance="10"
     objecttolerance="10"
     inkscape:pageopacity="0.0"
     inkscape:pageshadow="2"
     inkscape:zoom="2.32"
     inkscape:cx="29.956897"
     inkscape:cy="90.301724"
     inkscape:document-units="px"
     inkscape:current-layer="layer1"
     showgrid="false"
     inkscape:window-width="1366"
     inkscape:window-height="715"
     inkscape:window-x="144"
     inkscape:window-y="892"
     inkscape:showpageshadow="2"
     inkscape:pagecheckerboard="0"
     inkscape:deskcolor="#d1d1d1"
     inkscape:window-maximized="1" />
  <metadata
     id="metadata7">
    <rdf:RDF>
      <cc:Work
         rdf:about="">
        <dc:format>image/svg+xml</dc:format>
        <dc:type
           rdf:resource="http://purl.org/dc/dcmitype/StillImage" />
      </cc:Work>
    </rdf:RDF>
  </metadata>
  <g
     inkscape:label="Layer 1"
     inkscape:groupmode="layer"
     id="layer1">
    <g
       stroke-width="2"
       fill="none"
       stroke-linecap="butt"
       id="g4"
       transform="matrix(2.1324582,0,0,2.1201058,-3.280858,-3.0456093)">
      <path
         stroke="#e57e7e"
         vector-effect="non-scaling-stroke"
         d="M 43.65,24.21 C 43.862944,14.8825 35.972239,6.3463839 26.656786,5.8268444 13.086298,4.1222681 2.0930592,20.169626 8.5961341,32.210816 13.751496,44.22435 31.927604,46.272306 39.626973,35.707152 42.217615,32.476559 43.661204,28.351018 43.65,24.21 Z"
         id="path1" />
      <path
         stroke="#e57e7e"
         vector-effect="non-scaling-stroke"
         d="M 42.03,24.21 C 42.261366,15.238259 34.211741,7.1886337 25.24,7.42 13.348011,6.903137 4.4873146,21.004855 10.112733,31.494908 14.806796,42.433478 31.356517,44.298184 38.366951,34.678394 40.725784,31.736873 42.040202,27.980482 42.03,24.21 Z"
         id="path2" />
      <path
         stroke="#e57e7e"
         vector-effect="non-scaling-stroke"
         d="m 29.89,18.66 c -0.0667,-1.558559 0.02227,-5.948131 -2.46,-3.66 -0.338135,1.388931 -0.369021,2.884457 -0.937699,4.193404 -1.725758,0.704873 -3.648379,0.887671 -5.45574,1.376135 -2.613061,-0.08639 -2.617715,4.014655 0.262851,3.166952 1.510854,-0.194334 3.009753,-0.578694 4.529338,-0.637741 1.802821,1.099912 0.868394,4.349061 -0.871495,5.236612 -1.609254,1.336775 -4.74356,0.561535 -5.597255,2.404638 0.40275,0.716943 0.325344,2.270747 1.46,2.06 4.793214,-2.31248 10.168808,-0.785512 15.213317,-0.804698 2.189934,-1.966531 -1.850294,-3.576902 -3.614243,-3.688508 -1.677831,-0.02795 -3.832365,-0.352847 -3.136429,-2.438001 0.161609,-1.027978 -0.01303,-2.14111 0.409117,-3.103107 2.450056,-0.880306 5.253463,2.1677 7.583238,-0.138186 1.390331,-0.917366 2.778867,-5.021591 -0.254023,-3.261797 C 34.844145,19.683259 31.418541,20.500032 29.89,18.66 Z"
         id="path3" />
      <path
         stroke="#e57e7e"
         vector-effect="non-scaling-stroke"
         d="m 14.25,21.75 c 2.371117,0.728242 0.936088,3.642959 1.138535,5.433477 -0.0039,2.193196 -0.440633,4.453656 0.0091,6.603711 1.338627,1.757621 2.818015,-0.443244 2.383077,-1.965314 0.04975,-3.787291 0.09951,-7.574583 0.149267,-11.361874 0.518712,-1.612188 2.028283,-2.739474 2.517981,-4.37105 -1.065018,-3.394443 -4.516524,0.281348 -6.610979,0.815584 -3.204012,0.261439 -2.913475,4.232479 0.018,4.757937 z"
         id="path4" />
    </g>
    <path
       fill="#fefcfb"
       d="M 99.652903,49.935835 C 101.05662,83.715248 61.952704,109.69229 31.099935,95.476132 -0.82717481,83.838659 -10.002249,37.979627 15.015137,15.080808 c 21.210692,-22.8794392 62.259451,-17.3777436 77.419928,9.24345 4.704267,7.666981 7.23042,16.630661 7.217838,25.611577 z M 89.800945,48.282153 C 90.255032,28.506866 73.428442,10.409388 53.563625,9.3079084 24.625127,5.6940405 1.1825026,39.716141 15.050039,65.244738 c 10.993594,25.469955 49.753378,29.811847 66.171964,7.41259 5.524431,-6.849193 8.602826,-15.595775 8.578942,-24.375175 z"
       id="path5"
       style="stroke-width:2.12627" />
    <path
       fill="#cc0001"
       d="M 89.800945,48.282153 C 91.011456,75.972113 57.984932,96.603838 33.417009,83.505315 7.7986496,72.575385 3.4314685,34.040131 25.961218,17.716652 46.11283,0.16094488 80.660739,11.145552 87.87636,36.201218 c 1.273631,3.893425 1.925716,7.986778 1.924585,12.080935 z m -3.454582,0 C 86.839751,29.261115 69.67425,12.195048 50.542389,12.685576 25.183218,11.589778 6.2881543,41.486896 18.284123,63.726933 28.294017,86.917859 63.585613,90.87122 78.535062,70.476248 83.565169,64.239914 86.368115,56.27597 86.346363,48.282153 Z"
       id="path6"
       style="stroke-width:2.12627" />
    <path
       fill="#fefcfb"
       d="M 86.346363,48.282153 C 87.448546,73.494431 57.377226,92.280052 35.007627,80.353567 11.681583,70.401642 7.7051742,35.314483 28.218975,20.45163 47.272804,3.7723333 80.076893,15.414386 85.25077,39.543713 c 0.727062,2.852772 1.095999,5.7955 1.095593,8.73844 z M 60.458319,36.515566 c -0.142234,-3.304313 0.04755,-12.610666 -5.245847,-7.759588 -0.721058,2.944679 -0.786922,6.11536 -1.999603,8.890452 -3.680107,1.49442 -7.780017,1.881954 -11.634139,2.917563 -5.572243,-0.183177 -5.582167,8.511482 0.560519,6.714268 3.221834,-0.411999 6.418173,-1.226884 9.658624,-1.352075 3.844441,2.331925 1.851815,9.220467 -1.858426,11.102167 -3.431667,2.834115 -10.115443,1.190523 -11.935913,5.098091 0.774545,1.808217 1.150367,5.892452 4.059346,3.947616 10.041908,-4.319101 21.051523,-1.225506 31.495813,-1.286247 4.669935,-4.169252 -3.945687,-7.583406 -7.707237,-7.820031 -3.577902,-0.05936 -8.172349,-0.748058 -6.688285,-5.168819 0.344606,-2.179426 -0.02772,-4.539379 0.872411,-6.5789 5.22465,-1.86635 11.202784,4.595753 16.170942,-0.292978 2.964821,-1.944921 5.925825,-10.646302 -0.541688,-6.91536 -4.642019,0.67326 -11.946968,2.404899 -15.206517,-1.496159 z m -33.351646,6.551127 c 5.056307,1.543945 1.996168,7.72346 2.427878,11.519552 -0.0083,4.649796 -0.939632,9.442209 0.0194,14.000564 2.854566,3.726341 6.0093,-0.939736 5.081813,-4.166686 0.106108,-8.029456 0.2122,-16.058912 0.318305,-24.088366 1.106132,-3.418014 4.325229,-5.807966 5.369489,-9.26709 -2.271106,-7.196571 -9.631299,0.596493 -14.097636,1.729117 -6.832423,0.55428 -6.212864,8.973305 0.03839,10.087336 z"
       id="path7"
       style="stroke-width:2.12627" />
    <path
       fill="#cc0001"
       d="m 62.015014,38.190449 c 5.707056,2.331375 13.167333,-1.252812 17.763378,-0.254413 -0.438306,5.632211 -5.885457,10.300725 -11.612601,8.571356 -2.950448,-1.877821 -9.415015,-3.392339 -8.735572,1.899783 0.02324,2.435431 -0.877549,4.976524 -0.117069,7.327702 4.358618,1.449134 9.539276,0.915949 13.577171,3.620185 4.50034,2.271567 0.97914,7.369871 -3.157936,5.382504 -9.699913,-0.786602 -20.006043,-2.388956 -29.160326,1.885029 -1.832214,-0.855315 -3.4177,-4.891636 -1.587483,-6.298241 4.914501,-1.417079 11.578969,-1.516384 14.094687,-6.76865 1.835791,-3.391808 0.505695,-9.295688 -4.2199,-7.342329 -2.701616,0.428112 -5.403231,0.856226 -8.104847,1.284339 -6.321395,-0.243897 -3.257403,-7.275546 1.204071,-7.01895 3.429959,-0.769852 6.85992,-1.539684 10.289879,-2.309516 2.281539,-1.188277 1.680633,-4.255052 2.40015,-6.417539 -0.580332,-3.547297 4.573202,-6.677463 5.382001,-1.935677 0.50053,2.664887 -0.847248,6.86893 1.984508,8.374417 z"
       id="path8"
       style="stroke-width:2.12627" />
    <path
       fill="#cc0001"
       d="m 27.106673,43.066693 c -5.833389,-0.235332 -8.771163,-9.018018 -1.665817,-9.928265 4.762919,-1.052865 12.330564,-9.382379 14.882752,-2.073761 -1.025407,3.555249 -4.532092,5.954402 -5.373174,9.545904 -0.119615,9.051792 -0.239221,18.103563 -0.358832,27.155354 -3.820157,6.137071 -6.793414,-2.108508 -5.369924,-5.907059 0.10298,-5.333869 0.609592,-10.659405 0.787426,-15.982016 -0.229641,-1.431326 -1.457184,-2.619835 -2.902431,-2.810157 z"
       id="path9"
       style="stroke-width:2.12627" />
  </g>
</svg>
