<?xml version="1.0" encoding="UTF-8" standalone="no"?>
<!-- Created with Inkscape (http://www.inkscape.org/) -->

<svg
   width="100"
   height="100"
   id="svg2"
   sodipodi:version="0.32"
   inkscape:version="1.3 (0e150ed6c4, 2023-07-21)"
   version="1.0"
   sodipodi:docname="wb.svg"
   inkscape:output_extension="org.inkscape.output.svg.inkscape"
   xmlns:inkscape="http://www.inkscape.org/namespaces/inkscape"
   xmlns:sodipodi="http://sodipodi.sourceforge.net/DTD/sodipodi-0.dtd"
   xmlns:xlink="http://www.w3.org/1999/xlink"
   xmlns="http://www.w3.org/2000/svg"
   xmlns:svg="http://www.w3.org/2000/svg"
   xmlns:rdf="http://www.w3.org/1999/02/22-rdf-syntax-ns#"
   xmlns:cc="http://creativecommons.org/ns#"
   xmlns:dc="http://purl.org/dc/elements/1.1/">
  <defs
     id="defs4">
    <linearGradient
       id="linearGradient3214">
      <stop
         style="stop-color:#c6c600;stop-opacity:1;"
         offset="0"
         id="stop3216" />
      <stop
         style="stop-color:#ffff00;stop-opacity:1;"
         offset="1"
         id="stop3218" />
    </linearGradient>
    <linearGradient
       id="linearGradient3202">
      <stop
         style="stop-color:#ff0000;stop-opacity:1;"
         offset="0"
         id="stop3204" />
      <stop
         style="stop-color:#bd0000;stop-opacity:1;"
         offset="1"
         id="stop3206" />
    </linearGradient>
    <linearGradient
       id="linearGradient3194">
      <stop
         style="stop-color:#dedede;stop-opacity:1;"
         offset="0"
         id="stop3196" />
      <stop
         style="stop-color:#989898;stop-opacity:1;"
         offset="1"
         id="stop3198" />
    </linearGradient>
    <inkscape:perspective
       sodipodi:type="inkscape:persp3d"
       inkscape:vp_x="0 : 556.18109 : 1"
       inkscape:vp_y="0 : 1000 : 0"
       inkscape:vp_z="744.09448 : 556.18109 : 1"
       inkscape:persp3d-origin="372.04724 : 380.78739 : 1"
       id="perspective10" />
    <linearGradient
       inkscape:collect="always"
       xlink:href="#linearGradient3202"
       id="linearGradient3208"
       x1="42.241379"
       y1="32.741379"
       x2="115.51724"
       y2="62.051723"
       gradientUnits="userSpaceOnUse"
       gradientTransform="translate(-32.758621,-3.8793108)" />
  </defs>
  <sodipodi:namedview
     id="base"
     pagecolor="#ffffff"
     bordercolor="#666666"
     borderopacity="1.0"
     gridtolerance="10000"
     guidetolerance="10"
     objecttolerance="10"
     inkscape:pageopacity="0.0"
     inkscape:pageshadow="2"
     inkscape:zoom="2.32"
     inkscape:cx="24.784483"
     inkscape:cy="81.681034"
     inkscape:document-units="px"
     inkscape:current-layer="layer1"
     showgrid="false"
     inkscape:window-width="1366"
     inkscape:window-height="715"
     inkscape:window-x="144"
     inkscape:window-y="892"
     inkscape:showpageshadow="2"
     inkscape:pagecheckerboard="0"
     inkscape:deskcolor="#d1d1d1"
     inkscape:window-maximized="1" />
  <metadata
     id="metadata7">
    <rdf:RDF>
      <cc:Work
         rdf:about="">
        <dc:format>image/svg+xml</dc:format>
        <dc:type
           rdf:resource="http://purl.org/dc/dcmitype/StillImage" />
      </cc:Work>
    </rdf:RDF>
  </metadata>
  <g
     inkscape:label="Layer 1"
     inkscape:groupmode="layer"
     id="layer1">
    <g
       stroke-width="2"
       fill="none"
       stroke-linecap="butt"
       id="g7"
       transform="matrix(2.1231759,0,0,2.1293629,-3.3153938,-3.686841)">
      <path
         stroke="#e67e80"
         vector-effect="non-scaling-stroke"
         d="M 44.36,24.56 C 44.581209,14.92869 36.410034,6.1222577 26.789124,5.6230999 12.836742,3.9252208 1.5798859,20.425152 8.2606012,32.799452 13.569445,45.176294 32.285663,47.320716 40.21698,36.400071 42.884892,33.073122 44.371538,28.82453 44.36,24.56 Z"
         id="path1" />
      <path
         stroke="#e67e80"
         vector-effect="non-scaling-stroke"
         d="M 42.7,24.55 C 42.899895,15.794088 35.492731,7.7810632 26.748127,7.293361 14.009236,5.6932408 3.6896614,20.757219 9.7942289,32.060528 14.633671,43.337874 31.69595,45.260331 38.923503,35.342608 41.355391,32.309986 42.710517,28.437257 42.7,24.55 Z"
         id="path2" />
      <path
         stroke="#e67e80"
         vector-effect="non-scaling-stroke"
         d="m 16.82,27.75 c -0.06373,2.385132 -0.24932,4.774208 -0.236875,7.156875 2.605807,0.869012 2.26082,-3.4321 2.369375,-5.111875 0.09614,-1.752466 -0.661112,-5.362248 2.129219,-3.369551 1.900416,0.893789 3.50692,-2.096214 1.339619,-2.723423 -0.921473,-0.63784 -2.15335,-0.918251 -2.693795,-1.994843 C 19.560484,19.799392 21.706237,19.937338 22.96,19.48 25.116614,18.419692 23.077363,16.505633 21.471875,16.865625 19.700455,16.702756 18.775809,13.469806 17.407891,16.110273 15.905529,18.229632 12.662302,17.209091 11.22,18.63 c 0.122178,1.111092 -0.303382,2.358121 0.28527,3.353445 1.213668,0.117363 2.268304,-0.7752 3.407805,-1.128829 3.435562,-1.031557 1.364082,3.776053 -0.878739,3.897689 C 12.397482,24.804363 9.3036609,25.604364 11.31,27.71 c 1.677443,1.429847 3.759748,0.308658 5.113125,-0.914688 0.469784,-0.01579 0.38162,0.664677 0.396875,0.954688 z"
         id="path3" />
      <path
         stroke="#e67e80"
         vector-effect="non-scaling-stroke"
         d="m 25.45,19.59 c 0.334538,3.89336 0.805521,8.100972 -0.927202,11.73999 -0.908756,1.136537 -2.866262,2.226382 -1.135896,3.581836 2.070768,-0.352903 4.088133,-1.354181 6.260993,-1.391237 2.245631,-0.431414 4.358601,0.528035 6.442105,1.009411 2.696474,-1.816556 0.347511,-5.587801 1.047705,-8.366104 0.09219,-3.192817 0.949698,-6.297862 1.890138,-9.315931 -1.543817,-1.623947 -4.686978,-0.721444 -6.854628,-1.300589 -2.550969,0.105992 -6.431603,-0.677311 -7.815715,1.764499 -0.09126,0.958313 0.997596,1.364329 1.0925,2.278125 z"
         id="path4" />
      <path
         stroke="#e67e80"
         vector-effect="non-scaling-stroke"
         d="m 28.85,20.77 c 2.04,-0.01333 4.08,-0.02667 6.12,-0.04 1.706481,-1.478771 -1.328239,-3.170581 -2.99671,-2.700544 C 30.427991,17.912775 28.096394,18.139596 28.35,20.27 l 0.146447,0.353553 z"
         id="path5" />
      <path
         stroke="#e67e80"
         vector-effect="non-scaling-stroke"
         d="m 28.89,25.64 c 1.895798,-0.137598 3.806739,-0.179634 5.692972,-0.377596 1.147924,-1.834724 -1.803257,-2.817649 -3.36713,-2.386001 C 29.674278,22.609424 27.150604,24.507257 28.89,25.64 Z"
         id="path6" />
      <path
         stroke="#e67e80"
         vector-effect="non-scaling-stroke"
         d="m 28.32,31.23 c 2.083627,-0.165232 4.191021,-0.185318 6.259581,-0.442561 1.529316,-2.103341 -2.044478,-3.641138 -3.983825,-3.102483 C 28.838543,27.299178 26.099156,30.333635 28.32,31.23 Z"
         id="path7" />
    </g>
    <path
       fill="#fffcfc"
       d="M 99.170304,49.547231 C 100.56791,83.474136 61.634211,109.5646 30.915743,95.286373 -0.87239095,83.598087 -10.007527,37.538817 14.90096,14.540016 c 21.118364,-22.9793386 61.988439,-17.453621 77.082924,9.28381 4.68379,7.700457 7.198947,16.703276 7.18642,25.723405 z M 90.868687,48.610312 C 91.338354,28.101758 73.989503,9.3496721 53.562618,8.2867797 23.939267,4.6713771 0.03898317,39.805716 14.223315,66.155091 c 11.272212,26.34418 51.014329,30.83509 67.849011,7.667027 5.664442,-7.084284 8.820861,-16.131074 8.796361,-25.211806 z"
       id="path8"
       style="stroke-width:2.12627" />
    <path
       fill="#cd0004"
       d="M 90.868687,48.610312 C 92.109874,77.250669 58.246345,98.590548 33.055772,85.042434 6.7881487,73.737369 2.3102887,33.879444 25.411025,16.995704 45.367775,-0.46255932 79.40566,9.3271017 88.081573,33.837154 c 1.838691,4.6922 2.789427,9.731636 2.787114,14.773158 z m -3.524472,-0.02129 C 87.768616,29.944508 72.041913,12.88186 53.47559,11.843369 26.428678,8.4361336 4.5184055,40.512813 17.479476,64.581662 27.754463,88.595211 63.980682,92.688827 79.326041,71.570401 84.489372,65.112853 87.36655,56.866406 87.344215,48.589019 Z"
       id="path9"
       style="stroke-width:2.12627" />
    <path
       fill="#fffcfc"
       d="M 87.344215,48.589018 C 88.475591,74.695625 57.607884,94.147611 34.645869,81.798072 10.702081,71.493148 6.6203673,35.161362 27.677437,19.771286 c 18.83437,-16.5518571 51.12403,-6.195361 57.868001,17.4276 1.190359,3.670787 1.799838,7.530066 1.798777,11.390132 z m -54.94779,6.813961 c -0.135311,5.078808 -0.52935,10.166026 -0.502928,15.239573 5.532586,1.85046 4.800119,-7.308164 5.0306,-10.885025 0.204121,-3.731645 -1.403657,-11.418177 4.520708,-7.174995 4.034926,1.903203 7.445808,-4.463592 2.844249,-5.799149 -1.956465,-1.358194 -4.571941,-1.955309 -5.719404,-4.24776 -0.354696,-4.062377 4.201121,-3.768632 6.863073,-4.742475 4.598268,-2.251801 0.212105,-6.344926 -3.159561,-5.566942 -3.761026,-0.34681 -5.724211,-7.230933 -8.628542,-1.608435 -3.189779,4.512886 -10.07572,2.339786 -13.137981,5.365419 0.259407,2.365913 -0.644133,5.021294 0.605679,7.140691 2.41017,0.352452 4.470572,-1.522751 6.721547,-2.184194 5.928795,-3.141918 5.25587,5.678287 0.629376,7.175549 -3.609113,1.628962 -13.136879,1.889425 -7.154189,7.590518 3.741959,2.853772 7.562729,-0.548801 10.57781,-2.293729 0.637709,0.415417 0.474393,1.355702 0.509563,1.990954 z m 18.323007,-17.3756 c 0.710287,8.290376 1.71026,17.249905 -1.968609,24.998698 -1.929457,2.420107 -6.085574,4.740772 -2.411716,7.627038 4.396609,-0.751473 8.679819,-2.883541 13.293183,-2.962455 4.767888,-0.918629 9.254095,1.124368 13.677732,2.1494 5.725081,-3.868115 0.737825,-11.898455 2.224473,-17.814463 0.195757,-6.798673 2.016359,-13.41045 4.013078,-19.837017 -3.618019,-3.355684 -10.468764,-1.699338 -15.393747,-2.819724 -5.079295,0.398788 -14.723163,-1.579411 -15.621265,4.799052 0.342341,1.530203 2.16273,2.110625 2.186871,3.859471 z"
       id="path10"
       style="stroke-width:2.12627" />
    <path
       fill="#cd0004"
       d="m 32.396425,55.402979 c -0.528419,-5.285014 -5.301126,3.576117 -8.676907,1.255664 -5.299593,-0.190364 -5.58416,-8.430892 0.505002,-7.184938 4.868415,0.855748 12.500569,-8.974754 4.836389,-9.05816 -2.207394,0.942923 -4.414786,1.885847 -6.62218,2.828772 -3.102426,-0.110298 -1.58965,-3.946135 -1.936368,-6.059869 0.397432,-5.215554 8.770357,-1.308237 11.68523,-5.370231 2.158433,-1.762538 4.607996,-5.785416 6.444335,-1.515105 2.18926,3.428891 10.352595,0.30107 8.373031,6.323504 -2.178379,2.369641 -6.024024,1.251023 -8.143421,3.739631 -1.408735,3.843031 3.088861,4.758486 5.411296,6.411808 4.214398,1.080929 1.790729,7.21194 -2.204005,5.954254 -2.163982,-0.714828 -6.248278,-3.072267 -5.046203,1.393731 -0.546849,5.285866 0.899216,11.450989 -1.97223,16.118532 -3.178426,2.951211 -3.581367,-1.29691 -3.095057,-3.630819 0.14703,-3.735605 0.294057,-7.47119 0.441088,-11.206774 z"
       id="path11"
       style="stroke-width:2.12627" />
    <path
       fill="#cd0004"
       d="m 49.657843,35.91931 c -4.389305,-6.548964 6.918327,-6.538188 11.108945,-6.638588 5.991496,0.08944 11.996261,0.814694 17.912407,1.571661 1.383015,5.461689 -3.354618,11.958545 -2.922213,18.114597 -1.15883,6.433167 0.949144,13.007193 -0.100214,19.299907 -4.485145,3.792587 -9.879434,-2.519824 -15.244805,-0.634785 -4.87237,0.04302 -9.449576,2.109858 -14.072856,3.021013 -4.415038,-3.58557 2.302458,-5.596626 3.180072,-9.221377 2.633078,-7.491162 1.942197,-15.64 1.200253,-23.404359 z m 8.280387,4.620717 c 4.331278,-0.02832 8.662557,-0.05686 12.993836,-0.08517 3.623156,-3.148839 -2.820088,-6.751316 -6.362543,-5.75043 -3.204381,-0.216258 -8.075074,0.138409 -7.698615,4.564247 -0.02802,0.603163 0.344996,1.316926 1.067322,1.271357 z m 0.08492,10.369996 c 4.025116,-0.293 8.082377,-0.382497 12.087175,-0.804046 2.437257,-3.906785 -3.828637,-5.999779 -7.149009,-5.080661 -3.248203,-0.540475 -8.719691,3.418161 -4.938166,5.884707 z m -1.210211,11.903139 c 4.423913,-0.351834 8.898272,-0.394613 13.290189,-0.942371 3.268736,-4.231128 -4.139662,-7.803539 -8.179598,-6.622765 -3.861931,-0.712954 -9.956378,5.40345 -5.110591,7.565136 z"
       id="path12"
       style="stroke-width:2.12627" />
    <path
       fill="#fffcfc"
       d="m 57.93823,40.540027 c -3.674772,-3.137361 2.723609,-6.777719 6.277614,-5.833305 3.295722,-0.295556 8.18962,0.138408 7.777809,4.683449 -1.049039,1.945471 -3.896665,0.738356 -5.808626,1.095791 -2.74894,0.01704 -5.497859,0.03598 -8.246797,0.05409 z"
       id="path13"
       style="stroke-width:2.12627" />
    <path
       fill="#fffcfc"
       d="m 58.023157,50.910023 c -3.813883,-3.133143 2.855883,-6.648722 6.381098,-5.971286 3.559568,-1.828037 9.414352,4.959435 4.202615,5.335566 -3.527891,0.211871 -7.055802,0.423807 -10.583713,0.63572 z"
       id="path14"
       style="stroke-width:2.12627" />
    <path
       fill="#fffcfc"
       d="m 56.812946,62.813162 c -4.988338,-3.039643 2.399995,-8.538894 6.715499,-7.659808 4.508543,-2.231231 11.140112,6.877055 4.608756,6.958268 -3.774752,0.233847 -7.549503,0.467694 -11.324255,0.70154 z"
       id="path15"
       style="stroke-width:2.12627" />
  </g>
</svg>
