<?xml version="1.0" encoding="UTF-8" standalone="no"?>
<!-- Created with Inkscape (http://www.inkscape.org/) -->

<svg
   width="100"
   height="100"
   id="svg2"
   sodipodi:version="0.32"
   inkscape:version="1.3 (0e150ed6c4, 2023-07-21)"
   version="1.0"
   sodipodi:docname="wc.svg"
   inkscape:output_extension="org.inkscape.output.svg.inkscape"
   xmlns:inkscape="http://www.inkscape.org/namespaces/inkscape"
   xmlns:sodipodi="http://sodipodi.sourceforge.net/DTD/sodipodi-0.dtd"
   xmlns:xlink="http://www.w3.org/1999/xlink"
   xmlns="http://www.w3.org/2000/svg"
   xmlns:svg="http://www.w3.org/2000/svg"
   xmlns:rdf="http://www.w3.org/1999/02/22-rdf-syntax-ns#"
   xmlns:cc="http://creativecommons.org/ns#"
   xmlns:dc="http://purl.org/dc/elements/1.1/">
  <defs
     id="defs4">
    <linearGradient
       id="linearGradient3214">
      <stop
         style="stop-color:#c6c600;stop-opacity:1;"
         offset="0"
         id="stop3216" />
      <stop
         style="stop-color:#ffff00;stop-opacity:1;"
         offset="1"
         id="stop3218" />
    </linearGradient>
    <linearGradient
       id="linearGradient3202">
      <stop
         style="stop-color:#ff0000;stop-opacity:1;"
         offset="0"
         id="stop3204" />
      <stop
         style="stop-color:#bd0000;stop-opacity:1;"
         offset="1"
         id="stop3206" />
    </linearGradient>
    <linearGradient
       id="linearGradient3194">
      <stop
         style="stop-color:#dedede;stop-opacity:1;"
         offset="0"
         id="stop3196" />
      <stop
         style="stop-color:#989898;stop-opacity:1;"
         offset="1"
         id="stop3198" />
    </linearGradient>
    <inkscape:perspective
       sodipodi:type="inkscape:persp3d"
       inkscape:vp_x="0 : 556.18109 : 1"
       inkscape:vp_y="0 : 1000 : 0"
       inkscape:vp_z="744.09448 : 556.18109 : 1"
       inkscape:persp3d-origin="372.04724 : 380.78739 : 1"
       id="perspective10" />
    <linearGradient
       inkscape:collect="always"
       xlink:href="#linearGradient3202"
       id="linearGradient3208"
       x1="42.241379"
       y1="32.741379"
       x2="115.51724"
       y2="62.051723"
       gradientUnits="userSpaceOnUse"
       gradientTransform="translate(-32.758621,-3.8793108)" />
  </defs>
  <sodipodi:namedview
     id="base"
     pagecolor="#ffffff"
     bordercolor="#666666"
     borderopacity="1.0"
     gridtolerance="10000"
     guidetolerance="10"
     objecttolerance="10"
     inkscape:pageopacity="0.0"
     inkscape:pageshadow="2"
     inkscape:zoom="3.2809755"
     inkscape:cx="33.679008"
     inkscape:cy="72.387008"
     inkscape:document-units="px"
     inkscape:current-layer="layer1"
     showgrid="false"
     inkscape:window-width="1366"
     inkscape:window-height="715"
     inkscape:window-x="144"
     inkscape:window-y="892"
     inkscape:showpageshadow="2"
     inkscape:pagecheckerboard="0"
     inkscape:deskcolor="#d1d1d1"
     inkscape:window-maximized="1" />
  <metadata
     id="metadata7">
    <rdf:RDF>
      <cc:Work
         rdf:about="">
        <dc:format>image/svg+xml</dc:format>
        <dc:type
           rdf:resource="http://purl.org/dc/dcmitype/StillImage" />
      </cc:Work>
    </rdf:RDF>
  </metadata>
  <g
     inkscape:label="Layer 1"
     inkscape:groupmode="layer"
     id="layer1">
    <g
       stroke-width="2"
       fill="none"
       stroke-linecap="butt"
       id="g7"
       transform="matrix(2.1355166,0,0,2.1389586,-3.3728237,-3.615714)">
      <path
         stroke="#e57f80"
         vector-effect="non-scaling-stroke"
         d="M 43.71,24.41 C 43.923175,15.072384 36.023912,6.527009 26.698355,6.006906 13.113148,4.300481 2.1079866,20.365243 8.6181147,32.419494 13.779068,44.446058 31.97489,46.496234 39.682609,35.919622 42.276061,32.685525 43.721216,28.555509 43.71,24.41 Z"
         id="path1" />
      <path
         stroke="#e57f80"
         vector-effect="non-scaling-stroke"
         d="M 42.07,24.41 C 42.301366,15.438259 34.251741,7.3886337 25.28,7.62 13.388011,7.103137 4.5273146,21.204855 10.152733,31.694908 14.846796,42.633478 31.396517,44.498184 38.406951,34.878394 40.765784,31.936873 42.080202,28.180482 42.07,24.41 Z"
         id="path2" />
      <path
         stroke="#e57f80"
         vector-effect="non-scaling-stroke"
         d="m 26.48,14.22 c -0.06423,2.410403 -1.592866,4.459998 -3.631105,5.624233 -1.340918,0.483157 -3.398756,3.035087 -0.890624,2.599585 1.745022,-0.252047 1.838854,1.685735 1.676345,2.912211 -0.08154,2.59799 -0.163077,5.195981 -0.244616,7.793971 1.89804,1.2269 5.260571,0.246192 7.533699,1.693941 2.209851,0.897669 5.367037,1.328156 6.885473,-0.985106 C 38.71834,32.777277 40.392603,28.609927 37.78,29.8 c -0.855471,1.814625 -2.99357,2.927582 -4.925657,2.254296 -2.136541,-0.405488 -4.295111,-0.725696 -6.418093,-1.183671 -0.500237,-0.718127 -0.01414,-1.747999 -0.07063,-2.598448 -0.322717,-2.356763 3.018783,-1.412265 3.860124,-3.215368 0.588201,-1.305957 2.99803,-4.15364 1.154258,-4.946809 -0.956132,0.362825 -4.415469,0.664059 -2.72,-0.87 2.223338,-0.08926 6.003898,-0.59883 4.922656,2.860469 -0.021,2.771625 -2.194031,5.183137 -4.925781,5.566406 -2.951717,0.400379 -0.214206,2.592299 1.479375,2.105625 2.733925,0.08949 4.169602,-2.647522 4.6475,-4.956406 0.134388,-2.537902 3.422617,-5.484853 1.492325,-7.601482 -2.475924,-0.209428 -4.990562,0.07851 -7.47795,-0.01024 C 28.173915,16.477419 28.629635,11.62872 26.48,14.22 Z"
         id="path3" />
      <path
         stroke="#e57f80"
         vector-effect="non-scaling-stroke"
         d="m 19.58,17.68 c 0.06723,-0.976339 0.336613,-1.959044 0.27186,-2.931228 -2.44432,-0.706559 -2.130708,2.902663 -2.264282,4.50032 -0.326546,2.57417 -0.309653,5.355932 -1.625781,7.656689 -0.733645,2.313615 -4.703932,0.0922 -4.435696,2.459066 -0.314496,1.831168 1.438031,4.077487 3.194133,2.33485 C 18.097298,29.11625 19.798535,24.73239 19.3,20.54 c 0.315783,-1.118412 1.79989,-0.829008 2.717123,-1.184343 1.111244,-3e-6 2.048141,-0.703733 1.509324,-1.873405 -0.47508,-1.43088 -1.797784,0.02691 -2.622793,0.384953 C 20.505734,18.166809 19.614674,18.594736 19.58,17.68 Z"
         id="path4" />
      <path
         stroke="#e57f80"
         vector-effect="non-scaling-stroke"
         d="m 15.58,22.37 c 1.288725,-1.06306 1.018208,-3.936586 -1.105561,-3.426467 -1.395195,-0.173886 -3.203453,0.496633 -2.709344,2.210847 -0.238949,1.70838 1.450302,3.244453 2.885311,1.823657 C 14.96027,22.775358 15.270135,22.572679 15.58,22.37 Z"
         id="path5" />
      <path
         stroke="#e57f80"
         vector-effect="non-scaling-stroke"
         d="m 20.34,28.74 c 3.160452,0.01786 3.094755,-5.79299 -0.146776,-4.752468 C 19.362151,25.30648 19.930031,26.903666 19.84,28.37 l 0.157989,0.309339 z"
         id="path6" />
      <path
         stroke="#e57f80"
         vector-effect="non-scaling-stroke"
         d="m 29.0021,23.1978 c -1.505013,-2.693 -4.463191,1.837369 -1.2083,1.302 l 0.938806,-0.498222 z"
         id="path7" />
    </g>
    <path
       fill="#fefdfd"
       d="M 99.729917,49.836861 C 101.13564,83.916652 61.975644,110.1247 31.078632,95.782119 -0.89426598,84.04116 -10.082499,37.774332 14.970766,14.671891 36.211879,-8.411002 77.319514,-2.8603825 92.501729,23.997536 c 4.711023,7.735158 7.240788,16.778547 7.228188,25.839325 z m -9.75931,-1.240596 C 90.425844,28.623482 73.556838,10.34529 53.641957,9.2328174 24.630521,5.5828347 1.128817,39.944691 15.031304,65.728231 c 11.0213,25.724336 49.87878,30.109565 66.338742,7.486633 5.53836,-6.917584 8.624512,-15.751525 8.600561,-24.618599 z"
       id="path8"
       style="stroke-width:2.13723" />
    <path
       fill="#cc0102"
       d="M 89.970607,48.596265 C 91.184161,76.562741 58.074407,97.400519 33.444563,84.171188 7.7616362,73.132108 3.3834506,34.212004 25.969982,17.72551 46.172383,-0.00551554 80.807363,11.088793 88.041173,36.394683 c 1.276832,3.932303 1.930576,8.066526 1.929434,12.201582 z m -3.502249,0 C 86.962445,29.406085 69.772337,12.188259 50.613035,12.683151 25.217496,11.577609 6.2953334,41.740581 18.308506,64.178386 28.332755,87.575533 63.674959,91.56405 78.645857,70.987718 83.683184,64.695929 86.490145,56.661165 86.468358,48.596265 Z"
       id="path9"
       style="stroke-width:2.13723" />
    <path
       fill="#fefdfd"
       d="M 86.468358,48.596265 C 87.572128,74.032738 57.457675,92.985409 35.055994,80.952869 11.696496,70.912448 7.7143858,35.513282 28.257606,20.518263 47.338761,3.6906477 80.189909,15.436226 85.371195,39.780119 c 0.728104,2.878141 1.09758,5.847036 1.097163,8.816146 z M 53.175655,26.800277 c -0.137163,5.155746 -3.401591,9.539756 -7.754284,12.029995 -3.134422,1.166909 -7.140339,6.576357 -1.621802,5.54018 3.610696,-0.271775 3.582109,3.728761 3.299721,6.249332 -0.174129,5.556992 -0.348253,11.113986 -0.522381,16.670979 4.053296,2.624287 11.234037,0.52659 16.08834,3.623267 4.719173,1.920079 11.461397,2.840879 14.704041,-2.107088 1.941544,-2.313413 5.516961,-11.227201 -0.0623,-8.681691 -1.826872,3.881398 -6.392817,6.261973 -10.518821,4.821855 -4.562619,-0.867326 -9.17228,-1.552242 -13.705944,-2.531822 -1.068265,-1.536049 -0.0302,-3.738899 -0.150832,-5.557976 -0.689168,-5.041033 6.446661,-3.020788 8.243359,-6.877544 1.858367,-2.751021 7.500112,-12.19294 0.284709,-10.17695 -2.590905,1.570466 -7.577722,-1.704644 -2.572965,-2.276666 4.115769,-0.0584 11.349437,-1.193431 9.504717,5.332361 0.173831,5.868297 -3.942928,11.462272 -9.801688,12.524608 -3.961509,-0.49748 -5.007602,4.298258 -0.662968,4.3537 4.915886,1.515644 10.235565,-1.492052 11.729325,-6.360728 1.740377,-5.946306 4.00838,-11.741258 6.191028,-17.510114 -0.260907,-3.793336 -4.490726,-2.698489 -7.066106,-2.793951 -3.550476,0.01497 -7.109683,0.19978 -10.654752,0.111653 -1.333015,-1.554873 -0.359817,-11.926042 -4.950399,-6.383401 z m -14.735064,7.400796 c 0.143571,-2.08835 0.718843,-4.190304 0.580562,-6.269779 -5.219886,-1.511302 -4.550163,6.20869 -4.835412,9.625998 -0.697344,5.506044 -0.66127,11.456113 -3.471882,16.377342 -1.566711,4.948738 -10.045325,0.197212 -9.472503,5.259849 -0.813424,4.409742 3.923487,8.940355 7.522009,4.403988 6.797697,-5.549956 10.080909,-14.631247 9.079282,-23.279975 0.674359,-2.392233 3.843694,-1.773218 5.80246,-2.533254 2.373081,-2.3e-5 4.373839,-1.505272 3.223188,-4.007147 -1.014541,-3.060593 -3.839198,0.05754 -5.601019,0.823413 -0.849765,0.640832 -2.752637,1.556157 -2.826685,-0.400435 z m -8.542066,10.031716 c 2.752093,-2.27384 2.174399,-8.420202 -2.360944,-7.329078 -2.823585,-0.317934 -6.767783,0.871584 -5.813651,4.448971 -0.454073,3.485668 2.655713,7.419834 5.95438,4.334664 0.740072,-0.48486 1.480144,-0.969698 2.220215,-1.454557 z m 10.165059,13.625166 c 6.749198,0.03829 6.6089,-12.390965 -0.313443,-10.165335 -1.77477,2.821178 -0.562053,6.237501 -0.754315,9.373921 l 0.337388,0.661665 z"
       id="path10"
       style="stroke-width:2.13723" />
    <path
       fill="#cc0102"
       d="m 40.704239,42.64996 c 3.993236,-4.105111 10.558811,-6.272967 11.863712,-12.498128 -0.962477,-3.648869 3.734208,-7.182878 4.579765,-2.175127 -0.68217,3.710108 0.8333,6.209012 4.519923,5.211422 4.137925,0.06202 8.319626,-0.406124 12.427697,0.01711 4.12217,4.527384 -2.899896,10.830788 -3.186884,16.259251 -1.02056,4.93862 -4.086472,10.792993 -9.924814,10.601556 -2.925338,0.774132 -9.476909,-2.665635 -3.953042,-4.349102 5.806976,-0.608662 10.940687,-5.299269 11.236488,-11.288034 0.945872,-3.784629 -0.140837,-8.368632 -5.085531,-6.86304 -1.933158,-0.227756 -8.993838,-0.504837 -5.435892,2.495565 3.042706,-0.167266 9.846037,-2.007497 6.707858,3.314938 -1.281568,5.397512 -5.294815,9.843293 -10.893133,10.424877 -0.939871,2.499779 -0.729907,5.348315 -0.947973,8.004025 1.213002,1.421702 3.602666,0.974724 5.328253,1.552435 4.087284,0.642073 8.138219,1.650741 12.249717,2.050385 4.737387,0.490827 6.005746,-6.788199 9.957874,-5.651386 0.470036,4.803952 -2.48078,10.90285 -7.468119,12.404184 -7.056253,1.5596 -13.258423,-3.770448 -20.269681,-3.592316 -3.820157,0.888031 -6.845228,-0.614694 -5.727819,-4.652385 0.10285,-5.743873 0.516038,-11.499789 0.421233,-17.236005 -0.35665,-4.549287 -7.007626,-0.01279 -6.399632,-4.030612 z m 17.857403,3.35346 c -3.213981,-5.760216 -9.531219,3.930058 -2.580345,2.784923 l 2.004836,-1.065671 z"
       id="path11"
       style="stroke-width:2.13723" />
    <path
       fill="#cc0102"
       d="m 40.106294,35.291942 c 2.000597,-0.92035 3.703778,-2.835596 5.960515,-2.899122 1.797368,1.883438 1.361783,5.543068 -1.80037,5.260297 -2.026905,0.613539 -4.347869,0.517393 -6.146086,1.682869 -0.209195,5.439927 -0.131669,11.292418 -2.950438,16.245391 -2.533985,4.23826 -8.375528,13.541276 -13.411221,7.804332 -0.392816,-2.07603 -0.871474,-4.440243 -0.274104,-6.4582 5.22013,0.87678 10.9532,-2.150339 11.156072,-8.054271 1.395797,-6.111924 1.46465,-12.4186 2.16321,-18.603827 1.1808,-4.147718 5.776541,-2.822441 3.985857,1.013846 0.05343,1.360655 -1.367389,4.509823 1.316565,4.008685 z"
       id="path12"
       style="stroke-width:2.13723" />
    <path
       fill="#cc0102"
       d="m 29.898525,44.232789 c -2.358098,1.81634 -6.995847,4.776658 -7.907858,-0.19443 -0.437427,-2.7636 -0.99083,-7.266513 3.218628,-7.030265 2.600303,-0.314899 7.037168,-0.506805 6.397644,3.417306 -0.378389,1.354132 -0.345673,2.895016 -1.708414,3.807347 z"
       id="path13"
       style="stroke-width:2.13723" />
    <ellipse
       fill="#fefdfd"
       cx="45.354336"
       cy="56.601608"
       transform="matrix(0.98055393,-0.19624981,0.19564291,0.9806752,0,0)"
       rx="3.0753345"
       ry="2.2243795"
       id="ellipse13"
       style="stroke-width:2.13724" />
    <path
       fill="#cc0102"
       d="m 40.063584,57.857955 c -1.975537,-0.739331 -0.799116,-3.760097 -1.223991,-5.57128 -1.343494,-4.197323 4.639074,-7.605303 5.844049,-2.015669 1.646093,3.61715 -1.01958,6.934738 -4.620058,7.586949 z"
       id="path14"
       style="stroke-width:2.13723" />
  </g>
</svg>
