<?xml version="1.0" encoding="UTF-8" standalone="no"?>
<!-- Created with Inkscape (http://www.inkscape.org/) -->

<svg
   width="100"
   height="100"
   id="svg2"
   sodipodi:version="0.32"
   inkscape:version="1.3 (0e150ed6c4, 2023-07-21)"
   version="1.0"
   sodipodi:docname="wk.svg"
   inkscape:output_extension="org.inkscape.output.svg.inkscape"
   xmlns:inkscape="http://www.inkscape.org/namespaces/inkscape"
   xmlns:sodipodi="http://sodipodi.sourceforge.net/DTD/sodipodi-0.dtd"
   xmlns:xlink="http://www.w3.org/1999/xlink"
   xmlns="http://www.w3.org/2000/svg"
   xmlns:svg="http://www.w3.org/2000/svg"
   xmlns:rdf="http://www.w3.org/1999/02/22-rdf-syntax-ns#"
   xmlns:cc="http://creativecommons.org/ns#"
   xmlns:dc="http://purl.org/dc/elements/1.1/">
  <defs
     id="defs4">
    <linearGradient
       id="linearGradient3214">
      <stop
         style="stop-color:#c6c600;stop-opacity:1;"
         offset="0"
         id="stop3216" />
      <stop
         style="stop-color:#ffff00;stop-opacity:1;"
         offset="1"
         id="stop3218" />
    </linearGradient>
    <linearGradient
       id="linearGradient3202">
      <stop
         style="stop-color:#ff0000;stop-opacity:1;"
         offset="0"
         id="stop3204" />
      <stop
         style="stop-color:#bd0000;stop-opacity:1;"
         offset="1"
         id="stop3206" />
    </linearGradient>
    <linearGradient
       id="linearGradient3194">
      <stop
         style="stop-color:#dedede;stop-opacity:1;"
         offset="0"
         id="stop3196" />
      <stop
         style="stop-color:#989898;stop-opacity:1;"
         offset="1"
         id="stop3198" />
    </linearGradient>
    <inkscape:perspective
       sodipodi:type="inkscape:persp3d"
       inkscape:vp_x="0 : 556.18109 : 1"
       inkscape:vp_y="0 : 1000 : 0"
       inkscape:vp_z="744.09448 : 556.18109 : 1"
       inkscape:persp3d-origin="372.04724 : 380.78739 : 1"
       id="perspective10" />
    <linearGradient
       inkscape:collect="always"
       xlink:href="#linearGradient3202"
       id="linearGradient3208"
       x1="42.241379"
       y1="32.741379"
       x2="115.51724"
       y2="62.051723"
       gradientUnits="userSpaceOnUse"
       gradientTransform="translate(-32.758621,-3.8793108)" />
  </defs>
  <sodipodi:namedview
     id="base"
     pagecolor="#ffffff"
     bordercolor="#666666"
     borderopacity="1.0"
     gridtolerance="10000"
     guidetolerance="10"
     objecttolerance="10"
     inkscape:pageopacity="0.0"
     inkscape:pageshadow="2"
     inkscape:zoom="2.32"
     inkscape:cx="9.6982759"
     inkscape:cy="82.974138"
     inkscape:document-units="px"
     inkscape:current-layer="layer1"
     showgrid="false"
     inkscape:window-width="1366"
     inkscape:window-height="715"
     inkscape:window-x="144"
     inkscape:window-y="892"
     inkscape:showpageshadow="2"
     inkscape:pagecheckerboard="0"
     inkscape:deskcolor="#d1d1d1"
     inkscape:window-maximized="1" />
  <metadata
     id="metadata7">
    <rdf:RDF>
      <cc:Work
         rdf:about="">
        <dc:format>image/svg+xml</dc:format>
        <dc:type
           rdf:resource="http://purl.org/dc/dcmitype/StillImage" />
      </cc:Work>
    </rdf:RDF>
  </metadata>
  <g
     inkscape:label="Layer 1"
     inkscape:groupmode="layer"
     id="layer1">
    <g
       stroke-width="2"
       fill="none"
       stroke-linecap="butt"
       id="g5"
       transform="matrix(2.1505284,0,0,2.1381305,-3.9350507,-3.0777371)">
      <path
         stroke="#e77e80"
         vector-effect="non-scaling-stroke"
         d="M 44.28,24.75 C 44.503889,15.002039 36.233747,6.0889464 26.496312,5.583743 12.374943,3.8652998 0.98174866,20.565072 7.7433784,33.089245 13.116809,45.610944 32.061754,47.745527 40.086801,36.733474 42.787026,33.36623 44.291678,29.06618 44.28,24.75 Z"
         id="path1" />
      <path
         stroke="#e77e80"
         vector-effect="non-scaling-stroke"
         d="M 42.6,24.73 C 42.802205,15.872922 35.309458,7.7673146 26.463819,7.2739775 13.577742,5.6553695 3.1389353,20.893397 9.3140351,32.327304 14.209392,43.73495 31.468809,45.679619 38.779869,35.647306 41.239855,32.579645 42.610639,28.66217 42.6,24.73 Z"
         id="path2" />
      <path
         stroke="#e77e80"
         vector-effect="non-scaling-stroke"
         d="m 16.17,24.6 c -2.308984,-1.155947 0.495563,-2.160743 1.778237,-1.929203 1.563857,-0.191899 3.216309,-0.0074 4.71232,-0.492228 1.220871,-1.370615 0.24156,-3.617986 1.450849,-5.141382 1.558238,-3.241306 -2.920823,-1.335135 -4.524531,-2.382187 -1.987486,-1.696928 -3.806464,1.121091 -6.046914,0.715859 -3.39863,-0.453117 -0.712401,3.481918 -0.796729,5.329336 0.612651,3.892795 6.74e-4,7.880141 -1.293232,11.572305 0.390861,3.409726 3.550044,-0.684852 5.550625,-0.05875 2.357044,0.372653 4.539053,-1.619622 6.739375,0.12625 2.727877,-0.457399 3.819239,-3.404183 3.784614,-5.858492 C 27.941384,24.689024 26.517881,21.28349 29.07,20.82 c 1.821638,1.434093 0.669116,4.680064 0.916025,6.896055 -0.01121,2.271042 -0.587471,4.510498 -0.56665,6.770195 0.924032,2.03988 3.871853,-0.266892 3.185129,-2.090355 C 32.553002,28.460597 32.501501,24.525298 32.45,20.59 c 1.340833,-1.780369 3.169769,0.703499 2.546875,2.404141 0.0866,3.019229 0.03958,6.042754 0.106875,9.06039 0.941212,3.368131 5.133568,0.728393 3.811875,-2.017968 C 37.134479,26.058829 36.857382,21.307441 38.88,17.36 c -0.531071,-1.941796 -3.214835,0.629679 -4.833203,-0.270508 -1.211544,-0.211393 -1.165946,-1.733962 -1.673836,-2.639505 -0.687386,-1.353974 -1.510692,0.501474 -1.993583,1.140023 -0.471049,0.989555 -1.394179,1.67998 -2.521782,1.428291 -1.312405,-0.164975 -3.438989,-0.119857 -2.707283,1.870722 0.54032,3.780845 -0.06726,7.708338 -1.720313,11.150977 -2.070478,0.944942 -0.905568,-2.822469 -0.32,-3.83 0.46024,-3.854499 -4.199745,-1.427815 -6.410469,-1.624844 l -0.269023,0.0099 z"
         id="path3" />
      <path
         stroke="#e77e80"
         vector-effect="non-scaling-stroke"
         d="m 21.1468,18.1673 c -0.516836,-1.624534 -2.282043,-0.770758 -3.492528,-0.77137 -1.422919,-0.144041 -3.721312,0.838247 -2.277044,2.488012 1.412777,0.482991 2.918229,-0.103882 4.37634,-0.144242 0.892188,0.02708 1.624773,-0.630226 1.393232,-1.5724 z"
         id="path4" />
      <path
         stroke="#e77e80"
         vector-effect="non-scaling-stroke"
         d="m 19.7742,28.1106 c -0.712833,-3.534315 -7.72735,-0.152405 -3.627895,1.696966 1.31957,0.401277 3.513889,-0.01015 3.627895,-1.696966 z"
         id="path5" />
    </g>
    <path
       fill="#fefcfc"
       d="M 99.913963,50.375524 C 101.33017,84.456768 61.87794,110.66593 30.750355,96.322751 -1.4611487,84.581272 -10.717948,38.312492 14.52228,15.209052 35.921908,-7.8748253 77.336317,-2.3239826 92.631833,24.535106 c 4.746179,7.735478 7.294824,16.779257 7.28213,25.840418 z m -8.62362,-0.534532 C 91.771823,28.998581 73.986649,9.9412324 53.04602,8.8610274 22.677615,5.1867778 -1.8237707,40.893066 12.717303,67.671397 24.273019,94.444404 65.014659,99.008435 82.27275,75.463214 88.079661,68.263616 91.315458,59.069547 91.290343,49.840992 Z"
       id="path6"
       style="stroke-width:2.14433" />
    <path
       fill="#d00004"
       d="M 91.290343,49.840992 C 92.562742,78.947576 57.847527,100.63485 32.023407,86.866184 5.0951382,75.377091 0.50466022,34.870337 24.186389,17.711733 44.645066,-0.0307307 79.539014,9.9182904 88.433136,34.827361 c 1.884926,4.768565 2.859579,9.890028 2.857207,15.013631 z m -3.612887,-0.04276 C 88.112303,30.860637 71.998939,13.529786 52.976142,12.474981 25.264269,9.0141815 2.8153209,41.595078 16.095046,66.042249 26.62265,90.433292 63.739514,94.59125 79.462157,73.140862 84.752426,66.581805 87.700336,58.205722 87.677456,49.79823 Z"
       id="path7"
       style="stroke-width:2.14433" />
    <path
       fill="#fefcfc"
       d="M 87.677456,49.79823 C 88.836648,76.315216 57.210039,96.072975 33.683488,83.52929 9.1510218,73.062393 4.9689566,36.159501 26.54373,20.527501 45.841166,3.7154667 78.924679,14.234769 85.834453,38.229041 c 1.219636,3.728514 1.844094,7.648456 1.843003,11.569189 z M 30.838993,49.520273 c -4.965535,-2.471573 1.065722,-4.619944 3.824149,-4.124882 3.363119,-0.410308 6.916764,-0.01496 10.133978,-1.052452 2.580445,-3.122056 0.559745,-8.175291 3.418898,-11.528308 2.036197,-6.927628 -7.839036,-1.678946 -11.26314,-5.116652 -4.195499,-2.174074 -8.368322,3.605251 -13.236923,2.047751 -5.431538,0.869108 0.309923,7.717775 -0.246324,11.436261 1.317523,8.323293 0.0015,16.848768 -2.781131,24.743087 0.840557,7.290448 7.63447,-1.464298 11.936776,-0.12572 5.068889,0.796776 9.761361,-3.462958 14.493217,0.269939 5.866375,-0.97798 8.213381,-7.27858 8.138919,-12.526215 0.896275,-3.832578 -2.165008,-11.114046 3.323396,-12.105048 3.917484,3.066272 1.438953,10.00658 1.969938,14.744655 -0.02411,4.855802 -1.263373,9.644038 -1.218597,14.475572 1.987157,4.36153 8.326529,-0.570647 6.84971,-4.469441 -0.11075,-8.414186 -0.221512,-16.828371 -0.332265,-25.242555 2.883499,-3.806663 6.816678,1.504175 5.477126,5.140365 0.186236,6.455508 0.08511,12.920209 0.229839,19.372296 2.024102,7.201501 11.039883,1.557392 8.197544,-4.314684 -3.830405,-8.504905 -4.42631,-18.663996 -0.07663,-27.104139 -1.132547,-4.032749 -6.918812,1.281211 -10.393941,-0.578386 -2.60546,-0.451978 -2.5074,-3.707432 -3.599631,-5.643595 -1.478244,-2.894986 -3.248787,1.072208 -4.287257,2.437512 -1.013005,2.115787 -2.998222,3.592016 -5.423164,3.053871 -2.822364,-0.352728 -7.395643,-0.256277 -5.82209,3.999843 1.161975,8.08395 -0.144646,16.481437 -3.699581,23.84225 -4.452621,2.020405 -1.947449,-6.034809 -0.688169,-8.18904 0.989759,-8.241423 -9.03167,-3.052865 -13.785894,-3.47412 l -0.578543,0.02138 z"
       id="path8"
       style="stroke-width:2.14433" />
    <path
       fill="#d00004"
       d="m 30.838993,49.520273 c 5.003411,0.790659 11.156863,-3.618551 14.968423,0.489823 1.264135,3.641131 -4.75135,9.586844 -0.259932,11.877979 3.2759,-4.007285 4.100812,-9.720027 4.829731,-14.784638 1.599568,-4.516801 -2.788287,-11.54753 1.884373,-13.869925 2.512215,-0.235044 5.322654,0.829895 7.545021,-0.668614 1.275979,-1.853053 2.551962,-3.706085 3.82794,-5.559139 2.558239,-0.951319 2.5006,3.051603 3.542005,4.703908 1.71409,3.218015 6.656145,1.84773 9.570168,0.984523 6.398768,-1.170583 -0.727855,7.23708 0.08299,10.809255 -0.933218,6.245479 0.853138,12.430236 3.060471,18.205005 2.312738,5.866346 -6.536811,10.584643 -8.333633,3.75058 -0.138473,-7.838065 -0.06732,-15.689046 -0.330644,-23.529121 -0.723773,-3.50337 -6.664707,-2.764987 -5.3504,0.985615 0.113232,8.601719 0.226446,17.203439 0.339669,25.805159 -1.308154,5.570045 -9.571228,3.958878 -6.685266,-1.967507 1.127952,-7.815786 1.423836,-15.745898 0.943356,-23.625914 -3.367866,-4.898884 -6.383693,2.327805 -5.156322,5.62942 0.0394,5.754586 0.252845,13.369581 -5.722506,16.436557 -3.890244,2.437041 -8.086764,-3.403947 -11.959783,0.469918 -5.267561,-0.300834 -10.507071,0.853799 -15.00498,3.504525 -4.844183,-3.546902 1.860525,-10.448724 1.011823,-15.535764 0.892984,-7.300154 -0.02043,-14.782114 -2.47989,-21.708459 1.593404,-4.107392 8.692997,-0.899619 12.019352,-4.497601 3.969503,-1.143344 8.340512,3.442027 12.905271,1.37593 6.109457,1.567399 -1.458911,7.854893 0.04107,12.207229 0.6779,3.787719 -3.523334,4.06264 -6.203703,4.047202 -3.071218,0.197991 -6.142435,0.396025 -9.213655,0.594038 -2.514894,-0.06371 -2.411385,4.13044 0.129033,3.870016 z M 41.541742,35.76632 c -1.11147,-3.473456 -4.907597,-1.647984 -7.51078,-1.649289 -3.060028,-0.307976 -8.002787,1.792288 -4.896848,5.319689 2.848782,1.07548 5.901895,-0.194356 8.848934,-0.246675 1.974615,0.06479 4.207904,-1.06355 3.558694,-3.423725 z m -2.951815,21.260073 c -1.532967,-7.556816 -16.617885,-0.325851 -7.801892,3.628344 2.818896,0.864147 7.580454,-0.03592 7.801892,-3.628344 z"
       id="path9"
       style="stroke-width:2.14433" />
    <rect
       fill="#fefcfc"
       x="23.879425"
       y="37.626434"
       transform="matrix(0.99402977,-0.10910923,0.11036287,0.99389136,0,0)"
       width="13.461375"
       height="5.4739976"
       rx="2.4729364"
       id="rect9"
       style="stroke-width:2.14432" />
    <ellipse
       fill="#fefcfc"
       cx="29.243883"
       cy="59.505615"
       transform="matrix(0.99771081,-0.06762498,0.06840783,0.99765744,0,0)"
       rx="5.3546734"
       ry="3.5707738"
       id="ellipse9"
       style="stroke-width:2.14431" />
  </g>
</svg>
