<?xml version="1.0" encoding="UTF-8" standalone="no"?>
<!-- Created with Inkscape (http://www.inkscape.org/) -->

<svg
   width="100"
   height="100"
   id="svg2"
   sodipodi:version="0.32"
   inkscape:version="1.3 (0e150ed6c4, 2023-07-21)"
   version="1.0"
   sodipodi:docname="wn.svg"
   inkscape:output_extension="org.inkscape.output.svg.inkscape"
   xmlns:inkscape="http://www.inkscape.org/namespaces/inkscape"
   xmlns:sodipodi="http://sodipodi.sourceforge.net/DTD/sodipodi-0.dtd"
   xmlns:xlink="http://www.w3.org/1999/xlink"
   xmlns="http://www.w3.org/2000/svg"
   xmlns:svg="http://www.w3.org/2000/svg"
   xmlns:rdf="http://www.w3.org/1999/02/22-rdf-syntax-ns#"
   xmlns:cc="http://creativecommons.org/ns#"
   xmlns:dc="http://purl.org/dc/elements/1.1/">
  <defs
     id="defs4">
    <linearGradient
       id="linearGradient3214">
      <stop
         style="stop-color:#c6c600;stop-opacity:1;"
         offset="0"
         id="stop3216" />
      <stop
         style="stop-color:#ffff00;stop-opacity:1;"
         offset="1"
         id="stop3218" />
    </linearGradient>
    <linearGradient
       id="linearGradient3202">
      <stop
         style="stop-color:#ff0000;stop-opacity:1;"
         offset="0"
         id="stop3204" />
      <stop
         style="stop-color:#bd0000;stop-opacity:1;"
         offset="1"
         id="stop3206" />
    </linearGradient>
    <linearGradient
       id="linearGradient3194">
      <stop
         style="stop-color:#dedede;stop-opacity:1;"
         offset="0"
         id="stop3196" />
      <stop
         style="stop-color:#989898;stop-opacity:1;"
         offset="1"
         id="stop3198" />
    </linearGradient>
    <inkscape:perspective
       sodipodi:type="inkscape:persp3d"
       inkscape:vp_x="0 : 556.18109 : 1"
       inkscape:vp_y="0 : 1000 : 0"
       inkscape:vp_z="744.09448 : 556.18109 : 1"
       inkscape:persp3d-origin="372.04724 : 380.78739 : 1"
       id="perspective10" />
    <linearGradient
       inkscape:collect="always"
       xlink:href="#linearGradient3202"
       id="linearGradient3208"
       x1="42.241379"
       y1="32.741379"
       x2="115.51724"
       y2="62.051723"
       gradientUnits="userSpaceOnUse"
       gradientTransform="translate(-32.758621,-3.8793108)" />
  </defs>
  <sodipodi:namedview
     id="base"
     pagecolor="#ffffff"
     bordercolor="#666666"
     borderopacity="1.0"
     gridtolerance="10000"
     guidetolerance="10"
     objecttolerance="10"
     inkscape:pageopacity="0.0"
     inkscape:pageshadow="2"
     inkscape:zoom="2.32"
     inkscape:cx="1.0775862"
     inkscape:cy="74.784483"
     inkscape:document-units="px"
     inkscape:current-layer="layer1"
     showgrid="false"
     inkscape:window-width="1366"
     inkscape:window-height="715"
     inkscape:window-x="144"
     inkscape:window-y="892"
     inkscape:showpageshadow="2"
     inkscape:pagecheckerboard="0"
     inkscape:deskcolor="#d1d1d1"
     inkscape:window-maximized="1" />
  <metadata
     id="metadata7">
    <rdf:RDF>
      <cc:Work
         rdf:about="">
        <dc:format>image/svg+xml</dc:format>
        <dc:type
           rdf:resource="http://purl.org/dc/dcmitype/StillImage" />
      </cc:Work>
    </rdf:RDF>
  </metadata>
  <g
     inkscape:label="Layer 1"
     inkscape:groupmode="layer"
     id="layer1">
    <g
       stroke-width="2"
       fill="none"
       stroke-linecap="butt"
       id="g8"
       transform="matrix(2.1417407,0,0,2.1386199,-3.8842542,-3.6951334)">
      <path
         stroke="#e77f7f"
         vector-effect="non-scaling-stroke"
         d="M 44.01,24.48 C 44.227332,14.960285 36.174021,6.2482616 26.6666,5.7180158 12.81646,3.9783127 1.5966798,20.356364 8.2337659,32.645692 13.495366,44.906793 32.046036,46.996952 39.904069,36.214078 42.548097,32.916912 44.021435,28.706353 44.01,24.48 Z"
         id="path1" />
      <path
         stroke="#e77f7f"
         vector-effect="non-scaling-stroke"
         d="M 42.36,24.48 C 42.557932,15.810079 35.223513,7.8757494 26.564789,7.3928369 13.951005,5.8084314 3.7327785,20.724468 9.7773936,31.916767 14.569308,43.08336 31.46402,44.986937 38.620592,35.166615 41.028596,32.163776 42.370414,28.329081 42.36,24.48 Z"
         id="path2" />
      <path
         stroke="#e77f7f"
         vector-effect="non-scaling-stroke"
         d="m 24.76,27.23 c -1.948804,0.881182 -1.515655,5.357039 0.882852,3.36957 1.786852,-1.264323 -0.0049,-3.173805 -0.474727,-4.097695 2.634556,-0.0658 5.275004,0.0088 7.911875,-0.0019 2.454177,0.192753 1.743802,2.807457 0.727591,4.139001 -0.387302,0.905653 -1.002614,1.887876 -2.14519,1.597366 C 28.864934,32.220911 26.067467,32.205456 23.27,32.19 c -1.559888,1.464216 2.121979,2.068201 3.299844,2.580234 2.314935,0.523299 4.902556,1.292737 7.186751,0.303523 2.498894,-1.416505 2.970828,-4.525403 3.488405,-7.088757 0.647789,-1.123694 1.68293,-2.017802 2.246018,-3.17667 -1.563072,-1.136075 -4.111512,-0.653692 -6.085393,-0.940361 -1.53985,-0.389864 -6.217551,0.969967 -4.753125,-1.790469 1.558523,-0.237328 3.201501,0.07079 4.794231,0.05653 0.8001,-0.110849 2.518472,0.577446 2.347403,-0.727291 -0.275951,-1.322168 -1.822422,-0.81319 -2.795149,-0.939497 C 31.739324,20.444828 30.479662,20.422414 29.22,20.4 c -1.019931,-1.497202 2.529609,-1.274912 3.642578,-1.310078 1.236187,0.05187 4.925266,1.411444 3.606848,-1.002636 C 34.155095,17.168065 31.578145,17.3602 29.1875,17.53 28.424609,16.271805 30.01517,15.93321 30.996735,16.13407 32.88449,16.13938 34.772245,16.14469 36.66,16.15 39.343714,14.42586 35.08463,13.507281 33.553594,13.878594 27.366841,13.68616 21.165063,13.955275 15.02,14.7 c -1.923266,1.450679 2.231115,2.570732 1.573916,4.704246 0.101587,3.414014 -1.303845,6.646437 -2.371416,9.818254 -0.93421,0.921854 -2.457936,1.112075 -3.109359,2.333781 0.365867,3.387317 5.231268,1.218792 4.879359,-1.500031 -0.21904,-1.791644 1.32295,-2.420325 2.789411,-2.493721 C 20.664607,27.218353 22.547304,26.874176 24.43,26.53 c 0.385729,-0.09934 0.652086,0.465658 0.33,0.7 z"
         id="path3" />
      <path
         stroke="#e77f7f"
         vector-effect="non-scaling-stroke"
         d="m 31.76,31.25 c 0.401191,-0.798001 1.496987,-1.463089 1.208205,-2.427306 -0.960714,-1.22271 -4.84455,-2.804784 -4.576197,-0.153918 0.551271,1.052696 1.927877,3.45559 3.367992,2.581224 z"
         id="path4" />
      <path
         stroke="#e77f7f"
         vector-effect="non-scaling-stroke"
         d="m 19.0546,31.5572 c 2.52849,1.39642 3.686078,-4.460387 0.639582,-2.921517 -0.893629,0.552694 -1.615255,2.095462 -0.639582,2.921517 z"
         id="path5" />
      <path
         stroke="#e77f7f"
         vector-effect="non-scaling-stroke"
         d="m 25.1744,16.7344 c -0.50164,-1.306045 -2.062627,-0.53693 -3.128049,-0.617936 -1.447219,-0.407281 -3.642259,1.422127 -1.291666,2.017532 1.370668,-0.184911 2.839589,-0.01772 4.140122,-0.457608 0.292543,-0.225806 0.326651,-0.605034 0.279593,-0.941988 z"
         id="path6" />
      <path
         stroke="#e77f7f"
         vector-effect="non-scaling-stroke"
         d="m 24.583,19.5941 c -0.663576,-0.461497 -1.697712,0.160632 -2.514976,0.164824 -0.826471,0.193095 -1.724826,0.200347 -2.50343,0.517191 -0.31324,1.153362 0.682936,1.384241 1.570876,1.005866 1.160519,-0.226745 2.349844,-0.361551 3.492218,-0.646214 0.220065,-0.295338 -0.04444,-0.707011 -0.04469,-1.041667 z"
         id="path7" />
      <path
         stroke="#e77f7f"
         vector-effect="non-scaling-stroke"
         d="m 24.5015,23.2907 c -0.557541,-1.338654 -2.118288,-0.488592 -3.209242,-0.51365 -1.107766,-0.0415 -3.329496,0.447332 -2.140422,1.926302 1.359793,0.360221 2.789785,-0.181461 4.181872,-0.236138 0.664278,0.01604 1.356105,-0.409202 1.167792,-1.176514 z"
         id="path8" />
    </g>
    <path
       fill="#fefcfc"
       d="M 99.497571,49.727593 C 100.90739,83.801989 61.633259,110.00589 30.646197,95.665577 -1.4198894,83.926478 -10.634903,37.666975 14.491382,14.568189 35.794404,-8.5110488 77.021849,-2.961308 92.248316,23.892358 c 4.724753,7.733935 7.26189,16.775891 7.249255,25.835235 z M 90.373755,48.658284 C 90.839223,28.299242 73.59112,9.6675205 53.228689,8.533538 23.56528,4.8129603 -0.46457894,39.839384 13.750338,66.121591 c 11.268984,26.221833 50.999708,30.691891 67.829577,7.63143 5.662822,-7.051393 8.818331,-16.056182 8.79384,-25.094737 z"
       id="path9"
       style="stroke-width:2.14018" />
    <path
       fill="#cf0102"
       d="M 90.373755,48.658284 C 91.614581,77.165638 57.760749,98.406432 32.5774,84.921215 6.3172999,73.668652 1.8407215,33.995819 24.934842,17.19048 45.591253,-0.88346865 81.004586,10.425405 88.400963,36.220711 c 1.305527,4.008373 1.97396,8.222544 1.972792,12.437573 z m -3.533873,0 C 87.263802,30.11662 71.555378,13.148103 53.010636,12.115342 25.995181,8.7268906 4.1103909,40.626632 17.05639,64.562708 27.319426,88.4438 63.503518,92.514835 78.831041,71.512902 c 5.15732,-6.421934 8.031145,-14.622899 8.008841,-22.854618 z"
       id="path10"
       style="stroke-width:2.14018" />
    <path
       fill="#fefcfc"
       d="M 86.839882,48.658284 C 87.969945,74.620894 57.138135,93.965567 34.20282,81.684157 10.286873,71.436061 6.2099053,35.304697 27.242488,19.999514 46.054968,3.5389627 78.307069,13.838342 85.043196,37.330975 c 1.188985,3.65056 1.797752,7.48855 1.796686,11.327309 z m -37.694636,5.881204 c -4.687399,2.146875 -2.551231,12.159016 2.358926,6.674163 3.402042,-2.820284 -0.86147,-6.325034 -1.484828,-8.231357 5.642536,-0.140721 11.297691,0.01925 16.945185,-0.0042 5.072994,0.339271 3.890065,5.835074 1.693803,8.605143 -0.922613,1.802237 -1.936188,4.283913 -4.448251,3.664312 -6.085343,-0.03358 -12.170686,-0.06715 -18.256029,-0.100731 -3.340874,3.131411 4.54473,4.423095 7.067411,5.518132 4.957991,1.11914 10.500004,2.76468 15.392157,0.649135 5.351983,-3.029376 6.362743,-9.678131 7.47126,-15.160164 1.387395,-2.403145 3.604398,-4.315307 4.810388,-6.793689 -3.347695,-2.429622 -8.805793,-1.397995 -13.033335,-2.011073 -3.297959,-0.833762 -13.316382,2.074398 -10.17996,-3.829135 3.337951,-0.507558 6.856784,0.151415 10.267998,0.120833 1.713607,-0.237066 5.393915,1.234924 5.027529,-1.555418 -0.591015,-2.827599 -3.903155,-1.739084 -5.986484,-2.009213 -2.697868,-0.04791 -5.395737,-0.0958 -8.093606,-0.143716 -2.184427,-3.201941 5.417767,-2.726547 7.801458,-2.801762 2.647592,0.110995 10.548642,3.018555 7.724932,-2.144245 -4.956697,-1.965883 -10.475855,-1.554969 -15.595997,-1.191832 -1.633914,-2.69079 1.772654,-3.414927 3.874913,-2.985364 4.043081,0.01073 8.086163,0.02268 12.129245,0.034 5.747819,-3.687281 -3.374034,-5.651774 -6.653116,-4.857684 -13.250422,-0.411535 -26.533021,0.164033 -39.694154,1.756684 -4.119137,3.102454 4.77847,5.497814 3.370921,10.060604 0.217572,7.301269 -2.792498,14.214188 -5.078958,20.997504 -2.000836,1.971488 -5.264263,2.378295 -6.659442,4.991069 1.173905,7.652154 11.713519,2.037442 10.558831,-4.01344 -0.324006,-3.756294 3.37034,-4.210516 6.142781,-4.578251 3.939882,-0.719197 7.879766,-1.438415 11.819648,-2.157612 0.826131,-0.212365 1.396599,0.99587 0.706774,1.497034 z m 14.992185,8.597252 c 0.859247,-1.706618 3.206158,-3.128993 2.587662,-5.191094 -2.010533,-2.60317 -10.467441,-6.021198 -9.801028,-0.329154 1.088622,2.151986 4.211665,7.442482 7.213366,5.520248 z m -27.211672,0.656984 c 5.38501,2.924392 7.946875,-9.43234 1.369818,-6.24802 -1.913921,1.182015 -3.459456,4.481414 -1.369818,6.24802 z"
       id="path11"
       style="stroke-width:2.14018" />
    <path
       fill="#cf0102"
       d="m 48.438472,53.042454 c -5.232986,0.955257 -10.465974,1.910493 -15.69896,2.865751 -3.829158,2.87531 -1.650901,12.240733 -9.100892,11.569356 -5.836864,-0.23574 -3.196314,-6.15437 0.707635,-7.151438 4.273724,-2.150767 3.779074,-8.061357 5.70413,-11.937071 1.369019,-5.207411 3.396185,-12.04892 -0.98151,-16.390404 -4.985826,-2.455457 0.07839,-5.327431 3.432681,-4.730927 13.962243,-1.396861 28.068868,-1.901083 42.067491,-0.901878 4.697696,2.256523 -0.09751,5.533958 -3.317301,4.46824 -3.949188,-0.01072 -7.898374,-0.02224 -11.847562,-0.03336 -3.439607,2.473122 1.191119,4.094452 3.636944,2.694661 3.45231,0.440791 12.286391,-1.104747 11.667132,4.090111 -4.746331,1.103848 -10.988411,-1.954143 -16.246442,0.40099 -1.683328,2.907498 3.170074,1.731748 5.023492,2.031219 2.778394,0.211937 5.694379,-0.251267 8.373097,0.460273 2.545198,2.341897 -0.441087,4.02422 -2.868137,3.212764 -3.688612,-0.09881 -7.382763,-0.393891 -11.067903,-0.369725 -4.408244,4.73837 4.498725,4.028284 7.52663,3.958672 4.993642,0.27477 10.185695,0.135802 14.993507,1.441279 0.437081,1.991227 -1.972734,3.38734 -2.880351,5.076893 -2.885748,2.965003 -2.077154,7.517591 -3.904224,11.05136 -1.527161,4.685097 -6.184918,8.357813 -11.271705,7.422509 -5.916417,-0.359374 -11.761142,-1.92957 -17.031859,-4.643885 -2.067257,-3.337723 3.102809,-2.342559 5.106591,-2.455927 5.160783,-0.01924 10.332274,0.154195 15.486246,0.01072 2.158926,-1.324576 2.745266,-4.199907 4.162488,-6.24122 2.57161,-4.38877 -2.648376,-6.654059 -6.243679,-5.975925 -4.614627,0.02759 -9.237007,-0.129386 -13.846667,0.01711 1.428192,2.081049 4.709135,6.733254 0.475199,9.298977 -7.020279,2.283597 -2.814909,-6.793177 -1.35237,-9.056521 z m 1.594312,-20.949066 c -1.074383,-2.793144 -4.417612,-1.148289 -6.69947,-1.321538 -3.099569,-0.871018 -7.800775,3.041396 -2.766414,4.314751 2.935616,-0.395474 6.081663,-0.03786 8.867068,-0.978653 0.626551,-0.482922 0.699602,-1.293952 0.598816,-2.01456 z M 48.766158,38.2092 c -1.421207,-0.986973 -3.636059,0.343527 -5.386427,0.352487 -1.770086,0.412968 -3.694129,0.428473 -5.361698,1.106095 -0.670878,2.466599 1.462672,2.960363 3.36441,2.151152 2.48553,-0.484911 5.032756,-0.773219 7.479425,-1.381998 0.471322,-0.63162 -0.09517,-1.512025 -0.09571,-2.227736 z m -0.174552,7.905622 c -1.194108,-2.862863 -4.536824,-1.044908 -6.873364,-1.098501 -2.372548,-0.08876 -7.130917,0.956669 -4.584229,4.119623 2.912324,0.770374 5.974996,-0.388074 8.956485,-0.505013 1.422712,0.03421 2.904425,-0.875124 2.501108,-2.516109 z"
       id="path12"
       style="stroke-width:2.14018" />
    <rect
       fill="#fefcfc"
       x="35.869804"
       y="33.787071"
       transform="matrix(0.99744821,-0.0713938,0.07160124,0.99743334,0,0)"
       width="11.736651"
       height="4.1061807"
       rx="1.7990488"
       id="rect12"
       style="stroke-width:2.14018" />
    <rect
       fill="#fefcfc"
       x="30.451199"
       y="45.436844"
       transform="matrix(0.98515173,-0.17168598,0.17217255,0.98506681,0,0)"
       width="11.008074"
       height="2.8658745"
       rx="0.57824516"
       id="rect13"
       style="stroke-width:2.14018" />
    <rect
       fill="#fefcfc"
       x="30.48749"
       y="49.63306"
       transform="matrix(0.99298578,-0.11823386,0.11857432,0.99294518,0,0)"
       width="12.293341"
       height="4.1062341"
       rx="1.9061104"
       id="rect14"
       style="stroke-width:2.14018" />
    <path
       fill="#cf0102"
       d="m 64.137431,63.13674 c -5.367434,2.850652 -11.742982,-12.410903 -1.86068,-7.973203 4.819641,0.425971 5.475129,4.477971 2.57825,6.977355 -0.23919,0.331956 -0.47838,0.663892 -0.71757,0.995848 z"
       id="path14"
       style="stroke-width:2.14018" />
    <ellipse
       fill="#cf0102"
       cx="27.185909"
       cy="-66.859818"
       transform="matrix(-0.57413766,0.81875878,-0.81954472,-0.57301523,0,0)"
       rx="3.9369509"
       ry="2.8471503"
       id="ellipse14"
       style="stroke-width:2.14018" />
  </g>
</svg>
