<?xml version="1.0" encoding="UTF-8" standalone="no"?>
<!-- Created with Inkscape (http://www.inkscape.org/) -->

<svg
   width="100"
   height="100"
   id="svg2"
   sodipodi:version="0.32"
   inkscape:version="1.3 (0e150ed6c4, 2023-07-21)"
   version="1.0"
   sodipodi:docname="wp.svg"
   inkscape:output_extension="org.inkscape.output.svg.inkscape"
   xmlns:inkscape="http://www.inkscape.org/namespaces/inkscape"
   xmlns:sodipodi="http://sodipodi.sourceforge.net/DTD/sodipodi-0.dtd"
   xmlns:xlink="http://www.w3.org/1999/xlink"
   xmlns="http://www.w3.org/2000/svg"
   xmlns:svg="http://www.w3.org/2000/svg"
   xmlns:rdf="http://www.w3.org/1999/02/22-rdf-syntax-ns#"
   xmlns:cc="http://creativecommons.org/ns#"
   xmlns:dc="http://purl.org/dc/elements/1.1/">
  <defs
     id="defs4">
    <linearGradient
       id="linearGradient3214">
      <stop
         style="stop-color:#c6c600;stop-opacity:1;"
         offset="0"
         id="stop3216" />
      <stop
         style="stop-color:#ffff00;stop-opacity:1;"
         offset="1"
         id="stop3218" />
    </linearGradient>
    <linearGradient
       id="linearGradient3202">
      <stop
         style="stop-color:#ff0000;stop-opacity:1;"
         offset="0"
         id="stop3204" />
      <stop
         style="stop-color:#bd0000;stop-opacity:1;"
         offset="1"
         id="stop3206" />
    </linearGradient>
    <linearGradient
       id="linearGradient3194">
      <stop
         style="stop-color:#dedede;stop-opacity:1;"
         offset="0"
         id="stop3196" />
      <stop
         style="stop-color:#989898;stop-opacity:1;"
         offset="1"
         id="stop3198" />
    </linearGradient>
    <inkscape:perspective
       sodipodi:type="inkscape:persp3d"
       inkscape:vp_x="0 : 556.18109 : 1"
       inkscape:vp_y="0 : 1000 : 0"
       inkscape:vp_z="744.09448 : 556.18109 : 1"
       inkscape:persp3d-origin="372.04724 : 380.78739 : 1"
       id="perspective10" />
    <linearGradient
       inkscape:collect="always"
       xlink:href="#linearGradient3202"
       id="linearGradient3208"
       x1="42.241379"
       y1="32.741379"
       x2="115.51724"
       y2="62.051723"
       gradientUnits="userSpaceOnUse"
       gradientTransform="translate(-32.758621,-3.8793108)" />
  </defs>
  <sodipodi:namedview
     id="base"
     pagecolor="#ffffff"
     bordercolor="#666666"
     borderopacity="1.0"
     gridtolerance="10000"
     guidetolerance="10"
     objecttolerance="10"
     inkscape:pageopacity="0.0"
     inkscape:pageshadow="2"
     inkscape:zoom="3.2809755"
     inkscape:cx="30.631134"
     inkscape:cy="65.07211"
     inkscape:document-units="px"
     inkscape:current-layer="layer1"
     showgrid="false"
     inkscape:window-width="1366"
     inkscape:window-height="715"
     inkscape:window-x="144"
     inkscape:window-y="892"
     inkscape:showpageshadow="2"
     inkscape:pagecheckerboard="0"
     inkscape:deskcolor="#d1d1d1"
     inkscape:window-maximized="1" />
  <metadata
     id="metadata7">
    <rdf:RDF>
      <cc:Work
         rdf:about="">
        <dc:format>image/svg+xml</dc:format>
        <dc:type
           rdf:resource="http://purl.org/dc/dcmitype/StillImage" />
      </cc:Work>
    </rdf:RDF>
  </metadata>
  <g
     inkscape:label="Layer 1"
     inkscape:groupmode="layer"
     id="layer1">
    <g
       stroke-width="2"
       fill="none"
       stroke-linecap="butt"
       id="g6"
       transform="matrix(2.1415893,0,0,2.1384689,-3.5063758,-3.2244363)">
      <path
         stroke="#e67f80"
         vector-effect="non-scaling-stroke"
         d="M 44.36,24.46 C 44.581326,14.823618 36.405848,6.0125485 26.779872,5.5131279 12.820142,3.8143547 1.5573582,20.322975 8.2415915,32.703791 13.553515,45.082161 32.281609,47.19231 40.214798,36.306306 42.884115,32.977605 44.371544,28.726775 44.36,24.46 Z"
         id="path1" />
      <path
         stroke="#e67f80"
         vector-effect="non-scaling-stroke"
         d="M 42.69,24.45 C 42.889779,15.699146 35.486895,7.6907506 26.747342,7.2033301 14.015811,5.6041344 3.7021977,20.65941 9.8032386,31.956189 14.639885,43.22702 31.692307,45.148367 38.915685,35.236374 41.346168,32.205503 42.700511,28.335011 42.69,24.45 Z"
         id="path2" />
      <path
         stroke="#e67f80"
         vector-effect="non-scaling-stroke"
         d="m 19.77,19.23 c -0.07082,-1.276019 -0.05078,-2.953563 1.724375,-2.822256 3.732948,-0.810104 7.607914,-0.552295 11.308125,0.292412 1.407209,0.634137 5.176319,-0.540421 2.473672,-1.800332 -3.556516,-0.77501 -7.221846,-1.752741 -10.867774,-0.913066 -2.392306,0.0053 -5.021715,1.494673 -7.258956,0.441207 -2.404692,-1.669326 -2.771683,1.800999 -1.278661,3.215629 1.12106,2.161411 2.426514,4.856581 1.196719,7.238906 -1.910212,1.308206 -4.372925,1.284152 -6.5125,1.6625 -0.07283,0.990814 0.525797,1.943337 0.755,2.915 1.439267,0.792904 3.260721,-0.99424 4.896094,-1.131563 5.487061,-1.626085 11.7305,-2.516097 17.043518,0.169122 2.034255,1.159692 4.892133,1.200859 6.312925,-0.946614 1.40224,-1.072959 1.094398,-2.597113 -0.697586,-2.07697 C 37.209967,25.529316 35.554984,25.584658 33.9,25.64 32.424328,24.436521 29.818805,25.270161 28.74,23.98 28.691921,20.342178 32.887135,22.653116 34.9,21.59 37.000139,19.245823 32.283457,19.13292 30.739785,18.876709 27.181593,18.456315 23.574677,18.874999 20.1225,19.76625 19.848476,19.773628 19.739514,19.447536 19.77,19.23 Z"
         id="path3" />
      <path
         stroke="#e67f80"
         vector-effect="non-scaling-stroke"
         d="m 14.19,32.31 c 0.484056,0.912721 0.642106,2.046688 1.404828,2.770291 C 18.188818,34.30398 22.050716,32.815935 22.84,30.01 c -2.650462,-1.217161 -6.324316,0.337395 -8.654289,1.747285 z"
         id="path4" />
      <path
         stroke="#e67f80"
         vector-effect="non-scaling-stroke"
         d="m 33.42,30.82 c -2.136667,-0.463333 -4.273333,-0.926667 -6.41,-1.39 -2.157352,1.180528 0.94739,3.717656 2.224238,4.783672 1.574275,1.346708 4.538396,1.67276 5.585762,-0.480547 0.556032,-1.15003 -0.109108,-2.673741 -1.4,-2.913125 z"
         id="path5" />
      <path
         stroke="#e67f80"
         vector-effect="non-scaling-stroke"
         d="m 26.3332,22.3113 c -0.635213,-1.780643 -2.51754,-0.781888 -3.841781,-0.698359 -1.507553,-0.07104 -3.83929,1.208109 -2.196277,2.787907 1.517193,0.468746 3.074574,-0.242936 4.611929,-0.366423 0.908196,-0.01737 1.686593,-0.775767 1.426129,-1.723125 z"
         id="path6" />
    </g>
    <path
       fill="#fefcfc"
       d="M 99.910969,50.237287 C 101.32129,84.323926 62.03305,110.53724 31.034852,96.191787 -1.0427577,84.448449 -10.261081,38.172345 14.874233,15.065246 36.18491,-8.0222839 77.427171,-2.4705618 92.659108,24.392779 c 4.726451,7.736702 7.264502,16.781912 7.251861,25.844508 z M 91.494523,49.082514 C 91.968512,28.475415 74.459997,9.6332151 53.84511,8.5652209 23.949102,4.9324328 -0.17115527,40.235604 14.143728,66.711603 c 11.375958,26.47076 51.483843,30.983249 68.473474,7.703877 5.716581,-7.118343 8.902043,-16.208589 8.877321,-25.332966 z"
       id="path7"
       style="stroke-width:2.14002" />
    <path
       fill="#cd0204"
       d="M 91.494523,49.082514 C 92.747129,77.860489 58.571927,99.302917 33.149513,85.689702 6.6401284,74.330305 2.1210568,34.280866 25.434405,17.315985 45.574839,-0.22615316 79.925992,9.6105474 88.681762,34.238374 c 1.855604,4.714726 2.815095,9.778385 2.812761,14.84414 z m -3.576454,-0.02139 C 88.345913,30.347708 72.491976,13.221994 53.775443,12.179661 26.509734,8.7598216 4.4222111,40.95507 17.488135,65.112884 27.846244,89.215203 64.365528,93.32395 79.835037,72.127446 85.040133,65.646025 87.940579,57.369103 87.918069,49.061129 Z"
       id="path8"
       style="stroke-width:2.14002" />
    <path
       fill="#fefcfc"
       d="M 87.918069,49.061129 C 89.0586,75.264238 57.941177,94.788117 34.793401,82.392931 10.655911,72.049927 6.5411749,35.583836 27.768592,20.136882 46.755343,3.5238446 79.306212,13.918621 86.104738,37.628896 c 1.199999,3.684367 1.814404,7.557905 1.813331,11.432233 z M 38.832843,37.898321 c -0.151667,-2.728728 -0.108753,-6.316096 3.692904,-6.035315 7.99444,-1.732373 16.293026,-1.181056 24.217359,0.625331 3.013663,1.356067 11.085548,-1.155692 5.297589,-3.849971 -7.616597,-1.657335 -15.466229,-3.74818 -23.274308,-1.95255 -5.123337,0.01063 -10.754452,3.196305 -15.545703,0.943492 -5.149862,-3.569789 -5.935806,3.851383 -2.738366,6.876524 2.400849,4.622109 5.196596,10.385646 2.56288,15.480186 -4.090889,2.797565 -9.365009,2.746114 -13.947099,3.555204 -0.155972,2.118816 1.12604,4.155772 1.616899,6.233637 3.278836,1.513159 7.352413,-2.196892 11.061531,-2.592402 11.588789,-3.352521 24.738282,-5.122553 35.924107,0.534253 4.356538,2.479961 10.476939,2.568003 13.519691,-2.024317 3.003023,-2.29447 2.343752,-5.553839 -1.493942,-4.441536 -3.544296,0.118474 -7.08859,0.236708 -10.632886,0.35505 -3.160283,-2.573605 -8.740243,-0.790891 -11.050601,-3.549859 -0.102968,-7.779364 8.88146,-2.83749 13.192191,-5.11094 4.497635,-5.012956 -5.603561,-5.254389 -8.909472,-5.802287 -7.620186,-0.899012 -15.344718,-0.0043 -22.737864,1.902254 -0.586846,0.01497 -0.820198,-0.681551 -0.75491,-1.146754 z M 26.882776,65.869495 c 1.036648,1.951823 1.375127,4.376783 3.008564,5.924179 C 35.446601,70.13356 43.7172,66.951411 45.407523,60.951017 39.731321,58.348158 31.863436,61.672536 26.87359,64.687521 Z m 41.182761,-3.186319 c -4.575863,-0.990816 -9.151724,-1.981655 -13.727588,-2.972472 -4.620162,2.524527 2.02892,7.950102 4.763404,10.229731 3.371452,2.879896 9.719381,3.577144 11.962408,-1.027621 1.182534,-2.483553 -0.218739,-5.696346 -2.998224,-6.229638 z"
       id="path9"
       style="stroke-width:2.14002" />
    <path
       fill="#cd0204"
       d="m 40.203461,38.967556 c 10.021088,-2.811039 20.773704,-2.867259 30.838884,-0.235231 5.057327,4.535691 -5.098607,6.106247 -8.352198,4.512169 -4.660033,-1.394068 -6.927236,8.075008 -0.927576,6.186868 3.729866,0.245305 6.878271,2.882378 10.710483,2.061698 3.55842,0.02972 7.205985,-0.543599 10.706286,-0.12082 -0.09016,4.082316 -5.211482,8.547675 -9.686647,8.087562 -6.003702,-0.97557 -11.170836,-5.002862 -17.401677,-5.137373 -11.579222,-1.133452 -23.113348,1.937539 -33.791241,6.179577 -2.423869,-0.163593 -2.111881,-3.49954 -3.070652,-5.274555 -0.284598,-4.167832 7.438718,-1.1626 10.188758,-3.549302 5.301366,-0.557734 5.328678,-6.705703 3.954234,-10.595964 -1.206189,-3.893703 -3.447709,-7.339417 -5.118723,-11.032041 -0.516407,-6.243281 5.039449,-1.871075 7.859633,-1.454158 9.302777,-1.151673 18.773266,-4.030737 28.12541,-1.619099 3.109119,1.425823 10.763958,0.168084 9.447335,4.962745 -5.645778,2.095699 -11.561076,-1.025589 -17.354804,-1.029909 -5.402525,-0.355306 -10.854399,0.166159 -16.10609,1.471353 -1.770255,1.211464 -1.907586,5.190406 -0.637123,6.664003 z m 12.685062,5.520029 c -1.360366,-3.807842 -5.391538,-1.672047 -8.227518,-1.49342 -3.22856,-0.151831 -8.222182,2.583505 -4.703523,5.961858 2.970868,1.055249 6.028435,-0.432291 9.042607,-0.647164 2.135983,-0.107558 4.564822,-1.189674 3.888434,-3.821274 z"
       id="path10"
       style="stroke-width:2.14002" />
    <rect
       fill="#fefcfc"
       x="30.686443"
       y="49.637852"
       transform="matrix(0.98689324,-0.16137451,0.16183345,0.98681809,0,0)"
       width="14.305273"
       height="5.9451704"
       rx="2.8053751"
       id="rect10"
       style="stroke-width:2.14003" />
    <path
       fill="#cd0204"
       d="m 26.882776,65.869495 c 0.1428,-4.579917 7.833672,-3.431215 10.662036,-5.324103 2.133967,-1.560142 10.983987,-0.964322 6.84877,3.122763 -4.085707,3.576055 -9.121302,7.177664 -14.502242,8.125519 -1.612805,-1.532106 -1.985785,-3.984032 -3.008564,-5.924179 z"
       id="path11"
       style="stroke-width:2.14002" />
    <path
       fill="#cd0204"
       d="m 68.065537,62.683176 c 6.202496,1.540746 2.815361,10.453521 -2.739813,9.601106 -5.822368,-0.449507 -10.343505,-5.308001 -12.915205,-10.199877 0.01713,-3.978665 4.281701,-1.584371 6.609003,-1.35998 3.015338,0.652916 6.030676,1.305834 9.046015,1.958751 z"
       id="path12"
       style="stroke-width:2.14002" />
  </g>
</svg>
