<?xml version="1.0" encoding="UTF-8" standalone="no"?>
<!-- Created with Inkscape (http://www.inkscape.org/) -->

<svg
   width="100"
   height="100"
   id="svg2"
   sodipodi:version="0.32"
   inkscape:version="1.3 (0e150ed6c4, 2023-07-21)"
   version="1.0"
   sodipodi:docname="wr.svg"
   inkscape:output_extension="org.inkscape.output.svg.inkscape"
   xmlns:inkscape="http://www.inkscape.org/namespaces/inkscape"
   xmlns:sodipodi="http://sodipodi.sourceforge.net/DTD/sodipodi-0.dtd"
   xmlns:xlink="http://www.w3.org/1999/xlink"
   xmlns="http://www.w3.org/2000/svg"
   xmlns:svg="http://www.w3.org/2000/svg"
   xmlns:rdf="http://www.w3.org/1999/02/22-rdf-syntax-ns#"
   xmlns:cc="http://creativecommons.org/ns#"
   xmlns:dc="http://purl.org/dc/elements/1.1/">
  <defs
     id="defs4">
    <linearGradient
       id="linearGradient3214">
      <stop
         style="stop-color:#c6c600;stop-opacity:1;"
         offset="0"
         id="stop3216" />
      <stop
         style="stop-color:#ffff00;stop-opacity:1;"
         offset="1"
         id="stop3218" />
    </linearGradient>
    <linearGradient
       id="linearGradient3202">
      <stop
         style="stop-color:#ff0000;stop-opacity:1;"
         offset="0"
         id="stop3204" />
      <stop
         style="stop-color:#bd0000;stop-opacity:1;"
         offset="1"
         id="stop3206" />
    </linearGradient>
    <linearGradient
       id="linearGradient3194">
      <stop
         style="stop-color:#dedede;stop-opacity:1;"
         offset="0"
         id="stop3196" />
      <stop
         style="stop-color:#989898;stop-opacity:1;"
         offset="1"
         id="stop3198" />
    </linearGradient>
    <inkscape:perspective
       sodipodi:type="inkscape:persp3d"
       inkscape:vp_x="0 : 556.18109 : 1"
       inkscape:vp_y="0 : 1000 : 0"
       inkscape:vp_z="744.09448 : 556.18109 : 1"
       inkscape:persp3d-origin="372.04724 : 380.78739 : 1"
       id="perspective10" />
    <linearGradient
       inkscape:collect="always"
       xlink:href="#linearGradient3202"
       id="linearGradient3208"
       x1="42.241379"
       y1="32.741379"
       x2="115.51724"
       y2="62.051723"
       gradientUnits="userSpaceOnUse"
       gradientTransform="translate(-32.758621,-3.8793108)" />
  </defs>
  <sodipodi:namedview
     id="base"
     pagecolor="#ffffff"
     bordercolor="#666666"
     borderopacity="1.0"
     gridtolerance="10000"
     guidetolerance="10"
     objecttolerance="10"
     inkscape:pageopacity="0.0"
     inkscape:pageshadow="2"
     inkscape:zoom="3.2809755"
     inkscape:cx="23.925811"
     inkscape:cy="67.51041"
     inkscape:document-units="px"
     inkscape:current-layer="layer1"
     showgrid="false"
     inkscape:window-width="1366"
     inkscape:window-height="715"
     inkscape:window-x="144"
     inkscape:window-y="892"
     inkscape:showpageshadow="2"
     inkscape:pagecheckerboard="0"
     inkscape:deskcolor="#d1d1d1"
     inkscape:window-maximized="1" />
  <metadata
     id="metadata7">
    <rdf:RDF>
      <cc:Work
         rdf:about="">
        <dc:format>image/svg+xml</dc:format>
        <dc:type
           rdf:resource="http://purl.org/dc/dcmitype/StillImage" />
      </cc:Work>
    </rdf:RDF>
  </metadata>
  <g
     inkscape:label="Layer 1"
     inkscape:groupmode="layer"
     id="layer1">
    <g
       stroke-width="2"
       fill="none"
       stroke-linecap="butt"
       id="g7"
       transform="matrix(2.1410987,0,0,2.1314395,-3.944997,-3.4161106)">
      <path
         stroke="#e67f80"
         vector-effect="non-scaling-stroke"
         d="M 44.03,24.42 C 44.24791,14.874994 36.173203,6.1398245 26.640523,5.6081699 12.753587,3.8638448 1.5039983,20.285409 8.1587175,32.607386 13.434296,44.901062 32.034251,46.996774 39.91316,36.185253 42.564213,32.879326 44.041465,28.657582 44.03,24.42 Z"
         id="path1" />
      <path
         stroke="#e67f80"
         vector-effect="non-scaling-stroke"
         d="M 42.36,24.42 C 42.558394,15.729846 35.206858,7.7769997 26.527927,7.2929602 13.884707,5.7048571 3.6426333,20.655703 9.7013548,31.874123 14.504452,43.066775 31.438592,44.974794 38.611865,35.131555 41.025489,32.121708 42.370438,28.278063 42.36,24.42 Z"
         id="path2" />
      <path
         stroke="#e67f80"
         vector-effect="non-scaling-stroke"
         d="m 23.11,17.51 c -2.51,0.263333 -5.02,0.526667 -7.53,0.79 -2.20343,1.044412 0.837845,3.788064 -0.877224,5.543894 -1.162946,1.414528 -2.439954,4.444199 0.452156,3.020735 C 17.702125,26.115701 20.366529,25.776478 23.02,25.84 c 2.80024,1.436986 -0.915725,2.676283 -2.473125,2.525625 -2.91043,0.475897 -5.879839,0.700906 -8.756875,1.3075 -1.995019,0.985809 -0.710112,3.680668 1.214738,2.614202 C 15.886492,31.604885 18.768246,30.922442 21.65,30.24 c 2.155343,-0.194561 1.952676,2.143062 2.316317,3.548911 -0.133832,1.498452 1.567528,4.01703 2.413093,1.439467 0.231758,-1.438833 0.190687,-2.968226 0.60059,-4.348378 2.340418,-0.345213 4.821202,0.317122 6.995,1.239375 1.67012,1.393426 3.639559,1.3824 4.67,-0.769375 0.946142,-1.070384 2.169909,-3.65323 -0.424912,-2.88499 C 34.532637,28.540914 30.838601,28.238611 27.21,27.58 c -2.227792,-1.73825 0.935362,-2.319656 2.325384,-1.99284 1.348114,0.09885 2.84147,-0.210144 3.945241,0.77909 1.68617,0.928599 3.031619,-0.573591 2.609375,-2.204235 -0.04294,-1.419789 -0.07086,-2.882549 0.7227,-4.124788 0.737005,-0.879079 0.534392,-2.168179 -0.817416,-1.966787 C 33.125921,17.698686 30.211006,17.498671 27.37,17.02 27.38712,15.106545 30.389325,16.507518 31.72793,16.183086 33.629433,16.141874 35.608612,16.442154 37.46,16.05 38.651248,13.697222 34.497122,13.992257 32.977266,13.792852 30.980207,13.467922 28.848117,14.357293 26.98,13.68 c -0.681716,-1.836026 -2.2135,-1.071783 -3.52373,-0.228806 -3.075489,1.370701 -6.527113,0.742607 -9.734239,1.304431 -1.757514,0.631681 -1.287003,2.995428 0.539679,2.200052 2.999853,-0.192365 5.999658,-0.4716 8.99954,-0.609427 0.44995,0.175164 0.234787,1.024194 -0.15125,1.16375 z"
         id="path3" />
      <path
         stroke="#e67f80"
         vector-effect="non-scaling-stroke"
         d="m 27.12,19.36 c -0.245803,1.015715 0.168896,1.751374 1.282891,1.46996 1.580701,-0.127689 4.194762,0.70618 4.866082,-0.694763 C 32.961064,18.544012 30.054639,19.446496 28.710332,19.13503 28.21886,19.240975 27.397167,18.846996 27.12,19.36 Z"
         id="path4" />
      <path
         stroke="#e67f80"
         vector-effect="non-scaling-stroke"
         d="m 18.26,20.29 c -0.269741,2.539823 2.93389,0.583313 4.319677,0.612694 2.472811,-0.60254 -1.079889,-2.316951 -2.162614,-1.063255 C 19.743179,19.866025 19.081842,19.979764 18.42,20.09 l -0.121783,0.06657 z"
         id="path5" />
      <path
         stroke="#e67f80"
         vector-effect="non-scaling-stroke"
         d="m 26.84,23.72 c 1.925052,0.0373 3.877995,0.255414 5.785624,0.179772 0.492175,-1.39752 -1.345473,-1.557673 -2.330809,-1.495148 -1.10253,0.0323 -2.252228,-0.309529 -3.301927,0.141807 C 26.820203,22.666063 26.32153,23.585823 26.84,23.72 Z"
         id="path6" />
      <path
         stroke="#e67f80"
         vector-effect="non-scaling-stroke"
         d="m 23.4465,23.0783 c -0.581718,-1.038431 -1.955647,-0.249426 -2.932812,-0.29991 -0.865755,0.257339 -2.294419,-0.177854 -2.549488,0.94391 0.446729,1.148661 1.867927,0.344968 2.811376,0.394668 0.837084,-0.189886 1.819598,-0.0099 2.546874,-0.487958 l 0.113547,-0.222393 0.0198,-0.248917 v 0 z"
         id="path7" />
    </g>
    <path
       fill="#fefcfc"
       d="M 99.512891,49.848562 C 100.9235,83.837776 61.627368,109.97616 30.622949,95.671698 -1.461102,83.961932 -10.681277,37.8181 14.459084,14.777068 35.774039,-8.2444627 77.02458,-2.7086113 92.259577,24.077925 c 4.727398,7.714574 7.265957,16.733952 7.253314,25.770637 z M 90.327577,48.633643 C 90.794145,28.289031 73.505399,9.6705445 53.094992,8.5373648 23.361692,4.8194415 -0.72478822,39.821013 13.523621,66.084569 c 11.295535,26.203214 51.119874,30.670092 67.989396,7.625992 5.676166,-7.046369 8.839108,-16.044773 8.81456,-25.076918 z"
       id="path8"
       style="stroke-width:2.13627" />
    <path
       fill="#ce0103"
       d="M 90.327577,48.633643 C 91.571329,77.120778 57.63773,98.346484 32.395045,84.870842 6.0730714,73.626263 1.5859446,33.981594 24.734479,17.188174 c 20.70508,-18.06112802 56.201854,-6.760265 63.615657,19.016725 1.308603,4.005529 1.978612,8.216699 1.977441,12.428744 z m -3.575634,0 C 87.176723,30.111113 71.43636,13.160095 52.853912,12.128393 25.783531,8.743447 3.8542399,40.610264 16.826561,64.521648 c 10.283905,23.856478 46.54157,27.923286 61.900255,6.943015 5.167807,-6.415292 8.047475,-14.6078 8.025127,-22.83102 z"
       id="path9"
       style="stroke-width:2.13627" />
    <path
       fill="#fefcfc"
       d="M 86.751943,48.633643 C 87.884303,74.569467 56.989804,93.894185 34.007854,81.625449 10.043282,71.387932 5.9580259,35.293836 27.033372,20.004445 45.884103,3.5608651 78.20178,13.849615 84.951602,37.318022 c 1.191404,3.646786 1.801406,7.480819 1.800341,11.315621 z M 45.535794,33.905395 c -5.374159,0.561272 -10.748316,1.122566 -16.122474,1.683838 -4.717761,2.226096 1.793909,8.07402 -1.878223,11.816466 -2.489981,3.014985 -5.224182,9.472543 0.968111,6.438524 5.453791,-1.596299 11.158544,-2.319326 16.839887,-2.183936 5.99559,3.062857 -1.960658,5.704329 -5.295205,5.383226 -6.231518,1.014331 -12.589315,1.493927 -18.749334,2.786858 -4.271532,2.101173 -1.52042,7.845104 2.600875,5.57201 6.170119,-1.454601 12.340239,-2.909182 18.510358,-4.363761 4.614802,-0.414693 4.180873,4.567803 4.959463,7.564287 -0.286547,3.193856 3.356232,8.562056 5.166671,3.068143 0.496216,-3.066779 0.40828,-6.326603 1.285922,-9.268309 5.011066,-0.735794 10.32267,0.675922 14.976985,2.641664 3.34974,2.571881 7.367025,3.249251 9.590951,-1.106025 2.042283,-2.2469 5.432896,-8.331584 -0.501799,-6.683044 -7.895196,0.161776 -15.804491,-0.482558 -23.573684,-1.886345 -4.717846,-3.571141 1.762694,-5.017089 4.697138,-4.255227 2.97421,0.23855 6.282889,-0.491894 8.728889,1.668192 3.610256,1.979255 6.490995,-1.222572 5.586928,-4.698205 -0.09194,-3.026174 -0.151717,-6.143959 1.547372,-8.791718 1.424125,-1.708903 1.337677,-4.55446 -1.470142,-4.160272 -6.236935,-0.802977 -12.57139,-1.239921 -18.74761,-2.270772 0.03665,-4.078402 6.464674,-1.092319 9.330758,-1.783822 4.071306,-0.08781 8.308924,0.552171 12.272928,-0.283674 2.550579,-5.014807 -6.343814,-4.385948 -9.597976,-4.810979 -4.2759,-0.692568 -8.840915,1.203071 -12.840738,-0.240532 -1.459621,-3.913387 -4.739322,-2.284434 -7.544654,-0.487695 -6.584925,2.921586 -13.975193,1.582828 -20.841965,2.780313 -3.763011,1.34641 -2.755601,6.384578 1.155506,4.689295 6.42298,-0.410024 12.845858,-1.005186 19.268902,-1.298963 0.963388,0.373343 0.502703,2.182999 -0.32384,2.480463 z"
       id="path10"
       style="stroke-width:2.13627" />
    <path
       fill="#ce0103"
       d="m 46.220944,33.223335 c 0.839629,-3.017757 -3.132088,-1.360925 -4.792241,-1.553458 -5.926314,0.382061 -11.852653,0.919844 -17.778952,1.204434 -2.644838,-5.543895 6.146286,-5.720058 9.851729,-5.445487 5.926643,-0.06586 12.066148,-1.0333 17.065895,-4.415085 2.712256,0.623767 4.222602,5.09785 8.112966,3.142233 5.513899,-0.494644 11.096622,-0.207176 16.53108,0.843559 5.221016,3.603583 -2.209701,4.931064 -5.18815,4.1763 -4.768388,-0.02344 -9.536448,-0.173499 -14.295848,-0.467595 -3.428243,2.039787 1.143941,2.8401 3.019415,2.75819 5.539622,0.722216 11.162828,1.082238 16.650039,2.031603 1.411555,1.807652 -0.933972,3.860974 -1.435195,5.733444 -1.431184,3.490871 0.03341,7.451469 -0.980764,11.011868 -3.47107,3.136584 -6.725676,-1.643659 -10.422361,-1.033705 -2.591071,-0.07012 -5.182145,-0.140036 -7.773218,-0.21016 -5.850468,3.19686 2.074721,5.546922 5.21594,5.257515 6.958225,0.978587 14.00393,1.10479 21.01252,0.982275 0.922812,3.596974 -3.262383,7.604165 -5.995077,10.044407 -3.843169,0.130658 -7.237183,-3.605734 -11.329422,-4.042423 -3.111263,-0.323254 -7.882973,-2.44491 -10.18862,-0.11382 -0.342576,3.033741 -0.685151,6.067505 -1.027728,9.101246 -3.068603,4.917103 -5.15706,-1.312114 -5.219649,-4.241862 -0.634335,-2.903704 -0.584136,-7.782889 -5.117772,-6.883548 -6.810055,1.605464 -13.62011,3.210906 -20.430165,4.816349 -6.13284,-1.140789 -0.451539,-8.248478 3.828217,-6.862894 6.706915,-0.910572 13.410373,-1.846466 20.109265,-2.813841 5.543263,-3.83983 -2.752448,-5.511028 -6.024829,-4.427853 -4.813566,0.371596 -9.575402,1.386183 -14.12291,2.999789 -3.465121,-2.471021 3.70053,-6.969317 3.133308,-10.949397 -0.990457,-3.946786 -1.985378,-9.133005 3.587954,-8.568941 4.439809,-0.463695 8.879614,-0.92739 13.319423,-1.391084 z m 7.900655,4.625223 c -0.400823,1.938992 0.09506,3.802446 2.465004,3.127823 3.476663,-0.278514 9.175967,1.540264 10.700554,-1.475531 -0.590919,-3.342971 -6.668133,-1.487276 -9.478709,-2.126494 -1.134751,0.238955 -3.018304,-0.639752 -3.686849,0.474202 z m -18.970135,1.982239 c -0.577541,5.413473 6.281748,1.24329 9.248855,1.305912 5.259061,-1.40513 -2.272363,-4.802859 -4.63037,-2.266253 -1.442851,0.0567 -2.85884,0.299083 -4.275908,0.534053 l -0.26075,0.141955 z m 18.370628,7.310837 c 4.121726,0.0795 8.303169,0.544391 12.387591,0.383169 1.053796,-2.978729 -2.88079,-3.32008 -4.990491,-3.186821 -2.360626,0.06885 -4.822243,-0.659723 -7.069752,0.302259 -0.369736,0.254985 -1.437445,2.215397 -0.327348,2.501393 z M 46.256273,45.77389 c -1.245516,-2.213351 -4.187234,-0.531645 -6.27944,-0.63924 -1.872277,0.555751 -5.14304,-0.408383 -5.438793,2.181123 1.245516,2.213351 4.187233,0.531645 6.27944,0.63924 1.774041,-0.509371 4.315248,0.24307 5.416305,-1.481329 l 0.0424,-0.530558 z"
       id="path11"
       style="stroke-width:2.13627" />
    <path
       fill="#fefcfc"
       d="m 54.121599,37.848558 c 1.196728,-1.123737 3.455037,-0.203126 5.095814,-0.447602 2.214495,-0.30844 11.28509,0.196519 6.927754,3.349707 -3.902095,0.18991 -8.04546,0.541449 -11.918605,0.01063 -0.313442,-0.910316 -0.04113,-1.955958 -0.104963,-2.912761 z"
       id="path12"
       style="stroke-width:2.13627" />
    <path
       fill="#fefcfc"
       d="m 35.151464,39.830797 c 2.361805,-1.103851 8.98237,-2.362274 10.954522,-0.531261 -0.142855,3.511312 -8.194833,2.699703 -10.611945,2.982416 -0.114188,-0.817044 -0.228385,-1.634111 -0.342577,-2.451155 z"
       id="path13"
       style="stroke-width:2.13627" />
    <path
       fill="#fefcfc"
       d="m 53.522092,47.141634 c -1.900179,-2.739496 3.346165,-3.399134 5.455993,-2.885009 2.349014,0.413925 5.596568,-0.694232 7.021325,1.713485 0.817312,2.498452 -2.406228,1.444392 -3.823387,1.539411 C 59.29138,47.3869 56.406736,47.264256 53.522092,47.141634 Z"
       id="path14"
       style="stroke-width:2.13627" />
    <rect
       fill="#fefcfc"
       x="28.755049"
       y="49.472549"
       transform="matrix(0.9932315,-0.11615153,0.11719221,0.99310925,0,0)"
       width="11.81814"
       height="2.898937"
       rx="1.3702191"
       id="rect14"
       style="stroke-width:2.13627" />
  </g>
</svg>
