<?xml version="1.0" encoding="UTF-8" standalone="no"?>
<!-- Created with Inkscape (http://www.inkscape.org/) -->

<svg
   width="100"
   height="100"
   id="svg2"
   sodipodi:version="0.32"
   inkscape:version="1.3 (0e150ed6c4, 2023-07-21)"
   version="1.0"
   sodipodi:docname="ship.svg"
   inkscape:output_extension="org.inkscape.output.svg.inkscape"
   xmlns:inkscape="http://www.inkscape.org/namespaces/inkscape"
   xmlns:sodipodi="http://sodipodi.sourceforge.net/DTD/sodipodi-0.dtd"
   xmlns:xlink="http://www.w3.org/1999/xlink"
   xmlns="http://www.w3.org/2000/svg"
   xmlns:svg="http://www.w3.org/2000/svg"
   xmlns:rdf="http://www.w3.org/1999/02/22-rdf-syntax-ns#"
   xmlns:cc="http://creativecommons.org/ns#"
   xmlns:dc="http://purl.org/dc/elements/1.1/">
  <defs
     id="defs4">
    <linearGradient
       id="linearGradient3214">
      <stop
         style="stop-color:#c6c600;stop-opacity:1;"
         offset="0"
         id="stop3216" />
      <stop
         style="stop-color:#ffff00;stop-opacity:1;"
         offset="1"
         id="stop3218" />
    </linearGradient>
    <linearGradient
       id="linearGradient3202">
      <stop
         style="stop-color:#ff0000;stop-opacity:1;"
         offset="0"
         id="stop3204" />
      <stop
         style="stop-color:#bd0000;stop-opacity:1;"
         offset="1"
         id="stop3206" />
    </linearGradient>
    <linearGradient
       id="linearGradient3194">
      <stop
         style="stop-color:#dedede;stop-opacity:1;"
         offset="0"
         id="stop3196" />
      <stop
         style="stop-color:#989898;stop-opacity:1;"
         offset="1"
         id="stop3198" />
    </linearGradient>
    <inkscape:perspective
       sodipodi:type="inkscape:persp3d"
       inkscape:vp_x="0 : 556.18109 : 1"
       inkscape:vp_y="0 : 1000 : 0"
       inkscape:vp_z="744.09448 : 556.18109 : 1"
       inkscape:persp3d-origin="372.04724 : 380.78739 : 1"
       id="perspective10" />
    <linearGradient
       inkscape:collect="always"
       xlink:href="#linearGradient3202"
       id="linearGradient3208"
       x1="42.241379"
       y1="32.741379"
       x2="115.51724"
       y2="62.051723"
       gradientUnits="userSpaceOnUse"
       gradientTransform="translate(-32.758621,-3.8793108)" />
  </defs>
  <sodipodi:namedview
     id="base"
     pagecolor="#ffffff"
     bordercolor="#666666"
     borderopacity="1.0"
     gridtolerance="10000"
     guidetolerance="10"
     objecttolerance="10"
     inkscape:pageopacity="0.0"
     inkscape:pageshadow="2"
     inkscape:zoom="5.6821971"
     inkscape:cx="61.155921"
     inkscape:cy="39.509365"
     inkscape:document-units="px"
     inkscape:current-layer="layer1"
     showgrid="false"
     inkscape:window-width="1920"
     inkscape:window-height="1013"
     inkscape:window-x="-9"
     inkscape:window-y="-9"
     inkscape:showpageshadow="2"
     inkscape:pagecheckerboard="0"
     inkscape:deskcolor="#d1d1d1"
     inkscape:window-maximized="1" />
  <metadata
     id="metadata7">
    <rdf:RDF>
      <cc:Work
         rdf:about="">
        <dc:format>image/svg+xml</dc:format>
        <dc:type
           rdf:resource="http://purl.org/dc/dcmitype/StillImage" />
      </cc:Work>
    </rdf:RDF>
  </metadata>
  <g
     inkscape:label="Layer 1"
     inkscape:groupmode="layer"
     id="layer1">
    <ellipse
       class="st0"
       cx="50.095612"
       cy="50.088902"
       id="circle1"
       style="fill:#1a1a1a;stroke-width:0.0924307"
       rx="49.861767"
       ry="49.963661" />
    <ellipse
       class="st1"
       cx="49.983673"
       cy="50.056149"
       id="circle2"
       style="display:inline;fill:#f3f2cc;stroke-width:0.0897546"
       rx="44.971252"
       ry="44.873425" />
    <g
       class="st2"
       id="g2"
       style="enable-background:new"
       transform="matrix(0.07164291,0,0,0.12606159,9.7819808,-18.928406)">&#10;	<path
   class="st0"
   d="m 761.6,490.8 c -69.3,0 -128.7,2.5 -178.1,7.4 19.8,19.8 34.6,37.1 44.5,52 l 37.1,14.8 c 24.7,-4.9 44.5,-14.8 59.4,-29.7 24.7,-29.7 47,-37.1 66.8,-22.3 19.8,14.8 22.3,29.7 7.4,44.5 -34.7,14.8 -64.4,22.3 -89.1,22.3 89.1,54.4 188,91.6 296.9,111.3 -64.4,74.2 -123.7,94 -178.1,59.4 C 769,701 704.7,651.6 635.4,602.1 c 24.7,94 14.8,163.3 -29.7,207.8 -24.7,29.7 -59.3,42.1 -103.8,37.1 -49.5,-14.8 -81.6,-37.1 -96.5,-66.8 0,-14.8 7.4,-17.3 22.3,-7.4 59.4,14.8 98.9,9.9 118.8,-14.8 24.7,-29.7 32.1,-61.8 22.3,-96.5 -133.6,94 -257.3,146 -371.1,155.9 -29.7,5 -54.4,-7.4 -74.2,-37.1 -9.9,-19.8 -5,-29.7 14.8,-29.7 123.7,5 264.7,-39.5 423,-133.6 l -7.4,-29.7 c -49.5,39.6 -121.2,69.3 -215.2,89.1 -49.5,-4.9 -66.8,-14.8 -52,-29.7 19.8,-4.9 42,-9.9 66.8,-14.8 74.2,-19.8 136,-47 185.5,-81.6 L 524.2,528 c -74.2,44.5 -150.9,69.3 -230.1,74.2 -49.5,0 -79.2,-9.9 -89.1,-29.7 0,-4.9 7.4,-7.4 22.3,-7.4 103.9,0 190.5,-24.7 259.8,-74.2 -19.8,-4.9 -49.5,-2.4 -89.1,7.4 -24.8,14.8 -47,19.8 -66.8,14.8 -19.8,-14.8 -27.3,-32.1 -22.3,-52 9.9,-14.8 17.3,-34.6 22.3,-59.4 -49.5,19.8 -89.1,27.3 -118.8,22.3 -64.4,-19.8 -89.1,-44.5 -74.2,-74.2 138.5,-9.9 269.6,-44.5 393.4,-103.9 19.8,-9.9 34.6,-9.9 44.5,0 14.8,9.9 17.3,22.3 7.4,37.1 14.8,9.9 27.2,14.8 37.1,14.8 49.5,-9.9 69.2,2.5 59.4,37.1 -9.9,9.9 -29.7,22.3 -59.4,37.1 54.4,0 101.4,2.5 141,7.4 69.2,-19.8 101.4,-4.9 96.5,44.5 -5,19.8 -7.4,37.1 -7.4,52 -9.9,39.6 -39.6,44.6 -89.1,14.9 z M 539,409.1 H 405.4 c -24.8,34.7 -22.3,52 7.4,52 l 103.9,-7.4 z m -7.4,-96.4 c -49.5,19.8 -86.6,37.1 -111.3,52 29.7,0 74.2,0 133.6,0 14.8,-4.9 24.7,-17.3 29.7,-37.1 -14.9,-14.9 -32.3,-19.9 -52,-14.9 z m 66.7,141 h 163.3 c 19.8,-14.8 22.3,-27.2 7.4,-37.1 H 620.6 Z"
   id="path2"
   style="fill:#050200" />
&#10;</g>
  </g>
</svg>
