<?xml version="1.0" encoding="UTF-8" standalone="no"?>
<!-- Created with Inkscape (http://www.inkscape.org/) -->

<svg
   width="100"
   height="100"
   id="svg2"
   sodipodi:version="0.32"
   inkscape:version="1.3 (0e150ed6c4, 2023-07-21)"
   version="1.0"
   sodipodi:docname="ship.svg"
   inkscape:output_extension="org.inkscape.output.svg.inkscape"
   xmlns:inkscape="http://www.inkscape.org/namespaces/inkscape"
   xmlns:sodipodi="http://sodipodi.sourceforge.net/DTD/sodipodi-0.dtd"
   xmlns:xlink="http://www.w3.org/1999/xlink"
   xmlns="http://www.w3.org/2000/svg"
   xmlns:svg="http://www.w3.org/2000/svg"
   xmlns:rdf="http://www.w3.org/1999/02/22-rdf-syntax-ns#"
   xmlns:cc="http://creativecommons.org/ns#"
   xmlns:dc="http://purl.org/dc/elements/1.1/">
  <defs
     id="defs4">
    <linearGradient
       id="linearGradient3214">
      <stop
         style="stop-color:#c6c600;stop-opacity:1;"
         offset="0"
         id="stop3216" />
      <stop
         style="stop-color:#ffff00;stop-opacity:1;"
         offset="1"
         id="stop3218" />
    </linearGradient>
    <linearGradient
       id="linearGradient3202">
      <stop
         style="stop-color:#ff0000;stop-opacity:1;"
         offset="0"
         id="stop3204" />
      <stop
         style="stop-color:#bd0000;stop-opacity:1;"
         offset="1"
         id="stop3206" />
    </linearGradient>
    <linearGradient
       id="linearGradient3194">
      <stop
         style="stop-color:#dedede;stop-opacity:1;"
         offset="0"
         id="stop3196" />
      <stop
         style="stop-color:#989898;stop-opacity:1;"
         offset="1"
         id="stop3198" />
    </linearGradient>
    <inkscape:perspective
       sodipodi:type="inkscape:persp3d"
       inkscape:vp_x="0 : 556.18109 : 1"
       inkscape:vp_y="0 : 1000 : 0"
       inkscape:vp_z="744.09448 : 556.18109 : 1"
       inkscape:persp3d-origin="372.04724 : 380.78739 : 1"
       id="perspective10" />
    <linearGradient
       inkscape:collect="always"
       xlink:href="#linearGradient3202"
       id="linearGradient3208"
       x1="42.241379"
       y1="32.741379"
       x2="115.51724"
       y2="62.051723"
       gradientUnits="userSpaceOnUse"
       gradientTransform="translate(-32.758621,-3.8793108)" />
  </defs>
  <sodipodi:namedview
     id="base"
     pagecolor="#ffffff"
     bordercolor="#666666"
     borderopacity="1.0"
     gridtolerance="10000"
     guidetolerance="10"
     objecttolerance="10"
     inkscape:pageopacity="0.0"
     inkscape:pageshadow="2"
     inkscape:zoom="8.0358403"
     inkscape:cx="50.088104"
     inkscape:cy="50.088104"
     inkscape:document-units="px"
     inkscape:current-layer="layer1"
     showgrid="false"
     inkscape:window-width="1920"
     inkscape:window-height="1013"
     inkscape:window-x="-9"
     inkscape:window-y="-9"
     inkscape:showpageshadow="2"
     inkscape:pagecheckerboard="0"
     inkscape:deskcolor="#d1d1d1"
     inkscape:window-maximized="1" />
  <metadata
     id="metadata7">
    <rdf:RDF>
      <cc:Work
         rdf:about="">
        <dc:format>image/svg+xml</dc:format>
        <dc:type
           rdf:resource="http://purl.org/dc/dcmitype/StillImage" />
      </cc:Work>
    </rdf:RDF>
  </metadata>
  <g
     inkscape:label="Layer 1"
     inkscape:groupmode="layer"
     id="layer1">
    <ellipse
       class="st0"
       cx="50.095612"
       cy="50.088902"
       id="circle1"
       style="fill:#1a1a1a;stroke-width:0.0924307"
       rx="49.861767"
       ry="49.963661" />
    <ellipse
       class="st1"
       cx="49.983673"
       cy="50.056149"
       id="circle2"
       style="display:inline;fill:#f3f2cc;stroke-width:0.0897546"
       rx="44.971252"
       ry="44.873425" />
    <g
       class="st2"
       id="g2"
       style="enable-background:new"
       transform="matrix(0.07089989,0,0,0.12412,10.752132,-17.693374)">&#10;	<path
   class="st0"
   d="m 496.3,746.1 c -123.7,0 -240,9.9 -348.8,29.7 -34.7,14.8 -47,5 -37.1,-29.7 14.8,-49.5 44.5,-69.2 89.1,-59.4 44.5,5 143.5,5 296.9,0 0,-14.8 0,-32.1 0,-52 -49.5,0 -91.6,2.5 -126.2,7.4 -44.5,19.8 -71.8,9.9 -81.6,-29.7 -5,-44.5 -9.9,-91.5 -14.8,-141 -9.9,-39.5 2.4,-61.8 37.1,-66.8 19.8,-4.9 37.1,-2.4 52,7.4 39.5,0 81.6,0 126.2,0 9.9,-14.8 9.9,-32.1 0,-52 -113.8,0 -198,7.4 -252.3,22.3 -24.8,5 -34.7,-2.4 -29.7,-22.3 14.8,-44.5 39.5,-64.3 74.2,-59.4 39.5,9.9 108.8,12.4 207.8,7.4 4.9,-29.7 12.4,-49.5 22.3,-59.4 14.8,-9.9 32.1,-12.4 52,-7.4 19.8,5 32.1,24.8 37.1,59.4 h 178.1 c 59.4,0 89.1,7.4 89.1,22.3 14.8,14.8 9.9,27.3 -14.8,37.1 -79.2,-4.9 -163.3,-4.9 -252.3,0 -5,9.9 -7.4,27.3 -7.4,52 34.6,0 76.7,0 126.2,0 49.5,-34.6 84.1,-24.7 103.9,29.7 -5,64.4 -9.9,121.2 -14.8,170.7 -5,34.7 -34.7,44.5 -89.1,29.7 -24.8,-4.9 -66.8,-4.9 -126.2,0 -5,14.8 -5,29.7 0,44.5 168.2,0 304.3,2.5 408.2,7.4 -39.6,84.1 -84.1,113.8 -133.6,89.1 -94,-24.7 -185.5,-37.1 -274.6,-37.1 4.9,34.7 4.9,59.4 0,74.2 -9.9,24.8 -29.7,37.1 -59.4,37.1 -35.1,-4.8 -47.4,-41.9 -37.5,-111.2 z M 370.1,493.8 c 44.5,5 84.1,5 118.8,0 9.9,-14.8 9.9,-27.2 0,-37.1 9.9,-4.9 -24.8,-4.9 -103.9,0 -19.9,9.9 -24.8,22.2 -14.9,37.1 z m 0,66.8 c 0,19.8 7.4,29.7 22.3,29.7 29.7,5 61.8,5 96.5,0 9.9,-14.8 9.9,-32.1 0,-52 -79.2,-4.9 -118.8,2.5 -118.8,22.3 z m 222.7,7.4 c -5,14.8 -2.5,22.3 7.4,22.3 9.9,5 47,5 111.3,0 9.9,0 17.3,-7.4 22.3,-22.3 0,-14.8 -5,-24.7 -14.8,-29.7 -29.7,-4.9 -66.8,-4.9 -111.3,0 -10,0 -14.9,9.9 -14.9,29.7 z m 0,-74.2 c 24.7,5 69.2,5 133.6,0 14.8,-24.7 7.4,-39.5 -22.3,-44.5 h -96.5 c -14.8,-0.1 -19.8,14.8 -14.8,44.5 z"
   id="path2"
   style="fill:#050200" />
&#10;</g>
  </g>
</svg>
