<?xml version="1.0" encoding="UTF-8" standalone="no"?>
<!-- Creator: CorelDRAW 2020 (64-Bit 评估版) -->

<svg
   xml:space="preserve"
   width="180mm"
   height="209mm"
   version="1.1"
   style="shape-rendering:geometricPrecision; text-rendering:geometricPrecision; image-rendering:optimizeQuality; fill-rule:evenodd; clip-rule:evenodd"
   viewBox="0 0 789.04 916.16"
   id="svg67"
   sodipodi:docname="board.svg"
   inkscape:version="1.3 (0e150ed6c4, 2023-07-21)"
   xmlns:inkscape="http://www.inkscape.org/namespaces/inkscape"
   xmlns:sodipodi="http://sodipodi.sourceforge.net/DTD/sodipodi-0.dtd"
   xmlns="http://www.w3.org/2000/svg"
   xmlns:svg="http://www.w3.org/2000/svg"><sodipodi:namedview
   id="namedview67"
   pagecolor="#ffffff"
   bordercolor="#000000"
   borderopacity="0.25"
   inkscape:showpageshadow="2"
   inkscape:pageopacity="0.0"
   inkscape:pagecheckerboard="0"
   inkscape:deskcolor="#d1d1d1"
   inkscape:document-units="mm"
   showgrid="false"
   inkscape:zoom="0.65702751"
   inkscape:cx="339.4074"
   inkscape:cy="394.96063"
   inkscape:window-width="1366"
   inkscape:window-height="715"
   inkscape:window-x="144"
   inkscape:window-y="892"
   inkscape:window-maximized="1"
   inkscape:current-layer="图层_x0020_1" />&#10; <defs
   id="defs1">&#10;  <style
   type="text/css"
   id="style1">&#10;   <![CDATA[
    .str0 {stroke:black;stroke-width:2.63;stroke-miterlimit:22.9256}
    .str1 {stroke:black;stroke-width:1.32;stroke-miterlimit:22.9256}
    .fil1 {fill:none}
    .fil2 {fill:black;fill-rule:nonzero}
    .fil0 {fill:#E8C07F;fill-rule:nonzero}
   ]]>&#10;  </style>&#10; </defs>&#10; <g
   id="图层_x0020_1"
   inkscape:label="layer1">&#10;  <metadata
   id="CorelCorpID_0Corel-Layer" />&#10;  <g
   id="_1784608570224"
   style="fill:#008080">&#10;   <rect
   class="fil0"
   x="0"
   width="789.03998"
   height="916.15997"
   id="rect1"
   y="0"
   style="display:inline;fill:#008080" />&#10;   <rect
   class="fil1 str0"
   x="64.660004"
   y="87.669998"
   width="659.71997"
   height="740.82001"
   id="rect2"
   style="display:inline;fill:#000000" />&#10;   <polygon
   class="fil1 str1"
   points="70.14,823.01 718.9,823.01 718.9,93.15 70.14,93.15 "
   id="polygon2"
   style="display:inline;fill:#008080" />&#10;   <line
   class="fil1 str1"
   x1="70.139999"
   y1="174.25"
   x2="718.90002"
   y2="174.25"
   id="line2"
   style="display:inline;fill:#000000" />&#10;   <line
   class="fil1 str1"
   x1="70.139999"
   y1="255.34"
   x2="718.90002"
   y2="255.34"
   id="line3"
   style="display:inline;fill:#000000" />&#10;   <line
   class="fil1 str1"
   x1="70.139999"
   y1="336.44"
   x2="718.90002"
   y2="336.44"
   id="line4"
   style="display:inline;fill:#000000" />&#10;   <line
   class="fil1 str1"
   x1="70.139999"
   y1="417.53"
   x2="718.90002"
   y2="417.53"
   id="line5"
   style="display:inline;fill:#000000" />&#10;   <line
   class="fil1 str1"
   x1="70.139999"
   y1="498.63"
   x2="718.90002"
   y2="498.63"
   id="line6"
   style="display:inline;fill:#000000" />&#10;   <line
   class="fil1 str1"
   x1="70.139999"
   y1="660.82001"
   x2="718.90002"
   y2="660.82001"
   id="line7"
   style="display:inline;fill:#000000" />&#10;   <line
   class="fil1 str1"
   x1="70.139999"
   y1="741.90997"
   x2="718.90002"
   y2="741.90997"
   id="line8"
   style="display:inline;fill:#000000" />&#10;   <path
   class="fil1 str1"
   d="M 637.8,823.01 V 498.63 m 0,-81.1 V 93.15"
   id="path8"
   style="display:inline;fill:#000000" />&#10;   <path
   class="fil1 str1"
   d="M 556.71,823.01 V 498.63 m 0,-81.1 V 93.15"
   id="path9"
   style="display:inline;fill:#000000" />&#10;   <path
   class="fil1 str1"
   d="M 475.61,823.01 V 498.63 m 0,-81.1 V 93.15"
   id="path10"
   style="display:inline;fill:#000000" />&#10;   <path
   class="fil1 str1"
   d="M 394.52,823.01 V 498.63 m 0,-81.1 V 93.15"
   id="path11"
   style="display:inline;fill:#000000" />&#10;   <path
   class="fil1 str1"
   d="M 313.42,823.01 V 498.63 m 0,-81.1 V 93.15"
   id="path12"
   style="display:inline;fill:#000000" />&#10;   <path
   class="fil1 str1"
   d="M 232.33,823.01 V 498.63 m 0,-81.1 V 93.15"
   id="path13"
   style="display:inline;fill:#000000" />&#10;   <path
   class="fil1 str1"
   d="M 151.23,823.01 V 498.63 m 0,-81.1 V 93.15"
   id="path14"
   style="display:inline;fill:#000000" />&#10;   <line
   class="fil1 str1"
   x1="313.42001"
   y1="93.150002"
   x2="475.60999"
   y2="255.34"
   id="line14"
   style="display:inline;fill:#000000" />&#10;   <line
   class="fil1 str1"
   x1="475.60999"
   y1="93.150002"
   x2="313.42001"
   y2="255.34"
   id="line15"
   style="display:inline;fill:#000000" />&#10;   <line
   class="fil1 str1"
   x1="313.42001"
   y1="660.82001"
   x2="475.60999"
   y2="823.01001"
   id="line16"
   style="display:inline;fill:#000000" />&#10;   <line
   class="fil1 str1"
   x1="475.60999"
   y1="660.82001"
   x2="313.42001"
   y2="823.01001"
   id="line17"
   style="display:inline;fill:#000000" />&#10;   <line
   class="fil1 str1"
   x1="70.139999"
   y1="579.71997"
   x2="718.90002"
   y2="579.71997"
   id="line18"
   style="display:inline;fill:#000000" />&#10;   <polyline
   class="fil1 str1"
   points="615.89,654.84 631.83,654.84 631.83,638.9 "
   id="polyline18"
   style="display:inline;fill:#000000" />&#10;   <polyline
   class="fil1 str1"
   points="659.72,654.84 643.78,654.84 643.78,638.9 "
   id="polyline19"
   style="display:inline;fill:#000000" />&#10;   <polyline
   class="fil1 str1"
   points="615.89,666.8 631.83,666.8 631.83,682.74 "
   id="polyline20"
   style="display:inline;fill:#000000" />&#10;   <polyline
   class="fil1 str1"
   points="659.72,666.8 643.78,666.8 643.78,682.74 "
   id="polyline21"
   style="display:inline;fill:#000000" />&#10;   <polyline
   class="fil1 str1"
   points="129.31,654.84 145.26,654.84 145.26,638.9 "
   id="polyline22"
   style="display:inline;fill:#000000" />&#10;   <polyline
   class="fil1 str1"
   points="173.15,654.84 157.21,654.84 157.21,638.9 "
   id="polyline23"
   style="display:inline;fill:#000000" />&#10;   <polyline
   class="fil1 str1"
   points="129.31,666.8 145.26,666.8 145.26,682.74 "
   id="polyline24"
   style="display:inline;fill:#000000" />&#10;   <polyline
   class="fil1 str1"
   points="173.15,666.8 157.21,666.8 157.21,682.74 "
   id="polyline25"
   style="display:inline;fill:#000000" />&#10;   <polyline
   class="fil1 str1"
   points="615.89,249.37 631.83,249.37 631.83,233.42 "
   id="polyline26"
   style="display:inline;fill:#000000" />&#10;   <polyline
   class="fil1 str1"
   points="659.72,249.37 643.78,249.37 643.78,233.42 "
   id="polyline27"
   style="display:inline;fill:#000000" />&#10;   <polyline
   class="fil1 str1"
   points="615.89,261.32 631.83,261.32 631.83,277.26 "
   id="polyline28"
   style="display:inline;fill:#000000" />&#10;   <polyline
   class="fil1 str1"
   points="659.72,261.32 643.78,261.32 643.78,277.26 "
   id="polyline29"
   style="display:inline;fill:#000000" />&#10;   <polyline
   class="fil1 str1"
   points="129.31,249.37 145.26,249.37 145.26,233.42 "
   id="polyline30"
   style="display:inline;fill:#000000" />&#10;   <polyline
   class="fil1 str1"
   points="173.15,249.37 157.21,249.37 157.21,233.42 "
   id="polyline31"
   style="display:inline;fill:#000000" />&#10;   <polyline
   class="fil1 str1"
   points="129.31,261.32 145.26,261.32 145.26,277.26 "
   id="polyline32"
   style="display:inline;fill:#000000" />&#10;   <polyline
   class="fil1 str1"
   points="173.15,261.32 157.21,261.32 157.21,277.26 "
   id="polyline33"
   style="display:inline;fill:#000000" />&#10;   <polyline
   class="fil1 str1"
   points="534.79,573.75 550.73,573.75 550.73,557.81 "
   id="polyline34"
   style="display:inline;fill:#000000" />&#10;   <polyline
   class="fil1 str1"
   points="578.63,573.75 562.69,573.75 562.69,557.81 "
   id="polyline35"
   style="display:inline;fill:#000000" />&#10;   <polyline
   class="fil1 str1"
   points="534.79,585.7 550.73,585.7 550.73,601.64 "
   id="polyline36"
   style="display:inline;fill:#000000" />&#10;   <polyline
   class="fil1 str1"
   points="578.63,585.7 562.69,585.7 562.69,601.64 "
   id="polyline37"
   style="display:inline;fill:#000000" />&#10;   <polyline
   class="fil1 str1"
   points="372.6,573.75 388.54,573.75 388.54,557.81 "
   id="polyline38"
   style="display:inline;fill:#000000" />&#10;   <polyline
   class="fil1 str1"
   points="416.44,573.75 400.5,573.75 400.5,557.81 "
   id="polyline39"
   style="display:inline;fill:#000000" />&#10;   <polyline
   class="fil1 str1"
   points="372.6,585.7 388.54,585.7 388.54,601.64 "
   id="polyline40"
   style="display:inline;fill:#000000" />&#10;   <polyline
   class="fil1 str1"
   points="416.44,585.7 400.5,585.7 400.5,601.64 "
   id="polyline41"
   style="display:inline;fill:#000000" />&#10;   <polyline
   class="fil1 str1"
   points="210.41,573.75 226.35,573.75 226.35,557.81 "
   id="polyline42"
   style="display:inline;fill:#000000" />&#10;   <polyline
   class="fil1 str1"
   points="254.25,573.75 238.31,573.75 238.31,557.81 "
   id="polyline43"
   style="display:inline;fill:#000000" />&#10;   <polyline
   class="fil1 str1"
   points="210.41,585.7 226.35,585.7 226.35,601.64 "
   id="polyline44"
   style="display:inline;fill:#000000" />&#10;   <polyline
   class="fil1 str1"
   points="254.25,585.7 238.31,585.7 238.31,601.64 "
   id="polyline45"
   style="display:inline;fill:#000000" />&#10;   <polyline
   class="fil1 str1"
   points="696.98,573.75 712.92,573.75 712.92,557.81 "
   id="polyline46"
   style="display:inline;fill:#000000" />&#10;   <polyline
   class="fil1 str1"
   points="696.98,585.7 712.92,585.7 712.92,601.64 "
   id="polyline47"
   style="display:inline;fill:#000000" />&#10;   <polyline
   class="fil1 str1"
   points="92.06,573.75 76.11,573.75 76.11,557.81 "
   id="polyline48"
   style="display:inline;fill:#000000" />&#10;   <polyline
   class="fil1 str1"
   points="92.06,585.7 76.11,585.7 76.11,601.64 "
   id="polyline49"
   style="display:inline;fill:#000000" />&#10;   <polyline
   class="fil1 str1"
   points="534.79,330.46 550.73,330.46 550.73,314.52 "
   id="polyline50"
   style="display:inline;fill:#000000" />&#10;   <polyline
   class="fil1 str1"
   points="578.63,330.46 562.69,330.46 562.69,314.52 "
   id="polyline51"
   style="display:inline;fill:#000000" />&#10;   <polyline
   class="fil1 str1"
   points="534.79,342.42 550.73,342.42 550.73,358.36 "
   id="polyline52"
   style="display:inline;fill:#000000" />&#10;   <polyline
   class="fil1 str1"
   points="578.63,342.42 562.69,342.42 562.69,358.36 "
   id="polyline53"
   style="display:inline;fill:#000000" />&#10;   <polyline
   class="fil1 str1"
   points="372.6,330.46 388.54,330.46 388.54,314.52 "
   id="polyline54"
   style="display:inline;fill:#000000" />&#10;   <polyline
   class="fil1 str1"
   points="416.44,330.46 400.5,330.46 400.5,314.52 "
   id="polyline55"
   style="display:inline;fill:#000000" />&#10;   <polyline
   class="fil1 str1"
   points="372.6,342.42 388.54,342.42 388.54,358.36 "
   id="polyline56"
   style="display:inline;fill:#000000" />&#10;   <polyline
   class="fil1 str1"
   points="416.44,342.42 400.5,342.42 400.5,358.36 "
   id="polyline57"
   style="display:inline;fill:#000000" />&#10;   <polyline
   class="fil1 str1"
   points="210.41,330.46 226.35,330.46 226.35,314.52 "
   id="polyline58"
   style="display:inline;fill:#000000" />&#10;   <polyline
   class="fil1 str1"
   points="254.25,330.46 238.31,330.46 238.31,314.52 "
   id="polyline59"
   style="display:inline;fill:#000000" />&#10;   <polyline
   class="fil1 str1"
   points="210.41,342.42 226.35,342.42 226.35,358.36 "
   id="polyline60"
   style="display:inline;fill:#000000" />&#10;   <polyline
   class="fil1 str1"
   points="254.25,342.42 238.31,342.42 238.31,358.36 "
   id="polyline61"
   style="display:inline;fill:#000000" />&#10;   <polyline
   class="fil1 str1"
   points="696.98,330.46 712.92,330.46 712.92,314.52 "
   id="polyline62"
   style="display:inline;fill:#000000" />&#10;   <polyline
   class="fil1 str1"
   points="696.98,342.42 712.92,342.42 712.92,358.36 "
   id="polyline63"
   style="display:inline;fill:#000000" />&#10;   <polyline
   class="fil1 str1"
   points="92.06,330.46 76.11,330.46 76.11,314.52 "
   id="polyline64"
   style="display:inline;fill:#000000" />&#10;   <polyline
   class="fil1 str1"
   points="92.06,342.42 76.11,342.42 76.11,358.36 "
   id="polyline65"
   style="display:inline;fill:#000000" />&#10;   <path
   class="fil2"
   d="m 171.88,442.35 c 0.58,0 0.89,0.3 0.96,0.9 0.38,1.14 1.57,1.77 3.57,1.9 -0.03,-1.14 -0.08,-2.07 -0.14,-2.8 0,-0.64 0.39,-1.07 1.19,-1.26 0.8,0.1 1.19,0.52 1.19,1.26 0,0.95 -0.01,1.86 -0.04,2.76 1.65,-0.2 2.68,-0.82 3.09,-1.86 0.29,-0.5 0.63,-0.77 1,-0.82 0.89,0 1.34,0.32 1.34,0.97 -0.58,1.96 -2.4,3.04 -5.48,3.23 v 0.64 c 2.35,0.2 3.85,0.91 4.52,2.16 0.63,1.41 0.96,2.64 0.96,3.68 0,0.69 -0.35,1.04 -1.05,1.04 -0.73,0 -1.1,-0.34 -1.1,-1 -0.1,-1 -0.38,-2.03 -0.86,-3.09 -0.32,-0.79 -1.14,-1.28 -2.47,-1.45 0,1.84 0.03,3.6 0.09,5.29 0,0.69 -0.39,1.04 -1.19,1.04 -0.63,0 -0.97,-0.57 -1,-1.72 0,-1.54 -0.02,-3.09 -0.05,-4.65 -1.2,0.15 -2.13,0.64 -2.76,1.45 -0.5,1.12 -0.84,2.25 -1,3.39 0,0.79 -0.38,1.19 -1.14,1.19 -0.64,0 -0.96,-0.44 -0.96,-1.34 0,-0.94 0.37,-2.17 1.1,-3.68 0.83,-1.37 2.41,-2.13 4.76,-2.31 v -0.64 c -3.27,-0.17 -5.16,-1.3 -5.66,-3.39 0.12,-0.6 0.5,-0.9 1.14,-0.9 z m 14.91,0.04 c 0.54,0 0.85,0.29 0.91,0.86 0.41,1.12 1.63,1.71 3.67,1.78 -0.03,-0.99 -0.08,-1.81 -0.15,-2.45 0,-0.62 0.43,-1.04 1.29,-1.27 0.76,0.13 1.14,0.55 1.14,1.27 0,0.82 -0.02,1.61 -0.05,2.38 1.71,-0.23 2.76,-0.86 3.15,-1.9 0.25,-0.47 0.57,-0.73 0.95,-0.78 0.86,0 1.28,0.31 1.28,0.93 -0.57,1.91 -2.38,2.99 -5.43,3.24 v 0.64 c 2.58,0.2 4.23,1.02 4.96,2.45 0.63,1.61 0.95,3 0.95,4.17 0,0.72 -0.32,1.07 -0.95,1.07 -0.8,0 -1.19,-0.34 -1.19,-1.04 -0.06,-1.14 -0.37,-2.34 -0.9,-3.61 -0.38,-0.94 -1.33,-1.51 -2.86,-1.71 0,1.84 0.03,3.62 0.1,5.35 0,0.7 -0.38,1.04 -1.14,1.04 -0.67,0 -1.03,-0.58 -1.1,-1.75 v -4.69 c -1.11,0.17 -1.93,0.68 -2.43,1.52 -0.51,1.19 -0.83,2.39 -0.95,3.61 0,0.79 -0.4,1.19 -1.19,1.19 -0.67,0 -1,-0.46 -1,-1.38 0,-0.97 0.37,-2.25 1.1,-3.84 0.8,-1.44 2.28,-2.24 4.48,-2.41 v -0.64 c -3.28,-0.15 -5.18,-1.21 -5.71,-3.2 0.15,-0.57 0.52,-0.86 1.09,-0.86 z m 3.58,13.14 c 1.84,0.1 2.76,0.74 2.76,1.93 0,1.27 -1.46,2.17 -4.38,2.72 -2,0.35 -3.01,0.82 -3.01,1.42 l -0.04,1.38 c 0.09,-0.03 0.2,-0.05 0.33,-0.08 3.58,0 5.49,-0.15 5.71,-0.44 0.47,-0.15 0.72,-0.61 0.72,-1.38 0,-0.5 0.33,-0.81 1,-0.93 0.85,0 1.32,0.31 1.38,0.93 l -0.28,1.75 c 0,1.17 -2.84,1.75 -8.53,1.75 -0.19,0 -0.32,-0.01 -0.38,-0.04 l -0.1,2.64 c 0.92,0.05 1.75,0.11 2.48,0.18 2.45,0.25 4.4,0.7 5.85,1.38 1.43,0.55 2.58,1.29 3.43,2.23 0.96,1 1.43,2.04 1.43,3.13 0,0.59 -0.35,0.91 -1.05,0.97 -0.5,0 -0.87,-0.26 -1.1,-0.78 -0.67,-1.78 -2.19,-3.2 -4.57,-4.24 -1.21,-0.52 -2.62,-0.87 -4.24,-1.04 -1.65,-0.2 -3.47,-0.3 -5.47,-0.3 -4.32,0 -6.49,-1.49 -6.53,-4.47 0,-1.34 0.08,-2.56 0.24,-3.65 0.13,-0.67 0.5,-1.04 1.1,-1.08 0.83,0 1.27,0.27 1.33,0.82 0,1.24 -0.15,2.49 -0.48,3.75 0,1.66 1.21,2.63 3.62,2.9 0.63,0.03 1.2,0.05 1.71,0.08 l 0.14,-5.84 c 0.13,-0.74 0.98,-1.35 2.58,-1.82 2.92,-0.42 4.38,-1.02 4.38,-1.79 0,-0.35 -0.37,-0.52 -1.1,-0.52 -5.01,0.05 -9.44,0.11 -13.29,0.18 -0.73,0 -1.1,-0.3 -1.1,-0.9 0.07,-0.37 0.46,-0.59 1.19,-0.67 2.16,-0.08 6.91,-0.14 14.24,-0.18 z"
   id="path65"
   style="display:inline;fill:#ff0000" />&#10;   <path
   id="1"
   class="fil2"
   d="m 280.25,443.85 c 2.95,0 5.86,0.09 8.71,0.26 0.83,0.05 1.24,0.34 1.24,0.86 0,0.69 -0.33,1.04 -1,1.04 -0.8,0 -1.73,-0.03 -2.81,-0.08 -0.19,3.05 -0.3,6.89 -0.33,11.5 0,4.17 -2.18,7.45 -6.53,9.86 -2.6,1.96 -4.47,4.1 -5.62,6.4 -0.22,0.4 -0.63,0.6 -1.24,0.6 -0.64,0 -0.97,-0.34 -1.01,-1 0,-1.32 1.31,-3.3 3.91,-5.96 1.27,-1.14 2.81,-2.29 4.62,-3.46 2.19,-1.71 3.37,-3.89 3.53,-6.55 0,-4.14 0.11,-7.97 0.33,-11.47 -1.21,-0.07 -2.4,-0.13 -3.57,-0.18 -1.78,0 -3.61,0.03 -5.48,0.08 -2.06,0.12 -3.38,0.18 -3.96,0.18 -0.67,0 -1.03,-0.32 -1.09,-0.97 0,-0.57 0.59,-0.9 1.76,-0.97 2.86,-0.05 5.71,-0.1 8.53,-0.15 z m -1.14,3.61 c 0.67,0 1.06,0.23 1.19,0.71 v 8.97 c -0.06,1.73 -1.41,2.6 -4.05,2.6 -2.7,0 -4.05,-0.91 -4.05,-2.72 v -8.71 c 0.22,-0.47 0.57,-0.71 1.05,-0.71 0.76,0.04 1.15,0.29 1.15,0.71 v 1.98 h 3.57 v -2.12 c 0.32,-0.48 0.7,-0.71 1.15,-0.71 z m -1.15,4.54 -3.57,0.04 v 4.69 c 0.02,0.74 0.62,1.12 1.76,1.12 1.21,-0.05 1.81,-0.42 1.81,-1.12 z m -16.14,-9.27 c 0.82,0 1.24,0.29 1.24,0.86 0,3.45 -0.16,5.43 -0.48,5.95 -0.06,0.55 -0.47,0.82 -1.24,0.82 -0.5,0 -0.85,-0.25 -1.05,-0.74 0.38,-0.64 0.57,-2.71 0.57,-6.18 0.13,-0.42 0.45,-0.65 0.96,-0.71 z m 5.19,-0.64 c 0.86,0 1.29,0.31 1.29,0.93 0,3.92 -0.1,6.26 -0.29,7.03 -0.09,1.69 -0.98,2.78 -2.67,3.28 -1.68,0.57 -2.52,1.65 -2.52,3.24 0,8.73 -0.56,13.96 -1.67,15.67 -0.13,0.64 -0.53,0.97 -1.2,0.97 -0.73,0 -1.1,-0.32 -1.1,-0.97 1.3,-1.77 1.96,-6.99 1.96,-15.67 0,-2.11 0.82,-3.56 2.47,-4.36 1.5,-0.6 2.3,-1.34 2.43,-2.23 0.16,-0.77 0.24,-3.09 0.24,-6.96 0,-0.52 0.35,-0.83 1.05,-0.93 z m -0.57,12.92 c 0.8,0 1.19,0.29 1.19,0.85 0,8.59 -0.19,13.52 -0.57,14.82 -0.06,0.51 -0.49,0.78 -1.28,0.78 -0.41,-0.01 -0.71,-0.24 -0.9,-0.71 0.44,-1.54 0.67,-6.55 0.67,-15.04 0.12,-0.42 0.42,-0.66 0.9,-0.7 z"
   style="display:inline;fill:#ff0000" />&#10;   <path
   class="fil2"
   d="m 503.41,442.8 c 0.83,0 1.24,0.29 1.24,0.86 0,3.42 -0.16,5.41 -0.48,5.96 -0.06,0.55 -0.47,0.82 -1.24,0.82 -0.51,0 -0.86,-0.25 -1.05,-0.75 0.38,-0.64 0.57,-2.7 0.57,-6.17 0.13,-0.4 0.45,-0.64 0.95,-0.71 z m 5.19,-0.59 c 0.89,0 1.33,0.33 1.33,1 0,3.72 -0.09,5.95 -0.28,6.7 -0.13,1.59 -1.08,2.64 -2.85,3.13 -1.81,0.52 -2.72,1.55 -2.72,3.09 0,9.33 -0.17,14.9 -0.52,16.71 -0.19,0.74 -0.68,1.12 -1.48,1.12 -0.85,0 -1.28,-0.37 -1.28,-1.12 0.83,-1.86 1.24,-7.43 1.24,-16.71 0,-2.01 0.89,-3.39 2.67,-4.13 1.58,-0.6 2.44,-1.32 2.57,-2.16 0.16,-0.74 0.24,-2.95 0.24,-6.63 0,-0.55 0.37,-0.88 1.1,-1 z m -0.85,12.99 c 0.82,0 1.24,0.29 1.24,0.89 0,8.54 -0.19,13.44 -0.57,14.71 -0.1,0.59 -0.53,0.89 -1.29,0.89 -0.47,0 -0.82,-0.27 -1.04,-0.82 0.47,-1.51 0.71,-6.5 0.71,-14.96 0.12,-0.43 0.44,-0.66 0.95,-0.7 z m 11.57,-4.24 v -1.12 c -2.57,-0.18 -3.85,-0.99 -3.85,-2.46 l -0.05,-0.9 c -1.08,0.05 -2.13,0.1 -3.14,0.15 -0.5,-0.05 -0.8,-0.43 -0.9,-1.12 0,-0.39 0.48,-0.69 1.43,-0.9 0.85,-0.02 1.71,-0.04 2.57,-0.07 l -0.05,-1.82 c 0.16,-0.55 0.54,-0.82 1.15,-0.82 0.6,0 0.93,0.25 1,0.74 v 1.86 c 0.89,-0.03 1.75,-0.04 2.57,-0.04 1.21,0 2.34,0 3.38,0 l 0.05,-1.94 c 0.16,-0.34 0.5,-0.56 1,-0.63 0.8,0.03 1.19,0.27 1.19,0.74 l -0.05,1.86 c 1.2,0.03 2.3,0.06 3.28,0.11 0.83,0.13 1.28,0.43 1.33,0.9 0,0.57 -0.38,0.86 -1.14,0.86 -1.28,-0.02 -2.45,-0.05 -3.53,-0.08 l -0.05,1.19 c 0,1.41 -1.33,2.19 -4,2.34 v 1.12 c 2.1,0.04 3.76,0.1 5,0.15 0.98,0.05 1.48,0.39 1.48,1 0,2.01 -0.81,3.29 -2.43,3.84 -0.8,0.39 -2.15,0.62 -4.05,0.67 v 1.72 c 1.68,0.03 3.65,0.07 5.91,0.15 0.85,0.1 1.28,0.37 1.28,0.82 0,0.6 -0.43,0.9 -1.28,0.9 -1.71,0 -3.69,-0.01 -5.91,-0.04 v 0.67 c 0,0.32 0.02,0.65 0.05,0.97 1.71,0.15 3.24,0.48 4.57,1 1.02,0.47 1.98,0.95 2.86,1.45 0.57,0.37 0.85,0.71 0.85,1.01 0,0.47 -0.35,0.73 -1.04,0.78 -0.51,0 -1.02,-0.17 -1.53,-0.49 -0.54,-0.44 -1.43,-0.93 -2.67,-1.45 -0.8,-0.32 -1.68,-0.55 -2.67,-0.67 0,0.13 0.02,0.22 0.05,0.26 0.37,1.02 0.89,2.04 1.52,3.06 1.15,1.79 2.38,3.25 3.71,4.39 0.41,0.37 0.85,0.75 1.28,1.12 0.45,0.3 0.67,0.58 0.67,0.86 0,0.37 -0.12,0.56 -0.37,0.56 -0.16,0.17 -0.41,0.26 -0.76,0.26 -0.41,0 -0.91,-0.2 -1.48,-0.6 -0.6,-0.52 -1.25,-1.09 -1.95,-1.71 -2.1,-2.13 -3.49,-4.37 -4.19,-6.7 -0.63,2.33 -1.71,4.29 -3.23,5.88 -0.6,0.74 -1.33,1.49 -2.19,2.23 -0.73,0.6 -1.28,0.9 -1.67,0.9 -0.44,0 -0.75,-0.09 -0.9,-0.26 -0.28,-0.15 -0.43,-0.4 -0.43,-0.74 0.06,-0.25 0.63,-0.79 1.71,-1.64 1.56,-1.26 2.83,-2.74 3.81,-4.43 0.73,-1.17 1.22,-2.33 1.48,-3.46 -1.69,0.22 -3.34,0.79 -4.96,1.71 -0.5,0.32 -0.9,0.61 -1.19,0.86 -0.16,0.17 -0.5,0.26 -1,0.26 -0.67,-0.05 -1.05,-0.34 -1.15,-0.86 0,-0.39 1.08,-1.14 3.23,-2.23 1.97,-0.79 3.75,-1.26 5.34,-1.38 0.03,-0.35 0.04,-0.66 0.04,-0.93 v -0.71 c -1.71,0.03 -3.62,0.08 -5.71,0.15 -0.85,0 -1.32,-0.29 -1.38,-0.89 0,-0.35 0.38,-0.62 1.15,-0.82 1.3,-0.1 3.28,-0.17 5.95,-0.22 v -1.72 c -1.77,-0.05 -3.14,-0.27 -4.09,-0.67 -1.66,-0.6 -2.48,-1.87 -2.48,-3.84 0.13,-0.57 0.71,-0.9 1.76,-1 1.84,-0.08 3.45,-0.13 4.8,-0.15 z m 0,4.13 v -2.53 l -2.8,0.03 c -0.86,0 -1.33,0.09 -1.43,0.26 0,1.39 1.41,2.13 4.23,2.24 z m 2.19,-2.53 v 2.53 c 2.89,-0.17 4.33,-0.9 4.33,-2.16 0,-0.22 -0.38,-0.34 -1.14,-0.34 z m -4,-6.14 v 0.59 c 0.1,0.75 1.11,1.12 3.05,1.12 1.84,0 2.76,-0.34 2.76,-1.04 l 0.05,-0.82 c -0.86,0 -1.61,0 -2.24,0 -1.24,0.03 -2.45,0.08 -3.62,0.15 z"
   id="path66"
   style="display:inline;fill:#ff0000" />&#10;   <path
   id="path67"
   class="fil2"
   d="m 604.68,441.72 c 2.32,0.05 4.48,0.11 6.48,0.19 2.41,0.25 3.62,0.73 3.62,1.45 0.16,0.03 0.24,1.23 0.24,3.61 0,1.73 -0.16,2.92 -0.48,3.53 0,1.84 -2.84,2.82 -8.53,2.94 2.8,2.01 5.83,4.12 9.09,6.33 2.26,1.44 3.38,2.45 3.38,3.02 0,0.5 -0.35,0.74 -1.05,0.74 -0.76,0 -2.09,-0.74 -4,-2.24 -1.2,-0.91 -2.32,-1.72 -3.33,-2.41 -0.35,1.41 -0.52,2.76 -0.52,4.05 0,3.42 0.35,6.09 1.05,8 0.85,1.49 1.32,2.4 1.38,2.72 0,0.42 -0.33,0.68 -1,0.78 -0.54,0 -1.01,-0.23 -1.38,-0.7 -1.4,-1.77 -2.23,-5.31 -2.48,-10.65 0,-1.56 0.19,-3.21 0.57,-4.96 0.07,-0.32 0.18,-0.57 0.33,-0.74 -1.52,-1.07 -2.8,-1.96 -3.81,-2.68 -0.85,0.62 -1.89,1.34 -3.09,2.16 0.22,0.25 0.33,0.53 0.33,0.86 v 2.68 c 0,3.4 -0.28,6.17 -0.81,8.3 -0.45,2.13 -1.13,3.62 -2.05,4.47 -0.19,0.55 -0.65,0.82 -1.38,0.82 -0.7,-0.05 -1.05,-0.41 -1.05,-1.08 0.07,-0.2 0.4,-0.72 1,-1.56 0.63,-1.07 1.02,-1.98 1.15,-2.72 0.54,-2.08 0.8,-4.8 0.8,-8.15 0,-0.72 -0.04,-1.43 -0.14,-2.12 -1.3,0.86 -2.73,1.82 -4.28,2.87 -2.01,1.44 -3.29,2.16 -3.86,2.16 -0.73,0 -1.1,-0.26 -1.1,-0.78 0.06,-0.32 1.24,-1.26 3.53,-2.8 2.1,-1.49 5.16,-3.61 9.19,-6.37 -5.05,-0.2 -7.83,-1.21 -8.34,-3.05 -0.32,-1.19 -0.47,-2.31 -0.47,-3.35 v -3.68 c 0.6,-0.72 1.68,-1.18 3.23,-1.38 2,-0.17 4.59,-0.26 7.76,-0.26 z m -1.62,9.94 c 0.07,-1.04 0.11,-2.17 0.15,-3.39 l -7.1,0.07 c 0.1,0.65 0.29,1.24 0.58,1.79 0.32,0.91 2.45,1.42 6.38,1.52 z m 2.1,-3.39 c 0,1.07 0.02,2.2 0.05,3.42 4.1,-0.08 6.36,-0.48 6.81,-1.23 0.47,-0.5 0.74,-1.25 0.8,-2.27 z m -9.14,-1.6 7.19,-0.04 c -0.03,-1.09 -0.1,-2.15 -0.2,-3.16 -4.53,0.05 -6.81,0.35 -6.81,0.89 -0.12,0.45 -0.19,1.22 -0.19,2.31 z m 9.14,-3.2 v 3.16 l 7.71,-0.04 c -0.03,-0.99 -0.1,-1.79 -0.19,-2.38 0,-0.42 -2.51,-0.67 -7.53,-0.74 z"
   style="display:inline;fill:#ff0000" />&#10;  </g>&#10; </g>&#10;</svg>
