<?xml version="1.0" encoding="UTF-8" standalone="no"?>
<!-- Created with Inkscape (http://www.inkscape.org/) -->

<svg
   width="100"
   height="100"
   id="svg2"
   sodipodi:version="0.32"
   inkscape:version="1.3 (0e150ed6c4, 2023-07-21)"
   version="1.0"
   sodipodi:docname="ship.svg"
   inkscape:output_extension="org.inkscape.output.svg.inkscape"
   xmlns:inkscape="http://www.inkscape.org/namespaces/inkscape"
   xmlns:sodipodi="http://sodipodi.sourceforge.net/DTD/sodipodi-0.dtd"
   xmlns:xlink="http://www.w3.org/1999/xlink"
   xmlns="http://www.w3.org/2000/svg"
   xmlns:svg="http://www.w3.org/2000/svg"
   xmlns:rdf="http://www.w3.org/1999/02/22-rdf-syntax-ns#"
   xmlns:cc="http://creativecommons.org/ns#"
   xmlns:dc="http://purl.org/dc/elements/1.1/">
  <defs
     id="defs4">
    <linearGradient
       id="linearGradient3214">
      <stop
         style="stop-color:#c6c600;stop-opacity:1;"
         offset="0"
         id="stop3216" />
      <stop
         style="stop-color:#ffff00;stop-opacity:1;"
         offset="1"
         id="stop3218" />
    </linearGradient>
    <linearGradient
       id="linearGradient3202">
      <stop
         style="stop-color:#ff0000;stop-opacity:1;"
         offset="0"
         id="stop3204" />
      <stop
         style="stop-color:#bd0000;stop-opacity:1;"
         offset="1"
         id="stop3206" />
    </linearGradient>
    <linearGradient
       id="linearGradient3194">
      <stop
         style="stop-color:#dedede;stop-opacity:1;"
         offset="0"
         id="stop3196" />
      <stop
         style="stop-color:#989898;stop-opacity:1;"
         offset="1"
         id="stop3198" />
    </linearGradient>
    <inkscape:perspective
       sodipodi:type="inkscape:persp3d"
       inkscape:vp_x="0 : 556.18109 : 1"
       inkscape:vp_y="0 : 1000 : 0"
       inkscape:vp_z="744.09448 : 556.18109 : 1"
       inkscape:persp3d-origin="372.04724 : 380.78739 : 1"
       id="perspective10" />
    <linearGradient
       inkscape:collect="always"
       xlink:href="#linearGradient3202"
       id="linearGradient3208"
       x1="42.241379"
       y1="32.741379"
       x2="115.51724"
       y2="62.051723"
       gradientUnits="userSpaceOnUse"
       gradientTransform="translate(-32.758621,-3.8793108)" />
  </defs>
  <sodipodi:namedview
     id="base"
     pagecolor="#ffffff"
     bordercolor="#666666"
     borderopacity="1.0"
     gridtolerance="10000"
     guidetolerance="10"
     objecttolerance="10"
     inkscape:pageopacity="0.0"
     inkscape:pageshadow="2"
     inkscape:zoom="6.5619509"
     inkscape:cx="49.146969"
     inkscape:cy="54.175962"
     inkscape:document-units="px"
     inkscape:current-layer="layer1"
     showgrid="false"
     inkscape:window-width="1920"
     inkscape:window-height="1013"
     inkscape:window-x="-9"
     inkscape:window-y="-9"
     inkscape:showpageshadow="2"
     inkscape:pagecheckerboard="0"
     inkscape:deskcolor="#d1d1d1"
     inkscape:window-maximized="1" />
  <metadata
     id="metadata7">
    <rdf:RDF>
      <cc:Work
         rdf:about="">
        <dc:format>image/svg+xml</dc:format>
        <dc:type
           rdf:resource="http://purl.org/dc/dcmitype/StillImage" />
      </cc:Work>
    </rdf:RDF>
  </metadata>
  <g
     inkscape:label="Layer 1"
     inkscape:groupmode="layer"
     id="layer1">
    <ellipse
       class="st0"
       cx="50.095612"
       cy="50.088902"
       id="circle1"
       style="fill:#e41220;stroke-width:0.0924307"
       rx="49.861767"
       ry="49.963661" />
    <ellipse
       class="st1"
       cx="49.983673"
       cy="50.056149"
       id="circle2"
       style="display:inline;fill:#f3f2cc;stroke-width:0.0897546"
       rx="44.971252"
       ry="44.873425" />
    <g
       class="st2"
       id="g2"
       style="enable-background:new"
       transform="matrix(0.07408393,0,0,0.12105017,9.169363,-15.830408)">&#10;	<path
   class="st0"
   d="m 304.4,279.5 c 31.2,-5.2 54.7,0 70.3,15.6 145.8,5.2 255.2,-7.8 328.1,-39.1 46.9,-15.6 72.9,-5.2 78.1,31.2 5.2,20.8 -5.2,31.2 -31.2,31.2 -57.2,10.6 -114.5,18.4 -171.8,23.6 -125,10.4 -192.7,26 -203.1,46.9 0,20.8 10.4,28.7 31.2,23.4 151,5.2 302.1,5.2 453.1,0 31.2,31.2 20.8,52.1 -31.2,62.5 -46.9,-5.2 -101.6,-5.2 -164.1,0 -10.4,20.8 -10.4,46.9 0,78.1 187.5,15.6 304.7,23.4 351.6,23.4 -57.3,104.2 -125,132.8 -203.1,85.9 -88.5,-36.5 -213.5,-52.1 -375,-46.9 -125,5.2 -229.2,23.4 -312.5,54.7 -36.5,15.6 -52.1,7.8 -46.9,-23.4 20.8,-62.5 46.9,-91.1 78.1,-85.9 67.7,5.2 112,5.2 132.8,0 15.6,-26 15.6,-83.3 0,-171.9 -31.2,-62.4 -26,-98.9 15.6,-109.3 z m 109.4,375 c 20.8,-15.6 39.1,-15.6 54.7,0 20.8,26 20.8,49.5 0,70.3 -93.8,62.5 -177.1,99 -250,109.4 -31.2,5.2 -41.7,-2.6 -31.2,-23.4 88.5,-41.7 164,-93.8 226.5,-156.3 z M 390.4,552.9 c 46.9,5.2 106.8,5.2 179.7,0 5.2,-36.5 5.2,-59.9 0,-70.3 -67.7,-10.4 -130.2,-10.4 -187.5,0 -5.3,26.1 -2.6,49.5 7.8,70.3 z m 328.1,125 c 46.9,46.9 104.2,93.8 171.9,140.6 0,15.6 -10.4,20.8 -31.2,15.6 C 791.5,813.3 718.6,776.8 640.4,724.7 609.2,703.9 598.7,685.6 609.2,670 c 31.2,-41.5 67.6,-38.9 109.3,7.9 z"
   id="path2"
   style="fill:#e41220" />
&#10;</g>
  </g>
</svg>
